<svg width="79" height="104" viewBox="0 0 79 104" fill="none" xmlns="http://www.w3.org/2000/svg">
<g filter="url(#filter0_d_609_12122)">
<g filter="url(#filter1_d_609_12122)">
<path fill-rule="evenodd" clip-rule="evenodd" d="M5 13.3885C5 8.75564 8.75564 5 13.3885 5H38.6202C43.253 5 47.0087 8.75564 47.0087 13.3885V38.0246H70.9199C72.8357 38.0246 74.3887 39.5776 74.3887 41.4934V92.6688C74.3887 94.5846 72.8357 96.1376 70.9199 96.1376H69.1803L68.557 98.0164C68.3621 98.6036 67.813 99 67.1943 99H63.6434C63.0593 99 62.5334 98.6461 62.3135 98.105L61.5136 96.1376H43.1551C42.9433 97.7529 41.5614 99 39.8883 99C39.5459 99 39.2157 98.9478 38.9053 98.8509C38.8494 98.8877 38.7876 98.9175 38.7207 98.9387C38.7014 98.9448 38.6327 98.9679 38.5569 98.982C38.4689 98.9984 38.3937 99 38.3408 99H34.7974C34.2216 99 33.7016 98.656 33.4762 98.1261L32.6306 96.1376H30.619C29.5683 96.1376 28.627 95.67 27.9917 94.9338H15.5223V95.5914C15.5223 97.4739 13.9962 99 12.1137 99C10.2312 99 8.70507 97.4739 8.70507 95.5914V94.8724C6.60234 94.52 5 92.6914 5 90.4886V13.3885ZM10.1854 94.9338V95.5914C10.1854 96.6564 11.0487 97.5197 12.1137 97.5197C13.1786 97.5197 14.042 96.6564 14.042 95.5914V94.9338H10.1854ZM36.6215 96.1376H34.2392L34.827 97.5197H37.1377C36.8689 97.1131 36.6878 96.6434 36.6215 96.1376ZM38.0737 94.9338V95.7051C38.0737 96.7073 38.8861 97.5197 39.8883 97.5197C40.8905 97.5197 41.7029 96.7073 41.7029 95.7051V94.9338H38.0737ZM44.0114 94.6573H70.9199C72.0181 94.6573 72.9084 93.767 72.9084 92.6688V51.8105H47.0087V58.8718C48.2547 58.5436 49.5624 58.369 50.9099 58.369C56.4111 58.369 61.2326 61.2768 63.9222 65.6357C65.36 67.9659 66.1894 70.7115 66.1894 73.6486C66.1894 76.8135 65.2263 79.7558 63.5771 82.1955C60.8322 86.2561 56.1832 88.9281 50.9099 88.9281C49.5624 88.9281 48.2547 88.7535 47.0087 88.4254V90.3682C47.0087 92.3387 45.7604 94.0176 44.0114 94.6573ZM47.0087 86.8888C48.245 87.2525 49.554 87.4478 50.9099 87.4478C55.323 87.4478 59.2526 85.3767 61.7795 82.1508L58.2713 80.9234C56.4003 82.8096 53.8046 83.9791 50.9366 83.9791C49.547 83.9791 48.2202 83.7043 47.0087 83.2059V86.8888ZM47.0087 81.5817C48.1915 82.1686 49.5246 82.4988 50.9366 82.4988C53.1711 82.4988 55.2116 81.6714 56.7696 80.3048C56.3359 79.9736 56.0684 79.4535 56.0684 78.8872V69.0977C56.0684 68.352 56.5323 67.6856 57.2301 67.4261C55.6251 65.8028 53.3983 64.7983 50.9366 64.7983C49.5246 64.7983 48.1915 65.1285 47.0087 65.7154V81.5817ZM47.0087 64.0912C48.2202 63.5928 49.547 63.318 50.9366 63.318C54.0536 63.318 56.8483 64.6992 58.7415 66.8804L62.1547 65.6482C59.6519 62.1369 55.5478 59.8493 50.9099 59.8493C49.554 59.8493 48.245 60.0447 47.0087 60.4083V64.0912ZM62.9657 66.9293L57.7489 68.8126C57.6288 68.856 57.5487 68.97 57.5487 69.0977V78.8872C57.5487 79.016 57.6302 79.1308 57.7518 79.1733L62.6587 80.8901C63.9588 78.7854 64.7091 76.3056 64.7091 73.6486C64.7091 71.208 64.0761 68.9171 62.9657 66.9293ZM47.0087 50.3302H72.9084V41.4934C72.9084 40.3952 72.0181 39.5049 70.9199 39.5049H47.0087V50.3302ZM63.1116 96.1376L63.6735 97.5197H67.1621L67.6207 96.1376H63.1116ZM13.3885 6.48031C9.57319 6.48031 6.48031 9.5732 6.48031 13.3885V35.8979H45.5284V13.3885C45.5284 9.57319 42.4355 6.48031 38.6202 6.48031H13.3885ZM45.5284 37.3782H6.48031V90.4886C6.48031 92.126 7.80775 93.4535 9.44522 93.4535H42.4431C44.147 93.4535 45.5284 92.0721 45.5284 90.3682V37.3782ZM8.99933 20.6407C8.99933 19.2568 10.1212 18.1349 11.5051 18.1349C12.889 18.1349 14.0108 19.2568 14.0108 20.6407V29.2011C14.0108 30.585 12.889 31.7069 11.5051 31.7069C10.1212 31.7069 8.99933 30.585 8.99933 29.2011V20.6407ZM11.5051 30.2266C12.0714 30.2266 12.5305 29.7675 12.5305 29.2011V20.6407C12.5305 20.0744 12.0714 19.6152 11.5051 19.6152C10.9388 19.6152 10.4796 20.0744 10.4796 20.6407V29.2011C10.4796 29.7675 10.9388 30.2266 11.5051 30.2266ZM52.2474 42.9425C51.1123 42.9425 50.1921 43.8627 50.1921 44.9978C50.1921 46.133 51.1123 47.0532 52.2474 47.0532C53.3826 47.0532 54.3028 46.133 54.3028 44.9978C54.3028 43.8627 53.3826 42.9425 52.2474 42.9425ZM48.7118 44.9978C48.7118 43.0451 50.2947 41.4621 52.2474 41.4621C54.2001 41.4621 55.7831 43.0451 55.7831 44.9978C55.7831 46.9505 54.2001 48.5335 52.2474 48.5335C50.2947 48.5335 48.7118 46.9505 48.7118 44.9978ZM59.4436 42.9425C58.3084 42.9425 57.3882 43.8627 57.3882 44.9978C57.3882 46.133 58.3084 47.0532 59.4436 47.0532C60.5787 47.0532 61.4989 46.133 61.4989 44.9978C61.4989 43.8627 60.5787 42.9425 59.4436 42.9425ZM55.9079 44.9978C55.9079 43.0451 57.4909 41.4621 59.4436 41.4621C61.3963 41.4621 62.9792 43.0451 62.9792 44.9978C62.9792 46.9505 61.3963 48.5335 59.4436 48.5335C57.4909 48.5335 55.9079 46.9505 55.9079 44.9978ZM66.6397 42.9425C65.5046 42.9425 64.5843 43.8627 64.5843 44.9978C64.5843 46.133 65.5046 47.0532 66.6397 47.0532C67.7748 47.0532 68.6951 46.133 68.6951 44.9978C68.6951 43.8627 67.7748 42.9425 66.6397 42.9425ZM63.104 44.9978C63.104 43.0451 64.687 41.4621 66.6397 41.4621C68.5924 41.4621 70.1754 43.0451 70.1754 44.9978C70.1754 46.9505 68.5924 48.5335 66.6397 48.5335C64.687 48.5335 63.104 46.9505 63.104 44.9978ZM8.99933 45.68C8.99933 44.2961 10.1212 43.1742 11.5051 43.1742C12.889 43.1742 14.0108 44.2961 14.0108 45.68V54.2404C14.0108 55.6243 12.889 56.7462 11.5051 56.7462C10.1212 56.7462 8.99933 55.6243 8.99933 54.2404V45.68ZM11.5051 55.2659C12.0714 55.2659 12.5305 54.8068 12.5305 54.2404V45.68C12.5305 45.1137 12.0714 44.6545 11.5051 44.6545C10.9388 44.6545 10.4796 45.1137 10.4796 45.68V54.2404C10.4796 54.8068 10.9388 55.2659 11.5051 55.2659ZM54.0799 71.1696C54.4887 71.1696 54.8201 71.5009 54.8201 71.9097V75.695C54.8201 76.1038 54.4887 76.4352 54.0799 76.4352C53.6711 76.4352 53.3398 76.1038 53.3398 75.695V71.9097C53.3398 71.5009 53.6711 71.1696 54.0799 71.1696Z" fill="white"/>
<path fill-rule="evenodd" clip-rule="evenodd" d="M5 13.3885C5 8.75564 8.75564 5 13.3885 5H38.6202C43.253 5 47.0087 8.75564 47.0087 13.3885V38.0246H70.9199C72.8357 38.0246 74.3887 39.5776 74.3887 41.4934V92.6688C74.3887 94.5846 72.8357 96.1376 70.9199 96.1376H69.1803L68.557 98.0164C68.3621 98.6036 67.813 99 67.1943 99H63.6434C63.0593 99 62.5334 98.6461 62.3135 98.105L61.5136 96.1376H43.1551C42.9433 97.7529 41.5614 99 39.8883 99C39.5459 99 39.2157 98.9478 38.9053 98.8509C38.8494 98.8877 38.7876 98.9175 38.7207 98.9387C38.7014 98.9448 38.6327 98.9679 38.5569 98.982C38.4689 98.9984 38.3937 99 38.3408 99H34.7974C34.2216 99 33.7016 98.656 33.4762 98.1261L32.6306 96.1376H30.619C29.5683 96.1376 28.627 95.67 27.9917 94.9338H15.5223V95.5914C15.5223 97.4739 13.9962 99 12.1137 99C10.2312 99 8.70507 97.4739 8.70507 95.5914V94.8724C6.60234 94.52 5 92.6914 5 90.4886V13.3885ZM10.1854 94.9338V95.5914C10.1854 96.6564 11.0487 97.5197 12.1137 97.5197C13.1786 97.5197 14.042 96.6564 14.042 95.5914V94.9338H10.1854ZM36.6215 96.1376H34.2392L34.827 97.5197H37.1377C36.8689 97.1131 36.6878 96.6434 36.6215 96.1376ZM38.0737 94.9338V95.7051C38.0737 96.7073 38.8861 97.5197 39.8883 97.5197C40.8905 97.5197 41.7029 96.7073 41.7029 95.7051V94.9338H38.0737ZM44.0114 94.6573H70.9199C72.0181 94.6573 72.9084 93.767 72.9084 92.6688V51.8105H47.0087V58.8718C48.2547 58.5436 49.5624 58.369 50.9099 58.369C56.4111 58.369 61.2326 61.2768 63.9222 65.6357C65.36 67.9659 66.1894 70.7115 66.1894 73.6486C66.1894 76.8135 65.2263 79.7558 63.5771 82.1955C60.8322 86.2561 56.1832 88.9281 50.9099 88.9281C49.5624 88.9281 48.2547 88.7535 47.0087 88.4254V90.3682C47.0087 92.3387 45.7604 94.0176 44.0114 94.6573ZM47.0087 86.8888C48.245 87.2525 49.554 87.4478 50.9099 87.4478C55.323 87.4478 59.2526 85.3767 61.7795 82.1508L58.2713 80.9234C56.4003 82.8096 53.8046 83.9791 50.9366 83.9791C49.547 83.9791 48.2202 83.7043 47.0087 83.2059V86.8888ZM47.0087 81.5817C48.1915 82.1686 49.5246 82.4988 50.9366 82.4988C53.1711 82.4988 55.2116 81.6714 56.7696 80.3048C56.3359 79.9736 56.0684 79.4535 56.0684 78.8872V69.0977C56.0684 68.352 56.5323 67.6856 57.2301 67.4261C55.6251 65.8028 53.3983 64.7983 50.9366 64.7983C49.5246 64.7983 48.1915 65.1285 47.0087 65.7154V81.5817ZM47.0087 64.0912C48.2202 63.5928 49.547 63.318 50.9366 63.318C54.0536 63.318 56.8483 64.6992 58.7415 66.8804L62.1547 65.6482C59.6519 62.1369 55.5478 59.8493 50.9099 59.8493C49.554 59.8493 48.245 60.0447 47.0087 60.4083V64.0912ZM62.9657 66.9293L57.7489 68.8126C57.6288 68.856 57.5487 68.97 57.5487 69.0977V78.8872C57.5487 79.016 57.6302 79.1308 57.7518 79.1733L62.6587 80.8901C63.9588 78.7854 64.7091 76.3056 64.7091 73.6486C64.7091 71.208 64.0761 68.9171 62.9657 66.9293ZM47.0087 50.3302H72.9084V41.4934C72.9084 40.3952 72.0181 39.5049 70.9199 39.5049H47.0087V50.3302ZM63.1116 96.1376L63.6735 97.5197H67.1621L67.6207 96.1376H63.1116ZM13.3885 6.48031C9.57319 6.48031 6.48031 9.5732 6.48031 13.3885V35.8979H45.5284V13.3885C45.5284 9.57319 42.4355 6.48031 38.6202 6.48031H13.3885ZM45.5284 37.3782H6.48031V90.4886C6.48031 92.126 7.80775 93.4535 9.44522 93.4535H42.4431C44.147 93.4535 45.5284 92.0721 45.5284 90.3682V37.3782ZM8.99933 20.6407C8.99933 19.2568 10.1212 18.1349 11.5051 18.1349C12.889 18.1349 14.0108 19.2568 14.0108 20.6407V29.2011C14.0108 30.585 12.889 31.7069 11.5051 31.7069C10.1212 31.7069 8.99933 30.585 8.99933 29.2011V20.6407ZM11.5051 30.2266C12.0714 30.2266 12.5305 29.7675 12.5305 29.2011V20.6407C12.5305 20.0744 12.0714 19.6152 11.5051 19.6152C10.9388 19.6152 10.4796 20.0744 10.4796 20.6407V29.2011C10.4796 29.7675 10.9388 30.2266 11.5051 30.2266ZM52.2474 42.9425C51.1123 42.9425 50.1921 43.8627 50.1921 44.9978C50.1921 46.133 51.1123 47.0532 52.2474 47.0532C53.3826 47.0532 54.3028 46.133 54.3028 44.9978C54.3028 43.8627 53.3826 42.9425 52.2474 42.9425ZM48.7118 44.9978C48.7118 43.0451 50.2947 41.4621 52.2474 41.4621C54.2001 41.4621 55.7831 43.0451 55.7831 44.9978C55.7831 46.9505 54.2001 48.5335 52.2474 48.5335C50.2947 48.5335 48.7118 46.9505 48.7118 44.9978ZM59.4436 42.9425C58.3084 42.9425 57.3882 43.8627 57.3882 44.9978C57.3882 46.133 58.3084 47.0532 59.4436 47.0532C60.5787 47.0532 61.4989 46.133 61.4989 44.9978C61.4989 43.8627 60.5787 42.9425 59.4436 42.9425ZM55.9079 44.9978C55.9079 43.0451 57.4909 41.4621 59.4436 41.4621C61.3963 41.4621 62.9792 43.0451 62.9792 44.9978C62.9792 46.9505 61.3963 48.5335 59.4436 48.5335C57.4909 48.5335 55.9079 46.9505 55.9079 44.9978ZM66.6397 42.9425C65.5046 42.9425 64.5843 43.8627 64.5843 44.9978C64.5843 46.133 65.5046 47.0532 66.6397 47.0532C67.7748 47.0532 68.6951 46.133 68.6951 44.9978C68.6951 43.8627 67.7748 42.9425 66.6397 42.9425ZM63.104 44.9978C63.104 43.0451 64.687 41.4621 66.6397 41.4621C68.5924 41.4621 70.1754 43.0451 70.1754 44.9978C70.1754 46.9505 68.5924 48.5335 66.6397 48.5335C64.687 48.5335 63.104 46.9505 63.104 44.9978ZM8.99933 45.68C8.99933 44.2961 10.1212 43.1742 11.5051 43.1742C12.889 43.1742 14.0108 44.2961 14.0108 45.68V54.2404C14.0108 55.6243 12.889 56.7462 11.5051 56.7462C10.1212 56.7462 8.99933 55.6243 8.99933 54.2404V45.68ZM11.5051 55.2659C12.0714 55.2659 12.5305 54.8068 12.5305 54.2404V45.68C12.5305 45.1137 12.0714 44.6545 11.5051 44.6545C10.9388 44.6545 10.4796 45.1137 10.4796 45.68V54.2404C10.4796 54.8068 10.9388 55.2659 11.5051 55.2659ZM54.0799 71.1696C54.4887 71.1696 54.8201 71.5009 54.8201 71.9097V75.695C54.8201 76.1038 54.4887 76.4352 54.0799 76.4352C53.6711 76.4352 53.3398 76.1038 53.3398 75.695V71.9097C53.3398 71.5009 53.6711 71.1696 54.0799 71.1696Z" stroke="#0084FF" stroke-width="0.2"/>
</g>
<path fill-rule="evenodd" clip-rule="evenodd" d="M61.624 31.3407C67.5928 31.3407 72.4315 26.502 72.4315 20.5331C72.4315 14.5643 67.5928 9.72559 61.624 9.72559C55.6551 9.72559 50.8164 14.5643 50.8164 20.5331C50.8164 26.502 55.6551 31.3407 61.624 31.3407ZM62.1267 13.2568C62.1267 13.0013 61.9196 12.7942 61.6641 12.7942C61.4086 12.7942 61.2015 13.0013 61.2015 13.2568V15.3672L60.5188 14.5626C60.3535 14.3678 60.0615 14.3438 59.8667 14.5091C59.6719 14.6744 59.648 14.9663 59.8133 15.1611L61.2015 16.7973V19.5038L59.2838 17.5861L59.1085 15.4475C59.0876 15.1929 58.8643 15.0034 58.6097 15.0243C58.355 15.0451 58.1655 15.2685 58.1864 15.5231L58.2726 16.5749L56.7803 15.0826C56.5996 14.9019 56.3067 14.9019 56.1261 15.0826C55.9454 15.2632 55.9454 15.5561 56.1261 15.7368L57.5865 17.1972L56.6243 17.0965C56.3702 17.07 56.1426 17.2544 56.1161 17.5085C56.0895 17.7626 56.2739 17.9901 56.528 18.0167L58.6254 18.2361L60.4866 20.0973L57.8881 20.0973L56.252 18.7091C56.0572 18.5438 55.7652 18.5677 55.5999 18.7625C55.4346 18.9573 55.4586 19.2493 55.6534 19.4146L56.458 20.0973H54.3476C54.0921 20.0973 53.885 20.3044 53.885 20.5599C53.885 20.8154 54.0921 21.0225 54.3476 21.0225H56.413L55.6614 21.6317C55.4629 21.7926 55.4324 22.0839 55.5933 22.2824C55.7542 22.4809 56.0455 22.5113 56.244 22.3505L57.8822 21.0225L60.5143 21.0225L58.6769 22.8599L56.5384 23.0352C56.2837 23.0561 56.0942 23.2794 56.1151 23.5341C56.136 23.7887 56.3593 23.9782 56.6139 23.9573L57.6657 23.8711L56.1734 25.3634C55.9927 25.5441 55.9927 25.837 56.1734 26.0177C56.354 26.1983 56.6469 26.1983 56.8276 26.0177L58.288 24.5572L58.1874 25.5195C58.1608 25.7736 58.3452 26.0011 58.5993 26.0277C58.8534 26.0543 59.081 25.8698 59.1075 25.6157L59.3269 23.5183L61.1881 21.6571V24.2557L59.7999 25.8918C59.6346 26.0866 59.6585 26.3785 59.8534 26.5438C60.0482 26.7091 60.3401 26.6852 60.5054 26.4904L61.1881 25.6857V27.7962C61.1881 28.0516 61.3952 28.2587 61.6507 28.2587C61.9062 28.2587 62.1133 28.0516 62.1133 27.7962V25.7308L62.7226 26.4824C62.8834 26.6808 63.1748 26.7113 63.3732 26.5504C63.5717 26.3895 63.6022 26.0982 63.4413 25.8998L62.1133 24.2615V21.7429L63.8982 23.5278L64.1176 25.6252C64.1441 25.8793 64.3717 26.0637 64.6258 26.0371C64.8799 26.0106 65.0643 25.783 65.0377 25.5289L64.9371 24.5667L66.3975 26.0271C66.5782 26.2078 66.8711 26.2078 67.0517 26.0271C67.2324 25.8465 67.2324 25.5536 67.0517 25.3729L65.5594 23.8806L66.6112 23.9668C66.8658 23.9877 67.0891 23.7982 67.11 23.5435C67.1309 23.2889 66.9414 23.0656 66.6868 23.0447L64.5482 22.8694L62.7147 21.0359H65.3524L66.9906 22.3638C67.1891 22.5247 67.4804 22.4942 67.6412 22.2958C67.8021 22.0973 67.7717 21.806 67.5732 21.6451L66.8216 21.0359H68.887C69.1425 21.0359 69.3496 20.8288 69.3496 20.5733C69.3496 20.3178 69.1425 20.1107 68.887 20.1107H66.7765L67.5812 19.4279C67.776 19.2626 67.7999 18.9707 67.6346 18.7759C67.4693 18.5811 67.1774 18.5572 66.9826 18.7225L65.3465 20.1107H62.7535L64.6186 18.2456L66.716 18.0262C66.9701 17.9996 67.1545 17.7721 67.128 17.518C67.1014 17.2639 66.8738 17.0794 66.6197 17.106L65.6575 17.2067L67.1179 15.7462C67.2986 15.5656 67.2986 15.2727 67.1179 15.092C66.9373 14.9114 66.6444 14.9114 66.4637 15.092L64.9714 16.5843L65.0576 15.5326C65.0785 15.2779 64.889 15.0546 64.6344 15.0337C64.3797 15.0129 64.1564 15.2024 64.1355 15.457L63.9602 17.5955L62.1267 19.429V16.7914L63.4547 15.1532C63.6155 14.9547 63.5851 14.6634 63.3866 14.5025C63.1881 14.3416 62.8968 14.3721 62.7359 14.5706L62.1267 15.3221V13.2568Z" fill="url(#paint0_linear_609_12122)"/>
</g>
<defs>
<filter id="filter0_d_609_12122" x="0.898438" y="0.900391" width="77.5898" height="102.199" filterUnits="userSpaceOnUse" color-interpolation-filters="sRGB">
<feFlood flood-opacity="0" result="BackgroundImageFix"/>
<feColorMatrix in="SourceAlpha" type="matrix" values="0 0 0 0 0 0 0 0 0 0 0 0 0 0 0 0 0 0 127 0" result="hardAlpha"/>
<feOffset/>
<feGaussianBlur stdDeviation="2"/>
<feComposite in2="hardAlpha" operator="out"/>
<feColorMatrix type="matrix" values="0 0 0 0 0.164706 0 0 0 0 0.964706 0 0 0 0 1 0 0 0 0.15 0"/>
<feBlend mode="normal" in2="BackgroundImageFix" result="effect1_dropShadow_609_12122"/>
<feBlend mode="normal" in="SourceGraphic" in2="effect1_dropShadow_609_12122" result="shape"/>
</filter>
<filter id="filter1_d_609_12122" x="0.898438" y="0.900391" width="77.5898" height="102.199" filterUnits="userSpaceOnUse" color-interpolation-filters="sRGB">
<feFlood flood-opacity="0" result="BackgroundImageFix"/>
<feColorMatrix in="SourceAlpha" type="matrix" values="0 0 0 0 0 0 0 0 0 0 0 0 0 0 0 0 0 0 127 0" result="hardAlpha"/>
<feOffset/>
<feGaussianBlur stdDeviation="2"/>
<feComposite in2="hardAlpha" operator="out"/>
<feColorMatrix type="matrix" values="0 0 0 0 0.164706 0 0 0 0 0.964706 0 0 0 0 1 0 0 0 0.15 0"/>
<feBlend mode="normal" in2="BackgroundImageFix" result="effect1_dropShadow_609_12122"/>
<feBlend mode="normal" in="SourceGraphic" in2="effect1_dropShadow_609_12122" result="shape"/>
</filter>
<linearGradient id="paint0_linear_609_12122" x1="52.6131" y1="-0.0939711" x2="63.8683" y2="48.4717" gradientUnits="userSpaceOnUse">
<stop stop-color="white"/>
<stop offset="1" stop-color="#00FCFF"/>
</linearGradient>
</defs>
</svg>
