<svg width="143" height="104" viewBox="0 0 143 104" fill="none" xmlns="http://www.w3.org/2000/svg">
<g filter="url(#filter0_d_609_12110)">
<path fill-rule="evenodd" clip-rule="evenodd" d="M13.7 5.96197C14.5256 5.13172 15.7328 4.80764 16.8632 5.11283L66.2295 18.4416C69.1308 15.3918 73.0955 11.5282 77.8733 8.8651C82.8892 6.06931 88.8632 4.56456 95.4551 6.75206C96.1738 6.99057 96.7536 7.55042 97.01 8.27044C100.7 18.6348 94.2867 27.968 85.1474 36.4205L98.2612 87.1025C98.5549 88.2378 98.1866 89.4419 97.308 90.2185L94.9466 92.3058C93.004 94.0229 89.9715 93.5033 88.7112 91.2375L84.2416 83.202L80.5429 86.8122C78.7613 88.5511 75.9056 88.5103 74.1744 86.7211L74.0322 86.5741C72.3502 84.8358 72.3459 82.078 74.0224 80.3344L79.4861 74.6522L76.6127 69.4864L73.681 72.2364C71.7636 74.035 68.7361 73.8823 67.0094 71.8999L66.9074 71.7829C65.2798 69.9143 65.4083 67.0964 67.1991 65.3836L71.8542 60.9314L67.4942 53.0928C58.7905 61.4701 45.1167 72.6012 34.1255 80.1344L38.3557 91.5976C38.9793 93.2875 38.5848 95.1851 37.3393 96.4864L35.5972 98.3066C34.6148 99.333 32.9383 99.2014 32.1281 98.0343L24.0368 86.3778C22.2316 87.321 20.6352 88.0114 19.346 88.3517C18.6182 88.5438 17.918 88.644 17.3021 88.5724C16.6651 88.4984 16.0323 88.2245 15.6448 87.6024C14.9875 86.5473 14.9479 85.1891 15.2215 83.7624C15.4636 82.4993 15.9745 81.0598 16.6926 79.4894L6.17248 71.4859C4.69834 70.3644 4.59815 68.1823 5.96332 66.9305L6.82859 66.137C8.14613 64.9289 10.0339 64.5704 11.7026 65.2116L22.6479 69.4172C29.5179 59.371 40.1009 46.8138 50.0158 35.7928L42.4901 31.5956L37.4917 36.5399C35.8096 38.2038 33.1498 38.3491 31.2964 36.8783C29.0816 35.1207 28.9212 31.8147 30.9556 29.851L34.034 26.8794L28.9094 24.0212L23.4765 29.5417C21.8004 31.2448 19.1202 31.4378 17.2175 29.9924C14.9009 28.2327 14.6961 24.8227 16.7854 22.7983L20.4136 19.2829L12.2523 14.7312C9.90379 13.4213 9.45506 10.2311 11.3512 8.32424L13.7 5.96197ZM22.1325 20.2416L18.0968 24.1518C16.8364 25.373 16.9599 27.4301 18.3575 28.4917C19.5053 29.3637 21.1222 29.2472 22.1333 28.2199L27.2023 23.0691L22.1325 20.2416ZM35.7539 27.8386L32.2644 31.2069C31.0499 32.3792 31.1456 34.3528 32.4679 35.4021C33.5743 36.2802 35.1622 36.1934 36.1664 35.2001L40.7765 30.6399L35.7539 27.8386ZM51.3111 34.3574C56.1595 29.0015 60.8072 24.0525 64.7359 19.9904L16.3719 6.93223C15.8947 6.80337 15.385 6.9402 15.0364 7.29075L12.6875 9.65303C11.6717 10.6746 11.9121 12.3836 13.1703 13.0853L51.3111 34.3574ZM21.5686 71.0214L11.0267 66.9708C10.0255 66.5861 8.89279 66.8011 8.10226 67.526L7.237 68.3195C6.73754 68.7775 6.7742 69.5758 7.31352 69.9861L17.5363 77.7633C18.5967 75.7151 19.965 73.4462 21.5686 71.0214ZM25.7014 85.4711L33.6762 96.9596C33.8069 97.1479 34.0773 97.1691 34.2357 97.0036L35.9779 95.1833C36.7252 94.4025 36.9619 93.264 36.5877 92.2501L32.5184 81.2229C30.0526 82.8722 27.7492 84.3142 25.7014 85.4711ZM68.8997 51.7427L90.3581 90.3215C91.0333 91.5353 92.6578 91.8136 93.6985 90.8937L96.0599 88.8065C96.4072 88.4994 96.5529 88.0234 96.4367 87.5746L83.5807 37.8889L68.8997 51.7427ZM72.801 62.6336L68.5017 66.7455C67.4384 67.7625 67.3621 69.4356 68.3285 70.5451L68.4304 70.6621C69.4557 71.8392 71.2532 71.9298 72.3917 70.8619L75.6683 67.7885L72.801 62.6336ZM80.4442 76.3748L75.3808 81.6406C74.4074 82.653 74.4099 84.2543 75.3865 85.2637L75.5287 85.4107C76.5339 86.4495 78.1921 86.4732 79.2266 85.4635L83.2923 81.4952L80.4442 76.3748ZM78.7909 10.5112C74.0664 13.1446 70.127 17.0555 67.2121 20.1446L67.207 20.15L67.2018 20.1553C62.9377 24.5338 57.6893 30.1058 52.2064 36.1772C41.8744 47.6181 30.7432 60.7954 23.7881 71.0922C21.6414 74.2703 19.9069 77.153 18.7181 79.6112C17.8605 81.3843 17.3062 82.8973 17.0723 84.1173C16.8342 85.3589 16.9566 86.144 17.2443 86.6059C17.2501 86.6152 17.2568 86.6246 17.2826 86.6387C17.3147 86.6562 17.3859 86.6849 17.5196 86.7005C17.8004 86.7331 18.2395 86.6947 18.865 86.5296C20.1075 86.2016 21.8094 85.4502 23.8835 84.3241C35.207 78.1763 55.8662 61.8518 67.0607 50.8872L67.0669 50.881L83.4524 35.4188L83.4579 35.4137C92.8194 26.859 98.5438 18.1965 95.2346 8.90257C95.1754 8.73613 95.0359 8.59856 94.8615 8.54069C88.9125 6.56655 83.494 7.88973 78.7909 10.5112ZM78.5116 15.8491C78.5307 15.3291 78.9678 14.923 79.4879 14.9422C80.4181 14.9764 81.8679 15.0888 83.2135 15.318C83.885 15.4323 84.5554 15.5799 85.1317 15.7708C85.6712 15.9494 86.2725 16.2107 86.6679 16.6295C87.0961 17.083 87.3928 17.7568 87.6085 18.3935C87.8348 19.0612 88.0144 19.8206 88.1517 20.5504C88.4202 21.9773 88.5557 23.4512 88.5136 24.0411C88.4766 24.5602 88.0257 24.9509 87.5066 24.9139C86.9876 24.8768 86.5968 24.426 86.6339 23.9069C86.658 23.5684 86.5615 22.2903 86.2997 20.8989C86.1719 20.2196 86.0118 19.5533 85.8237 18.9983C85.6251 18.4123 85.4329 18.0665 85.2976 17.9232C85.2423 17.8646 85.0271 17.7213 84.5392 17.5597C84.0881 17.4103 83.5201 17.2819 82.897 17.1757C81.6534 16.9639 80.2892 16.8575 79.4185 16.8254C78.8985 16.8063 78.4924 16.3692 78.5116 15.8491ZM74.4403 25.3681C74.8057 24.9976 75.4023 24.9934 75.7728 25.3588L78.093 27.6466C78.4635 28.012 78.4677 28.6086 78.1023 28.9791C77.7369 29.3497 77.1403 29.3539 76.7698 28.9885L74.4496 26.7007C74.0791 26.3353 74.0749 25.7387 74.4403 25.3681ZM67.745 31.9663C68.1104 31.5957 68.707 31.5915 69.0775 31.9569L71.3977 34.2447C71.7682 34.6101 71.7724 35.2067 71.407 35.5773C71.0416 35.9478 70.445 35.952 70.0745 35.5866L67.7543 33.2988C67.3838 32.9334 67.3796 32.3368 67.745 31.9663ZM60.9834 38.7965C61.3488 38.426 61.9454 38.4218 62.3159 38.7872L64.6361 41.075C65.0066 41.4404 65.0108 42.037 64.6454 42.4075C64.2801 42.7781 63.6835 42.7823 63.3129 42.4169L60.9928 40.1291C60.6222 39.7637 60.618 39.1671 60.9834 38.7965ZM54.255 45.5936C54.6203 45.2231 55.2169 45.2189 55.5875 45.5843L57.9077 47.8721C58.2782 48.2375 58.2824 48.8341 57.917 49.2046C57.5516 49.5752 56.955 49.5794 56.5845 49.214L54.2643 46.9262C53.8938 46.5608 53.8896 45.9642 54.255 45.5936ZM47.4934 52.2913C47.8588 51.9207 48.4554 51.9165 48.8259 52.2819L51.1461 54.5697C51.5166 54.9351 51.5208 55.5317 51.1554 55.9023C50.79 56.2728 50.1934 56.277 49.8229 55.9116L47.5027 53.6238C47.1322 53.2584 47.128 52.6618 47.4934 52.2913Z" fill="white" stroke="#0084FF" stroke-width="0.2"/>
<path d="M100.058 45.038C95.8881 45.3872 94.0086 49.1266 93.59 50.9526C89.177 50.0025 82.1552 51.757 83.4699 59.6517C84.8899 68.1777 92.9251 67.1699 96.3313 65.4263C100.369 73.8222 107.015 70.4623 109.833 67.7329C115.788 72.3526 121.075 68.164 122.973 65.4922C125.433 67.2029 131.299 69.5979 135.088 65.4922C139.824 60.3601 138.305 56.9003 137.558 54.0418C136.961 51.755 134.015 49.9421 132.617 49.3216C132.855 47.3527 133.225 43.308 128.62 39.5681C124.937 36.5762 119.753 38.1402 117.622 39.2963C116.235 35.5563 113.19 32.0306 106.181 33.5958C100.573 34.8479 99.7621 41.7456 100.058 45.038Z" fill="url(#paint0_linear_609_12110)"/>
</g>
<defs>
<filter id="filter0_d_609_12110" x="0.900391" y="0.900391" width="141.494" height="102.199" filterUnits="userSpaceOnUse" color-interpolation-filters="sRGB">
<feFlood flood-opacity="0" result="BackgroundImageFix"/>
<feColorMatrix in="SourceAlpha" type="matrix" values="0 0 0 0 0 0 0 0 0 0 0 0 0 0 0 0 0 0 127 0" result="hardAlpha"/>
<feOffset/>
<feGaussianBlur stdDeviation="2"/>
<feComposite in2="hardAlpha" operator="out"/>
<feColorMatrix type="matrix" values="0 0 0 0 0.164706 0 0 0 0 0.964706 0 0 0 0 1 0 0 0 0.2 0"/>
<feBlend mode="normal" in2="BackgroundImageFix" result="effect1_dropShadow_609_12110"/>
<feBlend mode="normal" in="SourceGraphic" in2="effect1_dropShadow_609_12110" result="shape"/>
</filter>
<linearGradient id="paint0_linear_609_12110" x1="87.8875" y1="16.1581" x2="101.587" y2="102.885" gradientUnits="userSpaceOnUse">
<stop stop-color="white"/>
<stop offset="1" stop-color="#00FCFF"/>
</linearGradient>
</defs>
</svg>
