<svg width="1836" height="995" viewBox="0 0 1836 995" fill="none" xmlns="http://www.w3.org/2000/svg">
    <path opacity="0.1" d="M1185.61 470.202C1168.93 479.805 1168.74 495.432 1185.36 505.035L1528.44 703.799C1544.99 713.402 1572.06 713.402 1588.74 703.799L1823.42 568.737C1840.1 559.135 1840.23 543.57 1823.61 533.967L1480.53 335.203C1463.98 325.6 1436.97 325.6 1420.29 335.203L1185.61 470.265V470.202Z" fill="url(#paint0_linear_502_239)"/>
    <path opacity="0.5" d="M1378.38 125.532C1395.19 135.229 1395.38 151.01 1378.63 160.707L975.674 391.727C958.99 401.424 931.71 401.424 914.899 391.727L708.769 273.404C691.958 263.708 691.831 247.99 708.579 238.293L1111.54 7.27272C1128.22 -2.42424 1155.44 -2.42424 1172.25 7.27272L1378.38 125.596V125.532Z" fill="url(#paint1_linear_502_239)"/>
    <path opacity="0.5" d="M687.94 516.909C706.534 527.639 706.744 545.103 688.221 555.834L305.82 777.952C287.366 788.683 257.195 788.683 238.601 777.952L-22.9754 627.021C-41.5692 616.29 -41.7095 598.897 -23.1859 588.166L359.215 366.048C377.669 355.317 407.77 355.317 426.364 366.048L687.94 516.979V516.909Z" fill="url(#paint2_linear_502_239)"/>
    <path opacity="0.1" d="M537.689 861.964C518.264 873.16 518.044 891.382 537.395 902.579L871.773 1100.6C891.052 1111.8 922.572 1111.8 941.997 1100.6L1333.35 869.963C1352.77 858.766 1352.92 840.618 1333.57 829.421L999.188 631.397C979.91 620.201 948.463 620.201 929.038 631.397L537.689 862.037V861.964Z" fill="url(#paint3_linear_502_239)"/>
    <defs>
        <linearGradient id="paint0_linear_502_239" x1="957.915" y1="806.16" x2="1761.81" y2="312.811" gradientUnits="userSpaceOnUse">
            <stop stop-color="#0936DE"/>
            <stop offset="1" stop-color="#28B1FE"/>
        </linearGradient>
        <linearGradient id="paint1_linear_502_239" x1="1550.65" y1="495.108" x2="739.591" y2="-1.62631" gradientUnits="userSpaceOnUse">
            <stop stop-color="#08284F"/>
            <stop offset="1" stop-color="#062C6D"/>
        </linearGradient>
        <linearGradient id="paint2_linear_502_239" x1="941.74" y1="892.339" x2="44.4406" y2="343.077" gradientUnits="userSpaceOnUse">
            <stop stop-color="#08284F"/>
            <stop offset="1" stop-color="#062C6D"/>
        </linearGradient>
        <linearGradient id="paint3_linear_502_239" x1="255.361" y1="1229.75" x2="1266.29" y2="621.361" gradientUnits="userSpaceOnUse">
            <stop stop-color="#0936DE"/>
            <stop offset="1" stop-color="#28B1FE"/>
        </linearGradient>
    </defs>
</svg>
