<svg width="66" height="67" viewBox="0 0 66 67" fill="none" xmlns="http://www.w3.org/2000/svg">
<g filter="url(#filter0_d_441_1420)">
<path fill-rule="evenodd" clip-rule="evenodd" d="M6.02528 25.0087C5.99622 25.065 5.97479 25.1454 5.97479 25.2272V40.9633C5.97479 42.8013 6.91634 44.5112 8.46958 45.494L13.962 48.969C14.0321 49.0134 14.1133 49.0369 14.1963 49.0369C14.3021 49.0369 14.4044 48.9986 14.4842 48.9291L14.7626 48.6865C14.8824 48.5822 14.9838 48.4586 15.0628 48.3209L22.221 35.8334C22.2914 35.7105 22.3285 35.5712 22.3285 35.4295C22.3285 35.2261 22.2522 35.0301 22.1146 34.8803L21.8836 34.6287C21.7752 34.5107 21.655 34.4117 21.5197 34.3296C18.8435 32.7056 14.9455 30.3452 11.7002 28.3908C10.0774 27.4136 8.61856 26.5383 7.55746 25.9075C7.02668 25.5919 6.59674 25.3384 6.296 25.164C6.18743 25.1011 6.09695 25.0492 6.02528 25.0087ZM5.22596 24.4471C5.38399 24.2067 5.65994 23.9824 6.04638 23.9824C6.13018 23.9824 6.19607 24.0053 6.20454 24.0083C6.20439 24.0082 6.20489 24.0084 6.20454 24.0083C6.22531 24.0152 6.24307 24.0225 6.25273 24.0267C6.27305 24.0354 6.29256 24.045 6.30758 24.0526C6.33915 24.0685 6.37822 24.0896 6.42162 24.1136C6.50969 24.1622 6.63258 24.2324 6.78491 24.3207C7.09041 24.4978 7.52404 24.7536 8.05558 25.0696C9.11913 25.7018 10.5799 26.5783 12.2031 27.5558C15.4496 29.5109 19.3487 31.872 22.0254 33.4962C22.241 33.6271 22.4324 33.7851 22.6016 33.9694L22.8325 34.2209C23.1353 34.5506 23.3033 34.9819 23.3033 35.4295C23.3033 35.6608 23.2584 35.889 23.172 36.1019L24.293 36.7573C24.6363 36.958 25.0191 37.0818 25.415 37.1201C25.6777 37.1456 25.9427 37.133 26.2018 37.0828L26.4528 37.0343C26.7307 36.9805 27.0029 36.9006 27.2658 36.7958L28.7577 36.2012C29.442 35.9285 30.1872 35.8455 30.9146 35.961C31.5197 36.0571 32.0954 36.2878 32.5994 36.6361L33.1353 37.0065L35.6084 36.3257L35.8328 36.2688C37.0935 35.9485 38.4222 36.0239 39.6386 36.4849L40.6898 36.8833C40.9949 36.9989 41.3143 37.0728 41.6392 37.1028C42.0326 37.1391 42.4294 37.1108 42.8137 37.0189L43.4936 36.8563C43.3595 36.518 43.2904 36.157 43.2904 35.7926V35.7266C43.2904 35.2206 43.4347 34.7251 43.7065 34.2983C43.928 33.9504 44.2273 33.6588 44.5809 33.4465L59.5573 24.4545C59.8652 24.2696 60.2389 24.2295 60.5791 24.3447C60.9436 24.4682 61.2287 24.7561 61.3486 25.1218L61.4459 25.4182C61.5068 25.604 61.5378 25.7982 61.5378 25.9937V42.9274C61.5378 43.2092 61.4931 43.4892 61.4052 43.757C61.2677 44.1764 61.028 44.555 60.7078 44.8588L60.5082 45.0481C60.3245 45.2223 60.1237 45.3775 59.9088 45.5113L53.306 49.621C53.0151 49.8021 52.6792 49.8981 52.3365 49.8981C52.0312 49.8981 51.7307 49.8219 51.4622 49.6764L51.3609 49.6214C51.0191 49.4362 50.7306 49.1672 50.5219 48.8402L49.0092 49.7981C49.5677 50.184 49.9367 50.7928 50.0169 51.4722C50.065 51.8803 50.0064 52.2939 49.8468 52.6725L49.7693 52.8563C49.5812 53.3023 49.2679 53.6841 48.8672 53.9556C48.453 54.2363 47.9641 54.3863 47.4637 54.3863H46.7407C46.6516 54.3863 46.578 54.3613 46.5607 54.3555L46.5589 54.3548C46.5285 54.3446 46.4996 54.3327 46.4761 54.3225C46.4282 54.3016 46.373 54.2747 46.3169 54.246C46.2031 54.188 46.0599 54.1098 45.91 54.026C45.9017 54.0214 45.8934 54.0168 45.8851 54.0121L45.8853 54.0134C45.9283 54.378 45.8969 54.7475 45.793 55.0996L45.769 55.1809C45.6213 55.6813 45.318 56.1216 44.903 56.4379C44.4164 56.8088 43.8088 56.9846 43.1993 56.9307L43.1008 56.922C42.7625 56.8921 42.4329 56.7989 42.1292 56.6472C42.1371 56.7364 42.1411 56.8258 42.1411 56.9154C42.1411 57.4005 42.0246 57.8785 41.8016 58.3092L41.7352 58.4374C41.5641 58.7679 41.319 59.0544 41.0189 59.2746C40.5039 59.6526 39.8602 59.8114 39.2284 59.7163L38.9865 59.6799C38.6083 59.6229 38.2444 59.4945 37.9143 59.3013L37.5454 59.0854C37.5534 59.1721 37.5574 59.2592 37.5574 59.3466V59.4664C37.5574 59.9303 37.4251 60.3845 37.176 60.7758C36.9233 61.1727 36.5612 61.4879 36.1334 61.6836L35.9738 61.7566C35.6242 61.9165 35.2444 61.9992 34.86 61.9992C34.3485 61.9992 33.8476 61.8527 33.4167 61.5769L31.2874 60.2143L30.9264 60.6179C30.5383 61.0518 30.0067 61.331 29.4292 61.4044C28.9193 61.4692 28.4019 61.3698 27.9524 61.1205L27.8637 61.0713C27.3958 60.812 27.0151 60.4202 26.7691 59.9453C26.6531 59.7213 26.5693 59.483 26.5194 59.2375C26.1688 59.4911 25.7539 59.6502 25.315 59.6927C25.0442 59.7189 24.7708 59.7 24.5062 59.6367L24.2031 59.5642C23.9278 59.4984 23.6673 59.3813 23.4353 59.2192C22.9309 58.8668 22.5923 58.3237 22.4978 57.7157L22.4718 57.5479C22.4508 57.413 22.4403 57.2768 22.4403 57.1403V56.8432C21.9472 57.0272 21.408 57.0519 20.8989 56.9126L20.7484 56.8714C20.2215 56.7272 19.7705 56.3856 19.489 55.9174C19.2555 55.529 19.1523 55.0762 19.1946 54.625L19.195 54.6203C18.7974 54.693 18.3896 54.6909 17.9925 54.6141L17.9289 54.6017C17.479 54.5147 17.0554 54.3248 16.6909 54.047L16.6128 53.9874C16.3245 53.7677 16.087 53.4885 15.9163 53.1688C15.6461 52.6625 15.5565 52.0792 15.6622 51.5152L15.6943 51.3444C15.7748 50.9151 15.9475 50.5084 16.2005 50.1523L17.0258 48.991L16.1621 48.3631L15.9085 48.8057C15.7755 49.0377 15.6046 49.2458 15.4029 49.4215L15.1245 49.6641C14.8672 49.8882 14.5375 50.0117 14.1963 50.0117C13.9288 50.0117 13.6668 49.9358 13.4408 49.7928L7.94839 46.3177C6.11274 45.1563 5 43.1355 5 40.9633V25.2272C5 24.9662 5.07206 24.6812 5.22596 24.4471ZM16.6498 47.5124L17.6042 48.2064L17.698 48.2608L18.0488 48.0033C18.3911 47.7521 18.8046 47.6166 19.2292 47.6166C19.5765 47.6166 19.9178 47.7073 20.2193 47.8796L20.5553 48.0718C20.7186 48.1651 20.8739 48.2716 21.0198 48.3902L21.0447 48.4104C21.4145 48.7111 21.7243 49.0772 21.9592 49.4894C22.2811 49.0863 22.7014 48.772 23.1804 48.5773L23.2588 48.5454C23.5679 48.4198 23.8984 48.3552 24.232 48.3552H24.3147C24.8271 48.3552 25.3253 48.5234 25.7328 48.834C26.0613 49.0844 26.3177 49.4174 26.4758 49.799L26.542 49.9589C26.674 50.2774 26.7495 50.616 26.7657 50.9596C27.1367 50.8478 27.5285 50.8215 27.9115 50.883C28.3731 50.9571 28.8057 51.1559 29.1624 51.4581L29.3504 51.6173C29.66 51.8796 29.8984 52.2158 30.0435 52.5948L30.0543 52.623C30.2227 53.0632 30.2526 53.5443 30.14 54.0019C30.0672 54.2982 29.9364 54.5772 29.7552 54.8227L29.6981 54.9001C29.9027 54.9164 30.1057 54.95 30.305 55.0007L30.5125 55.0534C30.9348 55.1607 31.3257 55.3669 31.6527 55.655L31.7715 55.7596C32.0359 55.9925 32.2381 56.2874 32.36 56.6179C32.5219 57.0565 32.5344 57.5362 32.3957 57.9827L32.2152 58.5636L31.8233 59.4L33.9421 60.7559C34.2161 60.9312 34.5347 61.0244 34.86 61.0244C35.1045 61.0244 35.346 60.9718 35.5683 60.8701L35.7279 60.7971C35.9847 60.6797 36.202 60.4905 36.3537 60.2523C36.5032 60.0175 36.5826 59.7448 36.5826 59.4664V59.3466C36.5826 59.1115 36.5384 58.8786 36.4524 58.6599L36.3347 58.3611L34.1069 56.7976L34.6669 55.9997L36.9981 57.6357L38.4066 58.46C38.6298 58.5906 38.8759 58.6775 39.1317 58.716L39.3735 58.7524C39.7506 58.8092 40.1348 58.7144 40.4421 58.4888C40.6212 58.3573 40.7675 58.1864 40.8696 57.9891L40.936 57.8609C41.0873 57.5687 41.1663 57.2445 41.1663 56.9154C41.1663 56.7903 41.1549 56.6654 41.1322 56.5424L41.0437 56.0628L39.3801 54.9356L36.0389 52.9546L36.536 52.1161L39.9025 54.1121L41.7341 55.3531L42.5535 55.7695C42.751 55.8699 42.9659 55.9315 43.1866 55.951L43.2851 55.9597C43.6525 55.9922 44.0188 55.8862 44.3121 55.6626C44.5622 55.472 44.7451 55.2065 44.8341 54.9049L44.8581 54.8236C44.9247 54.598 44.9448 54.3613 44.9172 54.1277L44.8305 53.3933L38.098 49.1994L38.6134 48.372L45.5403 52.687C45.7618 52.8183 46.0964 53.0134 46.3858 53.1753C46.5322 53.2571 46.6628 53.3282 46.7601 53.3778C46.787 53.3915 46.8096 53.4027 46.8279 53.4115H47.4637C47.7691 53.4115 48.0676 53.3199 48.3204 53.1486C48.565 52.9829 48.7563 52.7498 48.8711 52.4776L48.9486 52.2937C49.0427 52.0706 49.0772 51.8269 49.0488 51.5865C48.9977 51.1539 48.748 50.7698 48.3733 50.5477L47.8334 50.2276L47.8291 50.225L36.463 43.3252C36.4499 43.3172 36.4414 43.3135 36.4367 43.3119C36.4293 43.314 36.4092 43.3211 36.3738 43.3441C36.321 43.3784 36.2572 43.4326 36.1747 43.5137C36.1226 43.5649 36.0777 43.6117 36.028 43.6635C35.9949 43.698 35.9596 43.7347 35.9186 43.7765C35.9157 43.7803 35.9101 43.7878 35.9014 43.7999C35.8822 43.8268 35.8566 43.8642 35.8254 43.9113C35.7632 44.0052 35.686 44.1266 35.6051 44.2561C35.3324 44.6924 34.9739 45.0756 34.5407 45.3691L34.3447 45.5019C34.0117 45.7276 33.6307 45.8725 33.232 45.9254L32.942 45.9638C32.4993 46.0225 32.0505 45.9166 31.6808 45.6661C31.1806 45.3271 30.881 44.7623 30.881 44.158V40.3184C30.881 39.9295 30.9427 39.5432 31.0639 39.1737L31.0938 39.0826C31.2505 38.6045 31.5157 38.1692 31.8685 37.8106C31.9666 37.711 32.0708 37.6178 32.1807 37.5317L32.0452 37.438C31.6612 37.1727 31.2227 36.9969 30.7617 36.9237C30.2076 36.8357 29.6399 36.8989 29.1187 37.1067L27.6267 37.7014C27.307 37.8288 26.976 37.9259 26.6381 37.9913L26.3871 38.0399C26.036 38.1078 25.677 38.1248 25.321 38.0904C24.7847 38.0385 24.2661 37.8708 23.801 37.5988L22.7012 36.9558L16.6498 47.5124ZM33.247 37.9868L32.9519 38.1777C32.8112 38.2687 32.6809 38.3748 32.5634 38.4943C32.3159 38.7458 32.13 39.0511 32.02 39.3863L31.9901 39.4775C31.9011 39.7489 31.8558 40.0327 31.8558 40.3184V44.158C31.8558 44.4389 31.995 44.7015 32.2276 44.8591C32.3994 44.9755 32.6081 45.0248 32.8139 44.9975L33.1039 44.9591C33.3526 44.9261 33.5902 44.8357 33.7979 44.695L33.9939 44.5621C34.3074 44.3497 34.5731 44.0681 34.7784 43.7395C34.8612 43.6071 34.9435 43.4775 35.0126 43.3733C35.0469 43.3214 35.0798 43.2729 35.1089 43.2324C35.1316 43.2006 35.1708 43.1467 35.2133 43.1035C35.2391 43.0773 35.2675 43.0476 35.2982 43.0155C35.4438 42.8633 35.6396 42.6586 35.8427 42.5266C35.9784 42.4385 36.1514 42.3572 36.3575 42.3398C36.5718 42.3218 36.7788 42.3765 36.9689 42.4919L48.0766 49.2349L50.0228 48.0025L43.9334 37.7534L43.0404 37.967C42.5526 38.0836 42.049 38.1196 41.5495 38.0734C41.1371 38.0353 40.7317 37.9416 40.3443 37.7948L39.2931 37.3964C38.2639 37.0064 37.1396 36.9425 36.0728 37.2136L35.8532 37.2694L33.247 37.9868ZM44.6043 36.9741L51.3217 48.2802C51.4428 48.4841 51.6169 48.6514 51.8254 48.7644L51.9268 48.8194C52.0526 48.8876 52.1934 48.9233 52.3365 48.9233C52.4971 48.9233 52.6545 48.8783 52.7909 48.7934L59.3937 44.6837C59.5528 44.5847 59.7014 44.4698 59.8373 44.3409L60.0369 44.1515C60.2399 43.959 60.3918 43.719 60.479 43.4532C60.5347 43.2835 60.563 43.106 60.563 42.9274V25.9937C60.563 25.9014 60.5484 25.8097 60.5196 25.722L60.4224 25.4256C60.3981 25.3514 60.3402 25.293 60.2663 25.268C60.1973 25.2446 60.1215 25.2527 60.0591 25.2902L45.0827 34.2822C44.8587 34.4167 44.6691 34.6014 44.5288 34.8218C44.3566 35.0922 44.2652 35.4061 44.2652 35.7266V35.7926C44.2652 36.0524 44.3182 36.3096 44.4209 36.5482L44.6043 36.9741ZM36.4322 43.3108C36.4322 43.3107 36.433 43.3107 36.4347 43.3112L36.4322 43.3108ZM30.7897 59.3086L31.3041 58.2106L31.4648 57.6935C31.5398 57.452 31.533 57.1925 31.4455 56.9553C31.3796 56.7766 31.2702 56.617 31.1272 56.4911L31.0084 56.3864C30.7973 56.2005 30.545 56.0674 30.2724 55.9981L30.0649 55.9454C29.8506 55.891 29.6304 55.8634 29.4093 55.8634H29.0013L27.4398 58.1944V58.6967C27.4398 58.9752 27.5066 59.2497 27.6347 59.497C27.7924 59.8015 28.0364 60.0526 28.3363 60.2188L28.425 60.268C28.6933 60.4167 29.002 60.4761 29.3064 60.4374C29.651 60.3936 29.9683 60.2269 30.1999 59.968L30.7897 59.3086ZM26.557 57.7608L28.3424 55.0956L28.9708 54.2439C29.0756 54.1019 29.1513 53.9405 29.1935 53.7691C29.2586 53.5044 29.2413 53.226 29.1438 52.9714L29.133 52.9432C29.0467 52.7175 28.9048 52.5173 28.7204 52.3612L28.5324 52.2019C28.3113 52.0147 28.0432 51.8914 27.757 51.8455C27.5102 51.8059 27.2575 51.825 27.0195 51.9014L26.5788 52.0429L23.4151 56.2766V57.1403C23.4151 57.2267 23.4218 57.3129 23.435 57.3982L23.4611 57.566C23.5147 57.9114 23.7071 58.22 23.9936 58.4202C24.1254 58.5123 24.2734 58.5788 24.4298 58.6161L24.7329 58.6886C24.8926 58.7268 25.0576 58.7383 25.2211 58.7224C25.6275 58.6831 25.9998 58.4781 26.2503 58.1556L26.557 57.7608ZM22.6172 55.7158L25.7942 51.4644V51.0998C25.7942 50.8363 25.7423 50.5754 25.6415 50.332L25.5752 50.1721C25.483 49.9495 25.3335 49.7553 25.1419 49.6092C24.9042 49.4281 24.6136 49.3299 24.3147 49.3299H24.232C24.0242 49.3299 23.8184 49.3702 23.6259 49.4484L23.5475 49.4803C23.1991 49.6219 22.8966 49.857 22.6734 50.1596L22.2723 50.7031L20.2165 54.1671L20.1651 54.7159C20.1422 54.96 20.198 55.205 20.3244 55.4151C20.4767 55.6684 20.7207 55.8532 21.0057 55.9312L21.1562 55.9724C21.4861 56.0626 21.8367 56.0404 22.1526 55.909L22.6172 55.7158ZM19.4326 53.5779L21.3182 50.4008L21.2432 50.2313C21.0598 49.8173 20.7811 49.4525 20.4297 49.1668L20.4048 49.1465C20.3001 49.0614 20.1887 48.985 20.0715 48.918L19.7355 48.7259C19.5813 48.6377 19.4068 48.5914 19.2292 48.5914C19.0121 48.5914 18.8006 48.6607 18.6256 48.7891L18.0809 49.1889L16.9951 50.717C16.8238 50.958 16.7069 51.2334 16.6524 51.524L16.6203 51.6949C16.5554 52.041 16.6104 52.399 16.7763 52.7097C16.881 52.906 17.0268 53.0773 17.2037 53.2122L17.2819 53.2718C17.5269 53.4585 17.8117 53.5862 18.1142 53.6447L18.1777 53.657C18.4705 53.7137 18.7716 53.7123 19.0639 53.6529L19.4326 53.5779Z" fill="white"/>
<path d="M6.20454 24.0083C6.19607 24.0053 6.13018 23.9824 6.04638 23.9824C5.65994 23.9824 5.38399 24.2067 5.22596 24.4471C5.07206 24.6812 5 24.9662 5 25.2272V40.9633C5 43.1355 6.11274 45.1563 7.94839 46.3177L13.4408 49.7928C13.6668 49.9358 13.9288 50.0117 14.1963 50.0117C14.5375 50.0117 14.8672 49.8882 15.1245 49.6641L15.4029 49.4215C15.6046 49.2458 15.7755 49.0377 15.9085 48.8057L16.1621 48.3631L17.0258 48.991L16.2005 50.1523C15.9475 50.5084 15.7748 50.9151 15.6943 51.3444L15.6622 51.5152C15.5565 52.0792 15.6461 52.6625 15.9163 53.1688C16.087 53.4885 16.3245 53.7677 16.6128 53.9874L16.6909 54.047C17.0554 54.3248 17.479 54.5147 17.9289 54.6017L17.9925 54.6141C18.3896 54.6909 18.7974 54.693 19.195 54.6203L19.1946 54.625C19.1523 55.0762 19.2555 55.529 19.489 55.9174C19.7705 56.3856 20.2215 56.7272 20.7484 56.8714L20.8989 56.9126C21.408 57.0519 21.9472 57.0272 22.4403 56.8432V57.1403C22.4403 57.2768 22.4508 57.413 22.4718 57.5479L22.4978 57.7157C22.5923 58.3237 22.9309 58.8668 23.4353 59.2192C23.6673 59.3813 23.9278 59.4984 24.2031 59.5642L24.5062 59.6367C24.7708 59.7 25.0442 59.7189 25.315 59.6927C25.7539 59.6502 26.1688 59.4911 26.5194 59.2375C26.5693 59.483 26.6531 59.7213 26.7691 59.9453C27.0151 60.4202 27.3958 60.812 27.8637 61.0713L27.9524 61.1205C28.4019 61.3698 28.9193 61.4692 29.4292 61.4044C30.0067 61.331 30.5383 61.0518 30.9264 60.6179L31.2874 60.2143L33.4167 61.5769C33.8476 61.8527 34.3485 61.9992 34.86 61.9992C35.2444 61.9992 35.6242 61.9165 35.9738 61.7566L36.1334 61.6836C36.5612 61.4879 36.9233 61.1727 37.176 60.7758C37.4251 60.3845 37.5574 59.9303 37.5574 59.4665V59.3466C37.5574 59.2592 37.5534 59.1721 37.5454 59.0854L37.9143 59.3013C38.2444 59.4945 38.6083 59.6229 38.9865 59.6799L39.2284 59.7163C39.8602 59.8114 40.5039 59.6526 41.0189 59.2746C41.319 59.0544 41.5641 58.7679 41.7352 58.4374L41.8016 58.3092C42.0246 57.8785 42.1411 57.4005 42.1411 56.9154C42.1411 56.8258 42.1371 56.7364 42.1292 56.6472C42.4329 56.7989 42.7625 56.8921 43.1008 56.922L43.1993 56.9307C43.8088 56.9846 44.4164 56.8088 44.903 56.4379C45.318 56.1216 45.6213 55.6813 45.769 55.1809L45.793 55.0996C45.8969 54.7475 45.9283 54.378 45.8853 54.0134L45.8851 54.0121C45.8934 54.0168 45.9017 54.0214 45.91 54.026C46.0599 54.1098 46.2031 54.188 46.3169 54.246C46.373 54.2747 46.4282 54.3016 46.4761 54.3225C46.4996 54.3327 46.5285 54.3446 46.5589 54.3548L46.5607 54.3555C46.578 54.3613 46.6516 54.3863 46.7407 54.3863H47.4637C47.9641 54.3863 48.453 54.2363 48.8672 53.9556C49.2679 53.6841 49.5812 53.3023 49.7693 52.8563L49.8468 52.6725C50.0064 52.2939 50.065 51.8803 50.0169 51.4722C49.9367 50.7928 49.5677 50.184 49.0092 49.7981L50.5219 48.8402C50.7306 49.1672 51.0191 49.4362 51.3608 49.6214L51.4622 49.6764C51.7307 49.8219 52.0312 49.8981 52.3365 49.8981C52.6792 49.8981 53.0151 49.8021 53.306 49.621L59.9088 45.5113C60.1237 45.3775 60.3245 45.2223 60.5082 45.0481L60.7078 44.8588C61.028 44.555 61.2677 44.1764 61.4052 43.757C61.4931 43.4892 61.5378 43.2092 61.5378 42.9274V25.9937C61.5378 25.7982 61.5068 25.604 61.4458 25.4182L61.3486 25.1218C61.2287 24.7561 60.9436 24.4682 60.5791 24.3447C60.2389 24.2295 59.8652 24.2696 59.5573 24.4545L44.5809 33.4465C44.2273 33.6588 43.928 33.9504 43.7065 34.2983C43.4348 34.7251 43.2904 35.2206 43.2904 35.7266V35.7926C43.2904 36.157 43.3595 36.518 43.4936 36.8563L42.8137 37.0189C42.4294 37.1108 42.0326 37.1391 41.6392 37.1028C41.3143 37.0728 40.9949 36.9989 40.6898 36.8833L39.6386 36.4849C38.4222 36.0239 37.0935 35.9485 35.8328 36.2688L35.6084 36.3257L33.1353 37.0065L32.5994 36.6361C32.0954 36.2878 31.5197 36.0571 30.9146 35.961C30.1872 35.8455 29.442 35.9285 28.7577 36.2012L27.2658 36.7958C27.0029 36.9006 26.7307 36.9805 26.4528 37.0343L26.2018 37.0828C25.9427 37.133 25.6777 37.1456 25.415 37.1201C25.0191 37.0818 24.6363 36.958 24.293 36.7573L23.172 36.1019C23.2584 35.889 23.3033 35.6608 23.3033 35.4295C23.3033 34.9819 23.1353 34.5506 22.8325 34.2209L22.6016 33.9694C22.4324 33.7851 22.241 33.6271 22.0254 33.4962C19.3487 31.872 15.4496 29.5109 12.2031 27.5558C10.5799 26.5783 9.11913 25.7018 8.05558 25.0696C7.52404 24.7536 7.09041 24.4978 6.78491 24.3207C6.63258 24.2324 6.50969 24.1622 6.42162 24.1136C6.37822 24.0896 6.33915 24.0685 6.30758 24.0526C6.29256 24.045 6.27305 24.0354 6.25273 24.0267C6.24307 24.0225 6.22531 24.0152 6.20454 24.0083ZM6.20454 24.0083C6.20439 24.0082 6.20489 24.0084 6.20454 24.0083ZM5.97479 25.2272C5.97479 25.1454 5.99622 25.065 6.02528 25.0087C6.09695 25.0492 6.18743 25.1011 6.296 25.164C6.59674 25.3384 7.02668 25.5919 7.55746 25.9075C8.61856 26.5383 10.0774 27.4136 11.7002 28.3908C14.9455 30.3452 18.8435 32.7056 21.5197 34.3296C21.655 34.4117 21.7752 34.5107 21.8836 34.6287L22.1146 34.8803C22.2522 35.0301 22.3285 35.2261 22.3285 35.4295C22.3285 35.5712 22.2914 35.7105 22.221 35.8334L15.0628 48.3209C14.9838 48.4586 14.8824 48.5822 14.7626 48.6865L14.4842 48.9291C14.4044 48.9986 14.3021 49.0369 14.1963 49.0369C14.1133 49.0369 14.0321 49.0134 13.962 48.969L8.46958 45.494C6.91634 44.5112 5.97479 42.8013 5.97479 40.9633V25.2272ZM17.6042 48.2064L16.6498 47.5124L22.7012 36.9558L23.801 37.5988C24.2661 37.8708 24.7847 38.0385 25.321 38.0904C25.677 38.1248 26.036 38.1078 26.3871 38.0399L26.6381 37.9913C26.976 37.9259 27.307 37.8288 27.6267 37.7014L29.1187 37.1067C29.6399 36.8989 30.2076 36.8357 30.7617 36.9237C31.2227 36.9969 31.6612 37.1727 32.0452 37.438L32.1807 37.5317C32.0708 37.6178 31.9666 37.711 31.8685 37.8106C31.5157 38.1692 31.2505 38.6045 31.0938 39.0826L31.0639 39.1737C30.9427 39.5432 30.881 39.9295 30.881 40.3184V44.158C30.881 44.7623 31.1806 45.3271 31.6808 45.6661C32.0505 45.9166 32.4993 46.0225 32.942 45.9638L33.232 45.9254C33.6307 45.8725 34.0117 45.7276 34.3447 45.5019L34.5407 45.3691C34.9739 45.0756 35.3324 44.6924 35.6051 44.2561C35.686 44.1266 35.7632 44.0052 35.8254 43.9113C35.8566 43.8642 35.8822 43.8268 35.9014 43.7999C35.9101 43.7878 35.9157 43.7803 35.9186 43.7765C35.9596 43.7347 35.9949 43.698 36.028 43.6635C36.0777 43.6117 36.1226 43.5649 36.1747 43.5137C36.2572 43.4326 36.321 43.3784 36.3738 43.3441C36.4092 43.3211 36.4293 43.314 36.4367 43.3119C36.4414 43.3135 36.4499 43.3172 36.463 43.3252L47.8291 50.225L47.8334 50.2276L48.3733 50.5477C48.748 50.7698 48.9977 51.1539 49.0488 51.5865C49.0772 51.8269 49.0427 52.0706 48.9486 52.2937L48.8711 52.4776C48.7563 52.7498 48.565 52.9829 48.3204 53.1486C48.0676 53.3199 47.7691 53.4115 47.4637 53.4115H46.8279C46.8095 53.4027 46.787 53.3915 46.7601 53.3778C46.6628 53.3282 46.5322 53.2571 46.3858 53.1753C46.0964 53.0134 45.7618 52.8183 45.5403 52.687L38.6134 48.372L38.098 49.1994L44.8305 53.3933L44.9172 54.1277C44.9448 54.3613 44.9247 54.598 44.8581 54.8236L44.8341 54.9049C44.7451 55.2065 44.5622 55.472 44.3121 55.6626C44.0188 55.8862 43.6525 55.9922 43.2851 55.9597L43.1866 55.951C42.9659 55.9315 42.751 55.8699 42.5535 55.7695L41.7341 55.3531L39.9025 54.1121L36.536 52.1161L36.0389 52.9546L39.3801 54.9356L41.0437 56.0628L41.1322 56.5424C41.1549 56.6654 41.1663 56.7903 41.1663 56.9154C41.1663 57.2445 41.0873 57.5687 40.936 57.8609L40.8696 57.9891C40.7675 58.1864 40.6212 58.3573 40.4421 58.4888C40.1348 58.7144 39.7506 58.8092 39.3735 58.7524L39.1317 58.716C38.8759 58.6775 38.6298 58.5906 38.4066 58.46L36.9981 57.6357L34.6669 55.9997L34.1069 56.7976L36.3347 58.3611L36.4524 58.6599C36.5384 58.8786 36.5826 59.1115 36.5826 59.3466V59.4665C36.5826 59.7448 36.5032 60.0175 36.3537 60.2523C36.202 60.4905 35.9847 60.6797 35.728 60.7971L35.5683 60.8701C35.346 60.9718 35.1045 61.0244 34.86 61.0244C34.5347 61.0244 34.2161 60.9312 33.9421 60.7559L31.8233 59.4L32.2152 58.5636L32.3957 57.9827C32.5344 57.5362 32.5219 57.0565 32.36 56.6179C32.2381 56.2874 32.0359 55.9925 31.7715 55.7596L31.6527 55.655C31.3257 55.3669 30.9348 55.1607 30.5125 55.0534L30.305 55.0007C30.1057 54.95 29.9027 54.9164 29.6981 54.9001L29.7552 54.8227C29.9364 54.5772 30.0672 54.2982 30.14 54.0019C30.2526 53.5443 30.2227 53.0632 30.0543 52.623L30.0435 52.5948C29.8984 52.2158 29.66 51.8796 29.3504 51.6173L29.1624 51.4581C28.8057 51.1559 28.3731 50.9571 27.9115 50.883C27.5285 50.8215 27.1367 50.8478 26.7657 50.9596C26.7495 50.616 26.674 50.2774 26.542 49.9589L26.4758 49.799C26.3177 49.4174 26.0613 49.0844 25.7328 48.834C25.3253 48.5234 24.8271 48.3552 24.3147 48.3552H24.232C23.8984 48.3552 23.5679 48.4198 23.2588 48.5454L23.1804 48.5773C22.7014 48.772 22.2811 49.0863 21.9592 49.4894C21.7243 49.0772 21.4145 48.7111 21.0447 48.4104L21.0198 48.3902C20.8739 48.2716 20.7186 48.1651 20.5553 48.0718L20.2193 47.8796C19.9178 47.7073 19.5765 47.6166 19.2292 47.6166C18.8046 47.6166 18.3911 47.7521 18.0488 48.0033L17.698 48.2608L17.6042 48.2064ZM32.9519 38.1777L33.247 37.9868L35.8532 37.2694L36.0728 37.2136C37.1396 36.9425 38.2639 37.0064 39.2931 37.3964L40.3443 37.7948C40.7317 37.9416 41.1371 38.0353 41.5495 38.0734C42.049 38.1196 42.5526 38.0836 43.0404 37.967L43.9334 37.7534L50.0228 48.0025L48.0766 49.2349L36.9689 42.4919C36.7788 42.3765 36.5718 42.3218 36.3575 42.3398C36.1514 42.3572 35.9784 42.4385 35.8427 42.5266C35.6396 42.6586 35.4438 42.8633 35.2982 43.0155C35.2675 43.0476 35.2391 43.0773 35.2133 43.1035C35.1708 43.1467 35.1316 43.2006 35.1089 43.2324C35.0798 43.2729 35.0469 43.3214 35.0126 43.3733C34.9435 43.4775 34.8612 43.6071 34.7784 43.7395C34.5731 44.0681 34.3074 44.3497 33.9939 44.5621L33.7979 44.6949C33.5902 44.8357 33.3526 44.9261 33.1039 44.9591L32.8139 44.9975C32.6081 45.0248 32.3994 44.9755 32.2276 44.8591C31.995 44.7015 31.8558 44.4389 31.8558 44.158V40.3184C31.8558 40.0327 31.9011 39.7489 31.9901 39.4775L32.02 39.3863C32.13 39.0511 32.3159 38.7458 32.5634 38.4943C32.6809 38.3748 32.8112 38.2687 32.9519 38.1777ZM44.6043 36.9741L44.4209 36.5482C44.3182 36.3096 44.2652 36.0524 44.2652 35.7926V35.7266C44.2652 35.4061 44.3566 35.0922 44.5288 34.8218C44.6691 34.6014 44.8587 34.4167 45.0827 34.2822L60.0591 25.2902C60.1215 25.2527 60.1973 25.2446 60.2663 25.268C60.3402 25.293 60.3981 25.3514 60.4224 25.4256L60.5196 25.722C60.5484 25.8097 60.563 25.9014 60.563 25.9937V42.9274C60.563 43.106 60.5347 43.2835 60.479 43.4532C60.3918 43.719 60.2399 43.959 60.0369 44.1515L59.8373 44.3409C59.7014 44.4698 59.5528 44.5847 59.3937 44.6837L52.7909 48.7934C52.6545 48.8783 52.4971 48.9233 52.3365 48.9233C52.1934 48.9233 52.0526 48.8876 51.9268 48.8194L51.8254 48.7644C51.6169 48.6514 51.4428 48.4841 51.3217 48.2802L44.6043 36.9741ZM36.4322 43.3108C36.4322 43.3107 36.433 43.3107 36.4347 43.3112L36.4322 43.3108ZM31.3041 58.2106L30.7897 59.3086L30.1999 59.968C29.9683 60.2269 29.651 60.3936 29.3064 60.4374C29.002 60.4761 28.6933 60.4167 28.425 60.268L28.3363 60.2188C28.0364 60.0526 27.7924 59.8015 27.6347 59.497C27.5066 59.2497 27.4398 58.9752 27.4398 58.6967V58.1944L29.0013 55.8634H29.4093C29.6304 55.8634 29.8506 55.891 30.0649 55.9454L30.2724 55.9981C30.545 56.0674 30.7973 56.2005 31.0084 56.3864L31.1272 56.4911C31.2702 56.617 31.3796 56.7766 31.4455 56.9553C31.533 57.1925 31.5398 57.452 31.4648 57.6935L31.3041 58.2106ZM26.557 57.7608L26.2503 58.1556C25.9998 58.4781 25.6275 58.6831 25.2211 58.7224C25.0576 58.7383 24.8926 58.7268 24.7329 58.6886L24.4298 58.6162C24.2734 58.5788 24.1254 58.5123 23.9936 58.4202C23.7071 58.22 23.5147 57.9114 23.4611 57.566L23.435 57.3982C23.4218 57.3129 23.4151 57.2267 23.4151 57.1403V56.2766L26.5788 52.0429L27.0195 51.9014C27.2575 51.825 27.5102 51.8059 27.757 51.8455C28.0432 51.8914 28.3113 52.0147 28.5324 52.2019L28.7204 52.3612C28.9048 52.5173 29.0467 52.7175 29.133 52.9432L29.1438 52.9714C29.2413 53.226 29.2586 53.5044 29.1935 53.7691C29.1513 53.9405 29.0756 54.1019 28.9708 54.2439L28.3424 55.0956L26.557 57.7608ZM25.7942 51.4644L22.6172 55.7158L22.1526 55.909C21.8367 56.0404 21.4861 56.0626 21.1562 55.9724L21.0057 55.9312C20.7207 55.8532 20.4767 55.6684 20.3244 55.4151C20.198 55.205 20.1422 54.96 20.1651 54.7159L20.2165 54.1671L22.2723 50.7031L22.6734 50.1596C22.8966 49.857 23.1991 49.6219 23.5475 49.4803L23.6259 49.4484C23.8184 49.3702 24.0242 49.3299 24.232 49.3299H24.3147C24.6136 49.3299 24.9042 49.4281 25.1419 49.6092C25.3335 49.7553 25.483 49.9495 25.5752 50.1721L25.6415 50.332C25.7423 50.5754 25.7942 50.8363 25.7942 51.0998V51.4644ZM21.3182 50.4008L19.4326 53.5779L19.0639 53.6529C18.7716 53.7123 18.4705 53.7137 18.1777 53.657L18.1142 53.6447C17.8117 53.5862 17.5269 53.4585 17.2819 53.2718L17.2037 53.2122C17.0268 53.0773 16.881 52.906 16.7763 52.7097C16.6104 52.399 16.5554 52.041 16.6203 51.6949L16.6524 51.524C16.7069 51.2334 16.8238 50.958 16.9951 50.717L18.0809 49.1889L18.6256 48.7891C18.8006 48.6607 19.0121 48.5914 19.2292 48.5914C19.4068 48.5914 19.5813 48.6377 19.7355 48.7259L20.0715 48.918C20.1887 48.985 20.3001 49.0614 20.4048 49.1465L20.4297 49.1668C20.7811 49.4525 21.0598 49.8173 21.2432 50.2313L21.3182 50.4008Z" stroke="#0084FF" stroke-width="0.2"/>
<path fill-rule="evenodd" clip-rule="evenodd" d="M30.8319 4C29.486 4 28.3949 5.09107 28.3949 6.43697V8.87395H23.521C22.1751 8.87395 21.084 9.96502 21.084 11.3109V13.2611L21.0846 13.2632L21.7364 14.6996C21.9502 15.2967 22.5503 15.6994 23.2263 15.6994H30.1589C30.3913 14.8585 31.2112 14.2372 32.1869 14.2372H34.8044C35.7801 14.2372 36.5999 14.8585 36.8324 15.6994H44.2885C44.9638 15.6994 46.2129 14.3504 46.4285 13.7524V11.3109C46.4285 9.96502 45.3375 8.87395 43.9915 8.87395H39.1176V6.43697C39.1176 5.09107 38.0265 4 36.6806 4H30.8319ZM46.4285 15.6406C45.9471 16.277 45.1552 16.6742 44.2885 16.6742H36.8324C36.5999 17.515 35.7801 18.1363 34.8044 18.1363H32.1869C31.2112 18.1363 30.3913 17.515 30.1589 16.6742H23.2263C22.3582 16.6742 21.5652 16.2757 21.084 15.6377V23.0084C21.084 24.3543 22.1751 25.4454 23.521 25.4454H43.9915C45.3375 25.4454 46.4285 24.3543 46.4285 23.0084V15.6406ZM38.1428 8.87395H29.3697V6.43697C29.3697 5.62943 30.0243 4.97479 30.8319 4.97479H36.6806C37.4882 4.97479 38.1428 5.62943 38.1428 6.43697V8.87395Z" fill="url(#paint0_linear_441_1420)"/>
</g>
<defs>
<filter id="filter0_d_441_1420" x="0.900391" y="0" width="64.7373" height="66.0996" filterUnits="userSpaceOnUse" color-interpolation-filters="sRGB">
<feFlood flood-opacity="0" result="BackgroundImageFix"/>
<feColorMatrix in="SourceAlpha" type="matrix" values="0 0 0 0 0 0 0 0 0 0 0 0 0 0 0 0 0 0 127 0" result="hardAlpha"/>
<feOffset/>
<feGaussianBlur stdDeviation="2"/>
<feComposite in2="hardAlpha" operator="out"/>
<feColorMatrix type="matrix" values="0 0 0 0 0.164706 0 0 0 0 0.964706 0 0 0 0 1 0 0 0 0.15 0"/>
<feBlend mode="normal" in2="BackgroundImageFix" result="effect1_dropShadow_441_1420"/>
<feBlend mode="normal" in="SourceGraphic" in2="effect1_dropShadow_441_1420" result="shape"/>
</filter>
<linearGradient id="paint0_linear_441_1420" x1="26.3584" y1="-0.924955" x2="37.5836" y2="31.3008" gradientUnits="userSpaceOnUse">
<stop stop-color="white"/>
<stop offset="1" stop-color="#00FCFF"/>
</linearGradient>
</defs>
</svg>
