<svg width="76" height="59" viewBox="0 0 76 59" fill="none" xmlns="http://www.w3.org/2000/svg">
<path fill-rule="evenodd" clip-rule="evenodd" d="M28.2816 8.60352L33.2433 12.6018C33.8126 13.0606 34.1437 13.7524 34.1437 14.4835V21.2561L41.0694 20.2523L45.6545 23.1124C46.3621 23.5538 46.7922 24.3288 46.7922 25.1628V50.7351C46.7922 52.0698 45.7102 53.1517 44.3755 53.1517H42.6113V57.4244H47.5261C47.793 57.4244 48.0094 57.6408 48.0094 57.9078C48.0094 58.1747 47.793 58.3911 47.5261 58.3911H1.48333C1.2164 58.3911 1 58.1747 1 57.9078C1 57.6408 1.2164 57.4244 1.48333 57.4244H4.54582V53.1515C3.22733 53.1327 2.1643 52.058 2.1643 50.7351V25.0357C2.1643 24.29 2.50861 23.586 3.09728 23.1281L6.853 20.207L15.1304 23.3867V16.0792C15.1304 15.1279 15.6884 14.2652 16.5561 13.8751L28.2816 8.60352ZM15.1304 24.4223L7.41887 21.4599L7.46982 52.1851H15.1304V24.4223ZM16.097 52.1851H19.3112V49.2565C19.3112 47.9219 20.3932 46.8399 21.7279 46.8399H27.726V9.9132L16.9525 14.7567C16.4319 14.9908 16.097 15.5085 16.097 16.0792V52.1851ZM28.6926 10.1762V22.192L33.177 21.4083V14.4835C33.177 14.0449 32.9784 13.6298 32.6368 13.3545L28.6926 10.1762ZM33.7366 22.2918L28.6926 23.1733V46.8399H34.6907C36.0253 46.8399 37.1073 47.9219 37.1073 49.2565V52.1368L40.4803 52.1692V21.3145L33.7366 22.2918ZM41.447 21.6272V52.1785L42.1279 52.1851H44.3755C45.1763 52.1851 45.8255 51.5359 45.8255 50.7351V25.1628C45.8255 24.6624 45.5675 24.1974 45.1429 23.9326L41.447 21.6272ZM41.6446 53.1471L37.1073 53.1035V57.4244H41.6446V53.1471ZM36.1407 57.4244V49.2565C36.1407 48.4557 35.4915 47.8066 34.6907 47.8066H21.7279C20.9271 47.8066 20.2779 48.4557 20.2779 49.2565V57.4244H36.1407ZM19.3112 57.4244V53.1517H5.51249V57.4244H19.3112ZM6.50316 52.1851L6.45267 21.743L3.69075 23.8912C3.33755 24.1659 3.13097 24.5883 3.13097 25.0357V50.7351C3.13097 51.5359 3.78015 52.1851 4.58097 52.1851H6.50316ZM19.7946 17.5736C20.0615 17.5736 20.2779 17.79 20.2779 18.057V19.8034C20.2779 20.0704 20.0615 20.2868 19.7946 20.2868C19.5276 20.2868 19.3112 20.0704 19.3112 19.8034V18.057C19.3112 17.79 19.5276 17.5736 19.7946 17.5736ZM22.9699 17.5736C23.2369 17.5736 23.4533 17.79 23.4533 18.057V19.8034C23.4533 20.0704 23.2369 20.2868 22.9699 20.2868C22.703 20.2868 22.4866 20.0704 22.4866 19.8034V18.057C22.4866 17.79 22.703 17.5736 22.9699 17.5736ZM19.7946 22.2838C20.0615 22.2838 20.2779 22.5002 20.2779 22.7671V24.5135C20.2779 24.7805 20.0615 24.9969 19.7946 24.9969C19.5276 24.9969 19.3112 24.7805 19.3112 24.5135V22.7671C19.3112 22.5002 19.5276 22.2838 19.7946 22.2838ZM22.9699 22.2838C23.2369 22.2838 23.4533 22.5002 23.4533 22.7671V24.5135C23.4533 24.7805 23.2369 24.9969 22.9699 24.9969C22.703 24.9969 22.4866 24.7805 22.4866 24.5135V22.7671C22.4866 22.5002 22.703 22.2838 22.9699 22.2838ZM31.3846 25.2474C31.6516 25.2474 31.868 25.4638 31.868 25.7308V27.4772C31.868 27.7442 31.6516 27.9605 31.3846 27.9605C31.1177 27.9605 30.9013 27.7442 30.9013 27.4772V25.7308C30.9013 25.4638 31.1177 25.2474 31.3846 25.2474ZM34.5071 25.2474C34.774 25.2474 34.9904 25.4638 34.9904 25.7308V27.4772C34.9904 27.7442 34.774 27.9605 34.5071 27.9605C34.2401 27.9605 34.0237 27.7442 34.0237 27.4772V25.7308C34.0237 25.4638 34.2401 25.2474 34.5071 25.2474ZM37.7354 25.2474C38.0023 25.2474 38.2187 25.4638 38.2187 25.7308V27.4772C38.2187 27.7442 38.0023 27.9605 37.7354 27.9605C37.4684 27.9605 37.252 27.7442 37.252 27.4772V25.7308C37.252 25.4638 37.4684 25.2474 37.7354 25.2474ZM19.7946 27.6819C20.0615 27.6819 20.2779 27.8983 20.2779 28.1652V29.9117C20.2779 30.1786 20.0615 30.395 19.7946 30.395C19.5276 30.395 19.3112 30.1786 19.3112 29.9117V28.1652C19.3112 27.8983 19.5276 27.6819 19.7946 27.6819ZM22.9699 27.6819C23.2369 27.6819 23.4533 27.8983 23.4533 28.1652V29.9117C23.4533 30.1786 23.2369 30.395 22.9699 30.395C22.703 30.395 22.4866 30.1786 22.4866 29.9117V28.1652C22.4866 27.8983 22.703 27.6819 22.9699 27.6819ZM11.2211 28.5286C11.488 28.5286 11.7044 28.745 11.7044 29.012V30.7584C11.7044 31.0254 11.488 31.2418 11.2211 31.2418C10.9542 31.2418 10.7378 31.0254 10.7378 30.7584V29.012C10.7378 28.745 10.9542 28.5286 11.2211 28.5286ZM31.3846 29.9576C31.6516 29.9576 31.868 30.1739 31.868 30.4409V32.1873C31.868 32.4543 31.6516 32.6707 31.3846 32.6707C31.1177 32.6707 30.9013 32.4543 30.9013 32.1873V30.4409C30.9013 30.1739 31.1177 29.9576 31.3846 29.9576ZM34.5071 29.9576C34.774 29.9576 34.9904 30.1739 34.9904 30.4409V32.1873C34.9904 32.4543 34.774 32.6707 34.5071 32.6707C34.2401 32.6707 34.0237 32.4543 34.0237 32.1873V30.4409C34.0237 30.1739 34.2401 29.9576 34.5071 29.9576ZM37.7354 29.9576C38.0023 29.9576 38.2187 30.1739 38.2187 30.4409V32.1873C38.2187 32.4543 38.0023 32.6707 37.7354 32.6707C37.4684 32.6707 37.252 32.4543 37.252 32.1873V30.4409C37.252 30.1739 37.4684 29.9576 37.7354 29.9576ZM19.7946 33.0271C20.0615 33.0271 20.2779 33.2435 20.2779 33.5104V35.2568C20.2779 35.5238 20.0615 35.7402 19.7946 35.7402C19.5276 35.7402 19.3112 35.5238 19.3112 35.2568V33.5104C19.3112 33.2435 19.5276 33.0271 19.7946 33.0271ZM22.9699 33.0271C23.2369 33.0271 23.4533 33.2435 23.4533 33.5104V35.2568C23.4533 35.5238 23.2369 35.7402 22.9699 35.7402C22.703 35.7402 22.4866 35.5238 22.4866 35.2568V33.5104C22.4866 33.2435 22.703 33.0271 22.9699 33.0271ZM11.2211 33.2388C11.488 33.2388 11.7044 33.4552 11.7044 33.7221V35.4685C11.7044 35.7355 11.488 35.9519 11.2211 35.9519C10.9542 35.9519 10.7378 35.7355 10.7378 35.4685V33.7221C10.7378 33.4552 10.9542 33.2388 11.2211 33.2388ZM31.3846 35.3557C31.6516 35.3557 31.868 35.5721 31.868 35.839V37.5854C31.868 37.8524 31.6516 38.0688 31.3846 38.0688C31.1177 38.0688 30.9013 37.8524 30.9013 37.5854V35.839C30.9013 35.5721 31.1177 35.3557 31.3846 35.3557ZM34.5071 35.3557C34.774 35.3557 34.9904 35.5721 34.9904 35.839V37.5854C34.9904 37.8524 34.774 38.0688 34.5071 38.0688C34.2401 38.0688 34.0237 37.8524 34.0237 37.5854V35.839C34.0237 35.5721 34.2401 35.3557 34.5071 35.3557ZM11.2211 38.6369C11.488 38.6369 11.7044 38.8533 11.7044 39.1202V40.8666C11.7044 41.1336 11.488 41.35 11.2211 41.35C10.9542 41.35 10.7378 41.1336 10.7378 40.8666V39.1202C10.7378 38.8533 10.9542 38.6369 11.2211 38.6369ZM31.3846 40.7009C31.6516 40.7009 31.868 40.9173 31.868 41.1842V42.9306C31.868 43.1976 31.6516 43.414 31.3846 43.414C31.1177 43.414 30.9013 43.1976 30.9013 42.9306V41.1842C30.9013 40.9173 31.1177 40.7009 31.3846 40.7009ZM11.2211 43.9821C11.488 43.9821 11.7044 44.1985 11.7044 44.4654V46.2118C11.7044 46.4788 11.488 46.6952 11.2211 46.6952C10.9542 46.6952 10.7378 46.4788 10.7378 46.2118V44.4654C10.7378 44.1985 10.9542 43.9821 11.2211 43.9821ZM23.1217 50.2869C23.1217 50.02 23.3381 49.8036 23.605 49.8036H32.6548C32.9217 49.8036 33.1381 50.02 33.1381 50.2869C33.1381 50.5538 32.9217 50.7702 32.6548 50.7702H23.605C23.3381 50.7702 23.1217 50.5538 23.1217 50.2869ZM23.1217 53.621C23.1217 53.3541 23.3381 53.1377 23.605 53.1377H32.6548C32.9217 53.1377 33.1381 53.3541 33.1381 53.621C33.1381 53.888 32.9217 54.1044 32.6548 54.1044H23.605C23.3381 54.1044 23.1217 53.888 23.1217 53.621Z" fill="white" stroke="#0084FF" stroke-width="0.2"/>
<path fill-rule="evenodd" clip-rule="evenodd" d="M51.3829 32.8506L52.3638 31.3527L38.3637 22.1849C38.3066 22.1475 38.2301 22.1635 38.1927 22.2205L37.3471 23.5118C37.3098 23.5688 37.3258 23.6454 37.3828 23.6827L51.3829 32.8506ZM51.4862 32.9182L52.4671 31.4204L52.5188 31.4542L53.0599 30.6278C53.0973 30.5707 53.1738 30.5548 53.2309 30.5922L68.1274 40.347C68.1689 40.3741 68.1901 40.4235 68.1813 40.4722L67.836 42.3863C67.8301 42.4192 67.811 42.4484 67.7832 42.467L66.1668 43.5486C66.1256 43.5762 66.0719 43.5764 66.0304 43.5493L51.1339 33.7945C51.0768 33.7571 51.0609 33.6806 51.0982 33.6235L51.5379 32.9521L51.4862 32.9182ZM37.2168 23.6595C37.193 23.5899 37.2004 23.5104 37.2438 23.4441L37.6349 22.8469L38.0894 22.1529C38.131 22.0894 38.1968 22.0513 38.2667 22.0429C38.3224 22.0363 38.3807 22.0484 38.4313 22.0816L52.4831 31.2832L52.9566 30.5601C53.0313 30.446 53.1844 30.4141 53.2985 30.4889L68.1951 40.2437C68.278 40.298 68.3204 40.3966 68.3028 40.4942L67.9576 42.4082C67.9457 42.4741 67.9075 42.5324 67.8519 42.5696L66.2355 43.6513C66.1531 43.7064 66.0457 43.7069 65.9628 43.6526L51.0662 33.8978C50.9521 33.823 50.9202 33.6699 50.9949 33.5558L51.3669 32.9877L37.3152 23.786C37.2674 23.7547 37.234 23.7097 37.2168 23.6595ZM37.0836 23.6312C37.1326 23.5662 37.1811 23.5006 37.2292 23.4345C37.3685 23.2431 37.5038 23.0472 37.6349 22.8469C37.7874 22.614 37.9323 22.3782 38.0696 22.1399C38.1089 22.0716 38.1477 22.0032 38.1858 21.9345C41.791 15.4341 39.8159 7.1539 33.4964 3.01562C26.8771 -1.31897 17.9979 0.532046 13.6642 7.14998C9.33053 13.7679 11.1834 22.6467 17.8027 26.9813C24.1526 31.1395 32.5822 29.6053 37.0836 23.6312ZM37.5316 22.7793C41.8279 16.2184 39.991 7.41615 33.4287 3.11892C26.8665 -1.1783 18.0639 0.656758 13.7675 7.21764C9.47121 13.7785 11.3081 22.5808 17.8704 26.878C24.4326 31.1752 33.2352 29.3402 37.5316 22.7793ZM36.3612 22.0867C40.2279 16.1819 38.5747 8.25986 32.6687 4.39236C26.7626 0.524853 18.8403 2.17641 14.9736 8.0812C11.1069 13.986 12.7601 21.908 18.6661 25.7755C24.5721 29.643 32.4945 27.9915 36.3612 22.0867ZM32.804 4.18575C38.8241 8.12799 40.5093 16.2031 36.5678 22.222C32.6264 28.2409 24.551 29.9243 18.5308 25.9821C12.5107 22.0399 10.8255 13.9648 14.7669 7.94588C18.7083 1.92698 26.7838 0.243517 32.804 4.18575Z" fill="url(#paint0_linear_441_1400)"/>
<path fill-rule="evenodd" clip-rule="evenodd" d="M33.4287 3.11892C39.991 7.41615 41.8279 16.2184 37.5316 22.7793C33.2352 29.3402 24.4326 31.1752 17.8704 26.878C11.3081 22.5808 9.47121 13.7785 13.7675 7.21764C18.0639 0.656758 26.8665 -1.1783 33.4287 3.11892ZM32.804 4.18575C38.8241 8.12799 40.5093 16.2031 36.5678 22.222C32.6264 28.2409 24.551 29.9243 18.5308 25.9821C12.5107 22.0399 10.8255 13.9648 14.7669 7.94588C18.7083 1.92698 26.7838 0.243517 32.804 4.18575Z" fill="url(#paint1_linear_441_1400)"/>
<path d="M52.3638 31.3527L51.3829 32.8506L37.3828 23.6827C37.3258 23.6454 37.3098 23.5688 37.3471 23.5118L38.1927 22.2205C38.2301 22.1635 38.3066 22.1475 38.3637 22.1849L52.3638 31.3527Z" fill="url(#paint2_linear_441_1400)"/>
<path d="M51.4862 32.9182L52.4671 31.4204L52.5188 31.4542L53.0599 30.6278C53.0973 30.5707 53.1738 30.5548 53.2309 30.5922L68.1274 40.347C68.1689 40.3741 68.1901 40.4235 68.1813 40.4722L67.836 42.3863C67.8301 42.4192 67.811 42.4484 67.7832 42.467L66.1668 43.5486C66.1256 43.5762 66.0719 43.5764 66.0304 43.5493L51.1339 33.7945C51.0768 33.7571 51.0609 33.6806 51.0982 33.6235L51.5379 32.9521L51.4862 32.9182Z" fill="url(#paint3_linear_441_1400)"/>
<defs>
<linearGradient id="paint0_linear_441_1400" x1="-3.35787" y1="5.99835" x2="75.3747" y2="-7.49067" gradientUnits="userSpaceOnUse">
<stop stop-color="white"/>
<stop offset="1" stop-color="#00FCFF"/>
</linearGradient>
<linearGradient id="paint1_linear_441_1400" x1="-3.35787" y1="5.99835" x2="75.3747" y2="-7.49067" gradientUnits="userSpaceOnUse">
<stop stop-color="white"/>
<stop offset="1" stop-color="#00FCFF"/>
</linearGradient>
<linearGradient id="paint2_linear_441_1400" x1="-3.35787" y1="5.99835" x2="75.3747" y2="-7.49067" gradientUnits="userSpaceOnUse">
<stop stop-color="white"/>
<stop offset="1" stop-color="#00FCFF"/>
</linearGradient>
<linearGradient id="paint3_linear_441_1400" x1="-3.35787" y1="5.99835" x2="75.3747" y2="-7.49067" gradientUnits="userSpaceOnUse">
<stop stop-color="white"/>
<stop offset="1" stop-color="#00FCFF"/>
</linearGradient>
</defs>
</svg>
