<svg width="62" height="68" viewBox="0 0 62 68" fill="none" xmlns="http://www.w3.org/2000/svg">
<g filter="url(#filter0_d_441_1483)">
<path fill-rule="evenodd" clip-rule="evenodd" d="M15.4413 16.8999C15.1991 16.8636 14.9515 16.8889 14.7216 16.9736C14.4259 17.0826 14.1734 17.2845 14.0022 17.5492L13.9573 17.6185C13.8494 17.7854 13.7814 17.9749 13.7586 18.1723L13.6389 19.2093V29.8394C13.6389 30.1158 13.4148 30.3399 13.1384 30.3399C12.862 30.3399 12.6379 30.1158 12.6379 29.8394V19.3543L12.3768 19.0235C12.1379 18.7209 11.7978 18.5145 11.419 18.4424C11.2047 18.4015 10.9844 18.4049 10.7715 18.4522L10.6021 18.4899C10.3968 18.5355 10.2056 18.6303 10.0451 18.7661L10.0339 18.7756C9.85158 18.9299 9.71737 19.1332 9.64715 19.3614C9.61056 19.4803 9.59196 19.604 9.59196 19.7284V29.4404C9.59196 29.7168 9.36788 29.9409 9.09146 29.9409C8.81504 29.9409 8.59097 29.7168 8.59097 29.4404V24.1853L8.16452 23.7855C8.00988 23.6405 7.82176 23.5361 7.61694 23.4814C7.41769 23.4283 7.20859 23.4239 7.00729 23.4687L6.8147 23.5115C6.63454 23.5515 6.46829 23.6388 6.33304 23.7644C6.1213 23.961 6.00099 24.2369 6.00099 24.5258V40.5593L6.31856 42.0413L6.87475 43.1537L8.37153 44.5008H22.4966L23.1239 43.5149L23.6668 42.2119L24.2229 40.3214L24.6222 38.3249L26.4731 32.1733L26.3727 32.0872C25.8214 31.8331 25.3335 31.7843 24.9034 31.8554C24.4529 31.9299 24.0336 32.1417 23.6513 32.4456C22.8919 33.0494 22.3355 33.9722 22.056 34.6571L21.8493 35.6904L21.6508 35.8034C21.1281 36.1008 20.308 36.6546 19.5744 37.3332C18.8262 38.0252 18.2397 38.7818 18.0707 39.4766C18.0054 39.7452 17.7347 39.91 17.4661 39.8446C17.1975 39.7793 17.0327 39.5086 17.0981 39.24C17.3394 38.2477 18.1114 37.3228 18.8947 36.5983C19.6056 35.9407 20.3853 35.3945 20.9566 35.0502L21.0738 34.4638V21.2114C21.0738 20.9535 21.0223 20.6981 20.9222 20.4603L20.8852 20.3725C20.7716 20.1027 20.586 19.8694 20.3488 19.6981L20.3044 19.666C20.0613 19.4905 19.7692 19.396 19.4694 19.396C19.2726 19.396 19.078 19.4367 18.8978 19.5156L18.8632 19.5307C18.6092 19.6418 18.3883 19.8168 18.2219 20.0386L17.9709 20.3733V28.9274C17.9709 29.2038 17.7468 29.4279 17.4704 29.4279C17.194 29.4279 16.9699 29.2038 16.9699 28.9274V18.7343C16.9699 18.4596 16.9122 18.1881 16.8007 17.9371L16.7683 17.8641C16.662 17.625 16.4999 17.4149 16.2956 17.2514C16.0705 17.0714 15.8018 16.954 15.5167 16.9112L15.4413 16.8999ZM16.9209 16.4698C16.558 16.1795 16.1248 15.9903 15.6652 15.9213L15.5898 15.91C15.1811 15.8487 14.7634 15.8915 14.3756 16.0344C13.8766 16.2182 13.4507 16.5589 13.1618 17.0054L13.1169 17.0747C12.9351 17.3558 12.8171 17.6731 12.771 18.0042C12.4367 17.7298 12.0369 17.5411 11.6063 17.459C11.2582 17.3927 10.9003 17.3982 10.5544 17.4751L10.3849 17.5127C10.0213 17.5935 9.68283 17.7614 9.39851 18.002L9.38728 18.0115C9.05881 18.2894 8.81696 18.6558 8.69042 19.067C8.62449 19.2813 8.59097 19.5042 8.59097 19.7284V22.8463C8.37401 22.6954 8.13182 22.5828 7.87486 22.5143C7.52035 22.4197 7.1483 22.4119 6.79015 22.4915L6.59756 22.5343C6.24384 22.6129 5.91744 22.7843 5.65192 23.0309C5.23621 23.4169 5 23.9586 5 24.5258V40.6653L5.36642 42.3753L6.06422 43.7709L6.8752 44.5008H5.74099V63.0006H24.6398V44.5008H23.6831L24.0147 43.9796L24.6118 42.5466L25.1957 40.5612L25.5944 38.5678L27.6195 31.8375L26.9235 31.241L26.8649 31.2127C26.1172 30.8517 25.4023 30.7583 24.74 30.8679C24.0834 30.9765 23.5102 31.2791 23.0285 31.662C22.6663 31.9499 22.3478 32.2894 22.0748 32.6433V21.2114C22.0748 20.82 21.9966 20.4326 21.8447 20.0719L21.8077 19.984C21.6229 19.5451 21.3209 19.1654 20.9349 18.8866L20.8904 18.8545C20.4768 18.5558 19.9796 18.395 19.4694 18.395C19.1345 18.395 18.8033 18.4643 18.4965 18.5985L18.462 18.6136C18.2878 18.6898 18.1232 18.7845 17.9709 18.8956V18.7343C17.9709 18.3196 17.8838 17.9095 17.7154 17.5305L17.683 17.4576C17.5117 17.0721 17.2503 16.7333 16.9209 16.4698ZM6.74198 45.5018V61.9996H23.6388V45.5018H6.74198Z" fill="white" stroke="#0084FF" stroke-width="0.2"/>
<path fill-rule="evenodd" clip-rule="evenodd" d="M44.6711 6.01903C44.3996 5.97835 44.1223 6.00673 43.8646 6.10154C43.533 6.22361 43.2499 6.44995 43.0577 6.74658L43.0429 6.76946C42.8994 6.99111 42.8089 7.2429 42.7786 7.50523L42.655 8.57517V20.1527C42.655 20.4291 42.4309 20.6532 42.1545 20.6532C41.8781 20.6532 41.654 20.4291 41.654 20.1527V8.72025L41.3603 8.34856C41.0929 8.01016 40.7125 7.7795 40.2888 7.69888C40.0493 7.65331 39.803 7.65705 39.565 7.70989L39.3798 7.75101C39.1491 7.80222 38.9343 7.90866 38.7539 8.0612L38.7412 8.07194C38.5362 8.24524 38.3852 8.47372 38.3062 8.73027C38.265 8.86402 38.2441 9.00318 38.2441 9.14313V19.7183C38.2441 19.9947 38.02 20.2188 37.7436 20.2188C37.4671 20.2188 37.2431 19.9947 37.2431 19.7183V13.9769L36.7644 13.5286C36.5903 13.3655 36.3785 13.248 36.148 13.1866C35.9239 13.1269 35.6886 13.122 35.4622 13.1723L35.2516 13.219C35.0477 13.2643 34.8596 13.363 34.7065 13.505C34.4665 13.7277 34.3301 14.0402 34.3301 14.3676V31.8301L34.6784 33.4539L35.2909 34.6777L36.9415 36.1618H52.3793L53.0783 35.0643L53.6725 33.6398L54.2798 31.577L54.715 29.4031L56.7401 22.6792L56.6039 22.5627C55.3971 22.0048 54.3974 22.3106 53.5849 22.9559C52.7478 23.6207 52.1369 24.6351 51.8309 25.3859L51.6088 26.4954L51.4102 26.6082C50.8379 26.9335 49.9411 27.5385 49.1386 28.2801C48.3215 29.0351 47.6741 29.8664 47.4867 30.6362C47.4213 30.9047 47.1506 31.0694 46.882 31.004C46.6134 30.9386 46.4487 30.6679 46.5141 30.3993C46.774 29.3319 47.6072 28.3323 48.4593 27.5449C49.2387 26.8247 50.0944 26.2274 50.7162 25.8545L50.8487 25.1925V10.7581C50.8487 10.4711 50.7913 10.1871 50.6799 9.92263L50.6399 9.82777C50.5128 9.52616 50.3051 9.26534 50.0397 9.07383L49.9918 9.03923C49.719 8.84244 49.3912 8.73653 49.0549 8.73653C48.8342 8.73653 48.6159 8.78216 48.4137 8.87055L47.9428 9.07634L47.3766 9.83052V19.1597C47.3766 19.4361 47.1526 19.6602 46.8761 19.6602C46.5997 19.6602 46.3756 19.4361 46.3756 19.1597V8.06076C46.3756 7.75536 46.3115 7.45336 46.1874 7.17433L46.1523 7.09552C46.0334 6.82834 45.8522 6.59361 45.6237 6.41104C45.3723 6.2101 45.0723 6.07916 44.754 6.03146L44.6711 6.01903ZM46.2487 5.6291C45.8595 5.31806 45.395 5.11536 44.9023 5.04152L44.8194 5.02909C44.3816 4.96349 43.9343 5.00925 43.5189 5.16216C42.984 5.35903 42.5274 5.72404 42.2176 6.20241L42.2027 6.2253C41.9822 6.56587 41.8408 6.95139 41.7887 7.35348C41.4177 7.03026 40.9653 6.80867 40.4759 6.71553C40.1027 6.64452 39.7189 6.65035 39.3481 6.73269L39.1628 6.77381C38.774 6.86014 38.4119 7.03959 38.1077 7.29674L38.095 7.30749C37.7437 7.60446 37.4849 7.996 37.3495 8.43563C37.279 8.66483 37.2431 8.90331 37.2431 9.14313V12.6256C36.9932 12.4384 36.709 12.3002 36.4057 12.2194C36.0264 12.1183 35.6284 12.11 35.2452 12.1951L35.0347 12.2418C34.6573 12.3256 34.3091 12.5083 34.0257 12.7712C33.5815 13.1832 33.3291 13.7617 33.3291 14.3676V31.9363L33.7263 33.7882L34.4806 35.2953L35.4443 36.1618H34.1367V62.715H54.6454V36.1618H53.5661L53.969 35.5293L54.6173 33.9748L55.2526 31.817L55.6872 29.6463L57.8867 22.3432L57.1546 21.7163L57.0959 21.688C55.4457 20.8922 54.0205 21.3317 52.9623 22.1721C52.5345 22.5118 52.1627 22.9185 51.8497 23.3394V10.7581C51.8497 10.3376 51.7656 9.92136 51.6023 9.53387L51.5623 9.43901C51.3639 8.96819 51.0398 8.56103 50.6254 8.26208L50.5775 8.22748C50.1342 7.90766 49.6015 7.73554 49.0549 7.73554C48.6962 7.73554 48.3414 7.80969 48.0128 7.95334L47.3766 8.23138V8.06076C47.3766 7.61518 47.283 7.17457 47.1019 6.76746L47.0669 6.68865C46.8829 6.27507 46.6023 5.91171 46.2487 5.6291ZM35.1377 37.1628V61.714H53.6444V37.1628H35.1377Z" fill="white" stroke="#0084FF" stroke-width="0.2"/>
<path d="M51.3951 45.8282L50.1308 46.7673L49.0556 45.9788C48.6357 45.6709 48.1651 45.4388 47.6652 45.293C47.259 45.1745 46.8381 45.1144 46.415 45.1144H46.0453C45.4371 45.1144 44.8409 45.284 44.3238 45.6041C44.0546 45.7707 43.8111 45.9755 43.6008 46.2121L43.4044 46.433C43.1403 46.7301 42.9237 47.0662 42.7623 47.4295C42.6213 47.7466 42.5238 48.0813 42.4723 48.4244L42.4396 48.6426C42.3992 48.912 42.3789 49.1841 42.3789 49.4566V50.0387C42.3789 50.4752 42.4676 50.9072 42.6395 51.3084C42.8061 51.6972 43.0477 52.0494 43.3503 52.3449L50.1308 58.9652L56.6027 52.3328C56.8844 52.0442 57.1196 51.7137 57.2999 51.353C57.5708 50.8113 57.7118 50.2099 57.7118 49.6043C57.7118 49.0883 57.6102 48.5739 57.4129 48.0971L57.2916 47.8038C57.1166 47.381 56.8827 46.985 56.5968 46.6276L56.3944 46.3746C56.0611 45.958 55.6363 45.624 55.1529 45.3984C54.5178 45.102 53.8077 45.005 53.1163 45.1203L53.0237 45.1357C52.4336 45.2341 51.8753 45.4714 51.3951 45.8282Z" fill="url(#paint0_linear_441_1483)"/>
<path d="M27.3981 6.2383L26.4276 6.96541L25.6024 6.35506C25.282 6.11812 24.9225 5.93934 24.5403 5.82689C24.2287 5.73525 23.9056 5.68871 23.5809 5.68871H23.302C22.8344 5.68871 22.3761 5.82003 21.9794 6.06771C21.7741 6.19591 21.5885 6.35327 21.4284 6.53486L21.2778 6.70576C21.0747 6.93618 20.9083 7.1965 20.7845 7.47757C20.6767 7.72201 20.6022 7.97978 20.563 8.244L20.5377 8.41401C20.5067 8.62196 20.4912 8.83192 20.4912 9.04216V9.49395C20.4912 9.82991 20.5589 10.1624 20.6903 10.4716C20.8182 10.7727 21.004 11.0457 21.237 11.2752L26.4276 16.3865L31.3821 11.2658C31.5989 11.0416 31.7798 10.7853 31.9183 10.5059C32.1254 10.0883 32.2331 9.62388 32.2331 9.15772C32.2331 8.75918 32.1553 8.36059 32.004 7.99188L31.9101 7.76306C31.7769 7.43835 31.5986 7.13403 31.3805 6.85907L31.2214 6.65852C30.9681 6.33915 30.6444 6.08265 30.2755 5.90905C29.788 5.6796 29.2421 5.6045 28.7107 5.69382L28.6421 5.70535C28.1908 5.78121 27.7643 5.96394 27.3981 6.2383Z" fill="url(#paint1_linear_441_1483)"/>
</g>
<defs>
<filter id="filter0_d_441_1483" x="0.900391" y="0.900391" width="61.1006" height="66.1992" filterUnits="userSpaceOnUse" color-interpolation-filters="sRGB">
<feFlood flood-opacity="0" result="BackgroundImageFix"/>
<feColorMatrix in="SourceAlpha" type="matrix" values="0 0 0 0 0 0 0 0 0 0 0 0 0 0 0 0 0 0 127 0" result="hardAlpha"/>
<feOffset/>
<feGaussianBlur stdDeviation="2"/>
<feComposite in2="hardAlpha" operator="out"/>
<feColorMatrix type="matrix" values="0 0 0 0 0.164706 0 0 0 0 0.964706 0 0 0 0 1 0 0 0 0.15 0"/>
<feBlend mode="normal" in2="BackgroundImageFix" result="effect1_dropShadow_441_1483"/>
<feBlend mode="normal" in="SourceGraphic" in2="effect1_dropShadow_441_1483" result="shape"/>
</filter>
<linearGradient id="paint0_linear_441_1483" x1="41.0598" y1="32.1583" x2="55.5286" y2="57.9339" gradientUnits="userSpaceOnUse">
<stop offset="0.179203" stop-color="white"/>
<stop offset="1" stop-color="#00FCFF"/>
</linearGradient>
<linearGradient id="paint1_linear_441_1483" x1="19.4811" y1="-4.31802" x2="30.7056" y2="15.5083" gradientUnits="userSpaceOnUse">
<stop offset="0.179203" stop-color="white"/>
<stop offset="1" stop-color="#00FCFF"/>
</linearGradient>
</defs>
</svg>
