<svg width="75" height="68" viewBox="0 0 75 68" fill="none" xmlns="http://www.w3.org/2000/svg">
<g filter="url(#filter0_d_441_1407)">
<path fill-rule="evenodd" clip-rule="evenodd" d="M11.4191 6C10.5907 6 9.91911 6.67157 9.91911 7.5V56.5809C9.91911 57.4093 10.5907 58.0809 11.4191 58.0809H46.8984C47.7268 58.0809 48.3984 57.4093 48.3984 56.5809V16.0859H41.8498C40.4691 16.0859 39.3498 14.9667 39.3498 13.5859V6H11.4191ZM40.3498 6.80606L47.7781 15.0859H41.8498C41.0214 15.0859 40.3498 14.4144 40.3498 13.5859V6.80606ZM8.91911 7.5C8.91911 6.11929 10.0384 5 11.4191 5H40.073L49.3984 15.3945V56.5809C49.3984 57.9616 48.2791 59.0809 46.8984 59.0809H46.2285V60.5C46.2285 61.8807 45.1092 63 43.7285 63H7.5C6.11929 63 5 61.8807 5 60.5V11.3038C5 9.92313 6.11929 8.80384 7.5 8.80384H8.91911V7.5ZM8.91911 9.80384H7.5C6.67157 9.80384 6 10.4754 6 11.3038V60.5C6 61.3284 6.67157 62 7.5 62H43.7285C44.5569 62 45.2285 61.3284 45.2285 60.5V59.0809H11.4191C10.0384 59.0809 8.91911 57.9616 8.91911 56.5809V9.80384ZM14.0485 11.2058C14.0485 10.9296 14.2724 10.7058 14.5485 10.7058H17.4302C17.7064 10.7058 17.9302 10.9296 17.9302 11.2058C17.9302 11.4819 17.7064 11.7058 17.4302 11.7058H14.5485C14.2724 11.7058 14.0485 11.4819 14.0485 11.2058ZM19.2932 11.2058C19.2932 10.9296 19.5171 10.7058 19.7932 10.7058H25.3837C25.6599 10.7058 25.8837 10.9296 25.8837 11.2058C25.8837 11.4819 25.6599 11.7058 25.3837 11.7058H19.7932C19.5171 11.7058 19.2932 11.4819 19.2932 11.2058ZM14.0485 15.2401C14.0485 14.964 14.2724 14.7401 14.5485 14.7401H25.3837C25.6599 14.7401 25.8837 14.964 25.8837 15.2401C25.8837 15.5163 25.6599 15.7401 25.3837 15.7401H14.5485C14.2724 15.7401 14.0485 15.5163 14.0485 15.2401ZM14.0485 22.9631C14.0485 22.687 14.2724 22.4631 14.5485 22.4631H17.4302C17.7064 22.4631 17.9302 22.687 17.9302 22.9631C17.9302 23.2392 17.7064 23.4631 17.4302 23.4631H14.5485C14.2724 23.4631 14.0485 23.2392 14.0485 22.9631ZM20.2154 22.9631C20.2154 22.687 20.4392 22.4631 20.7154 22.4631H26.3059C26.582 22.4631 26.8059 22.687 26.8059 22.9631C26.8059 23.2392 26.582 23.4631 26.3059 23.4631H20.7154C20.4392 23.4631 20.2154 23.2392 20.2154 22.9631ZM27.5925 22.9631C27.5925 22.687 27.8164 22.4631 28.0925 22.4631H33.5101C33.7863 22.4631 34.0101 22.687 34.0101 22.9631C34.0101 23.2392 33.7863 23.4631 33.5101 23.4631H28.0925C27.8164 23.4631 27.5925 23.2392 27.5925 22.9631ZM14.0485 29.0723C14.0485 28.7962 14.2724 28.5723 14.5485 28.5723H33.5101C33.7863 28.5723 34.0101 28.7962 34.0101 29.0723C34.0101 29.3484 33.7863 29.5723 33.5101 29.5723H14.5485C14.2724 29.5723 14.0485 29.3484 14.0485 29.0723ZM14.0485 35.0662C14.0485 34.7901 14.2724 34.5662 14.5485 34.5662H33.5101C33.7863 34.5662 34.0101 34.7901 34.0101 35.0662C34.0101 35.3424 33.7863 35.5662 33.5101 35.5662H14.5485C14.2724 35.5662 14.0485 35.3424 14.0485 35.0662ZM14.0485 40.9449C14.0485 40.6688 14.2724 40.4449 14.5485 40.4449H33.5101C33.7863 40.4449 34.0101 40.6688 34.0101 40.9449C34.0101 41.221 33.7863 41.4449 33.5101 41.4449H14.5485C14.2724 41.4449 14.0485 41.221 14.0485 40.9449ZM30.7048 48.6678C30.7048 48.3917 30.9286 48.1678 31.2048 48.1678H36.6223C36.8985 48.1678 37.1223 48.3917 37.1223 48.6678C37.1223 48.944 36.8985 49.1678 36.6223 49.1678H31.2048C30.9286 49.1678 30.7048 48.944 30.7048 48.6678ZM30.7048 52.7022C30.7048 52.4261 30.9286 52.2022 31.2048 52.2022H36.6223C36.8985 52.2022 37.1223 52.4261 37.1223 52.7022C37.1223 52.9784 36.8985 53.2022 36.6223 53.2022H31.2048C30.9286 53.2022 30.7048 52.9784 30.7048 52.7022Z" fill="white" stroke="#0084FF" stroke-width="0.2"/>
<path d="M45.8436 34.0289C45.8436 34.3822 45.8058 34.7266 45.7339 35.0584C45.5966 35.6926 45.335 36.2805 44.9759 36.7953C44.5955 37.3407 44.1057 37.804 43.5383 38.1536C42.8008 38.608 41.9322 38.8701 41.0024 38.8701C38.3286 38.8701 36.1611 36.7026 36.1611 34.0289C36.1611 31.3551 38.3286 29.1876 41.0024 29.1876C41.9322 29.1876 42.8008 29.4497 43.5383 29.9041C44.1057 30.2537 44.5955 30.7171 44.9759 31.2624C45.3335 31.7751 45.5944 32.3603 45.7322 32.9915C45.8052 33.3257 45.8436 33.6728 45.8436 34.0289Z" fill="url(#paint0_linear_441_1407)"/>
<path d="M59.0995 18.9864C59.0995 20.9917 57.4738 22.6174 55.4685 22.6174C54.9566 22.6174 54.4694 22.5114 54.0277 22.3202C53.3832 22.0413 52.8355 21.581 52.449 21.0036C52.0628 20.4266 51.8376 19.7328 51.8376 18.9864C51.8376 16.9811 53.4632 15.3555 55.4685 15.3555C57.4738 15.3555 59.0995 16.9811 59.0995 18.9864Z" fill="url(#paint1_linear_441_1407)"/>
<path d="M70.6263 33.9712C70.6263 35.9766 69.0006 37.6022 66.9953 37.6022C65.3687 37.6022 63.992 36.5326 63.5299 35.0584C63.4224 34.7152 63.3644 34.35 63.3644 33.9712C63.3644 33.6318 63.411 33.3031 63.4981 32.9915C63.9257 31.4621 65.3295 30.3403 66.9953 30.3403C69.0006 30.3403 70.6263 31.9659 70.6263 33.9712Z" fill="url(#paint2_linear_441_1407)"/>
<path d="M59.0995 48.3797C59.0995 50.3851 57.4738 52.0107 55.4685 52.0107C53.4632 52.0107 51.8376 50.3851 51.8376 48.3797C51.8376 47.8454 51.953 47.3381 52.1602 46.8813C52.4413 46.2617 52.8912 45.7351 53.4513 45.3602C54.0283 44.974 54.7221 44.7488 55.4685 44.7488C57.4738 44.7488 59.0995 46.3744 59.0995 48.3797Z" fill="url(#paint3_linear_441_1407)"/>
<path d="M52.449 21.0036L43.5383 29.9041C44.1057 30.2537 44.5955 30.7171 44.9759 31.2624L54.0277 22.3202C53.3832 22.0413 52.8355 21.581 52.449 21.0036Z" fill="url(#paint4_linear_441_1407)"/>
<path d="M45.7322 32.9915C45.8052 33.3257 45.8436 33.6728 45.8436 34.0289C45.8436 34.3822 45.8058 34.7266 45.7339 35.0584H63.5299C63.4224 34.7152 63.3644 34.35 63.3644 33.9712C63.3644 33.6318 63.411 33.3031 63.4981 32.9915H45.7322Z" fill="url(#paint5_linear_441_1407)"/>
<path d="M43.5383 38.1536L52.1602 46.8813C52.4413 46.2617 52.8912 45.7351 53.4513 45.3602L44.9759 36.7953C44.5955 37.3407 44.1057 37.804 43.5383 38.1536Z" fill="url(#paint6_linear_441_1407)"/>
</g>
<defs>
<filter id="filter0_d_441_1407" x="0.900391" y="0.900391" width="73.7256" height="66.1992" filterUnits="userSpaceOnUse" color-interpolation-filters="sRGB">
<feFlood flood-opacity="0" result="BackgroundImageFix"/>
<feColorMatrix in="SourceAlpha" type="matrix" values="0 0 0 0 0 0 0 0 0 0 0 0 0 0 0 0 0 0 127 0" result="hardAlpha"/>
<feOffset/>
<feGaussianBlur stdDeviation="2"/>
<feComposite in2="hardAlpha" operator="out"/>
<feColorMatrix type="matrix" values="0 0 0 0 0.164706 0 0 0 0 0.964706 0 0 0 0 1 0 0 0 0.15 0"/>
<feBlend mode="normal" in2="BackgroundImageFix" result="effect1_dropShadow_441_1407"/>
<feBlend mode="normal" in="SourceGraphic" in2="effect1_dropShadow_441_1407" result="shape"/>
</filter>
<linearGradient id="paint0_linear_441_1407" x1="43.3336" y1="6.93756" x2="66.0258" y2="58.7671" gradientUnits="userSpaceOnUse">
<stop stop-color="white"/>
<stop offset="1" stop-color="#00FCFF"/>
</linearGradient>
<linearGradient id="paint1_linear_441_1407" x1="43.3336" y1="6.93756" x2="66.0258" y2="58.7671" gradientUnits="userSpaceOnUse">
<stop stop-color="white"/>
<stop offset="1" stop-color="#00FCFF"/>
</linearGradient>
<linearGradient id="paint2_linear_441_1407" x1="43.3336" y1="6.93756" x2="66.0258" y2="58.7671" gradientUnits="userSpaceOnUse">
<stop stop-color="white"/>
<stop offset="1" stop-color="#00FCFF"/>
</linearGradient>
<linearGradient id="paint3_linear_441_1407" x1="43.3336" y1="6.93756" x2="66.0258" y2="58.7671" gradientUnits="userSpaceOnUse">
<stop stop-color="white"/>
<stop offset="1" stop-color="#00FCFF"/>
</linearGradient>
<linearGradient id="paint4_linear_441_1407" x1="43.3336" y1="6.93756" x2="66.0258" y2="58.7671" gradientUnits="userSpaceOnUse">
<stop stop-color="white"/>
<stop offset="1" stop-color="#00FCFF"/>
</linearGradient>
<linearGradient id="paint5_linear_441_1407" x1="43.3336" y1="6.93756" x2="66.0258" y2="58.7671" gradientUnits="userSpaceOnUse">
<stop stop-color="white"/>
<stop offset="1" stop-color="#00FCFF"/>
</linearGradient>
<linearGradient id="paint6_linear_441_1407" x1="43.3336" y1="6.93756" x2="66.0258" y2="58.7671" gradientUnits="userSpaceOnUse">
<stop stop-color="white"/>
<stop offset="1" stop-color="#00FCFF"/>
</linearGradient>
</defs>
</svg>
