<svg width="436" height="706" viewBox="0 0 436 706" fill="none" xmlns="http://www.w3.org/2000/svg">
    <g opacity="0.2">
        <path d="M272.324 132.387C272.547 132.387 272.764 132.313 272.941 132.177C273.118 132.042 273.245 131.851 273.303 131.636C273.36 131.42 273.345 131.192 273.26 130.986C273.174 130.78 273.023 130.608 272.83 130.496L6.54895 -23.2414C6.31631 -23.372 6.0415 -23.4056 5.78427 -23.3348C5.52704 -23.2641 5.30811 -23.0947 5.17502 -22.8635C5.0419 -22.6323 5.00537 -22.3579 5.07336 -22.0999C5.14133 -21.842 5.30832 -21.6212 5.53806 -21.4856L271.819 132.252C271.973 132.341 272.147 132.387 272.324 132.387Z" fill="#6CA6D9"/>
        <path d="M276.394 55.7891C271.269 58.75 262.214 55.0085 267.265 52.0947C272.401 49.1277 281.441 52.8774 276.394 55.7891Z" fill="#6CA6D9"/>
        <path d="M208.739 298.135C203.614 301.096 194.559 297.354 199.609 294.44C204.746 291.473 213.785 295.223 208.739 298.135Z" fill="#6CA6D9"/>
        <path d="M232.243 539.031C227.118 541.991 218.063 538.25 223.114 535.336C228.25 532.369 237.289 536.119 232.243 539.031Z" fill="#6CA6D9"/>
        <path d="M276.341 665.836C271.215 668.797 262.16 665.055 267.211 662.142C272.347 659.175 281.387 662.924 276.341 665.836Z" fill="#6CA6D9"/>
        <path d="M353.066 102.052C353.29 102.052 353.506 101.978 353.683 101.842C353.86 101.706 353.987 101.516 354.045 101.3C354.102 101.085 354.087 100.856 354.002 100.65C353.916 100.444 353.765 100.272 353.572 100.161L272.336 53.2596C272.103 53.129 271.828 53.0954 271.571 53.1662C271.314 53.2369 271.095 53.4063 270.962 53.6375C270.829 53.8687 270.792 54.1431 270.86 54.4011C270.928 54.659 271.095 54.8798 271.325 55.0154L352.561 101.917C352.715 102.006 352.889 102.053 353.066 102.052Z" fill="#6CA6D9"/>
        <path d="M429.105 345.656C485.078 345.656 541.052 333.355 583.663 308.752C625.139 284.805 647.98 252.907 647.98 218.932C647.98 184.957 625.139 153.058 583.663 129.112C498.442 79.9091 359.767 79.9091 274.547 129.112C233.073 153.06 210.23 184.957 210.23 218.932C210.23 252.907 233.07 284.805 274.547 308.752C317.157 333.355 373.131 345.656 429.105 345.656ZM429.105 94.2074C484.711 94.2074 540.318 106.428 582.65 130.868C623.472 154.437 645.954 185.712 645.954 218.932C645.954 252.153 623.473 283.427 582.65 306.998C497.986 355.882 360.224 355.877 275.558 306.998C234.737 283.427 212.256 252.153 212.256 218.932C212.256 185.712 234.737 154.437 275.558 130.868C317.892 106.428 373.498 94.2074 429.105 94.2074Z" fill="#6CA6D9"/>
        <path d="M422.201 93.978C422.379 93.9785 422.553 93.9318 422.707 93.8426L557.187 16.2005C557.303 16.1343 557.405 16.0459 557.487 15.9403C557.568 15.8347 557.628 15.7139 557.663 15.5851C557.698 15.4562 557.707 15.3217 557.69 15.1893C557.672 15.0569 557.629 14.9292 557.563 14.8136C557.496 14.698 557.407 14.5966 557.301 14.5155C557.195 14.4343 557.074 14.3749 556.945 14.3406C556.816 14.3063 556.681 14.2979 556.549 14.3158C556.417 14.3336 556.289 14.3775 556.174 14.4447L421.696 92.0868C421.502 92.1982 421.351 92.3703 421.266 92.5763C421.181 92.7823 421.165 93.0107 421.223 93.2262C421.281 93.4416 421.408 93.6321 421.584 93.7681C421.761 93.904 421.978 93.9778 422.201 93.978Z" fill="#6CA6D9"/>
        <path d="M228.353 538.161C228.576 538.161 228.793 538.087 228.969 537.951C229.146 537.816 229.273 537.625 229.33 537.41C229.388 537.195 229.373 536.966 229.288 536.761C229.202 536.555 229.052 536.383 228.859 536.271L119.107 472.905L352.839 337.961C353.07 337.826 353.239 337.605 353.308 337.347C353.377 337.088 353.34 336.813 353.207 336.581C353.073 336.349 352.853 336.18 352.594 336.109C352.336 336.039 352.061 336.075 351.828 336.207L116.575 472.028C116.421 472.117 116.293 472.244 116.204 472.398C116.114 472.552 116.067 472.727 116.067 472.905C116.067 473.083 116.114 473.258 116.204 473.412C116.293 473.565 116.421 473.693 116.575 473.782L227.848 538.025C228.001 538.115 228.176 538.162 228.353 538.161Z" fill="#6CA6D9"/>
        <path d="M468.597 66.7752C468.821 66.7755 469.038 66.7022 469.215 66.5664C469.392 66.4307 469.52 66.2402 469.578 66.0246C469.636 65.809 469.621 65.5803 469.535 65.374C469.45 65.1678 469.299 64.9955 469.105 64.884L319.153 -21.6904L382.501 -58.2639C382.73 -58.3995 382.897 -58.6203 382.965 -58.8783C383.033 -59.1362 382.997 -59.4106 382.864 -59.6418C382.73 -59.873 382.512 -60.0424 382.254 -60.1131C381.997 -60.1839 381.722 -60.1503 381.49 -60.0197L316.621 -22.5683C316.467 -22.4795 316.339 -22.3516 316.25 -22.1975C316.161 -22.0434 316.114 -21.8684 316.114 -21.6904C316.114 -21.5123 316.161 -21.3374 316.25 -21.1833C316.339 -21.0292 316.467 -20.9013 316.621 -20.8125L468.092 66.64C468.246 66.7283 468.42 66.7749 468.597 66.7752Z" fill="#6CA6D9"/>
        <path d="M204.176 297.309C204.354 297.31 204.528 297.263 204.681 297.173L236.222 278.963C236.454 278.829 236.624 278.608 236.694 278.349C236.764 278.089 236.727 277.813 236.593 277.581C236.459 277.348 236.238 277.178 235.979 277.109C235.72 277.039 235.444 277.075 235.211 277.209L203.67 295.419C203.478 295.531 203.327 295.703 203.241 295.909C203.156 296.115 203.141 296.343 203.199 296.558C203.256 296.773 203.383 296.964 203.56 297.1C203.736 297.235 203.953 297.309 204.176 297.309Z" fill="#6CA6D9"/>
        <path d="M269.874 663.875C270.097 663.875 270.313 663.801 270.49 663.666C270.667 663.53 270.794 663.339 270.851 663.124C270.909 662.909 270.894 662.68 270.809 662.475C270.723 662.269 270.572 662.097 270.379 661.985L118.195 574.119L204.028 524.562C204.26 524.427 204.429 524.206 204.498 523.948C204.567 523.689 204.53 523.413 204.397 523.181C204.263 522.949 204.043 522.78 203.784 522.71C203.526 522.64 203.25 522.675 203.017 522.808L115.663 573.242C115.509 573.33 115.381 573.458 115.292 573.612C115.202 573.766 115.156 573.941 115.156 574.119C115.156 574.296 115.202 574.471 115.292 574.625C115.381 574.779 115.509 574.907 115.663 574.995L269.369 663.739C269.522 663.829 269.696 663.876 269.874 663.875Z" fill="#6CA6D9"/>
    </g>
</svg>
