<svg width="1911" height="793" viewBox="0 0 1911 793" fill="none" xmlns="http://www.w3.org/2000/svg">
    <g opacity="0.6">
        <path d="M1313.4 431.906C1298.07 440.743 1297.9 455.124 1313.17 463.961L1628.38 646.874C1643.59 655.711 1668.46 655.711 1683.79 646.874L1899.4 522.583C1914.73 513.746 1914.84 499.423 1899.57 490.586L1584.36 307.672C1569.15 298.836 1544.34 298.836 1529.01 307.672L1313.4 431.964V431.906Z" fill="url(#paint0_linear_276_211)"/>
        <path opacity="0.3" d="M653.728 624.164C637.213 633.683 637.026 649.175 653.479 658.694L937.756 827.055C954.146 836.574 980.943 836.574 997.457 827.055L1229.78 693.163C1246.3 683.643 1246.42 668.214 1229.97 658.694L945.692 490.334C929.302 480.815 902.567 480.815 886.053 490.334L653.728 624.226V624.164Z" fill="url(#paint1_linear_276_211)"/>
        <path opacity="0.3" d="M704.182 104.02C692.064 111.007 691.927 122.378 703.999 129.365L953.229 273.991C965.256 280.978 984.92 280.978 997.039 273.991L1167.52 175.716C1179.64 168.729 1179.73 157.404 1167.66 150.417L918.429 5.79102C906.402 -1.19596 886.783 -1.19596 874.665 5.79102L704.182 104.065V104.02Z" fill="url(#paint2_linear_276_211)"/>
        <path d="M681.811 370.018C699.277 380.088 699.475 396.477 682.074 406.548L322.858 614.998C305.523 625.068 277.182 625.068 259.715 614.998L13.998 473.354C-3.46845 463.284 -3.60026 446.961 13.8003 436.89L373.017 228.44C390.351 218.37 418.627 218.37 436.094 228.44L681.811 370.084V370.018Z" fill="url(#paint3_linear_276_211)"/>
    </g>
    <defs>
        <linearGradient id="paint0_linear_276_211" x1="1104.19" y1="741.072" x2="1843.44" y2="288.121" gradientUnits="userSpaceOnUse">
            <stop stop-color="#08284F"/>
            <stop offset="1" stop-color="#062C6D"/>
        </linearGradient>
        <linearGradient id="paint1_linear_276_211" x1="446.269" y1="921.402" x2="1179.32" y2="476.418" gradientUnits="userSpaceOnUse">
            <stop stop-color="#0936DE"/>
            <stop offset="1" stop-color="#28B1FE"/>
        </linearGradient>
        <linearGradient id="paint2_linear_276_211" x1="538.768" y1="348.471" x2="1123.28" y2="-9.66778" gradientUnits="userSpaceOnUse">
            <stop stop-color="#0936DE"/>
            <stop offset="1" stop-color="#28B1FE"/>
        </linearGradient>
        <linearGradient id="paint3_linear_276_211" x1="920.222" y1="722.346" x2="77.77" y2="206.16" gradientUnits="userSpaceOnUse">
            <stop stop-color="#062150"/>
            <stop offset="1" stop-color="#051C4A"/>
        </linearGradient>
    </defs>
</svg>
