<svg width="32" height="32" viewBox="0 0 32 32" fill="none" xmlns="http://www.w3.org/2000/svg">
    <path d="M20.1663 13.625L14.1663 9.625C14.0532 9.54959 13.9218 9.50631 13.7861 9.49976C13.6504 9.49321 13.5155 9.52365 13.3957 9.58783C13.276 9.65201 13.1759 9.74751 13.1062 9.86414C13.0365 9.98076 12.9998 10.1141 13 10.25V18.25C12.9998 18.3859 13.0365 18.5192 13.1062 18.6359C13.1759 18.7525 13.276 18.848 13.3957 18.9122C13.5155 18.9763 13.6504 19.0068 13.7861 19.0002C13.9218 18.9937 14.0532 18.9504 14.1663 18.875L20.1663 14.875C20.2694 14.8066 20.354 14.7137 20.4125 14.6047C20.471 14.4956 20.5017 14.3738 20.5017 14.25C20.5017 14.1262 20.471 14.0044 20.4125 13.8953C20.354 13.7863 20.2694 13.6934 20.1663 13.625ZM14.5 16.8487V11.6512L18.3975 14.25L14.5 16.8487ZM25.75 4.5H5.75C5.02065 4.5 4.32118 4.78973 3.80546 5.30546C3.28973 5.82118 3 6.52065 3 7.25V21.25C3 21.9793 3.28973 22.6788 3.80546 23.1945C4.32118 23.7103 5.02065 24 5.75 24H25.75C26.4793 24 27.1788 23.7103 27.6945 23.1945C28.2103 22.6788 28.5 21.9793 28.5 21.25V7.25C28.5 6.52065 28.2103 5.82118 27.6945 5.30546C27.1788 4.78973 26.4793 4.5 25.75 4.5ZM27 21.25C27 21.5815 26.8683 21.8995 26.6339 22.1339C26.3995 22.3683 26.0815 22.5 25.75 22.5H5.75C5.41848 22.5 5.10054 22.3683 4.86612 22.1339C4.6317 21.8995 4.5 21.5815 4.5 21.25V7.25C4.5 6.91848 4.6317 6.60054 4.86612 6.36612C5.10054 6.1317 5.41848 6 5.75 6H25.75C26.0815 6 26.3995 6.1317 26.6339 6.36612C26.8683 6.60054 27 6.91848 27 7.25V21.25ZM20.5 27.25C20.5 27.4489 20.421 27.6397 20.2803 27.7803C20.1397 27.921 19.9489 28 19.75 28H11.75C11.5511 28 11.3603 27.921 11.2197 27.7803C11.079 27.6397 11 27.4489 11 27.25C11 27.0511 11.079 26.8603 11.2197 26.7197C11.3603 26.579 11.5511 26.5 11.75 26.5H19.75C19.9489 26.5 20.1397 26.579 20.2803 26.7197C20.421 26.8603 20.5 27.0511 20.5 27.25Z" fill="white"/>
</svg>
