<svg width="56" height="67" viewBox="0 0 56 67" fill="none" xmlns="http://www.w3.org/2000/svg">
<g filter="url(#filter0_d_441_1437)">
<path fill-rule="evenodd" clip-rule="evenodd" d="M28.2001 4C28.4671 4 28.6835 4.2164 28.6835 4.48334V6.0086H35.2783C36.6131 6.0086 37.695 7.0906 37.695 8.4253V10.5844C37.695 11.9191 36.613 13.0011 35.2783 13.0011H28.6835V17.5335C28.6835 17.8005 28.4671 18.0169 28.2001 18.0169C27.9332 18.0169 27.7168 17.8005 27.7168 17.5335V4.48334C27.7168 4.2164 27.9332 4 28.2001 4Z" fill="url(#paint0_linear_441_1437)"/>
<path fill-rule="evenodd" clip-rule="evenodd" d="M28.0175 18.1761C27.3312 18.1638 26.6877 18.3964 26.288 18.8297C25.4748 19.7115 24.4852 20.6618 23.3176 21.6282H32.7218C31.5295 20.675 30.5474 19.7457 29.7605 18.8868C29.3554 18.4446 28.7038 18.1884 28.0175 18.1761ZM33.9947 22.5949H22.0948C18.942 24.9763 14.7121 27.3534 9.38087 28.9493H47.2494C41.4968 27.1925 37.1453 24.8698 33.9947 22.5949ZM50.3835 29.916H42.2301V56.4183H50.3835V29.916ZM50.3835 57.3849H37.592C39.3833 58.9632 41.4701 60.2457 43.8858 61.0326H48.9335C49.7343 61.0326 50.3835 60.3834 50.3835 59.5826V57.3849ZM41.309 61.0326C39.2993 60.057 37.5459 58.7472 36.0268 57.2453C34.5412 55.7767 33.2784 54.1236 32.2162 52.4164C31.1311 50.6724 30.2729 47.664 29.5995 44.5249C28.9424 41.4624 28.4472 38.2036 28.0958 35.7143C27.7569 38.3107 27.2742 41.6052 26.6123 44.6406C26.2713 46.2044 25.8811 47.7073 25.4358 49.0146C24.9927 50.3154 24.4852 51.4525 23.8982 52.2647C22.5814 54.0865 21.1097 55.7684 19.6574 57.241C18.1761 58.7431 16.7109 60.0317 15.4447 61.0326H41.309ZM13.8493 61.0326C15.0558 60.1512 16.5646 58.9034 18.1375 57.3849H5.96668V59.5826C5.96668 60.3834 6.61588 61.0326 7.4167 61.0326H13.8493ZM5.96668 56.4183H14.0116V29.916H5.96668V56.4183ZM14.9782 29.916V56.4183H19.1105C20.4546 55.0436 21.8062 53.4929 23.0231 51.8246V29.916H14.9782ZM23.9898 29.916V50.0917C24.1727 49.6698 24.3498 49.2049 24.5207 48.7029C24.9501 47.4424 25.3313 45.9779 25.6678 44.4347C26.3408 41.3483 26.8285 37.9782 27.1676 35.3553C27.2359 34.8274 27.6525 34.518 28.0872 34.514C28.523 34.5099 28.9454 34.8132 29.0196 35.3421C29.3722 37.8548 29.8741 41.1966 30.5446 44.3221C31.0051 46.4682 31.5382 48.4772 32.1433 50.0403V29.916H23.9898ZM33.11 29.916V52.0223C34.0894 53.5802 35.2365 55.0795 36.5664 56.4183H41.2634V29.916H33.11ZM28.0348 17.2096C28.927 17.2256 29.8528 17.5565 30.4733 18.2338C31.4531 19.3033 32.7623 20.5004 34.4363 21.721C38.0933 24.3875 43.4871 27.1626 50.9798 28.9627L51.3502 29.0516V59.5826C51.3502 60.9173 50.2682 61.9993 48.9335 61.9993H7.4167C6.082 61.9993 5 60.9173 5 59.5826V29.0387L5.38583 28.9592C12.4675 27.5005 17.8685 24.6024 21.6391 21.7272C23.2489 20.4997 24.5603 19.2772 25.5774 18.1744C26.207 17.4917 27.1428 17.1936 28.0348 17.2096Z" fill="white" stroke="#0084FF" stroke-width="0.2"/>
</g>
<defs>
<filter id="filter0_d_441_1437" x="0.900391" y="0" width="54.5498" height="66.0996" filterUnits="userSpaceOnUse" color-interpolation-filters="sRGB">
<feFlood flood-opacity="0" result="BackgroundImageFix"/>
<feColorMatrix in="SourceAlpha" type="matrix" values="0 0 0 0 0 0 0 0 0 0 0 0 0 0 0 0 0 0 127 0" result="hardAlpha"/>
<feOffset/>
<feGaussianBlur stdDeviation="2"/>
<feComposite in2="hardAlpha" operator="out"/>
<feColorMatrix type="matrix" values="0 0 0 0 0.164706 0 0 0 0 0.964706 0 0 0 0 1 0 0 0 0.15 0"/>
<feBlend mode="normal" in2="BackgroundImageFix" result="effect1_dropShadow_441_1437"/>
<feBlend mode="normal" in="SourceGraphic" in2="effect1_dropShadow_441_1437" result="shape"/>
</filter>
<linearGradient id="paint0_linear_441_1437" x1="29.7934" y1="0.781008" x2="40.0288" y2="18.4807" gradientUnits="userSpaceOnUse">
<stop stop-color="white"/>
<stop offset="1" stop-color="#00FCFF"/>
</linearGradient>
</defs>
</svg>
