<svg width="68" height="67" viewBox="0 0 68 67" fill="none" xmlns="http://www.w3.org/2000/svg">
<g filter="url(#filter0_d_441_1469)">
<path d="M37.1605 16.0488H31.1976V10.9465H26.7715L34.2712 4L41.1562 10.9465H37.1605V16.0488Z" fill="url(#paint0_linear_441_1469)"/>
<path fill-rule="evenodd" clip-rule="evenodd" d="M26.3363 20.5666C25.5045 20.5666 24.8302 21.2409 24.8302 22.0727V35.2996H43.5288L43.5418 22.0741C43.5426 21.2418 42.868 20.5666 42.0357 20.5666H37.5398V26.0479C37.5398 27.4342 36.416 28.5581 35.0297 28.5581H33.206C31.8196 28.5581 30.6958 27.4342 30.6958 26.0479V20.5666H26.3363ZM31.6999 20.5666V26.0479C31.6999 26.8797 32.3742 27.554 33.206 27.554H35.0297C35.8615 27.554 36.5358 26.8797 36.5358 26.0479V20.5666H31.6999ZM44.5329 35.2996L44.5458 22.0751C44.5472 20.6878 43.4229 19.5625 42.0357 19.5625H26.3363C24.95 19.5625 23.8262 20.6863 23.8262 22.0727V35.2996H16.4852C15.0989 35.2996 13.9751 36.4235 13.9751 37.8098V51.0368H7.51016C6.12384 51.0368 5 52.1606 5 53.547V55.678C5 57.0643 6.12383 58.1882 7.51015 58.1882H10.9629V59.4894C10.9629 60.8757 12.0867 61.9995 13.4731 61.9995H17.2639C18.6502 61.9995 19.7741 60.8757 19.7741 59.4894V58.1882H29.5893V59.4894C29.5893 60.8757 30.7131 61.9995 32.0995 61.9995H36.1362C37.5225 61.9995 38.6464 60.8757 38.6464 59.4894V58.1882H48.4616V59.4894C48.4616 60.8757 49.5854 61.9995 50.9717 61.9995H55.0085C56.3948 61.9995 57.5186 60.8757 57.5186 59.4894V58.1882H60.664C62.0503 58.1882 63.1742 57.0643 63.1742 55.678V53.547C63.1742 52.1606 62.0503 51.0368 60.664 51.0368H54.3835V37.8098C54.3835 36.4235 53.2597 35.2996 51.8733 35.2996H44.5329ZM53.3794 51.0368V37.8098C53.3794 36.978 52.7051 36.3037 51.8733 36.3037H47.4985V41.8465C47.4985 43.2329 46.3747 44.3567 44.9883 44.3567H42.9802C41.5939 44.3567 40.4701 43.2329 40.4701 41.8465V36.3037H34.6813V51.0368H53.3794ZM33.6773 51.0368V36.3037H27.8271V41.8465C27.8271 43.2329 26.7032 44.3567 25.3169 44.3567H23.3088C21.9225 44.3567 20.7986 43.2329 20.7986 41.8465V36.3037H16.4852C15.6535 36.3037 14.9792 36.978 14.9792 37.8098V51.0368H33.6773ZM21.8027 36.3037V41.8465C21.8027 42.6783 22.477 43.3526 23.3088 43.3526H25.3169C26.1487 43.3526 26.823 42.6783 26.823 41.8465V36.3037H21.8027ZM41.4741 36.3037V41.8465C41.4741 42.6783 42.1484 43.3526 42.9802 43.3526H44.9883C45.8201 43.3526 46.4944 42.6783 46.4944 41.8465V36.3037H41.4741ZM56.5146 58.1882H49.4656V59.4894C49.4656 60.3212 50.1399 60.9955 50.9717 60.9955H55.0085C55.8403 60.9955 56.5146 60.3212 56.5146 59.4894V58.1882ZM37.6423 58.1882H30.5934V59.4894C30.5934 60.3212 31.2677 60.9955 32.0995 60.9955H36.1362C36.968 60.9955 37.6423 60.3212 37.6423 59.4894V58.1882ZM18.77 58.1882H11.967V59.4894C11.967 60.3212 12.6413 60.9955 13.4731 60.9955H17.2639C18.0957 60.9955 18.77 60.3212 18.77 59.4894V58.1882ZM7.51016 52.0409C6.67836 52.0409 6.00406 52.7152 6.00406 53.547V55.678C6.00406 56.5098 6.67836 57.1841 7.51015 57.1841H60.664C61.4958 57.1841 62.1701 56.5098 62.1701 55.678V53.547C62.1701 52.7152 61.4958 52.0409 60.664 52.0409H7.51016Z" fill="white" stroke="#0084FF" stroke-width="0.2"/>
</g>
<defs>
<filter id="filter0_d_441_1469" x="0.900391" y="0" width="66.374" height="66.0996" filterUnits="userSpaceOnUse" color-interpolation-filters="sRGB">
<feFlood flood-opacity="0" result="BackgroundImageFix"/>
<feColorMatrix in="SourceAlpha" type="matrix" values="0 0 0 0 0 0 0 0 0 0 0 0 0 0 0 0 0 0 127 0" result="hardAlpha"/>
<feOffset/>
<feGaussianBlur stdDeviation="2"/>
<feComposite in2="hardAlpha" operator="out"/>
<feColorMatrix type="matrix" values="0 0 0 0 0.164706 0 0 0 0 0.964706 0 0 0 0 1 0 0 0 0.15 0"/>
<feBlend mode="normal" in2="BackgroundImageFix" result="effect1_dropShadow_441_1469"/>
<feBlend mode="normal" in="SourceGraphic" in2="effect1_dropShadow_441_1469" result="shape"/>
</filter>
<linearGradient id="paint0_linear_441_1469" x1="29.7651" y1="1.23299" x2="36.0217" y2="19.378" gradientUnits="userSpaceOnUse">
<stop stop-color="white"/>
<stop offset="1" stop-color="#00FCFF"/>
</linearGradient>
</defs>
</svg>
