<svg width="83" height="67" viewBox="0 0 83 67" fill="none" xmlns="http://www.w3.org/2000/svg">
<g filter="url(#filter0_d_441_1507)">
<path fill-rule="evenodd" clip-rule="evenodd" d="M52.6194 15.0234V14.0957H53.6281V15.0234H57.9179V14.0957H58.9267V15.0234H63.5745C64.1316 15.0234 64.5832 15.475 64.5832 16.0321V41.015H77.4653C78.0224 41.015 78.4741 41.4666 78.4741 42.0237V60.992C78.4741 61.5491 78.0224 62.0007 77.4653 62.0007H9.37794C8.82084 62.0007 8.36923 61.5491 8.36923 60.992V34.5773L7.22004 35.3315C6.80445 35.6042 6.25212 35.5335 5.91861 35.1649L5.26082 34.4379C4.83363 33.9657 4.94537 33.2208 5.49229 32.8947L27.0469 20.0449C27.3634 19.8562 27.7575 19.8551 28.0751 20.042L40.0174 27.0713V16.03C40.0174 15.4701 40.4718 15.0234 41.0261 15.0234H52.6194ZM52.6194 16.0321H41.0261V27.6651L49.897 32.8865C50.4564 33.2158 50.5637 33.98 50.1166 34.4506L49.4732 35.1278C49.1464 35.4718 48.624 35.5416 48.2184 35.2953L47.3271 34.7542V41.015H52.6194V16.0321ZM53.6281 41.015H57.9179V37.5128H53.6281V41.015ZM53.6281 36.504H57.9179V34.7203H53.6281V36.504ZM53.6281 33.7116H57.9179V32.2858H53.6281V33.7116ZM53.6281 31.2771H57.9179V29.9229H53.6281V31.2771ZM53.6281 28.9142H57.9179V27.6317H53.6281V28.9142ZM53.6281 26.6229H57.9179V24.8392H53.6281V26.6229ZM53.6281 23.8305H57.9179V22.3331H53.6281V23.8305ZM53.6281 21.3244H57.9179V19.7554H53.6281V21.3244ZM53.6281 18.7467H57.9179V16.0321H53.6281V18.7467ZM58.9267 16.0321V41.015H63.5745V16.0321H58.9267ZM47.3271 42.0237V60.992H77.4653V42.0237H47.3271ZM46.3184 60.992V34.1532L27.563 23.6251L9.37794 33.9369V60.992H19.6824V46.0334C19.6824 45.4763 20.134 45.0247 20.6911 45.0247H34.2892C34.8463 45.0247 35.2979 45.4763 35.2979 46.0334V60.992H46.3184ZM34.2892 60.992V46.0334H20.6911V60.992H34.2892ZM27.5634 20.9113L6.00882 33.7611L6.66661 34.4882L8.61056 33.2125L27.0654 22.7476C27.3727 22.5734 27.7487 22.5726 28.0568 22.7455L47.0771 33.4223L48.7419 34.4331L49.3853 33.7558L27.5634 20.9113ZM11.9493 36.2239C11.9493 35.6668 12.401 35.2152 12.958 35.2152H25.5538C26.1108 35.2152 26.5625 35.6668 26.5625 36.2239V41.9458C26.5625 42.5029 26.1109 42.9545 25.5538 42.9545H12.958C12.401 42.9545 11.9493 42.5029 11.9493 41.9458V36.2239ZM25.5538 36.2239H12.958V41.9458H25.5538V36.2239ZM28.7759 36.2239C28.7759 35.6668 29.2275 35.2152 29.7846 35.2152H42.3803C42.9374 35.2152 43.389 35.6668 43.389 36.2239V41.9458C43.389 42.5029 42.9374 42.9545 42.3803 42.9545H29.7846C29.2275 42.9545 28.7759 42.5029 28.7759 41.9458V36.2239ZM42.3803 36.2239H29.7846V41.9458H42.3803V36.2239ZM49.6837 46.6062C49.6837 46.0491 50.1353 45.5975 50.6924 45.5975H73.1692C73.7263 45.5975 74.1779 46.0491 74.1779 46.6062V52.3281C74.1779 52.8852 73.7263 53.3368 73.1692 53.3368H50.6924C50.1353 53.3368 49.6837 52.8852 49.6837 52.3281V46.6062ZM56.9871 46.6062H50.6924V52.3281H56.9871V46.6062ZM57.9958 46.6062V52.3281H65.7226V46.6062H57.9958ZM66.7313 46.6062V52.3281H73.1692V46.6062H66.7313Z" fill="white" stroke="#0084FF" stroke-width="0.2"/>
<path d="M73.4772 8.65414V41.0195C73.4772 41.2957 73.2533 41.5195 72.9772 41.5195H67.7478C67.4716 41.5195 67.2478 41.2957 67.2478 41.0195V8.65414L65.9553 4.65372C65.851 4.33082 66.0918 4 66.4311 4H74.5392C74.8901 4 75.1319 4.35199 75.0059 4.67949L73.4772 8.65414Z" fill="url(#paint0_linear_441_1507)"/>
</g>
<defs>
<filter id="filter0_d_441_1507" x="0.900391" y="0" width="81.6738" height="66.1016" filterUnits="userSpaceOnUse" color-interpolation-filters="sRGB">
<feFlood flood-opacity="0" result="BackgroundImageFix"/>
<feColorMatrix in="SourceAlpha" type="matrix" values="0 0 0 0 0 0 0 0 0 0 0 0 0 0 0 0 0 0 127 0" result="hardAlpha"/>
<feOffset/>
<feGaussianBlur stdDeviation="2"/>
<feComposite in2="hardAlpha" operator="out"/>
<feColorMatrix type="matrix" values="0 0 0 0 0.164706 0 0 0 0 0.964706 0 0 0 0 1 0 0 0 0.15 0"/>
<feBlend mode="normal" in2="BackgroundImageFix" result="effect1_dropShadow_441_1507"/>
<feBlend mode="normal" in="SourceGraphic" in2="effect1_dropShadow_441_1507" result="shape"/>
</filter>
<linearGradient id="paint0_linear_441_1507" x1="67.726" y1="-4.61641" x2="95.9691" y2="12.7973" gradientUnits="userSpaceOnUse">
<stop stop-color="white"/>
<stop offset="1" stop-color="#00FCFF"/>
</linearGradient>
</defs>
</svg>
