<svg width="67" height="67" viewBox="0 0 67 67" fill="none" xmlns="http://www.w3.org/2000/svg">
<g filter="url(#filter0_d_441_1491)">
<path fill-rule="evenodd" clip-rule="evenodd" d="M27.5348 6.79276C29.8216 4.94058 32.3236 4.20972 35.0114 4.27776C36.1874 4.30753 37.3399 4.85024 38.4082 5.64283C39.481 6.43874 40.5104 7.51728 41.4495 8.69063C43.2305 10.9161 44.731 13.5394 45.6244 15.388C47.7505 15.3656 49.4948 15.5799 51.2089 15.9013C55.4313 16.693 58.5125 17.9006 60.8427 20.8476C62.0716 22.4018 62.3771 24.6365 62.0133 26.8617C61.6679 28.9742 60.7098 31.1525 59.2536 32.8814C59.7739 33.6906 60.4243 34.9076 60.9218 36.2934C61.4902 37.8765 61.8778 39.7314 61.5975 41.469C61.2511 43.617 60.1457 45.351 59.0091 46.5979C57.8792 47.8374 56.6816 48.6355 56.0816 48.898C55.7711 49.0339 55.1179 49.2144 54.3087 49.4033C53.4819 49.5963 52.4468 49.8082 51.3415 50.0013C49.3082 50.3566 46.996 50.6558 45.2984 50.6453C44.7547 52.5137 43.6198 55.1279 41.834 57.3761C39.9201 59.7855 37.2152 61.8245 33.6517 61.9903C30.254 62.1483 27.5502 60.2627 25.5523 57.8648C23.6666 55.6017 22.3574 52.8251 21.6208 50.668C18.8538 50.8755 14.8983 50.7171 11.5462 49.5774C9.78484 48.9786 8.15788 48.098 6.96337 46.8264C5.75878 45.544 5.01405 43.8839 5.00014 41.7836L5 41.7618L5.00172 41.7402C5.23974 38.7517 5.77596 36.6275 6.36331 35.1781C6.65695 34.4535 6.96541 33.8925 7.25969 33.4752C7.42447 33.2415 7.59066 33.0445 7.75391 32.8878C7.71814 32.8277 7.67705 32.7603 7.63009 32.6833C7.59965 32.6333 7.56675 32.5793 7.53125 32.5207C7.2811 32.1076 6.94423 31.5319 6.61749 30.7935C5.96237 29.3131 5.35433 27.1937 5.52307 24.3927C5.70293 21.4069 8.20306 19.2982 10.5853 17.9711C11.7961 17.2965 13.0224 16.7975 14.0047 16.4665C14.4962 16.301 14.9305 16.1762 15.2753 16.0922C15.6011 16.0128 15.8931 15.9579 16.0754 15.9579C16.1773 15.9579 16.3283 15.9338 16.6157 15.8804C16.6392 15.876 16.6633 15.8715 16.688 15.8669C16.9492 15.8181 17.2826 15.7559 17.7016 15.6973C18.5672 15.5764 19.7878 15.4723 21.5545 15.5153C23.3309 11.415 25.3177 8.58844 27.5348 6.79276ZM22.6376 15.5574C24.0261 15.6305 25.6995 15.7878 27.723 16.0737C28.0937 15.3516 28.7059 14.4172 29.5207 13.5997C30.4702 12.6471 31.7439 11.8055 33.273 11.7173C34.8228 11.6279 36.2219 12.429 37.3032 13.3761C38.2589 14.2132 39.0228 15.2128 39.4976 15.9804C41.4133 15.6644 43.0543 15.4885 44.5159 15.4202C43.6318 13.6571 42.2587 11.3162 40.6619 9.32089C39.7537 8.1861 38.7856 7.17884 37.8072 6.45292C36.8243 5.72369 35.8718 5.30856 34.9859 5.28613C32.5187 5.22367 30.2556 5.88713 28.1696 7.5766C26.1845 9.1844 24.3337 11.743 22.6376 15.5574ZM38.4174 16.1682C37.9854 15.5313 37.3717 14.777 36.6386 14.1348C35.6415 13.2615 34.4958 12.6571 33.3311 12.7243C32.1457 12.7927 31.0921 13.452 30.2351 14.3118C29.6123 14.9367 29.1194 15.6422 28.784 16.232C30.8379 16.6625 32.2681 17.1282 32.8838 17.369C34.9543 16.861 36.782 16.4666 38.4174 16.1682ZM31.1198 17.8484C30.4538 17.6547 29.5991 17.4335 28.579 17.2197C28.3635 17.1866 28.1518 17.1548 27.9438 17.1245C25.4057 16.7541 23.4221 16.5862 21.8658 16.5335C19.9671 16.4691 18.7026 16.5759 17.8412 16.6963C17.4459 16.7516 17.1331 16.8099 16.8722 16.8586C16.8477 16.8632 16.8237 16.8677 16.8001 16.8721C16.5413 16.9202 16.2898 16.9666 16.0754 16.9666C16.0755 16.9666 16.0744 16.9666 16.0719 16.9667L16.0615 16.9673C16.0523 16.9679 16.0401 16.969 16.0245 16.9708C15.9931 16.9744 15.9524 16.9803 15.902 16.989C15.8011 17.0066 15.6709 17.034 15.5141 17.0722C15.201 17.1485 14.7946 17.2648 14.3267 17.4225C13.3902 17.738 12.2226 18.2136 11.0762 18.8523C8.74388 20.1516 6.67633 22.0232 6.52993 24.4534C6.3724 27.0684 6.93892 29.0272 7.5399 30.3853C7.84122 31.0662 8.1528 31.5998 8.39408 31.9982C8.4238 32.0473 8.45319 32.0955 8.48179 32.1424C8.56581 32.2803 8.64293 32.4068 8.7011 32.5105C8.74073 32.5811 8.78014 32.656 8.81066 32.7287C8.81897 32.7485 8.8292 32.7739 8.83921 32.8037C9.79215 33.9278 11.3281 35.5816 13.0889 37.2005C15.0801 39.0312 17.3113 40.7722 19.2886 41.681C18.943 39.8868 18.646 37.9718 18.4657 36.0694C17.6579 35.5444 16.6488 34.7689 15.6792 33.8185C13.754 31.9313 11.8393 29.2089 12.2481 26.31C12.5787 23.9659 14.7211 22.6306 16.9821 21.8903C19.2248 21.156 21.7942 20.9319 23.5275 20.9474C25.9168 19.7434 28.5111 18.6339 31.1198 17.8484ZM21.2513 22.0619C19.9747 22.1865 18.5721 22.4311 17.2959 22.8489C15.1001 23.5679 13.4906 24.7232 13.2469 26.4509C13.1956 26.8148 13.189 27.1793 13.2214 27.5422C14.9442 26.1738 17.8815 23.8725 21.2513 22.0619ZM13.4394 28.6575C13.8781 30.129 14.8762 31.5383 16.0317 32.7411C16.3155 32.4729 16.6715 32.1653 17.024 31.8708C17.5629 31.4206 18.1258 30.9745 18.4885 30.6945C19.3013 29.9334 21.5969 28.1194 24.5969 26.6457C26.9959 25.4672 30.9692 24.0867 33.9316 23.1406C35.6361 22.5963 37.0288 22.1885 37.6169 22.0414C38.3328 21.8625 39.6431 21.638 41.1393 21.464C43.0597 21.2406 45.3387 21.0942 47.1131 21.2452C48.691 21.3795 50.2043 21.7318 51.4477 22.197C52.6708 22.6546 53.7031 23.2476 54.2459 23.9067C54.8435 24.6323 54.8655 25.7015 54.7737 26.5109C54.7077 27.0931 54.5702 27.6413 54.4485 28.008C55.1766 28.6975 56.1688 29.6452 57.0411 30.4959C57.5284 30.971 57.9803 31.4178 58.3284 31.7732C58.4333 31.8803 58.5297 31.9799 58.6153 32.0702C59.8743 30.5136 60.711 28.5757 61.0179 26.6989C61.3555 24.6337 61.0412 22.7249 60.0515 21.4732C57.9445 18.8086 55.153 17.6671 51.023 16.8927C49.2738 16.5647 47.5105 16.3544 45.3194 16.4018C43.6414 16.4381 41.705 16.6258 39.3249 17.0322C37.4946 17.3447 35.4031 17.7864 32.9661 18.3875C29.8827 19.1481 26.7387 20.4515 23.8726 21.9032L23.8599 21.9096L23.8468 21.9153C19.5683 23.7872 15.6786 26.8781 13.6399 28.4982C13.5709 28.553 13.5041 28.6061 13.4394 28.6575ZM53.5969 27.3291C53.6645 27.0686 53.732 26.7447 53.7714 26.3972C53.8591 25.6242 53.7833 24.9316 53.4673 24.5479C53.0965 24.0977 52.2692 23.5814 51.0942 23.1418C50.1239 22.7787 48.9641 22.4857 47.7348 22.3262L48.0302 23.5077C48.1051 23.5541 48.1903 23.6087 48.2808 23.6675C48.488 23.8021 48.7533 23.9788 49.0551 24.1823C49.659 24.5897 50.4153 25.109 51.1584 25.6234C51.9016 26.1379 52.6328 26.6485 53.1867 27.0389C53.3374 27.1452 53.4753 27.2427 53.5969 27.3291ZM47.0937 23.9206L46.6696 22.2244C45.2168 22.1375 43.4385 22.2354 41.8148 22.4043C42.0785 23.5991 42.38 25.1874 42.6408 26.9595C43.1563 30.4621 43.5225 34.7442 43.0945 38.132C44.9764 37.0673 46.5588 36.0266 47.6369 35.1852C47.7212 34.2838 47.6827 32.5751 47.5834 30.6478C47.4594 28.2433 47.2459 25.5773 47.0937 23.9206ZM48.6886 34.2606C49.1883 33.8135 49.7206 33.3369 50.0777 33.0163C49.611 32.5515 49.1267 32.1114 48.6421 31.7063C48.6803 32.6543 48.6999 33.5372 48.6886 34.2606ZM48.5784 30.362C49.45 31.0328 50.3446 31.8266 51.1705 32.6904C52.2561 33.8259 53.2367 35.0967 53.8853 36.3817C54.5306 37.6602 54.8744 39.0079 54.5951 40.2652C54.3099 41.5494 53.4 42.6309 51.7711 43.4049C50.1744 44.1637 47.8588 44.644 44.6564 44.7603C41.7453 46.1187 38.6808 47.3773 36.2751 48.3C37.2074 48.4895 38.2894 48.6988 39.3933 48.8946C41.4635 49.2617 43.5804 49.5754 44.9368 49.6286C46.5435 49.6916 48.9781 49.3903 51.1678 49.0077C52.2566 48.8174 53.2729 48.6093 54.0794 48.421C54.9036 48.2286 55.4657 48.0665 55.6773 47.9739C56.1213 47.7797 57.2075 47.077 58.2636 45.9184C59.313 44.7673 60.2956 43.2061 60.6017 41.3084C60.8435 39.8095 60.5133 38.1407 59.9724 36.6342C59.4336 35.1334 58.7042 33.8448 58.206 33.1286L58.2017 33.1225L58.1976 33.1162C58.1979 33.1166 58.1862 33.0998 58.1521 33.0592C58.1208 33.022 58.0787 32.9745 58.0257 32.9166C57.9197 32.8009 57.7782 32.6529 57.6079 32.4791C57.2677 32.1318 56.8222 31.6912 56.3369 31.218C55.3711 30.2762 54.2559 29.2132 53.5198 28.5181C53.5196 28.5179 53.5193 28.5177 53.5191 28.5175C53.5089 28.5096 53.4929 28.4975 53.47 28.4805C53.4245 28.4468 53.3597 28.3996 53.2769 28.3401C53.1119 28.2214 52.8814 28.0578 52.6056 27.8634C52.0543 27.4749 51.3255 26.9659 50.5842 26.4527C49.8428 25.9394 49.0901 25.4227 48.491 25.0186C48.3837 24.9462 48.2816 24.8776 48.1854 24.8133C48.3198 26.3817 48.4755 28.4395 48.5784 30.362ZM34.3391 47.9492C36.873 47.021 40.7258 45.4858 44.3223 43.803C46.2997 42.8778 48.327 41.7124 50.0101 40.5798C51.5626 39.535 52.7778 38.5475 53.4048 37.823C53.2951 37.5016 53.1543 37.1721 52.9848 36.8362C52.459 35.7945 51.6774 34.7353 50.7755 33.7454C50.1762 34.2835 49.0584 35.2834 48.4505 35.8268L48.4402 35.8359L48.4294 35.8446C47.13 36.8841 45.0873 38.2095 42.6778 39.5159C40.0355 40.9485 36.9309 42.3697 33.8496 43.3721C31.3356 44.1899 28.8116 44.7373 26.5552 44.7709C26.8166 45.5322 27.1861 46.4515 27.5502 47.2805C27.7871 47.82 28.0182 48.3132 28.2108 48.691C28.2991 48.8642 28.3773 49.0092 28.4428 49.1216C29.551 48.9136 32.6965 48.2816 34.3391 47.9492ZM27.7865 49.9547C27.7164 49.8679 27.6503 49.7629 27.5933 49.667C27.5092 49.5253 27.4139 49.3487 27.3122 49.1491C27.1082 48.7491 26.8687 48.2374 26.6266 47.6861C26.1445 46.5884 25.638 45.3016 25.3786 44.3992L25.3749 44.3865L25.3719 44.3736C25.0709 43.0739 24.7442 41.206 24.4784 39.1367C24.211 37.0555 24.0038 34.7591 23.947 32.6191C23.9027 30.9463 23.9495 29.348 24.1389 28.016C21.8289 29.2606 20.0657 30.6326 19.3107 31.3093C19.2548 32.7162 19.3117 34.2136 19.4475 35.7319C19.6501 37.9964 20.027 40.2967 20.4598 42.3962C20.6224 43.1854 20.7929 43.9457 20.9648 44.6644C21.4173 46.5569 21.8787 48.1571 22.2316 49.2342L22.2353 49.2453L22.2384 49.2566C22.3015 49.4845 22.3736 49.7258 22.4547 49.9783C23.1363 52.0992 24.435 54.9481 26.3272 57.2191C28.2202 59.491 30.6485 61.1202 33.6049 60.9827C36.7755 60.8352 39.2365 59.0244 41.0441 56.7487C42.6617 54.7123 43.7213 52.3439 44.2595 50.5981C42.9562 50.4965 41.2488 50.2416 39.5792 49.9514C39.0716 50.8768 38.263 52.0936 37.2858 53.0929C36.2118 54.1913 34.804 55.1584 33.2945 54.9383C31.8745 54.7312 30.6559 53.8015 29.7324 52.8008C28.8276 51.8204 28.1506 50.7119 27.7865 49.9547ZM38.5269 49.7632C36.9471 49.4732 35.4689 49.1694 34.4724 48.9514C32.9766 49.2539 30.2901 49.7939 28.9737 50.0472C29.3263 50.6703 29.84 51.4301 30.4737 52.1168C31.3327 53.0475 32.3544 53.7818 33.4401 53.9401C34.4363 54.0854 35.5298 53.446 36.5646 52.3877C37.3644 51.5698 38.0516 50.5794 38.5269 49.7632ZM18.2819 32.1436C18.083 32.304 17.875 32.4743 17.6707 32.6449C17.3233 32.9352 17 33.2159 16.7525 33.4478C17.3042 33.958 17.8574 34.4049 18.3614 34.7722C18.3033 33.8832 18.2743 33.0023 18.2819 32.1436ZM25.2597 27.4455C24.984 28.7913 24.9026 30.6032 24.9554 32.5924C25.0087 34.6041 25.1982 36.7661 25.4466 38.7538C26.4651 39.3088 27.9945 40.1002 29.5279 40.8094C31.1301 41.5505 32.6804 42.1748 33.6597 42.3729C36.5482 41.4229 39.4653 40.0961 41.9842 38.7439C42.5444 35.4912 42.2114 31.0585 41.6769 27.3402C40.8618 26.8613 39.4966 26.2526 38.056 25.6659C36.5868 25.0676 35.0768 24.507 34.0773 24.1531C31.2264 25.0675 27.5615 26.3468 25.2597 27.4455ZM35.6629 23.6556C36.505 23.968 37.4788 24.3418 38.4364 24.7318C39.5334 25.1785 40.6305 25.6549 41.4858 26.0898C41.2612 24.7032 41.0199 23.4733 40.8073 22.5203C39.5256 22.6821 38.4496 22.873 37.8615 23.02C37.4726 23.1172 36.6849 23.3425 35.6629 23.6556ZM31.9085 42.9017C31.0371 42.5872 30.0592 42.1665 29.1044 41.7249C27.8458 41.1428 26.5921 40.5073 25.6112 39.9873C25.8183 41.4444 26.0495 42.7521 26.269 43.7636C27.9835 43.7724 29.91 43.4487 31.9085 42.9017ZM53.6681 39.0056C52.9084 39.7397 51.8176 40.5793 50.5732 41.4166C49.4859 42.1483 48.2599 42.8926 46.9939 43.5805C48.8907 43.3643 50.3087 42.9831 51.3381 42.4939C52.7587 41.8188 53.4082 40.9568 53.6104 40.0464C53.6834 39.718 53.7012 39.3699 53.6681 39.0056ZM19.5293 42.8761C17.4325 42.0779 15.0961 40.339 13.0369 38.5127C12.9304 39.3392 13.0731 40.36 13.7552 41.3129C14.6123 42.5102 16.3844 43.6878 19.8176 44.189C19.72 43.7628 19.6235 43.3244 19.5293 42.8761ZM20.0664 45.2409C16.2248 44.7522 14.0449 43.4506 12.935 41.9001C11.8956 40.4481 11.8541 38.8601 12.1696 37.7241C10.6214 36.2822 9.25981 34.8323 8.32296 33.7513C8.25058 33.8333 8.17038 33.934 8.08407 34.0564C7.84206 34.3997 7.56842 34.89 7.29816 35.5569C6.7591 36.8872 6.24164 38.8997 6.00899 41.7984C6.02602 43.6288 6.66858 45.0392 7.69858 46.1357C8.7427 47.2473 10.2047 48.0559 11.8708 48.6224C14.9615 49.6732 18.6436 49.8534 21.3094 49.6787C21.2957 49.6311 21.2824 49.5839 21.2694 49.5372C20.9292 48.4976 20.4962 47.002 20.0664 45.2409ZM7.88481 33.1303C7.88469 33.1302 7.88387 33.1281 7.88269 33.1242C7.88434 33.1285 7.88494 33.1304 7.88481 33.1303Z" fill="white" stroke="#0084FF" stroke-width="0.2"/>
<circle cx="17.6086" cy="7.53043" r="3.53043" fill="url(#paint0_linear_441_1491)"/>
<circle cx="34.4758" cy="33.1037" r="4.95919" fill="url(#paint1_linear_441_1491)"/>
<circle cx="49.887" cy="52.9221" r="2.52174" fill="url(#paint2_linear_441_1491)"/>
<circle cx="10.0437" cy="50.3991" r="3.02608" fill="url(#paint3_linear_441_1491)"/>
<circle cx="50.8959" cy="11.5658" r="1.51304" fill="url(#paint4_linear_441_1491)"/>
</g>
<defs>
<filter id="filter0_d_441_1491" x="0.900391" y="0" width="65.3564" height="66.0996" filterUnits="userSpaceOnUse" color-interpolation-filters="sRGB">
<feFlood flood-opacity="0" result="BackgroundImageFix"/>
<feColorMatrix in="SourceAlpha" type="matrix" values="0 0 0 0 0 0 0 0 0 0 0 0 0 0 0 0 0 0 127 0" result="hardAlpha"/>
<feOffset/>
<feGaussianBlur stdDeviation="2"/>
<feComposite in2="hardAlpha" operator="out"/>
<feColorMatrix type="matrix" values="0 0 0 0 0.164706 0 0 0 0 0.964706 0 0 0 0 1 0 0 0 0.15 0"/>
<feBlend mode="normal" in2="BackgroundImageFix" result="effect1_dropShadow_441_1491"/>
<feBlend mode="normal" in="SourceGraphic" in2="effect1_dropShadow_441_1491" result="shape"/>
</filter>
<linearGradient id="paint0_linear_441_1491" x1="15.5475" y1="2.37847" x2="19.7357" y2="12.5521" gradientUnits="userSpaceOnUse">
<stop stop-color="white"/>
<stop offset="1" stop-color="#00FCFF"/>
</linearGradient>
<linearGradient id="paint1_linear_441_1491" x1="31.5807" y1="25.8668" x2="37.4637" y2="40.1576" gradientUnits="userSpaceOnUse">
<stop stop-color="white"/>
<stop offset="1" stop-color="#00FCFF"/>
</linearGradient>
<linearGradient id="paint2_linear_441_1491" x1="48.4148" y1="49.2422" x2="51.4063" y2="56.509" gradientUnits="userSpaceOnUse">
<stop stop-color="white"/>
<stop offset="1" stop-color="#00FCFF"/>
</linearGradient>
<linearGradient id="paint3_linear_441_1491" x1="8.27708" y1="45.9832" x2="11.8669" y2="54.7034" gradientUnits="userSpaceOnUse">
<stop stop-color="white"/>
<stop offset="1" stop-color="#00FCFF"/>
</linearGradient>
<linearGradient id="paint4_linear_441_1491" x1="50.0126" y1="9.35779" x2="51.8075" y2="13.7179" gradientUnits="userSpaceOnUse">
<stop stop-color="white"/>
<stop offset="1" stop-color="#00FCFF"/>
</linearGradient>
</defs>
</svg>
