<svg width="68" height="67" viewBox="0 0 68 67" fill="none" xmlns="http://www.w3.org/2000/svg">
<g filter="url(#filter0_d_441_1430)">
<path fill-rule="evenodd" clip-rule="evenodd" d="M55.0277 31.2541C57.582 31.3804 60.1796 32.0625 62.022 33.3692C62.6058 33.7832 63.0252 34.442 63.026 35.2156V35.218L63.0294 35.577L63.0758 41.5116C63.0888 41.5756 63.089 41.641 63.0773 41.704L63.1203 47.1961C63.1813 47.3295 63.1794 47.4791 63.1235 47.6073L63.1657 53.0004L63.1657 58.8002C63.1657 59.0309 63.0534 59.2472 62.8646 59.3799C57.9578 62.8301 51.4261 62.8771 46.4701 59.498L46.3046 59.3851C46.1098 59.2523 45.9933 59.0318 45.9933 58.7961V53.0004L45.857 35.5869L45.857 35.5856L45.8536 35.2583L45.8536 35.2531C45.8536 34.9577 45.9209 34.6639 46.031 34.3956C46.4137 33.4629 47.3213 32.9255 48.0213 32.5493C49.8759 31.5528 52.4738 31.1278 55.0277 31.2541ZM46.8725 36.447L46.9106 41.3163C51.5659 43.9893 57.456 44.0486 62.0657 41.3341L62.0275 36.4514C57.3476 38.977 51.5765 38.9208 46.8725 36.447ZM62.0181 35.2986L62.0174 35.2227L62.0173 35.218C62.0173 34.8264 61.8054 34.4522 61.4385 34.192C59.8043 33.033 57.4152 32.3821 54.9779 32.2616C52.5401 32.141 50.1412 32.5553 48.4988 33.4378C47.7772 33.8256 47.1941 34.2181 46.9642 34.7784C46.8964 34.9437 46.8627 35.1067 46.8623 35.2507L46.8623 35.2531L46.8627 35.2909C51.5196 37.9607 57.4098 38.0167 62.0181 35.2986ZM62.0747 42.4866C57.3933 45.0088 51.6222 44.9494 46.9196 42.4724L46.9557 47.0897C51.6049 49.7756 57.4951 49.8483 62.1112 47.1476L62.0747 42.4866ZM62.1202 48.2984C57.4334 50.808 51.6622 50.7363 46.9648 48.2474L46.9999 52.7322C51.5828 55.8278 57.5816 55.8225 62.1549 52.7368L62.1202 48.2984ZM62.157 53.9338C57.512 56.768 51.6565 56.7732 47.002 53.9322V58.6398L47.0383 58.6646C51.6044 61.7778 57.6087 61.7638 62.157 58.6433V53.9338ZM34.6866 37.1775C37.0964 37.3558 39.5086 38.032 41.2485 39.2659C41.8319 39.6796 42.2512 40.3378 42.2525 41.1108L42.2526 41.1147L42.2594 41.6085L42.2987 47.2067C42.3534 47.3339 42.3517 47.4747 42.3014 47.5972L42.3394 53.0003L42.3394 58.8002C42.3394 59.0309 42.2271 59.2472 42.0383 59.3799C37.1314 62.83 30.5998 62.8771 25.6438 59.498L25.4783 59.3851C25.2835 59.2523 25.167 59.0318 25.167 58.7961V53.0003L25.0871 41.6195L25.087 41.6155L25.0801 41.1498C25.0801 40.317 25.5331 39.6757 26.079 39.204C26.6222 38.7347 27.3079 38.387 27.903 38.1304C29.7962 37.314 32.2748 36.999 34.6866 37.1775ZM26.1018 42.4769L26.1342 47.0924C30.7842 49.7766 36.6743 49.8474 41.2895 47.1448L41.2568 42.4821C36.5767 45.0074 30.8056 44.951 26.1018 42.4769ZM41.2468 41.3297L41.2439 41.1216L41.2439 41.1147C41.2439 40.7231 41.032 40.3489 40.665 40.0887C39.1235 38.9954 36.9089 38.3534 34.6122 38.1834C32.3176 38.0136 30.0099 38.3204 28.3024 39.0567C27.7379 39.3001 27.1645 39.5992 26.7385 39.9672C26.3163 40.332 26.09 40.7176 26.0888 41.1464L26.0914 41.3205C30.7481 43.9908 36.6383 44.0473 41.2468 41.3297ZM41.2976 48.2964C36.6114 50.8074 30.8402 50.737 26.1423 48.2494L26.1738 52.7323C30.7568 55.8278 36.7556 55.8224 41.3288 52.7366L41.2976 48.2964ZM41.3307 53.9338C36.6856 56.7679 30.8302 56.7732 26.1756 53.9321V58.6397L26.212 58.6645C30.7781 61.7778 36.7824 61.7638 41.3307 58.6433V53.9338ZM14.1741 42.981C16.7284 43.1073 19.3259 43.7894 21.1684 45.096C21.7523 45.5101 22.1717 46.1691 22.1724 46.9428V46.9448L22.2169 53.033C22.2738 53.1625 22.2721 53.3064 22.2198 53.431L22.2515 57.7698C22.2575 58.5891 21.8664 59.3974 21.1265 59.8388C16.292 62.7229 10.1814 62.5706 5.47596 59.3624C5.23345 59.197 5.08748 58.9232 5.08533 58.6297L5.00001 46.9836L5 46.9799C5 46.6845 5.06732 46.3907 5.17739 46.1224C5.56007 45.1897 6.46766 44.6523 7.16771 44.2761C9.02223 43.2796 11.6201 42.8546 14.1741 42.981ZM21.2077 52.9759L21.1701 47.815C16.4917 50.3424 10.7206 50.3166 6.01504 47.8447L6.05223 52.9215C10.7019 55.6064 16.5922 55.6779 21.2077 52.9759ZM6.06071 54.0788C10.7584 56.5669 16.5297 56.6377 21.2162 54.1273L21.2428 57.7771C21.2465 58.2818 21.0069 58.7356 20.6097 58.9725C16.1274 61.6465 10.466 61.5158 6.09355 58.5624L6.06071 54.0788ZM6.04327 46.7106C6.05977 46.6434 6.0822 46.5745 6.1106 46.5053C6.3405 45.945 6.9236 45.5524 7.64516 45.1647C9.28761 44.2821 11.6865 43.8679 14.1242 43.9884C16.5616 44.109 18.9507 44.7599 20.5849 45.9188C20.8677 46.1194 21.0584 46.3877 21.131 46.6794C16.5378 49.3747 10.6822 49.351 6.04327 46.7106Z" fill="white" stroke="#0084FF" stroke-width="0.2"/>
<path d="M25.3491 15.3824L8.28095 32.2775C7.89269 32.6619 7.88472 33.2867 8.26306 33.6808L9.8596 35.3438C10.2471 35.7475 10.8904 35.7546 11.2868 35.3597L27.4281 19.277C27.5579 19.1478 27.767 19.1456 27.8995 19.272L35.2887 26.328C35.7086 26.7289 36.2271 27.0114 36.7915 27.1469C37.2478 27.2564 37.7223 27.2669 38.183 27.1777L38.2907 27.1569C39.0215 27.0155 39.6945 26.6621 40.2259 26.1409L54.7869 11.8588C55.1032 11.5485 55.637 11.7727 55.637 12.2158V16.9257C55.637 17.4779 56.0847 17.9257 56.637 17.9257H58.9409C59.245 17.9257 59.4914 17.6792 59.4914 17.3752V5.85755C59.4914 5.38326 59.31 4.92693 58.9843 4.58211C58.6334 4.21056 58.1449 4 57.6339 4H46.2568C45.9781 4 45.7523 4.22587 45.7523 4.5045V6.97876C45.7523 7.53104 46.2 7.97876 46.7523 7.97876H51.2997C51.7482 7.97876 51.9699 8.5236 51.6488 8.83672L37.8333 22.3097C37.639 22.4992 37.329 22.4991 37.1348 22.3094L30.0634 15.4012C29.6303 14.9781 29.0925 14.6777 28.5051 14.5308L28.4785 14.5242C27.9423 14.3901 27.381 14.3926 26.846 14.5313C26.2806 14.6779 25.7642 14.9715 25.3491 15.3824Z" fill="url(#paint0_linear_441_1430)"/>
</g>
<defs>
<filter id="filter0_d_441_1430" x="0.900391" y="0" width="66.3652" height="66.0996" filterUnits="userSpaceOnUse" color-interpolation-filters="sRGB">
<feFlood flood-opacity="0" result="BackgroundImageFix"/>
<feColorMatrix in="SourceAlpha" type="matrix" values="0 0 0 0 0 0 0 0 0 0 0 0 0 0 0 0 0 0 127 0" result="hardAlpha"/>
<feOffset/>
<feGaussianBlur stdDeviation="2"/>
<feComposite in2="hardAlpha" operator="out"/>
<feColorMatrix type="matrix" values="0 0 0 0 0.164706 0 0 0 0 0.964706 0 0 0 0 1 0 0 0 0.15 0"/>
<feBlend mode="normal" in2="BackgroundImageFix" result="effect1_dropShadow_441_1430"/>
<feBlend mode="normal" in="SourceGraphic" in2="effect1_dropShadow_441_1430" result="shape"/>
</filter>
<linearGradient id="paint0_linear_441_1430" x1="7.51901" y1="-7.06593" x2="25.3222" y2="42.5988" gradientUnits="userSpaceOnUse">
<stop stop-color="white"/>
<stop offset="1" stop-color="#00FCFF"/>
</linearGradient>
</defs>
</svg>
