<svg width="66" height="67" viewBox="0 0 66 67" fill="none" xmlns="http://www.w3.org/2000/svg">
<g filter="url(#filter0_d_441_1413)">
<path fill-rule="evenodd" clip-rule="evenodd" d="M47.1969 15.9142C47.274 15.909 47.3277 15.9896 47.2931 16.0587L43.5466 23.5517C43.4231 23.7987 43.1228 23.8988 42.8758 23.7753C42.6288 23.6518 42.5287 23.3515 42.6522 23.1045L45.2428 17.9234L7.72341 42.9729C7.49375 43.1262 7.18328 43.0643 7.02995 42.8347C6.87661 42.605 6.93849 42.2945 7.16815 42.1412L44.6942 17.0872L39.0129 17.4746C38.7374 17.4933 38.4989 17.2852 38.4801 17.0097C38.4613 16.7342 38.6694 16.4957 38.9449 16.4769L47.1969 15.9142ZM48.4367 26.6444C48.4367 25.2637 49.556 24.1444 50.9367 24.1444H56.2078C57.5885 24.1444 58.7078 25.2637 58.7078 26.6444V60.9998H60.1536C60.4298 60.9998 60.6536 61.2237 60.6536 61.4998C60.6536 61.776 60.4298 61.9998 60.1536 61.9998H5.5C5.22386 61.9998 5 61.776 5 61.4998C5 61.2237 5.22386 60.9998 5.5 60.9998H7.11747V54.3432C7.11747 52.9625 8.23676 51.8432 9.61747 51.8432H14.8886C16.2693 51.8432 17.3886 52.9625 17.3886 54.3432V60.9998H20.738V45.0149C20.738 43.6342 21.8572 42.5149 23.238 42.5149H28.5663C29.947 42.5149 31.0663 43.6342 31.0663 45.0149V60.9998H34.759V35.9727C34.759 34.592 35.8783 33.4727 37.259 33.4727H42.3584C43.7391 33.4727 44.8584 34.592 44.8584 35.9727V60.9998H48.4367V26.6444ZM49.4367 60.9998H57.7078V26.6444C57.7078 25.816 57.0363 25.1444 56.2078 25.1444H50.9367C50.1083 25.1444 49.4367 25.816 49.4367 26.6444V60.9998ZM43.8584 60.9998V35.9727C43.8584 35.1443 43.1869 34.4727 42.3584 34.4727H37.259C36.4306 34.4727 35.759 35.1443 35.759 35.9727V60.9998H43.8584ZM30.0663 60.9998V45.0149C30.0663 44.1864 29.3947 43.5149 28.5663 43.5149H23.238C22.4095 43.5149 21.738 44.1864 21.738 45.0149V60.9998H30.0663ZM16.3886 60.9998V54.3432C16.3886 53.5148 15.717 52.8432 14.8886 52.8432H9.61747C8.78904 52.8432 8.11747 53.5148 8.11747 54.3432V60.9998H16.3886Z" fill="white" stroke="#0084FF" stroke-width="0.2"/>
<path d="M57.2925 6.2741C57.2925 5.29429 56.4982 4.5 55.5184 4.5H51.684C50.7042 4.5 49.9099 5.29429 49.9099 6.2741V10.2229C49.913 10.458 49.9359 10.7313 49.9845 11.0241C50.2358 12.5369 51.1749 14.5723 53.6298 14.5723C54.7708 14.3994 56.9269 13.4495 57.2531 11.0241C57.2869 10.7731 57.301 10.5063 57.2925 10.2229V6.2741Z" fill="url(#paint0_linear_441_1413)"/>
<path fill-rule="evenodd" clip-rule="evenodd" d="M49.4651 5.7741C49.6929 4.75868 50.5999 4 51.684 4H55.5184C56.6025 4 57.5095 4.75868 57.7373 5.7741H59.5017C60.5489 5.7741 61.3979 6.62305 61.3979 7.67029C61.3979 7.90673 61.3537 8.14108 61.2675 8.36126L60.9645 9.13551C60.8684 9.3812 60.734 9.61013 60.5662 9.81378L60.1749 10.289C60.0033 10.4974 59.799 10.6766 59.5701 10.8197L59.2729 11.0054C58.9908 11.1818 58.6763 11.3 58.3478 11.3532L57.6845 11.4607C57.2148 13.6595 55.3659 14.6591 54.1298 14.9786V20.5392H56.4912C56.7674 20.5392 56.9912 20.763 56.9912 21.0392C56.9912 21.3153 56.7674 21.5392 56.4912 21.5392H50.7684C50.4922 21.5392 50.2684 21.3153 50.2684 21.0392C50.2684 20.763 50.4922 20.5392 50.7684 20.5392H53.1298V15.0458C52.0015 14.9233 51.1732 14.3878 50.5943 13.6828C50.0304 12.996 49.7135 12.1633 49.5524 11.4244L48.499 11.1368C48.2316 11.0638 47.9781 10.9468 47.7491 10.7907L47.1341 10.3714C46.8317 10.1652 46.5783 9.89515 46.3917 9.5803L45.9098 8.76702C45.7285 8.4611 45.6328 8.11203 45.6328 7.75643C45.6328 6.66162 46.5203 5.7741 47.6151 5.7741H49.4651ZM49.4099 6.7741H47.6151C47.0726 6.7741 46.6328 7.2139 46.6328 7.75643C46.6328 7.93265 46.6802 8.10562 46.7701 8.25722L47.252 9.0705C47.3639 9.25941 47.516 9.42144 47.6974 9.54514L48.3124 9.96444C48.4498 10.0581 48.6019 10.1283 48.7624 10.1721L49.413 10.3498C49.4115 10.3089 49.4105 10.2688 49.41 10.2295L49.4099 10.2229L49.4099 6.7741ZM53.5918 14.0721C54.6384 13.9002 56.4776 13.0386 56.7576 10.9574C56.7875 10.7346 56.8005 10.4952 56.7927 10.238L56.7925 10.2305V6.2741C56.7925 5.57043 56.222 5 55.5184 5H51.684C50.9804 5 50.4099 5.57043 50.4099 6.2741V10.2195C50.4128 10.4276 50.4333 10.6746 50.4778 10.9422C50.5945 11.6452 50.8678 12.4399 51.3672 13.0482C51.8463 13.6318 52.5455 14.0619 53.5918 14.0721ZM57.7925 6.7741V10.2155C57.7945 10.2878 57.7953 10.3592 57.7947 10.4298L58.1879 10.3661C58.3849 10.3342 58.5737 10.2632 58.7429 10.1574L59.0401 9.97173C59.1774 9.88588 59.3 9.77834 59.403 9.6533L59.7943 9.17808C59.8949 9.05588 59.9756 8.91853 60.0333 8.77111L60.3363 7.99686C60.377 7.8928 60.3979 7.78204 60.3979 7.67029C60.3979 7.17534 59.9966 6.7741 59.5017 6.7741H57.7925Z" fill="url(#paint1_linear_441_1413)"/>
</g>
<defs>
<filter id="filter0_d_441_1413" x="0.900391" y="0" width="64.4971" height="66.0996" filterUnits="userSpaceOnUse" color-interpolation-filters="sRGB">
<feFlood flood-opacity="0" result="BackgroundImageFix"/>
<feColorMatrix in="SourceAlpha" type="matrix" values="0 0 0 0 0 0 0 0 0 0 0 0 0 0 0 0 0 0 127 0" result="hardAlpha"/>
<feOffset/>
<feGaussianBlur stdDeviation="2"/>
<feComposite in2="hardAlpha" operator="out"/>
<feColorMatrix type="matrix" values="0 0 0 0 0.164706 0 0 0 0 0.964706 0 0 0 0 1 0 0 0 0.15 0"/>
<feBlend mode="normal" in2="BackgroundImageFix" result="effect1_dropShadow_441_1413"/>
<feBlend mode="normal" in="SourceGraphic" in2="effect1_dropShadow_441_1413" result="shape"/>
</filter>
<linearGradient id="paint0_linear_441_1413" x1="49.2055" y1="0.701764" x2="59.8032" y2="23.6837" gradientUnits="userSpaceOnUse">
<stop stop-color="white"/>
<stop offset="1" stop-color="#00FCFF"/>
</linearGradient>
<linearGradient id="paint1_linear_441_1413" x1="48.9136" y1="-0.0278873" x2="60.1022" y2="24.4017" gradientUnits="userSpaceOnUse">
<stop stop-color="white"/>
<stop offset="1" stop-color="#00FCFF"/>
</linearGradient>
</defs>
</svg>
