<svg width="90" height="67" viewBox="0 0 90 67" fill="none" xmlns="http://www.w3.org/2000/svg">
<g filter="url(#filter0_d_441_1452)">
<path fill-rule="evenodd" clip-rule="evenodd" d="M7.61002 5.28288C8.09076 5.09592 8.60207 5 9.11788 5H12.4777C12.8975 5 13.2378 5.3403 13.2378 5.76008V9.69624L27.1992 9.63949L34.2635 5.29221C34.7631 4.98478 35.3928 4.98317 35.8939 5.28805L43.0462 9.63929L62.7399 9.69273C64.1749 9.69662 65.3361 10.861 65.3361 12.296V43.8202C65.3361 45.2579 64.1706 46.4234 62.7329 46.4234H8.76249C8.14003 46.4234 7.5301 46.2485 7.00226 45.9186C6.78912 45.7854 6.59178 45.6284 6.41405 45.4507L6.32653 45.3632C5.80713 44.8438 5.42575 44.2028 5.21707 43.4985L5 42.7659L5.11921 8.67272V8.51239C5.11921 7.93803 5.27768 7.37481 5.57718 6.88473C5.79315 6.53132 6.0773 6.22442 6.41306 5.98192L6.6821 5.78762C6.96871 5.58063 7.28052 5.41101 7.61002 5.28288ZM44.7656 10.6853L50.4909 14.1683C50.9567 14.4517 51.241 14.9575 51.241 15.5027V17.9358C51.241 19.1207 49.9809 19.8612 48.955 19.32V32.2386H49.6791C50.5417 32.2386 51.241 32.9379 51.241 33.8006V35.2863C51.241 36.149 50.5417 36.8483 49.6791 36.8483H21.1331C20.2704 36.8483 19.5711 36.149 19.5711 35.2863V33.8006C19.5711 32.9379 20.2704 32.2386 21.1331 32.2386H21.3553V19.3223C20.3353 19.8372 19.0954 19.1003 19.0954 17.9246V15.4993C19.0954 14.9568 19.3767 14.4533 19.8387 14.169L25.4958 10.6877L13.2378 10.7376V38.6443C13.2378 39.0319 12.9236 39.3462 12.5359 39.3462H9.32419C9.05463 39.3462 8.78617 39.3806 8.52535 39.4486L8.5018 39.4548C8.00428 39.5846 7.54735 39.8373 7.17294 40.1896C6.97792 40.3732 6.80776 40.5815 6.6668 40.8092L6.20026 41.5628L6.05191 42.6507L6.21547 43.2027C6.37485 43.7406 6.66613 44.2301 7.06284 44.6269L7.15036 44.7144C7.27237 44.8364 7.40783 44.9441 7.55415 45.0356C7.9165 45.2621 8.33519 45.3821 8.76249 45.3821H62.7329C63.5955 45.3821 64.2948 44.6828 64.2948 43.8202V12.296C64.2948 11.435 63.5981 10.7364 62.7371 10.734L44.7656 10.6853ZM6.05141 39.8761L6.16051 8.67454L6.16051 8.51239C6.16051 8.12964 6.26611 7.75431 6.4657 7.42771C6.60962 7.1922 6.79898 6.98768 7.02274 6.82608L7.29178 6.63178C7.50664 6.47659 7.74041 6.34944 7.98743 6.25337C8.34784 6.11321 8.73117 6.0413 9.11788 6.0413H12.1965V38.3049H9.32419C8.96593 38.3049 8.60915 38.3506 8.2625 38.4411L8.23895 38.4472C7.57266 38.621 6.9607 38.9594 6.45927 39.4314C6.31245 39.5695 6.17615 39.7182 6.05141 39.8761ZM22.3966 18.6847V32.2386H47.9137V18.6865L35.0805 10.8304L22.3966 18.6847ZM35.3527 6.17765C35.1856 6.07603 34.9757 6.07656 34.8092 6.17904L20.3844 15.0558C20.2305 15.1506 20.1367 15.3184 20.1367 15.4993V17.9246C20.1367 18.3325 20.5846 18.582 20.9314 18.3672L35.0774 9.60759L49.4072 18.3798C49.7542 18.5922 50.1997 18.3426 50.1997 17.9358V15.5027C50.1997 15.321 50.1049 15.1524 49.9497 15.0579L35.3527 6.17765ZM31.4219 19.6011C31.1344 19.6011 30.9013 19.8342 30.9013 20.1218V23.4069H34.6475V19.6011H31.4219ZM35.6888 19.6011V23.4069H39.4351V20.1218C39.4351 19.8342 39.202 19.6011 38.9145 19.6011H35.6888ZM39.4351 24.4482H35.6888V28.2539H38.9145C39.202 28.2539 39.4351 28.0208 39.4351 27.7333V24.4482ZM34.6475 28.2539V24.4482H30.9013V27.7333C30.9013 28.0208 31.1344 28.2539 31.4219 28.2539H34.6475ZM29.86 20.1218C29.86 19.2591 30.5593 18.5598 31.4219 18.5598H38.9145C39.7771 18.5598 40.4764 19.2591 40.4764 20.1218V27.7333C40.4764 28.5959 39.7771 29.2952 38.9145 29.2952H31.4219C30.5593 29.2952 29.86 28.5959 29.86 27.7333V20.1218ZM21.1331 33.2799C20.8455 33.2799 20.6124 33.513 20.6124 33.8006V35.2863C20.6124 35.5739 20.8455 35.807 21.1331 35.807H49.6791C49.9666 35.807 50.1997 35.5739 50.1997 35.2863V33.8006C50.1997 33.513 49.9666 33.2799 49.6791 33.2799H21.1331Z" fill="white" stroke="#0084FF" stroke-width="0.2"/>
<path d="M83.5393 44.9692L85.6045 48.5422L85.0248 48.8881L78.1719 49.3729L77.0339 52.0751L78.5195 54.2869L85.9736 53.7595L84.4492 57.8304L83.2641 59.0117L76.5313 59.488L75.1144 58.2469L72.8087 54.6909L39.6989 57.2163L39.3253 57.9133L37.8696 61.2477L37.3114 61.8969L36.6673 62.1863L30.2351 62.6414C30.139 62.6482 29.6226 62.5222 29.3764 62.4583L28.7323 61.8942L27.3025 59.6175L26.534 58.1476L33.8078 57.633L34.3273 57.2914L35.3021 54.8447L34.0011 52.6808L33.4472 52.5371L26.1735 53.0517L26.4182 52.2418L27.977 48.6563L28.7886 48.1721L35.6415 47.6872L36.7536 48.0353L39.4586 52.1118L72.4611 49.777L74.2217 45.6284L75.4798 44.6249L82.2125 44.1485L83.5393 44.9692Z" fill="url(#paint0_linear_441_1452)"/>
</g>
<defs>
<filter id="filter0_d_441_1452" x="0.900391" y="0.900391" width="89.0732" height="65.7422" filterUnits="userSpaceOnUse" color-interpolation-filters="sRGB">
<feFlood flood-opacity="0" result="BackgroundImageFix"/>
<feColorMatrix in="SourceAlpha" type="matrix" values="0 0 0 0 0 0 0 0 0 0 0 0 0 0 0 0 0 0 127 0" result="hardAlpha"/>
<feOffset/>
<feGaussianBlur stdDeviation="2"/>
<feComposite in2="hardAlpha" operator="out"/>
<feColorMatrix type="matrix" values="0 0 0 0 0.164706 0 0 0 0 0.964706 0 0 0 0 1 0 0 0 0.15 0"/>
<feBlend mode="normal" in2="BackgroundImageFix" result="effect1_dropShadow_441_1452"/>
<feBlend mode="normal" in="SourceGraphic" in2="effect1_dropShadow_441_1452" result="shape"/>
</filter>
<linearGradient id="paint0_linear_441_1452" x1="89.4342" y1="30.0176" x2="86.5308" y2="65.5032" gradientUnits="userSpaceOnUse">
<stop offset="0.179203" stop-color="white"/>
<stop offset="1" stop-color="#00FCFF"/>
</linearGradient>
</defs>
</svg>
