<svg width="74" height="68" viewBox="0 0 74 68" fill="none" xmlns="http://www.w3.org/2000/svg">
<g filter="url(#filter0_d_441_1501)">
<path fill-rule="evenodd" clip-rule="evenodd" d="M33.0339 6C32.2055 6 31.5339 6.67157 31.5339 7.5V21.8778C31.5339 25.1984 34.2258 27.8903 37.5464 27.8903C40.867 27.8903 43.5588 25.1984 43.5588 21.8778V7.5C43.5588 6.67157 42.8873 6 42.0588 6H33.0339ZM37.5464 28.8903C33.6897 28.8903 30.5603 25.7769 30.5341 21.9265H9.5C7.567 21.9265 6 23.4935 6 25.4265V58.5C6 60.433 7.567 62 9.5 62H64.4321C66.3651 62 67.9321 60.433 67.9321 58.5V25.4265C67.9321 23.4935 66.3651 21.9265 64.4321 21.9265H44.5587C44.5325 25.7769 41.403 28.8903 37.5464 28.8903ZM44.5588 20.9265V7.5C44.5588 6.11929 43.4395 5 42.0588 5H33.0339C31.6532 5 30.5339 6.11929 30.5339 7.5V20.9265H9.5C7.01472 20.9265 5 22.9412 5 25.4265V58.5C5 60.9853 7.01472 63 9.5 63H64.4321C66.9174 63 68.9321 60.9853 68.9321 58.5V25.4265C68.9321 22.9412 66.9174 20.9265 64.4321 20.9265H44.5588ZM37.6109 13.931C35.9284 13.931 34.5645 15.2949 34.5645 16.9774C34.5645 18.6598 35.9284 20.0238 37.6109 20.0238C39.2933 20.0238 40.6572 18.6598 40.6572 16.9774C40.6572 15.2949 39.2933 13.931 37.6109 13.931ZM33.5645 16.9774C33.5645 14.7426 35.3761 12.931 37.6109 12.931C39.8456 12.931 41.6572 14.7426 41.6572 16.9774C41.6572 19.2121 39.8456 21.0238 37.6109 21.0238C35.3761 21.0238 33.5645 19.2121 33.5645 16.9774ZM38.0136 38.0622C38.0136 37.7861 38.2374 37.5622 38.5136 37.5622H44.3167C44.5929 37.5622 44.8167 37.7861 44.8167 38.0622C44.8167 38.3384 44.5929 38.5622 44.3167 38.5622H38.5136C38.2374 38.5622 38.0136 38.3384 38.0136 38.0622ZM50.7161 38.0622C50.7161 37.7861 50.9399 37.5622 51.2161 37.5622H59.8563C60.1325 37.5622 60.3563 37.7861 60.3563 38.0622C60.3563 38.3384 60.1325 38.5622 59.8563 38.5622H51.2161C50.9399 38.5622 50.7161 38.3384 50.7161 38.0622ZM38.0136 43.3495C38.0136 43.0734 38.2374 42.8495 38.5136 42.8495H59.8563C60.1325 42.8495 60.3563 43.0734 60.3563 43.3495C60.3563 43.6257 60.1325 43.8495 59.8563 43.8495H38.5136C38.2374 43.8495 38.0136 43.6257 38.0136 43.3495ZM38.0136 48.7658C38.0136 48.4897 38.2374 48.2658 38.5136 48.2658H50.9581C51.2343 48.2658 51.4581 48.4897 51.4581 48.7658C51.4581 49.042 51.2343 49.2658 50.9581 49.2658H38.5136C38.2374 49.2658 38.0136 49.042 38.0136 48.7658ZM57.2285 48.7658C57.2285 48.4897 57.4524 48.2658 57.7285 48.2658H59.8563C60.1325 48.2658 60.3563 48.4897 60.3563 48.7658C60.3563 49.042 60.1325 49.2658 59.8563 49.2658H57.7285C57.4524 49.2658 57.2285 49.042 57.2285 48.7658Z" fill="white" stroke="#0084FF" stroke-width="0.2"/>
<path d="M22.9738 32.002C20.1961 32.002 17.9444 34.2537 17.9444 37.0314C17.9444 38.7145 18.7712 40.2045 20.0407 41.1174C20.2706 41.2827 20.312 41.6221 20.105 41.8153L17.7071 44.0533C16.9293 44.7792 16.3229 45.6691 15.9318 46.6584C15.6 47.4975 15.4297 48.3918 15.4297 49.2941V51.9262H30.26V49.6854C30.26 48.5281 30.0071 47.3847 29.519 46.3354C29.1557 45.5542 28.6677 44.8373 28.0742 44.2129L25.8899 41.9147C25.6538 41.6663 25.7163 41.2618 25.9904 41.056C27.2126 40.1385 28.0032 38.6773 28.0032 37.0314C28.0032 34.2537 25.7515 32.002 22.9738 32.002Z" fill="url(#paint0_linear_441_1501)"/>
</g>
<defs>
<filter id="filter0_d_441_1501" x="0.900391" y="0.900391" width="72.1318" height="66.1992" filterUnits="userSpaceOnUse" color-interpolation-filters="sRGB">
<feFlood flood-opacity="0" result="BackgroundImageFix"/>
<feColorMatrix in="SourceAlpha" type="matrix" values="0 0 0 0 0 0 0 0 0 0 0 0 0 0 0 0 0 0 127 0" result="hardAlpha"/>
<feOffset/>
<feGaussianBlur stdDeviation="2"/>
<feComposite in2="hardAlpha" operator="out"/>
<feColorMatrix type="matrix" values="0 0 0 0 0.164706 0 0 0 0 0.964706 0 0 0 0 1 0 0 0 0.15 0"/>
<feBlend mode="normal" in2="BackgroundImageFix" result="effect1_dropShadow_441_1501"/>
<feBlend mode="normal" in="SourceGraphic" in2="effect1_dropShadow_441_1501" result="shape"/>
</filter>
<linearGradient id="paint0_linear_441_1501" x1="18.516" y1="27.4263" x2="32.7346" y2="53.1352" gradientUnits="userSpaceOnUse">
<stop stop-color="white"/>
<stop offset="1" stop-color="#00FCFF"/>
</linearGradient>
</defs>
</svg>
