<svg width="49" height="67" viewBox="0 0 49 67" fill="none" xmlns="http://www.w3.org/2000/svg">
<g filter="url(#filter0_d_441_1457)">
<path fill-rule="evenodd" clip-rule="evenodd" d="M41.4068 23.2034C41.4068 33.2569 33.2569 41.4068 23.2034 41.4068C19.778 41.4068 16.5737 40.4607 13.8373 38.8156C13.9992 38.4204 14.0884 37.9879 14.0884 37.5344C14.0884 35.6666 12.5742 34.1523 10.7063 34.1523C10.0894 34.1523 9.51102 34.3175 9.01306 34.6061C6.5025 31.4858 5 27.52 5 23.2034C5 13.1499 13.1499 5 23.2034 5C26.7655 5 30.0886 6.02312 32.8949 7.79152C32.6722 8.23785 32.5469 8.74129 32.5469 9.27399C32.5469 11.1102 34.0354 12.5988 35.8716 12.5988C36.5163 12.5988 37.1181 12.4153 37.6277 12.0977C39.9973 15.1709 41.4068 19.0226 41.4068 23.2034ZM33.4717 6.97299C34.0769 6.34203 34.9284 5.94922 35.8716 5.94922C37.7079 5.94922 39.1964 7.43777 39.1964 9.27399C39.1964 10.1045 38.8919 10.8639 38.3884 11.4466C40.9073 14.6954 42.4068 18.7743 42.4068 23.2034C42.4068 33.8091 33.8091 42.4068 23.2034 42.4068C19.5909 42.4068 16.2113 41.4093 13.3252 39.6747C12.705 40.4327 11.7621 40.9165 10.7063 40.9165C8.83843 40.9165 7.32422 39.4023 7.32422 37.5344C7.32422 36.6438 7.66847 35.8336 8.23118 35.2296C5.58411 31.9383 4 27.7558 4 23.2034C4 12.5977 12.5977 4 23.2034 4C26.98 4 30.5019 5.09017 33.4717 6.97299ZM23.2609 27.0433C25.3504 27.0433 27.0443 25.3494 27.0443 23.2599C27.0443 21.1704 25.3504 19.4766 23.2609 19.4766C21.1714 19.4766 19.4775 21.1704 19.4775 23.2599C19.4775 25.3494 21.1714 27.0433 23.2609 27.0433ZM23.3756 33.9544C29.2818 33.9544 34.0697 29.1666 34.0697 23.2604C34.0697 17.3543 29.2818 12.5664 23.3756 12.5664C17.4695 12.5664 12.6816 17.3543 12.6816 23.2604C12.6816 29.1666 17.4695 33.9544 23.3756 33.9544ZM23.3756 34.9544C29.8341 34.9544 35.0697 29.7188 35.0697 23.2604C35.0697 16.802 29.8341 11.5664 23.3756 11.5664C16.9172 11.5664 11.6816 16.802 11.6816 23.2604C11.6816 29.7188 16.9172 34.9544 23.3756 34.9544Z" fill="url(#paint0_linear_441_1457)"/>
<path fill-rule="evenodd" clip-rule="evenodd" d="M24.0256 26.6248C23.7997 26.5212 23.5517 26.4749 23.3037 26.49L22.65 26.5296C22.2943 26.5512 21.9577 26.6975 21.6994 26.9429L21.3922 27.2348C21.2408 27.3786 21.1208 27.5521 21.0398 27.7446L20.9031 28.0692C20.8249 28.2551 20.7846 28.4547 20.7846 28.6564V49.34C20.7846 51.5242 17.8871 52.2906 16.8072 50.392L16.5636 49.9638C16.4076 49.6895 16.2085 49.4421 15.974 49.231L15.9286 49.1902C15.55 48.8494 15.0835 48.6213 14.582 48.5317C14.1949 48.4626 13.7974 48.4779 13.4167 48.5766L13.1683 48.641C12.8365 48.727 12.5281 48.8863 12.2659 49.1072C11.9424 49.3795 11.7005 49.7359 11.5668 50.1371L11.5439 50.2056C11.4104 50.6063 11.3784 51.0338 11.4507 51.4499L11.4645 51.5293C11.5116 51.8 11.5973 52.0626 11.719 52.3089L16.1465 61.2733C16.2699 61.523 16.1674 61.8255 15.9177 61.9488C15.6679 62.0722 15.3655 61.9697 15.2421 61.72L10.8146 52.7556C10.6502 52.4227 10.5344 52.0679 10.4708 51.7021L10.457 51.6227C10.356 51.0422 10.4007 50.4457 10.587 49.8866L10.6099 49.8181C10.8023 49.2407 11.1506 48.7277 11.6161 48.3356C11.9936 48.0177 12.4375 47.7884 12.9152 47.6646L13.1636 47.6002C13.6849 47.465 14.2292 47.4441 14.7593 47.5388C15.4461 47.6614 16.0849 47.9737 16.6034 48.4404L16.6488 48.4812C16.9637 48.7646 17.231 49.0968 17.4404 49.4651L17.684 49.8933C18.252 50.8918 19.7759 50.4888 19.7759 49.34V28.6564C19.7759 28.3203 19.843 27.9875 19.9735 27.6778L20.1102 27.3531C20.2452 27.0324 20.4452 26.7431 20.6974 26.5034L21.0046 26.2116C21.4352 25.8026 21.9962 25.5587 22.5889 25.5228L23.2426 25.4831C23.6561 25.4581 24.0694 25.5352 24.4459 25.7078L24.938 25.9334C25.2874 26.0935 25.5956 26.3314 25.839 26.6289L26.1189 26.971C26.4875 27.4215 26.6889 27.9857 26.6889 28.5678V42.5086C26.9176 42.2572 27.1855 42.0429 27.4832 41.8746C28.0593 41.549 28.722 41.4096 29.3804 41.4754L29.4427 41.4816C30.0607 41.5434 30.6499 41.7731 31.1467 42.1457L31.4141 42.3462C31.6091 42.4925 31.7846 42.6619 31.9369 42.8501L32.0303 42.7687C32.4631 42.3915 32.9586 42.093 33.4945 41.8869L33.7039 41.8064C34.128 41.6432 34.5785 41.5596 35.0329 41.5596H35.1452C35.7507 41.5596 36.3445 41.7261 36.8617 42.0409C37.3629 42.346 37.7738 42.7792 38.052 43.2958L38.1081 43.4C38.3492 43.8477 38.4958 44.3389 38.5404 44.8431C38.9354 44.4749 39.4119 44.2036 39.9321 44.0518C40.4058 43.9137 40.9035 43.8783 41.392 43.9481L41.5133 43.9654C42.1646 44.0585 42.7752 44.3376 43.2717 44.7694C43.7842 45.215 44.1522 45.8033 44.3288 46.459L44.3778 46.6411C44.4699 46.9831 44.5165 47.3358 44.5165 47.6899V61.3247C44.5165 61.6032 44.2907 61.829 44.0122 61.829C43.7336 61.829 43.5078 61.6032 43.5078 61.3247V47.6899C43.5078 47.4243 43.4728 47.1599 43.4038 46.9034L43.3548 46.7213C43.2303 46.2591 42.971 45.8446 42.6098 45.5305C42.2599 45.2263 41.8296 45.0295 41.3706 44.964L41.2493 44.9466C40.9031 44.8972 40.5503 44.9222 40.2145 45.0202C39.8006 45.1409 39.4257 45.3685 39.1277 45.6801L38.5549 46.279V51.4077C38.5549 51.6862 38.3291 51.912 38.0505 51.912C37.772 51.912 37.5462 51.6862 37.5462 51.4077V45.1721C37.5462 44.7205 37.4341 44.2759 37.22 43.8783L37.1638 43.774C36.9706 43.4152 36.6853 43.1144 36.3373 42.9026C35.9781 42.6839 35.5657 42.5683 35.1452 42.5683H35.0329C34.7023 42.5683 34.3745 42.6292 34.066 42.7478L33.8566 42.8284C33.4308 42.9921 33.037 43.2293 32.6932 43.5291L32.4432 43.747C32.5422 44.0211 32.5932 44.3109 32.5932 44.6038V51.1211C32.5932 51.3996 32.3674 51.6254 32.0889 51.6254C31.8103 51.6254 31.5845 51.3996 31.5845 51.1211V44.6038C31.5845 44.3689 31.5298 44.1373 31.4248 43.9272L31.3798 43.8372C31.2452 43.568 31.0497 43.3338 30.8089 43.1532L30.5415 42.9526C30.1919 42.6904 29.7772 42.5288 29.3424 42.4853L29.28 42.4791C28.8287 42.434 28.3745 42.5295 27.9796 42.7527C27.6737 42.9256 27.4137 43.1694 27.2213 43.4635L26.6889 44.2778V50.7771C26.6889 51.0557 26.4631 51.2815 26.1845 51.2815C25.906 51.2815 25.6802 51.0557 25.6802 50.7771V28.5678C25.6802 28.2186 25.5593 27.88 25.3382 27.6097L25.0583 27.2677C24.9123 27.0892 24.7274 26.9464 24.5177 26.8503L24.0256 26.6248Z" fill="white" stroke="#0084FF" stroke-width="0.2"/>
</g>
<defs>
<filter id="filter0_d_441_1457" x="0" y="0" width="48.6162" height="66.1016" filterUnits="userSpaceOnUse" color-interpolation-filters="sRGB">
<feFlood flood-opacity="0" result="BackgroundImageFix"/>
<feColorMatrix in="SourceAlpha" type="matrix" values="0 0 0 0 0 0 0 0 0 0 0 0 0 0 0 0 0 0 127 0" result="hardAlpha"/>
<feOffset/>
<feGaussianBlur stdDeviation="2"/>
<feComposite in2="hardAlpha" operator="out"/>
<feColorMatrix type="matrix" values="0 0 0 0 0.164706 0 0 0 0 0.964706 0 0 0 0 1 0 0 0 0.15 0"/>
<feBlend mode="normal" in2="BackgroundImageFix" result="effect1_dropShadow_441_1457"/>
<feBlend mode="normal" in="SourceGraphic" in2="effect1_dropShadow_441_1457" result="shape"/>
</filter>
<linearGradient id="paint0_linear_441_1457" x1="11.1471" y1="9.1546" x2="43.0565" y2="51.2721" gradientUnits="userSpaceOnUse">
<stop stop-color="white"/>
<stop offset="1" stop-color="#00FCFF"/>
</linearGradient>
</defs>
</svg>
