<svg width="2560" height="643" viewBox="0 0 2560 643" fill="none" xmlns="http://www.w3.org/2000/svg">
    <g opacity="0.2">
        <path d="M2712.82 97.0004C2713.35 97.0003 2713.87 97.1407 2714.32 97.4072L2778.65 134.937L2812.22 114.536C2812.68 114.258 2813.2 114.107 2813.74 114.101C2814.27 114.094 2814.8 114.231 2815.26 114.498L2846.03 132.17L2880.63 111.888C2881.31 111.489 2882.12 111.378 2882.89 111.579C2883.65 111.779 2884.31 112.275 2884.71 112.957C2885.11 113.639 2885.22 114.452 2885.02 115.218C2884.82 115.983 2884.33 116.639 2883.65 117.04L2847.56 138.199C2847.1 138.464 2846.59 138.604 2846.06 138.607C2845.53 138.609 2845.02 138.473 2844.56 138.212L2813.82 120.556L2780.23 140.963C2779.77 141.243 2779.24 141.393 2778.7 141.398C2778.16 141.403 2777.64 141.262 2777.17 140.991L2712.84 103.458L2678.87 123.925C2678.41 124.202 2677.88 124.35 2677.35 124.354C2676.81 124.358 2676.28 124.217 2675.82 123.947L2645.45 106.234L2615.27 123.931L2708.8 178.655C2709.25 178.917 2709.62 179.29 2709.88 179.739C2710.14 180.187 2710.28 180.695 2710.28 181.213C2710.28 181.731 2710.15 182.241 2709.9 182.693C2709.64 183.145 2709.28 183.523 2708.83 183.79L2677.66 202.571L2738.41 237.952C2738.86 238.215 2739.23 238.592 2739.49 239.045C2739.75 239.498 2739.89 240.012 2739.89 240.534C2739.89 241.057 2739.75 241.57 2739.49 242.023C2739.23 242.476 2738.86 242.852 2738.4 243.115L2702.55 263.931C2702.09 264.195 2701.58 264.335 2701.05 264.335C2700.52 264.335 2700.01 264.196 2699.55 263.932L2571.23 189.548L2537.25 210.018C2536.79 210.296 2536.26 210.443 2535.73 210.447C2535.19 210.45 2534.66 210.308 2534.2 210.036L2471.01 172.956L2436.64 193.488C2436.18 193.762 2435.66 193.908 2435.12 193.909C2434.58 193.911 2434.06 193.768 2433.59 193.496L2402.31 175.028L2368.55 195.749C2367.87 196.163 2367.06 196.292 2366.29 196.108C2365.52 195.924 2364.86 195.441 2364.44 194.766C2364.03 194.092 2363.9 193.28 2364.08 192.51C2364.27 191.74 2364.75 191.075 2365.42 190.661L2400.72 168.999C2401.18 168.715 2401.71 168.562 2402.25 168.557C2402.8 168.552 2403.33 168.696 2403.8 168.971L2435.1 187.452L2469.47 166.923C2469.93 166.648 2470.45 166.501 2470.99 166.499C2471.52 166.497 2472.05 166.64 2472.51 166.911L2535.69 203.987L2569.66 183.522C2570.12 183.247 2570.64 183.099 2571.18 183.095C2571.71 183.09 2572.24 183.229 2572.7 183.496L2701.05 257.896L2730.96 240.528L2670.3 205.195C2669.85 204.934 2669.48 204.561 2669.22 204.113C2668.96 203.664 2668.82 203.156 2668.81 202.637C2668.81 202.119 2668.94 201.608 2669.19 201.156C2669.45 200.704 2669.81 200.325 2670.26 200.057L2701.44 181.271L2607.85 126.512C2607.4 126.249 2607.03 125.872 2606.77 125.42C2606.51 124.968 2606.37 124.457 2606.37 123.936C2606.37 123.414 2606.51 122.902 2606.77 122.45C2607.03 121.998 2607.4 121.621 2607.85 121.358L2643.94 100.199C2644.39 99.9313 2644.91 99.7898 2645.44 99.7893C2645.97 99.7888 2646.49 99.9293 2646.95 100.196L2677.3 117.896L2711.28 97.429C2711.74 97.1484 2712.27 97.0002 2712.82 97.0004Z" fill="url(#paint0_linear_451_51417)"/>
        <path opacity="0.4" d="M2564.04 276C2564.91 275.999 2565.75 276.28 2566.44 276.8C2567.12 277.32 2567.62 278.051 2567.85 278.88C2568.09 279.709 2568.04 280.591 2567.72 281.391C2567.4 282.19 2566.83 282.864 2566.09 283.308L2519.07 311.496C2518.47 311.857 2517.78 312.051 2517.08 312.06C2516.37 312.068 2515.68 311.89 2515.07 311.544L2473.55 287.959L2382.03 343.063C2381.42 343.428 2380.73 343.624 2380.02 343.631C2379.31 343.638 2378.62 343.456 2378 343.104L2336.28 319.077L2296.77 342.373L2377.97 389.287C2378.56 389.63 2379.06 390.121 2379.4 390.713C2379.75 391.304 2379.93 391.975 2379.94 392.659C2379.94 393.343 2379.77 394.016 2379.43 394.613C2379.1 395.21 2378.61 395.709 2378.02 396.062L2336.71 420.831L2374.19 442.665C2374.64 442.925 2375.03 443.271 2375.34 443.683C2375.66 444.095 2375.89 444.565 2376.02 445.065C2376.15 445.566 2376.18 446.087 2376.11 446.6C2376.04 447.113 2375.87 447.606 2375.61 448.053C2375.35 448.499 2375 448.89 2374.58 449.202C2374.17 449.514 2373.7 449.742 2373.19 449.873C2372.69 450.003 2372.17 450.034 2371.65 449.962C2371.14 449.891 2370.64 449.72 2370.19 449.457L2326.97 424.275C2326.37 423.931 2325.88 423.439 2325.54 422.847C2325.2 422.256 2325.01 421.587 2325.01 420.904C2325.01 420.221 2325.18 419.549 2325.51 418.954C2325.85 418.358 2326.34 417.86 2326.92 417.508L2368.21 392.754L2286.97 345.812C2286.37 345.467 2285.88 344.973 2285.53 344.379C2285.19 343.785 2285 343.111 2285 342.425C2285 341.739 2285.17 341.063 2285.51 340.466C2285.85 339.869 2286.35 339.371 2286.94 339.021L2334.24 311.129C2334.84 310.773 2335.53 310.583 2336.23 310.579C2336.94 310.575 2337.63 310.758 2338.24 311.108L2379.94 335.121L2471.45 280.027C2472.05 279.664 2472.74 279.467 2473.44 279.458C2474.15 279.449 2474.84 279.627 2475.45 279.975L2516.97 303.561L2562 276.565C2562.62 276.196 2563.32 276 2564.04 276Z" fill="url(#paint1_linear_451_51417)"/>
        <path d="M2525.19 523C2525.89 523 2526.57 522.816 2527.17 522.465L2700.03 422.082C2700.63 421.737 2701.12 421.243 2701.46 420.649C2701.81 420.055 2701.99 419.381 2702 418.694C2702.01 418.006 2701.83 417.33 2701.5 416.73C2701.16 416.13 2700.68 415.628 2700.09 415.274L2658.77 390.36L2695.76 368.358C2696.66 367.822 2697.31 366.949 2697.57 365.932C2697.83 364.915 2697.67 363.837 2697.14 362.935C2696.6 362.033 2695.73 361.381 2694.71 361.122C2693.7 360.863 2692.62 361.019 2691.72 361.555L2649.05 386.936C2648.47 387.285 2647.98 387.781 2647.64 388.375C2647.3 388.969 2647.12 389.64 2647.12 390.324C2647.12 391.008 2647.29 391.681 2647.63 392.277C2647.96 392.873 2648.45 393.372 2649.03 393.725L2690.28 418.598L2525.24 514.444L2486.45 490.859L2523.92 468.903C2524.52 468.553 2525.01 468.052 2525.36 467.451C2525.7 466.849 2525.88 466.168 2525.88 465.475C2525.87 464.783 2525.69 464.103 2525.34 463.504C2524.99 462.905 2524.5 462.408 2523.9 462.062L2475.92 434.412C2475.01 433.891 2473.93 433.751 2472.92 434.025C2471.91 434.298 2471.05 434.962 2470.53 435.87C2470 436.778 2469.86 437.857 2470.13 438.869C2470.41 439.881 2471.07 440.744 2471.97 441.269L2514.05 465.519L2476.74 487.383C2476.15 487.729 2475.66 488.222 2475.31 488.815C2474.97 489.408 2474.79 490.079 2474.78 490.764C2474.78 491.449 2474.95 492.123 2475.28 492.721C2475.62 493.319 2476.1 493.82 2476.68 494.176L2523.14 522.424C2523.76 522.802 2524.47 523.001 2525.19 523Z" fill="url(#paint2_linear_451_51417)"/>
    </g>
    <g opacity="0.4">
        <path d="M166.09 434.969C165.847 435.019 165.607 435.022 165.361 434.982C146.976 431.989 128.202 432.337 109.941 436.009C109.693 436.058 109.438 436.061 109.188 436.017C91.3684 432.86 73.1792 432.349 55.2085 434.5C-10.9532 443.269 -36.8767 486.767 -34.7687 516.073C-34.7035 516.979 -35.2231 517.824 -36.0714 518.149C-49.5659 523.319 -65.6135 529.955 -75.8025 543.432C-131.402 616.977 -22.416 651.45 57.2002 640.323C74.2942 637.736 90.7278 631.872 105.598 623.054C151.272 596.647 275.125 525.419 274.282 525.898C295.935 512.108 303.215 491.866 292.905 471.594C276.365 439.072 199.726 428.052 166.09 434.969Z" fill="#07005F" fill-opacity="0.3"/>
        <path d="M117.878 501.904C117.689 501.904 117.505 501.841 117.355 501.725C117.205 501.61 117.097 501.448 117.048 501.265C116.999 501.083 117.011 500.889 117.083 500.714C117.156 500.539 117.283 500.392 117.447 500.297L250.232 423.629V340.525C250.232 340.411 250.254 340.299 250.297 340.195C250.34 340.09 250.404 339.995 250.484 339.915C250.564 339.835 250.659 339.771 250.764 339.728C250.869 339.684 250.981 339.662 251.094 339.662C251.207 339.662 251.319 339.684 251.424 339.728C251.529 339.771 251.624 339.835 251.704 339.915C251.784 339.995 251.848 340.09 251.891 340.195C251.934 340.299 251.957 340.411 251.957 340.525V424.124C251.957 424.275 251.917 424.424 251.841 424.555C251.766 424.685 251.656 424.794 251.525 424.869L118.31 501.786C118.179 501.862 118.03 501.903 117.878 501.904Z" fill="#05949C"/>
        <path d="M348.382 198.841C348.192 198.84 348.009 198.777 347.859 198.662C347.709 198.546 347.601 198.385 347.552 198.202C347.503 198.019 347.515 197.825 347.587 197.65C347.659 197.475 347.787 197.329 347.95 197.234L416.947 157.397V54.5084C416.947 54.2796 417.038 54.0601 417.2 53.8983C417.362 53.7364 417.581 53.6455 417.81 53.6455C418.039 53.6455 418.258 53.7364 418.42 53.8983C418.582 54.0601 418.673 54.2796 418.673 54.5084V157.892C418.673 158.043 418.633 158.192 418.557 158.323C418.482 158.453 418.373 158.562 418.241 158.637L348.813 198.722C348.682 198.799 348.533 198.84 348.382 198.841Z" fill="#05949C"/>
        <path d="M127.488 280.557C127.259 280.556 127.04 280.465 126.879 280.303C126.717 280.142 126.626 279.923 126.625 279.694V58.6285C126.625 58.3997 126.716 58.1802 126.878 58.0184C127.04 57.8565 127.259 57.7656 127.488 57.7656C127.717 57.7656 127.936 57.8565 128.098 58.0184C128.26 58.1802 128.351 58.3997 128.351 58.6285V279.694C128.35 279.923 128.259 280.142 128.097 280.303C127.936 280.465 127.717 280.556 127.488 280.557Z" fill="#05949C"/>
        <path d="M368.852 175.764L362.138 171.863C350.62 164.811 337.035 161.916 323.643 163.661C310.959 156.861 296.402 154.387 282.184 156.615C270.378 149.808 256.952 146.316 243.325 146.509C189.892 147.799 149.303 200.91 137.308 238.543C121 243.499 106.297 252.691 94.6971 265.18C58.6963 305.244 44.9611 365.272 93.9409 397.925C95.7036 399.173 96.5224 399.573 102.885 403.27C113.04 409.513 124.714 412.848 136.634 412.912C148.555 412.976 160.264 409.766 170.485 403.631C230.335 369.077 360.62 293.871 358.491 295.084C369.778 287.86 379.258 278.144 386.201 266.682C393.145 255.22 397.367 242.319 398.544 228.97C399.618 216.593 397.19 193.223 368.852 175.764Z" fill="url(#paint3_linear_451_51417)"/>
        <mask id="mask0_451_51417" style="mask-type:luminance" maskUnits="userSpaceOnUse" x="62" y="146" width="337" height="267">
            <path d="M368.853 175.765L362.139 171.864C350.621 164.812 337.036 161.917 323.644 163.662C310.96 156.862 296.403 154.388 282.185 156.616C270.379 149.809 256.953 146.317 243.326 146.51C189.893 147.8 149.304 200.911 137.309 238.544C121.001 243.5 106.298 252.692 94.6981 265.181C58.6973 305.245 44.9621 365.273 93.9419 397.926C95.7046 399.174 96.5233 399.574 102.885 403.271C113.041 409.514 124.715 412.849 136.635 412.913C148.556 412.977 160.265 409.767 170.486 403.632C230.336 369.078 360.621 293.872 358.492 295.085C369.779 287.861 379.259 278.145 386.202 266.683C393.146 255.221 397.368 242.32 398.545 228.971C399.619 216.594 397.191 193.224 368.853 175.765Z" fill="white"/>
        </mask>
        <g mask="url(#mask0_451_51417)">
            <g style="mix-blend-mode:multiply" opacity="0.5">
                <path d="M368.853 175.765L362.139 171.864C350.621 164.812 337.036 161.917 323.644 163.662C310.96 156.862 296.403 154.388 282.185 156.616C270.379 149.809 256.953 146.317 243.326 146.51C189.893 147.8 149.304 200.911 137.309 238.544C121.001 243.5 106.298 252.692 94.6981 265.181C58.6973 305.245 44.9621 365.273 93.9419 397.926C95.7046 399.174 96.5233 399.574 102.885 403.271C113.041 409.514 124.715 412.849 136.635 412.913C148.556 412.977 160.265 409.767 170.486 403.632C230.336 369.078 360.621 293.872 358.492 295.085C369.779 287.861 379.259 278.145 386.202 266.683C393.146 255.221 397.368 242.32 398.545 228.971C399.619 216.594 397.191 193.224 368.853 175.765Z" fill="url(#paint4_linear_451_51417)"/>
            </g>
            <g style="mix-blend-mode:multiply" opacity="0.2">
                <path d="M312.143 182.969C306.392 173.692 298.427 165.989 288.963 160.551L282.251 156.649C281.873 156.43 281.463 156.24 281.07 156.034C269.54 149.61 256.526 146.325 243.328 146.509C190.341 147.789 150 200.019 137.634 237.591L137.312 238.543C145.539 242.596 193.801 271.543 197.986 282.981C262.148 377.147 304.676 189.709 315.445 207.353C316.832 203.313 317.257 199.004 316.683 194.77C316.11 190.536 314.555 186.495 312.143 182.969Z" fill="url(#paint5_linear_451_51417)"/>
            </g>
            <g style="mix-blend-mode:multiply" opacity="0.2">
                <path d="M354.639 191.196C349.676 181.893 342.178 174.188 333.014 168.974L326.3 165.073C325.391 164.554 324.451 164.089 323.487 163.681C310.871 156.848 296.355 154.363 282.186 156.612C282.249 156.646 288.961 160.548 288.961 160.548C305.21 170.554 322.664 189.849 315.443 207.35C333.905 197.227 349.747 200.901 357.023 214.97C358.299 211.059 358.746 206.925 358.335 202.832C357.925 198.739 356.666 194.776 354.639 191.196Z" fill="url(#paint6_linear_451_51417)"/>
            </g>
            <g style="mix-blend-mode:multiply" opacity="0.2">
                <path d="M368.852 175.768L362.139 171.867C350.621 164.815 337.036 161.921 323.644 163.665C342.312 171.809 362.075 191.357 358.008 211.413C357.874 212.139 357.834 212.285 357.797 212.433C357.589 213.295 357.33 214.145 357.022 214.977C358.379 213.989 359.786 213.072 361.237 212.229C379.628 201.611 394.593 210.139 394.653 231.272C394.047 242.798 390.723 254.018 384.953 264.014C379.184 274.011 371.131 282.501 361.453 288.791C361.562 290.009 361.344 291.234 360.824 292.341C360.304 293.447 359.499 294.395 358.491 295.089C369.786 287.873 379.273 278.159 386.217 266.696C393.162 255.232 397.38 242.326 398.545 228.974C399.619 216.597 397.191 193.227 368.852 175.768Z" fill="url(#paint7_linear_451_51417)"/>
            </g>
            <g style="mix-blend-mode:multiply" opacity="0.2">
                <path d="M218.746 375.77C218.746 375.77 190.871 282.111 197.987 282.98C193.802 271.542 145.539 242.595 137.312 238.543C121.003 243.5 106.3 252.691 94.7008 265.181C58.2199 305.779 45.3638 366.066 93.9505 397.93C94.6691 398.439 95.4098 398.925 96.1748 399.369L102.888 403.27C113.043 409.513 124.717 412.849 136.638 412.913C148.559 412.976 160.268 409.766 170.489 403.632C177.37 399.66 195.864 388.981 218.746 375.77Z" fill="url(#paint8_linear_451_51417)"/>
            </g>
            <g style="mix-blend-mode:screen">
                <path d="M152.849 409.941C133.2 409.941 120.46 394.36 120.392 370.252C121.185 352.871 126.138 335.934 134.837 320.865C143.535 305.796 155.723 293.035 170.378 283.655C177.288 279.409 185.128 276.913 193.221 276.382C203.39 242.682 225.259 213.72 254.889 194.715C264.542 188.723 275.606 185.382 286.962 185.03C292.796 184.907 298.581 186.117 303.877 188.568C309.172 191.02 313.838 194.647 317.518 199.175C323.097 196.634 329.141 195.272 335.271 195.174C339.784 195.1 344.256 196.051 348.349 197.954C352.443 199.857 356.051 202.664 358.904 206.163C364.152 203.08 370.098 201.383 376.183 201.23C391.027 201.23 401.033 213.295 401.086 231.252C400.51 243.917 396.902 256.259 390.566 267.24C384.229 278.222 375.349 287.522 364.672 294.359L177.113 402.645C169.809 407.169 161.437 409.686 152.849 409.941Z" fill="url(#paint9_linear_451_51417)"/>
                <path d="M255.346 195.509C262.468 191.236 270.292 188.26 278.453 186.72C281.396 186.212 284.38 185.98 287.365 186.026C291.717 186.072 296.031 186.844 300.129 188.311C304.383 189.846 308.38 192.018 311.982 194.753C313.717 196.077 315.349 197.529 316.865 199.099C317.172 199.417 317.478 199.738 317.776 200.067C321.959 198.181 326.4 196.931 330.952 196.356C332.454 196.182 333.965 196.105 335.477 196.126C338.455 196.159 341.411 196.645 344.242 197.569C348.837 199.077 353.059 201.544 356.629 204.806C357.448 205.556 358.228 206.346 358.967 207.174C360.474 206.364 361.968 205.64 363.449 205.001C367.449 203.184 371.782 202.213 376.175 202.148C380.011 202.082 383.795 203.033 387.144 204.903C390.493 206.773 393.288 209.496 395.244 212.795C398.613 218.55 400.29 225.139 400.083 231.805C399.438 244.208 395.848 256.279 389.61 267.018C383.371 277.757 374.665 286.857 364.211 293.562L177.018 401.637C174.32 403.206 171.513 404.58 168.618 405.749C163.62 407.836 158.268 408.948 152.851 409.022C146.276 409.088 139.866 406.965 134.631 402.987C129.395 399.01 125.631 393.404 123.932 387.052C122.143 381.434 121.278 375.563 121.369 369.668C122.244 352.553 127.189 335.894 135.792 321.074C144.395 306.253 156.408 293.697 170.835 284.449C175.263 281.828 180.037 279.841 185.017 278.546C185.606 278.401 186.193 278.27 186.777 278.153C187.294 278.05 187.809 277.955 188.323 277.868C190.103 277.564 191.898 277.358 193.701 277.252C194.909 273.824 196.212 270.354 197.561 266.887C208.548 237.444 228.835 212.385 255.346 195.509Z" fill="url(#paint10_linear_451_51417)"/>
                <path d="M255.805 196.306C262.908 192.036 270.725 189.087 278.878 187.6C281.816 187.118 284.794 186.925 287.77 187.023C292.08 187.139 296.336 188.011 300.345 189.598C304.525 191.261 308.49 193.419 312.155 196.027C313.889 197.27 315.542 198.623 317.103 200.077C317.416 200.367 317.73 200.659 318.036 200.96C322.2 199.065 326.629 197.818 331.17 197.262C332.669 197.096 334.178 197.035 335.686 197.08C338.632 197.155 341.545 197.715 344.31 198.735C348.813 200.403 352.989 202.848 356.649 205.958C357.481 206.669 358.275 207.412 359.032 208.187C360.541 207.398 362.037 206.682 363.505 206.022C367.468 204.146 371.786 203.138 376.169 203.065C379.914 203.012 383.602 203.974 386.843 205.85C390.083 207.727 392.754 210.447 394.571 213.721C397.759 219.401 399.32 225.85 399.082 232.359C398.368 244.499 394.795 256.299 388.655 266.797C382.516 277.294 373.983 286.193 363.751 292.767L176.924 400.631C174.233 402.195 171.439 403.574 168.561 404.759C163.593 406.884 158.258 408.021 152.855 408.104C146.391 408.131 140.105 405.989 135.003 402.019C129.902 398.05 126.28 392.482 124.719 386.21C123.015 380.665 122.214 374.883 122.347 369.084C123.306 352.237 128.241 335.857 136.748 321.284C145.256 306.712 157.095 294.362 171.295 285.245C175.721 282.619 180.506 280.651 185.498 279.402C186.089 279.264 186.676 279.141 187.259 279.033C187.778 278.938 188.293 278.85 188.805 278.767C190.627 278.475 192.423 278.257 194.182 278.123C195.499 274.789 196.871 271.342 198.203 267.862C209.055 238.349 229.291 213.211 255.805 196.306Z" fill="url(#paint11_linear_451_51417)"/>
                <path d="M256.266 197.1C263.35 192.834 271.161 189.911 279.305 188.479C282.239 188.022 285.212 187.868 288.177 188.019C292.446 188.212 296.644 189.183 300.564 190.885C304.664 192.679 308.6 194.825 312.329 197.299C314.063 198.465 315.736 199.718 317.343 201.052C317.662 201.316 317.984 201.578 318.298 201.851C322.442 199.947 326.859 198.704 331.389 198.167C332.886 198.01 334.392 197.965 335.896 198.032C338.812 198.151 341.683 198.783 344.379 199.9C348.788 201.727 352.924 204.153 356.671 207.109C357.517 207.782 358.326 208.479 359.099 209.199C360.609 208.43 362.105 207.719 363.563 207.04C367.489 205.108 371.791 204.064 376.166 203.983C379.82 203.941 383.413 204.917 386.545 206.8C389.677 208.682 392.223 211.399 393.9 214.646C396.907 220.249 398.352 226.558 398.083 232.911C397.3 244.788 393.745 256.317 387.704 266.573C381.662 276.829 373.303 285.527 363.294 291.971L176.832 399.624C174.148 401.183 171.367 402.567 168.505 403.768C163.568 405.931 158.251 407.093 152.862 407.185C146.509 407.17 140.348 405.006 135.381 401.044C130.415 397.083 126.935 391.557 125.508 385.366C123.893 379.895 123.157 374.202 123.328 368.5C124.368 351.92 129.294 335.818 137.706 321.493C146.119 307.169 157.783 295.024 171.756 286.04C176.179 283.405 180.975 281.454 185.982 280.256C186.572 280.124 187.161 280.011 187.744 279.913C188.262 279.826 188.778 279.743 189.29 279.665C191.115 279.388 192.912 279.161 194.666 278.994C196.091 275.753 197.53 272.33 198.845 268.835C209.564 239.253 229.748 214.036 256.266 197.1Z" fill="url(#paint12_linear_451_51417)"/>
                <path d="M256.723 197.897C263.785 193.627 271.59 190.731 279.728 189.36C282.658 188.928 285.625 188.813 288.58 189.016C292.809 189.287 296.949 190.358 300.778 192.173C304.798 194.094 308.711 196.231 312.501 198.573C314.299 199.696 315.987 200.874 317.578 202.03C317.904 202.267 318.234 202.5 318.556 202.745C322.679 200.827 327.085 199.588 331.603 199.074C333.098 198.923 334.603 198.894 336.103 198.985C338.99 199.147 341.82 199.854 344.444 201.067C348.756 203.051 352.857 205.461 356.689 208.261C357.549 208.897 358.373 209.548 359.162 210.212C360.673 209.464 362.169 208.757 363.617 208.06C367.505 206.073 371.793 204.993 376.158 204.901C379.723 204.874 383.222 205.863 386.245 207.753C389.267 209.643 391.689 212.355 393.225 215.572C396.052 221.097 397.382 227.267 397.08 233.466C396.228 245.08 392.691 256.337 386.748 266.352C380.805 276.366 372.618 284.864 362.832 291.177L176.736 398.619C174.059 400.172 171.29 401.561 168.445 402.779C163.539 404.979 158.24 406.166 152.864 406.267C146.621 406.21 140.585 404.024 135.753 400.07C130.922 396.116 127.584 390.632 126.293 384.524C124.766 379.127 124.095 373.523 124.304 367.918C125.427 351.606 130.342 335.782 138.66 321.706C146.977 307.63 158.466 295.69 172.212 286.837C176.633 284.195 181.441 282.263 186.461 281.112C187.053 280.987 187.642 280.883 188.223 280.794C188.743 280.716 189.258 280.639 189.771 280.565C191.599 280.303 193.398 280.065 195.145 279.865C196.68 276.718 198.184 273.32 199.484 269.811C210.068 240.159 230.202 214.864 256.723 197.897Z" fill="url(#paint13_linear_451_51417)"/>
                <path d="M257.183 198.696C264.226 194.428 272.025 191.558 280.154 190.244C283.081 189.836 286.043 189.76 288.987 190.017C293.178 190.361 297.26 191.533 300.996 193.464C304.868 195.484 308.898 197.667 312.675 199.85C314.493 200.906 316.206 201.992 317.817 203.011C318.15 203.22 318.488 203.424 318.817 203.642C322.92 201.713 327.315 200.477 331.822 199.983C333.315 199.842 334.817 199.828 336.312 199.942C339.172 200.15 341.961 200.93 344.514 202.236C348.725 204.374 352.798 206.772 356.71 209.416C357.585 210.015 358.424 210.619 359.229 211.228C360.742 210.501 362.236 209.797 363.674 209.083C367.524 207.041 371.797 205.925 376.154 205.823C379.631 205.81 383.036 206.814 385.95 208.711C388.864 210.609 391.159 213.317 392.554 216.502C395.209 221.944 396.424 227.977 396.081 234.023C395.17 245.376 391.656 256.366 385.811 266.141C379.965 275.915 371.945 284.211 362.374 290.384L176.644 397.616C173.974 399.164 171.217 400.559 168.388 401.792C163.514 404.03 158.232 405.241 152.869 405.353C146.736 405.252 140.825 403.044 136.128 399.098C131.432 395.152 128.237 389.709 127.081 383.685C125.643 378.361 125.037 372.847 125.284 367.337C126.489 351.294 131.395 335.749 139.617 321.92C147.839 308.092 159.153 296.357 172.672 287.636C177.092 284.988 181.911 283.074 186.943 281.97C187.537 281.852 188.127 281.756 188.708 281.677L190.255 281.467C192.087 281.221 193.887 280.972 195.629 280.74C197.363 277.534 198.867 274.209 200.127 270.789C210.576 241.069 230.658 215.693 257.183 198.696Z" fill="url(#paint14_linear_451_51417)"/>
                <path d="M257.649 199.488C264.671 195.221 272.465 192.377 280.586 191.12C283.508 190.737 286.466 190.699 289.397 191.009C293.553 191.429 297.578 192.701 301.219 194.747C304.993 196.885 309.031 199.074 312.854 201.12C314.694 202.11 316.43 203.103 318.061 203.983C318.401 204.167 318.746 204.34 319.082 204.53C323.167 202.592 327.55 201.359 332.045 200.885C333.536 200.752 335.036 200.754 336.526 200.891C339.361 201.143 342.11 201.998 344.588 203.398C348.564 205.638 352.852 208.114 356.736 210.564C357.625 211.125 358.482 211.682 359.299 212.237C360.814 211.529 362.307 210.83 363.737 210.098C367.549 208.003 371.807 206.85 376.155 206.737C379.545 206.74 382.857 207.76 385.662 209.665C388.467 211.57 390.635 214.273 391.887 217.424C394.365 222.785 395.465 228.68 395.086 234.573C394.109 245.662 390.614 256.382 384.866 265.915C379.119 275.449 371.271 283.544 361.92 289.585L176.556 396.605C173.893 398.149 171.149 399.548 168.336 400.797C163.494 403.072 158.229 404.309 152.881 404.43C146.856 404.287 141.068 402.055 136.507 398.117C131.946 394.178 128.895 388.778 127.874 382.839C126.525 377.588 125.984 372.163 126.269 366.75C127.555 350.976 132.451 335.708 140.578 322.128C148.704 308.547 159.845 297.017 173.138 288.428C177.555 285.773 182.387 283.878 187.432 282.821C188.026 282.711 188.616 282.623 189.196 282.552C189.717 282.491 190.232 282.427 190.744 282.362C192.58 282.131 194.381 281.872 196.116 281.607C197.975 278.478 199.534 275.181 200.774 271.759C211.088 241.971 231.12 216.516 257.649 199.488Z" fill="url(#paint15_linear_451_51417)"/>
                <path d="M258.101 200.282C265.104 196.016 272.893 193.199 281.005 191.999C283.924 191.639 286.877 191.641 289.797 192.004C293.918 192.498 297.885 193.872 301.429 196.033C305.107 198.288 309.151 200.481 313.021 202.391C314.881 203.315 316.643 204.214 318.292 204.958C318.639 205.115 318.992 205.259 319.337 205.421C323.401 203.473 327.772 202.244 332.256 201.789C333.745 201.664 335.243 201.682 336.729 201.843C339.54 202.139 342.248 203.068 344.649 204.562C348.503 206.944 352.802 209.427 356.75 211.714C357.653 212.237 358.525 212.748 359.358 213.247C360.874 212.561 362.366 211.863 363.786 211.115C367.56 208.967 371.803 207.778 376.143 207.652C379.448 207.673 382.667 208.711 385.362 210.624C388.058 212.537 390.099 215.234 391.208 218.348C393.509 223.625 394.494 229.383 394.079 235.125C393.035 245.95 389.559 256.399 383.91 265.691C378.26 274.984 370.584 282.88 361.454 288.788L176.456 395.597C173.8 397.136 171.069 398.54 168.272 399.805C163.461 402.116 158.214 403.379 152.878 403.51C146.962 403.323 141.298 401.068 136.872 397.137C132.446 393.206 129.539 387.847 128.655 381.994C127.395 376.818 126.919 371.482 127.241 366.164C128.609 350.659 133.495 335.671 141.526 322.338C149.558 309.005 160.524 297.679 173.591 289.221C178.006 286.559 182.85 284.682 187.907 283.674C188.502 283.57 189.093 283.492 189.671 283.431C190.193 283.378 190.709 283.32 191.221 283.259C193.061 283.044 194.862 282.774 196.592 282.476C198.573 279.428 200.19 276.157 201.409 272.732C211.588 242.876 231.568 217.341 258.101 200.282Z" fill="url(#paint16_linear_451_51417)"/>
                <path d="M258.567 201.082C265.551 196.817 273.334 194.027 281.437 192.883C284.354 192.547 287.302 192.588 290.208 193.005C294.297 193.575 298.207 195.051 301.653 197.325C305.331 199.736 309.192 201.857 313.2 203.668C315.082 204.527 316.871 205.33 318.536 205.939C318.892 206.068 319.251 206.183 319.603 206.317C323.648 204.359 328.007 203.134 332.48 202.699C333.967 202.581 335.463 202.615 336.944 202.799C339.734 203.141 342.402 204.146 344.723 205.731C348.615 208.318 352.638 210.701 356.777 212.869C357.694 213.355 358.582 213.82 359.43 214.264C360.947 213.598 362.437 212.903 363.849 212.138C367.584 209.939 371.812 208.714 376.144 208.575C379.366 208.614 382.492 209.671 385.078 211.593C387.663 213.514 389.576 216.204 390.542 219.277C392.667 224.47 393.538 230.09 393.085 235.682C391.975 246.242 388.518 256.421 382.967 265.472C377.416 274.524 369.911 282.22 361.002 287.997L176.369 394.594C174.611 395.61 169.942 398.145 168.221 398.819C163.442 401.166 158.213 402.454 152.89 402.595C139.658 402.595 132.282 392.634 129.449 381.155C128.278 376.053 127.866 370.807 128.227 365.585C129.676 350.35 134.551 335.639 142.487 322.554C150.423 309.468 161.215 298.347 174.056 290.021C178.471 287.352 183.327 285.494 188.395 284.533C188.991 284.437 189.582 284.365 190.161 284.314C190.684 284.269 191.198 284.219 191.711 284.162C193.554 283.962 195.357 283.682 197.08 283.351C199.182 280.387 200.858 277.141 202.057 273.71C212.101 243.787 232.03 218.173 258.567 201.082Z" fill="url(#paint17_linear_451_51417)"/>
                <path d="M259.024 201.871C265.989 197.609 273.767 194.845 281.86 193.757C284.775 193.444 287.718 193.525 290.611 193.996C294.669 194.643 298.522 196.22 301.868 198.606C305.456 201.137 309.314 203.26 313.372 204.936C315.132 205.698 316.936 206.357 318.773 206.91C319.136 207.012 319.502 207.098 319.861 207.204C323.886 205.236 328.234 204.015 332.695 203.599C334.182 203.489 335.675 203.539 337.151 203.747C339.922 204.134 342.549 205.216 344.789 206.891C348.568 209.623 352.587 212.007 356.795 214.015C357.728 214.464 358.63 214.882 359.493 215.271C361 214.642 362.472 213.935 363.904 213.152C367.6 210.902 371.813 209.64 376.138 209.487C379.277 209.547 382.311 210.624 384.787 212.555C387.262 214.486 389.045 217.167 389.868 220.197C391.817 225.303 392.574 230.787 392.082 236.23C390.907 246.525 387.469 256.433 382.016 265.244C376.563 274.054 369.23 281.551 360.541 287.196L176.274 393.582C174.651 394.52 169.75 397.2 168.162 397.823C163.414 400.205 158.202 401.519 152.893 401.672C139.795 401.672 132.835 391.492 130.235 380.307C129.148 375.28 128.8 370.122 129.204 364.996C130.721 350.027 135.58 335.59 143.422 322.751C151.264 309.911 161.889 298.996 174.513 290.811C178.927 288.135 183.795 286.294 188.875 285.382C189.472 285.293 190.064 285.23 190.642 285.189C191.165 285.151 191.68 285.107 192.192 285.055C193.995 284.873 195.787 284.593 197.56 284.216C199.782 281.339 201.517 278.117 202.697 274.678C212.605 244.688 232.484 218.994 259.024 201.871Z" fill="url(#paint18_linear_451_51417)"/>
                <path d="M259.478 202.665C266.424 198.405 274.196 195.668 282.28 194.636C285.193 194.347 288.131 194.467 291.011 194.991C295.039 195.716 298.835 197.396 302.079 199.892C305.573 202.541 309.434 204.668 313.54 206.208C315.314 206.91 317.142 207.471 319.005 207.885C319.376 207.96 319.749 208.017 320.115 208.095C324.121 206.118 328.458 204.9 332.907 204.503C334.392 204.401 335.884 204.467 337.354 204.698C340.107 205.133 342.694 206.292 344.852 208.056C348.516 210.93 352.535 213.319 356.81 215.165C357.757 215.577 358.674 215.949 359.553 216.282C361.064 215.673 362.534 214.967 363.955 214.17C367.612 211.871 371.81 210.572 376.127 210.404C379.185 210.488 382.128 211.586 384.493 213.527C386.858 215.467 388.51 218.139 389.19 221.122C390.964 226.14 391.609 231.487 391.076 236.783C389.834 246.812 386.416 256.448 381.062 265.018C375.707 273.588 368.545 280.885 360.076 286.399L176.175 392.575C174.687 393.434 169.555 396.261 168.098 396.832C163.382 399.249 158.188 400.588 152.891 400.752C139.928 400.752 133.387 390.355 131.017 379.462C130.019 374.511 129.736 369.442 130.177 364.411C131.774 349.713 136.622 335.554 144.369 322.961C152.116 310.369 162.568 299.658 174.967 291.605C179.379 288.922 184.26 287.1 189.352 286.236C189.95 286.154 190.542 286.099 191.119 286.068C191.643 286.038 192.158 286.001 192.669 285.953C194.476 285.786 196.269 285.496 198.036 285.086C200.376 282.3 202.172 279.1 203.332 275.651C213.106 245.594 232.933 219.82 259.478 202.665Z" fill="url(#paint19_linear_451_51417)"/>
                <path d="M259.938 203.468C266.865 199.208 274.632 196.497 282.706 195.523C285.617 195.256 288.551 195.415 291.417 195.995C295.417 196.797 299.156 198.581 302.297 201.185C305.696 203.95 309.563 206.084 313.713 207.487C315.506 208.131 317.359 208.594 319.244 208.868C319.623 208.915 320.002 208.944 320.377 208.995C324.362 207.007 328.688 205.793 333.125 205.415C334.609 205.321 336.099 205.402 337.563 205.657C340.3 206.14 342.848 207.377 344.92 209.228C348.467 212.241 352.493 214.639 356.831 216.323C357.792 216.697 358.725 217.023 359.619 217.301C361.134 216.71 362.602 216.006 364.011 215.195C367.63 212.848 371.812 211.512 376.122 211.327C382.134 211.327 386.232 215.164 388.518 222.054C390.119 226.982 390.65 232.194 390.076 237.343C388.768 247.105 385.37 256.471 380.113 264.8C374.857 273.13 367.866 280.228 359.617 285.61L176.082 391.575C174.729 392.356 169.365 395.329 168.042 395.848C163.358 398.3 158.181 399.664 152.897 399.84C140.067 399.84 133.947 389.224 131.804 378.627C130.897 373.75 130.679 368.77 131.156 363.833C132.834 349.406 137.67 335.526 145.322 323.18C152.974 310.835 163.253 300.328 175.427 292.407C179.838 289.716 184.732 287.912 189.834 287.097C190.433 287.022 191.026 286.976 191.602 286.953C192.127 286.932 192.642 286.902 193.153 286.857C194.963 286.706 196.758 286.407 198.519 285.964C200.974 283.272 202.833 280.092 203.975 276.632C213.612 246.509 233.388 220.654 259.938 203.468Z" fill="url(#paint20_linear_451_51417)"/>
                <path d="M260.397 204.265C267.305 200.006 275.067 197.322 283.131 196.404C286.041 196.161 288.972 196.36 291.823 196.993C295.796 197.876 299.477 199.763 302.513 202.474C305.815 205.353 309.692 207.497 313.887 208.762C315.701 209.347 317.58 209.711 319.481 209.846C319.869 209.865 320.255 209.866 320.637 209.889C324.602 207.892 328.917 206.681 333.343 206.323C334.825 206.235 336.313 206.333 337.772 206.612C340.494 207.144 343.002 208.459 344.988 210.396C348.414 213.546 352.452 215.956 356.851 217.476C357.827 217.813 358.775 218.092 359.684 218.315C361.204 217.744 362.67 217.041 364.068 216.216C367.648 213.821 371.814 212.449 376.117 212.247C381.905 212.247 385.763 216.065 387.845 222.982C389.274 227.817 389.693 232.894 389.076 237.898C387.702 247.393 384.324 256.488 379.166 264.577C374.007 272.666 367.187 279.565 359.158 284.816L175.988 390.57C174.771 391.272 169.176 394.392 167.984 394.86C163.332 397.346 158.173 398.736 152.902 398.924C140.205 398.924 134.508 388.088 132.592 377.785C131.774 372.985 131.621 368.094 132.136 363.252C133.893 349.096 138.718 335.494 146.274 323.396C153.831 311.297 163.937 300.994 175.887 293.204C180.296 290.506 185.203 288.72 190.316 287.954C190.916 287.886 191.509 287.849 192.085 287.835C192.611 287.824 193.125 287.797 193.637 287.758C195.45 287.622 197.246 287.313 199.001 286.836C201.569 284.243 203.493 281.082 204.616 277.609C214.117 247.419 233.842 221.484 260.397 204.265Z" fill="url(#paint21_linear_451_51417)"/>
                <path d="M260.857 205.058C267.747 200.801 275.504 198.143 283.557 197.282C286.467 197.061 289.393 197.299 292.228 197.987C296.177 198.952 299.8 200.943 302.731 203.759C305.934 206.751 309.825 208.906 314.061 210.032C315.889 210.613 317.803 210.879 319.72 210.82C320.115 210.785 320.508 210.783 320.897 210.779C324.843 208.773 329.147 207.566 333.56 207.226C335.042 207.146 336.528 207.259 337.981 207.562C340.691 208.145 343.158 209.539 345.057 211.559C348.359 214.844 352.416 217.271 356.872 218.626C357.818 218.913 358.779 219.146 359.75 219.325C361.274 218.772 362.739 218.072 364.125 217.233C367.667 214.791 371.817 213.382 376.113 213.162C381.677 213.162 385.3 216.96 387.174 223.905C388.431 228.646 388.738 233.589 388.076 238.449C386.636 247.676 383.278 256.499 378.219 264.348C373.159 272.197 366.509 278.898 358.7 284.018L175.896 389.561C174.813 390.185 168.986 393.452 167.927 393.866C163.307 396.387 158.166 397.802 152.907 398.002C140.344 398.002 135.073 386.947 133.38 376.94C132.653 372.215 132.564 367.414 133.115 362.666C134.951 348.782 139.765 335.459 147.227 323.607C154.688 311.756 164.621 301.656 176.347 293.998C180.755 291.291 185.675 289.524 190.798 288.806C191.4 288.746 191.993 288.717 192.568 288.712C193.094 288.709 193.61 288.689 194.12 288.655C195.937 288.533 197.735 288.215 199.483 287.705C202.163 285.212 204.152 282.069 205.258 278.58C214.623 248.325 234.297 222.31 260.857 205.058Z" fill="url(#paint22_linear_451_51417)"/>
                <path d="M261.318 205.853C268.189 201.597 275.941 198.966 283.984 198.161C286.893 197.964 289.815 198.241 292.635 198.984C296.559 200.031 300.125 202.127 302.949 205.046C306.05 208.15 309.961 210.319 314.235 211.305C316.105 211.773 318.037 211.939 319.959 211.797C320.363 211.757 320.762 211.704 321.159 211.671C325.085 209.656 329.378 208.452 333.779 208.131C335.261 208.059 336.745 208.188 338.191 208.515C340.889 209.151 343.317 210.624 345.126 212.724C348.301 216.142 352.382 218.587 356.893 219.776C358.112 220.334 359.477 220.486 360.788 220.212C362.1 219.938 363.289 219.251 364.182 218.252C367.685 215.765 371.819 214.319 376.109 214.08C381.449 214.08 384.841 217.856 386.502 224.83C387.591 229.475 387.785 234.285 387.076 239.002C385.572 247.961 382.234 256.512 377.272 264.121C372.311 271.73 365.832 278.233 358.241 283.222L175.803 388.554C174.856 389.101 168.797 392.513 167.87 392.876C163.283 395.43 158.159 396.871 152.913 397.084C140.484 397.084 135.642 385.808 134.169 376.097C133.532 371.448 133.507 366.736 134.095 362.082C136.011 348.471 140.813 335.426 148.179 323.821C155.545 312.217 165.305 302.32 176.807 294.793C181.214 292.078 186.148 290.329 191.282 289.661C191.883 289.608 192.477 289.587 193.052 289.592C193.579 289.597 194.094 289.584 194.605 289.553C196.425 289.447 198.225 289.119 199.966 288.575C202.754 286.187 204.811 283.06 205.9 279.554C215.13 249.234 234.752 223.138 261.318 205.853Z" fill="url(#paint23_linear_451_51417)"/>
                <path d="M261.78 206.647C268.633 202.392 276.38 199.787 284.412 199.039C287.321 198.864 290.239 199.181 293.043 199.978C296.945 201.11 300.452 203.311 303.169 206.331C306.166 209.544 310.1 211.73 314.411 212.577C316.314 212.983 318.274 213.049 320.201 212.771C320.612 212.702 321.018 212.622 321.422 212.561C325.329 210.537 329.61 209.337 334 209.035C335.481 208.969 336.963 209.114 338.403 209.466C341.091 210.156 343.478 211.71 345.197 213.888C348.243 217.436 352.354 219.904 356.917 220.925C357.894 221.143 358.887 221.284 359.886 221.347C361.416 220.832 362.879 220.134 364.242 219.269C367.706 216.738 371.824 215.254 376.107 214.995C381.224 214.995 384.389 218.75 385.833 225.754C386.754 230.301 386.837 234.977 386.079 239.554C384.509 248.242 381.192 256.522 376.329 263.891C371.465 271.26 365.157 277.565 357.785 282.425L175.713 387.546C174.901 388.014 168.611 391.572 167.816 391.883C163.261 394.47 158.155 395.937 152.921 396.163C140.626 396.163 136.215 384.667 134.959 375.252C134.414 370.68 134.454 366.057 135.077 361.496C137.072 348.158 141.862 335.392 149.133 324.034C156.404 312.676 165.992 302.982 177.269 295.587C181.676 292.863 186.623 291.132 191.767 290.514C192.37 290.468 192.964 290.456 193.537 290.469C194.065 290.483 194.581 290.475 195.091 290.45C196.915 290.359 198.718 290.02 200.452 289.444C203.345 287.162 205.471 284.051 206.545 280.526C216.015 249.738 237.748 220.521 261.78 206.647Z" fill="url(#paint24_linear_451_51417)"/>
                <path d="M262.235 207.44C269.07 203.187 276.813 200.609 284.834 199.917C287.744 199.764 290.658 200.122 293.445 200.973C297.324 202.192 300.773 204.497 303.383 207.616C306.273 210.938 310.235 213.143 314.582 213.848C316.521 214.192 318.509 214.158 320.435 213.746C320.855 213.647 321.267 213.54 321.678 213.453C325.566 211.419 329.836 210.222 334.214 209.939C335.694 209.88 337.175 210.042 338.608 210.417C341.287 211.164 343.632 212.798 345.261 215.052C348.175 218.727 352.322 221.222 356.933 222.075C357.928 222.258 358.936 222.352 359.947 222.358C361.481 221.861 362.943 221.165 364.295 220.286C367.72 217.711 371.822 216.191 376.098 215.911C380.992 215.911 383.935 219.644 385.157 226.678C385.911 231.125 385.883 235.669 385.075 240.106C383.44 248.524 380.144 256.531 375.379 263.661C370.614 270.79 364.475 276.898 357.322 281.627L175.616 386.537C174.939 386.928 168.417 390.632 167.755 390.891C163.232 393.511 158.144 395.004 152.922 395.243C140.761 395.243 136.785 383.526 135.744 374.407C135.294 369.913 135.398 365.38 136.053 360.911C138.138 347.851 142.92 335.368 150.095 324.258C157.269 313.148 166.679 303.653 177.725 296.38C182.132 293.649 187.092 291.936 192.245 291.367C192.835 291.33 193.426 291.323 194.016 291.347C194.545 291.369 195.06 291.368 195.571 291.346C197.399 291.271 199.205 290.922 200.93 290.313C203.926 288.141 206.123 285.044 207.183 281.498C216.489 250.669 238.226 221.301 262.235 207.44Z" fill="url(#paint25_linear_451_51417)"/>
                <path d="M262.693 208.238C269.51 203.985 277.249 201.434 285.258 200.8C288.169 200.669 291.079 201.066 293.849 201.971C297.707 203.279 301.097 205.69 303.598 208.905C306.38 212.334 310.374 214.561 314.753 215.123C316.732 215.403 318.747 215.267 320.671 214.725C321.098 214.596 321.518 214.463 321.937 214.347C325.804 212.304 330.063 211.111 334.429 210.846C335.91 210.794 337.389 210.971 338.815 211.372C341.487 212.175 343.792 213.891 345.327 216.22C346.703 218.101 348.439 219.69 350.435 220.893C352.431 222.096 354.647 222.89 356.953 223.229C357.965 223.376 358.989 223.424 360.011 223.372C361.548 222.894 363.009 222.199 364.35 221.307C367.737 218.69 371.822 217.133 376.091 216.831C380.761 216.831 383.489 220.541 384.483 227.605C385.073 231.95 384.934 236.363 384.072 240.662C380.641 257.111 370.864 271.546 356.861 280.834L175.521 385.533C174.979 385.845 168.226 389.695 167.696 389.903C163.205 392.555 158.135 394.074 152.925 394.326C140.897 394.326 137.36 382.388 136.529 373.566C136.172 369.15 136.34 364.706 137.03 360.329C139.192 347.543 143.962 335.339 151.042 324.475C158.121 313.611 167.36 304.32 178.183 297.178C182.588 294.438 187.563 292.743 192.725 292.224C193.316 292.194 193.907 292.196 194.497 292.229C195.027 292.26 195.542 292.265 196.052 292.247C197.884 292.187 199.694 291.828 201.41 291.186C204.506 289.126 206.776 286.042 207.823 282.475C216.965 251.605 238.706 222.086 262.693 208.238Z" fill="url(#paint26_linear_451_51417)"/>
                <path d="M263.159 209.036C269.96 204.79 277.694 202.266 285.69 201.683C288.602 201.576 291.508 202.013 294.26 202.971C298.098 204.369 301.429 206.886 303.821 210.196C305.142 211.944 306.812 213.398 308.725 214.465C310.638 215.533 312.752 216.192 314.932 216.399C316.954 216.613 318.997 216.375 320.915 215.704C321.349 215.546 321.777 215.386 322.204 215.242C326.053 213.194 330.3 212.004 334.654 211.755C336.134 211.711 337.611 211.904 339.03 212.328C341.694 213.192 343.957 214.989 345.402 217.388C346.706 219.326 348.418 220.957 350.418 222.165C352.417 223.373 354.657 224.13 356.98 224.383C358.011 224.494 359.051 224.496 360.083 224.388C361.623 223.928 363.083 223.233 364.412 222.329C367.761 219.671 371.829 218.076 376.093 217.752C380.539 217.752 383.057 221.441 383.817 228.534C384.245 232.774 383.996 237.056 383.078 241.217C379.519 257.11 369.966 271.017 356.409 280.041L175.434 384.529C175.028 384.764 168.042 388.759 167.645 388.915C163.186 391.6 158.134 393.144 152.936 393.411C141.042 393.411 137.946 381.252 137.323 372.726C137.058 368.388 137.29 364.033 138.015 359.748C140.255 347.238 145.011 335.312 151.996 324.694C158.98 314.076 168.048 304.986 178.649 297.976C183.054 295.227 188.043 293.551 193.214 293.081C193.805 293.059 194.396 293.069 194.986 293.112C195.517 293.151 196.032 293.162 196.542 293.149C198.378 293.104 200.191 292.735 201.898 292.059C205.09 290.115 207.436 287.043 208.471 283.452C217.449 252.541 239.194 222.872 263.159 209.036Z" fill="url(#paint27_linear_451_51417)"/>
                <path d="M263.615 209.833C270.396 205.585 278.126 203.087 286.111 202.563C289.025 202.476 291.928 202.953 294.662 203.968C298.483 205.452 301.755 208.076 304.034 211.483C305.298 213.278 306.949 214.765 308.865 215.836C310.78 216.908 312.912 217.535 315.102 217.673C317.167 217.817 319.238 217.477 321.149 216.681C321.59 216.492 322.025 216.307 322.46 216.135C326.289 214.076 330.525 212.89 334.867 212.661C336.347 212.623 337.823 212.833 339.235 213.281C341.892 214.208 344.112 216.087 345.466 218.554C346.697 220.548 348.385 222.22 350.389 223.434C352.394 224.648 354.658 225.368 356.995 225.534C358.046 225.61 359.103 225.565 360.144 225.4C361.687 224.959 363.147 224.266 364.465 223.348C367.775 220.65 371.826 219.018 376.083 218.67C380.306 218.67 382.62 222.339 383.14 229.46C383.41 233.594 383.05 237.745 382.074 241.771C378.387 257.104 369.058 270.485 355.945 279.246L175.336 383.523C175.065 383.679 167.848 387.822 167.583 387.925C163.156 390.641 158.122 392.211 152.936 392.493C141.177 392.493 138.525 380.114 138.106 371.884C137.934 367.624 138.23 363.359 138.99 359.164C141.306 346.93 146.049 335.283 152.938 324.911C159.828 314.539 168.724 305.651 179.104 298.772C183.51 296.017 188.512 294.359 193.691 293.936C194.283 293.922 194.875 293.94 195.465 293.992C197.821 294.202 200.192 293.838 202.376 292.931C204.003 292.026 205.435 290.809 206.59 289.35C207.745 287.89 208.601 286.217 209.108 284.427C217.922 253.475 239.672 223.655 263.615 209.833Z" fill="url(#paint28_linear_451_51417)"/>
                <path d="M264.076 210.625C270.839 206.377 278.565 203.905 286.538 203.44C289.455 203.376 292.355 203.893 295.069 204.962C298.869 206.544 302.079 209.273 304.253 212.768C305.457 214.609 307.088 216.133 309.007 217.208C310.927 218.283 313.078 218.879 315.277 218.943C317.389 219.015 319.486 218.573 321.389 217.655C321.837 217.437 322.28 217.224 322.722 217.025C326.531 214.957 330.757 213.774 335.086 213.564C336.567 213.533 338.042 213.759 339.445 214.231C342.096 215.224 344.272 217.184 345.536 219.717C346.693 221.764 348.357 223.48 350.367 224.7C352.378 225.92 354.668 226.603 357.018 226.683C358.09 226.722 359.162 226.63 360.211 226.41C361.757 225.986 363.217 225.294 364.523 224.365C367.793 221.622 371.828 219.953 376.08 219.585C380.08 219.585 382.197 223.236 382.47 230.382C382.579 234.409 382.11 238.43 381.075 242.323C377.254 257.09 368.15 269.943 355.488 278.448L175.245 382.513C175.109 382.592 167.66 386.88 167.528 386.932C163.134 389.68 158.118 391.275 152.944 391.572C141.318 391.572 139.114 378.973 138.896 371.039C138.816 366.859 139.176 362.683 139.971 358.579C142.363 346.621 147.092 335.252 153.886 325.125C160.681 314.999 169.407 306.312 179.565 299.565C183.97 296.8 188.988 295.16 194.176 294.789C194.768 294.781 195.36 294.808 195.949 294.869C196.467 294.923 196.987 294.948 197.507 294.944C199.35 294.929 201.172 294.539 202.86 293.799C204.529 292.954 206.004 291.771 207.19 290.324C208.377 288.878 209.249 287.2 209.752 285.398C218.402 254.406 240.155 224.435 264.076 210.625Z" fill="url(#paint29_linear_451_51417)"/>
                <path d="M152.947 390.652C141.456 390.652 139.703 377.837 139.683 370.195C140.54 356.225 144.63 342.646 151.63 330.527C158.631 318.408 168.351 308.081 180.024 300.36C184.428 297.584 189.46 295.961 194.657 295.643C195.25 295.642 195.843 295.677 196.432 295.747C199.496 296.12 202.593 295.378 205.156 293.657C207.72 291.936 209.578 289.35 210.392 286.372C218.879 255.338 240.637 225.217 264.534 211.42C271.279 207.171 279.002 204.725 286.963 204.319C290.492 204.188 293.989 205.026 297.075 206.742C300.162 208.459 302.719 210.987 304.469 214.054C306.192 216.877 308.936 218.928 312.131 219.781C315.326 220.633 318.727 220.221 321.627 218.631C325.777 216.146 330.473 214.717 335.303 214.469C337.468 214.367 339.612 214.926 341.452 216.072C343.291 217.217 344.739 218.895 345.603 220.882C346.454 222.527 347.65 223.968 349.109 225.108C350.568 226.248 352.256 227.06 354.058 227.487C355.86 227.914 357.733 227.947 359.548 227.584C361.364 227.221 363.08 226.47 364.579 225.383C367.815 222.608 371.83 220.903 376.074 220.502C379.85 220.502 381.776 224.138 381.797 231.308C381.158 240.561 378.415 249.546 373.776 257.578C369.137 265.609 362.724 272.475 355.028 277.652L167.47 385.941C163.108 388.719 158.11 390.341 152.947 390.652Z" fill="url(#paint30_linear_451_51417)"/>
            </g>
        </g>
        <path d="M294.488 256.1C292.857 254.62 290.933 253.498 288.841 252.806C286.75 252.115 284.536 251.87 282.344 252.086C281.922 252.112 281.51 252.22 281.13 252.404C280.751 252.589 280.411 252.847 280.131 253.163C279.851 253.479 279.636 253.847 279.499 254.246C279.361 254.645 279.303 255.067 279.329 255.488C279.354 255.91 279.462 256.322 279.647 256.702C279.832 257.081 280.089 257.421 280.405 257.701C280.721 257.981 281.089 258.196 281.488 258.333C281.887 258.471 282.309 258.529 282.731 258.503C284.047 258.356 285.379 258.482 286.644 258.874C287.909 259.266 289.079 259.916 290.08 260.781C291.224 262.041 292.1 263.52 292.653 265.129C293.206 266.738 293.425 268.442 293.296 270.139C292.501 277.906 289.899 285.38 285.699 291.962C281.499 298.544 275.817 304.052 269.107 308.046C266.813 309.787 264.114 310.916 261.264 311.327C258.413 311.737 255.505 311.416 252.813 310.392C251.188 309.207 249.901 307.618 249.08 305.783C248.259 303.947 247.932 301.928 248.132 299.927C249.049 289.094 253.689 278.912 261.265 271.114C261.55 270.803 261.77 270.438 261.914 270.041C262.058 269.644 262.122 269.223 262.103 268.801C262.084 268.379 261.982 267.965 261.803 267.583C261.624 267.201 261.371 266.857 261.06 266.573C260.748 266.288 260.383 266.067 259.986 265.924C259.589 265.78 259.168 265.715 258.746 265.735C258.325 265.754 257.911 265.856 257.528 266.034C257.146 266.213 256.803 266.466 256.518 266.778C247.825 275.735 242.577 287.476 241.702 299.927C241.449 303.063 242.049 306.209 243.439 309.032C244.829 311.855 246.957 314.249 249.598 315.96C252.102 317.363 254.933 318.077 257.803 318.029C262.944 317.843 267.948 316.322 272.322 313.614C280.014 309.065 286.512 302.748 291.278 295.188C296.044 287.628 298.94 279.041 299.727 270.139C299.871 267.564 299.479 264.987 298.578 262.571C297.676 260.155 296.284 257.952 294.488 256.1Z" fill="url(#paint31_linear_451_51417)"/>
        <path d="M270.717 291.448C268.941 292.473 267.502 291.865 267.502 290.089V254.617C267.604 253.579 267.948 252.579 268.506 251.698C269.064 250.818 269.821 250.08 270.717 249.545C272.492 248.519 273.932 249.128 273.932 250.904V286.376C273.83 287.414 273.486 288.414 272.927 289.295C272.369 290.175 271.612 290.913 270.717 291.448Z" fill="url(#paint32_linear_451_51417)"/>
        <path d="M493.471 45.24L417.329 89.2C402.403 97.818 390.303 92.7039 390.303 77.7774C391.16 69.0532 394.052 60.6517 398.746 53.2479C403.44 45.844 409.805 39.6442 417.329 35.1464L493.471 -8.81353C508.397 -17.4316 520.498 -12.3174 520.498 2.60903C519.64 11.3334 516.748 19.7349 512.054 27.1388C507.36 34.5426 500.996 40.7424 493.471 45.24Z" fill="#69989F"/>
        <path d="M127.945 66.782L51.8028 110.742C36.8763 119.36 24.7764 114.246 24.7764 99.3194C25.634 90.5951 28.5258 82.1936 33.2195 74.7897C37.9133 67.3858 44.2782 61.1861 51.8028 56.6884L127.945 12.7285C142.871 4.11038 154.971 9.22453 154.971 24.151C154.113 32.8753 151.222 41.2768 146.528 48.6807C141.834 56.0846 135.469 62.2843 127.945 66.782Z" fill="#69989F"/>
        <path d="M137.802 518.288L61.6602 562.249C46.7337 570.866 34.6338 565.752 34.6338 550.826C35.4913 542.101 38.3832 533.7 43.077 526.296C47.7707 518.893 54.1356 512.693 61.6602 508.196L137.802 464.235C152.728 455.617 164.828 460.732 164.828 475.658C163.971 484.382 161.079 492.784 156.385 500.187C151.691 507.591 145.327 513.791 137.802 518.288Z" fill="#69989F"/>
    </g>
    <defs>
        <linearGradient id="paint0_linear_451_51417" x1="2885.12" y1="180.668" x2="2364" y2="180.668" gradientUnits="userSpaceOnUse">
            <stop stop-color="#19052E" stop-opacity="0"/>
            <stop offset="0.05149" stop-color="#191C41" stop-opacity="0.06398"/>
            <stop offset="0.22229" stop-color="#1F5C65" stop-opacity="0.25626"/>
            <stop offset="0.39171" stop-color="#0491A7" stop-opacity="0.41579"/>
            <stop offset="0.55659" stop-color="#03D9FA" stop-opacity="0.5"/>
            <stop offset="0.7157" stop-color="#03D9FA" stop-opacity="0.62"/>
            <stop offset="0.8664" stop-color="#03D9FA" stop-opacity="0.88"/>
            <stop offset="1" stop-color="#03D9FA"/>
        </linearGradient>
        <linearGradient id="paint1_linear_451_51417" x1="2568" y1="363" x2="2285" y2="363" gradientUnits="userSpaceOnUse">
            <stop stop-color="#19052E" stop-opacity="0"/>
            <stop offset="0.05149" stop-color="#191C41" stop-opacity="0.06398"/>
            <stop offset="0.22229" stop-color="#1F5C65" stop-opacity="0.25626"/>
            <stop offset="0.39171" stop-color="#0491A7" stop-opacity="0.41579"/>
            <stop offset="0.55659" stop-color="#03D9FA" stop-opacity="0.5"/>
            <stop offset="0.7157" stop-color="#03D9FA" stop-opacity="0.62"/>
            <stop offset="0.8664" stop-color="#03D9FA" stop-opacity="0.88"/>
            <stop offset="1" stop-color="#03D9FA"/>
        </linearGradient>
        <linearGradient id="paint2_linear_451_51417" x1="2702" y1="442" x2="2470" y2="442" gradientUnits="userSpaceOnUse">
            <stop stop-color="#19052E" stop-opacity="0"/>
            <stop offset="0.05149" stop-color="#191C41" stop-opacity="0.06398"/>
            <stop offset="0.22229" stop-color="#1F5C65" stop-opacity="0.25626"/>
            <stop offset="0.39171" stop-color="#0491A7" stop-opacity="0.41579"/>
            <stop offset="0.55659" stop-color="#03D9FA" stop-opacity="0.5"/>
            <stop offset="0.7157" stop-color="#03D9FA" stop-opacity="0.62"/>
            <stop offset="0.8664" stop-color="#03D9FA" stop-opacity="0.88"/>
            <stop offset="1" stop-color="#03D9FA"/>
        </linearGradient>
        <linearGradient id="paint3_linear_451_51417" x1="367.407" y1="65.4697" x2="-27.33" y2="216.112" gradientUnits="userSpaceOnUse">
            <stop stop-color="#4A5CFF"/>
            <stop offset="1" stop-color="#1E10DA"/>
        </linearGradient>
        <linearGradient id="paint4_linear_451_51417" x1="367.408" y1="65.4707" x2="-27.3291" y2="216.113" gradientUnits="userSpaceOnUse">
            <stop stop-color="#4A5CFF"/>
            <stop offset="1" stop-color="#1E10DA"/>
        </linearGradient>
        <linearGradient id="paint5_linear_451_51417" x1="300.206" y1="96.8989" x2="82.8896" y2="169.213" gradientUnits="userSpaceOnUse">
            <stop stop-color="#4A5CFF"/>
            <stop offset="1" stop-color="#1E10DA"/>
        </linearGradient>
        <linearGradient id="paint6_linear_451_51417" x1="351.379" y1="137.81" x2="262.36" y2="172.493" gradientUnits="userSpaceOnUse">
            <stop stop-color="#4A5CFF"/>
            <stop offset="1" stop-color="#1E10DA"/>
        </linearGradient>
        <linearGradient id="paint7_linear_451_51417" x1="391.75" y1="123.046" x2="293.729" y2="139.905" gradientUnits="userSpaceOnUse">
            <stop stop-color="#4A5CFF"/>
            <stop offset="1" stop-color="#1E10DA"/>
        </linearGradient>
        <linearGradient id="paint8_linear_451_51417" x1="204.171" y1="185.507" x2="8.24159" y2="238.643" gradientUnits="userSpaceOnUse">
            <stop stop-color="#4A5CFF"/>
            <stop offset="1" stop-color="#1E10DA"/>
        </linearGradient>
        <linearGradient id="paint9_linear_451_51417" x1="374.949" y1="116.61" x2="44.692" y2="241.131" gradientUnits="userSpaceOnUse">
            <stop stop-color="#4A5CFF"/>
            <stop offset="1" stop-color="#1E10DA"/>
        </linearGradient>
        <linearGradient id="paint10_linear_451_51417" x1="374.145" y1="118.192" x2="46.318" y2="241.991" gradientUnits="userSpaceOnUse">
            <stop stop-color="#4A5CFF"/>
            <stop offset="1" stop-color="#1E10DA"/>
        </linearGradient>
        <linearGradient id="paint11_linear_451_51417" x1="373.334" y1="119.747" x2="47.9373" y2="242.808" gradientUnits="userSpaceOnUse">
            <stop stop-color="#4A5CFF"/>
            <stop offset="1" stop-color="#1E10DA"/>
        </linearGradient>
        <linearGradient id="paint12_linear_451_51417" x1="372.526" y1="121.285" x2="49.5522" y2="243.606" gradientUnits="userSpaceOnUse">
            <stop stop-color="#4A5CFF"/>
            <stop offset="1" stop-color="#1E10DA"/>
        </linearGradient>
        <linearGradient id="paint13_linear_451_51417" x1="371.715" y1="122.811" x2="51.1561" y2="244.393" gradientUnits="userSpaceOnUse">
            <stop stop-color="#4A5CFF"/>
            <stop offset="1" stop-color="#1E10DA"/>
        </linearGradient>
        <linearGradient id="paint14_linear_451_51417" x1="370.912" y1="124.327" x2="52.7579" y2="245.171" gradientUnits="userSpaceOnUse">
            <stop stop-color="#4A5CFF"/>
            <stop offset="1" stop-color="#1E10DA"/>
        </linearGradient>
        <linearGradient id="paint15_linear_451_51417" x1="370.114" y1="125.825" x2="54.3584" y2="245.933" gradientUnits="userSpaceOnUse">
            <stop stop-color="#4A5CFF"/>
            <stop offset="1" stop-color="#1E10DA"/>
        </linearGradient>
        <linearGradient id="paint16_linear_451_51417" x1="369.307" y1="127.316" x2="55.9401" y2="246.69" gradientUnits="userSpaceOnUse">
            <stop stop-color="#4A5CFF"/>
            <stop offset="1" stop-color="#1E10DA"/>
        </linearGradient>
        <linearGradient id="paint17_linear_451_51417" x1="368.516" y1="128.804" x2="57.529" y2="247.449" gradientUnits="userSpaceOnUse">
            <stop stop-color="#4A5CFF"/>
            <stop offset="1" stop-color="#1E10DA"/>
        </linearGradient>
        <linearGradient id="paint18_linear_451_51417" x1="367.721" y1="130.275" x2="59.0996" y2="248.198" gradientUnits="userSpaceOnUse">
            <stop stop-color="#4A5CFF"/>
            <stop offset="1" stop-color="#1E10DA"/>
        </linearGradient>
        <linearGradient id="paint19_linear_451_51417" x1="366.928" y1="131.744" x2="60.6638" y2="248.951" gradientUnits="userSpaceOnUse">
            <stop stop-color="#4A5CFF"/>
            <stop offset="1" stop-color="#1E10DA"/>
        </linearGradient>
        <linearGradient id="paint20_linear_451_51417" x1="366.147" y1="133.215" x2="62.2269" y2="249.715" gradientUnits="userSpaceOnUse">
            <stop stop-color="#4A5CFF"/>
            <stop offset="1" stop-color="#1E10DA"/>
        </linearGradient>
        <linearGradient id="paint21_linear_451_51417" x1="365.374" y1="134.675" x2="63.7827" y2="250.479" gradientUnits="userSpaceOnUse">
            <stop stop-color="#4A5CFF"/>
            <stop offset="1" stop-color="#1E10DA"/>
        </linearGradient>
        <linearGradient id="paint22_linear_451_51417" x1="364.61" y1="136.127" x2="65.3318" y2="251.248" gradientUnits="userSpaceOnUse">
            <stop stop-color="#4A5CFF"/>
            <stop offset="1" stop-color="#1E10DA"/>
        </linearGradient>
        <linearGradient id="paint23_linear_451_51417" x1="363.859" y1="137.577" x2="66.8731" y2="252.031" gradientUnits="userSpaceOnUse">
            <stop stop-color="#4A5CFF"/>
            <stop offset="1" stop-color="#1E10DA"/>
        </linearGradient>
        <linearGradient id="paint24_linear_451_51417" x1="363.125" y1="139.021" x2="68.4085" y2="252.828" gradientUnits="userSpaceOnUse">
            <stop stop-color="#4A5CFF"/>
            <stop offset="1" stop-color="#1E10DA"/>
        </linearGradient>
        <linearGradient id="paint25_linear_451_51417" x1="362.402" y1="140.462" x2="69.9299" y2="253.644" gradientUnits="userSpaceOnUse">
            <stop stop-color="#4A5CFF"/>
            <stop offset="1" stop-color="#1E10DA"/>
        </linearGradient>
        <linearGradient id="paint26_linear_451_51417" x1="361.703" y1="141.905" x2="71.4391" y2="254.495" gradientUnits="userSpaceOnUse">
            <stop stop-color="#4A5CFF"/>
            <stop offset="1" stop-color="#1E10DA"/>
        </linearGradient>
        <linearGradient id="paint27_linear_451_51417" x1="361.039" y1="143.347" x2="72.9436" y2="255.38" gradientUnits="userSpaceOnUse">
            <stop stop-color="#4A5CFF"/>
            <stop offset="1" stop-color="#1E10DA"/>
        </linearGradient>
        <linearGradient id="paint28_linear_451_51417" x1="360.398" y1="144.781" x2="74.4227" y2="256.303" gradientUnits="userSpaceOnUse">
            <stop stop-color="#4A5CFF"/>
            <stop offset="1" stop-color="#1E10DA"/>
        </linearGradient>
        <linearGradient id="paint29_linear_451_51417" x1="359.802" y1="146.211" x2="75.8904" y2="257.275" gradientUnits="userSpaceOnUse">
            <stop stop-color="#4A5CFF"/>
            <stop offset="1" stop-color="#1E10DA"/>
        </linearGradient>
        <linearGradient id="paint30_linear_451_51417" x1="359.252" y1="147.627" x2="77.3312" y2="258.292" gradientUnits="userSpaceOnUse">
            <stop stop-color="#4A5CFF"/>
            <stop offset="1" stop-color="#1E10DA"/>
        </linearGradient>
        <linearGradient id="paint31_linear_451_51417" x1="294.345" y1="231.929" x2="221.412" y2="251.323" gradientUnits="userSpaceOnUse">
            <stop stop-color="#33FCFF"/>
            <stop offset="1" stop-color="#00BFC1"/>
        </linearGradient>
        <linearGradient id="paint32_linear_451_51417" x1="273.333" y1="235.999" x2="264.71" y2="236.389" gradientUnits="userSpaceOnUse">
            <stop stop-color="#33FCFF"/>
            <stop offset="1" stop-color="#00BFC1"/>
        </linearGradient>
    </defs>
</svg>
