<svg width="33" height="33" viewBox="0 0 33 33" fill="none" xmlns="http://www.w3.org/2000/svg">
    <path d="M9.46434 11.7228L4.15559 16.1465L9.46434 20.5703C9.54091 20.633 9.60429 20.7103 9.65085 20.7977C9.6974 20.885 9.72619 20.9808 9.73557 21.0793C9.74495 21.1779 9.73472 21.2773 9.70548 21.3719C9.67625 21.4664 9.62857 21.5543 9.56521 21.6304C9.50185 21.7064 9.42406 21.7692 9.33632 21.8151C9.24859 21.8609 9.15264 21.8889 9.05402 21.8975C8.9554 21.9061 8.85605 21.8951 8.76171 21.8651C8.66736 21.8351 8.57989 21.7867 8.50434 21.7228L2.50434 16.7228C2.41984 16.6524 2.35186 16.5643 2.30521 16.4647C2.25856 16.3651 2.23438 16.2565 2.23438 16.1465C2.23438 16.0365 2.25856 15.9279 2.30521 15.8283C2.35186 15.7288 2.41984 15.6406 2.50434 15.5703L8.50434 10.5703C8.65738 10.4448 8.85379 10.385 9.05078 10.4037C9.24776 10.4225 9.42936 10.5183 9.556 10.6703C9.68264 10.8224 9.74407 11.0183 9.7269 11.2154C9.70973 11.4126 9.61536 11.5949 9.46434 11.7228ZM31.4643 15.5703L25.4643 10.5703C25.3888 10.5063 25.3013 10.4579 25.207 10.4279C25.1126 10.3979 25.0133 10.3869 24.9147 10.3955C24.816 10.4041 24.7201 10.4321 24.6323 10.478C24.5446 10.5238 24.4668 10.5866 24.4035 10.6627C24.3401 10.7387 24.2924 10.8266 24.2632 10.9212C24.2339 11.0157 24.2237 11.1152 24.2331 11.2137C24.2425 11.3123 24.2713 11.408 24.3178 11.4954C24.3644 11.5827 24.4278 11.66 24.5043 11.7228L29.8131 16.1465L24.5043 20.5703C24.4278 20.633 24.3644 20.7103 24.3178 20.7977C24.2713 20.885 24.2425 20.9808 24.2331 21.0793C24.2237 21.1779 24.2339 21.2773 24.2632 21.3719C24.2924 21.4664 24.3401 21.5543 24.4035 21.6304C24.4668 21.7064 24.5446 21.7692 24.6323 21.8151C24.7201 21.8609 24.816 21.8889 24.9147 21.8975C25.0133 21.9061 25.1126 21.8951 25.207 21.8651C25.3013 21.8351 25.3888 21.7867 25.4643 21.7228L31.4643 16.7228C31.5488 16.6524 31.6168 16.5643 31.6635 16.4647C31.7101 16.3651 31.7343 16.2565 31.7343 16.1465C31.7343 16.0365 31.7101 15.9279 31.6635 15.8283C31.6168 15.7288 31.5488 15.6406 31.4643 15.5703ZM21.2406 4.44526C21.1479 4.41166 21.0494 4.39667 20.9509 4.40117C20.8523 4.40567 20.7556 4.42956 20.6664 4.47148C20.5771 4.51339 20.4969 4.57251 20.4305 4.64545C20.3641 4.71838 20.3127 4.8037 20.2793 4.89651L12.2793 26.8965C12.2136 27.0835 12.2245 27.2889 12.3098 27.4679C12.3951 27.6468 12.5477 27.7848 12.7343 27.8515C12.8146 27.8803 12.8991 27.8955 12.9843 27.8965C13.1383 27.8965 13.2886 27.8492 13.4147 27.7608C13.5408 27.6725 13.6367 27.5475 13.6893 27.4028L21.6893 5.40276C21.723 5.31018 21.7381 5.21188 21.7338 5.11346C21.7294 5.01504 21.7058 4.91844 21.6641 4.82918C21.6224 4.73991 21.5636 4.65973 21.4909 4.59321C21.4182 4.5267 21.3332 4.47515 21.2406 4.44151V4.44526Z" fill="white"/>
</svg>
