<svg width="549" height="458" viewBox="0 0 549 458" fill="none" xmlns="http://www.w3.org/2000/svg">
    <g opacity="0.8">
        <path opacity="0.1" d="M12.8571 289.489C-4.14642 299.275 -4.33899 315.202 12.6003 324.988L235.282 450.137C252.157 459.923 279.748 459.923 296.752 450.137L535.956 312.49C552.96 302.704 553.088 286.841 536.149 277.055L313.465 151.906C296.59 142.12 269.063 142.12 252.06 151.906L12.8571 289.553V289.489Z" fill="url(#paint0_linear_451_48765)"/>
        <path d="M261.23 195.935L214.795 169.123V222.742L261.23 249.554L307.667 222.742V169.123L261.23 195.935Z" fill="url(#paint1_linear_451_48765)"/>
        <path d="M261.23 249.554L214.795 222.745V169.123L261.23 195.935V249.554Z" fill="url(#paint2_linear_451_48765)"/>
        <path d="M307.668 222.745L261.23 249.554V195.935L307.668 169.123V222.745Z" fill="#0C7B8C"/>
        <path d="M261.23 195.935L214.795 169.123L261.23 142.313L307.667 169.126L261.23 195.935Z" fill="url(#paint3_linear_451_48765)"/>
        <path d="M261.23 195.936L216.807 170.288L214.795 171.45L261.23 198.259L307.667 171.45L305.652 170.288L261.23 195.936Z" fill="#5EA4A5"/>
        <path d="M321.551 230.352L275.116 203.543V257.162L321.551 283.971L367.989 257.162V203.543L321.551 230.352Z" fill="url(#paint4_linear_451_48765)"/>
        <path d="M321.551 283.971L275.116 257.162V203.543L321.551 230.352V283.971Z" fill="url(#paint5_linear_451_48765)"/>
        <path d="M367.99 257.162L321.552 283.971V230.352L367.99 203.543V257.162Z" fill="#0C7B8C"/>
        <path d="M321.551 230.352L275.116 203.543L321.551 176.733L367.989 203.543L321.551 230.352Z" fill="url(#paint6_linear_451_48765)"/>
        <path d="M321.551 230.352L277.129 204.705L275.116 205.867L321.551 232.679L367.989 205.867L365.973 204.705L321.551 230.352Z" fill="#5EA4A5"/>
        <path d="M381.867 264.766L335.433 237.957V291.576L381.867 318.385L428.305 291.576V237.957L381.867 264.766Z" fill="url(#paint7_linear_451_48765)"/>
        <path d="M381.867 318.385L335.433 291.576V237.957L381.867 264.766V318.385Z" fill="url(#paint8_linear_451_48765)"/>
        <path d="M428.305 291.576L381.867 318.385V264.766L428.305 237.957V291.576Z" fill="#0C7B8C"/>
        <path d="M381.867 264.766L335.433 237.957L381.867 211.147L428.302 237.957L381.867 264.766Z" fill="url(#paint9_linear_451_48765)"/>
        <path d="M381.867 264.766L337.445 239.119L335.433 240.281L381.867 267.093L428.302 240.284L428.305 237.957L381.867 264.766Z" fill="#5EA4A5"/>
        <path d="M200.915 232.679L154.478 205.866V259.485L200.915 286.297L247.35 259.485V205.866L200.915 232.679Z" fill="url(#paint10_linear_451_48765)"/>
        <path d="M200.915 286.297L154.478 259.485V205.866L200.915 232.679V286.297Z" fill="url(#paint11_linear_451_48765)"/>
        <path d="M247.352 259.485L200.917 286.297V232.679L247.352 205.866V259.485Z" fill="#0C7B8C"/>
        <path d="M200.915 232.678L154.478 205.866L200.912 179.057L247.35 205.869L200.915 232.678Z" fill="url(#paint12_linear_451_48765)"/>
        <path d="M200.915 232.679L156.49 207.031L154.478 208.193L200.915 235.002L247.35 208.193L245.334 207.031L200.915 232.679Z" fill="#5EA4A5"/>
        <path d="M261.23 267.091L214.795 240.282V293.901L261.23 320.71L307.667 293.901V240.282L261.23 267.091Z" fill="url(#paint13_linear_451_48765)"/>
        <path d="M261.23 320.71L214.795 293.901V240.282L261.23 267.091V320.71Z" fill="url(#paint14_linear_451_48765)"/>
        <path d="M307.668 293.901L261.23 320.71V267.091L307.668 240.282V293.901Z" fill="#0C7B8C"/>
        <path d="M261.23 267.091L214.795 240.282L261.23 213.473L307.667 240.282L261.23 267.091Z" fill="url(#paint15_linear_451_48765)"/>
        <path d="M261.23 267.092L216.807 241.444L214.795 242.606L261.23 269.415L307.667 242.606L305.652 241.444L261.23 267.092Z" fill="#5EA4A5"/>
        <path d="M321.551 301.509L275.116 274.699V328.318L321.551 355.127L367.989 328.318V274.699L321.551 301.509Z" fill="url(#paint16_linear_451_48765)"/>
        <path d="M321.551 355.127L275.116 328.318V274.699L321.551 301.509V355.127Z" fill="url(#paint17_linear_451_48765)"/>
        <path d="M367.99 328.318L321.552 355.127V301.509L367.99 274.699V328.318Z" fill="#0C7B8C"/>
        <path d="M321.551 301.508L275.116 274.699L321.551 247.89L367.989 274.699L321.551 301.508Z" fill="url(#paint18_linear_451_48765)"/>
        <path d="M321.551 301.509L277.129 275.861L275.116 277.023L321.551 303.835L367.989 277.026V274.699L321.551 301.509Z" fill="#5EA4A5"/>
        <path d="M140.596 269.423L94.1582 242.61V296.229L140.596 323.041L187.031 296.229V242.61L140.596 269.423Z" fill="url(#paint19_linear_451_48765)"/>
        <path d="M140.596 323.041L94.1582 296.229V242.61L140.596 269.423V323.041Z" fill="url(#paint20_linear_451_48765)"/>
        <path d="M187.032 296.229L140.598 323.041V269.423L187.032 242.61V296.229Z" fill="#0C7B8C"/>
        <path d="M140.596 269.422L94.1582 242.61L140.593 215.801L187.031 242.613L140.596 269.422Z" fill="url(#paint21_linear_451_48765)"/>
        <path d="M140.596 269.423L94.1582 242.61V244.937L140.596 271.746L187.031 244.937L185.015 243.775L140.596 269.423Z" fill="#5EA4A5"/>
        <path d="M200.915 303.838L154.478 277.025V330.644L200.915 357.456L247.35 330.644V277.025L200.915 303.838Z" fill="url(#paint22_linear_451_48765)"/>
        <path d="M200.915 357.455L154.478 330.646V277.027L200.915 303.837V357.455Z" fill="url(#paint23_linear_451_48765)"/>
        <path d="M247.352 330.646L200.917 357.455V303.837L247.352 277.027V330.646Z" fill="#0C7B8C"/>
        <path d="M200.915 303.836L154.478 277.027L200.912 250.215L247.35 277.027L200.915 303.836Z" fill="url(#paint24_linear_451_48765)"/>
        <path d="M200.915 303.838L154.478 277.025V279.352L200.915 306.162L247.35 279.352L245.334 278.19L200.915 303.838Z" fill="#5EA4A5"/>
        <path d="M261.23 338.253L214.795 311.443V365.062L261.23 391.871L307.667 365.062V311.443L261.23 338.253Z" fill="url(#paint25_linear_451_48765)"/>
        <path d="M261.23 391.871L214.795 365.062V311.443L261.23 338.253V391.871Z" fill="url(#paint26_linear_451_48765)"/>
        <path d="M307.667 365.062L261.229 391.871V338.253L307.667 311.443V365.062Z" fill="#0C7B8C"/>
        <path d="M261.23 338.252L214.795 311.443L261.23 284.634L307.667 311.443L261.23 338.252Z" fill="url(#paint27_linear_451_48765)"/>
        <path d="M261.23 338.253L214.795 311.443V313.767L261.23 340.579L307.667 313.77V311.443L261.23 338.253Z" fill="#5EA4A5"/>
        <path d="M261.23 124.779L214.795 97.9668V151.585L261.23 178.398L307.667 151.585V97.9668L261.23 124.779Z" fill="url(#paint28_linear_451_48765)"/>
        <path d="M261.23 178.398L214.795 151.588V97.9668L261.23 124.779V178.398Z" fill="url(#paint29_linear_451_48765)"/>
        <path d="M307.667 151.588L261.229 178.398V124.779L307.667 97.9668V151.588Z" fill="#0C7B8C"/>
        <path d="M261.23 124.779L214.795 97.9665L261.23 71.1572L307.667 97.9696L261.23 124.779Z" fill="url(#paint30_linear_451_48765)"/>
        <path d="M261.23 124.779L216.807 99.1318L214.795 100.294L261.23 127.103L307.667 100.294L305.652 99.1318L261.23 124.779Z" fill="#5EA4A5"/>
        <path opacity="0.7" d="M261.229 329.52L229.554 311.229L261.229 292.941L292.908 311.229L261.229 329.52Z" fill="#0D686A"/>
        <path opacity="0.7" d="M200.917 295.101L169.238 276.813L200.914 258.525L232.593 276.813L200.917 295.101Z" fill="#0D686A"/>
        <path opacity="0.7" d="M321.549 292.779L289.873 274.488L321.549 256.2L353.227 274.488L321.549 292.779Z" fill="#0D686A"/>
        <path opacity="0.7" d="M381.986 256.455L350.308 238.167L381.983 219.879L413.662 238.167L381.986 256.455Z" fill="#0D686A"/>
        <path opacity="0.7" d="M140.598 260.686L108.919 242.398L140.595 224.11L172.273 242.398L140.598 260.686Z" fill="#0D686A"/>
        <path d="M321.551 159.195L275.116 132.386V186.004L321.551 212.814L367.989 186.004V132.386L321.551 159.195Z" fill="url(#paint31_linear_451_48765)"/>
        <path d="M321.551 212.814L275.116 186.004V132.386L321.551 159.195V212.814Z" fill="url(#paint32_linear_451_48765)"/>
        <path d="M367.99 186.004L321.552 212.814V159.195L367.99 132.386V186.004Z" fill="#0C7B8C"/>
        <path d="M321.551 159.195L275.116 132.385L321.551 105.576L367.989 132.385L321.551 159.195Z" fill="url(#paint33_linear_451_48765)"/>
        <path d="M321.551 159.194L277.129 133.547L275.116 134.709L321.551 161.521L367.989 134.709L365.973 133.547L321.551 159.194Z" fill="#5EA4A5"/>
        <path d="M381.867 193.61L335.433 166.801V220.419L381.867 247.229L428.305 220.419V166.801L381.867 193.61Z" fill="url(#paint34_linear_451_48765)"/>
        <path d="M381.867 247.229L335.433 220.419V166.801L381.867 193.61V247.229Z" fill="url(#paint35_linear_451_48765)"/>
        <path d="M428.305 220.419L381.867 247.229V193.61L428.305 166.801V220.419Z" fill="#0C7B8C"/>
        <path d="M381.867 193.61L335.433 166.8L381.867 139.991L428.302 166.8L381.867 193.61Z" fill="url(#paint36_linear_451_48765)"/>
        <path d="M381.867 193.61L337.445 167.963L335.433 169.125L381.867 195.937L428.302 169.128L428.305 166.801L381.867 193.61Z" fill="#5EA4A5"/>
        <path d="M200.915 161.521L154.478 134.709V188.328L200.915 215.14L247.35 188.328V134.709L200.915 161.521Z" fill="url(#paint37_linear_451_48765)"/>
        <path d="M200.915 215.14L154.478 188.328V134.709L200.915 161.521V215.14Z" fill="url(#paint38_linear_451_48765)"/>
        <path d="M247.352 188.328L200.917 215.14V161.521L247.352 134.709V188.328Z" fill="#0C7B8C"/>
        <path d="M200.915 161.521L154.478 134.709L200.912 107.899L247.35 134.712L200.915 161.521Z" fill="url(#paint39_linear_451_48765)"/>
        <path d="M200.915 161.521L156.49 135.874L154.478 137.036L200.915 163.845L247.35 137.036L245.334 135.874L200.915 161.521Z" fill="#5EA4A5"/>
        <path d="M261.23 195.935L214.795 169.126V222.745L261.23 249.554L307.667 222.745V169.126L261.23 195.935Z" fill="url(#paint40_linear_451_48765)"/>
        <path d="M261.23 249.554L214.795 222.745V169.126L261.23 195.935V249.554Z" fill="url(#paint41_linear_451_48765)"/>
        <path d="M307.668 222.745L261.23 249.554V195.935L307.668 169.126V222.745Z" fill="#0C7B8C"/>
        <path d="M261.23 195.935L214.795 169.126L261.23 142.313L307.667 169.126L261.23 195.935Z" fill="url(#paint42_linear_451_48765)"/>
        <path d="M261.23 195.936L216.807 170.288L214.795 171.45L261.23 198.259L307.667 171.45L305.652 170.288L261.23 195.936Z" fill="#5EA4A5"/>
        <path d="M321.551 230.352L275.116 203.543V257.162L321.551 283.971L367.989 257.162V203.543L321.551 230.352Z" fill="url(#paint43_linear_451_48765)"/>
        <path d="M321.551 283.971L275.116 257.162V203.543L321.551 230.352V283.971Z" fill="url(#paint44_linear_451_48765)"/>
        <path d="M367.99 257.162L321.552 283.971V230.352L367.99 203.543V257.162Z" fill="#0C7B8C"/>
        <path d="M321.551 230.352L275.116 203.543L321.551 176.733L367.989 203.543L321.551 230.352Z" fill="url(#paint45_linear_451_48765)"/>
        <path d="M321.551 230.352L277.129 204.705L275.116 205.867L321.551 232.679L367.989 205.867V203.543L321.551 230.352Z" fill="#5EA4A5"/>
        <path d="M140.596 198.262L94.1582 171.449V225.068L140.596 251.88L187.031 225.068V171.449L140.596 198.262Z" fill="url(#paint46_linear_451_48765)"/>
        <path d="M140.596 251.88L94.1582 225.068V171.449L140.596 198.259V251.88Z" fill="url(#paint47_linear_451_48765)"/>
        <path d="M187.032 225.068L140.598 251.88V198.259L187.032 171.449V225.068Z" fill="#0C7B8C"/>
        <path d="M140.596 198.257L94.1582 171.448L140.593 144.639L187.031 171.451L140.596 198.257Z" fill="url(#paint48_linear_451_48765)"/>
        <path d="M140.596 198.261L96.1737 172.61L94.1582 173.775L140.596 200.585L187.031 173.775L185.015 172.613L140.596 198.261Z" fill="#5EA4A5"/>
        <path d="M200.915 232.679L154.478 205.866V259.485L200.915 286.297L247.35 259.485V205.866L200.915 232.679Z" fill="url(#paint49_linear_451_48765)"/>
        <path d="M200.915 286.297L154.478 259.485V205.866L200.915 232.679V286.297Z" fill="url(#paint50_linear_451_48765)"/>
        <path d="M247.352 259.485L200.917 286.297V232.679L247.352 205.866V259.485Z" fill="#0C7B8C"/>
        <path d="M200.915 232.678L154.478 205.866L200.912 179.057L247.35 205.869L200.915 232.678Z" fill="url(#paint51_linear_451_48765)"/>
        <path d="M200.915 232.679L154.478 205.866V208.193L200.915 235.002L247.35 208.193L245.334 207.031L200.915 232.679Z" fill="#5EA4A5"/>
        <path d="M261.23 267.091L214.795 240.282V293.901L261.23 320.71L307.667 293.901V240.282L261.23 267.091Z" fill="url(#paint52_linear_451_48765)"/>
        <path d="M261.23 320.71L214.795 293.901V240.282L261.23 267.091V320.71Z" fill="url(#paint53_linear_451_48765)"/>
        <path d="M307.668 293.901L261.23 320.71V267.091L307.668 240.282V293.901Z" fill="#0C7B8C"/>
        <path d="M261.23 267.091L214.795 240.282L261.23 213.473L307.667 240.282L261.23 267.091Z" fill="url(#paint54_linear_451_48765)"/>
        <path d="M261.23 267.091L214.795 240.282V242.606L261.23 269.418L307.667 242.609V240.282L261.23 267.091Z" fill="#5EA4A5"/>
        <path opacity="0.7" d="M381.986 185.614L350.308 167.326L381.983 149.038L413.662 167.326L381.986 185.614Z" fill="#0D686A"/>
        <path opacity="0.7" d="M140.598 189.845L108.919 171.557L140.595 153.27L172.273 171.557L140.598 189.845Z" fill="#0D686A"/>
        <path d="M261.23 53.6219L214.795 26.8096V80.4281L261.23 107.24L307.667 80.4281V26.8096L261.23 53.6219Z" fill="url(#paint55_linear_451_48765)"/>
        <path d="M261.23 107.24L214.795 80.4281V26.8096L261.23 53.6219V107.24Z" fill="url(#paint56_linear_451_48765)"/>
        <path d="M307.667 80.4281L261.229 107.24V53.6219L307.667 26.8096V80.4281Z" fill="#0C7B8C"/>
        <path d="M261.23 53.6216L214.795 26.8093L261.23 0L307.667 26.8123L261.23 53.6216Z" fill="url(#paint57_linear_451_48765)"/>
        <path d="M261.23 53.6219L214.795 26.8096V29.1364L261.23 55.9457L307.667 29.1364V26.8096L261.23 53.6219Z" fill="#5EA4A5"/>
        <path d="M321.551 88.036L275.116 61.2236V114.845L321.551 141.655L367.989 114.845V61.2236L321.551 88.036Z" fill="url(#paint58_linear_451_48765)"/>
        <path d="M321.551 141.654L275.116 114.845V61.2266L321.551 88.0358V141.654Z" fill="url(#paint59_linear_451_48765)"/>
        <path d="M367.989 114.845L321.551 141.654V88.0358L367.989 61.2266V114.845Z" fill="#0C7B8C"/>
        <path d="M321.551 88.0355L275.116 61.2263L321.551 34.417L367.989 61.2263L321.551 88.0355Z" fill="url(#paint60_linear_451_48765)"/>
        <path d="M321.551 88.036L275.116 61.2236V63.5504L321.551 90.3628L367.989 63.5504V61.2236L321.551 88.036Z" fill="#5EA4A5"/>
        <path d="M381.867 122.454L335.433 95.6445V149.263L381.867 176.072L428.305 149.263V95.6445L381.867 122.454Z" fill="url(#paint61_linear_451_48765)"/>
        <path d="M381.867 176.072L335.433 149.263V95.6445L381.867 122.454V176.072Z" fill="url(#paint62_linear_451_48765)"/>
        <path d="M428.305 149.263L381.867 176.072V122.454L428.305 95.6445V149.263Z" fill="#0C7B8C"/>
        <path d="M381.867 122.453L335.433 95.6442L381.867 68.835L428.302 95.6442L381.867 122.453Z" fill="url(#paint63_linear_451_48765)"/>
        <path d="M381.867 122.454L335.433 95.6445V97.9683L381.867 124.781L428.302 97.9713L428.305 95.6445L381.867 122.454Z" fill="#5EA4A5"/>
        <path d="M200.915 90.3631L154.478 63.5508V117.169L200.915 143.982L247.35 117.169V63.5508L200.915 90.3631Z" fill="url(#paint64_linear_451_48765)"/>
        <path d="M200.915 143.982L154.478 117.169V63.5508L200.915 90.3631V143.982Z" fill="url(#paint65_linear_451_48765)"/>
        <path d="M247.352 117.169L200.917 143.982V90.3631L247.352 63.5508V117.169Z" fill="#0C7B8C"/>
        <path d="M200.915 90.3628L154.478 63.5505L200.912 36.7412L247.35 63.5536L200.915 90.3628Z" fill="url(#paint66_linear_451_48765)"/>
        <path d="M200.915 90.3631L154.478 63.5508V65.8776L200.915 92.6869L247.35 65.8776V63.5508L200.915 90.3631Z" fill="#5EA4A5"/>
        <path d="M140.596 127.107L94.1582 100.295V153.913L140.596 180.726L187.031 153.913V100.295L140.596 127.107Z" fill="url(#paint67_linear_451_48765)"/>
        <path d="M140.596 180.726L94.1582 153.913V100.295L140.596 127.104V180.726Z" fill="url(#paint68_linear_451_48765)"/>
        <path d="M187.032 153.913L140.598 180.726V127.104L187.032 100.295V153.913Z" fill="#0C7B8C"/>
        <path d="M140.596 127.104L94.1582 100.295L140.593 73.4854L187.031 100.298L140.596 127.104Z" fill="url(#paint69_linear_451_48765)"/>
        <path d="M140.596 127.107L94.1582 100.295V102.622L140.596 129.431L187.031 102.622V100.295L140.596 127.107Z" fill="#5EA4A5"/>
    </g>
    <defs>
        <linearGradient id="paint0_linear_451_48765" x1="-178.031" y1="535.221" x2="482.593" y2="124.472" gradientUnits="userSpaceOnUse">
            <stop stop-color="#0936DE"/>
            <stop offset="1" stop-color="#28B1FE"/>
        </linearGradient>
        <linearGradient id="paint1_linear_451_48765" x1="261.231" y1="169.123" x2="261.231" y2="249.554" gradientUnits="userSpaceOnUse">
            <stop stop-color="#109EA0"/>
            <stop offset="1" stop-color="#0D8A8C"/>
        </linearGradient>
        <linearGradient id="paint2_linear_451_48765" x1="238.012" y1="169.123" x2="238.012" y2="249.554" gradientUnits="userSpaceOnUse">
            <stop stop-color="#109EA0"/>
            <stop offset="1" stop-color="#0D8A8C"/>
        </linearGradient>
        <linearGradient id="paint3_linear_451_48765" x1="261.231" y1="142.313" x2="261.231" y2="195.935" gradientUnits="userSpaceOnUse">
            <stop stop-color="#109EA0"/>
            <stop offset="1" stop-color="#0D8A8C"/>
        </linearGradient>
        <linearGradient id="paint4_linear_451_48765" x1="321.552" y1="203.543" x2="321.552" y2="283.971" gradientUnits="userSpaceOnUse">
            <stop stop-color="#109EA0"/>
            <stop offset="1" stop-color="#0D8A8C"/>
        </linearGradient>
        <linearGradient id="paint5_linear_451_48765" x1="298.334" y1="203.543" x2="298.334" y2="283.971" gradientUnits="userSpaceOnUse">
            <stop stop-color="#109EA0"/>
            <stop offset="1" stop-color="#0D8A8C"/>
        </linearGradient>
        <linearGradient id="paint6_linear_451_48765" x1="321.552" y1="176.733" x2="321.552" y2="230.352" gradientUnits="userSpaceOnUse">
            <stop stop-color="#109EA0"/>
            <stop offset="1" stop-color="#0D8A8C"/>
        </linearGradient>
        <linearGradient id="paint7_linear_451_48765" x1="381.869" y1="237.957" x2="381.869" y2="318.385" gradientUnits="userSpaceOnUse">
            <stop stop-color="#109EA0"/>
            <stop offset="1" stop-color="#0D8A8C"/>
        </linearGradient>
        <linearGradient id="paint8_linear_451_48765" x1="358.65" y1="237.957" x2="358.65" y2="318.385" gradientUnits="userSpaceOnUse">
            <stop stop-color="#109EA0"/>
            <stop offset="1" stop-color="#0D8A8C"/>
        </linearGradient>
        <linearGradient id="paint9_linear_451_48765" x1="381.867" y1="211.147" x2="381.867" y2="264.766" gradientUnits="userSpaceOnUse">
            <stop stop-color="#109EA0"/>
            <stop offset="1" stop-color="#0D8A8C"/>
        </linearGradient>
        <linearGradient id="paint10_linear_451_48765" x1="200.914" y1="205.866" x2="200.914" y2="286.297" gradientUnits="userSpaceOnUse">
            <stop stop-color="#109EA0"/>
            <stop offset="1" stop-color="#0D8A8C"/>
        </linearGradient>
        <linearGradient id="paint11_linear_451_48765" x1="177.696" y1="205.866" x2="177.696" y2="286.297" gradientUnits="userSpaceOnUse">
            <stop stop-color="#109EA0"/>
            <stop offset="1" stop-color="#0D8A8C"/>
        </linearGradient>
        <linearGradient id="paint12_linear_451_48765" x1="200.914" y1="179.057" x2="200.914" y2="232.678" gradientUnits="userSpaceOnUse">
            <stop stop-color="#109EA0"/>
            <stop offset="1" stop-color="#0D8A8C"/>
        </linearGradient>
        <linearGradient id="paint13_linear_451_48765" x1="261.231" y1="240.282" x2="261.231" y2="320.71" gradientUnits="userSpaceOnUse">
            <stop stop-color="#109EA0"/>
            <stop offset="1" stop-color="#0D8A8C"/>
        </linearGradient>
        <linearGradient id="paint14_linear_451_48765" x1="238.012" y1="240.282" x2="238.012" y2="320.71" gradientUnits="userSpaceOnUse">
            <stop stop-color="#109EA0"/>
            <stop offset="1" stop-color="#0D8A8C"/>
        </linearGradient>
        <linearGradient id="paint15_linear_451_48765" x1="261.231" y1="213.473" x2="261.231" y2="267.091" gradientUnits="userSpaceOnUse">
            <stop stop-color="#109EA0"/>
            <stop offset="1" stop-color="#0D8A8C"/>
        </linearGradient>
        <linearGradient id="paint16_linear_451_48765" x1="321.552" y1="274.699" x2="321.552" y2="355.127" gradientUnits="userSpaceOnUse">
            <stop stop-color="#109EA0"/>
            <stop offset="1" stop-color="#0D8A8C"/>
        </linearGradient>
        <linearGradient id="paint17_linear_451_48765" x1="298.334" y1="274.699" x2="298.334" y2="355.127" gradientUnits="userSpaceOnUse">
            <stop stop-color="#109EA0"/>
            <stop offset="1" stop-color="#0D8A8C"/>
        </linearGradient>
        <linearGradient id="paint18_linear_451_48765" x1="321.552" y1="247.89" x2="321.552" y2="301.508" gradientUnits="userSpaceOnUse">
            <stop stop-color="#109EA0"/>
            <stop offset="1" stop-color="#0D8A8C"/>
        </linearGradient>
        <linearGradient id="paint19_linear_451_48765" x1="140.594" y1="242.61" x2="140.594" y2="323.041" gradientUnits="userSpaceOnUse">
            <stop stop-color="#109EA0"/>
            <stop offset="1" stop-color="#0D8A8C"/>
        </linearGradient>
        <linearGradient id="paint20_linear_451_48765" x1="117.377" y1="242.61" x2="117.377" y2="323.041" gradientUnits="userSpaceOnUse">
            <stop stop-color="#109EA0"/>
            <stop offset="1" stop-color="#0D8A8C"/>
        </linearGradient>
        <linearGradient id="paint21_linear_451_48765" x1="140.594" y1="215.801" x2="140.594" y2="269.422" gradientUnits="userSpaceOnUse">
            <stop stop-color="#109EA0"/>
            <stop offset="1" stop-color="#0D8A8C"/>
        </linearGradient>
        <linearGradient id="paint22_linear_451_48765" x1="200.914" y1="277.025" x2="200.914" y2="357.456" gradientUnits="userSpaceOnUse">
            <stop stop-color="#109EA0"/>
            <stop offset="1" stop-color="#0D8A8C"/>
        </linearGradient>
        <linearGradient id="paint23_linear_451_48765" x1="177.696" y1="277.027" x2="177.696" y2="357.455" gradientUnits="userSpaceOnUse">
            <stop stop-color="#109EA0"/>
            <stop offset="1" stop-color="#0D8A8C"/>
        </linearGradient>
        <linearGradient id="paint24_linear_451_48765" x1="200.914" y1="250.215" x2="200.914" y2="303.836" gradientUnits="userSpaceOnUse">
            <stop stop-color="#109EA0"/>
            <stop offset="1" stop-color="#0D8A8C"/>
        </linearGradient>
        <linearGradient id="paint25_linear_451_48765" x1="261.231" y1="311.443" x2="261.231" y2="391.871" gradientUnits="userSpaceOnUse">
            <stop stop-color="#109EA0"/>
            <stop offset="1" stop-color="#0D8A8C"/>
        </linearGradient>
        <linearGradient id="paint26_linear_451_48765" x1="238.012" y1="311.443" x2="238.012" y2="391.871" gradientUnits="userSpaceOnUse">
            <stop stop-color="#109EA0"/>
            <stop offset="1" stop-color="#0D8A8C"/>
        </linearGradient>
        <linearGradient id="paint27_linear_451_48765" x1="261.231" y1="284.634" x2="261.231" y2="338.252" gradientUnits="userSpaceOnUse">
            <stop stop-color="#109EA0"/>
            <stop offset="1" stop-color="#0D8A8C"/>
        </linearGradient>
        <linearGradient id="paint28_linear_451_48765" x1="261.231" y1="97.9668" x2="261.231" y2="178.398" gradientUnits="userSpaceOnUse">
            <stop stop-color="#109EA0"/>
            <stop offset="1" stop-color="#0D8A8C"/>
        </linearGradient>
        <linearGradient id="paint29_linear_451_48765" x1="238.012" y1="97.9668" x2="238.012" y2="178.398" gradientUnits="userSpaceOnUse">
            <stop stop-color="#109EA0"/>
            <stop offset="1" stop-color="#0D8A8C"/>
        </linearGradient>
        <linearGradient id="paint30_linear_451_48765" x1="261.231" y1="71.1572" x2="261.231" y2="124.779" gradientUnits="userSpaceOnUse">
            <stop stop-color="#109EA0"/>
            <stop offset="1" stop-color="#0D8A8C"/>
        </linearGradient>
        <linearGradient id="paint31_linear_451_48765" x1="321.552" y1="132.386" x2="321.552" y2="212.814" gradientUnits="userSpaceOnUse">
            <stop stop-color="#109EA0"/>
            <stop offset="1" stop-color="#0D8A8C"/>
        </linearGradient>
        <linearGradient id="paint32_linear_451_48765" x1="298.334" y1="132.386" x2="298.334" y2="212.814" gradientUnits="userSpaceOnUse">
            <stop stop-color="#109EA0"/>
            <stop offset="1" stop-color="#0D8A8C"/>
        </linearGradient>
        <linearGradient id="paint33_linear_451_48765" x1="321.552" y1="105.576" x2="321.552" y2="159.195" gradientUnits="userSpaceOnUse">
            <stop stop-color="#109EA0"/>
            <stop offset="1" stop-color="#0D8A8C"/>
        </linearGradient>
        <linearGradient id="paint34_linear_451_48765" x1="381.869" y1="166.801" x2="381.869" y2="247.229" gradientUnits="userSpaceOnUse">
            <stop stop-color="#109EA0"/>
            <stop offset="1" stop-color="#0D8A8C"/>
        </linearGradient>
        <linearGradient id="paint35_linear_451_48765" x1="358.65" y1="166.801" x2="358.65" y2="247.229" gradientUnits="userSpaceOnUse">
            <stop stop-color="#109EA0"/>
            <stop offset="1" stop-color="#0D8A8C"/>
        </linearGradient>
        <linearGradient id="paint36_linear_451_48765" x1="381.867" y1="139.991" x2="381.867" y2="193.61" gradientUnits="userSpaceOnUse">
            <stop stop-color="#109EA0"/>
            <stop offset="1" stop-color="#0D8A8C"/>
        </linearGradient>
        <linearGradient id="paint37_linear_451_48765" x1="200.914" y1="134.709" x2="200.914" y2="215.14" gradientUnits="userSpaceOnUse">
            <stop stop-color="#109EA0"/>
            <stop offset="1" stop-color="#0D8A8C"/>
        </linearGradient>
        <linearGradient id="paint38_linear_451_48765" x1="177.696" y1="134.709" x2="177.696" y2="215.14" gradientUnits="userSpaceOnUse">
            <stop stop-color="#109EA0"/>
            <stop offset="1" stop-color="#0D8A8C"/>
        </linearGradient>
        <linearGradient id="paint39_linear_451_48765" x1="200.914" y1="107.899" x2="200.914" y2="161.521" gradientUnits="userSpaceOnUse">
            <stop stop-color="#109EA0"/>
            <stop offset="1" stop-color="#0D8A8C"/>
        </linearGradient>
        <linearGradient id="paint40_linear_451_48765" x1="261.231" y1="169.126" x2="261.231" y2="249.554" gradientUnits="userSpaceOnUse">
            <stop stop-color="#109EA0"/>
            <stop offset="1" stop-color="#0D8A8C"/>
        </linearGradient>
        <linearGradient id="paint41_linear_451_48765" x1="238.012" y1="169.126" x2="238.012" y2="249.554" gradientUnits="userSpaceOnUse">
            <stop stop-color="#109EA0"/>
            <stop offset="1" stop-color="#0D8A8C"/>
        </linearGradient>
        <linearGradient id="paint42_linear_451_48765" x1="261.231" y1="142.313" x2="261.231" y2="195.935" gradientUnits="userSpaceOnUse">
            <stop stop-color="#109EA0"/>
            <stop offset="1" stop-color="#0D8A8C"/>
        </linearGradient>
        <linearGradient id="paint43_linear_451_48765" x1="321.552" y1="203.543" x2="321.552" y2="283.971" gradientUnits="userSpaceOnUse">
            <stop stop-color="#109EA0"/>
            <stop offset="1" stop-color="#0D8A8C"/>
        </linearGradient>
        <linearGradient id="paint44_linear_451_48765" x1="298.334" y1="203.543" x2="298.334" y2="283.971" gradientUnits="userSpaceOnUse">
            <stop stop-color="#109EA0"/>
            <stop offset="1" stop-color="#0D8A8C"/>
        </linearGradient>
        <linearGradient id="paint45_linear_451_48765" x1="321.552" y1="176.733" x2="321.552" y2="230.352" gradientUnits="userSpaceOnUse">
            <stop stop-color="#109EA0"/>
            <stop offset="1" stop-color="#0D8A8C"/>
        </linearGradient>
        <linearGradient id="paint46_linear_451_48765" x1="140.594" y1="171.449" x2="140.594" y2="251.88" gradientUnits="userSpaceOnUse">
            <stop stop-color="#109EA0"/>
            <stop offset="1" stop-color="#0D8A8C"/>
        </linearGradient>
        <linearGradient id="paint47_linear_451_48765" x1="117.377" y1="171.449" x2="117.377" y2="251.88" gradientUnits="userSpaceOnUse">
            <stop stop-color="#109EA0"/>
            <stop offset="1" stop-color="#0D8A8C"/>
        </linearGradient>
        <linearGradient id="paint48_linear_451_48765" x1="140.594" y1="144.639" x2="140.594" y2="198.257" gradientUnits="userSpaceOnUse">
            <stop stop-color="#109EA0"/>
            <stop offset="1" stop-color="#0D8A8C"/>
        </linearGradient>
        <linearGradient id="paint49_linear_451_48765" x1="200.914" y1="205.866" x2="200.914" y2="286.297" gradientUnits="userSpaceOnUse">
            <stop stop-color="#109EA0"/>
            <stop offset="1" stop-color="#0D8A8C"/>
        </linearGradient>
        <linearGradient id="paint50_linear_451_48765" x1="177.696" y1="205.866" x2="177.696" y2="286.297" gradientUnits="userSpaceOnUse">
            <stop stop-color="#109EA0"/>
            <stop offset="1" stop-color="#0D8A8C"/>
        </linearGradient>
        <linearGradient id="paint51_linear_451_48765" x1="200.914" y1="179.057" x2="200.914" y2="232.678" gradientUnits="userSpaceOnUse">
            <stop stop-color="#109EA0"/>
            <stop offset="1" stop-color="#0D8A8C"/>
        </linearGradient>
        <linearGradient id="paint52_linear_451_48765" x1="261.231" y1="240.282" x2="261.231" y2="320.71" gradientUnits="userSpaceOnUse">
            <stop stop-color="#109EA0"/>
            <stop offset="1" stop-color="#0D8A8C"/>
        </linearGradient>
        <linearGradient id="paint53_linear_451_48765" x1="238.012" y1="240.282" x2="238.012" y2="320.71" gradientUnits="userSpaceOnUse">
            <stop stop-color="#109EA0"/>
            <stop offset="1" stop-color="#0D8A8C"/>
        </linearGradient>
        <linearGradient id="paint54_linear_451_48765" x1="261.231" y1="213.473" x2="261.231" y2="267.091" gradientUnits="userSpaceOnUse">
            <stop stop-color="#109EA0"/>
            <stop offset="1" stop-color="#0D8A8C"/>
        </linearGradient>
        <linearGradient id="paint55_linear_451_48765" x1="261.231" y1="26.8096" x2="261.231" y2="107.24" gradientUnits="userSpaceOnUse">
            <stop stop-color="#109EA0"/>
            <stop offset="1" stop-color="#0D8A8C"/>
        </linearGradient>
        <linearGradient id="paint56_linear_451_48765" x1="238.012" y1="26.8096" x2="238.012" y2="107.24" gradientUnits="userSpaceOnUse">
            <stop stop-color="#109EA0"/>
            <stop offset="1" stop-color="#0D8A8C"/>
        </linearGradient>
        <linearGradient id="paint57_linear_451_48765" x1="261.231" y1="0" x2="261.231" y2="53.6216" gradientUnits="userSpaceOnUse">
            <stop stop-color="#109EA0"/>
            <stop offset="1" stop-color="#0D8A8C"/>
        </linearGradient>
        <linearGradient id="paint58_linear_451_48765" x1="321.552" y1="61.2236" x2="321.552" y2="141.655" gradientUnits="userSpaceOnUse">
            <stop stop-color="#109EA0"/>
            <stop offset="1" stop-color="#0D8A8C"/>
        </linearGradient>
        <linearGradient id="paint59_linear_451_48765" x1="298.334" y1="61.2266" x2="298.334" y2="141.654" gradientUnits="userSpaceOnUse">
            <stop stop-color="#109EA0"/>
            <stop offset="1" stop-color="#0D8A8C"/>
        </linearGradient>
        <linearGradient id="paint60_linear_451_48765" x1="321.552" y1="34.417" x2="321.552" y2="88.0355" gradientUnits="userSpaceOnUse">
            <stop stop-color="#109EA0"/>
            <stop offset="1" stop-color="#0D8A8C"/>
        </linearGradient>
        <linearGradient id="paint61_linear_451_48765" x1="381.869" y1="95.6445" x2="381.869" y2="176.072" gradientUnits="userSpaceOnUse">
            <stop stop-color="#109EA0"/>
            <stop offset="1" stop-color="#0D8A8C"/>
        </linearGradient>
        <linearGradient id="paint62_linear_451_48765" x1="358.65" y1="95.6445" x2="358.65" y2="176.072" gradientUnits="userSpaceOnUse">
            <stop stop-color="#109EA0"/>
            <stop offset="1" stop-color="#0D8A8C"/>
        </linearGradient>
        <linearGradient id="paint63_linear_451_48765" x1="381.867" y1="68.835" x2="381.867" y2="122.453" gradientUnits="userSpaceOnUse">
            <stop stop-color="#109EA0"/>
            <stop offset="1" stop-color="#0D8A8C"/>
        </linearGradient>
        <linearGradient id="paint64_linear_451_48765" x1="200.914" y1="63.5508" x2="200.914" y2="143.982" gradientUnits="userSpaceOnUse">
            <stop stop-color="#109EA0"/>
            <stop offset="1" stop-color="#0D8A8C"/>
        </linearGradient>
        <linearGradient id="paint65_linear_451_48765" x1="177.696" y1="63.5508" x2="177.696" y2="143.982" gradientUnits="userSpaceOnUse">
            <stop stop-color="#109EA0"/>
            <stop offset="1" stop-color="#0D8A8C"/>
        </linearGradient>
        <linearGradient id="paint66_linear_451_48765" x1="200.914" y1="36.7412" x2="200.914" y2="90.3628" gradientUnits="userSpaceOnUse">
            <stop stop-color="#109EA0"/>
            <stop offset="1" stop-color="#0D8A8C"/>
        </linearGradient>
        <linearGradient id="paint67_linear_451_48765" x1="140.594" y1="100.295" x2="140.594" y2="180.726" gradientUnits="userSpaceOnUse">
            <stop stop-color="#109EA0"/>
            <stop offset="1" stop-color="#0D8A8C"/>
        </linearGradient>
        <linearGradient id="paint68_linear_451_48765" x1="117.377" y1="100.295" x2="117.377" y2="180.726" gradientUnits="userSpaceOnUse">
            <stop stop-color="#109EA0"/>
            <stop offset="1" stop-color="#0D8A8C"/>
        </linearGradient>
        <linearGradient id="paint69_linear_451_48765" x1="140.594" y1="73.4854" x2="140.594" y2="127.104" gradientUnits="userSpaceOnUse">
            <stop stop-color="#109EA0"/>
            <stop offset="1" stop-color="#0D8A8C"/>
        </linearGradient>
    </defs>
</svg>
