<svg width="341" height="340" viewBox="0 0 341 340" fill="none" xmlns="http://www.w3.org/2000/svg">
    <g clip-path="url(#clip0_1_74567)">
        <path d="M330.5 0H10.5C4.97715 0 0.5 4.47716 0.5 10V330C0.5 335.523 4.97716 340 10.5 340H330.5C336.023 340 340.5 335.523 340.5 330V10C340.5 4.47715 336.023 0 330.5 0Z" fill="#000B33"/>
        <g filter="url(#filter0_d_1_74567)">
            <path d="M11 10H23.8V22.8H11V10ZM23.8 10H36.6V22.8H23.8V10ZM36.6 10H49.4V22.8H36.6V10ZM49.4 10H62.2V22.8H49.4V10ZM62.2 10H75V22.8H62.2V10ZM75 10H87.8V22.8H75V10ZM87.8 10H100.6V22.8H87.8V10ZM126.2 10H139V22.8H126.2V10ZM164.6 10H177.4V22.8H164.6V10ZM177.4 10H190.2V22.8H177.4V10ZM203 10H215.8V22.8H203V10ZM241.4 10H254.2V22.8H241.4V10ZM254.2 10H267V22.8H254.2V10ZM267 10H279.8V22.8H267V10ZM279.8 10H292.6V22.8H279.8V10ZM292.6 10H305.4V22.8H292.6V10ZM305.4 10H318.2V22.8H305.4V10ZM318.2 10H331V22.8H318.2V10ZM11 22.8H23.8V35.6H11V22.8ZM87.8 22.8H100.6V35.6H87.8V22.8ZM113.4 22.8H126.2V35.6H113.4V22.8ZM151.8 22.8H164.6V35.6H151.8V22.8ZM164.6 22.8H177.4V35.6H164.6V22.8ZM177.4 22.8H190.2V35.6H177.4V22.8ZM215.8 22.8H228.6V35.6H215.8V22.8ZM241.4 22.8H254.2V35.6H241.4V22.8ZM318.2 22.8H331V35.6H318.2V22.8ZM11 35.6H23.8V48.4H11V35.6ZM36.6 35.6H49.4V48.4H36.6V35.6ZM49.4 35.6H62.2V48.4H49.4V35.6ZM62.2 35.6H75V48.4H62.2V35.6ZM87.8 35.6H100.6V48.4H87.8V35.6ZM113.4 35.6H126.2V48.4H113.4V35.6ZM126.2 35.6H139V48.4H126.2V35.6ZM139 35.6H151.8V48.4H139V35.6ZM151.8 35.6H164.6V48.4H151.8V35.6ZM241.4 35.6H254.2V48.4H241.4V35.6ZM267 35.6H279.8V48.4H267V35.6ZM279.8 35.6H292.6V48.4H279.8V35.6ZM292.6 35.6H305.4V48.4H292.6V35.6ZM318.2 35.6H331V48.4H318.2V35.6ZM11 48.4H23.8V61.2H11V48.4ZM36.6 48.4H49.4V61.2H36.6V48.4ZM49.4 48.4H62.2V61.2H49.4V48.4ZM62.2 48.4H75V61.2H62.2V48.4ZM87.8 48.4H100.6V61.2H87.8V48.4ZM151.8 48.4H164.6V61.2H151.8V48.4ZM190.2 48.4H203V61.2H190.2V48.4ZM203 48.4H215.8V61.2H203V48.4ZM215.8 48.4H228.6V61.2H215.8V48.4ZM241.4 48.4H254.2V61.2H241.4V48.4ZM267 48.4H279.8V61.2H267V48.4ZM279.8 48.4H292.6V61.2H279.8V48.4ZM292.6 48.4H305.4V61.2H292.6V48.4ZM318.2 48.4H331V61.2H318.2V48.4ZM11 61.2H23.8V74H11V61.2ZM36.6 61.2H49.4V74H36.6V61.2ZM49.4 61.2H62.2V74H49.4V61.2ZM62.2 61.2H75V74H62.2V61.2ZM87.8 61.2H100.6V74H87.8V61.2ZM139 61.2H151.8V74H139V61.2ZM151.8 61.2H164.6V74H151.8V61.2ZM190.2 61.2H203V74H190.2V61.2ZM203 61.2H215.8V74H203V61.2ZM215.8 61.2H228.6V74H215.8V61.2ZM241.4 61.2H254.2V74H241.4V61.2ZM267 61.2H279.8V74H267V61.2ZM279.8 61.2H292.6V74H279.8V61.2ZM292.6 61.2H305.4V74H292.6V61.2ZM318.2 61.2H331V74H318.2V61.2ZM11 74H23.8V86.8H11V74ZM87.8 74H100.6V86.8H87.8V74ZM164.6 74H177.4V86.8H164.6V74ZM177.4 74H190.2V86.8H177.4V74ZM215.8 74H228.6V86.8H215.8V74ZM241.4 74H254.2V86.8H241.4V74ZM318.2 74H331V86.8H318.2V74ZM11 86.8H23.8V99.6H11V86.8ZM23.8 86.8H36.6V99.6H23.8V86.8ZM36.6 86.8H49.4V99.6H36.6V86.8ZM49.4 86.8H62.2V99.6H49.4V86.8ZM62.2 86.8H75V99.6H62.2V86.8ZM75 86.8H87.8V99.6H75V86.8ZM87.8 86.8H100.6V99.6H87.8V86.8ZM113.4 86.8H126.2V99.6H113.4V86.8ZM139 86.8H151.8V99.6H139V86.8ZM164.6 86.8H177.4V99.6H164.6V86.8ZM190.2 86.8H203V99.6H190.2V86.8ZM215.8 86.8H228.6V99.6H215.8V86.8ZM241.4 86.8H254.2V99.6H241.4V86.8ZM254.2 86.8H267V99.6H254.2V86.8ZM267 86.8H279.8V99.6H267V86.8ZM279.8 86.8H292.6V99.6H279.8V86.8ZM292.6 86.8H305.4V99.6H292.6V86.8ZM305.4 86.8H318.2V99.6H305.4V86.8ZM318.2 86.8H331V99.6H318.2V86.8ZM139 99.6H151.8V112.4H139V99.6ZM151.8 99.6H164.6V112.4H151.8V99.6ZM164.6 99.6H177.4V112.4H164.6V99.6ZM203 99.6H215.8V112.4H203V99.6ZM23.8 112.4H36.6V125.2H23.8V112.4ZM36.6 112.4H49.4V125.2H36.6V112.4ZM49.4 112.4H62.2V125.2H49.4V112.4ZM75 112.4H87.8V125.2H75V112.4ZM87.8 112.4H100.6V125.2H87.8V112.4ZM151.8 112.4H164.6V125.2H151.8V112.4ZM164.6 112.4H177.4V125.2H164.6V112.4ZM177.4 112.4H190.2V125.2H177.4V112.4ZM292.6 112.4H305.4V125.2H292.6V112.4ZM305.4 112.4H318.2V125.2H305.4V112.4ZM49.4 125.2H62.2V138H49.4V125.2ZM75 125.2H87.8V138H75V125.2ZM100.6 125.2H113.4V138H100.6V125.2ZM139 125.2H151.8V138H139V125.2ZM151.8 125.2H164.6V138H151.8V125.2ZM177.4 125.2H190.2V138H177.4V125.2ZM190.2 125.2H203V138H190.2V125.2ZM215.8 125.2H228.6V138H215.8V125.2ZM254.2 125.2H267V138H254.2V125.2ZM305.4 125.2H318.2V138H305.4V125.2ZM11 138H23.8V150.8H11V138ZM23.8 138H36.6V150.8H23.8V138ZM36.6 138H49.4V150.8H36.6V138ZM62.2 138H75V150.8H62.2V138ZM87.8 138H100.6V150.8H87.8V138ZM113.4 138H126.2V150.8H113.4V138ZM126.2 138H139V150.8H126.2V138ZM139 138H151.8V150.8H139V138ZM151.8 138H164.6V150.8H151.8V138ZM177.4 138H190.2V150.8H177.4V138ZM241.4 138H254.2V150.8H241.4V138ZM254.2 138H267V150.8H254.2V138ZM267 138H279.8V150.8H267V138ZM49.4 150.8H62.2V163.6H49.4V150.8ZM100.6 150.8H113.4V163.6H100.6V150.8ZM126.2 150.8H139V163.6H126.2V150.8ZM151.8 150.8H164.6V163.6H151.8V150.8ZM203 150.8H215.8V163.6H203V150.8ZM228.6 150.8H241.4V163.6H228.6V150.8ZM279.8 150.8H292.6V163.6H279.8V150.8ZM292.6 150.8H305.4V163.6H292.6V150.8ZM11 163.6H23.8V176.4H11V163.6ZM23.8 163.6H36.6V176.4H23.8V163.6ZM49.4 163.6H62.2V176.4H49.4V163.6ZM75 163.6H87.8V176.4H75V163.6ZM87.8 163.6H100.6V176.4H87.8V163.6ZM190.2 163.6H203V176.4H190.2V163.6ZM241.4 163.6H254.2V176.4H241.4V163.6ZM254.2 163.6H267V176.4H254.2V163.6ZM267 163.6H279.8V176.4H267V163.6ZM292.6 163.6H305.4V176.4H292.6V163.6ZM305.4 163.6H318.2V176.4H305.4V163.6ZM318.2 163.6H331V176.4H318.2V163.6ZM36.6 176.4H49.4V189.2H36.6V176.4ZM62.2 176.4H75V189.2H62.2V176.4ZM75 176.4H87.8V189.2H75V176.4ZM100.6 176.4H113.4V189.2H100.6V176.4ZM113.4 176.4H126.2V189.2H113.4V176.4ZM126.2 176.4H139V189.2H126.2V176.4ZM177.4 176.4H190.2V189.2H177.4V176.4ZM190.2 176.4H203V189.2H190.2V176.4ZM203 176.4H215.8V189.2H203V176.4ZM228.6 176.4H241.4V189.2H228.6V176.4ZM241.4 176.4H254.2V189.2H241.4V176.4ZM254.2 176.4H267V189.2H254.2V176.4ZM267 176.4H279.8V189.2H267V176.4ZM318.2 176.4H331V189.2H318.2V176.4ZM23.8 189.2H36.6V202H23.8V189.2ZM49.4 189.2H62.2V202H49.4V189.2ZM75 189.2H87.8V202H75V189.2ZM87.8 189.2H100.6V202H87.8V189.2ZM100.6 189.2H113.4V202H100.6V189.2ZM151.8 189.2H164.6V202H151.8V189.2ZM164.6 189.2H177.4V202H164.6V189.2ZM228.6 189.2H241.4V202H228.6V189.2ZM241.4 189.2H254.2V202H241.4V189.2ZM267 189.2H279.8V202H267V189.2ZM292.6 189.2H305.4V202H292.6V189.2ZM305.4 189.2H318.2V202H305.4V189.2ZM11 202H23.8V214.8H11V202ZM36.6 202H49.4V214.8H36.6V202ZM49.4 202H62.2V214.8H49.4V202ZM75 202H87.8V214.8H75V202ZM151.8 202H164.6V214.8H151.8V202ZM177.4 202H190.2V214.8H177.4V202ZM190.2 202H203V214.8H190.2V202ZM254.2 202H267V214.8H254.2V202ZM267 202H279.8V214.8H267V202ZM318.2 202H331V214.8H318.2V202ZM36.6 214.8H49.4V227.6H36.6V214.8ZM49.4 214.8H62.2V227.6H49.4V214.8ZM87.8 214.8H100.6V227.6H87.8V214.8ZM113.4 214.8H126.2V227.6H113.4V214.8ZM126.2 214.8H139V227.6H126.2V214.8ZM139 214.8H151.8V227.6H139V214.8ZM164.6 214.8H177.4V227.6H164.6V214.8ZM215.8 214.8H228.6V227.6H215.8V214.8ZM228.6 214.8H241.4V227.6H228.6V214.8ZM241.4 214.8H254.2V227.6H241.4V214.8ZM254.2 214.8H267V227.6H254.2V214.8ZM267 214.8H279.8V227.6H267V214.8ZM279.8 214.8H292.6V227.6H279.8V214.8ZM292.6 214.8H305.4V227.6H292.6V214.8ZM305.4 214.8H318.2V227.6H305.4V214.8ZM318.2 214.8H331V227.6H318.2V214.8ZM113.4 227.6H126.2V240.4H113.4V227.6ZM126.2 227.6H139V240.4H126.2V227.6ZM139 227.6H151.8V240.4H139V227.6ZM151.8 227.6H164.6V240.4H151.8V227.6ZM164.6 227.6H177.4V240.4H164.6V227.6ZM177.4 227.6H190.2V240.4H177.4V227.6ZM203 227.6H215.8V240.4H203V227.6ZM215.8 227.6H228.6V240.4H215.8V227.6ZM267 227.6H279.8V240.4H267V227.6ZM292.6 227.6H305.4V240.4H292.6V227.6ZM318.2 227.6H331V240.4H318.2V227.6ZM11 240.4H23.8V253.2H11V240.4ZM23.8 240.4H36.6V253.2H23.8V240.4ZM36.6 240.4H49.4V253.2H36.6V240.4ZM49.4 240.4H62.2V253.2H49.4V240.4ZM62.2 240.4H75V253.2H62.2V240.4ZM75 240.4H87.8V253.2H75V240.4ZM87.8 240.4H100.6V253.2H87.8V240.4ZM139 240.4H151.8V253.2H139V240.4ZM151.8 240.4H164.6V253.2H151.8V240.4ZM164.6 240.4H177.4V253.2H164.6V240.4ZM177.4 240.4H190.2V253.2H177.4V240.4ZM190.2 240.4H203V253.2H190.2V240.4ZM215.8 240.4H228.6V253.2H215.8V240.4ZM241.4 240.4H254.2V253.2H241.4V240.4ZM267 240.4H279.8V253.2H267V240.4ZM292.6 240.4H305.4V253.2H292.6V240.4ZM305.4 240.4H318.2V253.2H305.4V240.4ZM318.2 240.4H331V253.2H318.2V240.4ZM11 253.2H23.8V266H11V253.2ZM87.8 253.2H100.6V266H87.8V253.2ZM113.4 253.2H126.2V266H113.4V253.2ZM151.8 253.2H164.6V266H151.8V253.2ZM177.4 253.2H190.2V266H177.4V253.2ZM203 253.2H215.8V266H203V253.2ZM215.8 253.2H228.6V266H215.8V253.2ZM267 253.2H279.8V266H267V253.2ZM11 266H23.8V278.8H11V266ZM36.6 266H49.4V278.8H36.6V266ZM49.4 266H62.2V278.8H49.4V266ZM62.2 266H75V278.8H62.2V266ZM87.8 266H100.6V278.8H87.8V266ZM151.8 266H164.6V278.8H151.8V266ZM215.8 266H228.6V278.8H215.8V266ZM228.6 266H241.4V278.8H228.6V266ZM241.4 266H254.2V278.8H241.4V266ZM254.2 266H267V278.8H254.2V266ZM267 266H279.8V278.8H267V266ZM279.8 266H292.6V278.8H279.8V266ZM11 278.8H23.8V291.6H11V278.8ZM36.6 278.8H49.4V291.6H36.6V278.8ZM49.4 278.8H62.2V291.6H49.4V278.8ZM62.2 278.8H75V291.6H62.2V278.8ZM87.8 278.8H100.6V291.6H87.8V278.8ZM113.4 278.8H126.2V291.6H113.4V278.8ZM126.2 278.8H139V291.6H126.2V278.8ZM139 278.8H151.8V291.6H139V278.8ZM151.8 278.8H164.6V291.6H151.8V278.8ZM177.4 278.8H190.2V291.6H177.4V278.8ZM215.8 278.8H228.6V291.6H215.8V278.8ZM228.6 278.8H241.4V291.6H228.6V278.8ZM241.4 278.8H254.2V291.6H241.4V278.8ZM267 278.8H279.8V291.6H267V278.8ZM279.8 278.8H292.6V291.6H279.8V278.8ZM292.6 278.8H305.4V291.6H292.6V278.8ZM305.4 278.8H318.2V291.6H305.4V278.8ZM318.2 278.8H331V291.6H318.2V278.8ZM11 291.6H23.8V304.4H11V291.6ZM36.6 291.6H49.4V304.4H36.6V291.6ZM49.4 291.6H62.2V304.4H49.4V291.6ZM62.2 291.6H75V304.4H62.2V291.6ZM87.8 291.6H100.6V304.4H87.8V291.6ZM113.4 291.6H126.2V304.4H113.4V291.6ZM126.2 291.6H139V304.4H126.2V291.6ZM164.6 291.6H177.4V304.4H164.6V291.6ZM177.4 291.6H190.2V304.4H177.4V291.6ZM203 291.6H215.8V304.4H203V291.6ZM215.8 291.6H228.6V304.4H215.8V291.6ZM228.6 291.6H241.4V304.4H228.6V291.6ZM241.4 291.6H254.2V304.4H241.4V291.6ZM267 291.6H279.8V304.4H267V291.6ZM292.6 291.6H305.4V304.4H292.6V291.6ZM305.4 291.6H318.2V304.4H305.4V291.6ZM11 304.4H23.8V317.2H11V304.4ZM87.8 304.4H100.6V317.2H87.8V304.4ZM113.4 304.4H126.2V317.2H113.4V304.4ZM126.2 304.4H139V317.2H126.2V304.4ZM177.4 304.4H190.2V317.2H177.4V304.4ZM190.2 304.4H203V317.2H190.2V304.4ZM228.6 304.4H241.4V317.2H228.6V304.4ZM241.4 304.4H254.2V317.2H241.4V304.4ZM267 304.4H279.8V317.2H267V304.4ZM292.6 304.4H305.4V317.2H292.6V304.4ZM11 317.2H23.8V330H11V317.2ZM23.8 317.2H36.6V330H23.8V317.2ZM36.6 317.2H49.4V330H36.6V317.2ZM49.4 317.2H62.2V330H49.4V317.2ZM62.2 317.2H75V330H62.2V317.2ZM75 317.2H87.8V330H75V317.2ZM87.8 317.2H100.6V330H87.8V317.2ZM164.6 317.2H177.4V330H164.6V317.2ZM228.6 317.2H241.4V330H228.6V317.2ZM241.4 317.2H254.2V330H241.4V317.2ZM254.2 317.2H267V330H254.2V317.2ZM267 317.2H279.8V330H267V317.2ZM279.8 317.2H292.6V330H279.8V317.2ZM292.6 317.2H305.4V330H292.6V317.2ZM305.4 317.2H318.2V330H305.4V317.2ZM318.2 317.2H331V330H318.2V317.2Z" fill="white"/>
        </g>
    </g>
    <defs>
        <filter id="filter0_d_1_74567" x="1" y="0" width="340" height="340" filterUnits="userSpaceOnUse" color-interpolation-filters="sRGB">
            <feFlood flood-opacity="0" result="BackgroundImageFix"/>
            <feColorMatrix in="SourceAlpha" type="matrix" values="0 0 0 0 0 0 0 0 0 0 0 0 0 0 0 0 0 0 127 0" result="hardAlpha"/>
            <feOffset/>
            <feGaussianBlur stdDeviation="5"/>
            <feComposite in2="hardAlpha" operator="out"/>
            <feColorMatrix type="matrix" values="0 0 0 0 0.164706 0 0 0 0 0.964706 0 0 0 0 1 0 0 0 0.15 0"/>
            <feBlend mode="normal" in2="BackgroundImageFix" result="effect1_dropShadow_1_74567"/>
            <feBlend mode="normal" in="SourceGraphic" in2="effect1_dropShadow_1_74567" result="shape"/>
        </filter>
        <clipPath id="clip0_1_74567">
            <rect width="340" height="340" fill="white" transform="translate(0.5)"/>
        </clipPath>
    </defs>
</svg>
