<svg width="340" height="340" viewBox="0 0 340 340" fill="none" xmlns="http://www.w3.org/2000/svg">
    <g filter="url(#filter0_d_690_468)">
        <path d="M10 10H22.8V22.8H10V10ZM22.8 10H35.6V22.8H22.8V10ZM35.6 10H48.4V22.8H35.6V10ZM48.4 10H61.2V22.8H48.4V10ZM61.2 10H74V22.8H61.2V10ZM74 10H86.8V22.8H74V10ZM86.8 10H99.6V22.8H86.8V10ZM112.4 10H125.2V22.8H112.4V10ZM125.2 10H138V22.8H125.2V10ZM138 10H150.8V22.8H138V10ZM150.8 10H163.6V22.8H150.8V10ZM189.2 10H202V22.8H189.2V10ZM202 10H214.8V22.8H202V10ZM214.8 10H227.6V22.8H214.8V10ZM240.4 10H253.2V22.8H240.4V10ZM253.2 10H266V22.8H253.2V10ZM266 10H278.8V22.8H266V10ZM278.8 10H291.6V22.8H278.8V10ZM291.6 10H304.4V22.8H291.6V10ZM304.4 10H317.2V22.8H304.4V10ZM317.2 10H330V22.8H317.2V10ZM10 22.8H22.8V35.6H10V22.8ZM86.8 22.8H99.6V35.6H86.8V22.8ZM112.4 22.8H125.2V35.6H112.4V22.8ZM150.8 22.8H163.6V35.6H150.8V22.8ZM163.6 22.8H176.4V35.6H163.6V22.8ZM176.4 22.8H189.2V35.6H176.4V22.8ZM189.2 22.8H202V35.6H189.2V22.8ZM214.8 22.8H227.6V35.6H214.8V22.8ZM240.4 22.8H253.2V35.6H240.4V22.8ZM317.2 22.8H330V35.6H317.2V22.8ZM10 35.6H22.8V48.4H10V35.6ZM35.6 35.6H48.4V48.4H35.6V35.6ZM48.4 35.6H61.2V48.4H48.4V35.6ZM61.2 35.6H74V48.4H61.2V35.6ZM86.8 35.6H99.6V48.4H86.8V35.6ZM125.2 35.6H138V48.4H125.2V35.6ZM138 35.6H150.8V48.4H138V35.6ZM176.4 35.6H189.2V48.4H176.4V35.6ZM202 35.6H214.8V48.4H202V35.6ZM214.8 35.6H227.6V48.4H214.8V35.6ZM240.4 35.6H253.2V48.4H240.4V35.6ZM266 35.6H278.8V48.4H266V35.6ZM278.8 35.6H291.6V48.4H278.8V35.6ZM291.6 35.6H304.4V48.4H291.6V35.6ZM317.2 35.6H330V48.4H317.2V35.6ZM10 48.4H22.8V61.2H10V48.4ZM35.6 48.4H48.4V61.2H35.6V48.4ZM48.4 48.4H61.2V61.2H48.4V48.4ZM61.2 48.4H74V61.2H61.2V48.4ZM86.8 48.4H99.6V61.2H86.8V48.4ZM125.2 48.4H138V61.2H125.2V48.4ZM138 48.4H150.8V61.2H138V48.4ZM150.8 48.4H163.6V61.2H150.8V48.4ZM163.6 48.4H176.4V61.2H163.6V48.4ZM240.4 48.4H253.2V61.2H240.4V48.4ZM266 48.4H278.8V61.2H266V48.4ZM278.8 48.4H291.6V61.2H278.8V48.4ZM291.6 48.4H304.4V61.2H291.6V48.4ZM317.2 48.4H330V61.2H317.2V48.4ZM10 61.2H22.8V74H10V61.2ZM35.6 61.2H48.4V74H35.6V61.2ZM48.4 61.2H61.2V74H48.4V61.2ZM61.2 61.2H74V74H61.2V61.2ZM86.8 61.2H99.6V74H86.8V61.2ZM125.2 61.2H138V74H125.2V61.2ZM138 61.2H150.8V74H138V61.2ZM163.6 61.2H176.4V74H163.6V61.2ZM214.8 61.2H227.6V74H214.8V61.2ZM240.4 61.2H253.2V74H240.4V61.2ZM266 61.2H278.8V74H266V61.2ZM278.8 61.2H291.6V74H278.8V61.2ZM291.6 61.2H304.4V74H291.6V61.2ZM317.2 61.2H330V74H317.2V61.2ZM10 74H22.8V86.8H10V74ZM86.8 74H99.6V86.8H86.8V74ZM125.2 74H138V86.8H125.2V74ZM240.4 74H253.2V86.8H240.4V74ZM317.2 74H330V86.8H317.2V74ZM10 86.8H22.8V99.6H10V86.8ZM22.8 86.8H35.6V99.6H22.8V86.8ZM35.6 86.8H48.4V99.6H35.6V86.8ZM48.4 86.8H61.2V99.6H48.4V86.8ZM61.2 86.8H74V99.6H61.2V86.8ZM74 86.8H86.8V99.6H74V86.8ZM86.8 86.8H99.6V99.6H86.8V86.8ZM112.4 86.8H125.2V99.6H112.4V86.8ZM138 86.8H150.8V99.6H138V86.8ZM163.6 86.8H176.4V99.6H163.6V86.8ZM189.2 86.8H202V99.6H189.2V86.8ZM214.8 86.8H227.6V99.6H214.8V86.8ZM240.4 86.8H253.2V99.6H240.4V86.8ZM253.2 86.8H266V99.6H253.2V86.8ZM266 86.8H278.8V99.6H266V86.8ZM278.8 86.8H291.6V99.6H278.8V86.8ZM291.6 86.8H304.4V99.6H291.6V86.8ZM304.4 86.8H317.2V99.6H304.4V86.8ZM317.2 86.8H330V99.6H317.2V86.8ZM125.2 99.6H138V112.4H125.2V99.6ZM189.2 99.6H202V112.4H189.2V99.6ZM202 99.6H214.8V112.4H202V99.6ZM22.8 112.4H35.6V125.2H22.8V112.4ZM86.8 112.4H99.6V125.2H86.8V112.4ZM99.6 112.4H112.4V125.2H99.6V112.4ZM112.4 112.4H125.2V125.2H112.4V112.4ZM138 112.4H150.8V125.2H138V112.4ZM202 112.4H214.8V125.2H202V112.4ZM214.8 112.4H227.6V125.2H214.8V112.4ZM227.6 112.4H240.4V125.2H227.6V112.4ZM304.4 112.4H317.2V125.2H304.4V112.4ZM317.2 112.4H330V125.2H317.2V112.4ZM35.6 125.2H48.4V138H35.6V125.2ZM61.2 125.2H74V138H61.2V125.2ZM74 125.2H86.8V138H74V125.2ZM99.6 125.2H112.4V138H99.6V125.2ZM138 125.2H150.8V138H138V125.2ZM150.8 125.2H163.6V138H150.8V125.2ZM163.6 125.2H176.4V138H163.6V125.2ZM176.4 125.2H189.2V138H176.4V125.2ZM202 125.2H214.8V138H202V125.2ZM227.6 125.2H240.4V138H227.6V125.2ZM253.2 125.2H266V138H253.2V125.2ZM266 125.2H278.8V138H266V125.2ZM278.8 125.2H291.6V138H278.8V125.2ZM291.6 125.2H304.4V138H291.6V125.2ZM304.4 125.2H317.2V138H304.4V125.2ZM35.6 138H48.4V150.8H35.6V138ZM61.2 138H74V150.8H61.2V138ZM86.8 138H99.6V150.8H86.8V138ZM99.6 138H112.4V150.8H99.6V138ZM125.2 138H138V150.8H125.2V138ZM163.6 138H176.4V150.8H163.6V138ZM176.4 138H189.2V150.8H176.4V138ZM189.2 138H202V150.8H189.2V138ZM202 138H214.8V150.8H202V138ZM240.4 138H253.2V150.8H240.4V138ZM253.2 138H266V150.8H253.2V138ZM266 138H278.8V150.8H266V138ZM278.8 138H291.6V150.8H278.8V138ZM304.4 138H317.2V150.8H304.4V138ZM317.2 138H330V150.8H317.2V138ZM35.6 150.8H48.4V163.6H35.6V150.8ZM61.2 150.8H74V163.6H61.2V150.8ZM74 150.8H86.8V163.6H74V150.8ZM99.6 150.8H112.4V163.6H99.6V150.8ZM125.2 150.8H138V163.6H125.2V150.8ZM150.8 150.8H163.6V163.6H150.8V150.8ZM176.4 150.8H189.2V163.6H176.4V150.8ZM202 150.8H214.8V163.6H202V150.8ZM214.8 150.8H227.6V163.6H214.8V150.8ZM227.6 150.8H240.4V163.6H227.6V150.8ZM253.2 150.8H266V163.6H253.2V150.8ZM266 150.8H278.8V163.6H266V150.8ZM278.8 150.8H291.6V163.6H278.8V150.8ZM317.2 150.8H330V163.6H317.2V150.8ZM10 163.6H22.8V176.4H10V163.6ZM35.6 163.6H48.4V176.4H35.6V163.6ZM48.4 163.6H61.2V176.4H48.4V163.6ZM74 163.6H86.8V176.4H74V163.6ZM86.8 163.6H99.6V176.4H86.8V163.6ZM138 163.6H150.8V176.4H138V163.6ZM150.8 163.6H163.6V176.4H150.8V163.6ZM176.4 163.6H189.2V176.4H176.4V163.6ZM214.8 163.6H227.6V176.4H214.8V163.6ZM227.6 163.6H240.4V176.4H227.6V163.6ZM240.4 163.6H253.2V176.4H240.4V163.6ZM253.2 163.6H266V176.4H253.2V163.6ZM317.2 163.6H330V176.4H317.2V163.6ZM10 176.4H22.8V189.2H10V176.4ZM35.6 176.4H48.4V189.2H35.6V176.4ZM99.6 176.4H112.4V189.2H99.6V176.4ZM138 176.4H150.8V189.2H138V176.4ZM150.8 176.4H163.6V189.2H150.8V176.4ZM163.6 176.4H176.4V189.2H163.6V176.4ZM176.4 176.4H189.2V189.2H176.4V176.4ZM202 176.4H214.8V189.2H202V176.4ZM253.2 176.4H266V189.2H253.2V176.4ZM304.4 176.4H317.2V189.2H304.4V176.4ZM10 189.2H22.8V202H10V189.2ZM35.6 189.2H48.4V202H35.6V189.2ZM48.4 189.2H61.2V202H48.4V189.2ZM74 189.2H86.8V202H74V189.2ZM86.8 189.2H99.6V202H86.8V189.2ZM99.6 189.2H112.4V202H99.6V189.2ZM138 189.2H150.8V202H138V189.2ZM150.8 189.2H163.6V202H150.8V189.2ZM202 189.2H214.8V202H202V189.2ZM227.6 189.2H240.4V202H227.6V189.2ZM253.2 189.2H266V202H253.2V189.2ZM278.8 189.2H291.6V202H278.8V189.2ZM304.4 189.2H317.2V202H304.4V189.2ZM317.2 189.2H330V202H317.2V189.2ZM10 202H22.8V214.8H10V202ZM35.6 202H48.4V214.8H35.6V202ZM99.6 202H112.4V214.8H99.6V202ZM112.4 202H125.2V214.8H112.4V202ZM138 202H150.8V214.8H138V202ZM150.8 202H163.6V214.8H150.8V202ZM163.6 202H176.4V214.8H163.6V202ZM176.4 202H189.2V214.8H176.4V202ZM189.2 202H202V214.8H189.2V202ZM202 202H214.8V214.8H202V202ZM214.8 202H227.6V214.8H214.8V202ZM253.2 202H266V214.8H253.2V202ZM291.6 202H304.4V214.8H291.6V202ZM317.2 202H330V214.8H317.2V202ZM10 214.8H22.8V227.6H10V214.8ZM74 214.8H86.8V227.6H74V214.8ZM86.8 214.8H99.6V227.6H86.8V214.8ZM99.6 214.8H112.4V227.6H99.6V214.8ZM112.4 214.8H125.2V227.6H112.4V214.8ZM138 214.8H150.8V227.6H138V214.8ZM150.8 214.8H163.6V227.6H150.8V214.8ZM202 214.8H214.8V227.6H202V214.8ZM214.8 214.8H227.6V227.6H214.8V214.8ZM227.6 214.8H240.4V227.6H227.6V214.8ZM240.4 214.8H253.2V227.6H240.4V214.8ZM253.2 214.8H266V227.6H253.2V214.8ZM266 214.8H278.8V227.6H266V214.8ZM291.6 214.8H304.4V227.6H291.6V214.8ZM112.4 227.6H125.2V240.4H112.4V227.6ZM138 227.6H150.8V240.4H138V227.6ZM150.8 227.6H163.6V240.4H150.8V227.6ZM189.2 227.6H202V240.4H189.2V227.6ZM214.8 227.6H227.6V240.4H214.8V227.6ZM266 227.6H278.8V240.4H266V227.6ZM291.6 227.6H304.4V240.4H291.6V227.6ZM10 240.4H22.8V253.2H10V240.4ZM22.8 240.4H35.6V253.2H22.8V240.4ZM35.6 240.4H48.4V253.2H35.6V240.4ZM48.4 240.4H61.2V253.2H48.4V240.4ZM61.2 240.4H74V253.2H61.2V240.4ZM74 240.4H86.8V253.2H74V240.4ZM86.8 240.4H99.6V253.2H86.8V240.4ZM112.4 240.4H125.2V253.2H112.4V240.4ZM125.2 240.4H138V253.2H125.2V240.4ZM176.4 240.4H189.2V253.2H176.4V240.4ZM189.2 240.4H202V253.2H189.2V240.4ZM214.8 240.4H227.6V253.2H214.8V240.4ZM240.4 240.4H253.2V253.2H240.4V240.4ZM266 240.4H278.8V253.2H266V240.4ZM278.8 240.4H291.6V253.2H278.8V240.4ZM317.2 240.4H330V253.2H317.2V240.4ZM10 253.2H22.8V266H10V253.2ZM86.8 253.2H99.6V266H86.8V253.2ZM202 253.2H214.8V266H202V253.2ZM214.8 253.2H227.6V266H214.8V253.2ZM266 253.2H278.8V266H266V253.2ZM304.4 253.2H317.2V266H304.4V253.2ZM317.2 253.2H330V266H317.2V253.2ZM10 266H22.8V278.8H10V266ZM35.6 266H48.4V278.8H35.6V266ZM48.4 266H61.2V278.8H48.4V266ZM61.2 266H74V278.8H61.2V266ZM86.8 266H99.6V278.8H86.8V266ZM138 266H150.8V278.8H138V266ZM163.6 266H176.4V278.8H163.6V266ZM176.4 266H189.2V278.8H176.4V266ZM189.2 266H202V278.8H189.2V266ZM202 266H214.8V278.8H202V266ZM214.8 266H227.6V278.8H214.8V266ZM227.6 266H240.4V278.8H227.6V266ZM240.4 266H253.2V278.8H240.4V266ZM253.2 266H266V278.8H253.2V266ZM266 266H278.8V278.8H266V266ZM278.8 266H291.6V278.8H278.8V266ZM291.6 266H304.4V278.8H291.6V266ZM317.2 266H330V278.8H317.2V266ZM10 278.8H22.8V291.6H10V278.8ZM35.6 278.8H48.4V291.6H35.6V278.8ZM48.4 278.8H61.2V291.6H48.4V278.8ZM61.2 278.8H74V291.6H61.2V278.8ZM86.8 278.8H99.6V291.6H86.8V278.8ZM138 278.8H150.8V291.6H138V278.8ZM202 278.8H214.8V291.6H202V278.8ZM214.8 278.8H227.6V291.6H214.8V278.8ZM227.6 278.8H240.4V291.6H227.6V278.8ZM240.4 278.8H253.2V291.6H240.4V278.8ZM278.8 278.8H291.6V291.6H278.8V278.8ZM304.4 278.8H317.2V291.6H304.4V278.8ZM317.2 278.8H330V291.6H317.2V278.8ZM10 291.6H22.8V304.4H10V291.6ZM35.6 291.6H48.4V304.4H35.6V291.6ZM48.4 291.6H61.2V304.4H48.4V291.6ZM61.2 291.6H74V304.4H61.2V291.6ZM86.8 291.6H99.6V304.4H86.8V291.6ZM125.2 291.6H138V304.4H125.2V291.6ZM150.8 291.6H163.6V304.4H150.8V291.6ZM189.2 291.6H202V304.4H189.2V291.6ZM253.2 291.6H266V304.4H253.2V291.6ZM291.6 291.6H304.4V304.4H291.6V291.6ZM317.2 291.6H330V304.4H317.2V291.6ZM10 304.4H22.8V317.2H10V304.4ZM86.8 304.4H99.6V317.2H86.8V304.4ZM112.4 304.4H125.2V317.2H112.4V304.4ZM202 304.4H214.8V317.2H202V304.4ZM214.8 304.4H227.6V317.2H214.8V304.4ZM253.2 304.4H266V317.2H253.2V304.4ZM266 304.4H278.8V317.2H266V304.4ZM317.2 304.4H330V317.2H317.2V304.4ZM10 317.2H22.8V330H10V317.2ZM22.8 317.2H35.6V330H22.8V317.2ZM35.6 317.2H48.4V330H35.6V317.2ZM48.4 317.2H61.2V330H48.4V317.2ZM61.2 317.2H74V330H61.2V317.2ZM74 317.2H86.8V330H74V317.2ZM86.8 317.2H99.6V330H86.8V317.2ZM163.6 317.2H176.4V330H163.6V317.2ZM214.8 317.2H227.6V330H214.8V317.2ZM227.6 317.2H240.4V330H227.6V317.2ZM240.4 317.2H253.2V330H240.4V317.2ZM278.8 317.2H291.6V330H278.8V317.2ZM317.2 317.2H330V330H317.2V317.2Z" fill="white"/>
    </g>
    <defs>
        <filter id="filter0_d_690_468" x="0" y="0" width="340" height="340" filterUnits="userSpaceOnUse" color-interpolation-filters="sRGB">
            <feFlood flood-opacity="0" result="BackgroundImageFix"/>
            <feColorMatrix in="SourceAlpha" type="matrix" values="0 0 0 0 0 0 0 0 0 0 0 0 0 0 0 0 0 0 127 0" result="hardAlpha"/>
            <feOffset/>
            <feGaussianBlur stdDeviation="5"/>
            <feComposite in2="hardAlpha" operator="out"/>
            <feColorMatrix type="matrix" values="0 0 0 0 0.164706 0 0 0 0 0.964706 0 0 0 0 1 0 0 0 0.15 0"/>
            <feBlend mode="normal" in2="BackgroundImageFix" result="effect1_dropShadow_690_468"/>
            <feBlend mode="normal" in="SourceGraphic" in2="effect1_dropShadow_690_468" result="shape"/>
        </filter>
    </defs>
</svg>
