<svg width="341" height="340" viewBox="0 0 341 340" fill="none" xmlns="http://www.w3.org/2000/svg">
    <g clip-path="url(#clip0_1_68814)">
        <path d="M330.5 0H10.5C4.97715 0 0.5 4.47716 0.5 10V330C0.5 335.523 4.97716 340 10.5 340H330.5C336.023 340 340.5 335.523 340.5 330V10C340.5 4.47715 336.023 0 330.5 0Z" fill="#000B33"/>
        <g filter="url(#filter0_d_1_68814)">
            <path d="M11 10H20.697V19.697H11V10ZM20.697 10H30.3939V19.697H20.697V10ZM30.3939 10H40.0909V19.697H30.3939V10ZM40.0909 10H49.7879V19.697H40.0909V10ZM49.7879 10H59.4848V19.697H49.7879V10ZM59.4848 10H69.1818V19.697H59.4848V10ZM69.1818 10H78.8788V19.697H69.1818V10ZM98.2727 10H107.97V19.697H98.2727V10ZM117.667 10H127.364V19.697H117.667V10ZM137.061 10H146.758V19.697H137.061V10ZM146.758 10H156.455V19.697H146.758V10ZM166.152 10H175.848V19.697H166.152V10ZM175.848 10H185.545V19.697H175.848V10ZM234.03 10H243.727V19.697H234.03V10ZM263.121 10H272.818V19.697H263.121V10ZM272.818 10H282.515V19.697H272.818V10ZM282.515 10H292.212V19.697H282.515V10ZM292.212 10H301.909V19.697H292.212V10ZM301.909 10H311.606V19.697H301.909V10ZM311.606 10H321.303V19.697H311.606V10ZM321.303 10H331V19.697H321.303V10ZM11 19.697H20.697V29.3939H11V19.697ZM69.1818 19.697H78.8788V29.3939H69.1818V19.697ZM107.97 19.697H117.667V29.3939H107.97V19.697ZM117.667 19.697H127.364V29.3939H117.667V19.697ZM127.364 19.697H137.061V29.3939H127.364V19.697ZM146.758 19.697H156.455V29.3939H146.758V19.697ZM175.848 19.697H185.545V29.3939H175.848V19.697ZM195.242 19.697H204.939V29.3939H195.242V19.697ZM214.636 19.697H224.333V29.3939H214.636V19.697ZM224.333 19.697H234.03V29.3939H224.333V19.697ZM263.121 19.697H272.818V29.3939H263.121V19.697ZM321.303 19.697H331V29.3939H321.303V19.697ZM11 29.3939H20.697V39.0909H11V29.3939ZM30.3939 29.3939H40.0909V39.0909H30.3939V29.3939ZM40.0909 29.3939H49.7879V39.0909H40.0909V29.3939ZM49.7879 29.3939H59.4848V39.0909H49.7879V29.3939ZM69.1818 29.3939H78.8788V39.0909H69.1818V29.3939ZM88.5758 29.3939H98.2727V39.0909H88.5758V29.3939ZM117.667 29.3939H127.364V39.0909H117.667V29.3939ZM127.364 29.3939H137.061V39.0909H127.364V29.3939ZM137.061 29.3939H146.758V39.0909H137.061V29.3939ZM146.758 29.3939H156.455V39.0909H146.758V29.3939ZM166.152 29.3939H175.848V39.0909H166.152V29.3939ZM175.848 29.3939H185.545V39.0909H175.848V29.3939ZM185.545 29.3939H195.242V39.0909H185.545V29.3939ZM204.939 29.3939H214.636V39.0909H204.939V29.3939ZM214.636 29.3939H224.333V39.0909H214.636V29.3939ZM224.333 29.3939H234.03V39.0909H224.333V29.3939ZM234.03 29.3939H243.727V39.0909H234.03V29.3939ZM243.727 29.3939H253.424V39.0909H243.727V29.3939ZM263.121 29.3939H272.818V39.0909H263.121V29.3939ZM282.515 29.3939H292.212V39.0909H282.515V29.3939ZM292.212 29.3939H301.909V39.0909H292.212V29.3939ZM301.909 29.3939H311.606V39.0909H301.909V29.3939ZM321.303 29.3939H331V39.0909H321.303V29.3939ZM11 39.0909H20.697V48.7879H11V39.0909ZM30.3939 39.0909H40.0909V48.7879H30.3939V39.0909ZM40.0909 39.0909H49.7879V48.7879H40.0909V39.0909ZM49.7879 39.0909H59.4848V48.7879H49.7879V39.0909ZM69.1818 39.0909H78.8788V48.7879H69.1818V39.0909ZM98.2727 39.0909H107.97V48.7879H98.2727V39.0909ZM117.667 39.0909H127.364V48.7879H117.667V39.0909ZM127.364 39.0909H137.061V48.7879H127.364V39.0909ZM137.061 39.0909H146.758V48.7879H137.061V39.0909ZM175.848 39.0909H185.545V48.7879H175.848V39.0909ZM224.333 39.0909H234.03V48.7879H224.333V39.0909ZM243.727 39.0909H253.424V48.7879H243.727V39.0909ZM263.121 39.0909H272.818V48.7879H263.121V39.0909ZM282.515 39.0909H292.212V48.7879H282.515V39.0909ZM292.212 39.0909H301.909V48.7879H292.212V39.0909ZM301.909 39.0909H311.606V48.7879H301.909V39.0909ZM321.303 39.0909H331V48.7879H321.303V39.0909ZM11 48.7879H20.697V58.4848H11V48.7879ZM30.3939 48.7879H40.0909V58.4848H30.3939V48.7879ZM40.0909 48.7879H49.7879V58.4848H40.0909V48.7879ZM49.7879 48.7879H59.4848V58.4848H49.7879V48.7879ZM69.1818 48.7879H78.8788V58.4848H69.1818V48.7879ZM88.5758 48.7879H98.2727V58.4848H88.5758V48.7879ZM117.667 48.7879H127.364V58.4848H117.667V48.7879ZM127.364 48.7879H137.061V58.4848H127.364V48.7879ZM146.758 48.7879H156.455V58.4848H146.758V48.7879ZM156.455 48.7879H166.152V58.4848H156.455V48.7879ZM185.545 48.7879H195.242V58.4848H185.545V48.7879ZM204.939 48.7879H214.636V58.4848H204.939V48.7879ZM214.636 48.7879H224.333V58.4848H214.636V48.7879ZM234.03 48.7879H243.727V58.4848H234.03V48.7879ZM263.121 48.7879H272.818V58.4848H263.121V48.7879ZM282.515 48.7879H292.212V58.4848H282.515V48.7879ZM292.212 48.7879H301.909V58.4848H292.212V48.7879ZM301.909 48.7879H311.606V58.4848H301.909V48.7879ZM321.303 48.7879H331V58.4848H321.303V48.7879ZM11 58.4848H20.697V68.1818H11V58.4848ZM69.1818 58.4848H78.8788V68.1818H69.1818V58.4848ZM88.5758 58.4848H98.2727V68.1818H88.5758V58.4848ZM117.667 58.4848H127.364V68.1818H117.667V58.4848ZM127.364 58.4848H137.061V68.1818H127.364V58.4848ZM137.061 58.4848H146.758V68.1818H137.061V58.4848ZM146.758 58.4848H156.455V68.1818H146.758V58.4848ZM156.455 58.4848H166.152V68.1818H156.455V58.4848ZM166.152 58.4848H175.848V68.1818H166.152V58.4848ZM175.848 58.4848H185.545V68.1818H175.848V58.4848ZM185.545 58.4848H195.242V68.1818H185.545V58.4848ZM195.242 58.4848H204.939V68.1818H195.242V58.4848ZM214.636 58.4848H224.333V68.1818H214.636V58.4848ZM224.333 58.4848H234.03V68.1818H224.333V58.4848ZM263.121 58.4848H272.818V68.1818H263.121V58.4848ZM321.303 58.4848H331V68.1818H321.303V58.4848ZM11 68.1818H20.697V77.8788H11V68.1818ZM20.697 68.1818H30.3939V77.8788H20.697V68.1818ZM30.3939 68.1818H40.0909V77.8788H30.3939V68.1818ZM40.0909 68.1818H49.7879V77.8788H40.0909V68.1818ZM49.7879 68.1818H59.4848V77.8788H49.7879V68.1818ZM59.4848 68.1818H69.1818V77.8788H59.4848V68.1818ZM69.1818 68.1818H78.8788V77.8788H69.1818V68.1818ZM88.5758 68.1818H98.2727V77.8788H88.5758V68.1818ZM107.97 68.1818H117.667V77.8788H107.97V68.1818ZM127.364 68.1818H137.061V77.8788H127.364V68.1818ZM146.758 68.1818H156.455V77.8788H146.758V68.1818ZM166.152 68.1818H175.848V77.8788H166.152V68.1818ZM185.545 68.1818H195.242V77.8788H185.545V68.1818ZM204.939 68.1818H214.636V77.8788H204.939V68.1818ZM224.333 68.1818H234.03V77.8788H224.333V68.1818ZM243.727 68.1818H253.424V77.8788H243.727V68.1818ZM263.121 68.1818H272.818V77.8788H263.121V68.1818ZM272.818 68.1818H282.515V77.8788H272.818V68.1818ZM282.515 68.1818H292.212V77.8788H282.515V68.1818ZM292.212 68.1818H301.909V77.8788H292.212V68.1818ZM301.909 68.1818H311.606V77.8788H301.909V68.1818ZM311.606 68.1818H321.303V77.8788H311.606V68.1818ZM321.303 68.1818H331V77.8788H321.303V68.1818ZM137.061 77.8788H146.758V87.5758H137.061V77.8788ZM146.758 77.8788H156.455V87.5758H146.758V77.8788ZM175.848 77.8788H185.545V87.5758H175.848V77.8788ZM204.939 77.8788H214.636V87.5758H204.939V77.8788ZM214.636 77.8788H224.333V87.5758H214.636V77.8788ZM234.03 77.8788H243.727V87.5758H234.03V77.8788ZM243.727 77.8788H253.424V87.5758H243.727V77.8788ZM20.697 87.5758H30.3939V97.2727H20.697V87.5758ZM49.7879 87.5758H59.4848V97.2727H49.7879V87.5758ZM69.1818 87.5758H78.8788V97.2727H69.1818V87.5758ZM88.5758 87.5758H98.2727V97.2727H88.5758V87.5758ZM117.667 87.5758H127.364V97.2727H117.667V87.5758ZM137.061 87.5758H146.758V97.2727H137.061V87.5758ZM146.758 87.5758H156.455V97.2727H146.758V87.5758ZM156.455 87.5758H166.152V97.2727H156.455V87.5758ZM166.152 87.5758H175.848V97.2727H166.152V87.5758ZM175.848 87.5758H185.545V97.2727H175.848V87.5758ZM195.242 87.5758H204.939V97.2727H195.242V87.5758ZM204.939 87.5758H214.636V97.2727H204.939V87.5758ZM214.636 87.5758H224.333V97.2727H214.636V87.5758ZM224.333 87.5758H234.03V97.2727H224.333V87.5758ZM234.03 87.5758H243.727V97.2727H234.03V87.5758ZM243.727 87.5758H253.424V97.2727H243.727V87.5758ZM253.424 87.5758H263.121V97.2727H253.424V87.5758ZM272.818 87.5758H282.515V97.2727H272.818V87.5758ZM282.515 87.5758H292.212V97.2727H282.515V87.5758ZM301.909 87.5758H311.606V97.2727H301.909V87.5758ZM11 97.2727H20.697V106.97H11V97.2727ZM40.0909 97.2727H49.7879V106.97H40.0909V97.2727ZM59.4848 97.2727H69.1818V106.97H59.4848V97.2727ZM78.8788 97.2727H88.5758V106.97H78.8788V97.2727ZM107.97 97.2727H117.667V106.97H107.97V97.2727ZM137.061 97.2727H146.758V106.97H137.061V97.2727ZM175.848 97.2727H185.545V106.97H175.848V97.2727ZM214.636 97.2727H224.333V106.97H214.636V97.2727ZM224.333 97.2727H234.03V106.97H224.333V97.2727ZM234.03 97.2727H243.727V106.97H234.03V97.2727ZM253.424 97.2727H263.121V106.97H253.424V97.2727ZM292.212 97.2727H301.909V106.97H292.212V97.2727ZM301.909 97.2727H311.606V106.97H301.909V97.2727ZM311.606 97.2727H321.303V106.97H311.606V97.2727ZM20.697 106.97H30.3939V116.667H20.697V106.97ZM30.3939 106.97H40.0909V116.667H30.3939V106.97ZM40.0909 106.97H49.7879V116.667H40.0909V106.97ZM49.7879 106.97H59.4848V116.667H49.7879V106.97ZM69.1818 106.97H78.8788V116.667H69.1818V106.97ZM107.97 106.97H117.667V116.667H107.97V106.97ZM117.667 106.97H127.364V116.667H117.667V106.97ZM146.758 106.97H156.455V116.667H146.758V106.97ZM156.455 106.97H166.152V116.667H156.455V106.97ZM185.545 106.97H195.242V116.667H185.545V106.97ZM204.939 106.97H214.636V116.667H204.939V106.97ZM214.636 106.97H224.333V116.667H214.636V106.97ZM234.03 106.97H243.727V116.667H234.03V106.97ZM292.212 106.97H301.909V116.667H292.212V106.97ZM311.606 106.97H321.303V116.667H311.606V106.97ZM20.697 116.667H30.3939V126.364H20.697V116.667ZM30.3939 116.667H40.0909V126.364H30.3939V116.667ZM59.4848 116.667H69.1818V126.364H59.4848V116.667ZM107.97 116.667H117.667V126.364H107.97V116.667ZM117.667 116.667H127.364V126.364H117.667V116.667ZM137.061 116.667H146.758V126.364H137.061V116.667ZM146.758 116.667H156.455V126.364H146.758V116.667ZM156.455 116.667H166.152V126.364H156.455V116.667ZM195.242 116.667H204.939V126.364H195.242V116.667ZM214.636 116.667H224.333V126.364H214.636V116.667ZM243.727 116.667H253.424V126.364H243.727V116.667ZM263.121 116.667H272.818V126.364H263.121V116.667ZM311.606 116.667H321.303V126.364H311.606V116.667ZM321.303 116.667H331V126.364H321.303V116.667ZM11 126.364H20.697V136.061H11V126.364ZM20.697 126.364H30.3939V136.061H20.697V126.364ZM49.7879 126.364H59.4848V136.061H49.7879V126.364ZM69.1818 126.364H78.8788V136.061H69.1818V126.364ZM88.5758 126.364H98.2727V136.061H88.5758V126.364ZM98.2727 126.364H107.97V136.061H98.2727V126.364ZM107.97 126.364H117.667V136.061H107.97V126.364ZM127.364 126.364H137.061V136.061H127.364V126.364ZM146.758 126.364H156.455V136.061H146.758V126.364ZM166.152 126.364H175.848V136.061H166.152V126.364ZM195.242 126.364H204.939V136.061H195.242V126.364ZM204.939 126.364H214.636V136.061H204.939V126.364ZM214.636 126.364H224.333V136.061H214.636V126.364ZM224.333 126.364H234.03V136.061H224.333V126.364ZM234.03 126.364H243.727V136.061H234.03V126.364ZM243.727 126.364H253.424V136.061H243.727V126.364ZM263.121 126.364H272.818V136.061H263.121V126.364ZM272.818 126.364H282.515V136.061H272.818V126.364ZM282.515 126.364H292.212V136.061H282.515V126.364ZM292.212 126.364H301.909V136.061H292.212V126.364ZM311.606 126.364H321.303V136.061H311.606V126.364ZM321.303 126.364H331V136.061H321.303V126.364ZM30.3939 136.061H40.0909V145.758H30.3939V136.061ZM40.0909 136.061H49.7879V145.758H40.0909V136.061ZM49.7879 136.061H59.4848V145.758H49.7879V136.061ZM59.4848 136.061H69.1818V145.758H59.4848V136.061ZM88.5758 136.061H98.2727V145.758H88.5758V136.061ZM98.2727 136.061H107.97V145.758H98.2727V136.061ZM107.97 136.061H117.667V145.758H107.97V136.061ZM127.364 136.061H137.061V145.758H127.364V136.061ZM146.758 136.061H156.455V145.758H146.758V136.061ZM175.848 136.061H185.545V145.758H175.848V136.061ZM185.545 136.061H195.242V145.758H185.545V136.061ZM234.03 136.061H243.727V145.758H234.03V136.061ZM243.727 136.061H253.424V145.758H243.727V136.061ZM253.424 136.061H263.121V145.758H253.424V136.061ZM272.818 136.061H282.515V145.758H272.818V136.061ZM292.212 136.061H301.909V145.758H292.212V136.061ZM301.909 136.061H311.606V145.758H301.909V136.061ZM69.1818 145.758H78.8788V155.455H69.1818V145.758ZM78.8788 145.758H88.5758V155.455H78.8788V145.758ZM107.97 145.758H117.667V155.455H107.97V145.758ZM117.667 145.758H127.364V155.455H117.667V145.758ZM127.364 145.758H137.061V155.455H127.364V145.758ZM146.758 145.758H156.455V155.455H146.758V145.758ZM156.455 145.758H166.152V155.455H156.455V145.758ZM166.152 145.758H175.848V155.455H166.152V145.758ZM224.333 145.758H234.03V155.455H224.333V145.758ZM234.03 145.758H243.727V155.455H234.03V145.758ZM253.424 145.758H263.121V155.455H253.424V145.758ZM263.121 145.758H272.818V155.455H263.121V145.758ZM282.515 145.758H292.212V155.455H282.515V145.758ZM311.606 145.758H321.303V155.455H311.606V145.758ZM11 155.455H20.697V165.152H11V155.455ZM20.697 155.455H30.3939V165.152H20.697V155.455ZM30.3939 155.455H40.0909V165.152H30.3939V155.455ZM40.0909 155.455H49.7879V165.152H40.0909V155.455ZM59.4848 155.455H69.1818V165.152H59.4848V155.455ZM88.5758 155.455H98.2727V165.152H88.5758V155.455ZM156.455 155.455H166.152V165.152H156.455V155.455ZM185.545 155.455H195.242V165.152H185.545V155.455ZM195.242 155.455H204.939V165.152H195.242V155.455ZM204.939 155.455H214.636V165.152H204.939V155.455ZM214.636 155.455H224.333V165.152H214.636V155.455ZM234.03 155.455H243.727V165.152H234.03V155.455ZM243.727 155.455H253.424V165.152H243.727V155.455ZM253.424 155.455H263.121V165.152H253.424V155.455ZM263.121 155.455H272.818V165.152H263.121V155.455ZM282.515 155.455H292.212V165.152H282.515V155.455ZM30.3939 165.152H40.0909V174.848H30.3939V165.152ZM49.7879 165.152H59.4848V174.848H49.7879V165.152ZM59.4848 165.152H69.1818V174.848H59.4848V165.152ZM69.1818 165.152H78.8788V174.848H69.1818V165.152ZM88.5758 165.152H98.2727V174.848H88.5758V165.152ZM107.97 165.152H117.667V174.848H107.97V165.152ZM117.667 165.152H127.364V174.848H117.667V165.152ZM127.364 165.152H137.061V174.848H127.364V165.152ZM146.758 165.152H156.455V174.848H146.758V165.152ZM156.455 165.152H166.152V174.848H156.455V165.152ZM175.848 165.152H185.545V174.848H175.848V165.152ZM195.242 165.152H204.939V174.848H195.242V165.152ZM214.636 165.152H224.333V174.848H214.636V165.152ZM243.727 165.152H253.424V174.848H243.727V165.152ZM263.121 165.152H272.818V174.848H263.121V165.152ZM282.515 165.152H292.212V174.848H282.515V165.152ZM292.212 165.152H301.909V174.848H292.212V165.152ZM311.606 165.152H321.303V174.848H311.606V165.152ZM11 174.848H20.697V184.545H11V174.848ZM40.0909 174.848H49.7879V184.545H40.0909V174.848ZM59.4848 174.848H69.1818V184.545H59.4848V174.848ZM88.5758 174.848H98.2727V184.545H88.5758V174.848ZM107.97 174.848H117.667V184.545H107.97V174.848ZM127.364 174.848H137.061V184.545H127.364V174.848ZM166.152 174.848H175.848V184.545H166.152V174.848ZM185.545 174.848H195.242V184.545H185.545V174.848ZM214.636 174.848H224.333V184.545H214.636V174.848ZM234.03 174.848H243.727V184.545H234.03V174.848ZM243.727 174.848H253.424V184.545H243.727V174.848ZM292.212 174.848H301.909V184.545H292.212V174.848ZM301.909 174.848H311.606V184.545H301.909V174.848ZM311.606 174.848H321.303V184.545H311.606V174.848ZM20.697 184.545H30.3939V194.242H20.697V184.545ZM49.7879 184.545H59.4848V194.242H49.7879V184.545ZM59.4848 184.545H69.1818V194.242H59.4848V184.545ZM69.1818 184.545H78.8788V194.242H69.1818V184.545ZM78.8788 184.545H88.5758V194.242H78.8788V184.545ZM88.5758 184.545H98.2727V194.242H88.5758V184.545ZM98.2727 184.545H107.97V194.242H98.2727V184.545ZM107.97 184.545H117.667V194.242H107.97V184.545ZM117.667 184.545H127.364V194.242H117.667V184.545ZM146.758 184.545H156.455V194.242H146.758V184.545ZM156.455 184.545H166.152V194.242H156.455V184.545ZM185.545 184.545H195.242V194.242H185.545V184.545ZM204.939 184.545H214.636V194.242H204.939V184.545ZM214.636 184.545H224.333V194.242H214.636V184.545ZM234.03 184.545H243.727V194.242H234.03V184.545ZM243.727 184.545H253.424V194.242H243.727V184.545ZM253.424 184.545H263.121V194.242H253.424V184.545ZM272.818 184.545H282.515V194.242H272.818V184.545ZM292.212 184.545H301.909V194.242H292.212V184.545ZM311.606 184.545H321.303V194.242H311.606V184.545ZM11 194.242H20.697V203.939H11V194.242ZM20.697 194.242H30.3939V203.939H20.697V194.242ZM40.0909 194.242H49.7879V203.939H40.0909V194.242ZM59.4848 194.242H69.1818V203.939H59.4848V194.242ZM78.8788 194.242H88.5758V203.939H78.8788V194.242ZM88.5758 194.242H98.2727V203.939H88.5758V194.242ZM107.97 194.242H117.667V203.939H107.97V194.242ZM117.667 194.242H127.364V203.939H117.667V194.242ZM137.061 194.242H146.758V203.939H137.061V194.242ZM195.242 194.242H204.939V203.939H195.242V194.242ZM204.939 194.242H214.636V203.939H204.939V194.242ZM214.636 194.242H224.333V203.939H214.636V194.242ZM243.727 194.242H253.424V203.939H243.727V194.242ZM253.424 194.242H263.121V203.939H253.424V194.242ZM272.818 194.242H282.515V203.939H272.818V194.242ZM311.606 194.242H321.303V203.939H311.606V194.242ZM11 203.939H20.697V213.636H11V203.939ZM49.7879 203.939H59.4848V213.636H49.7879V203.939ZM69.1818 203.939H78.8788V213.636H69.1818V203.939ZM98.2727 203.939H107.97V213.636H98.2727V203.939ZM117.667 203.939H127.364V213.636H117.667V203.939ZM166.152 203.939H175.848V213.636H166.152V203.939ZM175.848 203.939H185.545V213.636H175.848V203.939ZM214.636 203.939H224.333V213.636H214.636V203.939ZM224.333 203.939H234.03V213.636H224.333V203.939ZM243.727 203.939H253.424V213.636H243.727V203.939ZM263.121 203.939H272.818V213.636H263.121V203.939ZM282.515 203.939H292.212V213.636H282.515V203.939ZM292.212 203.939H301.909V213.636H292.212V203.939ZM311.606 203.939H321.303V213.636H311.606V203.939ZM11 213.636H20.697V223.333H11V213.636ZM20.697 213.636H30.3939V223.333H20.697V213.636ZM30.3939 213.636H40.0909V223.333H30.3939V213.636ZM40.0909 213.636H49.7879V223.333H40.0909V213.636ZM49.7879 213.636H59.4848V223.333H49.7879V213.636ZM78.8788 213.636H88.5758V223.333H78.8788V213.636ZM98.2727 213.636H107.97V223.333H98.2727V213.636ZM107.97 213.636H117.667V223.333H107.97V213.636ZM117.667 213.636H127.364V223.333H117.667V213.636ZM156.455 213.636H166.152V223.333H156.455V213.636ZM214.636 213.636H224.333V223.333H214.636V213.636ZM234.03 213.636H243.727V223.333H234.03V213.636ZM253.424 213.636H263.121V223.333H253.424V213.636ZM272.818 213.636H282.515V223.333H272.818V213.636ZM301.909 213.636H311.606V223.333H301.909V213.636ZM311.606 213.636H321.303V223.333H311.606V213.636ZM30.3939 223.333H40.0909V233.03H30.3939V223.333ZM59.4848 223.333H69.1818V233.03H59.4848V223.333ZM69.1818 223.333H78.8788V233.03H69.1818V223.333ZM78.8788 223.333H88.5758V233.03H78.8788V223.333ZM88.5758 223.333H98.2727V233.03H88.5758V223.333ZM127.364 223.333H137.061V233.03H127.364V223.333ZM146.758 223.333H156.455V233.03H146.758V223.333ZM156.455 223.333H166.152V233.03H156.455V223.333ZM204.939 223.333H214.636V233.03H204.939V223.333ZM234.03 223.333H243.727V233.03H234.03V223.333ZM253.424 223.333H263.121V233.03H253.424V223.333ZM272.818 223.333H282.515V233.03H272.818V223.333ZM282.515 223.333H292.212V233.03H282.515V223.333ZM301.909 223.333H311.606V233.03H301.909V223.333ZM311.606 223.333H321.303V233.03H311.606V223.333ZM40.0909 233.03H49.7879V242.727H40.0909V233.03ZM49.7879 233.03H59.4848V242.727H49.7879V233.03ZM78.8788 233.03H88.5758V242.727H78.8788V233.03ZM88.5758 233.03H98.2727V242.727H88.5758V233.03ZM98.2727 233.03H107.97V242.727H98.2727V233.03ZM117.667 233.03H127.364V242.727H117.667V233.03ZM146.758 233.03H156.455V242.727H146.758V233.03ZM185.545 233.03H195.242V242.727H185.545V233.03ZM195.242 233.03H204.939V242.727H195.242V233.03ZM214.636 233.03H224.333V242.727H214.636V233.03ZM224.333 233.03H234.03V242.727H224.333V233.03ZM253.424 233.03H263.121V242.727H253.424V233.03ZM263.121 233.03H272.818V242.727H263.121V233.03ZM272.818 233.03H282.515V242.727H272.818V233.03ZM282.515 233.03H292.212V242.727H282.515V233.03ZM292.212 233.03H301.909V242.727H292.212V233.03ZM311.606 233.03H321.303V242.727H311.606V233.03ZM11 242.727H20.697V252.424H11V242.727ZM20.697 242.727H30.3939V252.424H20.697V242.727ZM40.0909 242.727H49.7879V252.424H40.0909V242.727ZM49.7879 242.727H59.4848V252.424H49.7879V242.727ZM69.1818 242.727H78.8788V252.424H69.1818V242.727ZM78.8788 242.727H88.5758V252.424H78.8788V242.727ZM107.97 242.727H117.667V252.424H107.97V242.727ZM156.455 242.727H166.152V252.424H156.455V242.727ZM166.152 242.727H175.848V252.424H166.152V242.727ZM185.545 242.727H195.242V252.424H185.545V242.727ZM204.939 242.727H214.636V252.424H204.939V242.727ZM214.636 242.727H224.333V252.424H214.636V242.727ZM224.333 242.727H234.03V252.424H224.333V242.727ZM234.03 242.727H243.727V252.424H234.03V242.727ZM243.727 242.727H253.424V252.424H243.727V242.727ZM253.424 242.727H263.121V252.424H253.424V242.727ZM263.121 242.727H272.818V252.424H263.121V242.727ZM272.818 242.727H282.515V252.424H272.818V242.727ZM282.515 242.727H292.212V252.424H282.515V242.727ZM88.5758 252.424H98.2727V262.121H88.5758V252.424ZM107.97 252.424H117.667V262.121H107.97V252.424ZM117.667 252.424H127.364V262.121H117.667V252.424ZM127.364 252.424H137.061V262.121H127.364V252.424ZM137.061 252.424H146.758V262.121H137.061V252.424ZM146.758 252.424H156.455V262.121H146.758V252.424ZM156.455 252.424H166.152V262.121H156.455V252.424ZM166.152 252.424H175.848V262.121H166.152V252.424ZM204.939 252.424H214.636V262.121H204.939V252.424ZM214.636 252.424H224.333V262.121H214.636V252.424ZM224.333 252.424H234.03V262.121H224.333V252.424ZM234.03 252.424H243.727V262.121H234.03V252.424ZM243.727 252.424H253.424V262.121H243.727V252.424ZM282.515 252.424H292.212V262.121H282.515V252.424ZM301.909 252.424H311.606V262.121H301.909V252.424ZM311.606 252.424H321.303V262.121H311.606V252.424ZM11 262.121H20.697V271.818H11V262.121ZM20.697 262.121H30.3939V271.818H20.697V262.121ZM30.3939 262.121H40.0909V271.818H30.3939V262.121ZM40.0909 262.121H49.7879V271.818H40.0909V262.121ZM49.7879 262.121H59.4848V271.818H49.7879V262.121ZM59.4848 262.121H69.1818V271.818H59.4848V262.121ZM69.1818 262.121H78.8788V271.818H69.1818V262.121ZM127.364 262.121H137.061V271.818H127.364V262.121ZM146.758 262.121H156.455V271.818H146.758V262.121ZM166.152 262.121H175.848V271.818H166.152V262.121ZM185.545 262.121H195.242V271.818H185.545V262.121ZM204.939 262.121H214.636V271.818H204.939V262.121ZM243.727 262.121H253.424V271.818H243.727V262.121ZM263.121 262.121H272.818V271.818H263.121V262.121ZM282.515 262.121H292.212V271.818H282.515V262.121ZM292.212 262.121H301.909V271.818H292.212V262.121ZM311.606 262.121H321.303V271.818H311.606V262.121ZM11 271.818H20.697V281.515H11V271.818ZM69.1818 271.818H78.8788V281.515H69.1818V271.818ZM107.97 271.818H117.667V281.515H107.97V271.818ZM117.667 271.818H127.364V281.515H117.667V271.818ZM137.061 271.818H146.758V281.515H137.061V271.818ZM185.545 271.818H195.242V281.515H185.545V271.818ZM204.939 271.818H214.636V281.515H204.939V271.818ZM214.636 271.818H224.333V281.515H214.636V271.818ZM243.727 271.818H253.424V281.515H243.727V271.818ZM282.515 271.818H292.212V281.515H282.515V271.818ZM321.303 271.818H331V281.515H321.303V271.818ZM11 281.515H20.697V291.212H11V281.515ZM30.3939 281.515H40.0909V291.212H30.3939V281.515ZM40.0909 281.515H49.7879V291.212H40.0909V281.515ZM49.7879 281.515H59.4848V291.212H49.7879V281.515ZM69.1818 281.515H78.8788V291.212H69.1818V281.515ZM88.5758 281.515H98.2727V291.212H88.5758V281.515ZM98.2727 281.515H107.97V291.212H98.2727V281.515ZM117.667 281.515H127.364V291.212H117.667V281.515ZM146.758 281.515H156.455V291.212H146.758V281.515ZM166.152 281.515H175.848V291.212H166.152V281.515ZM195.242 281.515H204.939V291.212H195.242V281.515ZM204.939 281.515H214.636V291.212H204.939V281.515ZM214.636 281.515H224.333V291.212H214.636V281.515ZM224.333 281.515H234.03V291.212H224.333V281.515ZM243.727 281.515H253.424V291.212H243.727V281.515ZM253.424 281.515H263.121V291.212H253.424V281.515ZM263.121 281.515H272.818V291.212H263.121V281.515ZM272.818 281.515H282.515V291.212H272.818V281.515ZM282.515 281.515H292.212V291.212H282.515V281.515ZM292.212 281.515H301.909V291.212H292.212V281.515ZM321.303 281.515H331V291.212H321.303V281.515ZM11 291.212H20.697V300.909H11V291.212ZM30.3939 291.212H40.0909V300.909H30.3939V291.212ZM40.0909 291.212H49.7879V300.909H40.0909V291.212ZM49.7879 291.212H59.4848V300.909H49.7879V291.212ZM69.1818 291.212H78.8788V300.909H69.1818V291.212ZM98.2727 291.212H107.97V300.909H98.2727V291.212ZM107.97 291.212H117.667V300.909H107.97V291.212ZM146.758 291.212H156.455V300.909H146.758V291.212ZM156.455 291.212H166.152V300.909H156.455V291.212ZM185.545 291.212H195.242V300.909H185.545V291.212ZM224.333 291.212H234.03V300.909H224.333V291.212ZM234.03 291.212H243.727V300.909H234.03V291.212ZM263.121 291.212H272.818V300.909H263.121V291.212ZM272.818 291.212H282.515V300.909H272.818V291.212ZM282.515 291.212H292.212V300.909H282.515V291.212ZM292.212 291.212H301.909V300.909H292.212V291.212ZM311.606 291.212H321.303V300.909H311.606V291.212ZM11 300.909H20.697V310.606H11V300.909ZM30.3939 300.909H40.0909V310.606H30.3939V300.909ZM40.0909 300.909H49.7879V310.606H40.0909V300.909ZM49.7879 300.909H59.4848V310.606H49.7879V300.909ZM69.1818 300.909H78.8788V310.606H69.1818V300.909ZM98.2727 300.909H107.97V310.606H98.2727V300.909ZM137.061 300.909H146.758V310.606H137.061V300.909ZM185.545 300.909H195.242V310.606H185.545V300.909ZM204.939 300.909H214.636V310.606H204.939V300.909ZM224.333 300.909H234.03V310.606H224.333V300.909ZM253.424 300.909H263.121V310.606H253.424V300.909ZM263.121 300.909H272.818V310.606H263.121V300.909ZM272.818 300.909H282.515V310.606H272.818V300.909ZM282.515 300.909H292.212V310.606H282.515V300.909ZM301.909 300.909H311.606V310.606H301.909V300.909ZM11 310.606H20.697V320.303H11V310.606ZM69.1818 310.606H78.8788V320.303H69.1818V310.606ZM88.5758 310.606H98.2727V320.303H88.5758V310.606ZM107.97 310.606H117.667V320.303H107.97V310.606ZM127.364 310.606H137.061V320.303H127.364V310.606ZM137.061 310.606H146.758V320.303H137.061V310.606ZM146.758 310.606H156.455V320.303H146.758V310.606ZM166.152 310.606H175.848V320.303H166.152V310.606ZM175.848 310.606H185.545V320.303H175.848V310.606ZM185.545 310.606H195.242V320.303H185.545V310.606ZM195.242 310.606H204.939V320.303H195.242V310.606ZM214.636 310.606H224.333V320.303H214.636V310.606ZM224.333 310.606H234.03V320.303H224.333V310.606ZM243.727 310.606H253.424V320.303H243.727V310.606ZM253.424 310.606H263.121V320.303H253.424V310.606ZM11 320.303H20.697V330H11V320.303ZM20.697 320.303H30.3939V330H20.697V320.303ZM30.3939 320.303H40.0909V330H30.3939V320.303ZM40.0909 320.303H49.7879V330H40.0909V320.303ZM49.7879 320.303H59.4848V330H49.7879V320.303ZM59.4848 320.303H69.1818V330H59.4848V320.303ZM69.1818 320.303H78.8788V330H69.1818V320.303ZM98.2727 320.303H107.97V330H98.2727V320.303ZM107.97 320.303H117.667V330H107.97V320.303ZM117.667 320.303H127.364V330H117.667V320.303ZM127.364 320.303H137.061V330H127.364V320.303ZM137.061 320.303H146.758V330H137.061V320.303ZM175.848 320.303H185.545V330H175.848V320.303ZM195.242 320.303H204.939V330H195.242V320.303ZM214.636 320.303H224.333V330H214.636V320.303ZM224.333 320.303H234.03V330H224.333V320.303ZM234.03 320.303H243.727V330H234.03V320.303ZM243.727 320.303H253.424V330H243.727V320.303ZM263.121 320.303H272.818V330H263.121V320.303ZM292.212 320.303H301.909V330H292.212V320.303ZM321.303 320.303H331V330H321.303V320.303Z" fill="white"/>
        </g>
    </g>
    <defs>
        <filter id="filter0_d_1_68814" x="1" y="0" width="340" height="340" filterUnits="userSpaceOnUse" color-interpolation-filters="sRGB">
            <feFlood flood-opacity="0" result="BackgroundImageFix"/>
            <feColorMatrix in="SourceAlpha" type="matrix" values="0 0 0 0 0 0 0 0 0 0 0 0 0 0 0 0 0 0 127 0" result="hardAlpha"/>
            <feOffset/>
            <feGaussianBlur stdDeviation="5"/>
            <feComposite in2="hardAlpha" operator="out"/>
            <feColorMatrix type="matrix" values="0 0 0 0 0.164706 0 0 0 0 0.964706 0 0 0 0 1 0 0 0 0.15 0"/>
            <feBlend mode="normal" in2="BackgroundImageFix" result="effect1_dropShadow_1_68814"/>
            <feBlend mode="normal" in="SourceGraphic" in2="effect1_dropShadow_1_68814" result="shape"/>
        </filter>
        <clipPath id="clip0_1_68814">
            <rect width="340" height="340" fill="white" transform="translate(0.5)"/>
        </clipPath>
    </defs>
</svg>
