<svg width="341" height="340" viewBox="0 0 341 340" fill="none" xmlns="http://www.w3.org/2000/svg">
    <g clip-path="url(#clip0_1_54546)">
        <path d="M330.5 0H10.5C4.97715 0 0.5 4.47716 0.5 10V330C0.5 335.523 4.97716 340 10.5 340H330.5C336.023 340 340.5 335.523 340.5 330V10C340.5 4.47715 336.023 0 330.5 0Z" fill="#000B33"/>
        <g filter="url(#filter0_d_1_54546)">
            <path d="M11 10H23.8V22.8H11V10ZM23.8 10H36.6V22.8H23.8V10ZM36.6 10H49.4V22.8H36.6V10ZM49.4 10H62.2V22.8H49.4V10ZM62.2 10H75V22.8H62.2V10ZM75 10H87.8V22.8H75V10ZM87.8 10H100.6V22.8H87.8V10ZM113.4 10H126.2V22.8H113.4V10ZM126.2 10H139V22.8H126.2V10ZM139 10H151.8V22.8H139V10ZM151.8 10H164.6V22.8H151.8V10ZM164.6 10H177.4V22.8H164.6V10ZM203 10H215.8V22.8H203V10ZM241.4 10H254.2V22.8H241.4V10ZM254.2 10H267V22.8H254.2V10ZM267 10H279.8V22.8H267V10ZM279.8 10H292.6V22.8H279.8V10ZM292.6 10H305.4V22.8H292.6V10ZM305.4 10H318.2V22.8H305.4V10ZM318.2 10H331V22.8H318.2V10ZM11 22.8H23.8V35.6H11V22.8ZM87.8 22.8H100.6V35.6H87.8V22.8ZM113.4 22.8H126.2V35.6H113.4V22.8ZM126.2 22.8H139V35.6H126.2V22.8ZM139 22.8H151.8V35.6H139V22.8ZM203 22.8H215.8V35.6H203V22.8ZM241.4 22.8H254.2V35.6H241.4V22.8ZM318.2 22.8H331V35.6H318.2V22.8ZM11 35.6H23.8V48.4H11V35.6ZM36.6 35.6H49.4V48.4H36.6V35.6ZM49.4 35.6H62.2V48.4H49.4V35.6ZM62.2 35.6H75V48.4H62.2V35.6ZM87.8 35.6H100.6V48.4H87.8V35.6ZM113.4 35.6H126.2V48.4H113.4V35.6ZM139 35.6H151.8V48.4H139V35.6ZM151.8 35.6H164.6V48.4H151.8V35.6ZM164.6 35.6H177.4V48.4H164.6V35.6ZM190.2 35.6H203V48.4H190.2V35.6ZM203 35.6H215.8V48.4H203V35.6ZM241.4 35.6H254.2V48.4H241.4V35.6ZM267 35.6H279.8V48.4H267V35.6ZM279.8 35.6H292.6V48.4H279.8V35.6ZM292.6 35.6H305.4V48.4H292.6V35.6ZM318.2 35.6H331V48.4H318.2V35.6ZM11 48.4H23.8V61.2H11V48.4ZM36.6 48.4H49.4V61.2H36.6V48.4ZM49.4 48.4H62.2V61.2H49.4V48.4ZM62.2 48.4H75V61.2H62.2V48.4ZM87.8 48.4H100.6V61.2H87.8V48.4ZM113.4 48.4H126.2V61.2H113.4V48.4ZM126.2 48.4H139V61.2H126.2V48.4ZM139 48.4H151.8V61.2H139V48.4ZM164.6 48.4H177.4V61.2H164.6V48.4ZM190.2 48.4H203V61.2H190.2V48.4ZM241.4 48.4H254.2V61.2H241.4V48.4ZM267 48.4H279.8V61.2H267V48.4ZM279.8 48.4H292.6V61.2H279.8V48.4ZM292.6 48.4H305.4V61.2H292.6V48.4ZM318.2 48.4H331V61.2H318.2V48.4ZM11 61.2H23.8V74H11V61.2ZM36.6 61.2H49.4V74H36.6V61.2ZM49.4 61.2H62.2V74H49.4V61.2ZM62.2 61.2H75V74H62.2V61.2ZM87.8 61.2H100.6V74H87.8V61.2ZM113.4 61.2H126.2V74H113.4V61.2ZM126.2 61.2H139V74H126.2V61.2ZM139 61.2H151.8V74H139V61.2ZM203 61.2H215.8V74H203V61.2ZM215.8 61.2H228.6V74H215.8V61.2ZM241.4 61.2H254.2V74H241.4V61.2ZM267 61.2H279.8V74H267V61.2ZM279.8 61.2H292.6V74H279.8V61.2ZM292.6 61.2H305.4V74H292.6V61.2ZM318.2 61.2H331V74H318.2V61.2ZM11 74H23.8V86.8H11V74ZM87.8 74H100.6V86.8H87.8V74ZM126.2 74H139V86.8H126.2V74ZM139 74H151.8V86.8H139V74ZM151.8 74H164.6V86.8H151.8V74ZM164.6 74H177.4V86.8H164.6V74ZM177.4 74H190.2V86.8H177.4V74ZM190.2 74H203V86.8H190.2V74ZM203 74H215.8V86.8H203V74ZM215.8 74H228.6V86.8H215.8V74ZM241.4 74H254.2V86.8H241.4V74ZM318.2 74H331V86.8H318.2V74ZM11 86.8H23.8V99.6H11V86.8ZM23.8 86.8H36.6V99.6H23.8V86.8ZM36.6 86.8H49.4V99.6H36.6V86.8ZM49.4 86.8H62.2V99.6H49.4V86.8ZM62.2 86.8H75V99.6H62.2V86.8ZM75 86.8H87.8V99.6H75V86.8ZM87.8 86.8H100.6V99.6H87.8V86.8ZM113.4 86.8H126.2V99.6H113.4V86.8ZM139 86.8H151.8V99.6H139V86.8ZM164.6 86.8H177.4V99.6H164.6V86.8ZM190.2 86.8H203V99.6H190.2V86.8ZM215.8 86.8H228.6V99.6H215.8V86.8ZM241.4 86.8H254.2V99.6H241.4V86.8ZM254.2 86.8H267V99.6H254.2V86.8ZM267 86.8H279.8V99.6H267V86.8ZM279.8 86.8H292.6V99.6H279.8V86.8ZM292.6 86.8H305.4V99.6H292.6V86.8ZM305.4 86.8H318.2V99.6H305.4V86.8ZM318.2 86.8H331V99.6H318.2V86.8ZM113.4 99.6H126.2V112.4H113.4V99.6ZM126.2 99.6H139V112.4H126.2V99.6ZM164.6 99.6H177.4V112.4H164.6V99.6ZM177.4 99.6H190.2V112.4H177.4V99.6ZM190.2 99.6H203V112.4H190.2V99.6ZM23.8 112.4H36.6V125.2H23.8V112.4ZM36.6 112.4H49.4V125.2H36.6V112.4ZM62.2 112.4H75V125.2H62.2V112.4ZM87.8 112.4H100.6V125.2H87.8V112.4ZM100.6 112.4H113.4V125.2H100.6V112.4ZM126.2 112.4H139V125.2H126.2V112.4ZM139 112.4H151.8V125.2H139V112.4ZM190.2 112.4H203V125.2H190.2V112.4ZM241.4 112.4H254.2V125.2H241.4V112.4ZM267 112.4H279.8V125.2H267V112.4ZM279.8 112.4H292.6V125.2H279.8V112.4ZM292.6 112.4H305.4V125.2H292.6V112.4ZM305.4 112.4H318.2V125.2H305.4V112.4ZM318.2 112.4H331V125.2H318.2V112.4ZM23.8 125.2H36.6V138H23.8V125.2ZM36.6 125.2H49.4V138H36.6V125.2ZM49.4 125.2H62.2V138H49.4V125.2ZM62.2 125.2H75V138H62.2V125.2ZM75 125.2H87.8V138H75V125.2ZM100.6 125.2H113.4V138H100.6V125.2ZM113.4 125.2H126.2V138H113.4V125.2ZM139 125.2H151.8V138H139V125.2ZM215.8 125.2H228.6V138H215.8V125.2ZM241.4 125.2H254.2V138H241.4V125.2ZM318.2 125.2H331V138H318.2V125.2ZM11 138H23.8V150.8H11V138ZM23.8 138H36.6V150.8H23.8V138ZM36.6 138H49.4V150.8H36.6V138ZM75 138H87.8V150.8H75V138ZM87.8 138H100.6V150.8H87.8V138ZM100.6 138H113.4V150.8H100.6V138ZM113.4 138H126.2V150.8H113.4V138ZM139 138H151.8V150.8H139V138ZM164.6 138H177.4V150.8H164.6V138ZM177.4 138H190.2V150.8H177.4V138ZM228.6 138H241.4V150.8H228.6V138ZM241.4 138H254.2V150.8H241.4V138ZM292.6 138H305.4V150.8H292.6V138ZM305.4 138H318.2V150.8H305.4V138ZM318.2 138H331V150.8H318.2V138ZM11 150.8H23.8V163.6H11V150.8ZM23.8 150.8H36.6V163.6H23.8V150.8ZM126.2 150.8H139V163.6H126.2V150.8ZM139 150.8H151.8V163.6H139V150.8ZM164.6 150.8H177.4V163.6H164.6V150.8ZM254.2 150.8H267V163.6H254.2V150.8ZM305.4 150.8H318.2V163.6H305.4V150.8ZM23.8 163.6H36.6V176.4H23.8V163.6ZM36.6 163.6H49.4V176.4H36.6V163.6ZM87.8 163.6H100.6V176.4H87.8V163.6ZM164.6 163.6H177.4V176.4H164.6V163.6ZM228.6 163.6H241.4V176.4H228.6V163.6ZM241.4 163.6H254.2V176.4H241.4V163.6ZM254.2 163.6H267V176.4H254.2V163.6ZM279.8 163.6H292.6V176.4H279.8V163.6ZM305.4 163.6H318.2V176.4H305.4V163.6ZM318.2 163.6H331V176.4H318.2V163.6ZM36.6 176.4H49.4V189.2H36.6V176.4ZM75 176.4H87.8V189.2H75V176.4ZM100.6 176.4H113.4V189.2H100.6V176.4ZM139 176.4H151.8V189.2H139V176.4ZM151.8 176.4H164.6V189.2H151.8V176.4ZM177.4 176.4H190.2V189.2H177.4V176.4ZM215.8 176.4H228.6V189.2H215.8V176.4ZM241.4 176.4H254.2V189.2H241.4V176.4ZM279.8 176.4H292.6V189.2H279.8V176.4ZM318.2 176.4H331V189.2H318.2V176.4ZM11 189.2H23.8V202H11V189.2ZM36.6 189.2H49.4V202H36.6V189.2ZM75 189.2H87.8V202H75V189.2ZM87.8 189.2H100.6V202H87.8V189.2ZM100.6 189.2H113.4V202H100.6V189.2ZM126.2 189.2H139V202H126.2V189.2ZM151.8 189.2H164.6V202H151.8V189.2ZM164.6 189.2H177.4V202H164.6V189.2ZM190.2 189.2H203V202H190.2V189.2ZM241.4 189.2H254.2V202H241.4V189.2ZM254.2 189.2H267V202H254.2V189.2ZM292.6 189.2H305.4V202H292.6V189.2ZM305.4 189.2H318.2V202H305.4V189.2ZM318.2 189.2H331V202H318.2V189.2ZM23.8 202H36.6V214.8H23.8V202ZM36.6 202H49.4V214.8H36.6V202ZM62.2 202H75V214.8H62.2V202ZM113.4 202H126.2V214.8H113.4V202ZM139 202H151.8V214.8H139V202ZM151.8 202H164.6V214.8H151.8V202ZM164.6 202H177.4V214.8H164.6V202ZM203 202H215.8V214.8H203V202ZM241.4 202H254.2V214.8H241.4V202ZM267 202H279.8V214.8H267V202ZM305.4 202H318.2V214.8H305.4V202ZM11 214.8H23.8V227.6H11V214.8ZM87.8 214.8H100.6V227.6H87.8V214.8ZM100.6 214.8H113.4V227.6H100.6V214.8ZM113.4 214.8H126.2V227.6H113.4V214.8ZM190.2 214.8H203V227.6H190.2V214.8ZM215.8 214.8H228.6V227.6H215.8V214.8ZM228.6 214.8H241.4V227.6H228.6V214.8ZM241.4 214.8H254.2V227.6H241.4V214.8ZM254.2 214.8H267V227.6H254.2V214.8ZM267 214.8H279.8V227.6H267V214.8ZM279.8 214.8H292.6V227.6H279.8V214.8ZM113.4 227.6H126.2V240.4H113.4V227.6ZM126.2 227.6H139V240.4H126.2V227.6ZM177.4 227.6H190.2V240.4H177.4V227.6ZM203 227.6H215.8V240.4H203V227.6ZM215.8 227.6H228.6V240.4H215.8V227.6ZM267 227.6H279.8V240.4H267V227.6ZM279.8 227.6H292.6V240.4H279.8V227.6ZM305.4 227.6H318.2V240.4H305.4V227.6ZM318.2 227.6H331V240.4H318.2V227.6ZM11 240.4H23.8V253.2H11V240.4ZM23.8 240.4H36.6V253.2H23.8V240.4ZM36.6 240.4H49.4V253.2H36.6V240.4ZM49.4 240.4H62.2V253.2H49.4V240.4ZM62.2 240.4H75V253.2H62.2V240.4ZM75 240.4H87.8V253.2H75V240.4ZM87.8 240.4H100.6V253.2H87.8V240.4ZM113.4 240.4H126.2V253.2H113.4V240.4ZM151.8 240.4H164.6V253.2H151.8V240.4ZM164.6 240.4H177.4V253.2H164.6V240.4ZM203 240.4H215.8V253.2H203V240.4ZM215.8 240.4H228.6V253.2H215.8V240.4ZM241.4 240.4H254.2V253.2H241.4V240.4ZM267 240.4H279.8V253.2H267V240.4ZM279.8 240.4H292.6V253.2H279.8V240.4ZM305.4 240.4H318.2V253.2H305.4V240.4ZM318.2 240.4H331V253.2H318.2V240.4ZM11 253.2H23.8V266H11V253.2ZM87.8 253.2H100.6V266H87.8V253.2ZM126.2 253.2H139V266H126.2V253.2ZM139 253.2H151.8V266H139V253.2ZM151.8 253.2H164.6V266H151.8V253.2ZM164.6 253.2H177.4V266H164.6V253.2ZM177.4 253.2H190.2V266H177.4V253.2ZM190.2 253.2H203V266H190.2V253.2ZM215.8 253.2H228.6V266H215.8V253.2ZM267 253.2H279.8V266H267V253.2ZM279.8 253.2H292.6V266H279.8V253.2ZM318.2 253.2H331V266H318.2V253.2ZM11 266H23.8V278.8H11V266ZM36.6 266H49.4V278.8H36.6V266ZM49.4 266H62.2V278.8H49.4V266ZM62.2 266H75V278.8H62.2V266ZM87.8 266H100.6V278.8H87.8V266ZM113.4 266H126.2V278.8H113.4V266ZM151.8 266H164.6V278.8H151.8V266ZM164.6 266H177.4V278.8H164.6V266ZM190.2 266H203V278.8H190.2V266ZM215.8 266H228.6V278.8H215.8V266ZM228.6 266H241.4V278.8H228.6V266ZM241.4 266H254.2V278.8H241.4V266ZM254.2 266H267V278.8H254.2V266ZM267 266H279.8V278.8H267V266ZM279.8 266H292.6V278.8H279.8V266ZM318.2 266H331V278.8H318.2V266ZM11 278.8H23.8V291.6H11V278.8ZM36.6 278.8H49.4V291.6H36.6V278.8ZM49.4 278.8H62.2V291.6H49.4V278.8ZM62.2 278.8H75V291.6H62.2V278.8ZM87.8 278.8H100.6V291.6H87.8V278.8ZM126.2 278.8H139V291.6H126.2V278.8ZM139 278.8H151.8V291.6H139V278.8ZM203 278.8H215.8V291.6H203V278.8ZM254.2 278.8H267V291.6H254.2V278.8ZM267 278.8H279.8V291.6H267V278.8ZM279.8 278.8H292.6V291.6H279.8V278.8ZM292.6 278.8H305.4V291.6H292.6V278.8ZM11 291.6H23.8V304.4H11V291.6ZM36.6 291.6H49.4V304.4H36.6V291.6ZM49.4 291.6H62.2V304.4H49.4V291.6ZM62.2 291.6H75V304.4H62.2V291.6ZM87.8 291.6H100.6V304.4H87.8V291.6ZM113.4 291.6H126.2V304.4H113.4V291.6ZM126.2 291.6H139V304.4H126.2V291.6ZM139 291.6H151.8V304.4H139V291.6ZM164.6 291.6H177.4V304.4H164.6V291.6ZM215.8 291.6H228.6V304.4H215.8V291.6ZM228.6 291.6H241.4V304.4H228.6V291.6ZM267 291.6H279.8V304.4H267V291.6ZM318.2 291.6H331V304.4H318.2V291.6ZM11 304.4H23.8V317.2H11V304.4ZM87.8 304.4H100.6V317.2H87.8V304.4ZM113.4 304.4H126.2V317.2H113.4V304.4ZM126.2 304.4H139V317.2H126.2V304.4ZM139 304.4H151.8V317.2H139V304.4ZM164.6 304.4H177.4V317.2H164.6V304.4ZM177.4 304.4H190.2V317.2H177.4V304.4ZM215.8 304.4H228.6V317.2H215.8V304.4ZM228.6 304.4H241.4V317.2H228.6V304.4ZM267 304.4H279.8V317.2H267V304.4ZM279.8 304.4H292.6V317.2H279.8V304.4ZM305.4 304.4H318.2V317.2H305.4V304.4ZM11 317.2H23.8V330H11V317.2ZM23.8 317.2H36.6V330H23.8V317.2ZM36.6 317.2H49.4V330H36.6V317.2ZM49.4 317.2H62.2V330H49.4V317.2ZM62.2 317.2H75V330H62.2V317.2ZM75 317.2H87.8V330H75V317.2ZM87.8 317.2H100.6V330H87.8V317.2ZM126.2 317.2H139V330H126.2V317.2ZM139 317.2H151.8V330H139V317.2ZM190.2 317.2H203V330H190.2V317.2ZM203 317.2H215.8V330H203V317.2ZM215.8 317.2H228.6V330H215.8V317.2ZM228.6 317.2H241.4V330H228.6V317.2ZM254.2 317.2H267V330H254.2V317.2ZM305.4 317.2H318.2V330H305.4V317.2ZM318.2 317.2H331V330H318.2V317.2Z" fill="white"/>
        </g>
    </g>
    <defs>
        <filter id="filter0_d_1_54546" x="1" y="0" width="340" height="340" filterUnits="userSpaceOnUse" color-interpolation-filters="sRGB">
            <feFlood flood-opacity="0" result="BackgroundImageFix"/>
            <feColorMatrix in="SourceAlpha" type="matrix" values="0 0 0 0 0 0 0 0 0 0 0 0 0 0 0 0 0 0 127 0" result="hardAlpha"/>
            <feOffset/>
            <feGaussianBlur stdDeviation="5"/>
            <feComposite in2="hardAlpha" operator="out"/>
            <feColorMatrix type="matrix" values="0 0 0 0 0.164706 0 0 0 0 0.964706 0 0 0 0 1 0 0 0 0.15 0"/>
            <feBlend mode="normal" in2="BackgroundImageFix" result="effect1_dropShadow_1_54546"/>
            <feBlend mode="normal" in="SourceGraphic" in2="effect1_dropShadow_1_54546" result="shape"/>
        </filter>
        <clipPath id="clip0_1_54546">
            <rect width="340" height="340" fill="white" transform="translate(0.5)"/>
        </clipPath>
    </defs>
</svg>
