<svg width="108" height="104" viewBox="0 0 108 104" fill="none" xmlns="http://www.w3.org/2000/svg">
<g filter="url(#filter0_d_609_12146)">
<path fill-rule="evenodd" clip-rule="evenodd" d="M54.6869 6.94136C54.4967 6.24635 53.5115 6.24461 53.3188 6.93894L47.427 28.1655H60.4973L54.6869 6.94136ZM61.9694 28.1681L56.0557 6.56663C55.4849 4.48161 52.5295 4.47639 51.9514 6.55938L45.9514 28.1758C44.8746 28.2815 44.0333 29.1896 44.0333 30.2942V49.8964H41.9394C40.7637 49.8964 39.8107 50.8495 39.8107 52.0251V67.9429C39.0291 68.2315 38.4718 68.9833 38.4718 69.8651V82.1323H35.657C35.2651 82.1323 34.9474 81.8146 34.9474 81.4228V77.4345C34.9474 76.2759 33.6343 75.6056 32.6959 76.285L31.2511 77.3313L29.8063 76.285C28.868 75.6055 27.5549 76.2759 27.5549 77.4345V81.4228C27.5549 81.8146 27.2372 82.1323 26.8453 82.1323H24.2251C23.8332 82.1323 23.5155 81.8146 23.5155 81.4228V77.4074C23.5155 76.2593 22.2231 75.5864 21.2825 76.2448L19.7306 77.3311L18.3936 76.3284C17.458 75.6267 16.1229 76.2943 16.1229 77.4637V81.4228C16.1229 81.8146 15.8053 82.1323 15.4134 82.1323H12.9992C12.6073 82.1323 12.2896 81.8146 12.2896 81.4228V70.5653L10.0497 64.3371C9.87366 63.8477 9.40954 63.5214 8.8895 63.5214C8.40042 63.5214 7.95758 63.8105 7.7608 64.2582L5 70.54V96.8713C5 98.0469 5.95306 99 7.12872 99H101.307C102.483 99 103.436 98.0469 103.436 96.8713V70.536L100.813 64.7379C100.415 63.8589 99.1669 63.8589 98.7693 64.7379L96.1463 70.536V81.4228C96.1463 81.8146 95.8286 82.1323 95.4367 82.1323H92.6106C92.2187 82.1323 91.901 81.8146 91.901 81.4228V77.4345C91.901 76.2759 90.5878 75.6055 89.6495 76.285L88.2199 77.3202L87.0048 76.3752C86.0726 75.6501 84.7144 76.3144 84.7144 77.4954V81.4228C84.7144 81.8146 84.3967 82.1323 84.0048 82.1323H81.5906C81.1987 82.1323 80.8811 81.8146 80.8811 81.4228V77.3823C80.8811 76.2441 79.6083 75.569 78.666 76.2073L76.9854 77.3458L75.4125 76.2448C74.4719 75.5864 73.1795 76.2593 73.1795 77.4074V81.4228C73.1795 81.8146 72.8618 82.1323 72.4699 82.1323H69.0372V69.7621C69.0372 68.9381 68.5248 68.2337 67.8013 67.9501V52.0251C67.8013 50.8495 66.8482 49.8964 65.6726 49.8964H63.9907V30.2942C63.9907 29.1546 63.0951 28.2241 61.9694 28.1681ZM62.5715 49.8964V40.0953L54.4377 33.9949C54.1854 33.8057 53.8385 33.8057 53.5862 33.9949L45.4524 40.0953V49.8964H62.5715ZM45.4524 38.3214L52.7347 32.8596C53.4916 32.292 54.5323 32.292 55.2892 32.8596L62.5715 38.3214V30.2942C62.5715 29.9023 62.2538 29.5846 61.8619 29.5846H46.162C45.7701 29.5846 45.4524 29.9023 45.4524 30.2942V38.3214ZM66.3822 67.8167V52.0251C66.3822 51.6332 66.0645 51.3155 65.6726 51.3155H41.9394C41.5475 51.3155 41.2298 51.6332 41.2298 52.0251V67.8167H66.3822ZM40.5203 69.2358C40.1727 69.2358 39.891 69.5176 39.891 69.8651V89.0327H67.618V69.7621C67.618 69.4715 67.3824 69.2358 67.0917 69.2358H62.8578V75.8386C62.8578 76.2304 62.5401 76.5481 62.1482 76.5481C61.7563 76.5481 61.4386 76.2304 61.4386 75.8386V69.2358H54.5156V75.8386C54.5156 76.2304 54.1979 76.5481 53.806 76.5481C53.4141 76.5481 53.0964 76.2304 53.0964 75.8386V69.2358H46.0704V75.8386C46.0704 76.2304 45.7527 76.5481 45.3608 76.5481C44.9689 76.5481 44.6512 76.2304 44.6512 75.8386V69.2358H40.5203ZM67.618 90.4518H39.891V97.5809H67.618V90.4518ZM69.0372 97.5809H101.307C101.699 97.5809 102.017 97.2632 102.017 96.8713V76.7541H97.5655V81.4228C97.5655 82.5984 96.6124 83.5515 95.4367 83.5515H92.6106C91.4349 83.5515 90.4819 82.5984 90.4819 81.4228V77.4345L89.0523 78.4697C88.5411 78.8398 87.8469 78.8279 87.3487 78.4405L86.1336 77.4954V81.4228C86.1336 82.5984 85.1805 83.5515 84.0048 83.5515H81.5906C80.415 83.5515 79.4619 82.5984 79.4619 81.4228V77.3823L77.7813 78.5208C77.2941 78.8508 76.6537 78.8459 76.1716 78.5084L74.5987 77.4074V81.4228C74.5987 82.5984 73.6456 83.5515 72.4699 83.5515H69.0372V97.5809ZM97.5655 75.335H102.017V71.3986H97.5655V75.335ZM97.9557 69.9795H101.627L99.7911 65.9222L97.9557 69.9795ZM38.4718 97.5809V83.5515H35.657C34.4813 83.5515 33.5283 82.5984 33.5283 81.4228V77.4345L32.0835 78.4807C31.5869 78.8403 30.9154 78.8403 30.4188 78.4807L28.974 77.4345V81.4228C28.974 82.5984 28.0209 83.5515 26.8453 83.5515H24.2251C23.0494 83.5515 22.0964 82.5984 22.0964 81.4228V77.4074L20.5444 78.4938C20.0418 78.8456 19.37 78.8346 18.8791 78.4665L17.5421 77.4637V81.4228C17.5421 82.5984 16.589 83.5515 15.4134 83.5515H12.9992C11.8235 83.5515 10.8704 82.5984 10.8704 81.4228V76.7541H6.41914V96.8713C6.41914 97.2632 6.73683 97.5809 7.12872 97.5809H38.4718ZM6.41914 75.335H10.8704V71.3986H6.41914V75.335ZM6.7965 69.9795H10.5708L8.8722 65.2565L6.7965 69.9795ZM43.095 79.9695C43.4869 79.9695 43.8046 80.2872 43.8046 80.6791V83.7688C43.8046 84.1607 43.4869 84.4784 43.095 84.4784C42.7031 84.4784 42.3854 84.1607 42.3854 83.7688V80.6791C42.3854 80.2872 42.7031 79.9695 43.095 79.9695ZM50.3043 79.9695C50.6962 79.9695 51.0139 80.2872 51.0139 80.6791V83.7688C51.0139 84.1607 50.6962 84.4784 50.3043 84.4784C49.9124 84.4784 49.5948 84.1607 49.5948 83.7688V80.6791C49.5948 80.2872 49.9124 79.9695 50.3043 79.9695ZM57.5136 79.9695C57.9055 79.9695 58.2232 80.2872 58.2232 80.6791V83.7688C58.2232 84.1607 57.9055 84.4784 57.5136 84.4784C57.1218 84.4784 56.8041 84.1607 56.8041 83.7688V80.6791C56.8041 80.2872 57.1218 79.9695 57.5136 79.9695ZM64.723 79.9695C65.1148 79.9695 65.4325 80.2872 65.4325 80.6791V83.7688C65.4325 84.1607 65.1148 84.4784 64.723 84.4784C64.3311 84.4784 64.0134 84.1607 64.0134 83.7688V80.6791C64.0134 80.2872 64.3311 79.9695 64.723 79.9695ZM87.0317 86.3436C87.0317 85.9517 87.3494 85.634 87.7413 85.634H90.6765C91.0684 85.634 91.386 85.9517 91.386 86.3436C91.386 86.7354 91.0684 87.0531 90.6765 87.0531H87.7413C87.3494 87.0531 87.0317 86.7354 87.0317 86.3436ZM7.93522 87.2705C7.93522 86.8786 8.25291 86.5609 8.64479 86.5609H11.58C11.9719 86.5609 12.2896 86.8786 12.2896 87.2705C12.2896 87.6624 11.9719 87.98 11.58 87.98H8.64479C8.25291 87.98 7.93522 87.6624 7.93522 87.2705ZM70.7077 87.6824C70.7077 87.2905 71.0254 86.9729 71.4173 86.9729H74.3525C74.7444 86.9729 75.0621 87.2905 75.0621 87.6824C75.0621 88.0743 74.7444 88.392 74.3525 88.392H71.4173C71.0254 88.392 70.7077 88.0743 70.7077 87.6824ZM20.294 88.1974C20.294 87.8055 20.6117 87.4878 21.0036 87.4878H23.9388C24.3307 87.4878 24.6484 87.8055 24.6484 88.1974C24.6484 88.5893 24.3307 88.907 23.9388 88.907H21.0036C20.6117 88.907 20.294 88.5893 20.294 88.1974ZM94.138 90.7721C94.138 90.3803 94.4557 90.0626 94.8476 90.0626H97.7828C98.1747 90.0626 98.4924 90.3803 98.4924 90.7721C98.4924 91.164 98.1747 91.4817 97.7828 91.4817H94.8476C94.4557 91.4817 94.138 91.164 94.138 90.7721ZM77.5051 91.802C77.5051 91.4102 77.8228 91.0925 78.2147 91.0925H81.1499C81.5418 91.0925 81.8595 91.4102 81.8595 91.802C81.8595 92.1939 81.5418 92.5116 81.1499 92.5116H78.2147C77.8228 92.5116 77.5051 92.1939 77.5051 91.802ZM14.3721 92.626C14.3721 92.2341 14.6898 91.9164 15.0817 91.9164H18.0169C18.4088 91.9164 18.7265 92.2341 18.7265 92.626C18.7265 93.0179 18.4088 93.3355 18.0169 93.3355H15.0817C14.6898 93.3355 14.3721 93.0179 14.3721 92.626ZM29.6147 92.626C29.6147 92.2341 29.9323 91.9164 30.3242 91.9164H33.2594C33.6513 91.9164 33.969 92.2341 33.969 92.626C33.969 93.0179 33.6513 93.3355 33.2594 93.3355H30.3242C29.9323 93.3355 29.6147 93.0179 29.6147 92.626Z" fill="white" stroke="#0084FF" stroke-width="0.2" stroke-linecap="round"/>
<path fill-rule="evenodd" clip-rule="evenodd" d="M53.9117 66.2589C57.552 66.2589 60.5031 63.3079 60.5031 59.6675C60.5031 56.0272 57.552 53.0762 53.9117 53.0762C50.2714 53.0762 47.3203 56.0272 47.3203 59.6675C47.3203 63.3079 50.2714 66.2589 53.9117 66.2589ZM54.4116 55.3573C54.4116 55.0812 54.1877 54.8573 53.9116 54.8573C53.6354 54.8573 53.4116 55.0812 53.4116 55.3573V59.6671V60.1671H53.9116H57.4608C57.7369 60.1671 57.9608 59.9432 57.9608 59.6671C57.9608 59.3909 57.7369 59.1671 57.4608 59.1671H54.4116V55.3573Z" fill="url(#paint0_linear_609_12146)"/>
</g>
<defs>
<filter id="filter0_d_609_12146" x="0.898438" y="0.900391" width="106.637" height="102.199" filterUnits="userSpaceOnUse" color-interpolation-filters="sRGB">
<feFlood flood-opacity="0" result="BackgroundImageFix"/>
<feColorMatrix in="SourceAlpha" type="matrix" values="0 0 0 0 0 0 0 0 0 0 0 0 0 0 0 0 0 0 127 0" result="hardAlpha"/>
<feOffset/>
<feGaussianBlur stdDeviation="2"/>
<feComposite in2="hardAlpha" operator="out"/>
<feColorMatrix type="matrix" values="0 0 0 0 0.164706 0 0 0 0 0.964706 0 0 0 0 1 0 0 0 0.15 0"/>
<feBlend mode="normal" in2="BackgroundImageFix" result="effect1_dropShadow_609_12146"/>
<feBlend mode="normal" in="SourceGraphic" in2="effect1_dropShadow_609_12146" result="shape"/>
</filter>
<linearGradient id="paint0_linear_609_12146" x1="47.7038" y1="48.5192" x2="57.6149" y2="69.1954" gradientUnits="userSpaceOnUse">
<stop stop-color="white"/>
<stop offset="1" stop-color="#00FCFF"/>
</linearGradient>
</defs>
</svg>
