<svg width="110" height="104" viewBox="0 0 110 104" fill="none" xmlns="http://www.w3.org/2000/svg">
<g filter="url(#filter0_d_609_12155)">
<path fill-rule="evenodd" clip-rule="evenodd" d="M24.1263 6.62069C22.9521 6.62069 21.7828 6.7745 20.6485 7.07819L20.3577 7.15604C18.9718 7.52709 17.665 8.14759 16.5016 8.98712C15.488 9.71849 14.597 10.6061 13.8617 11.6169L13.5885 11.9924C12.6274 13.3138 11.9088 14.7998 11.4689 16.3739C11.1339 17.5723 10.9634 18.8133 10.9634 20.0573C10.9634 21.1977 11.1061 22.3335 11.3881 23.4384L11.7883 25.0067C12.0226 25.9248 12.4206 26.793 12.9633 27.5697C14.0056 29.0613 15.3502 30.3168 16.9097 31.2546L21.2348 33.8553H75.3153L76.4622 32.9174C76.8249 32.6208 77.1147 32.2449 77.3093 31.8186L77.3278 31.7782C77.4978 31.4056 77.5858 31.0009 77.5858 30.5914C77.5858 29.9284 77.3553 29.2861 76.9338 28.7744L76.7199 28.5148C76.4025 28.1295 76.0002 27.8229 75.5444 27.6191C75.1291 27.4333 74.6793 27.3373 74.2244 27.3373H72.5211C72.5085 27.3376 72.496 27.3376 72.4836 27.3373H24.1054C23.3318 27.3373 22.5641 27.2031 21.8364 26.9405C21.2392 26.7251 20.6757 26.4256 20.1629 26.0512L19.7685 25.7632C18.9443 25.1614 18.2731 24.3742 17.8092 23.4652C17.3415 22.5489 17.0976 21.5348 17.0976 20.506V20.1025C17.0976 19.375 17.2076 18.6517 17.4238 17.957C17.7458 16.9227 18.2964 15.9741 19.0348 15.1815L19.102 15.1094C19.844 14.313 20.75 13.6872 21.7575 13.2752C22.6608 12.9059 23.6274 12.7159 24.6033 12.7159H74.5823C74.8333 12.7159 75.0829 12.677 75.322 12.6006L75.557 12.5256C76.0157 12.379 76.4207 12.0995 76.7203 11.7225L76.7477 11.688C77.0896 11.2579 77.2757 10.7247 77.2757 10.1753V9.21393C77.2757 8.68895 77.1057 8.17807 76.7912 7.7577L76.7142 7.65468C76.4111 7.24958 75.9892 6.94911 75.5073 6.79516L75.322 6.73598C75.0829 6.65958 74.8333 6.62069 74.5823 6.62069H24.1263ZM18.9713 18.4387C18.8036 18.9774 18.7183 19.5383 18.7183 20.1025V20.506C18.7183 21.2786 18.9015 22.0403 19.2527 22.7285C19.6011 23.4111 20.1052 24.0023 20.7242 24.4543L21.1186 24.7423C21.5071 25.0259 21.934 25.2528 22.3865 25.416C22.9377 25.6149 23.5193 25.7166 24.1054 25.7166H71.4107C70.3761 22.0173 70.1702 18.1312 70.8124 14.3366H24.6033C23.8377 14.3366 23.0795 14.4856 22.3709 14.7753C21.5806 15.0985 20.8698 15.5894 20.2878 16.2142L20.2206 16.2863C19.6479 16.9009 19.221 17.6366 18.9713 18.4387ZM72.4576 14.3366H74.5823C75.0007 14.3366 75.4166 14.2718 75.8152 14.1444L76.0501 14.0694C76.8148 13.8251 77.4896 13.3593 77.9891 12.7309L78.0165 12.6964C78.5862 11.9796 78.8963 11.091 78.8963 10.1753V9.21393C78.8963 8.33896 78.6131 7.4875 78.089 6.78688L78.0119 6.68386C77.5068 6.00869 76.8037 5.50791 76.0005 5.25133L75.8152 5.19215C75.4166 5.06482 75.0007 5 74.5823 5H24.1263C22.8105 5 21.5004 5.17234 20.2294 5.51264L19.9386 5.59049C18.3624 6.01246 16.8764 6.71811 15.5532 7.67286C14.4006 8.50459 13.3873 9.51403 12.5511 10.6635L12.2779 11.0391C11.203 12.5168 10.3998 14.1781 9.90803 15.9376C9.53347 17.2777 9.34274 18.6655 9.34274 20.0573C9.34274 21.3328 9.5023 22.6033 9.81769 23.8392L10.2179 25.4074C10.5004 26.5145 10.9804 27.5615 11.6348 28.498C12.8074 30.1761 14.3201 31.5885 16.0745 32.6435L18.0898 33.8553H13.9026C12.8257 33.8553 11.7835 34.2365 10.9607 34.9313C9.93412 35.7982 9.34274 37.0762 9.34274 38.4183C9.34274 39.6851 9.86834 40.8989 10.7954 41.7642L10.8472 41.8125C11.7241 42.631 12.879 43.0862 14.0785 43.0862H16.6727L18.7202 50.4118L16.6773 57.5412L14.2099 57.534C13.5388 57.532 12.8745 57.6679 12.2582 57.9332L12.2143 57.9521C11.319 58.3374 10.564 58.9889 10.0517 59.8181C9.58822 60.5682 9.34274 61.4325 9.34274 62.3143V62.5608C9.34274 63.7328 9.70926 64.8744 10.3895 65.8264C10.2085 65.8956 10.0322 65.9782 9.8621 66.0738L9.43115 66.3161C8.7631 66.6917 8.14551 67.1507 7.59322 67.6821L7.47495 67.7959C6.82572 68.4205 6.28565 69.1494 5.87717 69.9524C5.30056 71.0859 5 72.3397 5 73.6114V90.5029C5 91.859 5.30973 93.1971 5.90555 94.4152L5.99234 94.5927C6.3149 95.2521 6.73184 95.8611 7.23002 96.4003C8.03067 97.2669 9.02314 97.9339 10.1279 98.348L10.3871 98.4452C11.366 98.8121 12.4028 99 13.4482 99H100.397C100.995 99 101.588 98.8835 102.142 98.6571C102.827 98.3769 103.435 97.9358 103.914 97.3711L104.081 97.1735C104.541 96.6308 104.869 95.9884 105.038 95.2973C105.199 94.6368 105.212 93.9486 105.075 93.2826L105.048 93.1511C104.877 92.3244 104.486 91.5594 103.916 90.9373C103.262 90.2245 102.403 89.7322 101.457 89.5287L101.186 89.4703C100.803 89.3879 100.412 89.3463 100.02 89.3463H97.7519C96.6795 84.6263 96.6796 79.726 97.7518 75.0067H100.025C100.414 75.0067 100.801 74.9655 101.181 74.8838L101.434 74.8293C102.396 74.6222 103.269 74.1177 103.929 73.3871C104.25 73.031 104.515 72.6277 104.715 72.1913L104.839 71.9198C105.118 71.3073 105.263 70.6418 105.263 69.9685V69.8388C105.263 69.2509 105.137 68.67 104.893 68.1352L104.883 68.1149C104.543 67.37 103.984 66.7463 103.281 66.3269C102.967 66.1398 102.629 65.9962 102.277 65.9001L101.918 65.8022C101.339 65.6444 100.742 65.5645 100.142 65.5645H88.247L88.4756 65.4212C88.9595 65.118 89.3739 64.716 89.6916 64.2414L90.4759 63.0696C90.6209 62.853 90.7446 62.6229 90.8454 62.3825L91.4027 61.0533C91.6107 60.5572 91.7178 60.0246 91.7178 59.4867V41.7211C91.7178 41.0229 91.6075 40.3292 91.3911 39.6655C91.2169 39.1314 90.9756 38.6216 90.6729 38.1484L90.176 37.3715C89.5422 36.3805 88.6861 35.5509 87.6758 34.9484C86.8547 34.4589 85.9484 34.1292 85.0048 33.9769L84.8963 33.9594C84.4671 33.8901 84.0331 33.8553 83.5984 33.8553H77.8379C78.2309 33.4616 78.5516 33 78.7836 32.4917L78.8021 32.4512C79.0686 31.8674 79.2065 31.2331 79.2065 30.5914C79.2065 29.5524 78.8453 28.5458 78.1847 27.7439L77.9708 27.4843C77.4943 26.9058 76.8903 26.4456 76.2061 26.1396C75.5826 25.8608 74.9074 25.7166 74.2244 25.7166H73.098C71.9992 22.0518 71.7745 18.1774 72.4454 14.4051L72.4576 14.3366ZM86.8457 36.3404C86.2005 35.9557 85.4882 35.6966 84.7465 35.5769L84.638 35.5594C84.2943 35.5039 83.9466 35.476 83.5984 35.476H13.9026C13.2085 35.476 12.5367 35.7217 12.0063 36.1696C11.3455 36.7276 10.9634 37.552 10.9634 38.4183C10.9634 39.2373 11.3036 40.0215 11.9013 40.5794L11.953 40.6277C12.5299 41.1661 13.2895 41.4655 14.0785 41.4655H79.9112C82.1489 41.4655 83.9629 43.2795 83.9629 45.5172V55.1533C83.9629 57.391 82.1489 59.205 79.9112 59.205H44.6714V65.5645H85.1944L87.6152 64.0478C87.9055 63.8659 88.1541 63.6247 88.3447 63.3399L89.129 62.1681C89.216 62.0381 89.2903 61.9001 89.3507 61.7559L89.908 60.4266C90.0328 60.129 90.0971 59.8094 90.0971 59.4867V41.7211C90.0971 41.1936 90.0138 40.6694 89.8503 40.1679C89.7187 39.7644 89.5363 39.3792 89.3076 39.0216L88.8107 38.2448C88.3126 37.4659 87.6398 36.8139 86.8457 36.3404ZM44.6714 67.1852V73.3861H97.0933C97.1049 73.3858 97.1165 73.3858 97.1281 73.3861H100.025C100.299 73.3861 100.572 73.357 100.84 73.2994L101.093 73.2449C101.723 73.1094 102.294 72.7791 102.726 72.3009C102.937 72.0679 103.11 71.8039 103.24 71.5182L103.364 71.2468C103.548 70.8455 103.642 70.4096 103.642 69.9685V69.8388C103.642 69.4832 103.566 69.1317 103.418 68.8083L103.409 68.788C103.206 68.3426 102.871 67.9697 102.451 67.7189C102.263 67.607 102.061 67.5212 101.85 67.4637L101.492 67.3659C101.052 67.2459 100.598 67.1852 100.142 67.1852H44.6714ZM96.0918 75.0067H44.6714V80.0092C44.6714 81.4053 43.0238 82.1481 41.9775 81.2237L37.7413 77.4804L33.292 81.1338C32.2343 82.0023 30.6429 81.2499 30.6429 79.8813V75.0067H16.5998C15.2572 75.0067 14.1688 76.0952 14.1688 77.4378V86.9153C14.1688 88.2579 15.2572 89.3463 16.5998 89.3463H96.0919C95.0719 84.6206 95.072 79.7317 96.0918 75.0067ZM30.6429 73.3861V67.1852H11.8075C11.4043 67.1852 11.0078 67.289 10.6564 67.4866L10.2254 67.7288C9.6771 68.0371 9.17018 68.4139 8.71687 68.85L8.59861 68.9638C8.07975 69.463 7.64815 70.0455 7.3217 70.6873C6.86089 71.5931 6.62069 72.5951 6.62069 73.6114V90.5029C6.62069 91.6121 6.87404 92.7067 7.36142 93.7031L7.44821 93.8806C7.70158 94.3986 8.02909 94.8769 8.42041 95.3005C9.04933 95.9812 9.82892 96.5052 10.6967 96.8304L10.956 96.9276C11.7529 97.2263 12.5971 97.3793 13.4482 97.3793H100.397C100.785 97.3793 101.169 97.3038 101.529 97.1569C101.973 96.9752 102.367 96.6892 102.677 96.323L102.845 96.1254C103.142 95.7745 103.354 95.3591 103.464 94.9122C103.568 94.4852 103.576 94.0402 103.487 93.6096L103.46 93.4781C103.349 92.9384 103.094 92.4389 102.721 92.0328C102.295 91.5674 101.734 91.246 101.116 91.1131L100.845 91.0547C100.574 90.9964 100.298 90.967 100.02 90.967H16.5998C14.3621 90.967 12.5481 89.153 12.5481 86.9153V77.4378C12.5481 75.2001 14.3621 73.3861 16.5998 73.3861H30.6429ZM12.2142 65.5645H30.6429V59.2027L14.2052 59.1546C13.756 59.1533 13.3114 59.2443 12.8989 59.4218L12.8551 59.4407C12.2653 59.6946 11.7679 60.1237 11.4304 60.6699C11.1251 61.1641 10.9634 61.7334 10.9634 62.3143V62.5608C10.9634 63.4215 11.2413 64.2592 11.7556 64.9492L12.2142 65.5645ZM30.6429 57.582V51.2249H20.1731L18.3618 57.5461L30.6429 57.582ZM20.1773 49.6042H55.9587C56.4062 49.6042 56.769 49.967 56.769 50.4145C56.769 50.8621 56.4062 51.2249 55.9587 51.2249H44.6714V57.5843H79.9112C81.2538 57.5843 82.3422 56.4959 82.3422 55.1533V45.5172C82.3422 44.1746 81.2538 43.0862 79.9112 43.0862H18.3555L20.1773 49.6042ZM43.0507 51.2249H32.2636V79.8813L36.7128 76.2279C37.3277 75.7229 38.2182 75.739 38.8144 76.2659L43.0507 80.0092V51.2249Z" fill="white" stroke="#0084FF" stroke-width="0.2" stroke-linecap="round"/>
<path d="M29.2969 83.725V75.8853V67.2572V58.4543V50.2708C29.2969 49.9287 29.6056 49.6514 29.9865 49.6514H44.2648C44.6456 49.6514 44.9544 49.9287 44.9544 50.2708V58.4543V67.2572V75.8853V83.9427C44.9544 84.0752 44.7814 84.1465 44.6696 84.0602L37.3645 78.4175C37.3016 78.3689 37.2092 78.3674 37.1445 78.4139L29.5769 83.8459C29.464 83.927 29.2969 83.8548 29.2969 83.725Z" fill="url(#paint0_linear_609_12155)"/>
</g>
<defs>
<filter id="filter0_d_609_12155" x="0.898438" y="0.900391" width="108.465" height="102.199" filterUnits="userSpaceOnUse" color-interpolation-filters="sRGB">
<feFlood flood-opacity="0" result="BackgroundImageFix"/>
<feColorMatrix in="SourceAlpha" type="matrix" values="0 0 0 0 0 0 0 0 0 0 0 0 0 0 0 0 0 0 127 0" result="hardAlpha"/>
<feOffset/>
<feGaussianBlur stdDeviation="2"/>
<feComposite in2="hardAlpha" operator="out"/>
<feColorMatrix type="matrix" values="0 0 0 0 0.164706 0 0 0 0 0.964706 0 0 0 0 1 0 0 0 0.15 0"/>
<feBlend mode="normal" in2="BackgroundImageFix" result="effect1_dropShadow_609_12155"/>
<feBlend mode="normal" in="SourceGraphic" in2="effect1_dropShadow_609_12155" result="shape"/>
</filter>
<linearGradient id="paint0_linear_609_12155" x1="29.2969" y1="31.5316" x2="65.97" y2="62.1179" gradientUnits="userSpaceOnUse">
<stop stop-color="white"/>
<stop offset="1" stop-color="#00FCFF"/>
</linearGradient>
</defs>
</svg>
