<svg width="32" height="32" viewBox="0 0 32 32" fill="none" xmlns="http://www.w3.org/2000/svg">
    <path d="M30 26.2502H27.75V12.0002C27.75 11.5361 27.5656 11.091 27.2374 10.7628C26.9092 10.4346 26.4641 10.2502 26 10.2502H17.75V4.00024C17.7499 3.6835 17.6638 3.37273 17.5009 3.10108C17.338 2.82943 17.1045 2.60707 16.8251 2.45772C16.5458 2.30838 16.2312 2.23764 15.9148 2.25305C15.5985 2.26846 15.2922 2.36945 15.0288 2.54524L5.02875 9.21149C4.78911 9.37137 4.59265 9.58794 4.4568 9.84198C4.32095 10.096 4.24992 10.3797 4.25 10.6677V26.2502H2C1.80109 26.2502 1.61032 26.3293 1.46967 26.4699C1.32902 26.6106 1.25 26.8013 1.25 27.0002C1.25 27.1992 1.32902 27.3899 1.46967 27.5306C1.61032 27.6712 1.80109 27.7502 2 27.7502H30C30.1989 27.7502 30.3897 27.6712 30.5303 27.5306C30.671 27.3899 30.75 27.1992 30.75 27.0002C30.75 26.8013 30.671 26.6106 30.5303 26.4699C30.3897 26.3293 30.1989 26.2502 30 26.2502ZM26 11.7502C26.0663 11.7502 26.1299 11.7766 26.1768 11.8235C26.2237 11.8703 26.25 11.9339 26.25 12.0002V26.2502H17.75V11.7502H26ZM5.75 10.6677C5.75008 10.6267 5.76027 10.5863 5.77967 10.5501C5.79907 10.5139 5.82709 10.483 5.86125 10.4602L15.8612 3.79274C15.8989 3.76764 15.9426 3.75322 15.9877 3.751C16.0329 3.74879 16.0778 3.75886 16.1177 3.78015C16.1576 3.80144 16.191 3.83316 16.2143 3.87191C16.2376 3.91067 16.2499 3.95502 16.25 4.00024V26.2502H5.75V10.6677ZM13.75 14.0002V16.0002C13.75 16.1992 13.671 16.3899 13.5303 16.5306C13.3897 16.6712 13.1989 16.7502 13 16.7502C12.8011 16.7502 12.6103 16.6712 12.4697 16.5306C12.329 16.3899 12.25 16.1992 12.25 16.0002V14.0002C12.25 13.8013 12.329 13.6106 12.4697 13.4699C12.6103 13.3293 12.8011 13.2502 13 13.2502C13.1989 13.2502 13.3897 13.3293 13.5303 13.4699C13.671 13.6106 13.75 13.8013 13.75 14.0002ZM9.75 14.0002V16.0002C9.75 16.1992 9.67098 16.3899 9.53033 16.5306C9.38968 16.6712 9.19891 16.7502 9 16.7502C8.80109 16.7502 8.61032 16.6712 8.46967 16.5306C8.32902 16.3899 8.25 16.1992 8.25 16.0002V14.0002C8.25 13.8013 8.32902 13.6106 8.46967 13.4699C8.61032 13.3293 8.80109 13.2502 9 13.2502C9.19891 13.2502 9.38968 13.3293 9.53033 13.4699C9.67098 13.6106 9.75 13.8013 9.75 14.0002ZM9.75 21.0002V23.0002C9.75 23.1992 9.67098 23.3899 9.53033 23.5306C9.38968 23.6712 9.19891 23.7502 9 23.7502C8.80109 23.7502 8.61032 23.6712 8.46967 23.5306C8.32902 23.3899 8.25 23.1992 8.25 23.0002V21.0002C8.25 20.8013 8.32902 20.6106 8.46967 20.4699C8.61032 20.3293 8.80109 20.2502 9 20.2502C9.19891 20.2502 9.38968 20.3293 9.53033 20.4699C9.67098 20.6106 9.75 20.8013 9.75 21.0002ZM13.75 21.0002V23.0002C13.75 23.1992 13.671 23.3899 13.5303 23.5306C13.3897 23.6712 13.1989 23.7502 13 23.7502C12.8011 23.7502 12.6103 23.6712 12.4697 23.5306C12.329 23.3899 12.25 23.1992 12.25 23.0002V21.0002C12.25 20.8013 12.329 20.6106 12.4697 20.4699C12.6103 20.3293 12.8011 20.2502 13 20.2502C13.1989 20.2502 13.3897 20.3293 13.5303 20.4699C13.671 20.6106 13.75 20.8013 13.75 21.0002Z" fill="white"/>
</svg>
