<svg width="341" height="340" viewBox="0 0 341 340" fill="none" xmlns="http://www.w3.org/2000/svg">
    <g clip-path="url(#clip0_32_99)">
        <path d="M330.5 0H10.5C4.97715 0 0.5 4.47716 0.5 10V330C0.5 335.523 4.97716 340 10.5 340H330.5C336.023 340 340.5 335.523 340.5 330V10C340.5 4.47715 336.023 0 330.5 0Z" fill="#000B33"/>
        <g filter="url(#filter0_d_32_99)">
            <path d="M11 10H18.8049V17.8049H11V10ZM18.8049 10H26.6098V17.8049H18.8049V10ZM26.6098 10H34.4146V17.8049H26.6098V10ZM34.4146 10H42.2195V17.8049H34.4146V10ZM42.2195 10H50.0244V17.8049H42.2195V10ZM50.0244 10H57.8293V17.8049H50.0244V10ZM57.8293 10H65.6341V17.8049H57.8293V10ZM89.0488 10H96.8537V17.8049H89.0488V10ZM112.463 10H120.268V17.8049H112.463V10ZM120.268 10H128.073V17.8049H120.268V10ZM143.683 10H151.488V17.8049H143.683V10ZM151.488 10H159.293V17.8049H151.488V10ZM167.098 10H174.902V17.8049H167.098V10ZM174.902 10H182.707V17.8049H174.902V10ZM182.707 10H190.512V17.8049H182.707V10ZM213.927 10H221.732V17.8049H213.927V10ZM221.732 10H229.537V17.8049H221.732V10ZM276.366 10H284.171V17.8049H276.366V10ZM284.171 10H291.976V17.8049H284.171V10ZM291.976 10H299.78V17.8049H291.976V10ZM299.78 10H307.585V17.8049H299.78V10ZM307.585 10H315.39V17.8049H307.585V10ZM315.39 10H323.195V17.8049H315.39V10ZM323.195 10H331V17.8049H323.195V10ZM11 17.8049H18.8049V25.6098H11V17.8049ZM57.8293 17.8049H65.6341V25.6098H57.8293V17.8049ZM81.2439 17.8049H89.0488V25.6098H81.2439V17.8049ZM89.0488 17.8049H96.8537V25.6098H89.0488V17.8049ZM96.8537 17.8049H104.659V25.6098H96.8537V17.8049ZM104.659 17.8049H112.463V25.6098H104.659V17.8049ZM112.463 17.8049H120.268V25.6098H112.463V17.8049ZM120.268 17.8049H128.073V25.6098H120.268V17.8049ZM128.073 17.8049H135.878V25.6098H128.073V17.8049ZM135.878 17.8049H143.683V25.6098H135.878V17.8049ZM159.293 17.8049H167.098V25.6098H159.293V17.8049ZM167.098 17.8049H174.902V25.6098H167.098V17.8049ZM190.512 17.8049H198.317V25.6098H190.512V17.8049ZM198.317 17.8049H206.122V25.6098H198.317V17.8049ZM245.146 17.8049H252.951V25.6098H245.146V17.8049ZM252.951 17.8049H260.756V25.6098H252.951V17.8049ZM260.756 17.8049H268.561V25.6098H260.756V17.8049ZM276.366 17.8049H284.171V25.6098H276.366V17.8049ZM323.195 17.8049H331V25.6098H323.195V17.8049ZM11 25.6098H18.8049V33.4146H11V25.6098ZM26.6098 25.6098H34.4146V33.4146H26.6098V25.6098ZM34.4146 25.6098H42.2195V33.4146H34.4146V25.6098ZM42.2195 25.6098H50.0244V33.4146H42.2195V25.6098ZM57.8293 25.6098H65.6341V33.4146H57.8293V25.6098ZM73.439 25.6098H81.2439V33.4146H73.439V25.6098ZM81.2439 25.6098H89.0488V33.4146H81.2439V25.6098ZM89.0488 25.6098H96.8537V33.4146H89.0488V25.6098ZM128.073 25.6098H135.878V33.4146H128.073V25.6098ZM135.878 25.6098H143.683V33.4146H135.878V25.6098ZM151.488 25.6098H159.293V33.4146H151.488V25.6098ZM159.293 25.6098H167.098V33.4146H159.293V25.6098ZM167.098 25.6098H174.902V33.4146H167.098V25.6098ZM190.512 25.6098H198.317V33.4146H190.512V25.6098ZM206.122 25.6098H213.927V33.4146H206.122V25.6098ZM221.732 25.6098H229.537V33.4146H221.732V25.6098ZM229.537 25.6098H237.341V33.4146H229.537V25.6098ZM237.341 25.6098H245.146V33.4146H237.341V25.6098ZM245.146 25.6098H252.951V33.4146H245.146V25.6098ZM252.951 25.6098H260.756V33.4146H252.951V25.6098ZM260.756 25.6098H268.561V33.4146H260.756V25.6098ZM276.366 25.6098H284.171V33.4146H276.366V25.6098ZM291.976 25.6098H299.78V33.4146H291.976V25.6098ZM299.78 25.6098H307.585V33.4146H299.78V25.6098ZM307.585 25.6098H315.39V33.4146H307.585V25.6098ZM323.195 25.6098H331V33.4146H323.195V25.6098ZM11 33.4146H18.8049V41.2195H11V33.4146ZM26.6098 33.4146H34.4146V41.2195H26.6098V33.4146ZM34.4146 33.4146H42.2195V41.2195H34.4146V33.4146ZM42.2195 33.4146H50.0244V41.2195H42.2195V33.4146ZM57.8293 33.4146H65.6341V41.2195H57.8293V33.4146ZM96.8537 33.4146H104.659V41.2195H96.8537V33.4146ZM104.659 33.4146H112.463V41.2195H104.659V33.4146ZM112.463 33.4146H120.268V41.2195H112.463V33.4146ZM120.268 33.4146H128.073V41.2195H120.268V33.4146ZM151.488 33.4146H159.293V41.2195H151.488V33.4146ZM159.293 33.4146H167.098V41.2195H159.293V33.4146ZM213.927 33.4146H221.732V41.2195H213.927V33.4146ZM221.732 33.4146H229.537V41.2195H221.732V33.4146ZM237.341 33.4146H245.146V41.2195H237.341V33.4146ZM252.951 33.4146H260.756V41.2195H252.951V33.4146ZM260.756 33.4146H268.561V41.2195H260.756V33.4146ZM276.366 33.4146H284.171V41.2195H276.366V33.4146ZM291.976 33.4146H299.78V41.2195H291.976V33.4146ZM299.78 33.4146H307.585V41.2195H299.78V33.4146ZM307.585 33.4146H315.39V41.2195H307.585V33.4146ZM323.195 33.4146H331V41.2195H323.195V33.4146ZM11 41.2195H18.8049V49.0244H11V41.2195ZM26.6098 41.2195H34.4146V49.0244H26.6098V41.2195ZM34.4146 41.2195H42.2195V49.0244H34.4146V41.2195ZM42.2195 41.2195H50.0244V49.0244H42.2195V41.2195ZM57.8293 41.2195H65.6341V49.0244H57.8293V41.2195ZM73.439 41.2195H81.2439V49.0244H73.439V41.2195ZM81.2439 41.2195H89.0488V49.0244H81.2439V41.2195ZM89.0488 41.2195H96.8537V49.0244H89.0488V41.2195ZM96.8537 41.2195H104.659V49.0244H96.8537V41.2195ZM104.659 41.2195H112.463V49.0244H104.659V41.2195ZM120.268 41.2195H128.073V49.0244H120.268V41.2195ZM135.878 41.2195H143.683V49.0244H135.878V41.2195ZM143.683 41.2195H151.488V49.0244H143.683V41.2195ZM151.488 41.2195H159.293V49.0244H151.488V41.2195ZM174.902 41.2195H182.707V49.0244H174.902V41.2195ZM190.512 41.2195H198.317V49.0244H190.512V41.2195ZM206.122 41.2195H213.927V49.0244H206.122V41.2195ZM213.927 41.2195H221.732V49.0244H213.927V41.2195ZM221.732 41.2195H229.537V49.0244H221.732V41.2195ZM229.537 41.2195H237.341V49.0244H229.537V41.2195ZM237.341 41.2195H245.146V49.0244H237.341V41.2195ZM245.146 41.2195H252.951V49.0244H245.146V41.2195ZM276.366 41.2195H284.171V49.0244H276.366V41.2195ZM291.976 41.2195H299.78V49.0244H291.976V41.2195ZM299.78 41.2195H307.585V49.0244H299.78V41.2195ZM307.585 41.2195H315.39V49.0244H307.585V41.2195ZM323.195 41.2195H331V49.0244H323.195V41.2195ZM11 49.0244H18.8049V56.8293H11V49.0244ZM57.8293 49.0244H65.6341V56.8293H57.8293V49.0244ZM73.439 49.0244H81.2439V56.8293H73.439V49.0244ZM96.8537 49.0244H104.659V56.8293H96.8537V49.0244ZM128.073 49.0244H135.878V56.8293H128.073V49.0244ZM135.878 49.0244H143.683V56.8293H135.878V49.0244ZM159.293 49.0244H167.098V56.8293H159.293V49.0244ZM167.098 49.0244H174.902V56.8293H167.098V49.0244ZM174.902 49.0244H182.707V56.8293H174.902V49.0244ZM182.707 49.0244H190.512V56.8293H182.707V49.0244ZM190.512 49.0244H198.317V56.8293H190.512V49.0244ZM198.317 49.0244H206.122V56.8293H198.317V49.0244ZM206.122 49.0244H213.927V56.8293H206.122V49.0244ZM229.537 49.0244H237.341V56.8293H229.537V49.0244ZM245.146 49.0244H252.951V56.8293H245.146V49.0244ZM252.951 49.0244H260.756V56.8293H252.951V49.0244ZM276.366 49.0244H284.171V56.8293H276.366V49.0244ZM323.195 49.0244H331V56.8293H323.195V49.0244ZM11 56.8293H18.8049V64.6341H11V56.8293ZM18.8049 56.8293H26.6098V64.6341H18.8049V56.8293ZM26.6098 56.8293H34.4146V64.6341H26.6098V56.8293ZM34.4146 56.8293H42.2195V64.6341H34.4146V56.8293ZM42.2195 56.8293H50.0244V64.6341H42.2195V56.8293ZM50.0244 56.8293H57.8293V64.6341H50.0244V56.8293ZM57.8293 56.8293H65.6341V64.6341H57.8293V56.8293ZM73.439 56.8293H81.2439V64.6341H73.439V56.8293ZM89.0488 56.8293H96.8537V64.6341H89.0488V56.8293ZM104.659 56.8293H112.463V64.6341H104.659V56.8293ZM120.268 56.8293H128.073V64.6341H120.268V56.8293ZM135.878 56.8293H143.683V64.6341H135.878V56.8293ZM151.488 56.8293H159.293V64.6341H151.488V56.8293ZM167.098 56.8293H174.902V64.6341H167.098V56.8293ZM182.707 56.8293H190.512V64.6341H182.707V56.8293ZM198.317 56.8293H206.122V64.6341H198.317V56.8293ZM213.927 56.8293H221.732V64.6341H213.927V56.8293ZM229.537 56.8293H237.341V64.6341H229.537V56.8293ZM245.146 56.8293H252.951V64.6341H245.146V56.8293ZM260.756 56.8293H268.561V64.6341H260.756V56.8293ZM276.366 56.8293H284.171V64.6341H276.366V56.8293ZM284.171 56.8293H291.976V64.6341H284.171V56.8293ZM291.976 56.8293H299.78V64.6341H291.976V56.8293ZM299.78 56.8293H307.585V64.6341H299.78V56.8293ZM307.585 56.8293H315.39V64.6341H307.585V56.8293ZM315.39 56.8293H323.195V64.6341H315.39V56.8293ZM323.195 56.8293H331V64.6341H323.195V56.8293ZM104.659 64.6341H112.463V72.439H104.659V64.6341ZM135.878 64.6341H143.683V72.439H135.878V64.6341ZM143.683 64.6341H151.488V72.439H143.683V64.6341ZM151.488 64.6341H159.293V72.439H151.488V64.6341ZM159.293 64.6341H167.098V72.439H159.293V64.6341ZM167.098 64.6341H174.902V72.439H167.098V64.6341ZM190.512 64.6341H198.317V72.439H190.512V64.6341ZM237.341 64.6341H245.146V72.439H237.341V64.6341ZM245.146 64.6341H252.951V72.439H245.146V64.6341ZM252.951 64.6341H260.756V72.439H252.951V64.6341ZM260.756 64.6341H268.561V72.439H260.756V64.6341ZM18.8049 72.439H26.6098V80.2439H18.8049V72.439ZM42.2195 72.439H50.0244V80.2439H42.2195V72.439ZM57.8293 72.439H65.6341V80.2439H57.8293V72.439ZM73.439 72.439H81.2439V80.2439H73.439V72.439ZM81.2439 72.439H89.0488V80.2439H81.2439V72.439ZM89.0488 72.439H96.8537V80.2439H89.0488V72.439ZM96.8537 72.439H104.659V80.2439H96.8537V72.439ZM135.878 72.439H143.683V80.2439H135.878V72.439ZM143.683 72.439H151.488V80.2439H143.683V72.439ZM174.902 72.439H182.707V80.2439H174.902V72.439ZM190.512 72.439H198.317V80.2439H190.512V72.439ZM221.732 72.439H229.537V80.2439H221.732V72.439ZM229.537 72.439H237.341V80.2439H229.537V72.439ZM237.341 72.439H245.146V80.2439H237.341V72.439ZM260.756 72.439H268.561V80.2439H260.756V72.439ZM268.561 72.439H276.366V80.2439H268.561V72.439ZM284.171 72.439H291.976V80.2439H284.171V72.439ZM291.976 72.439H299.78V80.2439H291.976V72.439ZM307.585 72.439H315.39V80.2439H307.585V72.439ZM18.8049 80.2439H26.6098V88.0488H18.8049V80.2439ZM26.6098 80.2439H34.4146V88.0488H26.6098V80.2439ZM34.4146 80.2439H42.2195V88.0488H34.4146V80.2439ZM65.6341 80.2439H73.439V88.0488H65.6341V80.2439ZM73.439 80.2439H81.2439V88.0488H73.439V80.2439ZM96.8537 80.2439H104.659V88.0488H96.8537V80.2439ZM104.659 80.2439H112.463V88.0488H104.659V80.2439ZM112.463 80.2439H120.268V88.0488H112.463V80.2439ZM128.073 80.2439H135.878V88.0488H128.073V80.2439ZM135.878 80.2439H143.683V88.0488H135.878V80.2439ZM151.488 80.2439H159.293V88.0488H151.488V80.2439ZM182.707 80.2439H190.512V88.0488H182.707V80.2439ZM198.317 80.2439H206.122V88.0488H198.317V80.2439ZM206.122 80.2439H213.927V88.0488H206.122V80.2439ZM213.927 80.2439H221.732V88.0488H213.927V80.2439ZM221.732 80.2439H229.537V88.0488H221.732V80.2439ZM229.537 80.2439H237.341V88.0488H229.537V80.2439ZM245.146 80.2439H252.951V88.0488H245.146V80.2439ZM268.561 80.2439H276.366V88.0488H268.561V80.2439ZM276.366 80.2439H284.171V88.0488H276.366V80.2439ZM284.171 80.2439H291.976V88.0488H284.171V80.2439ZM291.976 80.2439H299.78V88.0488H291.976V80.2439ZM299.78 80.2439H307.585V88.0488H299.78V80.2439ZM323.195 80.2439H331V88.0488H323.195V80.2439ZM11 88.0488H18.8049V95.8537H11V88.0488ZM26.6098 88.0488H34.4146V95.8537H26.6098V88.0488ZM34.4146 88.0488H42.2195V95.8537H34.4146V88.0488ZM50.0244 88.0488H57.8293V95.8537H50.0244V88.0488ZM57.8293 88.0488H65.6341V95.8537H57.8293V88.0488ZM73.439 88.0488H81.2439V95.8537H73.439V88.0488ZM81.2439 88.0488H89.0488V95.8537H81.2439V88.0488ZM104.659 88.0488H112.463V95.8537H104.659V88.0488ZM128.073 88.0488H135.878V95.8537H128.073V88.0488ZM135.878 88.0488H143.683V95.8537H135.878V88.0488ZM151.488 88.0488H159.293V95.8537H151.488V88.0488ZM167.098 88.0488H174.902V95.8537H167.098V88.0488ZM174.902 88.0488H182.707V95.8537H174.902V88.0488ZM190.512 88.0488H198.317V95.8537H190.512V88.0488ZM206.122 88.0488H213.927V95.8537H206.122V88.0488ZM221.732 88.0488H229.537V95.8537H221.732V88.0488ZM237.341 88.0488H245.146V95.8537H237.341V88.0488ZM245.146 88.0488H252.951V95.8537H245.146V88.0488ZM260.756 88.0488H268.561V95.8537H260.756V88.0488ZM268.561 88.0488H276.366V95.8537H268.561V88.0488ZM291.976 88.0488H299.78V95.8537H291.976V88.0488ZM323.195 88.0488H331V95.8537H323.195V88.0488ZM26.6098 95.8537H34.4146V103.659H26.6098V95.8537ZM34.4146 95.8537H42.2195V103.659H34.4146V95.8537ZM42.2195 95.8537H50.0244V103.659H42.2195V95.8537ZM50.0244 95.8537H57.8293V103.659H50.0244V95.8537ZM73.439 95.8537H81.2439V103.659H73.439V95.8537ZM96.8537 95.8537H104.659V103.659H96.8537V95.8537ZM104.659 95.8537H112.463V103.659H104.659V95.8537ZM120.268 95.8537H128.073V103.659H120.268V95.8537ZM159.293 95.8537H167.098V103.659H159.293V95.8537ZM174.902 95.8537H182.707V103.659H174.902V95.8537ZM213.927 95.8537H221.732V103.659H213.927V95.8537ZM229.537 95.8537H237.341V103.659H229.537V95.8537ZM237.341 95.8537H245.146V103.659H237.341V95.8537ZM245.146 95.8537H252.951V103.659H245.146V95.8537ZM252.951 95.8537H260.756V103.659H252.951V95.8537ZM260.756 95.8537H268.561V103.659H260.756V95.8537ZM276.366 95.8537H284.171V103.659H276.366V95.8537ZM284.171 95.8537H291.976V103.659H284.171V95.8537ZM299.78 95.8537H307.585V103.659H299.78V95.8537ZM323.195 95.8537H331V103.659H323.195V95.8537ZM11 103.659H18.8049V111.463H11V103.659ZM26.6098 103.659H34.4146V111.463H26.6098V103.659ZM34.4146 103.659H42.2195V111.463H34.4146V103.659ZM50.0244 103.659H57.8293V111.463H50.0244V103.659ZM57.8293 103.659H65.6341V111.463H57.8293V103.659ZM65.6341 103.659H73.439V111.463H65.6341V103.659ZM81.2439 103.659H89.0488V111.463H81.2439V103.659ZM96.8537 103.659H104.659V111.463H96.8537V103.659ZM104.659 103.659H112.463V111.463H104.659V103.659ZM120.268 103.659H128.073V111.463H120.268V103.659ZM143.683 103.659H151.488V111.463H143.683V103.659ZM159.293 103.659H167.098V111.463H159.293V103.659ZM167.098 103.659H174.902V111.463H167.098V103.659ZM174.902 103.659H182.707V111.463H174.902V103.659ZM198.317 103.659H206.122V111.463H198.317V103.659ZM229.537 103.659H237.341V111.463H229.537V103.659ZM237.341 103.659H245.146V111.463H237.341V103.659ZM268.561 103.659H276.366V111.463H268.561V103.659ZM11 111.463H18.8049V119.268H11V111.463ZM18.8049 111.463H26.6098V119.268H18.8049V111.463ZM26.6098 111.463H34.4146V119.268H26.6098V111.463ZM42.2195 111.463H50.0244V119.268H42.2195V111.463ZM50.0244 111.463H57.8293V119.268H50.0244V111.463ZM65.6341 111.463H73.439V119.268H65.6341V111.463ZM81.2439 111.463H89.0488V119.268H81.2439V111.463ZM96.8537 111.463H104.659V119.268H96.8537V111.463ZM112.463 111.463H120.268V119.268H112.463V111.463ZM120.268 111.463H128.073V119.268H120.268V111.463ZM128.073 111.463H135.878V119.268H128.073V111.463ZM135.878 111.463H143.683V119.268H135.878V111.463ZM174.902 111.463H182.707V119.268H174.902V111.463ZM213.927 111.463H221.732V119.268H213.927V111.463ZM260.756 111.463H268.561V119.268H260.756V111.463ZM268.561 111.463H276.366V119.268H268.561V111.463ZM276.366 111.463H284.171V119.268H276.366V111.463ZM291.976 111.463H299.78V119.268H291.976V111.463ZM307.585 111.463H315.39V119.268H307.585V111.463ZM323.195 111.463H331V119.268H323.195V111.463ZM11 119.268H18.8049V127.073H11V119.268ZM42.2195 119.268H50.0244V127.073H42.2195V119.268ZM50.0244 119.268H57.8293V127.073H50.0244V119.268ZM57.8293 119.268H65.6341V127.073H57.8293V119.268ZM65.6341 119.268H73.439V127.073H65.6341V119.268ZM81.2439 119.268H89.0488V127.073H81.2439V119.268ZM89.0488 119.268H96.8537V127.073H89.0488V119.268ZM96.8537 119.268H104.659V127.073H96.8537V119.268ZM104.659 119.268H112.463V127.073H104.659V119.268ZM112.463 119.268H120.268V127.073H112.463V119.268ZM128.073 119.268H135.878V127.073H128.073V119.268ZM135.878 119.268H143.683V127.073H135.878V119.268ZM143.683 119.268H151.488V127.073H143.683V119.268ZM159.293 119.268H167.098V127.073H159.293V119.268ZM174.902 119.268H182.707V127.073H174.902V119.268ZM213.927 119.268H221.732V127.073H213.927V119.268ZM221.732 119.268H229.537V127.073H221.732V119.268ZM237.341 119.268H245.146V127.073H237.341V119.268ZM245.146 119.268H252.951V127.073H245.146V119.268ZM260.756 119.268H268.561V127.073H260.756V119.268ZM268.561 119.268H276.366V127.073H268.561V119.268ZM276.366 119.268H284.171V127.073H276.366V119.268ZM299.78 119.268H307.585V127.073H299.78V119.268ZM307.585 119.268H315.39V127.073H307.585V119.268ZM323.195 119.268H331V127.073H323.195V119.268ZM11 127.073H18.8049V134.878H11V127.073ZM18.8049 127.073H26.6098V134.878H18.8049V127.073ZM50.0244 127.073H57.8293V134.878H50.0244V127.073ZM73.439 127.073H81.2439V134.878H73.439V127.073ZM81.2439 127.073H89.0488V134.878H81.2439V127.073ZM120.268 127.073H128.073V134.878H120.268V127.073ZM128.073 127.073H135.878V134.878H128.073V127.073ZM151.488 127.073H159.293V134.878H151.488V127.073ZM159.293 127.073H167.098V134.878H159.293V127.073ZM182.707 127.073H190.512V134.878H182.707V127.073ZM198.317 127.073H206.122V134.878H198.317V127.073ZM213.927 127.073H221.732V134.878H213.927V127.073ZM221.732 127.073H229.537V134.878H221.732V127.073ZM229.537 127.073H237.341V134.878H229.537V127.073ZM237.341 127.073H245.146V134.878H237.341V127.073ZM260.756 127.073H268.561V134.878H260.756V127.073ZM323.195 127.073H331V134.878H323.195V127.073ZM26.6098 134.878H34.4146V142.683H26.6098V134.878ZM34.4146 134.878H42.2195V142.683H34.4146V134.878ZM50.0244 134.878H57.8293V142.683H50.0244V134.878ZM57.8293 134.878H65.6341V142.683H57.8293V134.878ZM65.6341 134.878H73.439V142.683H65.6341V134.878ZM81.2439 134.878H89.0488V142.683H81.2439V134.878ZM96.8537 134.878H104.659V142.683H96.8537V134.878ZM135.878 134.878H143.683V142.683H135.878V134.878ZM159.293 134.878H167.098V142.683H159.293V134.878ZM167.098 134.878H174.902V142.683H167.098V134.878ZM174.902 134.878H182.707V142.683H174.902V134.878ZM190.512 134.878H198.317V142.683H190.512V134.878ZM198.317 134.878H206.122V142.683H198.317V134.878ZM229.537 134.878H237.341V142.683H229.537V134.878ZM237.341 134.878H245.146V142.683H237.341V134.878ZM245.146 134.878H252.951V142.683H245.146V134.878ZM260.756 134.878H268.561V142.683H260.756V134.878ZM284.171 134.878H291.976V142.683H284.171V134.878ZM299.78 134.878H307.585V142.683H299.78V134.878ZM323.195 134.878H331V142.683H323.195V134.878ZM11 142.683H18.8049V150.488H11V142.683ZM26.6098 142.683H34.4146V150.488H26.6098V142.683ZM65.6341 142.683H73.439V150.488H65.6341V142.683ZM73.439 142.683H81.2439V150.488H73.439V142.683ZM112.463 142.683H120.268V150.488H112.463V142.683ZM151.488 142.683H159.293V150.488H151.488V142.683ZM182.707 142.683H190.512V150.488H182.707V142.683ZM190.512 142.683H198.317V150.488H190.512V142.683ZM206.122 142.683H213.927V150.488H206.122V142.683ZM221.732 142.683H229.537V150.488H221.732V142.683ZM229.537 142.683H237.341V150.488H229.537V142.683ZM237.341 142.683H245.146V150.488H237.341V142.683ZM245.146 142.683H252.951V150.488H245.146V142.683ZM268.561 142.683H276.366V150.488H268.561V142.683ZM276.366 142.683H284.171V150.488H276.366V142.683ZM284.171 142.683H291.976V150.488H284.171V142.683ZM291.976 142.683H299.78V150.488H291.976V142.683ZM315.39 142.683H323.195V150.488H315.39V142.683ZM323.195 142.683H331V150.488H323.195V142.683ZM11 150.488H18.8049V158.293H11V150.488ZM18.8049 150.488H26.6098V158.293H18.8049V150.488ZM26.6098 150.488H34.4146V158.293H26.6098V150.488ZM42.2195 150.488H50.0244V158.293H42.2195V150.488ZM57.8293 150.488H65.6341V158.293H57.8293V150.488ZM65.6341 150.488H73.439V158.293H65.6341V150.488ZM81.2439 150.488H89.0488V158.293H81.2439V150.488ZM89.0488 150.488H96.8537V158.293H89.0488V150.488ZM96.8537 150.488H104.659V158.293H96.8537V150.488ZM104.659 150.488H112.463V158.293H104.659V150.488ZM120.268 150.488H128.073V158.293H120.268V150.488ZM128.073 150.488H135.878V158.293H128.073V150.488ZM174.902 150.488H182.707V158.293H174.902V150.488ZM182.707 150.488H190.512V158.293H182.707V150.488ZM190.512 150.488H198.317V158.293H190.512V150.488ZM198.317 150.488H206.122V158.293H198.317V150.488ZM221.732 150.488H229.537V158.293H221.732V150.488ZM245.146 150.488H252.951V158.293H245.146V150.488ZM260.756 150.488H268.561V158.293H260.756V150.488ZM284.171 150.488H291.976V158.293H284.171V150.488ZM307.585 150.488H315.39V158.293H307.585V150.488ZM323.195 150.488H331V158.293H323.195V150.488ZM26.6098 158.293H34.4146V166.098H26.6098V158.293ZM34.4146 158.293H42.2195V166.098H34.4146V158.293ZM42.2195 158.293H50.0244V166.098H42.2195V158.293ZM50.0244 158.293H57.8293V166.098H50.0244V158.293ZM65.6341 158.293H73.439V166.098H65.6341V158.293ZM96.8537 158.293H104.659V166.098H96.8537V158.293ZM112.463 158.293H120.268V166.098H112.463V158.293ZM159.293 158.293H167.098V166.098H159.293V158.293ZM167.098 158.293H174.902V166.098H167.098V158.293ZM174.902 158.293H182.707V166.098H174.902V158.293ZM182.707 158.293H190.512V166.098H182.707V158.293ZM198.317 158.293H206.122V166.098H198.317V158.293ZM213.927 158.293H221.732V166.098H213.927V158.293ZM221.732 158.293H229.537V166.098H221.732V158.293ZM229.537 158.293H237.341V166.098H229.537V158.293ZM260.756 158.293H268.561V166.098H260.756V158.293ZM284.171 158.293H291.976V166.098H284.171V158.293ZM299.78 158.293H307.585V166.098H299.78V158.293ZM57.8293 166.098H65.6341V173.902H57.8293V166.098ZM65.6341 166.098H73.439V173.902H65.6341V166.098ZM89.0488 166.098H96.8537V173.902H89.0488V166.098ZM120.268 166.098H128.073V173.902H120.268V166.098ZM151.488 166.098H159.293V173.902H151.488V166.098ZM159.293 166.098H167.098V173.902H159.293V166.098ZM167.098 166.098H174.902V173.902H167.098V166.098ZM190.512 166.098H198.317V173.902H190.512V166.098ZM198.317 166.098H206.122V173.902H198.317V166.098ZM206.122 166.098H213.927V173.902H206.122V166.098ZM213.927 166.098H221.732V173.902H213.927V166.098ZM252.951 166.098H260.756V173.902H252.951V166.098ZM260.756 166.098H268.561V173.902H260.756V166.098ZM268.561 166.098H276.366V173.902H268.561V166.098ZM284.171 166.098H291.976V173.902H284.171V166.098ZM315.39 166.098H323.195V173.902H315.39V166.098ZM323.195 166.098H331V173.902H323.195V166.098ZM11 173.902H18.8049V181.707H11V173.902ZM26.6098 173.902H34.4146V181.707H26.6098V173.902ZM34.4146 173.902H42.2195V181.707H34.4146V173.902ZM73.439 173.902H81.2439V181.707H73.439V173.902ZM81.2439 173.902H89.0488V181.707H81.2439V173.902ZM89.0488 173.902H96.8537V181.707H89.0488V173.902ZM112.463 173.902H120.268V181.707H112.463V173.902ZM128.073 173.902H135.878V181.707H128.073V173.902ZM135.878 173.902H143.683V181.707H135.878V173.902ZM143.683 173.902H151.488V181.707H143.683V173.902ZM151.488 173.902H159.293V181.707H151.488V173.902ZM159.293 173.902H167.098V181.707H159.293V173.902ZM174.902 173.902H182.707V181.707H174.902V173.902ZM190.512 173.902H198.317V181.707H190.512V173.902ZM198.317 173.902H206.122V181.707H198.317V173.902ZM221.732 173.902H229.537V181.707H221.732V173.902ZM229.537 173.902H237.341V181.707H229.537V173.902ZM237.341 173.902H245.146V181.707H237.341V173.902ZM245.146 173.902H252.951V181.707H245.146V173.902ZM276.366 173.902H284.171V181.707H276.366V173.902ZM284.171 173.902H291.976V181.707H284.171V173.902ZM291.976 173.902H299.78V181.707H291.976V173.902ZM299.78 173.902H307.585V181.707H299.78V173.902ZM323.195 173.902H331V181.707H323.195V173.902ZM26.6098 181.707H34.4146V189.512H26.6098V181.707ZM42.2195 181.707H50.0244V189.512H42.2195V181.707ZM57.8293 181.707H65.6341V189.512H57.8293V181.707ZM65.6341 181.707H73.439V189.512H65.6341V181.707ZM81.2439 181.707H89.0488V189.512H81.2439V181.707ZM89.0488 181.707H96.8537V189.512H89.0488V181.707ZM135.878 181.707H143.683V189.512H135.878V181.707ZM182.707 181.707H190.512V189.512H182.707V181.707ZM190.512 181.707H198.317V189.512H190.512V181.707ZM198.317 181.707H206.122V189.512H198.317V181.707ZM213.927 181.707H221.732V189.512H213.927V181.707ZM221.732 181.707H229.537V189.512H221.732V181.707ZM245.146 181.707H252.951V189.512H245.146V181.707ZM276.366 181.707H284.171V189.512H276.366V181.707ZM284.171 181.707H291.976V189.512H284.171V181.707ZM299.78 181.707H307.585V189.512H299.78V181.707ZM323.195 181.707H331V189.512H323.195V181.707ZM26.6098 189.512H34.4146V197.317H26.6098V189.512ZM42.2195 189.512H50.0244V197.317H42.2195V189.512ZM65.6341 189.512H73.439V197.317H65.6341V189.512ZM73.439 189.512H81.2439V197.317H73.439V189.512ZM81.2439 189.512H89.0488V197.317H81.2439V189.512ZM112.463 189.512H120.268V197.317H112.463V189.512ZM128.073 189.512H135.878V197.317H128.073V189.512ZM135.878 189.512H143.683V197.317H135.878V189.512ZM143.683 189.512H151.488V197.317H143.683V189.512ZM151.488 189.512H159.293V197.317H151.488V189.512ZM159.293 189.512H167.098V197.317H159.293V189.512ZM182.707 189.512H190.512V197.317H182.707V189.512ZM198.317 189.512H206.122V197.317H198.317V189.512ZM213.927 189.512H221.732V197.317H213.927V189.512ZM221.732 189.512H229.537V197.317H221.732V189.512ZM237.341 189.512H245.146V197.317H237.341V189.512ZM252.951 189.512H260.756V197.317H252.951V189.512ZM268.561 189.512H276.366V197.317H268.561V189.512ZM276.366 189.512H284.171V197.317H276.366V189.512ZM299.78 189.512H307.585V197.317H299.78V189.512ZM323.195 189.512H331V197.317H323.195V189.512ZM57.8293 197.317H65.6341V205.122H57.8293V197.317ZM89.0488 197.317H96.8537V205.122H89.0488V197.317ZM96.8537 197.317H104.659V205.122H96.8537V197.317ZM135.878 197.317H143.683V205.122H135.878V197.317ZM151.488 197.317H159.293V205.122H151.488V197.317ZM159.293 197.317H167.098V205.122H159.293V197.317ZM174.902 197.317H182.707V205.122H174.902V197.317ZM182.707 197.317H190.512V205.122H182.707V197.317ZM198.317 197.317H206.122V205.122H198.317V197.317ZM221.732 197.317H229.537V205.122H221.732V197.317ZM229.537 197.317H237.341V205.122H229.537V197.317ZM237.341 197.317H245.146V205.122H237.341V197.317ZM252.951 197.317H260.756V205.122H252.951V197.317ZM260.756 197.317H268.561V205.122H260.756V197.317ZM268.561 197.317H276.366V205.122H268.561V197.317ZM284.171 197.317H291.976V205.122H284.171V197.317ZM299.78 197.317H307.585V205.122H299.78V197.317ZM11 205.122H18.8049V212.927H11V205.122ZM18.8049 205.122H26.6098V212.927H18.8049V205.122ZM50.0244 205.122H57.8293V212.927H50.0244V205.122ZM81.2439 205.122H89.0488V212.927H81.2439V205.122ZM89.0488 205.122H96.8537V212.927H89.0488V205.122ZM112.463 205.122H120.268V212.927H112.463V205.122ZM120.268 205.122H128.073V212.927H120.268V205.122ZM143.683 205.122H151.488V212.927H143.683V205.122ZM159.293 205.122H167.098V212.927H159.293V205.122ZM174.902 205.122H182.707V212.927H174.902V205.122ZM190.512 205.122H198.317V212.927H190.512V205.122ZM206.122 205.122H213.927V212.927H206.122V205.122ZM213.927 205.122H221.732V212.927H213.927V205.122ZM221.732 205.122H229.537V212.927H221.732V205.122ZM229.537 205.122H237.341V212.927H229.537V205.122ZM260.756 205.122H268.561V212.927H260.756V205.122ZM276.366 205.122H284.171V212.927H276.366V205.122ZM284.171 205.122H291.976V212.927H284.171V205.122ZM291.976 205.122H299.78V212.927H291.976V205.122ZM307.585 205.122H315.39V212.927H307.585V205.122ZM323.195 205.122H331V212.927H323.195V205.122ZM11 212.927H18.8049V220.732H11V212.927ZM18.8049 212.927H26.6098V220.732H18.8049V212.927ZM57.8293 212.927H65.6341V220.732H57.8293V212.927ZM73.439 212.927H81.2439V220.732H73.439V212.927ZM89.0488 212.927H96.8537V220.732H89.0488V212.927ZM96.8537 212.927H104.659V220.732H96.8537V212.927ZM112.463 212.927H120.268V220.732H112.463V212.927ZM135.878 212.927H143.683V220.732H135.878V212.927ZM143.683 212.927H151.488V220.732H143.683V212.927ZM174.902 212.927H182.707V220.732H174.902V212.927ZM182.707 212.927H190.512V220.732H182.707V212.927ZM190.512 212.927H198.317V220.732H190.512V212.927ZM198.317 212.927H206.122V220.732H198.317V212.927ZM206.122 212.927H213.927V220.732H206.122V212.927ZM221.732 212.927H229.537V220.732H221.732V212.927ZM237.341 212.927H245.146V220.732H237.341V212.927ZM245.146 212.927H252.951V220.732H245.146V212.927ZM260.756 212.927H268.561V220.732H260.756V212.927ZM268.561 212.927H276.366V220.732H268.561V212.927ZM276.366 212.927H284.171V220.732H276.366V212.927ZM323.195 212.927H331V220.732H323.195V212.927ZM18.8049 220.732H26.6098V228.537H18.8049V220.732ZM42.2195 220.732H50.0244V228.537H42.2195V220.732ZM50.0244 220.732H57.8293V228.537H50.0244V220.732ZM73.439 220.732H81.2439V228.537H73.439V220.732ZM81.2439 220.732H89.0488V228.537H81.2439V220.732ZM96.8537 220.732H104.659V228.537H96.8537V220.732ZM104.659 220.732H112.463V228.537H104.659V220.732ZM112.463 220.732H120.268V228.537H112.463V220.732ZM128.073 220.732H135.878V228.537H128.073V220.732ZM135.878 220.732H143.683V228.537H135.878V220.732ZM143.683 220.732H151.488V228.537H143.683V220.732ZM151.488 220.732H159.293V228.537H151.488V220.732ZM174.902 220.732H182.707V228.537H174.902V220.732ZM182.707 220.732H190.512V228.537H182.707V220.732ZM213.927 220.732H221.732V228.537H213.927V220.732ZM221.732 220.732H229.537V228.537H221.732V220.732ZM237.341 220.732H245.146V228.537H237.341V220.732ZM252.951 220.732H260.756V228.537H252.951V220.732ZM260.756 220.732H268.561V228.537H260.756V220.732ZM268.561 220.732H276.366V228.537H268.561V220.732ZM276.366 220.732H284.171V228.537H276.366V220.732ZM299.78 220.732H307.585V228.537H299.78V220.732ZM323.195 220.732H331V228.537H323.195V220.732ZM11 228.537H18.8049V236.341H11V228.537ZM18.8049 228.537H26.6098V236.341H18.8049V228.537ZM34.4146 228.537H42.2195V236.341H34.4146V228.537ZM57.8293 228.537H65.6341V236.341H57.8293V228.537ZM65.6341 228.537H73.439V236.341H65.6341V228.537ZM73.439 228.537H81.2439V236.341H73.439V228.537ZM81.2439 228.537H89.0488V236.341H81.2439V228.537ZM89.0488 228.537H96.8537V236.341H89.0488V228.537ZM104.659 228.537H112.463V236.341H104.659V228.537ZM112.463 228.537H120.268V236.341H112.463V228.537ZM143.683 228.537H151.488V236.341H143.683V228.537ZM151.488 228.537H159.293V236.341H151.488V228.537ZM237.341 228.537H245.146V236.341H237.341V228.537ZM245.146 228.537H252.951V236.341H245.146V228.537ZM268.561 228.537H276.366V236.341H268.561V228.537ZM284.171 228.537H291.976V236.341H284.171V228.537ZM315.39 228.537H323.195V236.341H315.39V228.537ZM323.195 228.537H331V236.341H323.195V228.537ZM11 236.341H18.8049V244.146H11V236.341ZM18.8049 236.341H26.6098V244.146H18.8049V236.341ZM50.0244 236.341H57.8293V244.146H50.0244V236.341ZM89.0488 236.341H96.8537V244.146H89.0488V236.341ZM104.659 236.341H112.463V244.146H104.659V236.341ZM120.268 236.341H128.073V244.146H120.268V236.341ZM151.488 236.341H159.293V244.146H151.488V236.341ZM159.293 236.341H167.098V244.146H159.293V236.341ZM182.707 236.341H190.512V244.146H182.707V236.341ZM198.317 236.341H206.122V244.146H198.317V236.341ZM206.122 236.341H213.927V244.146H206.122V236.341ZM213.927 236.341H221.732V244.146H213.927V236.341ZM229.537 236.341H237.341V244.146H229.537V236.341ZM237.341 236.341H245.146V244.146H237.341V236.341ZM245.146 236.341H252.951V244.146H245.146V236.341ZM260.756 236.341H268.561V244.146H260.756V236.341ZM276.366 236.341H284.171V244.146H276.366V236.341ZM284.171 236.341H291.976V244.146H284.171V236.341ZM291.976 236.341H299.78V244.146H291.976V236.341ZM323.195 236.341H331V244.146H323.195V236.341ZM26.6098 244.146H34.4146V251.951H26.6098V244.146ZM34.4146 244.146H42.2195V251.951H34.4146V244.146ZM50.0244 244.146H57.8293V251.951H50.0244V244.146ZM57.8293 244.146H65.6341V251.951H57.8293V244.146ZM81.2439 244.146H89.0488V251.951H81.2439V244.146ZM96.8537 244.146H104.659V251.951H96.8537V244.146ZM104.659 244.146H112.463V251.951H104.659V244.146ZM112.463 244.146H120.268V251.951H112.463V244.146ZM128.073 244.146H135.878V251.951H128.073V244.146ZM135.878 244.146H143.683V251.951H135.878V244.146ZM159.293 244.146H167.098V251.951H159.293V244.146ZM167.098 244.146H174.902V251.951H167.098V244.146ZM174.902 244.146H182.707V251.951H174.902V244.146ZM182.707 244.146H190.512V251.951H182.707V244.146ZM190.512 244.146H198.317V251.951H190.512V244.146ZM198.317 244.146H206.122V251.951H198.317V244.146ZM206.122 244.146H213.927V251.951H206.122V244.146ZM213.927 244.146H221.732V251.951H213.927V244.146ZM229.537 244.146H237.341V251.951H229.537V244.146ZM237.341 244.146H245.146V251.951H237.341V244.146ZM245.146 244.146H252.951V251.951H245.146V244.146ZM260.756 244.146H268.561V251.951H260.756V244.146ZM268.561 244.146H276.366V251.951H268.561V244.146ZM284.171 244.146H291.976V251.951H284.171V244.146ZM291.976 244.146H299.78V251.951H291.976V244.146ZM307.585 244.146H315.39V251.951H307.585V244.146ZM323.195 244.146H331V251.951H323.195V244.146ZM26.6098 251.951H34.4146V259.756H26.6098V251.951ZM34.4146 251.951H42.2195V259.756H34.4146V251.951ZM42.2195 251.951H50.0244V259.756H42.2195V251.951ZM50.0244 251.951H57.8293V259.756H50.0244V251.951ZM73.439 251.951H81.2439V259.756H73.439V251.951ZM81.2439 251.951H89.0488V259.756H81.2439V251.951ZM89.0488 251.951H96.8537V259.756H89.0488V251.951ZM96.8537 251.951H104.659V259.756H96.8537V251.951ZM104.659 251.951H112.463V259.756H104.659V251.951ZM128.073 251.951H135.878V259.756H128.073V251.951ZM159.293 251.951H167.098V259.756H159.293V251.951ZM167.098 251.951H174.902V259.756H167.098V251.951ZM174.902 251.951H182.707V259.756H174.902V251.951ZM190.512 251.951H198.317V259.756H190.512V251.951ZM237.341 251.951H245.146V259.756H237.341V251.951ZM245.146 251.951H252.951V259.756H245.146V251.951ZM260.756 251.951H268.561V259.756H260.756V251.951ZM268.561 251.951H276.366V259.756H268.561V251.951ZM284.171 251.951H291.976V259.756H284.171V251.951ZM299.78 251.951H307.585V259.756H299.78V251.951ZM11 259.756H18.8049V267.561H11V259.756ZM18.8049 259.756H26.6098V267.561H18.8049V259.756ZM26.6098 259.756H34.4146V267.561H26.6098V259.756ZM50.0244 259.756H57.8293V267.561H50.0244V259.756ZM57.8293 259.756H65.6341V267.561H57.8293V259.756ZM89.0488 259.756H96.8537V267.561H89.0488V259.756ZM104.659 259.756H112.463V267.561H104.659V259.756ZM112.463 259.756H120.268V267.561H112.463V259.756ZM128.073 259.756H135.878V267.561H128.073V259.756ZM143.683 259.756H151.488V267.561H143.683V259.756ZM151.488 259.756H159.293V267.561H151.488V259.756ZM174.902 259.756H182.707V267.561H174.902V259.756ZM182.707 259.756H190.512V267.561H182.707V259.756ZM213.927 259.756H221.732V267.561H213.927V259.756ZM221.732 259.756H229.537V267.561H221.732V259.756ZM237.341 259.756H245.146V267.561H237.341V259.756ZM252.951 259.756H260.756V267.561H252.951V259.756ZM260.756 259.756H268.561V267.561H260.756V259.756ZM268.561 259.756H276.366V267.561H268.561V259.756ZM276.366 259.756H284.171V267.561H276.366V259.756ZM284.171 259.756H291.976V267.561H284.171V259.756ZM291.976 259.756H299.78V267.561H291.976V259.756ZM315.39 259.756H323.195V267.561H315.39V259.756ZM323.195 259.756H331V267.561H323.195V259.756ZM73.439 267.561H81.2439V275.366H73.439V267.561ZM81.2439 267.561H89.0488V275.366H81.2439V267.561ZM89.0488 267.561H96.8537V275.366H89.0488V267.561ZM96.8537 267.561H104.659V275.366H96.8537V267.561ZM112.463 267.561H120.268V275.366H112.463V267.561ZM135.878 267.561H143.683V275.366H135.878V267.561ZM143.683 267.561H151.488V275.366H143.683V267.561ZM159.293 267.561H167.098V275.366H159.293V267.561ZM190.512 267.561H198.317V275.366H190.512V267.561ZM198.317 267.561H206.122V275.366H198.317V267.561ZM221.732 267.561H229.537V275.366H221.732V267.561ZM229.537 267.561H237.341V275.366H229.537V267.561ZM245.146 267.561H252.951V275.366H245.146V267.561ZM252.951 267.561H260.756V275.366H252.951V267.561ZM260.756 267.561H268.561V275.366H260.756V267.561ZM291.976 267.561H299.78V275.366H291.976V267.561ZM307.585 267.561H315.39V275.366H307.585V267.561ZM323.195 267.561H331V275.366H323.195V267.561ZM11 275.366H18.8049V283.171H11V275.366ZM18.8049 275.366H26.6098V283.171H18.8049V275.366ZM26.6098 275.366H34.4146V283.171H26.6098V275.366ZM34.4146 275.366H42.2195V283.171H34.4146V275.366ZM42.2195 275.366H50.0244V283.171H42.2195V275.366ZM50.0244 275.366H57.8293V283.171H50.0244V275.366ZM57.8293 275.366H65.6341V283.171H57.8293V275.366ZM104.659 275.366H112.463V283.171H104.659V275.366ZM112.463 275.366H120.268V283.171H112.463V275.366ZM120.268 275.366H128.073V283.171H120.268V275.366ZM151.488 275.366H159.293V283.171H151.488V275.366ZM159.293 275.366H167.098V283.171H159.293V275.366ZM174.902 275.366H182.707V283.171H174.902V275.366ZM182.707 275.366H190.512V283.171H182.707V275.366ZM190.512 275.366H198.317V283.171H190.512V275.366ZM206.122 275.366H213.927V283.171H206.122V275.366ZM213.927 275.366H221.732V283.171H213.927V275.366ZM221.732 275.366H229.537V283.171H221.732V275.366ZM237.341 275.366H245.146V283.171H237.341V275.366ZM252.951 275.366H260.756V283.171H252.951V275.366ZM260.756 275.366H268.561V283.171H260.756V275.366ZM276.366 275.366H284.171V283.171H276.366V275.366ZM291.976 275.366H299.78V283.171H291.976V275.366ZM307.585 275.366H315.39V283.171H307.585V275.366ZM323.195 275.366H331V283.171H323.195V275.366ZM11 283.171H18.8049V290.976H11V283.171ZM57.8293 283.171H65.6341V290.976H57.8293V283.171ZM81.2439 283.171H89.0488V290.976H81.2439V283.171ZM89.0488 283.171H96.8537V290.976H89.0488V283.171ZM96.8537 283.171H104.659V290.976H96.8537V283.171ZM104.659 283.171H112.463V290.976H104.659V283.171ZM128.073 283.171H135.878V290.976H128.073V283.171ZM143.683 283.171H151.488V290.976H143.683V283.171ZM167.098 283.171H174.902V290.976H167.098V283.171ZM174.902 283.171H182.707V290.976H174.902V283.171ZM206.122 283.171H213.927V290.976H206.122V283.171ZM221.732 283.171H229.537V290.976H221.732V283.171ZM237.341 283.171H245.146V290.976H237.341V283.171ZM245.146 283.171H252.951V290.976H245.146V283.171ZM252.951 283.171H260.756V290.976H252.951V283.171ZM260.756 283.171H268.561V290.976H260.756V283.171ZM291.976 283.171H299.78V290.976H291.976V283.171ZM299.78 283.171H307.585V290.976H299.78V283.171ZM11 290.976H18.8049V298.78H11V290.976ZM26.6098 290.976H34.4146V298.78H26.6098V290.976ZM34.4146 290.976H42.2195V298.78H34.4146V290.976ZM42.2195 290.976H50.0244V298.78H42.2195V290.976ZM57.8293 290.976H65.6341V298.78H57.8293V290.976ZM73.439 290.976H81.2439V298.78H73.439V290.976ZM89.0488 290.976H96.8537V298.78H89.0488V290.976ZM96.8537 290.976H104.659V298.78H96.8537V290.976ZM120.268 290.976H128.073V298.78H120.268V290.976ZM128.073 290.976H135.878V298.78H128.073V290.976ZM135.878 290.976H143.683V298.78H135.878V290.976ZM151.488 290.976H159.293V298.78H151.488V290.976ZM159.293 290.976H167.098V298.78H159.293V290.976ZM182.707 290.976H190.512V298.78H182.707V290.976ZM206.122 290.976H213.927V298.78H206.122V290.976ZM221.732 290.976H229.537V298.78H221.732V290.976ZM245.146 290.976H252.951V298.78H245.146V290.976ZM252.951 290.976H260.756V298.78H252.951V290.976ZM260.756 290.976H268.561V298.78H260.756V290.976ZM268.561 290.976H276.366V298.78H268.561V290.976ZM276.366 290.976H284.171V298.78H276.366V290.976ZM284.171 290.976H291.976V298.78H284.171V290.976ZM291.976 290.976H299.78V298.78H291.976V290.976ZM299.78 290.976H307.585V298.78H299.78V290.976ZM11 298.78H18.8049V306.585H11V298.78ZM26.6098 298.78H34.4146V306.585H26.6098V298.78ZM34.4146 298.78H42.2195V306.585H34.4146V298.78ZM42.2195 298.78H50.0244V306.585H42.2195V298.78ZM57.8293 298.78H65.6341V306.585H57.8293V298.78ZM81.2439 298.78H89.0488V306.585H81.2439V298.78ZM89.0488 298.78H96.8537V306.585H89.0488V298.78ZM96.8537 298.78H104.659V306.585H96.8537V298.78ZM104.659 298.78H112.463V306.585H104.659V298.78ZM120.268 298.78H128.073V306.585H120.268V298.78ZM143.683 298.78H151.488V306.585H143.683V298.78ZM151.488 298.78H159.293V306.585H151.488V298.78ZM182.707 298.78H190.512V306.585H182.707V298.78ZM190.512 298.78H198.317V306.585H190.512V298.78ZM213.927 298.78H221.732V306.585H213.927V298.78ZM221.732 298.78H229.537V306.585H221.732V298.78ZM229.537 298.78H237.341V306.585H229.537V298.78ZM260.756 298.78H268.561V306.585H260.756V298.78ZM284.171 298.78H291.976V306.585H284.171V298.78ZM11 306.585H18.8049V314.39H11V306.585ZM26.6098 306.585H34.4146V314.39H26.6098V306.585ZM34.4146 306.585H42.2195V314.39H34.4146V306.585ZM42.2195 306.585H50.0244V314.39H42.2195V306.585ZM57.8293 306.585H65.6341V314.39H57.8293V306.585ZM89.0488 306.585H96.8537V314.39H89.0488V306.585ZM104.659 306.585H112.463V314.39H104.659V306.585ZM135.878 306.585H143.683V314.39H135.878V306.585ZM143.683 306.585H151.488V314.39H143.683V306.585ZM190.512 306.585H198.317V314.39H190.512V306.585ZM198.317 306.585H206.122V314.39H198.317V306.585ZM206.122 306.585H213.927V314.39H206.122V306.585ZM213.927 306.585H221.732V314.39H213.927V306.585ZM221.732 306.585H229.537V314.39H221.732V306.585ZM245.146 306.585H252.951V314.39H245.146V306.585ZM252.951 306.585H260.756V314.39H252.951V306.585ZM260.756 306.585H268.561V314.39H260.756V306.585ZM268.561 306.585H276.366V314.39H268.561V306.585ZM307.585 306.585H315.39V314.39H307.585V306.585ZM323.195 306.585H331V314.39H323.195V306.585ZM11 314.39H18.8049V322.195H11V314.39ZM57.8293 314.39H65.6341V322.195H57.8293V314.39ZM73.439 314.39H81.2439V322.195H73.439V314.39ZM81.2439 314.39H89.0488V322.195H81.2439V314.39ZM104.659 314.39H112.463V322.195H104.659V314.39ZM128.073 314.39H135.878V322.195H128.073V314.39ZM143.683 314.39H151.488V322.195H143.683V314.39ZM151.488 314.39H159.293V322.195H151.488V314.39ZM167.098 314.39H174.902V322.195H167.098V314.39ZM174.902 314.39H182.707V322.195H174.902V314.39ZM198.317 314.39H206.122V322.195H198.317V314.39ZM213.927 314.39H221.732V322.195H213.927V314.39ZM221.732 314.39H229.537V322.195H221.732V314.39ZM237.341 314.39H245.146V322.195H237.341V314.39ZM260.756 314.39H268.561V322.195H260.756V314.39ZM268.561 314.39H276.366V322.195H268.561V314.39ZM276.366 314.39H284.171V322.195H276.366V314.39ZM284.171 314.39H291.976V322.195H284.171V314.39ZM299.78 314.39H307.585V322.195H299.78V314.39ZM315.39 314.39H323.195V322.195H315.39V314.39ZM323.195 314.39H331V322.195H323.195V314.39ZM11 322.195H18.8049V330H11V322.195ZM18.8049 322.195H26.6098V330H18.8049V322.195ZM26.6098 322.195H34.4146V330H26.6098V322.195ZM34.4146 322.195H42.2195V330H34.4146V322.195ZM42.2195 322.195H50.0244V330H42.2195V322.195ZM50.0244 322.195H57.8293V330H50.0244V322.195ZM57.8293 322.195H65.6341V330H57.8293V322.195ZM81.2439 322.195H89.0488V330H81.2439V322.195ZM96.8537 322.195H104.659V330H96.8537V322.195ZM120.268 322.195H128.073V330H120.268V322.195ZM135.878 322.195H143.683V330H135.878V322.195ZM167.098 322.195H174.902V330H167.098V322.195ZM190.512 322.195H198.317V330H190.512V322.195ZM221.732 322.195H229.537V330H221.732V322.195ZM237.341 322.195H245.146V330H237.341V322.195ZM260.756 322.195H268.561V330H260.756V322.195ZM268.561 322.195H276.366V330H268.561V322.195ZM284.171 322.195H291.976V330H284.171V322.195ZM291.976 322.195H299.78V330H291.976V322.195ZM307.585 322.195H315.39V330H307.585V322.195ZM315.39 322.195H323.195V330H315.39V322.195Z" fill="white"/>
        </g>
    </g>
    <defs>
        <filter id="filter0_d_32_99" x="1" y="0" width="340" height="340" filterUnits="userSpaceOnUse" color-interpolation-filters="sRGB">
            <feFlood flood-opacity="0" result="BackgroundImageFix"/>
            <feColorMatrix in="SourceAlpha" type="matrix" values="0 0 0 0 0 0 0 0 0 0 0 0 0 0 0 0 0 0 127 0" result="hardAlpha"/>
            <feOffset/>
            <feGaussianBlur stdDeviation="5"/>
            <feComposite in2="hardAlpha" operator="out"/>
            <feColorMatrix type="matrix" values="0 0 0 0 0.164706 0 0 0 0 0.964706 0 0 0 0 1 0 0 0 0.15 0"/>
            <feBlend mode="normal" in2="BackgroundImageFix" result="effect1_dropShadow_32_99"/>
            <feBlend mode="normal" in="SourceGraphic" in2="effect1_dropShadow_32_99" result="shape"/>
        </filter>
        <clipPath id="clip0_32_99">
            <rect width="340" height="340" fill="white" transform="translate(0.5)"/>
        </clipPath>
    </defs>
</svg>
