<svg width="171" height="140" viewBox="0 0 171 140" fill="none" xmlns="http://www.w3.org/2000/svg">
    <g filter="url(#filter0_d_1_67634)">
        <path d="M119.736 22.7106L143.833 40.3662C145.467 41.5635 144.62 44.1522 142.594 44.1522C141.437 44.1522 140.499 45.0904 140.499 46.2477V77C140.499 79.2091 138.708 81 136.499 81H127.817C125.608 81 123.817 79.2091 123.817 77V62.337C123.817 60.1278 122.026 58.337 119.817 58.337H114.343C112.134 58.337 110.343 60.1278 110.343 62.337V77C110.343 79.2091 108.552 81 106.343 81H98.1429C95.9337 81 94.1429 79.2091 94.1429 77V46.3716C94.1429 45.1458 93.1492 44.1522 91.9235 44.1522C89.7645 44.1522 88.8766 41.3822 90.6331 40.127L115.046 22.6827C116.451 21.6786 118.342 21.6898 119.736 22.7106Z" fill="url(#paint0_linear_1_67634)"/>
        <path fill-rule="evenodd" clip-rule="evenodd" d="M161 7C162.657 7 164 8.34315 164 10V105.005H150.788C148.095 94.8532 138.925 87.3666 128.012 87.3666C117.099 87.3666 107.929 94.8532 105.236 105.005H73.0876C71.4308 105.005 70.0876 103.662 70.0876 102.005V10C70.0876 8.34314 71.4308 7 73.0876 7H161ZM104.797 107.005C104.559 108.362 104.435 109.759 104.435 111.183C104.435 113.891 104.883 116.494 105.708 118.922H69.2492C70.1038 116.447 70.568 113.788 70.568 111.021C70.568 109.289 70.3859 107.598 70.0399 105.969C70.8836 106.619 71.9405 107.005 73.0876 107.005H104.797ZM68.0876 100.339C64.2001 92.4603 56.1461 87.043 46.8308 87.043C35.7705 87.043 26.4887 94.6806 23.8473 105.005H7V82.4956C7 80.8387 8.34315 79.4956 10 79.4956H21.3746C24.136 79.4956 26.3746 77.257 26.3746 74.4956V43.6587C26.3746 42.0018 27.7178 40.6587 29.3746 40.6587H68.0876V100.339ZM68.0876 38.6587V10C68.0876 7.23857 70.3262 5 73.0876 5H161C163.761 5 166 7.23858 166 10V115.922C166 118.683 163.761 120.922 161 120.922H149.534C145.852 129.214 137.605 135 128.012 135C118.419 135 110.172 129.214 106.49 120.922H68.4565C64.7281 129.219 56.452 135 46.8308 135C37.2096 135 28.9335 129.219 25.2052 120.922H10C7.23857 120.922 5 118.683 5 115.922V82.4956C5 79.7342 7.23857 77.4956 10 77.4956H21.3746C23.0315 77.4956 24.3746 76.1524 24.3746 74.4956V43.6587C24.3746 40.8972 26.6132 38.6587 29.3746 38.6587H68.0876ZM24.4124 118.922H10C8.34314 118.922 7 117.578 7 115.922V107.005H23.4253C23.2072 108.312 23.0937 109.654 23.0937 111.021C23.0937 113.788 23.5578 116.447 24.4124 118.922ZM150.316 118.922C151.142 116.494 151.589 113.891 151.589 111.183C151.589 109.759 151.465 108.362 151.227 107.005H164V115.922C164 117.578 162.657 118.922 161 118.922H150.316ZM60.6405 51.7497C60.6405 48.9883 58.4019 46.7497 55.6405 46.7497H39.142C36.3806 46.7497 34.142 48.9883 34.142 51.7497V65.5955C34.142 68.3569 36.3806 70.5955 39.142 70.5955H55.6405C58.4019 70.5955 60.6405 68.3569 60.6405 65.5955V51.7497ZM55.6405 48.7497C57.2973 48.7497 58.6405 50.0928 58.6405 51.7497V65.5955C58.6405 67.2523 57.2973 68.5955 55.6405 68.5955H39.142C37.4851 68.5955 36.142 67.2523 36.142 65.5955V51.7497C36.142 50.0928 37.4851 48.7497 39.142 48.7497H55.6405ZM62.8822 78.0101C62.8822 77.4578 62.4345 77.0101 61.8822 77.0101H53.716C53.1637 77.0101 52.716 77.4578 52.716 78.0101C52.716 78.5624 53.1637 79.0101 53.716 79.0101H61.8822C62.4345 79.0101 62.8822 78.5624 62.8822 78.0101ZM46.8308 89.043C58.826 89.043 68.568 98.8731 68.568 111.021C68.568 114.043 67.9654 116.92 66.8763 119.537C63.5828 127.453 55.843 133 46.8308 133C37.8187 133 30.0788 127.453 26.7853 119.537C25.6962 116.92 25.0937 114.043 25.0937 111.021C25.0937 109.371 25.2734 107.765 25.6136 106.22C27.781 96.3838 36.4646 89.043 46.8308 89.043ZM128.012 89.3666C138.235 89.3666 146.81 96.5595 149.031 106.229C149.396 107.82 149.589 109.478 149.589 111.183C149.589 114.146 149.005 116.969 147.949 119.542C144.702 127.45 136.994 133 128.012 133C119.03 133 111.322 127.45 108.075 119.542C107.019 116.969 106.435 114.146 106.435 111.183C106.435 109.478 106.628 107.82 106.994 106.229C109.214 96.5595 117.789 89.3666 128.012 89.3666ZM46.6707 100.047C51.0633 100.047 54.8627 102.65 56.629 106.429C57.3025 107.869 57.6798 109.48 57.6798 111.183C57.6798 114.336 56.3861 117.18 54.3068 119.205C52.3253 121.136 49.6349 122.32 46.6707 122.32C43.7065 122.32 41.0161 121.136 39.0345 119.205C36.9553 117.18 35.6616 114.336 35.6616 111.183C35.6616 109.48 36.0389 107.869 36.7124 106.429C38.4787 102.65 42.2781 100.047 46.6707 100.047ZM58.4408 105.582C56.3618 101.134 51.8773 98.0468 46.6707 98.0468C41.4641 98.0468 36.9796 101.134 34.9006 105.582C34.1055 107.282 33.6616 109.182 33.6616 111.183C33.6616 114.894 35.1868 118.249 37.6389 120.638C39.9766 122.916 43.1615 124.32 46.6707 124.32C50.1799 124.32 53.3648 122.916 55.7025 120.638C58.1546 118.249 59.6798 114.894 59.6798 111.183C59.6798 109.182 59.2359 107.282 58.4408 105.582ZM127.852 100.37C132.098 100.37 135.782 102.839 137.564 106.448C138.291 107.921 138.701 109.583 138.701 111.345C138.701 114.431 137.444 117.215 135.419 119.209C133.463 121.136 130.794 122.32 127.852 122.32C124.91 122.32 122.241 121.136 120.285 119.209C118.26 117.215 117.003 114.431 117.003 111.345C117.003 109.583 117.413 107.921 118.14 106.448C119.922 102.839 123.606 100.37 127.852 100.37ZM139.357 105.562C137.255 101.305 132.896 98.3704 127.852 98.3704C122.808 98.3704 118.449 101.305 116.347 105.562C115.486 107.305 115.003 109.27 115.003 111.345C115.003 114.985 116.489 118.278 118.881 120.634C121.195 122.913 124.361 124.32 127.852 124.32C131.343 124.32 134.509 122.913 136.823 120.634C139.215 118.278 140.701 114.985 140.701 111.345C140.701 109.27 140.218 107.305 139.357 105.562Z" fill="white" stroke="#0084FF" stroke-width="0.2"/>
    </g>
    <defs>
        <filter id="filter0_d_1_67634" x="0.900391" y="0.899902" width="169.199" height="138.2" filterUnits="userSpaceOnUse" color-interpolation-filters="sRGB">
            <feFlood flood-opacity="0" result="BackgroundImageFix"/>
            <feColorMatrix in="SourceAlpha" type="matrix" values="0 0 0 0 0 0 0 0 0 0 0 0 0 0 0 0 0 0 127 0" result="hardAlpha"/>
            <feOffset/>
            <feGaussianBlur stdDeviation="2"/>
            <feComposite in2="hardAlpha" operator="out"/>
            <feColorMatrix type="matrix" values="0 0 0 0 0.164706 0 0 0 0 0.964706 0 0 0 0 1 0 0 0 0.2 0"/>
            <feBlend mode="normal" in2="BackgroundImageFix" result="effect1_dropShadow_1_67634"/>
            <feBlend mode="normal" in="SourceGraphic" in2="effect1_dropShadow_1_67634" result="shape"/>
        </filter>
        <linearGradient id="paint0_linear_1_67634" x1="149.076" y1="5.78452" x2="109.674" y2="83.5199" gradientUnits="userSpaceOnUse">
            <stop stop-color="white"/>
            <stop offset="1" stop-color="#00FCFF"/>
        </linearGradient>
    </defs>
</svg>
