<svg width="549" height="458" viewBox="0 0 549 458" fill="none" xmlns="http://www.w3.org/2000/svg">
    <g opacity="0.7">
        <path opacity="0.1" d="M12.8571 289.49C-4.14642 299.276 -4.33899 315.203 12.6003 324.989L235.282 450.137C252.157 459.924 279.748 459.924 296.752 450.137L535.956 312.49C552.96 302.704 553.088 286.841 536.149 277.055L313.465 151.907C296.59 142.12 269.063 142.12 252.06 151.907L12.8571 289.554V289.49Z" fill="url(#paint0_linear_1_11608)"/>
        <path d="M261.23 195.936L214.795 169.124V222.742L261.23 249.554L307.667 222.742V169.124L261.23 195.936Z" fill="url(#paint1_linear_1_11608)"/>
        <path d="M261.23 249.554L214.795 222.745V169.124L261.23 195.936V249.554Z" fill="url(#paint2_linear_1_11608)"/>
        <path d="M307.668 222.745L261.23 249.554V195.936L307.668 169.124V222.745Z" fill="#0C7B8C"/>
        <path d="M261.23 195.936L214.795 169.123L261.23 142.314L307.667 169.126L261.23 195.936Z" fill="url(#paint3_linear_1_11608)"/>
        <path d="M261.23 195.936L216.807 170.289L214.795 171.451L261.23 198.26L307.667 171.451L305.652 170.289L261.23 195.936Z" fill="#5EA4A5"/>
        <path d="M321.552 230.353L275.117 203.543V257.162L321.552 283.971L367.99 257.162V203.543L321.552 230.353Z" fill="url(#paint4_linear_1_11608)"/>
        <path d="M321.552 283.971L275.117 257.162V203.543L321.552 230.353V283.971Z" fill="url(#paint5_linear_1_11608)"/>
        <path d="M367.991 257.162L321.553 283.971V230.353L367.991 203.543V257.162Z" fill="#0C7B8C"/>
        <path d="M321.552 230.352L275.117 203.543L321.552 176.734L367.99 203.543L321.552 230.352Z" fill="url(#paint6_linear_1_11608)"/>
        <path d="M321.552 230.353L277.13 204.705L275.117 205.867L321.552 232.68L367.99 205.867L365.974 204.705L321.552 230.353Z" fill="#5EA4A5"/>
        <path d="M381.868 264.767L335.434 237.958V291.576L381.868 318.385L428.306 291.576V237.958L381.868 264.767Z" fill="url(#paint7_linear_1_11608)"/>
        <path d="M381.868 318.385L335.434 291.576V237.958L381.868 264.767V318.385Z" fill="url(#paint8_linear_1_11608)"/>
        <path d="M428.305 291.576L381.867 318.385V264.767L428.305 237.958V291.576Z" fill="url(#paint9_linear_1_11608)"/>
        <path d="M381.868 264.767L335.434 237.957L381.868 211.148L428.303 237.957L381.868 264.767Z" fill="url(#paint10_linear_1_11608)"/>
        <path d="M381.868 264.767L337.446 239.119L335.434 240.281L381.868 267.094L428.303 240.284L428.306 237.958L381.868 264.767Z" fill="url(#paint11_linear_1_11608)"/>
        <path d="M200.914 232.679L154.477 205.867V259.485L200.914 286.298L247.349 259.485V205.867L200.914 232.679Z" fill="url(#paint12_linear_1_11608)"/>
        <path d="M200.914 286.298L154.477 259.485V205.867L200.914 232.679V286.298Z" fill="url(#paint13_linear_1_11608)"/>
        <path d="M247.351 259.485L200.916 286.298V232.679L247.351 205.867V259.485Z" fill="#0C7B8C"/>
        <path d="M200.914 232.679L154.477 205.866L200.911 179.057L247.349 205.869L200.914 232.679Z" fill="url(#paint14_linear_1_11608)"/>
        <path d="M200.914 232.679L156.489 207.032L154.477 208.194L200.914 235.003L247.349 208.194L245.333 207.032L200.914 232.679Z" fill="#5EA4A5"/>
        <path d="M261.23 267.092L214.795 240.283V293.901L261.23 320.711L307.667 293.901V240.283L261.23 267.092Z" fill="url(#paint15_linear_1_11608)"/>
        <path d="M261.23 320.711L214.795 293.901V240.283L261.23 267.092V320.711Z" fill="url(#paint16_linear_1_11608)"/>
        <path d="M307.668 293.901L261.23 320.711V267.092L307.668 240.283V293.901Z" fill="#0C7B8C"/>
        <path d="M261.23 267.092L214.795 240.282L261.23 213.473L307.667 240.282L261.23 267.092Z" fill="url(#paint17_linear_1_11608)"/>
        <path d="M261.23 267.092L216.807 241.445L214.795 242.607L261.23 269.416L307.667 242.607L305.652 241.445L261.23 267.092Z" fill="#5EA4A5"/>
        <path d="M321.552 301.509L275.117 274.7V328.318L321.552 355.128L367.99 328.318V274.7L321.552 301.509Z" fill="url(#paint18_linear_1_11608)"/>
        <path d="M321.552 355.128L275.117 328.318V274.7L321.552 301.509V355.128Z" fill="url(#paint19_linear_1_11608)"/>
        <path d="M367.991 328.318L321.553 355.128V301.509L367.991 274.7V328.318Z" fill="url(#paint20_linear_1_11608)"/>
        <path d="M321.552 301.509L275.117 274.699L321.552 247.89L367.99 274.699L321.552 301.509Z" fill="url(#paint21_linear_1_11608)"/>
        <path d="M321.552 301.509L277.13 275.862L275.117 277.023L321.552 303.836L367.99 277.027V274.7L321.552 301.509Z" fill="url(#paint22_linear_1_11608)"/>
        <path d="M140.596 269.423L94.1582 242.611V296.229L140.596 323.042L187.031 296.229V242.611L140.596 269.423Z" fill="url(#paint23_linear_1_11608)"/>
        <path d="M140.596 323.042L94.1582 296.229V242.611L140.596 269.423V323.042Z" fill="url(#paint24_linear_1_11608)"/>
        <path d="M187.032 296.229L140.598 323.042V269.423L187.032 242.611V296.229Z" fill="url(#paint25_linear_1_11608)"/>
        <path d="M140.596 269.423L94.1582 242.61L140.593 215.801L187.031 242.613L140.596 269.423Z" fill="url(#paint26_linear_1_11608)"/>
        <path d="M140.596 269.423L94.1582 242.611V244.937L140.596 271.747L187.031 244.937L185.015 243.776L140.596 269.423Z" fill="url(#paint27_linear_1_11608)"/>
        <path d="M200.914 303.838L154.477 277.026V330.645L200.914 357.457L247.349 330.645V277.026L200.914 303.838Z" fill="url(#paint28_linear_1_11608)"/>
        <path d="M200.914 357.456L154.477 330.646V277.028L200.914 303.837V357.456Z" fill="url(#paint29_linear_1_11608)"/>
        <path d="M247.351 330.647L200.916 357.456V303.837L247.351 277.028V330.647Z" fill="url(#paint30_linear_1_11608)"/>
        <path d="M200.914 303.837L154.477 277.028L200.911 250.216L247.349 277.028L200.914 303.837Z" fill="url(#paint31_linear_1_11608)"/>
        <path d="M200.914 303.838L154.477 277.026V279.353L200.914 306.162L247.349 279.353L245.333 278.191L200.914 303.838Z" fill="url(#paint32_linear_1_11608)"/>
        <path d="M261.23 338.253L214.795 311.444V365.062L261.23 391.872L307.667 365.062V311.444L261.23 338.253Z" fill="url(#paint33_linear_1_11608)"/>
        <path d="M261.23 391.872L214.795 365.062V311.444L261.23 338.253V391.872Z" fill="url(#paint34_linear_1_11608)"/>
        <path d="M307.668 365.062L261.23 391.872V338.253L307.668 311.444V365.062Z" fill="url(#paint35_linear_1_11608)"/>
        <path d="M261.23 338.253L214.795 311.444L261.23 284.634L307.667 311.444L261.23 338.253Z" fill="url(#paint36_linear_1_11608)"/>
        <path d="M261.23 338.253L214.795 311.444V313.768L261.23 340.58L307.667 313.771V311.444L261.23 338.253Z" fill="url(#paint37_linear_1_11608)"/>
        <path d="M261.23 124.78L214.795 97.9673V151.586L261.23 178.398L307.667 151.586V97.9673L261.23 124.78Z" fill="url(#paint38_linear_1_11608)"/>
        <path d="M261.23 178.398L214.795 151.589V97.9673L261.23 124.78V178.398Z" fill="url(#paint39_linear_1_11608)"/>
        <path d="M307.668 151.589L261.23 178.398V124.78L307.668 97.9673V151.589Z" fill="url(#paint40_linear_1_11608)"/>
        <path d="M261.23 124.779L214.795 97.967L261.23 71.1577L307.667 97.9701L261.23 124.779Z" fill="url(#paint41_linear_1_11608)"/>
        <path d="M261.23 124.78L216.807 99.1325L214.795 100.294L261.23 127.104L307.667 100.294L305.652 99.1325L261.23 124.78Z" fill="url(#paint42_linear_1_11608)"/>
        <path opacity="0.4" d="M261.228 329.52L229.553 311.229L261.228 292.941L292.907 311.229L261.228 329.52Z" fill="#10069F"/>
        <path opacity="0.4" d="M200.917 295.101L169.238 276.814L200.914 258.526L232.593 276.814L200.917 295.101Z" fill="#10069F"/>
        <path opacity="0.4" d="M321.547 292.78L289.871 274.489L321.547 256.201L353.225 274.489L321.547 292.78Z" fill="#10069F"/>
        <path opacity="0.4" d="M381.985 256.455L350.307 238.167L381.982 219.879L413.661 238.167L381.985 256.455Z" fill="#10069F"/>
        <path opacity="0.4" d="M140.597 260.686L108.918 242.399L140.594 224.111L172.272 242.399L140.597 260.686Z" fill="#10069F"/>
        <path d="M321.552 159.196L275.117 132.386V186.005L321.552 212.814L367.99 186.005V132.386L321.552 159.196Z" fill="url(#paint43_linear_1_11608)"/>
        <path d="M321.552 212.814L275.117 186.005V132.386L321.552 159.196V212.814Z" fill="url(#paint44_linear_1_11608)"/>
        <path d="M367.991 186.005L321.553 212.814V159.196L367.991 132.386V186.005Z" fill="url(#paint45_linear_1_11608)"/>
        <path d="M321.552 159.195L275.117 132.386L321.552 105.577L367.99 132.386L321.552 159.195Z" fill="url(#paint46_linear_1_11608)"/>
        <path d="M321.552 159.195L277.13 133.547L275.117 134.709L321.552 161.521L367.99 134.709L365.974 133.547L321.552 159.195Z" fill="url(#paint47_linear_1_11608)"/>
        <path d="M381.868 193.611L335.434 166.801V220.42L381.868 247.229L428.306 220.42V166.801L381.868 193.611Z" fill="url(#paint48_linear_1_11608)"/>
        <path d="M381.868 247.229L335.434 220.42V166.801L381.868 193.611V247.229Z" fill="url(#paint49_linear_1_11608)"/>
        <path d="M428.305 220.42L381.867 247.229V193.611L428.305 166.801V220.42Z" fill="url(#paint50_linear_1_11608)"/>
        <path d="M381.868 193.61L335.434 166.801L381.868 139.992L428.303 166.801L381.868 193.61Z" fill="url(#paint51_linear_1_11608)"/>
        <path d="M381.868 193.611L337.446 167.963L335.434 169.125L381.868 195.937L428.303 169.128L428.306 166.801L381.868 193.611Z" fill="url(#paint52_linear_1_11608)"/>
        <path d="M200.914 161.522L154.477 134.709V188.328L200.914 215.14L247.349 188.328V134.709L200.914 161.522Z" fill="url(#paint53_linear_1_11608)"/>
        <path d="M200.914 215.14L154.477 188.328V134.709L200.914 161.522V215.14Z" fill="url(#paint54_linear_1_11608)"/>
        <path d="M247.351 188.328L200.916 215.14V161.522L247.351 134.709V188.328Z" fill="url(#paint55_linear_1_11608)"/>
        <path d="M200.914 161.521L154.477 134.709L200.911 107.9L247.349 134.712L200.914 161.521Z" fill="url(#paint56_linear_1_11608)"/>
        <path d="M200.914 161.522L156.489 135.874L154.477 137.036L200.914 163.845L247.349 137.036L245.333 135.874L200.914 161.522Z" fill="url(#paint57_linear_1_11608)"/>
        <path d="M261.23 195.936L214.795 169.126V222.745L261.23 249.554L307.667 222.745V169.126L261.23 195.936Z" fill="url(#paint58_linear_1_11608)"/>
        <path d="M261.23 249.554L214.795 222.745V169.126L261.23 195.936V249.554Z" fill="url(#paint59_linear_1_11608)"/>
        <path d="M307.668 222.745L261.23 249.554V195.936L307.668 169.126V222.745Z" fill="url(#paint60_linear_1_11608)"/>
        <path d="M261.23 195.936L214.795 169.126L261.23 142.314L307.667 169.126L261.23 195.936Z" fill="url(#paint61_linear_1_11608)"/>
        <path d="M261.23 195.936L216.807 170.289L214.795 171.451L261.23 198.26L307.667 171.451L305.652 170.289L261.23 195.936Z" fill="url(#paint62_linear_1_11608)"/>
        <path d="M321.552 230.353L275.117 203.543V257.162L321.552 283.971L367.99 257.162V203.543L321.552 230.353Z" fill="url(#paint63_linear_1_11608)"/>
        <path d="M321.552 283.971L275.117 257.162V203.543L321.552 230.353V283.971Z" fill="url(#paint64_linear_1_11608)"/>
        <path d="M367.991 257.162L321.553 283.971V230.353L367.991 203.543V257.162Z" fill="url(#paint65_linear_1_11608)"/>
        <path d="M321.552 230.352L275.117 203.543L321.552 176.734L367.99 203.543L321.552 230.352Z" fill="url(#paint66_linear_1_11608)"/>
        <path d="M321.552 230.353L277.13 204.705L275.117 205.867L321.552 232.68L367.99 205.867V203.543L321.552 230.353Z" fill="url(#paint67_linear_1_11608)"/>
        <path d="M140.596 198.262L94.1582 171.45V225.068L140.596 251.881L187.031 225.068V171.45L140.596 198.262Z" fill="url(#paint68_linear_1_11608)"/>
        <path d="M140.596 251.881L94.1582 225.068V171.45L140.596 198.259V251.881Z" fill="url(#paint69_linear_1_11608)"/>
        <path d="M187.032 225.068L140.598 251.881V198.259L187.032 171.45V225.068Z" fill="url(#paint70_linear_1_11608)"/>
        <path d="M140.596 198.258L94.1582 171.449L140.593 144.639L187.031 171.452L140.596 198.258Z" fill="url(#paint71_linear_1_11608)"/>
        <path d="M140.596 198.262L96.1737 172.611L94.1582 173.776L140.596 200.585L187.031 173.776L185.015 172.614L140.596 198.262Z" fill="url(#paint72_linear_1_11608)"/>
        <path d="M200.914 232.679L154.477 205.867V259.485L200.914 286.298L247.349 259.485V205.867L200.914 232.679Z" fill="url(#paint73_linear_1_11608)"/>
        <path d="M200.914 286.298L154.477 259.485V205.867L200.914 232.679V286.298Z" fill="url(#paint74_linear_1_11608)"/>
        <path d="M247.351 259.485L200.916 286.298V232.679L247.351 205.867V259.485Z" fill="url(#paint75_linear_1_11608)"/>
        <path d="M200.914 232.679L154.477 205.866L200.911 179.057L247.349 205.869L200.914 232.679Z" fill="url(#paint76_linear_1_11608)"/>
        <path d="M200.914 232.679L154.477 205.867V208.193L200.914 235.003L247.349 208.193L245.333 207.032L200.914 232.679Z" fill="url(#paint77_linear_1_11608)"/>
        <path d="M261.23 267.092L214.795 240.283V293.901L261.23 320.711L307.667 293.901V240.283L261.23 267.092Z" fill="url(#paint78_linear_1_11608)"/>
        <path d="M261.23 320.711L214.795 293.901V240.283L261.23 267.092V320.711Z" fill="url(#paint79_linear_1_11608)"/>
        <path d="M307.668 293.901L261.23 320.711V267.092L307.668 240.283V293.901Z" fill="url(#paint80_linear_1_11608)"/>
        <path d="M261.23 267.092L214.795 240.282L261.23 213.473L307.667 240.282L261.23 267.092Z" fill="url(#paint81_linear_1_11608)"/>
        <path d="M261.23 267.092L214.795 240.283V242.606L261.23 269.419L307.667 242.61V240.283L261.23 267.092Z" fill="url(#paint82_linear_1_11608)"/>
        <path opacity="0.4" d="M381.985 185.614L350.307 167.326L381.982 149.038L413.661 167.326L381.985 185.614Z" fill="#10069F"/>
        <path opacity="0.4" d="M140.597 189.846L108.918 171.558L140.594 153.27L172.272 171.558L140.597 189.846Z" fill="#10069F"/>
        <path d="M261.23 53.6224L214.795 26.8101V80.4286L261.23 107.241L307.667 80.4286V26.8101L261.23 53.6224Z" fill="url(#paint83_linear_1_11608)"/>
        <path d="M261.23 107.241L214.795 80.4286V26.8101L261.23 53.6224V107.241Z" fill="url(#paint84_linear_1_11608)"/>
        <path d="M307.668 80.4286L261.23 107.241V53.6224L307.668 26.8101V80.4286Z" fill="url(#paint85_linear_1_11608)"/>
        <path d="M261.23 53.6221L214.795 26.8098L261.23 0.000488281L307.667 26.8128L261.23 53.6221Z" fill="url(#paint86_linear_1_11608)"/>
        <path d="M261.23 53.6224L214.795 26.8101V29.1369L261.23 55.9462L307.667 29.1369V26.8101L261.23 53.6224Z" fill="url(#paint87_linear_1_11608)"/>
        <path d="M321.552 88.0366L275.117 61.2242V114.846L321.552 141.655L367.99 114.846V61.2242L321.552 88.0366Z" fill="url(#paint88_linear_1_11608)"/>
        <path d="M321.552 141.655L275.117 114.846V61.2271L321.552 88.0363V141.655Z" fill="url(#paint89_linear_1_11608)"/>
        <path d="M367.989 114.846L321.551 141.655V88.0363L367.989 61.2271V114.846Z" fill="url(#paint90_linear_1_11608)"/>
        <path d="M321.552 88.036L275.117 61.2267L321.552 34.4175L367.99 61.2267L321.552 88.036Z" fill="url(#paint91_linear_1_11608)"/>
        <path d="M321.552 88.0366L275.117 61.2242V63.5511L321.552 90.3634L367.99 63.5511V61.2242L321.552 88.0366Z" fill="url(#paint92_linear_1_11608)"/>
        <path d="M381.868 122.454L335.434 95.645V149.264L381.868 176.073L428.306 149.264V95.645L381.868 122.454Z" fill="url(#paint93_linear_1_11608)"/>
        <path d="M381.868 176.073L335.434 149.264V95.645L381.868 122.454V176.073Z" fill="url(#paint94_linear_1_11608)"/>
        <path d="M428.305 149.264L381.867 176.073V122.454L428.305 95.645V149.264Z" fill="url(#paint95_linear_1_11608)"/>
        <path d="M381.868 122.454L335.434 95.6447L381.868 68.8354L428.303 95.6447L381.868 122.454Z" fill="url(#paint96_linear_1_11608)"/>
        <path d="M381.868 122.454L335.434 95.645V97.9688L381.868 124.781L428.303 97.9718L428.306 95.645L381.868 122.454Z" fill="url(#paint97_linear_1_11608)"/>
        <path d="M200.914 90.3636L154.477 63.5513V117.17L200.914 143.982L247.349 117.17V63.5513L200.914 90.3636Z" fill="url(#paint98_linear_1_11608)"/>
        <path d="M200.914 143.982L154.477 117.17V63.5513L200.914 90.3636V143.982Z" fill="url(#paint99_linear_1_11608)"/>
        <path d="M247.351 117.17L200.916 143.982V90.3636L247.351 63.5513V117.17Z" fill="url(#paint100_linear_1_11608)"/>
        <path d="M200.914 90.3633L154.477 63.551L200.911 36.7417L247.349 63.554L200.914 90.3633Z" fill="url(#paint101_linear_1_11608)"/>
        <path d="M200.914 90.3636L154.477 63.5513V65.8781L200.914 92.6874L247.349 65.8781V63.5513L200.914 90.3636Z" fill="url(#paint102_linear_1_11608)"/>
        <path d="M140.596 127.108L94.1582 100.295V153.914L140.596 180.726L187.031 153.914V100.295L140.596 127.108Z" fill="url(#paint103_linear_1_11608)"/>
        <path d="M140.596 180.726L94.1582 153.914V100.295L140.596 127.105V180.726Z" fill="url(#paint104_linear_1_11608)"/>
        <path d="M187.032 153.914L140.598 180.726V127.105L187.032 100.295V153.914Z" fill="url(#paint105_linear_1_11608)"/>
        <path d="M140.596 127.104L94.1582 100.295L140.593 73.4858L187.031 100.298L140.596 127.104Z" fill="url(#paint106_linear_1_11608)"/>
        <path d="M140.596 127.108L94.1582 100.295V102.622L140.596 129.431L187.031 102.622V100.295L140.596 127.108Z" fill="url(#paint107_linear_1_11608)"/>
    </g>
    <defs>
        <linearGradient id="paint0_linear_1_11608" x1="-178.031" y1="535.222" x2="482.593" y2="124.473" gradientUnits="userSpaceOnUse">
            <stop stop-color="#0936DE"/>
            <stop offset="1" stop-color="#28B1FE"/>
        </linearGradient>
        <linearGradient id="paint1_linear_1_11608" x1="261.231" y1="169.124" x2="261.231" y2="249.554" gradientUnits="userSpaceOnUse">
            <stop stop-color="#109EA0"/>
            <stop offset="1" stop-color="#0D8A8C"/>
        </linearGradient>
        <linearGradient id="paint2_linear_1_11608" x1="238.012" y1="169.124" x2="238.012" y2="249.554" gradientUnits="userSpaceOnUse">
            <stop stop-color="#109EA0"/>
            <stop offset="1" stop-color="#0D8A8C"/>
        </linearGradient>
        <linearGradient id="paint3_linear_1_11608" x1="261.231" y1="142.314" x2="261.231" y2="195.936" gradientUnits="userSpaceOnUse">
            <stop stop-color="#109EA0"/>
            <stop offset="1" stop-color="#0D8A8C"/>
        </linearGradient>
        <linearGradient id="paint4_linear_1_11608" x1="321.553" y1="203.543" x2="321.553" y2="283.971" gradientUnits="userSpaceOnUse">
            <stop stop-color="#109EA0"/>
            <stop offset="1" stop-color="#0D8A8C"/>
        </linearGradient>
        <linearGradient id="paint5_linear_1_11608" x1="298.335" y1="203.543" x2="298.335" y2="283.971" gradientUnits="userSpaceOnUse">
            <stop stop-color="#109EA0"/>
            <stop offset="1" stop-color="#0D8A8C"/>
        </linearGradient>
        <linearGradient id="paint6_linear_1_11608" x1="321.553" y1="176.734" x2="321.553" y2="230.352" gradientUnits="userSpaceOnUse">
            <stop stop-color="#109EA0"/>
            <stop offset="1" stop-color="#0D8A8C"/>
        </linearGradient>
        <linearGradient id="paint7_linear_1_11608" x1="381.87" y1="237.958" x2="381.87" y2="318.385" gradientUnits="userSpaceOnUse">
            <stop stop-color="#109EA0"/>
            <stop offset="1" stop-color="#0D8A8C"/>
        </linearGradient>
        <linearGradient id="paint8_linear_1_11608" x1="305.706" y1="220.514" x2="370.705" y2="284.511" gradientUnits="userSpaceOnUse">
            <stop stop-color="#00AFEC"/>
            <stop offset="1" stop-color="#3D50FF"/>
        </linearGradient>
        <linearGradient id="paint9_linear_1_11608" x1="352.138" y1="220.514" x2="417.137" y2="284.515" gradientUnits="userSpaceOnUse">
            <stop stop-color="#00BBFD"/>
            <stop offset="1" stop-color="#4C5EFE"/>
        </linearGradient>
        <linearGradient id="paint10_linear_1_11608" x1="323.318" y1="202.072" x2="428.315" y2="237.57" gradientUnits="userSpaceOnUse">
            <stop offset="0.486918" stop-color="#0069FF" stop-opacity="0.96"/>
            <stop offset="1" stop-color="#0A1ED7"/>
        </linearGradient>
        <linearGradient id="paint11_linear_1_11608" x1="351.639" y1="234.175" x2="428.639" y2="252.675" gradientUnits="userSpaceOnUse">
            <stop stop-color="#72D4FF"/>
            <stop offset="1" stop-color="#0279CC"/>
        </linearGradient>
        <linearGradient id="paint12_linear_1_11608" x1="200.913" y1="205.867" x2="200.913" y2="286.298" gradientUnits="userSpaceOnUse">
            <stop stop-color="#109EA0"/>
            <stop offset="1" stop-color="#0D8A8C"/>
        </linearGradient>
        <linearGradient id="paint13_linear_1_11608" x1="177.695" y1="205.867" x2="177.695" y2="286.298" gradientUnits="userSpaceOnUse">
            <stop stop-color="#109EA0"/>
            <stop offset="1" stop-color="#0D8A8C"/>
        </linearGradient>
        <linearGradient id="paint14_linear_1_11608" x1="200.913" y1="179.057" x2="200.913" y2="232.679" gradientUnits="userSpaceOnUse">
            <stop stop-color="#109EA0"/>
            <stop offset="1" stop-color="#0D8A8C"/>
        </linearGradient>
        <linearGradient id="paint15_linear_1_11608" x1="261.231" y1="240.283" x2="261.231" y2="320.711" gradientUnits="userSpaceOnUse">
            <stop stop-color="#109EA0"/>
            <stop offset="1" stop-color="#0D8A8C"/>
        </linearGradient>
        <linearGradient id="paint16_linear_1_11608" x1="238.012" y1="240.283" x2="238.012" y2="320.711" gradientUnits="userSpaceOnUse">
            <stop stop-color="#109EA0"/>
            <stop offset="1" stop-color="#0D8A8C"/>
        </linearGradient>
        <linearGradient id="paint17_linear_1_11608" x1="261.231" y1="213.473" x2="261.231" y2="267.092" gradientUnits="userSpaceOnUse">
            <stop stop-color="#109EA0"/>
            <stop offset="1" stop-color="#0D8A8C"/>
        </linearGradient>
        <linearGradient id="paint18_linear_1_11608" x1="321.553" y1="274.7" x2="321.553" y2="355.128" gradientUnits="userSpaceOnUse">
            <stop stop-color="#109EA0"/>
            <stop offset="1" stop-color="#0D8A8C"/>
        </linearGradient>
        <linearGradient id="paint19_linear_1_11608" x1="245.39" y1="257.256" x2="310.389" y2="321.253" gradientUnits="userSpaceOnUse">
            <stop stop-color="#00AFEC"/>
            <stop offset="1" stop-color="#3D50FF"/>
        </linearGradient>
        <linearGradient id="paint20_linear_1_11608" x1="291.823" y1="257.256" x2="356.822" y2="321.257" gradientUnits="userSpaceOnUse">
            <stop stop-color="#00BBFD"/>
            <stop offset="1" stop-color="#4C5EFE"/>
        </linearGradient>
        <linearGradient id="paint21_linear_1_11608" x1="263.001" y1="238.814" x2="368.001" y2="274.314" gradientUnits="userSpaceOnUse">
            <stop offset="0.486918" stop-color="#0069FF" stop-opacity="0.96"/>
            <stop offset="1" stop-color="#0A1ED7"/>
        </linearGradient>
        <linearGradient id="paint22_linear_1_11608" x1="291.322" y1="270.917" x2="368.322" y2="289.417" gradientUnits="userSpaceOnUse">
            <stop stop-color="#72D4FF"/>
            <stop offset="1" stop-color="#0279CC"/>
        </linearGradient>
        <linearGradient id="paint23_linear_1_11608" x1="140.594" y1="242.611" x2="140.594" y2="323.042" gradientUnits="userSpaceOnUse">
            <stop stop-color="#109EA0"/>
            <stop offset="1" stop-color="#0D8A8C"/>
        </linearGradient>
        <linearGradient id="paint24_linear_1_11608" x1="100.5" y1="236.816" x2="117.377" y2="323.042" gradientUnits="userSpaceOnUse">
            <stop stop-color="#00BBFD"/>
            <stop offset="1" stop-color="#4C5EFE"/>
        </linearGradient>
        <linearGradient id="paint25_linear_1_11608" x1="110.87" y1="225.167" x2="175.872" y2="289.163" gradientUnits="userSpaceOnUse">
            <stop stop-color="#00AFEC"/>
            <stop offset="1" stop-color="#3D50FF"/>
        </linearGradient>
        <linearGradient id="paint26_linear_1_11608" x1="82.042" y1="206.724" x2="187.043" y2="242.223" gradientUnits="userSpaceOnUse">
            <stop offset="0.486918" stop-color="#0069FF" stop-opacity="0.96"/>
            <stop offset="1" stop-color="#0A1ED7"/>
        </linearGradient>
        <linearGradient id="paint27_linear_1_11608" x1="110.363" y1="238.828" x2="187.363" y2="257.328" gradientUnits="userSpaceOnUse">
            <stop stop-color="#72D4FF"/>
            <stop offset="1" stop-color="#0279CC"/>
        </linearGradient>
        <linearGradient id="paint28_linear_1_11608" x1="200.913" y1="277.026" x2="200.913" y2="357.457" gradientUnits="userSpaceOnUse">
            <stop stop-color="#109EA0"/>
            <stop offset="1" stop-color="#0D8A8C"/>
        </linearGradient>
        <linearGradient id="paint29_linear_1_11608" x1="160.818" y1="271.233" x2="177.694" y2="357.456" gradientUnits="userSpaceOnUse">
            <stop stop-color="#00BBFD"/>
            <stop offset="1" stop-color="#4C5EFE"/>
        </linearGradient>
        <linearGradient id="paint30_linear_1_11608" x1="171.188" y1="259.585" x2="236.187" y2="323.581" gradientUnits="userSpaceOnUse">
            <stop stop-color="#00AFEC"/>
            <stop offset="1" stop-color="#3D50FF"/>
        </linearGradient>
        <linearGradient id="paint31_linear_1_11608" x1="142.36" y1="241.139" x2="247.362" y2="276.637" gradientUnits="userSpaceOnUse">
            <stop offset="0.486918" stop-color="#0069FF" stop-opacity="0.96"/>
            <stop offset="1" stop-color="#0A1ED7"/>
        </linearGradient>
        <linearGradient id="paint32_linear_1_11608" x1="170.682" y1="273.244" x2="247.682" y2="291.744" gradientUnits="userSpaceOnUse">
            <stop stop-color="#72D4FF"/>
            <stop offset="1" stop-color="#0279CC"/>
        </linearGradient>
        <linearGradient id="paint33_linear_1_11608" x1="261.231" y1="311.444" x2="261.231" y2="391.872" gradientUnits="userSpaceOnUse">
            <stop stop-color="#109EA0"/>
            <stop offset="1" stop-color="#0D8A8C"/>
        </linearGradient>
        <linearGradient id="paint34_linear_1_11608" x1="221.136" y1="305.649" x2="238.013" y2="391.871" gradientUnits="userSpaceOnUse">
            <stop stop-color="#00BBFD"/>
            <stop offset="1" stop-color="#4C5EFE"/>
        </linearGradient>
        <linearGradient id="paint35_linear_1_11608" x1="231.501" y1="294" x2="296.5" y2="358.001" gradientUnits="userSpaceOnUse">
            <stop stop-color="#00BBFD"/>
            <stop offset="1" stop-color="#4C5EFE"/>
        </linearGradient>
        <linearGradient id="paint36_linear_1_11608" x1="202.679" y1="275.558" x2="307.679" y2="311.058" gradientUnits="userSpaceOnUse">
            <stop offset="0.486918" stop-color="#0069FF" stop-opacity="0.96"/>
            <stop offset="1" stop-color="#0A1ED7"/>
        </linearGradient>
        <linearGradient id="paint37_linear_1_11608" x1="231" y1="307.662" x2="308" y2="326.162" gradientUnits="userSpaceOnUse">
            <stop stop-color="#72D4FF"/>
            <stop offset="1" stop-color="#0279CC"/>
        </linearGradient>
        <linearGradient id="paint38_linear_1_11608" x1="261.231" y1="97.9673" x2="261.231" y2="178.398" gradientUnits="userSpaceOnUse">
            <stop stop-color="#109EA0"/>
            <stop offset="1" stop-color="#0D8A8C"/>
        </linearGradient>
        <linearGradient id="paint39_linear_1_11608" x1="185.067" y1="80.5233" x2="250.069" y2="144.52" gradientUnits="userSpaceOnUse">
            <stop stop-color="#00AFEC"/>
            <stop offset="1" stop-color="#3D50FF"/>
        </linearGradient>
        <linearGradient id="paint40_linear_1_11608" x1="231.501" y1="80.5233" x2="296.503" y2="144.524" gradientUnits="userSpaceOnUse">
            <stop stop-color="#00AFEC"/>
            <stop offset="1" stop-color="#3D50FF"/>
        </linearGradient>
        <linearGradient id="paint41_linear_1_11608" x1="202.679" y1="62.081" x2="307.68" y2="97.5794" gradientUnits="userSpaceOnUse">
            <stop offset="0.486918" stop-color="#0069FF" stop-opacity="0.96"/>
            <stop offset="1" stop-color="#0A1ED7"/>
        </linearGradient>
        <linearGradient id="paint42_linear_1_11608" x1="231" y1="95.5015" x2="307.644" y2="114.683" gradientUnits="userSpaceOnUse">
            <stop stop-color="#72D4FF"/>
            <stop offset="1" stop-color="#0279CC"/>
        </linearGradient>
        <linearGradient id="paint43_linear_1_11608" x1="321.553" y1="132.386" x2="321.553" y2="212.814" gradientUnits="userSpaceOnUse">
            <stop stop-color="#109EA0"/>
            <stop offset="1" stop-color="#0D8A8C"/>
        </linearGradient>
        <linearGradient id="paint44_linear_1_11608" x1="245.39" y1="114.943" x2="310.389" y2="178.94" gradientUnits="userSpaceOnUse">
            <stop stop-color="#00AFEC"/>
            <stop offset="1" stop-color="#3D50FF"/>
        </linearGradient>
        <linearGradient id="paint45_linear_1_11608" x1="291.823" y1="114.943" x2="356.822" y2="178.944" gradientUnits="userSpaceOnUse">
            <stop stop-color="#00AFEC"/>
            <stop offset="1" stop-color="#3D50FF"/>
        </linearGradient>
        <linearGradient id="paint46_linear_1_11608" x1="263.001" y1="96.5005" x2="368.001" y2="132" gradientUnits="userSpaceOnUse">
            <stop offset="0.486918" stop-color="#0069FF" stop-opacity="0.96"/>
            <stop offset="1" stop-color="#0A1ED7"/>
        </linearGradient>
        <linearGradient id="paint47_linear_1_11608" x1="291.322" y1="129.916" x2="367.968" y2="149.095" gradientUnits="userSpaceOnUse">
            <stop stop-color="#72D4FF"/>
            <stop offset="1" stop-color="#0279CC"/>
        </linearGradient>
        <linearGradient id="paint48_linear_1_11608" x1="381.87" y1="166.801" x2="381.87" y2="247.229" gradientUnits="userSpaceOnUse">
            <stop stop-color="#109EA0"/>
            <stop offset="1" stop-color="#0D8A8C"/>
        </linearGradient>
        <linearGradient id="paint49_linear_1_11608" x1="305.706" y1="149.358" x2="370.705" y2="213.355" gradientUnits="userSpaceOnUse">
            <stop stop-color="#00AFEC"/>
            <stop offset="1" stop-color="#3D50FF"/>
        </linearGradient>
        <linearGradient id="paint50_linear_1_11608" x1="352.138" y1="149.358" x2="417.137" y2="213.359" gradientUnits="userSpaceOnUse">
            <stop stop-color="#00BBFD"/>
            <stop offset="1" stop-color="#4C5EFE"/>
        </linearGradient>
        <linearGradient id="paint51_linear_1_11608" x1="323.318" y1="130.916" x2="428.315" y2="166.413" gradientUnits="userSpaceOnUse">
            <stop offset="0.486918" stop-color="#0069FF" stop-opacity="0.96"/>
            <stop offset="1" stop-color="#0A1ED7"/>
        </linearGradient>
        <linearGradient id="paint52_linear_1_11608" x1="351.639" y1="163.019" x2="428.639" y2="181.519" gradientUnits="userSpaceOnUse">
            <stop stop-color="#72D4FF"/>
            <stop offset="1" stop-color="#0279CC"/>
        </linearGradient>
        <linearGradient id="paint53_linear_1_11608" x1="200.913" y1="134.709" x2="200.913" y2="215.14" gradientUnits="userSpaceOnUse">
            <stop stop-color="#109EA0"/>
            <stop offset="1" stop-color="#0D8A8C"/>
        </linearGradient>
        <linearGradient id="paint54_linear_1_11608" x1="124.747" y1="117.265" x2="189.749" y2="181.266" gradientUnits="userSpaceOnUse">
            <stop stop-color="#00AFEC"/>
            <stop offset="1" stop-color="#3D50FF"/>
        </linearGradient>
        <linearGradient id="paint55_linear_1_11608" x1="171.188" y1="117.265" x2="236.19" y2="181.262" gradientUnits="userSpaceOnUse">
            <stop stop-color="#00AFEC"/>
            <stop offset="1" stop-color="#3D50FF"/>
        </linearGradient>
        <linearGradient id="paint56_linear_1_11608" x1="142.36" y1="98.823" x2="247.362" y2="134.321" gradientUnits="userSpaceOnUse">
            <stop offset="0.486918" stop-color="#0069FF" stop-opacity="0.96"/>
            <stop offset="1" stop-color="#0A1ED7"/>
        </linearGradient>
        <linearGradient id="paint57_linear_1_11608" x1="170.682" y1="132.243" x2="247.326" y2="151.425" gradientUnits="userSpaceOnUse">
            <stop stop-color="#72D4FF"/>
            <stop offset="1" stop-color="#0279CC"/>
        </linearGradient>
        <linearGradient id="paint58_linear_1_11608" x1="261.231" y1="169.126" x2="261.231" y2="249.554" gradientUnits="userSpaceOnUse">
            <stop stop-color="#109EA0"/>
            <stop offset="1" stop-color="#0D8A8C"/>
        </linearGradient>
        <linearGradient id="paint59_linear_1_11608" x1="185.067" y1="151.683" x2="250.066" y2="215.68" gradientUnits="userSpaceOnUse">
            <stop stop-color="#00AFEC"/>
            <stop offset="1" stop-color="#3D50FF"/>
        </linearGradient>
        <linearGradient id="paint60_linear_1_11608" x1="231.501" y1="151.683" x2="296.5" y2="215.684" gradientUnits="userSpaceOnUse">
            <stop stop-color="#00AFEC"/>
            <stop offset="1" stop-color="#3D50FF"/>
        </linearGradient>
        <linearGradient id="paint61_linear_1_11608" x1="418" y1="267" x2="204" y2="146.5" gradientUnits="userSpaceOnUse">
            <stop offset="0.0303" stop-color="#10069F"/>
            <stop offset="0.21383" stop-color="#0A1ED7"/>
            <stop offset="0.61836" stop-color="#0C8AFF"/>
            <stop offset="1" stop-color="#00D7FF"/>
        </linearGradient>
        <linearGradient id="paint62_linear_1_11608" x1="231" y1="166.658" x2="307.644" y2="185.839" gradientUnits="userSpaceOnUse">
            <stop stop-color="#72D4FF"/>
            <stop offset="1" stop-color="#0279CC"/>
        </linearGradient>
        <linearGradient id="paint63_linear_1_11608" x1="321.553" y1="203.543" x2="321.553" y2="283.971" gradientUnits="userSpaceOnUse">
            <stop stop-color="#109EA0"/>
            <stop offset="1" stop-color="#0D8A8C"/>
        </linearGradient>
        <linearGradient id="paint64_linear_1_11608" x1="245.39" y1="186.1" x2="310.389" y2="250.097" gradientUnits="userSpaceOnUse">
            <stop stop-color="#00AFEC"/>
            <stop offset="1" stop-color="#3D50FF"/>
        </linearGradient>
        <linearGradient id="paint65_linear_1_11608" x1="291.823" y1="186.1" x2="356.822" y2="250.101" gradientUnits="userSpaceOnUse">
            <stop stop-color="#00BBFD"/>
            <stop offset="1" stop-color="#4C5EFE"/>
        </linearGradient>
        <linearGradient id="paint66_linear_1_11608" x1="478.322" y1="301.413" x2="264.328" y2="180.909" gradientUnits="userSpaceOnUse">
            <stop offset="0.0303" stop-color="#10069F"/>
            <stop offset="0.21383" stop-color="#0A1ED7"/>
            <stop offset="0.61836" stop-color="#0C8AFF"/>
            <stop offset="1" stop-color="#00D7FF"/>
        </linearGradient>
        <linearGradient id="paint67_linear_1_11608" x1="291.322" y1="199.761" x2="368.322" y2="218.261" gradientUnits="userSpaceOnUse">
            <stop stop-color="#72D4FF"/>
            <stop offset="1" stop-color="#0279CC"/>
        </linearGradient>
        <linearGradient id="paint68_linear_1_11608" x1="140.594" y1="171.45" x2="140.594" y2="251.881" gradientUnits="userSpaceOnUse">
            <stop stop-color="#109EA0"/>
            <stop offset="1" stop-color="#0D8A8C"/>
        </linearGradient>
        <linearGradient id="paint69_linear_1_11608" x1="100.5" y1="165.655" x2="117.377" y2="251.881" gradientUnits="userSpaceOnUse">
            <stop stop-color="#00BBFD"/>
            <stop offset="1" stop-color="#4C5EFE"/>
        </linearGradient>
        <linearGradient id="paint70_linear_1_11608" x1="110.87" y1="154.006" x2="175.872" y2="218.002" gradientUnits="userSpaceOnUse">
            <stop stop-color="#00AFEC"/>
            <stop offset="1" stop-color="#3D50FF"/>
        </linearGradient>
        <linearGradient id="paint71_linear_1_11608" x1="82.042" y1="135.563" x2="187.042" y2="171.063" gradientUnits="userSpaceOnUse">
            <stop offset="0.486918" stop-color="#0069FF" stop-opacity="0.96"/>
            <stop offset="1" stop-color="#0A1ED7"/>
        </linearGradient>
        <linearGradient id="paint72_linear_1_11608" x1="110.363" y1="168.98" x2="187.009" y2="188.159" gradientUnits="userSpaceOnUse">
            <stop stop-color="#72D4FF"/>
            <stop offset="1" stop-color="#0279CC"/>
        </linearGradient>
        <linearGradient id="paint73_linear_1_11608" x1="200.913" y1="205.867" x2="200.913" y2="286.298" gradientUnits="userSpaceOnUse">
            <stop stop-color="#109EA0"/>
            <stop offset="1" stop-color="#0D8A8C"/>
        </linearGradient>
        <linearGradient id="paint74_linear_1_11608" x1="160.818" y1="200.072" x2="177.695" y2="286.298" gradientUnits="userSpaceOnUse">
            <stop stop-color="#00BBFD"/>
            <stop offset="1" stop-color="#4C5EFE"/>
        </linearGradient>
        <linearGradient id="paint75_linear_1_11608" x1="171.188" y1="188.423" x2="236.19" y2="252.419" gradientUnits="userSpaceOnUse">
            <stop stop-color="#00AFEC"/>
            <stop offset="1" stop-color="#3D50FF"/>
        </linearGradient>
        <linearGradient id="paint76_linear_1_11608" x1="357.682" y1="303.744" x2="143.682" y2="183.243" gradientUnits="userSpaceOnUse">
            <stop offset="0.0303" stop-color="#10069F"/>
            <stop offset="0.21383" stop-color="#0A1ED7"/>
            <stop offset="0.61836" stop-color="#0C8AFF"/>
            <stop offset="1" stop-color="#00D7FF"/>
        </linearGradient>
        <linearGradient id="paint77_linear_1_11608" x1="170.682" y1="202.084" x2="247.682" y2="220.584" gradientUnits="userSpaceOnUse">
            <stop stop-color="#72D4FF"/>
            <stop offset="1" stop-color="#0279CC"/>
        </linearGradient>
        <linearGradient id="paint78_linear_1_11608" x1="261.231" y1="240.283" x2="261.231" y2="320.711" gradientUnits="userSpaceOnUse">
            <stop stop-color="#109EA0"/>
            <stop offset="1" stop-color="#0D8A8C"/>
        </linearGradient>
        <linearGradient id="paint79_linear_1_11608" x1="221.136" y1="234.488" x2="238.013" y2="320.71" gradientUnits="userSpaceOnUse">
            <stop stop-color="#00BBFD"/>
            <stop offset="1" stop-color="#4C5EFE"/>
        </linearGradient>
        <linearGradient id="paint80_linear_1_11608" x1="231.501" y1="222.839" x2="296.5" y2="286.84" gradientUnits="userSpaceOnUse">
            <stop stop-color="#00BBFD"/>
            <stop offset="1" stop-color="#4C5EFE"/>
        </linearGradient>
        <linearGradient id="paint81_linear_1_11608" x1="418" y1="338.152" x2="204.006" y2="217.649" gradientUnits="userSpaceOnUse">
            <stop offset="0.0303" stop-color="#10069F"/>
            <stop offset="0.21383" stop-color="#0A1ED7"/>
            <stop offset="0.61836" stop-color="#0C8AFF"/>
            <stop offset="1" stop-color="#00D7FF"/>
        </linearGradient>
        <linearGradient id="paint82_linear_1_11608" x1="231" y1="236.5" x2="308" y2="255" gradientUnits="userSpaceOnUse">
            <stop stop-color="#72D4FF"/>
            <stop offset="1" stop-color="#0279CC"/>
        </linearGradient>
        <linearGradient id="paint83_linear_1_11608" x1="261.231" y1="26.8101" x2="261.231" y2="107.241" gradientUnits="userSpaceOnUse">
            <stop stop-color="#109EA0"/>
            <stop offset="1" stop-color="#0D8A8C"/>
        </linearGradient>
        <linearGradient id="paint84_linear_1_11608" x1="185.067" y1="9.36603" x2="250.069" y2="73.3627" gradientUnits="userSpaceOnUse">
            <stop stop-color="#00AFEC"/>
            <stop offset="1" stop-color="#3D50FF"/>
        </linearGradient>
        <linearGradient id="paint85_linear_1_11608" x1="231.501" y1="9.36603" x2="296.503" y2="73.3669" gradientUnits="userSpaceOnUse">
            <stop stop-color="#00BBFD"/>
            <stop offset="1" stop-color="#4C5EFE"/>
        </linearGradient>
        <linearGradient id="paint86_linear_1_11608" x1="418" y1="124.687" x2="204" y2="4.18687" gradientUnits="userSpaceOnUse">
            <stop offset="0.0303" stop-color="#10069F"/>
            <stop offset="0.21383" stop-color="#0A1ED7"/>
            <stop offset="0.61836" stop-color="#0C8AFF"/>
            <stop offset="1" stop-color="#00D7FF"/>
        </linearGradient>
        <linearGradient id="paint87_linear_1_11608" x1="231" y1="23.0278" x2="308" y2="41.5278" gradientUnits="userSpaceOnUse">
            <stop stop-color="#72D4FF"/>
            <stop offset="1" stop-color="#0279CC"/>
        </linearGradient>
        <linearGradient id="paint88_linear_1_11608" x1="321.553" y1="61.2242" x2="321.553" y2="141.655" gradientUnits="userSpaceOnUse">
            <stop stop-color="#109EA0"/>
            <stop offset="1" stop-color="#0D8A8C"/>
        </linearGradient>
        <linearGradient id="paint89_linear_1_11608" x1="281.459" y1="55.4324" x2="298.335" y2="141.655" gradientUnits="userSpaceOnUse">
            <stop stop-color="#00BBFD"/>
            <stop offset="1" stop-color="#4C5EFE"/>
        </linearGradient>
        <linearGradient id="paint90_linear_1_11608" x1="291.821" y1="43.7837" x2="356.82" y2="107.785" gradientUnits="userSpaceOnUse">
            <stop stop-color="#00AFEC"/>
            <stop offset="1" stop-color="#3D50FF"/>
        </linearGradient>
        <linearGradient id="paint91_linear_1_11608" x1="478.322" y1="159.097" x2="264.328" y2="38.593" gradientUnits="userSpaceOnUse">
            <stop offset="0.0303" stop-color="#10069F"/>
            <stop offset="0.21383" stop-color="#0A1ED7"/>
            <stop offset="0.61836" stop-color="#0C8AFF"/>
            <stop offset="1" stop-color="#00D7FF"/>
        </linearGradient>
        <linearGradient id="paint92_linear_1_11608" x1="291.322" y1="57.4416" x2="368.323" y2="75.9399" gradientUnits="userSpaceOnUse">
            <stop stop-color="#72D4FF"/>
            <stop offset="1" stop-color="#0279CC"/>
        </linearGradient>
        <linearGradient id="paint93_linear_1_11608" x1="381.87" y1="95.645" x2="381.87" y2="176.073" gradientUnits="userSpaceOnUse">
            <stop stop-color="#109EA0"/>
            <stop offset="1" stop-color="#0D8A8C"/>
        </linearGradient>
        <linearGradient id="paint94_linear_1_11608" x1="341.775" y1="89.8503" x2="358.652" y2="176.073" gradientUnits="userSpaceOnUse">
            <stop stop-color="#00BBFD"/>
            <stop offset="1" stop-color="#4C5EFE"/>
        </linearGradient>
        <linearGradient id="paint95_linear_1_11608" x1="352.138" y1="78.2017" x2="417.137" y2="142.203" gradientUnits="userSpaceOnUse">
            <stop stop-color="#00BBFD"/>
            <stop offset="1" stop-color="#4C5EFE"/>
        </linearGradient>
        <linearGradient id="paint96_linear_1_11608" x1="538.632" y1="193.515" x2="324.642" y2="73.0171" gradientUnits="userSpaceOnUse">
            <stop offset="0.0303" stop-color="#10069F"/>
            <stop offset="0.21383" stop-color="#0A1ED7"/>
            <stop offset="0.61836" stop-color="#0C8AFF"/>
            <stop offset="1" stop-color="#00D7FF"/>
        </linearGradient>
        <linearGradient id="paint97_linear_1_11608" x1="351.639" y1="91.8628" x2="428.639" y2="110.363" gradientUnits="userSpaceOnUse">
            <stop stop-color="#72D4FF"/>
            <stop offset="1" stop-color="#0279CC"/>
        </linearGradient>
        <linearGradient id="paint98_linear_1_11608" x1="200.913" y1="63.5513" x2="200.913" y2="143.982" gradientUnits="userSpaceOnUse">
            <stop stop-color="#109EA0"/>
            <stop offset="1" stop-color="#0D8A8C"/>
        </linearGradient>
        <linearGradient id="paint99_linear_1_11608" x1="124.747" y1="46.1072" x2="189.749" y2="110.108" gradientUnits="userSpaceOnUse">
            <stop stop-color="#00AFEC"/>
            <stop offset="1" stop-color="#3D50FF"/>
        </linearGradient>
        <linearGradient id="paint100_linear_1_11608" x1="171.188" y1="46.1072" x2="236.19" y2="110.104" gradientUnits="userSpaceOnUse">
            <stop stop-color="#00BBFD"/>
            <stop offset="1" stop-color="#4C5EFE"/>
        </linearGradient>
        <linearGradient id="paint101_linear_1_11608" x1="357.682" y1="161.428" x2="143.682" y2="40.9281" gradientUnits="userSpaceOnUse">
            <stop offset="0.0303" stop-color="#10069F"/>
            <stop offset="0.21383" stop-color="#0A1ED7"/>
            <stop offset="0.61836" stop-color="#0C8AFF"/>
            <stop offset="1" stop-color="#00D7FF"/>
        </linearGradient>
        <linearGradient id="paint102_linear_1_11608" x1="170.682" y1="59.769" x2="247.682" y2="78.269" gradientUnits="userSpaceOnUse">
            <stop stop-color="#72D4FF"/>
            <stop offset="1" stop-color="#0279CC"/>
        </linearGradient>
        <linearGradient id="paint103_linear_1_11608" x1="140.594" y1="100.295" x2="140.594" y2="180.726" gradientUnits="userSpaceOnUse">
            <stop stop-color="#109EA0"/>
            <stop offset="1" stop-color="#0D8A8C"/>
        </linearGradient>
        <linearGradient id="paint104_linear_1_11608" x1="100.5" y1="94.5005" x2="117.377" y2="180.726" gradientUnits="userSpaceOnUse">
            <stop stop-color="#00BBFD"/>
            <stop offset="1" stop-color="#4C5EFE"/>
        </linearGradient>
        <linearGradient id="paint105_linear_1_11608" x1="110.87" y1="82.8514" x2="175.872" y2="146.848" gradientUnits="userSpaceOnUse">
            <stop stop-color="#00BBFD"/>
            <stop offset="1" stop-color="#4C5EFE"/>
        </linearGradient>
        <linearGradient id="paint106_linear_1_11608" x1="297.363" y1="198.165" x2="83.3692" y2="77.6615" gradientUnits="userSpaceOnUse">
            <stop offset="0.0303" stop-color="#10069F"/>
            <stop offset="0.21383" stop-color="#0A1ED7"/>
            <stop offset="0.61836" stop-color="#0C8AFF"/>
            <stop offset="1" stop-color="#00D7FF"/>
        </linearGradient>
        <linearGradient id="paint107_linear_1_11608" x1="110.363" y1="96.5132" x2="187.363" y2="115.013" gradientUnits="userSpaceOnUse">
            <stop stop-color="#72D4FF"/>
            <stop offset="1" stop-color="#0279CC"/>
        </linearGradient>
    </defs>
</svg>
