<svg width="615" height="727" viewBox="0 0 615 727" fill="none" xmlns="http://www.w3.org/2000/svg">
    <g opacity="0.6">
        <path style="mix-blend-mode:lighten" opacity="0.5" d="M248.089 726.951C237.111 726.959 226.323 724.078 216.811 718.597L123.701 664.84C119.695 662.527 116.377 659.19 114.086 655.172C111.795 651.153 110.615 646.598 110.666 641.972C110.716 637.347 111.997 632.819 114.375 628.852C116.754 624.884 120.144 621.621 124.2 619.397L213.146 571.156C215.408 569.929 218.065 569.651 220.532 570.383C222.999 571.115 225.074 572.797 226.301 575.059C227.528 577.321 227.806 579.978 227.074 582.445C226.342 584.912 224.661 586.987 222.399 588.214L133.492 636.435C132.463 637.01 131.604 637.846 131.003 638.86C130.403 639.874 130.081 641.03 130.072 642.208C130.063 643.387 130.367 644.547 130.952 645.57C131.537 646.593 132.383 647.443 133.404 648.033L226.514 701.79C233.079 705.564 240.518 707.55 248.091 707.55C255.663 707.55 263.103 705.564 269.667 701.79L503.448 566.817C512.963 561.342 523.748 558.461 534.726 558.461C545.703 558.461 556.489 561.342 566.004 566.817C567.109 567.453 568.077 568.301 568.854 569.312C569.631 570.323 570.202 571.477 570.532 572.709C570.863 573.94 570.948 575.225 570.782 576.489C570.616 577.753 570.202 578.972 569.565 580.077C568.927 581.181 568.078 582.149 567.066 582.925C566.055 583.701 564.9 584.27 563.668 584.599C562.436 584.929 561.152 585.012 559.887 584.845C558.623 584.677 557.405 584.263 556.301 583.624C549.737 579.849 542.298 577.862 534.726 577.862C527.154 577.862 519.714 579.849 513.15 583.624L279.37 718.597C269.857 724.078 259.069 726.96 248.089 726.951Z" fill="url(#paint0_linear_1_9893)"/>
        <path d="M480.77 194.201C477.037 194.071 473.404 192.964 470.233 190.991C463.595 186.658 458.071 180.823 454.108 173.958C450.144 167.093 447.852 159.392 447.418 151.477C446.864 148.481 447.251 145.388 448.527 142.621C449.804 139.855 451.905 137.552 454.543 136.029C457.182 134.506 460.227 133.838 463.261 134.116C466.294 134.395 469.167 135.606 471.484 137.584C478.122 141.917 483.646 147.752 487.61 154.617C491.573 161.482 493.865 169.183 494.3 177.098C494.598 180.074 494.095 183.076 492.842 185.793C491.589 188.509 489.632 190.84 487.174 192.546C485.224 193.655 483.014 194.226 480.77 194.201ZM460.957 136.887C459.152 136.861 457.372 137.315 455.8 138.204C453.736 139.7 452.105 141.717 451.074 144.048C450.043 146.38 449.648 148.943 449.931 151.477C450.341 158.956 452.506 166.234 456.25 172.722C459.968 179.163 465.139 184.646 471.351 188.734C471.44 188.792 471.524 188.858 471.603 188.928C473.514 190.622 475.906 191.68 478.447 191.953C481.042 192.233 483.658 191.68 485.917 190.375C488.177 189.07 489.964 187.081 491.018 184.694C492.052 182.357 492.331 179.756 491.82 177.255C491.798 177.15 491.784 177.045 491.777 176.938C491.345 169.515 489.185 162.295 485.467 155.853C481.723 149.366 476.504 143.85 470.233 139.754C467.442 138.009 464.246 137.022 460.957 136.887Z" fill="#056CEC"/>
        <path d="M484.365 172.088C484.365 180.7 478.318 184.191 470.86 179.885C466.929 177.322 463.657 173.868 461.311 169.804C458.965 165.74 457.609 161.18 457.355 156.494C457.355 147.883 463.402 144.392 470.86 148.698C474.791 151.261 478.063 154.714 480.409 158.778C482.756 162.842 484.111 167.402 484.365 172.088Z" fill="#056CEC"/>
        <path d="M477.553 81.4535C477.553 82.993 475.887 83.9553 474.553 83.1857L465.169 77.7689C464.55 77.4117 464.169 76.7514 464.169 76.0368V54.3417C464.169 52.8022 465.835 51.8399 467.169 52.6095L476.553 58.0263C477.172 58.3835 477.553 59.0438 477.553 59.7584V81.4535Z" fill="#056CEC"/>
        <path opacity="0.8" d="M454.21 70.4983C454.554 71.9208 453.304 73.2193 451.87 72.9294L443.464 71.2306C442.703 71.0766 442.099 70.4957 441.917 69.7405L435.916 44.9429C435.572 43.5205 436.822 42.2222 438.257 42.5122L446.658 44.2108C447.419 44.3648 448.022 44.9456 448.205 45.7005L454.21 70.4983Z" fill="#056CEC"/>
        <path opacity="0.6" d="M432.9 68.9046C433.422 70.0351 432.795 71.3625 431.591 71.6776L424.695 73.4812C423.758 73.7264 422.78 73.2643 422.373 72.3844L410.682 47.0522C410.16 45.9216 410.787 44.5942 411.991 44.2792L418.887 42.4756C419.824 42.2303 420.803 42.6925 421.209 43.5723L432.9 68.9046Z" fill="#056CEC"/>
        <path opacity="0.4" d="M415.504 76.3431C416.063 77.1345 415.974 78.2126 415.293 78.9019L410.283 83.9744C409.408 84.8604 407.945 84.7399 407.226 83.7226L391.132 60.9302C390.573 60.1385 390.662 59.06 391.343 58.3707L396.357 53.2974C397.233 52.4118 398.696 52.5327 399.414 53.5499L415.504 76.3431Z" fill="#056CEC"/>
        <path opacity="0.2" d="M403.446 91.9561C404.008 92.4918 404.21 93.3047 403.962 94.041L401.234 102.165C400.768 103.552 399.018 103.986 397.959 102.976L379.482 85.3768C378.92 84.8411 378.719 84.0282 378.966 83.2919L381.694 75.1679C382.16 73.7805 383.91 73.347 384.97 74.3565L403.446 91.9561Z" fill="#056CEC"/>
        <path opacity="0.1" d="M397.77 114.367C398.389 114.724 398.77 115.384 398.77 116.099V126.932C398.77 128.471 397.103 129.433 395.77 128.664L376.981 117.816C376.362 117.459 375.98 116.799 375.98 116.084V105.247C375.98 103.707 377.647 102.745 378.981 103.515L397.77 114.367Z" fill="#056CEC"/>
        <path opacity="0.2" d="M473.212 125.515C473.212 127.054 471.546 128.016 470.213 127.247L469.51 126.842C468.891 126.485 468.51 125.824 468.51 125.109V90.4669C468.51 88.9269 470.177 87.9647 471.511 88.7354L472.213 89.1415C472.832 89.4989 473.212 90.1588 473.212 90.873V125.515Z" fill="#0A1ED7"/>
        <path opacity="0.4" d="M462.544 121.148C462.889 122.571 461.639 123.869 460.204 123.58L460.057 123.55C459.295 123.396 458.692 122.815 458.509 122.06L449.041 82.9446C448.697 81.523 449.945 80.2249 451.379 80.5134L451.523 80.5423C452.285 80.6957 452.89 81.2768 453.073 82.0324L462.544 121.148Z" fill="#0A1ED7"/>
        <path opacity="0.6" d="M453.131 121.254C453.636 122.348 453.03 123.632 451.865 123.938C450.957 124.176 450.01 123.728 449.616 122.877L431.277 83.1433C430.772 82.0493 431.379 80.7648 432.545 80.4606C433.451 80.2241 434.397 80.6711 434.79 81.5217L453.131 121.254Z" fill="#0A1ED7"/>
        <path opacity="0.8" d="M445.62 125.185C446.161 125.952 446.075 126.996 445.415 127.663C444.568 128.519 443.153 128.402 442.458 127.418L417.218 91.671C416.677 90.9047 416.764 89.8608 417.423 89.1938C418.27 88.3372 419.686 88.4543 420.38 89.4384L445.62 125.185Z" fill="#0A1ED7"/>
        <path d="M440.462 132.484C441.025 133.02 441.226 133.832 440.979 134.569L440.932 134.708C440.466 136.096 438.716 136.529 437.657 135.52L408.516 107.762C407.953 107.226 407.751 106.412 408 105.675L408.048 105.532C408.515 104.146 410.264 103.714 411.323 104.723L440.462 132.484Z" fill="#0A1ED7"/>
        <path d="M438.106 142.664C438.724 143.021 439.106 143.681 439.106 144.396V145.203C439.106 146.743 437.439 147.705 436.106 146.935L406.103 129.613C405.484 129.255 405.103 128.595 405.103 127.881V127.073C405.103 125.534 406.769 124.572 408.103 125.341L438.106 142.664Z" fill="#0A1ED7"/>
        <path d="M438.683 154.929C439.445 155.083 440.049 155.664 440.231 156.419L440.646 158.134C440.99 159.556 439.74 160.854 438.305 160.564L410.297 154.901C409.536 154.748 408.933 154.167 408.75 153.413L408.334 151.699C407.989 150.277 409.239 148.977 410.674 149.267L438.683 154.929Z" fill="#0A1ED7"/>
        <path d="M442.171 168.442C443.108 168.197 444.086 168.659 444.493 169.538L445.553 171.834C446.076 172.964 445.449 174.292 444.244 174.608L420.668 180.777C419.731 181.023 418.752 180.56 418.346 179.681L417.284 177.381C416.762 176.25 417.389 174.923 418.594 174.608L442.171 168.442Z" fill="#0A1ED7"/>
        <path d="M448.617 182.177C449.492 181.291 450.955 181.412 451.673 182.429L453.134 184.499C453.693 185.291 453.603 186.369 452.922 187.058L435.79 204.39C434.914 205.276 433.452 205.155 432.734 204.138L431.274 202.072C430.715 201.28 430.804 200.202 431.485 199.512L448.617 182.177Z" fill="#0A1ED7"/>
        <path d="M457.809 194.34C458.275 192.953 460.023 192.519 461.083 193.528L462.361 194.743C462.924 195.279 463.125 196.092 462.878 196.829L453.774 223.918C453.307 225.305 451.558 225.739 450.498 224.729L449.225 223.516C448.662 222.98 448.461 222.167 448.708 221.431L457.809 194.34Z" fill="#0A1ED7"/>
        <path d="M468.51 203.057C468.51 201.517 470.176 200.555 471.509 201.324L472.212 201.729C472.831 202.087 473.212 202.747 473.212 203.462V238.108C473.212 239.647 471.546 240.609 470.213 239.84L469.51 239.435C468.891 239.077 468.51 238.417 468.51 237.702V203.057Z" fill="#0A1ED7"/>
        <path opacity="0.6" d="M482.438 29.0592C482.438 29.7187 482.76 30.3325 483.302 30.7085C537.847 68.5519 581.804 141.573 591.422 208.58C591.492 209.068 591.737 209.511 592.114 209.828L611.129 225.876C612.494 227.029 614.558 225.96 614.36 224.184C605.324 142.956 552.072 52.5202 485.523 6.37153C484.21 5.46052 482.438 6.41526 482.438 8.01394V29.0592Z" fill="#10069F"/>
        <path opacity="0.2" d="M571.378 305.903C570.582 305.231 569.403 305.288 568.647 306.006C546.275 327.247 510.811 328.861 470.863 305.797C461.699 300.441 452.996 294.336 444.841 287.545C443.871 286.737 442.402 287 441.786 288.102L433.753 302.483C433.297 303.298 433.466 304.321 434.165 304.941C445.498 314.994 457.789 323.913 470.863 331.571C521.561 360.842 566.145 356.488 592.03 325.896C592.732 325.067 592.614 323.825 591.785 323.125L571.378 305.903Z" fill="#0C8AFF"/>
        <path d="M382.183 245.376C383.014 246.6 384.839 246.512 385.56 245.22L393.409 231.17C393.774 230.517 393.744 229.715 393.333 229.089C365.859 187.278 348.309 137.715 348.309 93.5341C348.309 21.0345 395.531 -11.4433 456.395 15.4303C457.736 16.022 459.285 15.0637 459.285 13.5987V-7.84447C459.285 -8.61015 458.832 -9.31765 458.14 -9.64719C384.092 -44.9546 325.986 -6.78686 325.986 80.6466C325.986 134.459 347.995 195.039 382.183 245.376Z" fill="#0A1ED7"/>
        <path d="M518.805 265.459C518.805 266.999 517.138 267.961 515.805 267.191L507.857 262.602C507.239 262.245 506.857 261.585 506.857 260.87V88.4252C506.857 86.8856 508.524 85.9234 509.858 86.6932L517.805 91.2823C518.424 91.6396 518.805 92.2998 518.805 93.0143V265.459Z" fill="#0A1ED7"/>
        <path opacity="0.8" d="M535.772 275.25C535.772 276.79 534.105 277.752 532.772 276.982L524.829 272.398C524.21 272.04 523.829 271.38 523.829 270.666V198.333C523.829 196.793 525.496 195.831 526.829 196.601L534.771 201.185C535.39 201.543 535.772 202.203 535.772 202.918V275.25Z" fill="#10069F"/>
        <path opacity="0.6" d="M553.918 285.734C553.918 287.273 552.252 288.236 550.918 287.466L542.971 282.877C542.352 282.52 541.971 281.859 541.971 281.145V163.269C541.971 161.729 543.637 160.767 544.97 161.536L552.918 166.122C553.537 166.479 553.918 167.14 553.918 167.854V285.734Z" fill="#10069F"/>
        <path opacity="0.2" d="M571.783 296.051C571.783 297.59 570.116 298.553 568.782 297.783L560.835 293.194C560.216 292.836 559.835 292.176 559.835 291.462V200.722C559.835 199.182 561.502 198.22 562.835 198.99L570.783 203.579C571.401 203.936 571.783 204.597 571.783 205.311V296.051Z" fill="#0B37DE"/>
        <path opacity="0.1" d="M253.121 670.045L2.68199 525.453C1.86657 524.982 1.18943 524.305 0.718646 523.49C0.247858 522.675 0 521.75 0 520.808C0 519.867 0.247858 518.942 0.718646 518.126C1.18943 517.311 1.86657 516.634 2.68199 516.163L253.113 371.576C256.714 369.497 260.799 368.403 264.958 368.403C269.116 368.403 273.201 369.497 276.802 371.576L527.241 516.167C528.057 516.638 528.734 517.315 529.205 518.131C529.675 518.946 529.923 519.871 529.923 520.813C529.923 521.754 529.675 522.679 529.205 523.495C528.734 524.31 528.057 524.987 527.241 525.458L276.81 670.045C273.209 672.124 269.124 673.218 264.966 673.218C260.807 673.218 256.722 672.124 253.121 670.045Z" fill="url(#paint1_linear_1_9893)"/>
        <g style="mix-blend-mode:lighten" opacity="0.5">
            <path opacity="0.62" d="M264.964 653.56C261.646 653.564 258.386 652.693 255.512 651.035L40.8293 527.085C39.7269 526.45 38.8114 525.535 38.1748 524.433C37.5382 523.331 37.2031 522.081 37.2031 520.808C37.2031 519.536 37.5382 518.286 38.1748 517.184C38.8114 516.082 39.7269 515.167 40.8293 514.532L255.506 390.585C258.381 388.93 261.641 388.059 264.958 388.059C268.276 388.059 271.536 388.93 274.411 390.585L489.098 514.534C490.199 515.171 491.113 516.086 491.749 517.188C492.385 518.29 492.719 519.539 492.719 520.811C492.719 522.083 492.385 523.333 491.749 524.435C491.113 525.537 490.199 526.452 489.098 527.088L274.416 651.035C271.542 652.691 268.282 653.562 264.964 653.56ZM264.959 394.663C262.801 394.662 260.681 395.228 258.811 396.305L44.131 520.251C44.0332 520.307 43.9521 520.389 43.8957 520.487C43.8394 520.585 43.8097 520.696 43.8097 520.808C43.8097 520.921 43.8394 521.033 43.8957 521.13C43.9521 521.228 44.0332 521.31 44.131 521.366L258.816 645.315C260.687 646.39 262.807 646.955 264.964 646.955C267.121 646.955 269.241 646.39 271.112 645.315L485.793 521.369C485.89 521.312 485.971 521.231 486.027 521.133C486.083 521.035 486.113 520.924 486.113 520.811C486.113 520.699 486.083 520.588 486.027 520.49C485.971 520.392 485.89 520.311 485.793 520.254L271.106 396.305C269.236 395.228 267.116 394.662 264.959 394.663Z" fill="url(#paint2_linear_1_9893)"/>
        </g>
        <path opacity="0.66" d="M255.231 602.377L122.346 525.655C116.967 522.55 117.642 517.127 123.852 513.541L253.72 438.562C256.906 436.786 260.464 435.783 264.108 435.632C267.752 435.48 271.381 436.186 274.702 437.692L407.587 514.413C412.966 517.518 412.291 522.942 406.081 526.528L276.213 601.507C273.028 603.282 269.47 604.286 265.826 604.437C262.181 604.588 258.553 603.882 255.231 602.377Z" fill="#2B3AA5"/>
        <path opacity="0.66" d="M255.231 602.377L122.346 525.655C116.967 522.55 117.642 517.127 123.852 513.541L253.72 438.562C256.906 436.786 260.464 435.783 264.108 435.632C267.752 435.48 271.381 436.186 274.702 437.692L407.587 514.413C412.966 517.518 412.291 522.942 406.081 526.528L276.213 601.507C273.028 603.282 269.47 604.286 265.826 604.437C262.181 604.588 258.553 603.882 255.231 602.377Z" fill="url(#paint3_radial_1_9893)" fill-opacity="0.2"/>
        <path d="M122.346 525.655L134.019 532.395L253.72 463.286C256.906 461.51 260.464 460.506 264.108 460.355C267.752 460.204 271.38 460.91 274.702 462.416L395.914 532.398L406.081 526.528C412.291 522.942 412.966 517.518 407.587 514.413L274.702 437.692C271.38 436.186 267.752 435.48 264.108 435.632C260.464 435.783 256.906 436.786 253.72 438.562L123.852 513.541C117.642 517.127 116.968 522.55 122.346 525.655Z" fill="#42FFFF" fill-opacity="0.1"/>
        <mask id="mask0_1_9893" style="mask-type:luminance" maskUnits="userSpaceOnUse" x="118" y="12" width="294" height="593">
            <path d="M403.745 12.8L407.576 514.417C412.954 517.522 412.279 522.946 406.069 526.532L276.202 601.51C273.016 603.286 269.458 604.29 265.814 604.441C262.17 604.592 258.541 603.886 255.219 602.38L122.334 525.659C116.956 522.554 117.63 517.13 123.841 513.545L133.406 12.8" fill="white"/>
        </mask>
        <g mask="url(#mask0_1_9893)">
            <path opacity="0.66" d="M284.435 235.405L283.064 234.613C277.99 231.684 273.876 234.794 273.876 241.56V639.032C273.928 642.473 274.787 645.854 276.382 648.903C277.978 651.952 280.267 654.584 283.064 656.588L284.435 657.379C289.509 660.309 293.623 657.199 293.623 650.433V252.96C293.571 249.52 292.712 246.139 291.117 243.09C289.521 240.041 287.232 237.409 284.435 235.405Z" fill="url(#paint4_linear_1_9893)"/>
            <path opacity="0.66" d="M321.459 320.116L320.089 319.324C315.014 316.395 310.9 319.504 310.9 326.271V660.41C310.953 663.851 311.811 667.231 313.407 670.28C315.002 673.329 317.291 675.961 320.089 677.965L321.459 678.757C326.534 681.687 330.647 678.577 330.647 671.811V337.671C330.595 334.231 329.737 330.85 328.141 327.801C326.545 324.752 324.257 322.12 321.459 320.116Z" fill="url(#paint5_linear_1_9893)"/>
            <path opacity="0.66" d="M358.483 420.167L357.113 419.375C352.038 416.446 347.925 419.555 347.925 426.321V551.535C347.977 554.976 348.835 558.357 350.431 561.406C352.027 564.454 354.315 567.087 357.113 569.09L358.483 569.882C363.558 572.812 367.672 569.702 367.672 562.936V437.722C367.619 434.281 366.761 430.9 365.165 427.851C363.57 424.803 361.281 422.17 358.483 420.167Z" fill="url(#paint6_linear_1_9893)"/>
            <path opacity="0.66" d="M395.181 475.078L393.81 474.286C388.736 471.357 384.622 474.467 384.622 481.232V529.263C384.674 532.704 385.533 536.084 387.128 539.133C388.724 542.182 391.013 544.814 393.81 546.818L395.181 547.61C400.255 550.539 404.369 547.43 404.369 540.664V492.633C404.317 489.192 403.458 485.812 401.863 482.763C400.267 479.714 397.978 477.082 395.181 475.078Z" fill="url(#paint7_linear_1_9893)"/>
        </g>
        <g opacity="0.5">
            <path d="M184.78 420.018C184.78 421.558 183.113 422.52 181.78 421.75L156.531 407.174C155.912 406.817 155.531 406.156 155.531 405.442V396.553C155.531 395.013 157.198 394.051 158.531 394.821L183.78 409.397C184.399 409.755 184.78 410.415 184.78 411.13V420.018Z" fill="#10069F"/>
            <path d="M184.78 450.187C184.78 451.727 183.113 452.689 181.78 451.919L156.531 437.343C155.912 436.986 155.531 436.325 155.531 435.611V426.722C155.531 425.182 157.198 424.22 158.531 424.989L183.78 439.564C184.398 439.921 184.78 440.581 184.78 441.296V450.187Z" fill="#10069F"/>
            <path d="M184.78 480.352C184.78 481.892 183.113 482.854 181.78 482.084L156.531 467.508C155.912 467.151 155.531 466.49 155.531 465.776V456.887C155.531 455.347 157.198 454.385 158.531 455.155L183.78 469.731C184.399 470.089 184.78 470.749 184.78 471.464V480.352Z" fill="#10069F"/>
            <path d="M184.78 510.522C184.78 512.062 183.113 513.024 181.78 512.254L156.531 497.678C155.912 497.32 155.531 496.66 155.531 495.946V487.057C155.531 485.517 157.198 484.555 158.531 485.325L183.78 499.901C184.399 500.259 184.78 500.919 184.78 501.633V510.522Z" fill="#10069F"/>
            <path d="M184.78 540.688C184.78 542.228 183.113 543.19 181.78 542.42L156.531 527.844C155.912 527.487 155.531 526.826 155.531 526.112V517.223C155.531 515.683 157.198 514.721 158.531 515.491L183.78 530.067C184.399 530.425 184.78 531.085 184.78 531.799V540.688Z" fill="#10069F"/>
            <path d="M184.78 112.041C184.78 113.58 183.113 114.543 181.78 113.773L156.531 99.1961C155.912 98.8389 155.531 98.1786 155.531 97.4641V1.22576C155.531 -0.313826 157.198 -1.27609 158.531 -0.506316L183.78 14.0703C184.399 14.4276 184.78 15.0878 184.78 15.8024V112.041Z" fill="#10069F"/>
            <path opacity="0.8" d="M142.134 207.178L127.393 198.667C125.356 197.491 123.665 195.799 122.489 193.762C121.313 191.725 120.693 189.414 120.693 187.062V144.377C120.693 143.464 120.934 142.567 121.391 141.776C121.847 140.985 122.504 140.328 123.295 139.871C124.086 139.414 124.983 139.174 125.897 139.174C126.81 139.174 127.708 139.414 128.499 139.871L143.239 148.381C145.276 149.558 146.968 151.249 148.144 153.286C149.32 155.323 149.939 157.634 149.939 159.986V202.671C149.939 203.585 149.699 204.482 149.242 205.273C148.785 206.064 148.129 206.721 147.338 207.178C146.546 207.634 145.649 207.875 144.736 207.875C143.822 207.875 142.925 207.634 142.134 207.178Z" fill="#10069F"/>
            <path opacity="0.6" d="M107.295 227.377L92.5538 218.866C90.5167 217.69 88.8251 215.998 87.6489 213.961C86.4728 211.924 85.8536 209.613 85.8535 207.261V164.577C85.8535 163.663 86.0939 162.766 86.5506 161.975C87.0073 161.184 87.6642 160.527 88.4553 160.07C89.2464 159.613 90.1437 159.373 91.0572 159.373C91.9706 159.373 92.868 159.613 93.659 160.07L108.399 168.581C110.437 169.757 112.128 171.448 113.304 173.485C114.48 175.523 115.1 177.833 115.1 180.186V222.87C115.1 223.784 114.859 224.681 114.403 225.472C113.946 226.263 113.289 226.92 112.498 227.377C111.707 227.833 110.81 228.074 109.896 228.074C108.983 228.074 108.086 227.833 107.295 227.377Z" fill="#10069F"/>
            <path opacity="0.4" d="M72.4524 247.678L57.7117 239.167C55.6746 237.991 53.9831 236.299 52.807 234.262C51.6309 232.225 51.0117 229.914 51.0117 227.562V184.878C51.0117 183.964 51.2521 183.067 51.7088 182.276C52.1655 181.485 52.8223 180.828 53.6134 180.371C54.4044 179.914 55.3018 179.674 56.2152 179.674C57.1286 179.674 58.0259 179.915 58.8169 180.371L73.5576 188.882C75.5947 190.058 77.2863 191.749 78.4624 193.787C79.6385 195.824 80.2576 198.134 80.2576 200.487V243.171C80.2576 244.085 80.0172 244.982 79.5605 245.773C79.1038 246.564 78.4469 247.221 77.6559 247.678C76.8648 248.134 75.9675 248.375 75.0541 248.375C74.1407 248.375 73.2435 248.134 72.4524 247.678Z" fill="#10069F"/>
            <path opacity="0.2" d="M37.6145 269.564L22.8741 261.054C20.837 259.878 19.1453 258.186 17.9692 256.149C16.793 254.112 16.1738 251.801 16.1738 249.449V206.764C16.1738 205.851 16.4143 204.953 16.871 204.162C17.3277 203.371 17.9846 202.714 18.7756 202.258C19.5666 201.801 20.4639 201.561 21.3773 201.561C22.2907 201.561 23.188 201.801 23.979 202.258L38.7198 210.768C40.7569 211.944 42.4485 213.636 43.6246 215.673C44.8007 217.71 45.42 220.021 45.42 222.373V265.058C45.42 265.971 45.1795 266.869 44.7228 267.66C44.2661 268.451 43.6092 269.108 42.8181 269.564C42.0271 270.021 41.1297 270.261 40.2163 270.261C39.3029 270.261 38.4056 270.021 37.6145 269.564Z" fill="#10069F"/>
            <path d="M184.78 238.562C184.78 240.102 183.113 241.064 181.78 240.295L156.531 225.72C155.913 225.363 155.531 224.703 155.531 223.988V194.838C155.531 193.298 157.198 192.336 158.531 193.106L183.78 207.68C184.398 208.037 184.78 208.697 184.78 209.412V238.562Z" fill="#10069F"/>
            <path d="M184.78 288.992C184.78 290.531 183.113 291.494 181.78 290.724L156.531 276.147C155.912 275.79 155.531 275.13 155.531 274.415V245.265C155.531 243.725 157.198 242.763 158.531 243.533L183.78 258.109C184.399 258.467 184.78 259.127 184.78 259.841V288.992Z" fill="#10069F"/>
            <path d="M184.78 339.422C184.78 340.962 183.113 341.924 181.78 341.154L156.531 326.578C155.912 326.221 155.531 325.56 155.531 324.846V295.695C155.531 294.156 157.198 293.194 158.531 293.963L183.78 308.54C184.399 308.897 184.78 309.558 184.78 310.272V339.422Z" fill="#10069F"/>
            <path d="M184.78 389.851C184.78 391.39 183.113 392.352 181.78 391.583L156.531 377.008C155.913 376.651 155.531 375.991 155.531 375.276V346.126C155.531 344.586 157.198 343.624 158.531 344.394L183.78 358.968C184.398 359.325 184.78 359.985 184.78 360.7V389.851Z" fill="#10069F"/>
            <path d="M233.43 22.6149C233.43 24.1544 231.763 25.1167 230.43 24.347L224.625 20.9961C224.006 20.6388 223.625 19.9786 223.625 19.264V10.375C223.625 8.83547 225.292 7.87321 226.625 8.64292L232.429 11.9938C233.048 12.351 233.43 13.0113 233.43 13.7259V22.6149Z" fill="#0B37DE"/>
            <path d="M233.43 448.107C233.43 449.647 231.763 450.609 230.43 449.839L224.625 446.488C224.006 446.131 223.625 445.471 223.625 444.756V435.867C223.625 434.328 225.292 433.365 226.625 434.135L232.429 437.486C233.048 437.843 233.43 438.504 233.43 439.218V448.107Z" fill="#0B37DE"/>
            <path d="M233.43 478.276C233.43 479.816 231.763 480.778 230.43 480.008L224.625 476.657C224.006 476.3 223.625 475.64 223.625 474.925V466.036C223.625 464.497 225.292 463.534 226.625 464.304L232.429 467.655C233.048 468.012 233.43 468.672 233.43 469.387V478.276Z" fill="#0B37DE"/>
            <path d="M233.43 508.441C233.43 509.981 231.763 510.943 230.43 510.173L224.625 506.822C224.006 506.465 223.625 505.805 223.625 505.09V496.201C223.625 494.662 225.292 493.699 226.625 494.469L232.429 497.82C233.048 498.177 233.43 498.837 233.43 499.552V508.441Z" fill="#0B37DE"/>
            <path d="M233.43 538.611C233.43 540.15 231.763 541.113 230.43 540.343L224.625 536.992C224.006 536.635 223.625 535.975 223.625 535.26V526.371C223.625 524.832 225.292 523.869 226.625 524.639L232.429 527.99C233.048 528.347 233.43 529.007 233.43 529.722V538.611Z" fill="#0B37DE"/>
            <path d="M233.43 568.778C233.43 570.317 231.763 571.28 230.43 570.51L224.625 567.161C224.006 566.804 223.625 566.143 223.625 565.429V556.539C223.625 555 225.291 554.038 226.625 554.807L232.429 558.156C233.048 558.513 233.43 559.174 233.43 559.888V568.778Z" fill="#0B37DE"/>
            <path d="M233.43 140.13C233.43 141.67 231.763 142.632 230.43 141.863L224.625 138.513C224.006 138.156 223.625 137.496 223.625 136.781V40.5401C223.625 39.0005 225.292 38.0383 226.625 38.808L232.429 42.1588C233.048 42.5161 233.43 43.1764 233.43 43.8909V140.13Z" fill="#0B37DE"/>
            <path d="M233.43 216.223C233.43 217.762 231.763 218.725 230.43 217.955L224.625 214.604C224.006 214.247 223.625 213.587 223.625 212.872V158.057C223.625 156.517 225.292 155.555 226.625 156.325L232.429 159.675C233.048 160.033 233.43 160.693 233.43 161.408V216.223Z" fill="#0B37DE"/>
            <path d="M233.43 266.654C233.43 268.193 231.763 269.155 230.43 268.386L224.625 265.035C224.006 264.678 223.625 264.017 223.625 263.303V234.152C223.625 232.613 225.292 231.651 226.625 232.42L232.429 235.771C233.048 236.128 233.43 236.789 233.43 237.503V266.654Z" fill="#0B37DE"/>
            <path d="M233.43 317.08C233.43 318.62 231.763 319.582 230.43 318.813L224.625 315.462C224.006 315.104 223.625 314.444 223.625 313.73V284.579C223.625 283.04 225.292 282.077 226.625 282.847L232.429 286.198C233.048 286.555 233.43 287.216 233.43 287.93V317.08Z" fill="#0B37DE"/>
            <path d="M233.43 367.511C233.43 369.051 231.763 370.013 230.43 369.243L224.625 365.892C224.006 365.535 223.625 364.875 223.625 364.16V335.01C223.625 333.47 225.292 332.508 226.625 333.278L232.429 336.629C233.048 336.986 233.43 337.646 233.43 338.361V367.511Z" fill="#0B37DE"/>
            <path d="M233.43 417.942C233.43 419.481 231.763 420.443 230.43 419.674L224.625 416.323C224.006 415.966 223.625 415.305 223.625 414.591V385.44C223.625 383.9 225.291 382.938 226.625 383.707L232.429 387.056C233.048 387.414 233.43 388.074 233.43 388.789V417.942Z" fill="#0B37DE"/>
            <path d="M198.664 521.863C198.664 520.323 200.331 519.361 201.664 520.131L208.745 524.219C209.364 524.576 209.745 525.236 209.745 525.951V555.101C209.745 556.641 208.078 557.603 206.745 556.833L199.664 552.745C199.045 552.388 198.664 551.727 198.664 551.013V521.863Z" fill="#0F30BE"/>
            <path d="M198.664 491.698C198.664 490.158 200.331 489.196 201.664 489.966L208.745 494.054C209.364 494.411 209.745 495.071 209.745 495.786V504.673C209.745 506.212 208.078 507.174 206.745 506.405L199.664 502.319C199.045 501.961 198.664 501.301 198.664 500.586V491.698Z" fill="#0F30BE"/>
            <path d="M198.664 461.529C198.664 459.99 200.331 459.028 201.664 459.797L208.745 463.886C209.364 464.243 209.745 464.903 209.745 465.618V474.506C209.745 476.046 208.078 477.008 206.745 476.238L199.664 472.15C199.045 471.793 198.664 471.133 198.664 470.418V461.529Z" fill="#0F30BE"/>
            <path d="M198.664 36.0359C198.664 34.4964 200.33 33.5341 201.664 34.3036L208.744 38.39C209.363 38.7473 209.745 39.4076 209.745 40.1223V49.0115C209.745 50.551 208.078 51.5133 206.745 50.7438L199.664 46.6573C199.045 46.3001 198.664 45.6398 198.664 44.9251V36.0359Z" fill="#0F30BE"/>
            <path d="M198.664 5.8683C198.664 4.32868 200.331 3.36643 201.664 4.13627L208.745 8.22451C209.364 8.58178 209.745 9.24202 209.745 9.95654V18.8453C209.745 20.3849 208.078 21.3472 206.745 20.5773L199.664 16.4891C199.045 16.1318 198.664 15.4716 198.664 14.7571V5.8683Z" fill="#0F30BE"/>
            <path d="M198.664 344.012C198.664 342.472 200.331 341.51 201.664 342.28L208.745 346.368C209.364 346.725 209.745 347.386 209.745 348.1V444.339C209.745 445.879 208.078 446.841 206.745 446.071L199.664 441.985C199.045 441.628 198.664 440.967 198.664 440.253V344.012Z" fill="#0F30BE"/>
            <path d="M198.664 267.917C198.664 266.378 200.331 265.415 201.664 266.185L208.745 270.274C209.364 270.631 209.745 271.291 209.745 272.006V326.821C209.745 328.36 208.078 329.323 206.745 328.553L199.664 324.465C199.045 324.107 198.664 323.447 198.664 322.733V267.917Z" fill="#0F30BE"/>
            <path d="M198.664 217.49C198.664 215.95 200.331 214.988 201.664 215.758L208.745 219.846C209.364 220.203 209.745 220.863 209.745 221.578V250.728C209.745 252.268 208.078 253.23 206.745 252.46L199.664 248.372C199.045 248.015 198.664 247.354 198.664 246.64V217.49Z" fill="#0F30BE"/>
            <path d="M198.664 167.062C198.664 165.523 200.33 164.56 201.664 165.33L208.744 169.416C209.363 169.773 209.745 170.434 209.745 171.148V200.299C209.745 201.839 208.078 202.801 206.745 202.031L199.664 197.945C199.045 197.588 198.664 196.927 198.664 196.213V167.062Z" fill="#0F30BE"/>
            <path d="M198.664 116.632C198.664 115.092 200.331 114.13 201.664 114.9L208.745 118.988C209.364 119.346 209.745 120.006 209.745 120.72V149.871C209.745 151.41 208.078 152.372 206.745 151.603L199.664 147.514C199.045 147.157 198.664 146.497 198.664 145.782V116.632Z" fill="#0F30BE"/>
            <path d="M198.664 66.2015C198.664 64.6619 200.331 63.6996 201.664 64.4695L208.745 68.5577C209.364 68.915 209.745 69.5752 209.745 70.2897V99.4399C209.745 100.98 208.078 101.942 206.745 101.172L199.664 97.0837C199.045 96.7264 198.664 96.0662 198.664 95.3517V66.2015Z" fill="#0F30BE"/>
        </g>
        <path d="M36.5009 239.203C36.5009 242.84 33.9472 244.315 30.7973 242.496C29.137 241.414 27.7553 239.955 26.7643 238.239C25.7734 236.523 25.201 234.597 25.0938 232.618C25.0938 228.98 27.6474 227.506 30.7973 229.325C32.4576 230.407 33.8393 231.866 34.8303 233.582C35.8213 235.299 36.3936 237.224 36.5009 239.203Z" fill="#42FFFF" fill-opacity="0.2"/>
        <path d="M71.3424 217.317C71.3424 220.954 68.789 222.428 65.6388 220.61C63.9786 219.527 62.5969 218.069 61.606 216.352C60.615 214.636 60.0428 212.71 59.9355 210.731C59.9355 207.094 62.4889 205.62 65.6388 207.438C67.2991 208.521 68.6809 209.979 69.6719 211.695C70.6629 213.412 71.2352 215.338 71.3424 217.317Z" fill="#42FFFF" fill-opacity="0.2"/>
        <path d="M106.181 197.018C106.181 200.655 103.627 202.129 100.477 200.311C98.8167 199.228 97.435 197.77 96.444 196.053C95.453 194.337 94.8807 192.411 94.7734 190.432C94.7734 186.795 97.3271 185.321 100.477 187.139C102.137 188.222 103.519 189.68 104.51 191.397C105.501 193.113 106.073 195.039 106.181 197.018Z" fill="#42FFFF" fill-opacity="0.2"/>
        <path d="M141.018 176.817C141.018 180.454 138.465 181.928 135.315 180.109C133.655 179.027 132.273 177.569 131.282 175.852C130.291 174.136 129.719 172.21 129.611 170.231C129.611 166.594 132.165 165.12 135.315 166.938C136.975 168.021 138.357 169.479 139.348 171.196C140.339 172.912 140.911 174.838 141.018 176.817Z" fill="#42FFFF" fill-opacity="0.2"/>
    </g>
    <defs>
        <linearGradient id="paint0_linear_1_9893" x1="177.59" y1="519.259" x2="497.897" y2="704.189" gradientUnits="userSpaceOnUse">
            <stop stop-color="#42FFFF"/>
            <stop offset="0.17517" stop-color="#21529E"/>
            <stop offset="0.22043" stop-color="#182484"/>
            <stop offset="0.24033" stop-color="#1A2D89"/>
            <stop offset="0.27281" stop-color="#1E4597"/>
            <stop offset="0.31383" stop-color="#266DAD"/>
            <stop offset="0.36179" stop-color="#31A4CC"/>
            <stop offset="0.41498" stop-color="#3EEAF3"/>
            <stop offset="0.43011" stop-color="#42FFFF"/>
            <stop offset="0.883" stop-color="#21529E"/>
            <stop offset="1" stop-color="#182484"/>
        </linearGradient>
        <linearGradient id="paint1_linear_1_9893" x1="701.836" y1="748.952" x2="60.8097" y2="353.864" gradientUnits="userSpaceOnUse">
            <stop stop-color="#0936DE"/>
            <stop offset="1" stop-color="#28B1FE"/>
        </linearGradient>
        <linearGradient id="paint2_linear_1_9893" x1="37.2031" y1="520.81" x2="492.719" y2="520.81" gradientUnits="userSpaceOnUse">
            <stop stop-color="#182484"/>
            <stop offset="0.04083" stop-color="#1A2D89"/>
            <stop offset="0.10745" stop-color="#1E4597"/>
            <stop offset="0.19159" stop-color="#266DAD"/>
            <stop offset="0.28997" stop-color="#31A4CC"/>
            <stop offset="0.39908" stop-color="#3EEAF3"/>
            <stop offset="0.43011" stop-color="#42FFFF"/>
            <stop offset="0.883" stop-color="#21529E"/>
            <stop offset="1" stop-color="#182484"/>
        </linearGradient>
        <radialGradient id="paint3_radial_1_9893" cx="0" cy="0" r="1" gradientUnits="userSpaceOnUse" gradientTransform="translate(264.967 586.411) scale(119.414 119.414)">
            <stop stop-color="#42FFFF"/>
            <stop offset="0.13688" stop-color="#43F9FF"/>
            <stop offset="0.3284" stop-color="#46E6FF"/>
            <stop offset="0.55212" stop-color="#4AC8FF"/>
            <stop offset="0.79821" stop-color="#519FFF"/>
            <stop offset="1" stop-color="#5778FF"/>
        </radialGradient>
        <linearGradient id="paint4_linear_1_9893" x1="283.749" y1="656.983" x2="466.472" y2="340.507" gradientUnits="userSpaceOnUse">
            <stop stop-color="#5778FF"/>
            <stop offset="0.00966" stop-color="#567CFF"/>
            <stop offset="0.1262" stop-color="#4FABFF"/>
            <stop offset="0.2375" stop-color="#49CFFF"/>
            <stop offset="0.34082" stop-color="#45EAFF"/>
            <stop offset="0.43317" stop-color="#43F9FF"/>
            <stop offset="0.50538" stop-color="#42FFFF"/>
            <stop offset="0.57189" stop-color="#43F7FF"/>
            <stop offset="0.67268" stop-color="#46E3FF"/>
            <stop offset="0.79517" stop-color="#4CC0FF"/>
            <stop offset="0.93355" stop-color="#5391FF"/>
            <stop offset="1" stop-color="#5778FF"/>
        </linearGradient>
        <linearGradient id="paint5_linear_1_9893" x1="320.774" y1="678.361" x2="476.072" y2="409.384" gradientUnits="userSpaceOnUse">
            <stop stop-color="#5778FF"/>
            <stop offset="0.00966" stop-color="#567CFF"/>
            <stop offset="0.1262" stop-color="#4FABFF"/>
            <stop offset="0.2375" stop-color="#49CFFF"/>
            <stop offset="0.34082" stop-color="#45EAFF"/>
            <stop offset="0.43317" stop-color="#43F9FF"/>
            <stop offset="0.50538" stop-color="#42FFFF"/>
            <stop offset="0.57189" stop-color="#43F7FF"/>
            <stop offset="0.67268" stop-color="#46E3FF"/>
            <stop offset="0.79517" stop-color="#4CC0FF"/>
            <stop offset="0.93355" stop-color="#5391FF"/>
            <stop offset="1" stop-color="#5778FF"/>
        </linearGradient>
        <linearGradient id="paint6_linear_1_9893" x1="357.798" y1="569.486" x2="422.628" y2="457.201" gradientUnits="userSpaceOnUse">
            <stop stop-color="#5778FF"/>
            <stop offset="0.00966" stop-color="#567CFF"/>
            <stop offset="0.1262" stop-color="#4FABFF"/>
            <stop offset="0.2375" stop-color="#49CFFF"/>
            <stop offset="0.34082" stop-color="#45EAFF"/>
            <stop offset="0.43317" stop-color="#43F9FF"/>
            <stop offset="0.50538" stop-color="#42FFFF"/>
            <stop offset="0.57189" stop-color="#43F7FF"/>
            <stop offset="0.67268" stop-color="#46E3FF"/>
            <stop offset="0.79517" stop-color="#4CC0FF"/>
            <stop offset="0.93355" stop-color="#5391FF"/>
            <stop offset="1" stop-color="#5778FF"/>
        </linearGradient>
        <linearGradient id="paint7_linear_1_9893" x1="394.496" y1="547.214" x2="425.903" y2="492.816" gradientUnits="userSpaceOnUse">
            <stop stop-color="#5778FF"/>
            <stop offset="0.00966" stop-color="#567CFF"/>
            <stop offset="0.1262" stop-color="#4FABFF"/>
            <stop offset="0.2375" stop-color="#49CFFF"/>
            <stop offset="0.34082" stop-color="#45EAFF"/>
            <stop offset="0.43317" stop-color="#43F9FF"/>
            <stop offset="0.50538" stop-color="#42FFFF"/>
            <stop offset="0.57189" stop-color="#43F7FF"/>
            <stop offset="0.67268" stop-color="#46E3FF"/>
            <stop offset="0.79517" stop-color="#4CC0FF"/>
            <stop offset="0.93355" stop-color="#5391FF"/>
            <stop offset="1" stop-color="#5778FF"/>
        </linearGradient>
    </defs>
</svg>
