<svg width="57" height="65" viewBox="0 0 57 65" fill="none" xmlns="http://www.w3.org/2000/svg">
<g filter="url(#filter0_d_441_1443)">
<path fill-rule="evenodd" clip-rule="evenodd" d="M28.4976 24.6836L46.7894 31.7227L51.5464 35.0655C52.923 36.0328 52.6894 38.1389 51.1342 38.7811L47.0137 40.4825V51.921C47.0137 52.7995 46.4749 53.5881 45.6566 53.9074L28.4937 60.6051L11.7117 53.9109C10.9011 53.5876 10.3694 52.803 10.3694 51.9303V40.5795L5.79251 38.7661C4.21268 38.1401 3.96401 36.0079 5.35738 35.0352L10.5959 31.3781L28.4976 24.6836ZM11.2223 40.9175V51.9303C11.2223 52.4539 11.5413 52.9247 12.0277 53.1187L28.0689 59.5174V39.771L22.2107 44.1746C21.6171 44.6207 20.8343 44.726 20.1439 44.4525L11.2223 40.9175ZM28.9219 39.7331V59.5224L45.3465 53.1128C45.8375 52.9212 46.1608 52.4481 46.1608 51.921V40.8347L37.4127 44.447C36.7421 44.7239 35.9767 44.6408 35.3811 44.2265L28.9219 39.7331ZM29.4049 39.0301L35.8682 43.5263C36.2255 43.7749 36.6848 43.8248 37.0871 43.6586L50.8087 37.9927C51.7418 37.6074 51.882 36.3438 51.056 35.7633L46.5265 32.5805L29.4049 39.0301ZM45.3887 32.0976L28.9219 38.3006V25.7608L45.3887 32.0976ZM28.0689 25.7545V38.2845L11.9718 31.7742L28.0689 25.7545ZM10.8503 32.2407L5.84563 35.7346C5.0096 36.3182 5.15881 37.5975 6.10671 37.9731L20.4581 43.6595C20.8723 43.8236 21.3421 43.7605 21.6982 43.4928L27.636 39.0294L10.8503 32.2407Z" fill="white" stroke="#0084FF" stroke-width="0.2"/>
<path d="M26.2597 5.44199C26.8584 3.59937 29.4652 3.59937 30.0639 5.44199L31.064 8.51986C31.3317 9.34391 32.0997 9.90183 32.9661 9.90183H36.2024C38.1398 9.90183 38.9454 12.3811 37.3779 13.5199L34.7598 15.4221C34.0588 15.9314 33.7655 16.8341 34.0332 17.6582L35.0333 20.736C35.632 22.5787 33.523 24.1109 31.9556 22.9721L29.3374 21.0699C28.6364 20.5606 27.6872 20.5606 26.9863 21.0699L24.3681 22.9721C22.8006 24.1109 20.6917 22.5786 21.2904 20.736L22.2904 17.6582C22.5582 16.8341 22.2649 15.9314 21.5639 15.4221L18.9457 13.5199C17.3783 12.3811 18.1838 9.90183 20.1213 9.90183H23.3575C24.224 9.90183 24.9919 9.34391 25.2596 8.51986L26.2597 5.44199Z" fill="url(#paint0_linear_441_1443)"/>
<path d="M46.8288 13.6028C47.1282 12.6815 48.4316 12.6815 48.7309 13.6028L48.9916 14.4051C49.1255 14.8171 49.5094 15.096 49.9426 15.096H50.7862C51.7549 15.096 52.1577 16.3357 51.3739 16.9051L50.6915 17.4009C50.341 17.6555 50.1944 18.1069 50.3283 18.5189L50.5889 19.3211C50.8883 20.2424 49.8338 21.0086 49.0501 20.4392L48.3677 19.9433C48.0172 19.6887 47.5426 19.6887 47.1921 19.9433L46.5097 20.4392C45.726 21.0086 44.6715 20.2424 44.9708 19.3211L45.2315 18.5189C45.3654 18.1069 45.2187 17.6555 44.8682 17.4009L44.1858 16.9051C43.4021 16.3357 43.8049 15.096 44.7736 15.096H45.6171C46.0503 15.096 46.4343 14.8171 46.5682 14.4051L46.8288 13.6028Z" fill="url(#paint1_linear_441_1443)"/>
<path d="M9.29894 17.8685C9.5983 16.9471 10.9017 16.9471 11.2011 17.8685L11.6532 19.26C11.7871 19.6721 12.171 19.951 12.6043 19.951H14.0675C15.0362 19.951 15.439 21.1906 14.6553 21.76L13.4715 22.6201C13.121 22.8747 12.9744 23.3261 13.1082 23.7381L13.5604 25.1297C13.8597 26.051 12.8053 26.8172 12.0215 26.2478L10.8378 25.3877C10.4873 25.1331 10.0127 25.1331 9.66221 25.3877L8.47845 26.2478C7.69474 26.8172 6.64026 26.051 6.93961 25.1297L7.39177 23.7381C7.52564 23.3261 7.37899 22.8747 7.0285 22.6201L5.84474 21.76C5.06102 21.1906 5.4638 19.951 6.43252 19.951H7.89573C8.32896 19.951 8.71291 19.6721 8.84679 19.26L9.29894 17.8685Z" fill="url(#paint2_linear_441_1443)"/>
</g>
<defs>
<filter id="filter0_d_441_1443" x="0.345703" y="0.0605469" width="56.207" height="64.6523" filterUnits="userSpaceOnUse" color-interpolation-filters="sRGB">
<feFlood flood-opacity="0" result="BackgroundImageFix"/>
<feColorMatrix in="SourceAlpha" type="matrix" values="0 0 0 0 0 0 0 0 0 0 0 0 0 0 0 0 0 0 127 0" result="hardAlpha"/>
<feOffset/>
<feGaussianBlur stdDeviation="2"/>
<feComposite in2="hardAlpha" operator="out"/>
<feColorMatrix type="matrix" values="0 0 0 0 0.164706 0 0 0 0 0.964706 0 0 0 0 1 0 0 0 0.15 0"/>
<feBlend mode="normal" in2="BackgroundImageFix" result="effect1_dropShadow_441_1443"/>
<feBlend mode="normal" in="SourceGraphic" in2="effect1_dropShadow_441_1443" result="shape"/>
</filter>
<linearGradient id="paint0_linear_441_1443" x1="19.448" y1="-7.26787" x2="37.1551" y2="35.7455" gradientUnits="userSpaceOnUse">
<stop stop-color="white"/>
<stop offset="1" stop-color="#00FCFF"/>
</linearGradient>
<linearGradient id="paint1_linear_441_1443" x1="44.0454" y1="7.7376" x2="51.6341" y2="26.1719" gradientUnits="userSpaceOnUse">
<stop stop-color="white"/>
<stop offset="1" stop-color="#00FCFF"/>
</linearGradient>
<linearGradient id="paint2_linear_441_1443" x1="6.01757" y1="11.6115" x2="14.6182" y2="32.5037" gradientUnits="userSpaceOnUse">
<stop stop-color="white"/>
<stop offset="1" stop-color="#00FCFF"/>
</linearGradient>
</defs>
</svg>
