<svg width="114" height="104" viewBox="0 0 114 104" fill="none" xmlns="http://www.w3.org/2000/svg">
<g filter="url(#filter0_d_609_12116)">
<path fill-rule="evenodd" clip-rule="evenodd" d="M25.0681 5.02202C26.5882 4.90083 28.1171 5.28294 29.4079 6.09204C30.3904 6.70787 31.2192 7.56661 31.7992 8.58178C32.4153 9.6602 32.7396 10.8833 32.7396 12.1284V12.7101C32.7396 13.2551 32.692 13.7991 32.5973 14.3357L30.5743 25.8042L31.9672 24.4391C32.3592 24.055 32.8127 23.7407 33.3085 23.5096C33.9439 23.2134 34.6353 23.0601 35.335 23.0601H35.5344C36.4641 23.0601 37.3774 23.3078 38.182 23.7782C38.981 24.2454 39.6449 24.9158 40.1075 25.7227L40.1257 25.7545C40.5796 26.5462 40.8186 27.4449 40.8186 28.3598C40.8186 29.4117 40.5027 30.4388 39.9126 31.3056L39.796 31.4769C39.5542 31.8321 39.2743 32.1594 38.9615 32.4527L36.4404 34.8168L28.1822 42.2524V61.4364C28.1822 61.6202 28.2579 61.7956 28.3912 61.9206C28.6008 62.1171 28.9125 62.1533 29.1609 62.01L29.3653 61.8921C29.4193 61.8609 29.4702 61.8246 29.5173 61.7837L37.2222 55.0903C37.819 54.5718 38.5292 53.9845 39.3208 53.5648C40.1252 53.1383 41.0753 52.8513 42.1327 53.0137C42.9057 53.1324 43.7486 53.4248 44.5953 53.9824C44.8397 54.1434 45.0636 54.3191 45.2684 54.5059C46.7513 55.8595 46.9501 57.6682 46.6699 59.3305C46.3944 60.9656 45.6329 62.6408 44.9559 64.0082C44.6102 64.7065 43.2551 67.8551 41.9116 70.9902C41.7252 71.4251 41.539 71.8599 41.3559 72.2874C40.2419 74.8886 39.2445 77.2174 39.052 77.6063C38.7149 78.2871 35.3177 84.2959 33.514 87.476L35.2274 97.2811C35.3841 98.1778 34.7011 99 33.7994 99H11.6573C10.9374 99 10.3265 98.4666 10.2225 97.7471L8.20088 83.7624L5.11178 58.0714C4.80623 55.5302 5.12943 52.9522 6.05244 50.5681L10.1201 40.0614L11.7598 35.3009L14.2378 26.2291L18.3848 11.5713L18.9881 9.57753C19.4052 8.19893 20.2705 7.00268 21.4441 6.18215C22.3653 5.5381 23.4389 5.15191 24.5559 5.06286L25.0681 5.02202ZM28.2157 39.4194L35.0462 33.2694L37.5519 30.9197C37.7532 30.7309 37.9333 30.5203 38.0889 30.2917L38.2055 30.1204C38.5582 29.6024 38.747 28.9885 38.747 28.3598C38.747 27.813 38.6042 27.2759 38.3329 26.8026L38.3147 26.7709C38.0335 26.2803 37.6298 25.8727 37.1441 25.5887C36.6549 25.3027 36.0997 25.1521 35.5344 25.1521H35.335C34.935 25.1521 34.5398 25.2397 34.1766 25.409C33.8932 25.5411 33.634 25.7208 33.4099 25.9403L29.9526 29.3287L28.3331 38.5101C28.2799 38.8114 28.2408 39.1148 28.2157 39.4194ZM28.3155 7.86949C27.3952 7.29266 26.3054 7.0219 25.2312 7.10754L24.7189 7.14839C23.9667 7.20836 23.2436 7.46844 22.6232 7.90219C21.8328 8.45478 21.2501 9.26042 20.9692 10.1889L20.3714 12.1644L16.231 26.7993L13.7386 35.9234L12.0638 40.7862L7.98176 51.3299C7.18348 53.3918 6.90396 55.6214 7.16822 57.8192L10.2543 83.4852L12.1947 96.908H33.0587L31.4349 87.6158C31.3771 87.2851 31.4314 86.9388 31.6034 86.6355C33.404 83.4618 36.8896 77.2959 37.1992 76.6707C37.3634 76.339 38.3362 74.0679 39.4662 71.4297C39.6446 71.0133 39.8268 70.5878 40.0104 70.1594C41.334 67.0708 42.7237 63.8387 43.103 63.0726C43.7771 61.7111 44.4086 60.2799 44.6278 58.9795C44.8424 57.7063 44.6378 56.7502 43.8793 56.058C43.7532 55.9429 43.6151 55.8345 43.4637 55.7347C42.8723 55.3452 42.3105 55.157 41.8213 55.0819C41.3347 55.0072 40.8372 55.1236 40.2838 55.417C39.7177 55.7172 39.1602 56.1662 38.5731 56.6762L30.8682 63.3696C30.7209 63.4977 30.5617 63.6111 30.393 63.7085L30.1886 63.8265C29.1539 64.4235 27.855 64.2725 26.9817 63.4536C26.4263 62.9328 26.1106 62.2019 26.1106 61.4364V40.2345C26.1106 39.5334 26.1719 38.8336 26.2936 38.1433L30.5579 13.9689C30.6312 13.5534 30.668 13.1321 30.668 12.7101V12.1284C30.668 11.2503 30.4393 10.3877 30.0048 9.6272C29.5976 8.9144 29.0114 8.30571 28.3155 7.86949Z" fill="white" stroke="#0084FF" stroke-width="0.2"/>
<path fill-rule="evenodd" clip-rule="evenodd" d="M89.3424 5.02202C87.8248 4.90083 86.2983 5.28294 85.0096 6.09204C84.0287 6.70787 83.2012 7.56661 82.6222 8.58178C82.0071 9.6602 81.6833 10.8833 81.6833 12.1284V12.7101C81.6833 13.2551 81.7308 13.7991 81.8253 14.3357L83.8451 25.8042L82.4544 24.4391C82.0631 24.055 81.6103 23.7407 81.1152 23.5096C80.4809 23.2134 79.7906 23.0601 79.092 23.0601H78.8929C77.9647 23.0601 77.0529 23.3078 76.2496 23.7782C75.4518 24.2454 74.789 24.9158 74.3272 25.7227L74.309 25.7545C73.8558 26.5462 73.6172 27.4449 73.6172 28.3598C73.6172 29.4117 73.9326 30.4388 74.5218 31.3056L74.6382 31.4769C74.8796 31.8321 75.159 32.1594 75.4713 32.4527L77.9884 34.8168L86.2334 42.2524V61.4364C86.2334 61.6202 86.1578 61.7956 86.0247 61.9206C85.8154 62.1171 85.5042 62.1533 85.2563 62.01L85.0522 61.8921C84.9983 61.8609 84.9475 61.8246 84.9004 61.7837L77.2078 55.0903C76.6119 54.5718 75.9029 53.9845 75.1126 53.5648C74.3095 53.1383 73.3609 52.8513 72.3052 53.0137C71.5335 53.1324 70.6919 53.4248 69.8465 53.9824C69.6025 54.1434 69.3789 54.3191 69.1745 54.5059C67.694 55.8595 67.4955 57.6682 67.7752 59.3305C68.0503 60.9656 68.8106 62.6408 69.4865 64.0082C69.8317 64.7065 71.1846 67.8551 72.526 70.9902C72.712 71.4251 72.8979 71.8599 73.0807 72.2874C74.1929 74.8886 75.1887 77.2174 75.381 77.6063C75.7175 78.2871 79.1093 84.2959 80.9101 87.476L79.1994 97.2811C79.043 98.1778 79.7249 99 80.6251 99H102.732C103.451 99 104.061 98.4666 104.164 97.7471L106.183 83.7624L109.355 57.339C109.602 55.2786 109.341 53.1883 108.593 51.2552L104.267 40.0614L102.63 35.3009L100.155 26.2291L96.0151 11.5713L95.4128 9.57753C94.9964 8.19893 94.1324 7.00268 92.9607 6.18215C92.041 5.5381 90.9691 5.15191 89.8539 5.06286L89.3424 5.02202ZM86.1999 39.4194L79.3804 33.2694L76.8786 30.9197C76.6777 30.7309 76.4978 30.5203 76.3425 30.2917L76.2261 30.1204C75.8739 29.6024 75.6854 28.9885 75.6854 28.3598C75.6854 27.813 75.8281 27.2759 76.0989 26.8026L76.1171 26.7709C76.3979 26.2803 76.8008 25.8727 77.2858 25.5887C77.7742 25.3027 78.3286 25.1521 78.8929 25.1521H79.092C79.4914 25.1521 79.8859 25.2397 80.2485 25.409C80.5315 25.5411 80.7903 25.7208 81.014 25.9403L84.4658 29.3287L86.0827 38.5101C86.1358 38.8114 86.1749 39.1148 86.1999 39.4194ZM86.1003 7.86949C87.0191 7.29266 88.1072 7.0219 89.1797 7.10754L89.6911 7.14839C90.4421 7.20836 91.1641 7.46844 91.7835 7.90219C92.5726 8.45478 93.1544 9.26042 93.4349 10.1889L94.0316 12.1644L98.1655 26.7993L100.654 35.9234L102.326 40.7862L106.667 52.017C107.29 53.6279 107.508 55.3698 107.302 57.0868L104.133 83.4852L102.195 96.908H81.3647L82.9859 87.6158C83.0436 87.2851 82.9894 86.9388 82.8176 86.6355C81.0199 83.4618 77.5399 77.2959 77.2308 76.6707C77.0669 76.339 76.0956 74.0679 74.9674 71.4297C74.7893 71.0133 74.6074 70.5878 74.4241 70.1594C73.1026 67.0708 71.7151 63.8387 71.3364 63.0726C70.6634 61.7111 70.0329 60.2799 69.8141 58.9795C69.5999 57.7063 69.8041 56.7502 70.5613 56.058C70.6872 55.9429 70.8251 55.8345 70.9764 55.7347C71.5668 55.3452 72.1276 55.157 72.6161 55.0819C73.1019 55.0072 73.5987 55.1236 74.1511 55.417C74.7163 55.7172 75.2729 56.1662 75.8591 56.6762L83.5516 63.3696C83.6987 63.4977 83.8576 63.6111 84.0261 63.7085L84.2302 63.8265C85.2633 64.4235 86.5601 64.2725 87.432 63.4536C87.9865 62.9328 88.3016 62.2019 88.3016 61.4364V40.2345C88.3016 39.5334 88.2405 38.8336 88.1189 38.1433L83.8615 13.9689C83.7883 13.5534 83.7515 13.1321 83.7515 12.7101V12.1284C83.7515 11.2503 83.9799 10.3877 84.4137 9.6272C84.8202 8.9144 85.4055 8.30571 86.1003 7.86949Z" fill="white" stroke="#0084FF" stroke-width="0.2"/>
<path d="M61.5636 30.5303C59.5309 30.5303 57.7512 31.3356 56.6419 32.6967C55.5325 31.3356 53.7528 30.5303 51.7201 30.5303C50.1021 30.532 48.5508 31.1249 47.4067 32.1789C46.2626 33.233 45.619 34.6621 45.6172 36.1527C45.6172 42.5007 55.8337 47.6389 56.2688 47.8511C56.3835 47.9079 56.5117 47.9377 56.6419 47.9377C56.7721 47.9377 56.9003 47.9079 57.0149 47.8511C57.45 47.6389 67.6666 42.5007 67.6666 36.1527C67.6647 34.6621 67.0212 33.233 65.877 32.1789C64.7329 31.1249 63.1817 30.532 61.5636 30.5303Z" fill="url(#paint0_linear_609_12116)"/>
</g>
<defs>
<filter id="filter0_d_609_12116" x="0.898438" y="0.900391" width="112.648" height="102.199" filterUnits="userSpaceOnUse" color-interpolation-filters="sRGB">
<feFlood flood-opacity="0" result="BackgroundImageFix"/>
<feColorMatrix in="SourceAlpha" type="matrix" values="0 0 0 0 0 0 0 0 0 0 0 0 0 0 0 0 0 0 127 0" result="hardAlpha"/>
<feOffset/>
<feGaussianBlur stdDeviation="2"/>
<feComposite in2="hardAlpha" operator="out"/>
<feColorMatrix type="matrix" values="0 0 0 0 0.164706 0 0 0 0 0.964706 0 0 0 0 1 0 0 0 0.2 0"/>
<feBlend mode="normal" in2="BackgroundImageFix" result="effect1_dropShadow_609_12116"/>
<feBlend mode="normal" in="SourceGraphic" in2="effect1_dropShadow_609_12116" result="shape"/>
</filter>
<linearGradient id="paint0_linear_609_12116" x1="49.7204" y1="32.8665" x2="62.9566" y2="54.996" gradientUnits="userSpaceOnUse">
<stop stop-color="white"/>
<stop offset="1" stop-color="#00FCFF"/>
</linearGradient>
</defs>
</svg>
