<svg width="33" height="33" viewBox="0 0 33 33" fill="none" xmlns="http://www.w3.org/2000/svg">
    <path d="M28.5441 16.1741C28.5441 16.373 28.4651 16.5637 28.3245 16.7044C28.1838 16.845 27.9931 16.9241 27.7941 16.9241H13.7941C13.5952 16.9241 13.4045 16.845 13.2638 16.7044C13.1232 16.5637 13.0441 16.373 13.0441 16.1741C13.0441 15.9751 13.1232 15.7844 13.2638 15.6437C13.4045 15.5031 13.5952 15.4241 13.7941 15.4241H27.7941C27.9931 15.4241 28.1838 15.5031 28.3245 15.6437C28.4651 15.7844 28.5441 15.9751 28.5441 16.1741ZM13.7941 8.92405H27.7941C27.9931 8.92405 28.1838 8.84504 28.3245 8.70438C28.4651 8.56373 28.5441 8.37297 28.5441 8.17405C28.5441 7.97514 28.4651 7.78438 28.3245 7.64372C28.1838 7.50307 27.9931 7.42405 27.7941 7.42405H13.7941C13.5952 7.42405 13.4045 7.50307 13.2638 7.64372C13.1232 7.78438 13.0441 7.97514 13.0441 8.17405C13.0441 8.37297 13.1232 8.56373 13.2638 8.70438C13.4045 8.84504 13.5952 8.92405 13.7941 8.92405ZM27.7941 23.4241H13.7941C13.5952 23.4241 13.4045 23.5031 13.2638 23.6437C13.1232 23.7844 13.0441 23.9751 13.0441 24.1741C13.0441 24.373 13.1232 24.5637 13.2638 24.7044C13.4045 24.845 13.5952 24.9241 13.7941 24.9241H27.7941C27.9931 24.9241 28.1838 24.845 28.3245 24.7044C28.4651 24.5637 28.5441 24.373 28.5441 24.1741C28.5441 23.9751 28.4651 23.7844 28.3245 23.6437C28.1838 23.5031 27.9931 23.4241 27.7941 23.4241ZM6.12915 6.8453L7.04415 6.3878V13.1741C7.04415 13.373 7.12316 13.5637 7.26382 13.7044C7.40447 13.845 7.59523 13.9241 7.79415 13.9241C7.99306 13.9241 8.18383 13.845 8.32448 13.7044C8.46513 13.5637 8.54415 13.373 8.54415 13.1741V5.17405C8.54419 5.04623 8.51155 4.92052 8.44935 4.80885C8.38715 4.69719 8.29744 4.60327 8.18874 4.53602C8.08003 4.46877 7.95595 4.43042 7.82826 4.4246C7.70057 4.41879 7.57351 4.44571 7.45915 4.5028L5.45915 5.5028C5.28112 5.59165 5.14568 5.74758 5.08262 5.93629C5.01956 6.125 5.03405 6.33103 5.1229 6.50905C5.21174 6.68708 5.36767 6.82252 5.55638 6.88558C5.74509 6.94864 5.95112 6.93415 6.12915 6.8453ZM9.79415 25.4241H7.29415L9.97915 21.8316C10.201 21.5464 10.363 21.2194 10.4555 20.8702C10.5481 20.521 10.5693 20.1567 10.5179 19.7991C10.4674 19.4361 10.344 19.0871 10.1552 18.7731C9.96635 18.459 9.716 18.1864 9.41915 17.9716C8.82258 17.5386 8.08176 17.3529 7.35148 17.4533C6.62121 17.5537 5.95799 17.9324 5.5004 18.5103C5.32668 18.7345 5.1884 18.9841 5.0904 19.2503C5.02227 19.4373 5.03121 19.6437 5.11525 19.8241C5.19929 20.0044 5.35154 20.144 5.53852 20.2122C5.7255 20.2803 5.93188 20.2714 6.11227 20.1873C6.29266 20.1033 6.43227 19.951 6.5004 19.7641C6.54438 19.6439 6.60679 19.5313 6.6854 19.4303C6.90175 19.1585 7.2147 18.9808 7.55893 18.9342C7.90317 18.8876 8.2521 18.9758 8.5329 19.1803C8.66742 19.2774 8.78102 19.4006 8.86692 19.5426C8.95282 19.6845 9.00927 19.8423 9.0329 20.0066C9.0546 20.1673 9.04364 20.3307 9.00069 20.487C8.95773 20.6434 8.88365 20.7895 8.7829 20.9166L8.7754 20.9278L5.19415 25.7253C5.11094 25.8367 5.06035 25.9691 5.04803 26.1076C5.03571 26.2462 5.06215 26.3854 5.1244 26.5097C5.18665 26.6341 5.28225 26.7387 5.40052 26.8119C5.51879 26.885 5.65508 26.9239 5.79415 26.9241H9.79415C9.99306 26.9241 10.1838 26.845 10.3245 26.7044C10.4651 26.5637 10.5441 26.373 10.5441 26.1741C10.5441 25.9751 10.4651 25.7844 10.3245 25.6437C10.1838 25.5031 9.99306 25.4241 9.79415 25.4241Z" fill="white"/>
</svg>
