<svg width="341" height="340" viewBox="0 0 341 340" fill="none" xmlns="http://www.w3.org/2000/svg">
    <g clip-path="url(#clip0_670_15873)">
        <path d="M330.5 0H10.5C4.97715 0 0.5 4.47716 0.5 10V330C0.5 335.523 4.97716 340 10.5 340H330.5C336.023 340 340.5 335.523 340.5 330V10C340.5 4.47715 336.023 0 330.5 0Z" fill="#000B33"/>
        <g filter="url(#filter0_d_670_15873)">
            <path d="M11 10H22.0345V21.0345H11V10ZM22.0345 10H33.069V21.0345H22.0345V10ZM33.069 10H44.1034V21.0345H33.069V10ZM44.1034 10H55.1379V21.0345H44.1034V10ZM55.1379 10H66.1724V21.0345H55.1379V10ZM66.1724 10H77.2069V21.0345H66.1724V10ZM77.2069 10H88.2414V21.0345H77.2069V10ZM110.31 10H121.345V21.0345H110.31V10ZM132.379 10H143.414V21.0345H132.379V10ZM176.517 10H187.552V21.0345H176.517V10ZM198.586 10H209.621V21.0345H198.586V10ZM220.655 10H231.69V21.0345H220.655V10ZM231.69 10H242.724V21.0345H231.69V10ZM253.759 10H264.793V21.0345H253.759V10ZM264.793 10H275.828V21.0345H264.793V10ZM275.828 10H286.862V21.0345H275.828V10ZM286.862 10H297.897V21.0345H286.862V10ZM297.897 10H308.931V21.0345H297.897V10ZM308.931 10H319.966V21.0345H308.931V10ZM319.966 10H331V21.0345H319.966V10ZM11 21.0345H22.0345V32.069H11V21.0345ZM77.2069 21.0345H88.2414V32.069H77.2069V21.0345ZM99.2759 21.0345H110.31V32.069H99.2759V21.0345ZM110.31 21.0345H121.345V32.069H110.31V21.0345ZM121.345 21.0345H132.379V32.069H121.345V21.0345ZM176.517 21.0345H187.552V32.069H176.517V21.0345ZM198.586 21.0345H209.621V32.069H198.586V21.0345ZM220.655 21.0345H231.69V32.069H220.655V21.0345ZM253.759 21.0345H264.793V32.069H253.759V21.0345ZM319.966 21.0345H331V32.069H319.966V21.0345ZM11 32.069H22.0345V43.1034H11V32.069ZM33.069 32.069H44.1034V43.1034H33.069V32.069ZM44.1034 32.069H55.1379V43.1034H44.1034V32.069ZM55.1379 32.069H66.1724V43.1034H55.1379V32.069ZM77.2069 32.069H88.2414V43.1034H77.2069V32.069ZM110.31 32.069H121.345V43.1034H110.31V32.069ZM121.345 32.069H132.379V43.1034H121.345V32.069ZM154.448 32.069H165.483V43.1034H154.448V32.069ZM165.483 32.069H176.517V43.1034H165.483V32.069ZM176.517 32.069H187.552V43.1034H176.517V32.069ZM220.655 32.069H231.69V43.1034H220.655V32.069ZM253.759 32.069H264.793V43.1034H253.759V32.069ZM275.828 32.069H286.862V43.1034H275.828V32.069ZM286.862 32.069H297.897V43.1034H286.862V32.069ZM297.897 32.069H308.931V43.1034H297.897V32.069ZM319.966 32.069H331V43.1034H319.966V32.069ZM11 43.1034H22.0345V54.1379H11V43.1034ZM33.069 43.1034H44.1034V54.1379H33.069V43.1034ZM44.1034 43.1034H55.1379V54.1379H44.1034V43.1034ZM55.1379 43.1034H66.1724V54.1379H55.1379V43.1034ZM77.2069 43.1034H88.2414V54.1379H77.2069V43.1034ZM99.2759 43.1034H110.31V54.1379H99.2759V43.1034ZM110.31 43.1034H121.345V54.1379H110.31V43.1034ZM132.379 43.1034H143.414V54.1379H132.379V43.1034ZM143.414 43.1034H154.448V54.1379H143.414V43.1034ZM187.552 43.1034H198.586V54.1379H187.552V43.1034ZM198.586 43.1034H209.621V54.1379H198.586V43.1034ZM209.621 43.1034H220.655V54.1379H209.621V43.1034ZM253.759 43.1034H264.793V54.1379H253.759V43.1034ZM275.828 43.1034H286.862V54.1379H275.828V43.1034ZM286.862 43.1034H297.897V54.1379H286.862V43.1034ZM297.897 43.1034H308.931V54.1379H297.897V43.1034ZM319.966 43.1034H331V54.1379H319.966V43.1034ZM11 54.1379H22.0345V65.1724H11V54.1379ZM33.069 54.1379H44.1034V65.1724H33.069V54.1379ZM44.1034 54.1379H55.1379V65.1724H44.1034V54.1379ZM55.1379 54.1379H66.1724V65.1724H55.1379V54.1379ZM77.2069 54.1379H88.2414V65.1724H77.2069V54.1379ZM99.2759 54.1379H110.31V65.1724H99.2759V54.1379ZM154.448 54.1379H165.483V65.1724H154.448V54.1379ZM165.483 54.1379H176.517V65.1724H165.483V54.1379ZM176.517 54.1379H187.552V65.1724H176.517V54.1379ZM209.621 54.1379H220.655V65.1724H209.621V54.1379ZM220.655 54.1379H231.69V65.1724H220.655V54.1379ZM253.759 54.1379H264.793V65.1724H253.759V54.1379ZM275.828 54.1379H286.862V65.1724H275.828V54.1379ZM286.862 54.1379H297.897V65.1724H286.862V54.1379ZM297.897 54.1379H308.931V65.1724H297.897V54.1379ZM319.966 54.1379H331V65.1724H319.966V54.1379ZM11 65.1724H22.0345V76.2069H11V65.1724ZM77.2069 65.1724H88.2414V76.2069H77.2069V65.1724ZM143.414 65.1724H154.448V76.2069H143.414V65.1724ZM187.552 65.1724H198.586V76.2069H187.552V65.1724ZM231.69 65.1724H242.724V76.2069H231.69V65.1724ZM253.759 65.1724H264.793V76.2069H253.759V65.1724ZM319.966 65.1724H331V76.2069H319.966V65.1724ZM11 76.2069H22.0345V87.2414H11V76.2069ZM22.0345 76.2069H33.069V87.2414H22.0345V76.2069ZM33.069 76.2069H44.1034V87.2414H33.069V76.2069ZM44.1034 76.2069H55.1379V87.2414H44.1034V76.2069ZM55.1379 76.2069H66.1724V87.2414H55.1379V76.2069ZM66.1724 76.2069H77.2069V87.2414H66.1724V76.2069ZM77.2069 76.2069H88.2414V87.2414H77.2069V76.2069ZM99.2759 76.2069H110.31V87.2414H99.2759V76.2069ZM121.345 76.2069H132.379V87.2414H121.345V76.2069ZM143.414 76.2069H154.448V87.2414H143.414V76.2069ZM165.483 76.2069H176.517V87.2414H165.483V76.2069ZM187.552 76.2069H198.586V87.2414H187.552V76.2069ZM209.621 76.2069H220.655V87.2414H209.621V76.2069ZM231.69 76.2069H242.724V87.2414H231.69V76.2069ZM253.759 76.2069H264.793V87.2414H253.759V76.2069ZM264.793 76.2069H275.828V87.2414H264.793V76.2069ZM275.828 76.2069H286.862V87.2414H275.828V76.2069ZM286.862 76.2069H297.897V87.2414H286.862V76.2069ZM297.897 76.2069H308.931V87.2414H297.897V76.2069ZM308.931 76.2069H319.966V87.2414H308.931V76.2069ZM319.966 76.2069H331V87.2414H319.966V76.2069ZM99.2759 87.2414H110.31V98.2759H99.2759V87.2414ZM154.448 87.2414H165.483V98.2759H154.448V87.2414ZM187.552 87.2414H198.586V98.2759H187.552V87.2414ZM198.586 87.2414H209.621V98.2759H198.586V87.2414ZM209.621 87.2414H220.655V98.2759H209.621V87.2414ZM22.0345 98.2759H33.069V109.31H22.0345V98.2759ZM44.1034 98.2759H55.1379V109.31H44.1034V98.2759ZM55.1379 98.2759H66.1724V109.31H55.1379V98.2759ZM66.1724 98.2759H77.2069V109.31H66.1724V98.2759ZM77.2069 98.2759H88.2414V109.31H77.2069V98.2759ZM99.2759 98.2759H110.31V109.31H99.2759V98.2759ZM110.31 98.2759H121.345V109.31H110.31V98.2759ZM121.345 98.2759H132.379V109.31H121.345V98.2759ZM132.379 98.2759H143.414V109.31H132.379V98.2759ZM154.448 98.2759H165.483V109.31H154.448V98.2759ZM187.552 98.2759H198.586V109.31H187.552V98.2759ZM220.655 98.2759H231.69V109.31H220.655V98.2759ZM242.724 98.2759H253.759V109.31H242.724V98.2759ZM253.759 98.2759H264.793V109.31H253.759V98.2759ZM275.828 98.2759H286.862V109.31H275.828V98.2759ZM286.862 98.2759H297.897V109.31H286.862V98.2759ZM308.931 98.2759H319.966V109.31H308.931V98.2759ZM22.0345 109.31H33.069V120.345H22.0345V109.31ZM33.069 109.31H44.1034V120.345H33.069V109.31ZM44.1034 109.31H55.1379V120.345H44.1034V109.31ZM55.1379 109.31H66.1724V120.345H55.1379V109.31ZM66.1724 109.31H77.2069V120.345H66.1724V109.31ZM110.31 109.31H121.345V120.345H110.31V109.31ZM132.379 109.31H143.414V120.345H132.379V109.31ZM143.414 109.31H154.448V120.345H143.414V109.31ZM154.448 109.31H165.483V120.345H154.448V109.31ZM198.586 109.31H209.621V120.345H198.586V109.31ZM209.621 109.31H220.655V120.345H209.621V109.31ZM264.793 109.31H275.828V120.345H264.793V109.31ZM275.828 109.31H286.862V120.345H275.828V109.31ZM286.862 109.31H297.897V120.345H286.862V109.31ZM297.897 109.31H308.931V120.345H297.897V109.31ZM308.931 109.31H319.966V120.345H308.931V109.31ZM11 120.345H22.0345V131.379H11V120.345ZM22.0345 120.345H33.069V131.379H22.0345V120.345ZM77.2069 120.345H88.2414V131.379H77.2069V120.345ZM121.345 120.345H132.379V131.379H121.345V120.345ZM132.379 120.345H143.414V131.379H132.379V120.345ZM154.448 120.345H165.483V131.379H154.448V120.345ZM187.552 120.345H198.586V131.379H187.552V120.345ZM220.655 120.345H231.69V131.379H220.655V120.345ZM231.69 120.345H242.724V131.379H231.69V120.345ZM242.724 120.345H253.759V131.379H242.724V120.345ZM253.759 120.345H264.793V131.379H253.759V120.345ZM275.828 120.345H286.862V131.379H275.828V120.345ZM286.862 120.345H297.897V131.379H286.862V120.345ZM297.897 120.345H308.931V131.379H297.897V120.345ZM11 131.379H22.0345V142.414H11V131.379ZM33.069 131.379H44.1034V142.414H33.069V131.379ZM44.1034 131.379H55.1379V142.414H44.1034V131.379ZM55.1379 131.379H66.1724V142.414H55.1379V131.379ZM88.2414 131.379H99.2759V142.414H88.2414V131.379ZM99.2759 131.379H110.31V142.414H99.2759V131.379ZM143.414 131.379H154.448V142.414H143.414V131.379ZM198.586 131.379H209.621V142.414H198.586V131.379ZM209.621 131.379H220.655V142.414H209.621V131.379ZM220.655 131.379H231.69V142.414H220.655V131.379ZM231.69 131.379H242.724V142.414H231.69V131.379ZM264.793 131.379H275.828V142.414H264.793V131.379ZM319.966 131.379H331V142.414H319.966V131.379ZM11 142.414H22.0345V153.448H11V142.414ZM22.0345 142.414H33.069V153.448H22.0345V142.414ZM66.1724 142.414H77.2069V153.448H66.1724V142.414ZM77.2069 142.414H88.2414V153.448H77.2069V142.414ZM165.483 142.414H176.517V153.448H165.483V142.414ZM176.517 142.414H187.552V153.448H176.517V142.414ZM187.552 142.414H198.586V153.448H187.552V142.414ZM242.724 142.414H253.759V153.448H242.724V142.414ZM253.759 142.414H264.793V153.448H253.759V142.414ZM286.862 142.414H297.897V153.448H286.862V142.414ZM308.931 142.414H319.966V153.448H308.931V142.414ZM11 153.448H22.0345V164.483H11V153.448ZM44.1034 153.448H55.1379V164.483H44.1034V153.448ZM66.1724 153.448H77.2069V164.483H66.1724V153.448ZM88.2414 153.448H99.2759V164.483H88.2414V153.448ZM99.2759 153.448H110.31V164.483H99.2759V153.448ZM132.379 153.448H143.414V164.483H132.379V153.448ZM143.414 153.448H154.448V164.483H143.414V153.448ZM154.448 153.448H165.483V164.483H154.448V153.448ZM165.483 153.448H176.517V164.483H165.483V153.448ZM209.621 153.448H220.655V164.483H209.621V153.448ZM253.759 153.448H264.793V164.483H253.759V153.448ZM275.828 153.448H286.862V164.483H275.828V153.448ZM297.897 153.448H308.931V164.483H297.897V153.448ZM308.931 153.448H319.966V164.483H308.931V153.448ZM319.966 153.448H331V164.483H319.966V153.448ZM33.069 164.483H44.1034V175.517H33.069V164.483ZM66.1724 164.483H77.2069V175.517H66.1724V164.483ZM77.2069 164.483H88.2414V175.517H77.2069V164.483ZM88.2414 164.483H99.2759V175.517H88.2414V164.483ZM99.2759 164.483H110.31V175.517H99.2759V164.483ZM110.31 164.483H121.345V175.517H110.31V164.483ZM121.345 164.483H132.379V175.517H121.345V164.483ZM132.379 164.483H143.414V175.517H132.379V164.483ZM165.483 164.483H176.517V175.517H165.483V164.483ZM209.621 164.483H220.655V175.517H209.621V164.483ZM220.655 164.483H231.69V175.517H220.655V164.483ZM231.69 164.483H242.724V175.517H231.69V164.483ZM253.759 164.483H264.793V175.517H253.759V164.483ZM264.793 164.483H275.828V175.517H264.793V164.483ZM286.862 164.483H297.897V175.517H286.862V164.483ZM319.966 164.483H331V175.517H319.966V164.483ZM11 175.517H22.0345V186.552H11V175.517ZM22.0345 175.517H33.069V186.552H22.0345V175.517ZM33.069 175.517H44.1034V186.552H33.069V175.517ZM44.1034 175.517H55.1379V186.552H44.1034V175.517ZM66.1724 175.517H77.2069V186.552H66.1724V175.517ZM110.31 175.517H121.345V186.552H110.31V175.517ZM132.379 175.517H143.414V186.552H132.379V175.517ZM165.483 175.517H176.517V186.552H165.483V175.517ZM176.517 175.517H187.552V186.552H176.517V175.517ZM187.552 175.517H198.586V186.552H187.552V175.517ZM220.655 175.517H231.69V186.552H220.655V175.517ZM242.724 175.517H253.759V186.552H242.724V175.517ZM275.828 175.517H286.862V186.552H275.828V175.517ZM286.862 175.517H297.897V186.552H286.862V175.517ZM297.897 175.517H308.931V186.552H297.897V175.517ZM77.2069 186.552H88.2414V197.586H77.2069V186.552ZM88.2414 186.552H99.2759V197.586H88.2414V186.552ZM110.31 186.552H121.345V197.586H110.31V186.552ZM121.345 186.552H132.379V197.586H121.345V186.552ZM154.448 186.552H165.483V197.586H154.448V186.552ZM165.483 186.552H176.517V197.586H165.483V186.552ZM176.517 186.552H187.552V197.586H176.517V186.552ZM198.586 186.552H209.621V197.586H198.586V186.552ZM209.621 186.552H220.655V197.586H209.621V186.552ZM231.69 186.552H242.724V197.586H231.69V186.552ZM264.793 186.552H275.828V197.586H264.793V186.552ZM286.862 186.552H297.897V197.586H286.862V186.552ZM308.931 186.552H319.966V197.586H308.931V186.552ZM11 197.586H22.0345V208.621H11V197.586ZM44.1034 197.586H55.1379V208.621H44.1034V197.586ZM55.1379 197.586H66.1724V208.621H55.1379V197.586ZM143.414 197.586H154.448V208.621H143.414V197.586ZM275.828 197.586H286.862V208.621H275.828V197.586ZM286.862 197.586H297.897V208.621H286.862V197.586ZM297.897 197.586H308.931V208.621H297.897V197.586ZM11 208.621H22.0345V219.655H11V208.621ZM22.0345 208.621H33.069V219.655H22.0345V208.621ZM33.069 208.621H44.1034V219.655H33.069V208.621ZM44.1034 208.621H55.1379V219.655H44.1034V208.621ZM77.2069 208.621H88.2414V219.655H77.2069V208.621ZM88.2414 208.621H99.2759V219.655H88.2414V208.621ZM143.414 208.621H154.448V219.655H143.414V208.621ZM165.483 208.621H176.517V219.655H165.483V208.621ZM187.552 208.621H198.586V219.655H187.552V208.621ZM198.586 208.621H209.621V219.655H198.586V208.621ZM220.655 208.621H231.69V219.655H220.655V208.621ZM264.793 208.621H275.828V219.655H264.793V208.621ZM319.966 208.621H331V219.655H319.966V208.621ZM11 219.655H22.0345V230.69H11V219.655ZM22.0345 219.655H33.069V230.69H22.0345V219.655ZM55.1379 219.655H66.1724V230.69H55.1379V219.655ZM99.2759 219.655H110.31V230.69H99.2759V219.655ZM121.345 219.655H132.379V230.69H121.345V219.655ZM132.379 219.655H143.414V230.69H132.379V219.655ZM165.483 219.655H176.517V230.69H165.483V219.655ZM176.517 219.655H187.552V230.69H176.517V219.655ZM187.552 219.655H198.586V230.69H187.552V219.655ZM242.724 219.655H253.759V230.69H242.724V219.655ZM253.759 219.655H264.793V230.69H253.759V219.655ZM264.793 219.655H275.828V230.69H264.793V219.655ZM297.897 219.655H308.931V230.69H297.897V219.655ZM308.931 219.655H319.966V230.69H308.931V219.655ZM11 230.69H22.0345V241.724H11V230.69ZM22.0345 230.69H33.069V241.724H22.0345V230.69ZM33.069 230.69H44.1034V241.724H33.069V230.69ZM66.1724 230.69H77.2069V241.724H66.1724V230.69ZM77.2069 230.69H88.2414V241.724H77.2069V230.69ZM132.379 230.69H143.414V241.724H132.379V230.69ZM154.448 230.69H165.483V241.724H154.448V230.69ZM165.483 230.69H176.517V241.724H165.483V230.69ZM187.552 230.69H198.586V241.724H187.552V230.69ZM198.586 230.69H209.621V241.724H198.586V230.69ZM231.69 230.69H242.724V241.724H231.69V230.69ZM242.724 230.69H253.759V241.724H242.724V230.69ZM253.759 230.69H264.793V241.724H253.759V230.69ZM264.793 230.69H275.828V241.724H264.793V230.69ZM275.828 230.69H286.862V241.724H275.828V230.69ZM286.862 230.69H297.897V241.724H286.862V230.69ZM297.897 230.69H308.931V241.724H297.897V230.69ZM308.931 230.69H319.966V241.724H308.931V230.69ZM99.2759 241.724H110.31V252.759H99.2759V241.724ZM110.31 241.724H121.345V252.759H110.31V241.724ZM121.345 241.724H132.379V252.759H121.345V241.724ZM132.379 241.724H143.414V252.759H132.379V241.724ZM143.414 241.724H154.448V252.759H143.414V241.724ZM165.483 241.724H176.517V252.759H165.483V241.724ZM176.517 241.724H187.552V252.759H176.517V241.724ZM187.552 241.724H198.586V252.759H187.552V241.724ZM198.586 241.724H209.621V252.759H198.586V241.724ZM209.621 241.724H220.655V252.759H209.621V241.724ZM220.655 241.724H231.69V252.759H220.655V241.724ZM231.69 241.724H242.724V252.759H231.69V241.724ZM275.828 241.724H286.862V252.759H275.828V241.724ZM286.862 241.724H297.897V252.759H286.862V241.724ZM297.897 241.724H308.931V252.759H297.897V241.724ZM308.931 241.724H319.966V252.759H308.931V241.724ZM11 252.759H22.0345V263.793H11V252.759ZM22.0345 252.759H33.069V263.793H22.0345V252.759ZM33.069 252.759H44.1034V263.793H33.069V252.759ZM44.1034 252.759H55.1379V263.793H44.1034V252.759ZM55.1379 252.759H66.1724V263.793H55.1379V252.759ZM66.1724 252.759H77.2069V263.793H66.1724V252.759ZM77.2069 252.759H88.2414V263.793H77.2069V252.759ZM110.31 252.759H121.345V263.793H110.31V252.759ZM121.345 252.759H132.379V263.793H121.345V252.759ZM143.414 252.759H154.448V263.793H143.414V252.759ZM154.448 252.759H165.483V263.793H154.448V252.759ZM176.517 252.759H187.552V263.793H176.517V252.759ZM187.552 252.759H198.586V263.793H187.552V252.759ZM220.655 252.759H231.69V263.793H220.655V252.759ZM231.69 252.759H242.724V263.793H231.69V252.759ZM253.759 252.759H264.793V263.793H253.759V252.759ZM275.828 252.759H286.862V263.793H275.828V252.759ZM297.897 252.759H308.931V263.793H297.897V252.759ZM11 263.793H22.0345V274.828H11V263.793ZM77.2069 263.793H88.2414V274.828H77.2069V263.793ZM99.2759 263.793H110.31V274.828H99.2759V263.793ZM110.31 263.793H121.345V274.828H110.31V263.793ZM132.379 263.793H143.414V274.828H132.379V263.793ZM154.448 263.793H165.483V274.828H154.448V263.793ZM165.483 263.793H176.517V274.828H165.483V263.793ZM176.517 263.793H187.552V274.828H176.517V263.793ZM187.552 263.793H198.586V274.828H187.552V263.793ZM209.621 263.793H220.655V274.828H209.621V263.793ZM220.655 263.793H231.69V274.828H220.655V263.793ZM231.69 263.793H242.724V274.828H231.69V263.793ZM275.828 263.793H286.862V274.828H275.828V263.793ZM286.862 263.793H297.897V274.828H286.862V263.793ZM11 274.828H22.0345V285.862H11V274.828ZM33.069 274.828H44.1034V285.862H33.069V274.828ZM44.1034 274.828H55.1379V285.862H44.1034V274.828ZM55.1379 274.828H66.1724V285.862H55.1379V274.828ZM77.2069 274.828H88.2414V285.862H77.2069V274.828ZM99.2759 274.828H110.31V285.862H99.2759V274.828ZM110.31 274.828H121.345V285.862H110.31V274.828ZM176.517 274.828H187.552V285.862H176.517V274.828ZM198.586 274.828H209.621V285.862H198.586V274.828ZM220.655 274.828H231.69V285.862H220.655V274.828ZM231.69 274.828H242.724V285.862H231.69V274.828ZM242.724 274.828H253.759V285.862H242.724V274.828ZM253.759 274.828H264.793V285.862H253.759V274.828ZM264.793 274.828H275.828V285.862H264.793V274.828ZM275.828 274.828H286.862V285.862H275.828V274.828ZM11 285.862H22.0345V296.897H11V285.862ZM33.069 285.862H44.1034V296.897H33.069V285.862ZM44.1034 285.862H55.1379V296.897H44.1034V285.862ZM55.1379 285.862H66.1724V296.897H55.1379V285.862ZM77.2069 285.862H88.2414V296.897H77.2069V285.862ZM99.2759 285.862H110.31V296.897H99.2759V285.862ZM110.31 285.862H121.345V296.897H110.31V285.862ZM165.483 285.862H176.517V296.897H165.483V285.862ZM198.586 285.862H209.621V296.897H198.586V285.862ZM209.621 285.862H220.655V296.897H209.621V285.862ZM264.793 285.862H275.828V296.897H264.793V285.862ZM286.862 285.862H297.897V296.897H286.862V285.862ZM308.931 285.862H319.966V296.897H308.931V285.862ZM11 296.897H22.0345V307.931H11V296.897ZM33.069 296.897H44.1034V307.931H33.069V296.897ZM44.1034 296.897H55.1379V307.931H44.1034V296.897ZM55.1379 296.897H66.1724V307.931H55.1379V296.897ZM77.2069 296.897H88.2414V307.931H77.2069V296.897ZM110.31 296.897H121.345V307.931H110.31V296.897ZM121.345 296.897H132.379V307.931H121.345V296.897ZM143.414 296.897H154.448V307.931H143.414V296.897ZM165.483 296.897H176.517V307.931H165.483V296.897ZM176.517 296.897H187.552V307.931H176.517V296.897ZM198.586 296.897H209.621V307.931H198.586V296.897ZM231.69 296.897H242.724V307.931H231.69V296.897ZM242.724 296.897H253.759V307.931H242.724V296.897ZM264.793 296.897H275.828V307.931H264.793V296.897ZM275.828 296.897H286.862V307.931H275.828V296.897ZM297.897 296.897H308.931V307.931H297.897V296.897ZM308.931 296.897H319.966V307.931H308.931V296.897ZM319.966 296.897H331V307.931H319.966V296.897ZM11 307.931H22.0345V318.966H11V307.931ZM77.2069 307.931H88.2414V318.966H77.2069V307.931ZM99.2759 307.931H110.31V318.966H99.2759V307.931ZM132.379 307.931H143.414V318.966H132.379V307.931ZM143.414 307.931H154.448V318.966H143.414V307.931ZM154.448 307.931H165.483V318.966H154.448V307.931ZM187.552 307.931H198.586V318.966H187.552V307.931ZM275.828 307.931H286.862V318.966H275.828V307.931ZM286.862 307.931H297.897V318.966H286.862V307.931ZM297.897 307.931H308.931V318.966H297.897V307.931ZM319.966 307.931H331V318.966H319.966V307.931ZM11 318.966H22.0345V330H11V318.966ZM22.0345 318.966H33.069V330H22.0345V318.966ZM33.069 318.966H44.1034V330H33.069V318.966ZM44.1034 318.966H55.1379V330H44.1034V318.966ZM55.1379 318.966H66.1724V330H55.1379V318.966ZM66.1724 318.966H77.2069V330H66.1724V318.966ZM77.2069 318.966H88.2414V330H77.2069V318.966ZM110.31 318.966H121.345V330H110.31V318.966ZM121.345 318.966H132.379V330H121.345V318.966ZM165.483 318.966H176.517V330H165.483V318.966ZM176.517 318.966H187.552V330H176.517V318.966ZM187.552 318.966H198.586V330H187.552V318.966ZM231.69 318.966H242.724V330H231.69V318.966ZM264.793 318.966H275.828V330H264.793V318.966ZM275.828 318.966H286.862V330H275.828V318.966Z" fill="white"/>
        </g>
    </g>
    <defs>
        <filter id="filter0_d_670_15873" x="1" y="0" width="340" height="340" filterUnits="userSpaceOnUse" color-interpolation-filters="sRGB">
            <feFlood flood-opacity="0" result="BackgroundImageFix"/>
            <feColorMatrix in="SourceAlpha" type="matrix" values="0 0 0 0 0 0 0 0 0 0 0 0 0 0 0 0 0 0 127 0" result="hardAlpha"/>
            <feOffset/>
            <feGaussianBlur stdDeviation="5"/>
            <feComposite in2="hardAlpha" operator="out"/>
            <feColorMatrix type="matrix" values="0 0 0 0 0.164706 0 0 0 0 0.964706 0 0 0 0 1 0 0 0 0.15 0"/>
            <feBlend mode="normal" in2="BackgroundImageFix" result="effect1_dropShadow_670_15873"/>
            <feBlend mode="normal" in="SourceGraphic" in2="effect1_dropShadow_670_15873" result="shape"/>
        </filter>
        <clipPath id="clip0_670_15873">
            <rect width="340" height="340" fill="white" transform="translate(0.5)"/>
        </clipPath>
    </defs>
</svg>
