<svg width="340" height="340" viewBox="0 0 340 340" fill="none" xmlns="http://www.w3.org/2000/svg">
<g clip-path="url(#clip0_886_99)">
<g filter="url(#filter0_d_886_99)">
<path d="M10.5 10H23.3V22.8H10.5V10ZM23.3 10H36.1V22.8H23.3V10ZM36.1 10H48.9V22.8H36.1V10ZM48.9 10H61.7V22.8H48.9V10ZM61.7 10H74.5V22.8H61.7V10ZM74.5 10H87.3V22.8H74.5V10ZM87.3 10H100.1V22.8H87.3V10ZM112.9 10H125.7V22.8H112.9V10ZM125.7 10H138.5V22.8H125.7V10ZM138.5 10H151.3V22.8H138.5V10ZM164.1 10H176.9V22.8H164.1V10ZM189.7 10H202.5V22.8H189.7V10ZM215.3 10H228.1V22.8H215.3V10ZM240.9 10H253.7V22.8H240.9V10ZM253.7 10H266.5V22.8H253.7V10ZM266.5 10H279.3V22.8H266.5V10ZM279.3 10H292.1V22.8H279.3V10ZM292.1 10H304.9V22.8H292.1V10ZM304.9 10H317.7V22.8H304.9V10ZM317.7 10H330.5V22.8H317.7V10ZM10.5 22.8H23.3V35.6H10.5V22.8ZM87.3 22.8H100.1V35.6H87.3V22.8ZM125.7 22.8H138.5V35.6H125.7V22.8ZM164.1 22.8H176.9V35.6H164.1V22.8ZM189.7 22.8H202.5V35.6H189.7V22.8ZM202.5 22.8H215.3V35.6H202.5V22.8ZM240.9 22.8H253.7V35.6H240.9V22.8ZM317.7 22.8H330.5V35.6H317.7V22.8ZM10.5 35.6H23.3V48.4H10.5V35.6ZM36.1 35.6H48.9V48.4H36.1V35.6ZM48.9 35.6H61.7V48.4H48.9V35.6ZM61.7 35.6H74.5V48.4H61.7V35.6ZM87.3 35.6H100.1V48.4H87.3V35.6ZM125.7 35.6H138.5V48.4H125.7V35.6ZM138.5 35.6H151.3V48.4H138.5V35.6ZM151.3 35.6H164.1V48.4H151.3V35.6ZM164.1 35.6H176.9V48.4H164.1V35.6ZM189.7 35.6H202.5V48.4H189.7V35.6ZM240.9 35.6H253.7V48.4H240.9V35.6ZM266.5 35.6H279.3V48.4H266.5V35.6ZM279.3 35.6H292.1V48.4H279.3V35.6ZM292.1 35.6H304.9V48.4H292.1V35.6ZM317.7 35.6H330.5V48.4H317.7V35.6ZM10.5 48.4H23.3V61.2H10.5V48.4ZM36.1 48.4H48.9V61.2H36.1V48.4ZM48.9 48.4H61.7V61.2H48.9V48.4ZM61.7 48.4H74.5V61.2H61.7V48.4ZM87.3 48.4H100.1V61.2H87.3V48.4ZM125.7 48.4H138.5V61.2H125.7V48.4ZM151.3 48.4H164.1V61.2H151.3V48.4ZM176.9 48.4H189.7V61.2H176.9V48.4ZM202.5 48.4H215.3V61.2H202.5V48.4ZM215.3 48.4H228.1V61.2H215.3V48.4ZM240.9 48.4H253.7V61.2H240.9V48.4ZM266.5 48.4H279.3V61.2H266.5V48.4ZM279.3 48.4H292.1V61.2H279.3V48.4ZM292.1 48.4H304.9V61.2H292.1V48.4ZM317.7 48.4H330.5V61.2H317.7V48.4ZM10.5 61.2H23.3V74H10.5V61.2ZM36.1 61.2H48.9V74H36.1V61.2ZM48.9 61.2H61.7V74H48.9V61.2ZM61.7 61.2H74.5V74H61.7V61.2ZM87.3 61.2H100.1V74H87.3V61.2ZM112.9 61.2H125.7V74H112.9V61.2ZM164.1 61.2H176.9V74H164.1V61.2ZM176.9 61.2H189.7V74H176.9V61.2ZM215.3 61.2H228.1V74H215.3V61.2ZM240.9 61.2H253.7V74H240.9V61.2ZM266.5 61.2H279.3V74H266.5V61.2ZM279.3 61.2H292.1V74H279.3V61.2ZM292.1 61.2H304.9V74H292.1V61.2ZM317.7 61.2H330.5V74H317.7V61.2ZM10.5 74H23.3V86.8H10.5V74ZM87.3 74H100.1V86.8H87.3V74ZM112.9 74H125.7V86.8H112.9V74ZM151.3 74H164.1V86.8H151.3V74ZM164.1 74H176.9V86.8H164.1V74ZM176.9 74H189.7V86.8H176.9V74ZM189.7 74H202.5V86.8H189.7V74ZM202.5 74H215.3V86.8H202.5V74ZM240.9 74H253.7V86.8H240.9V74ZM317.7 74H330.5V86.8H317.7V74ZM10.5 86.8H23.3V99.6H10.5V86.8ZM23.3 86.8H36.1V99.6H23.3V86.8ZM36.1 86.8H48.9V99.6H36.1V86.8ZM48.9 86.8H61.7V99.6H48.9V86.8ZM61.7 86.8H74.5V99.6H61.7V86.8ZM74.5 86.8H87.3V99.6H74.5V86.8ZM87.3 86.8H100.1V99.6H87.3V86.8ZM112.9 86.8H125.7V99.6H112.9V86.8ZM138.5 86.8H151.3V99.6H138.5V86.8ZM164.1 86.8H176.9V99.6H164.1V86.8ZM189.7 86.8H202.5V99.6H189.7V86.8ZM215.3 86.8H228.1V99.6H215.3V86.8ZM240.9 86.8H253.7V99.6H240.9V86.8ZM253.7 86.8H266.5V99.6H253.7V86.8ZM266.5 86.8H279.3V99.6H266.5V86.8ZM279.3 86.8H292.1V99.6H279.3V86.8ZM292.1 86.8H304.9V99.6H292.1V86.8ZM304.9 86.8H317.7V99.6H304.9V86.8ZM317.7 86.8H330.5V99.6H317.7V86.8ZM164.1 99.6H176.9V112.4H164.1V99.6ZM189.7 99.6H202.5V112.4H189.7V99.6ZM215.3 99.6H228.1V112.4H215.3V99.6ZM23.3 112.4H36.1V125.2H23.3V112.4ZM36.1 112.4H48.9V125.2H36.1V112.4ZM48.9 112.4H61.7V125.2H48.9V112.4ZM61.7 112.4H74.5V125.2H61.7V112.4ZM74.5 112.4H87.3V125.2H74.5V112.4ZM87.3 112.4H100.1V125.2H87.3V112.4ZM100.1 112.4H112.9V125.2H100.1V112.4ZM138.5 112.4H151.3V125.2H138.5V112.4ZM253.7 112.4H266.5V125.2H253.7V112.4ZM266.5 112.4H279.3V125.2H266.5V112.4ZM317.7 112.4H330.5V125.2H317.7V112.4ZM23.3 125.2H36.1V138H23.3V125.2ZM48.9 125.2H61.7V138H48.9V125.2ZM100.1 125.2H112.9V138H100.1V125.2ZM112.9 125.2H125.7V138H112.9V125.2ZM125.7 125.2H138.5V138H125.7V125.2ZM176.9 125.2H189.7V138H176.9V125.2ZM228.1 125.2H240.9V138H228.1V125.2ZM253.7 125.2H266.5V138H253.7V125.2ZM304.9 125.2H317.7V138H304.9V125.2ZM10.5 138H23.3V150.8H10.5V138ZM36.1 138H48.9V150.8H36.1V138ZM48.9 138H61.7V150.8H48.9V138ZM74.5 138H87.3V150.8H74.5V138ZM87.3 138H100.1V150.8H87.3V138ZM112.9 138H125.7V150.8H112.9V138ZM138.5 138H151.3V150.8H138.5V138ZM151.3 138H164.1V150.8H151.3V138ZM164.1 138H176.9V150.8H164.1V138ZM176.9 138H189.7V150.8H176.9V138ZM189.7 138H202.5V150.8H189.7V138ZM202.5 138H215.3V150.8H202.5V138ZM215.3 138H228.1V150.8H215.3V138ZM228.1 138H240.9V150.8H228.1V138ZM240.9 138H253.7V150.8H240.9V138ZM279.3 138H292.1V150.8H279.3V138ZM304.9 138H317.7V150.8H304.9V138ZM317.7 138H330.5V150.8H317.7V138ZM23.3 150.8H36.1V163.6H23.3V150.8ZM36.1 150.8H48.9V163.6H36.1V150.8ZM48.9 150.8H61.7V163.6H48.9V150.8ZM100.1 150.8H112.9V163.6H100.1V150.8ZM112.9 150.8H125.7V163.6H112.9V150.8ZM125.7 150.8H138.5V163.6H125.7V150.8ZM138.5 150.8H151.3V163.6H138.5V150.8ZM151.3 150.8H164.1V163.6H151.3V150.8ZM164.1 150.8H176.9V163.6H164.1V150.8ZM176.9 150.8H189.7V163.6H176.9V150.8ZM228.1 150.8H240.9V163.6H228.1V150.8ZM240.9 150.8H253.7V163.6H240.9V150.8ZM266.5 150.8H279.3V163.6H266.5V150.8ZM317.7 150.8H330.5V163.6H317.7V150.8ZM10.5 163.6H23.3V176.4H10.5V163.6ZM48.9 163.6H61.7V176.4H48.9V163.6ZM87.3 163.6H100.1V176.4H87.3V163.6ZM100.1 163.6H112.9V176.4H100.1V163.6ZM112.9 163.6H125.7V176.4H112.9V163.6ZM151.3 163.6H164.1V176.4H151.3V163.6ZM164.1 163.6H176.9V176.4H164.1V163.6ZM189.7 163.6H202.5V176.4H189.7V163.6ZM202.5 163.6H215.3V176.4H202.5V163.6ZM215.3 163.6H228.1V176.4H215.3V163.6ZM228.1 163.6H240.9V176.4H228.1V163.6ZM240.9 163.6H253.7V176.4H240.9V163.6ZM266.5 163.6H279.3V176.4H266.5V163.6ZM292.1 163.6H304.9V176.4H292.1V163.6ZM304.9 163.6H317.7V176.4H304.9V163.6ZM317.7 163.6H330.5V176.4H317.7V163.6ZM10.5 176.4H23.3V189.2H10.5V176.4ZM61.7 176.4H74.5V189.2H61.7V176.4ZM74.5 176.4H87.3V189.2H74.5V176.4ZM100.1 176.4H112.9V189.2H100.1V176.4ZM125.7 176.4H138.5V189.2H125.7V176.4ZM138.5 176.4H151.3V189.2H138.5V176.4ZM151.3 176.4H164.1V189.2H151.3V176.4ZM164.1 176.4H176.9V189.2H164.1V176.4ZM215.3 176.4H228.1V189.2H215.3V176.4ZM253.7 176.4H266.5V189.2H253.7V176.4ZM279.3 176.4H292.1V189.2H279.3V176.4ZM304.9 176.4H317.7V189.2H304.9V176.4ZM10.5 189.2H23.3V202H10.5V189.2ZM36.1 189.2H48.9V202H36.1V189.2ZM74.5 189.2H87.3V202H74.5V189.2ZM87.3 189.2H100.1V202H87.3V189.2ZM100.1 189.2H112.9V202H100.1V189.2ZM112.9 189.2H125.7V202H112.9V189.2ZM151.3 189.2H164.1V202H151.3V189.2ZM176.9 189.2H189.7V202H176.9V189.2ZM189.7 189.2H202.5V202H189.7V189.2ZM202.5 189.2H215.3V202H202.5V189.2ZM215.3 189.2H228.1V202H215.3V189.2ZM240.9 189.2H253.7V202H240.9V189.2ZM253.7 189.2H266.5V202H253.7V189.2ZM266.5 189.2H279.3V202H266.5V189.2ZM279.3 189.2H292.1V202H279.3V189.2ZM304.9 189.2H317.7V202H304.9V189.2ZM317.7 189.2H330.5V202H317.7V189.2ZM10.5 202H23.3V214.8H10.5V202ZM112.9 202H125.7V214.8H112.9V202ZM125.7 202H138.5V214.8H125.7V202ZM138.5 202H151.3V214.8H138.5V202ZM164.1 202H176.9V214.8H164.1V202ZM176.9 202H189.7V214.8H176.9V202ZM189.7 202H202.5V214.8H189.7V202ZM215.3 202H228.1V214.8H215.3V202ZM253.7 202H266.5V214.8H253.7V202ZM266.5 202H279.3V214.8H266.5V202ZM317.7 202H330.5V214.8H317.7V202ZM10.5 214.8H23.3V227.6H10.5V214.8ZM36.1 214.8H48.9V227.6H36.1V214.8ZM48.9 214.8H61.7V227.6H48.9V214.8ZM61.7 214.8H74.5V227.6H61.7V214.8ZM87.3 214.8H100.1V227.6H87.3V214.8ZM112.9 214.8H125.7V227.6H112.9V214.8ZM138.5 214.8H151.3V227.6H138.5V214.8ZM164.1 214.8H176.9V227.6H164.1V214.8ZM176.9 214.8H189.7V227.6H176.9V214.8ZM215.3 214.8H228.1V227.6H215.3V214.8ZM228.1 214.8H240.9V227.6H228.1V214.8ZM240.9 214.8H253.7V227.6H240.9V214.8ZM253.7 214.8H266.5V227.6H253.7V214.8ZM266.5 214.8H279.3V227.6H266.5V214.8ZM292.1 214.8H304.9V227.6H292.1V214.8ZM112.9 227.6H125.7V240.4H112.9V227.6ZM125.7 227.6H138.5V240.4H125.7V227.6ZM189.7 227.6H202.5V240.4H189.7V227.6ZM202.5 227.6H215.3V240.4H202.5V227.6ZM215.3 227.6H228.1V240.4H215.3V227.6ZM266.5 227.6H279.3V240.4H266.5V227.6ZM279.3 227.6H292.1V240.4H279.3V227.6ZM10.5 240.4H23.3V253.2H10.5V240.4ZM23.3 240.4H36.1V253.2H23.3V240.4ZM36.1 240.4H48.9V253.2H36.1V240.4ZM48.9 240.4H61.7V253.2H48.9V240.4ZM61.7 240.4H74.5V253.2H61.7V240.4ZM74.5 240.4H87.3V253.2H74.5V240.4ZM87.3 240.4H100.1V253.2H87.3V240.4ZM112.9 240.4H125.7V253.2H112.9V240.4ZM138.5 240.4H151.3V253.2H138.5V240.4ZM151.3 240.4H164.1V253.2H151.3V240.4ZM176.9 240.4H189.7V253.2H176.9V240.4ZM189.7 240.4H202.5V253.2H189.7V240.4ZM215.3 240.4H228.1V253.2H215.3V240.4ZM240.9 240.4H253.7V253.2H240.9V240.4ZM266.5 240.4H279.3V253.2H266.5V240.4ZM292.1 240.4H304.9V253.2H292.1V240.4ZM304.9 240.4H317.7V253.2H304.9V240.4ZM317.7 240.4H330.5V253.2H317.7V240.4ZM10.5 253.2H23.3V266H10.5V253.2ZM87.3 253.2H100.1V266H87.3V253.2ZM112.9 253.2H125.7V266H112.9V253.2ZM138.5 253.2H151.3V266H138.5V253.2ZM164.1 253.2H176.9V266H164.1V253.2ZM215.3 253.2H228.1V266H215.3V253.2ZM266.5 253.2H279.3V266H266.5V253.2ZM279.3 253.2H292.1V266H279.3V253.2ZM304.9 253.2H317.7V266H304.9V253.2ZM10.5 266H23.3V278.8H10.5V266ZM36.1 266H48.9V278.8H36.1V266ZM48.9 266H61.7V278.8H48.9V266ZM61.7 266H74.5V278.8H61.7V266ZM87.3 266H100.1V278.8H87.3V266ZM112.9 266H125.7V278.8H112.9V266ZM125.7 266H138.5V278.8H125.7V266ZM151.3 266H164.1V278.8H151.3V266ZM202.5 266H215.3V278.8H202.5V266ZM215.3 266H228.1V278.8H215.3V266ZM228.1 266H240.9V278.8H228.1V266ZM240.9 266H253.7V278.8H240.9V266ZM253.7 266H266.5V278.8H253.7V266ZM266.5 266H279.3V278.8H266.5V266ZM292.1 266H304.9V278.8H292.1V266ZM317.7 266H330.5V278.8H317.7V266ZM10.5 278.8H23.3V291.6H10.5V278.8ZM36.1 278.8H48.9V291.6H36.1V278.8ZM48.9 278.8H61.7V291.6H48.9V278.8ZM61.7 278.8H74.5V291.6H61.7V278.8ZM87.3 278.8H100.1V291.6H87.3V278.8ZM112.9 278.8H125.7V291.6H112.9V278.8ZM189.7 278.8H202.5V291.6H189.7V278.8ZM240.9 278.8H253.7V291.6H240.9V278.8ZM266.5 278.8H279.3V291.6H266.5V278.8ZM279.3 278.8H292.1V291.6H279.3V278.8ZM292.1 278.8H304.9V291.6H292.1V278.8ZM304.9 278.8H317.7V291.6H304.9V278.8ZM317.7 278.8H330.5V291.6H317.7V278.8ZM10.5 291.6H23.3V304.4H10.5V291.6ZM36.1 291.6H48.9V304.4H36.1V291.6ZM48.9 291.6H61.7V304.4H48.9V291.6ZM61.7 291.6H74.5V304.4H61.7V291.6ZM87.3 291.6H100.1V304.4H87.3V291.6ZM112.9 291.6H125.7V304.4H112.9V291.6ZM125.7 291.6H138.5V304.4H125.7V291.6ZM164.1 291.6H176.9V304.4H164.1V291.6ZM215.3 291.6H228.1V304.4H215.3V291.6ZM279.3 291.6H292.1V304.4H279.3V291.6ZM292.1 291.6H304.9V304.4H292.1V291.6ZM317.7 291.6H330.5V304.4H317.7V291.6ZM10.5 304.4H23.3V317.2H10.5V304.4ZM87.3 304.4H100.1V317.2H87.3V304.4ZM112.9 304.4H125.7V317.2H112.9V304.4ZM125.7 304.4H138.5V317.2H125.7V304.4ZM138.5 304.4H151.3V317.2H138.5V304.4ZM151.3 304.4H164.1V317.2H151.3V304.4ZM164.1 304.4H176.9V317.2H164.1V304.4ZM202.5 304.4H215.3V317.2H202.5V304.4ZM215.3 304.4H228.1V317.2H215.3V304.4ZM228.1 304.4H240.9V317.2H228.1V304.4ZM253.7 304.4H266.5V317.2H253.7V304.4ZM266.5 304.4H279.3V317.2H266.5V304.4ZM279.3 304.4H292.1V317.2H279.3V304.4ZM317.7 304.4H330.5V317.2H317.7V304.4ZM10.5 317.2H23.3V330H10.5V317.2ZM23.3 317.2H36.1V330H23.3V317.2ZM36.1 317.2H48.9V330H36.1V317.2ZM48.9 317.2H61.7V330H48.9V317.2ZM61.7 317.2H74.5V330H61.7V317.2ZM74.5 317.2H87.3V330H74.5V317.2ZM87.3 317.2H100.1V330H87.3V317.2ZM189.7 317.2H202.5V330H189.7V317.2ZM253.7 317.2H266.5V330H253.7V317.2ZM266.5 317.2H279.3V330H266.5V317.2ZM279.3 317.2H292.1V330H279.3V317.2ZM292.1 317.2H304.9V330H292.1V317.2ZM304.9 317.2H317.7V330H304.9V317.2ZM317.7 317.2H330.5V330H317.7V317.2Z" fill="white"/>
</g>
</g>
<defs>
<filter id="filter0_d_886_99" x="0.5" y="0" width="340" height="340" filterUnits="userSpaceOnUse" color-interpolation-filters="sRGB">
<feFlood flood-opacity="0" result="BackgroundImageFix"/>
<feColorMatrix in="SourceAlpha" type="matrix" values="0 0 0 0 0 0 0 0 0 0 0 0 0 0 0 0 0 0 127 0" result="hardAlpha"/>
<feOffset/>
<feGaussianBlur stdDeviation="5"/>
<feComposite in2="hardAlpha" operator="out"/>
<feColorMatrix type="matrix" values="0 0 0 0 0.164706 0 0 0 0 0.964706 0 0 0 0 1 0 0 0 0.15 0"/>
<feBlend mode="normal" in2="BackgroundImageFix" result="effect1_dropShadow_886_99"/>
<feBlend mode="normal" in="SourceGraphic" in2="effect1_dropShadow_886_99" result="shape"/>
</filter>
<clipPath id="clip0_886_99">
<rect width="340" height="340" fill="white"/>
</clipPath>
</defs>
</svg>
