<svg width="921" height="564" viewBox="0 0 921 564" fill="none" xmlns="http://www.w3.org/2000/svg">
    <g opacity="0.3">
        <path opacity="0.2" d="M1036.61 -538.833L1034.18 -540.236L61.9517 21.0781L64.3822 22.4814L1036.61 -538.833Z" fill="#33CAFF"/>
        <path opacity="0.2" d="M1085.22 -510.77L1082.79 -512.173L110.561 49.1416L112.992 50.5449L1085.22 -510.77Z" fill="#33CAFF"/>
        <path opacity="0.2" d="M1133.83 -482.702L1131.4 -484.105L159.173 77.209L161.604 78.6123L1133.83 -482.702Z" fill="#33CAFF"/>
        <path opacity="0.2" d="M1182.44 -454.636L1180.01 -456.039L207.786 105.275L210.216 106.679L1182.44 -454.636Z" fill="#33CAFF"/>
        <path opacity="0.5" d="M1231.05 -426.571L1228.62 -427.975L256.396 133.34L258.828 134.744L1231.05 -426.571Z" fill="#33CAFF"/>
        <path opacity="0.2" d="M1279.66 -398.504L1277.23 -399.907L305.007 161.407L307.438 162.811L1279.66 -398.504Z" fill="#33CAFF"/>
        <path opacity="0.2" d="M1328.27 -370.44L1325.84 -371.844L353.618 189.471L356.048 190.874L1328.27 -370.44Z" fill="#33CAFF"/>
        <path opacity="0.2" d="M1376.89 -342.373L1374.46 -343.776L402.231 217.538L404.662 218.941L1376.89 -342.373Z" fill="#33CAFF"/>
        <path opacity="0.2" d="M1425.5 -314.308L1423.07 -315.711L450.84 245.604L453.271 247.007L1425.5 -314.308Z" fill="#33CAFF"/>
        <path opacity="0.5" d="M1474.11 -286.242L1471.68 -287.646L499.453 273.668L501.884 275.072L1474.11 -286.242Z" fill="#33CAFF"/>
        <path opacity="0.2" d="M1522.72 -258.177L1520.29 -259.58L548.062 301.734L550.491 303.137L1522.72 -258.177Z" fill="#33CAFF"/>
        <path opacity="0.2" d="M1571.33 -230.112L1568.9 -231.516L596.675 329.799L599.107 331.203L1571.33 -230.112Z" fill="#33CAFF"/>
        <path opacity="0.2" d="M1619.96 -202.022L1617.53 -203.426L645.306 357.889L647.738 359.293L1619.96 -202.022Z" fill="#33CAFF"/>
        <path opacity="0.2" d="M1668.57 -173.956L1666.14 -175.358L693.919 385.956L696.349 387.359L1668.57 -173.956Z" fill="#33CAFF"/>
        <path opacity="0.5" d="M1717.19 -145.893L1714.76 -147.296L742.531 414.019L744.96 415.421L1717.19 -145.893Z" fill="#33CAFF"/>
        <path opacity="0.2" d="M1765.8 -117.826L1763.37 -119.229L791.141 442.086L793.57 443.489L1765.8 -117.826Z" fill="#33CAFF"/>
        <path opacity="0.2" d="M1814.41 -89.7591L1811.98 -91.1631L839.752 470.151L842.184 471.555L1814.41 -89.7591Z" fill="#33CAFF"/>
        <path opacity="0.2" d="M1863.02 -61.6936L1860.59 -63.0977L888.363 498.217L890.795 499.621L1863.02 -61.6936Z" fill="#33CAFF"/>
        <path opacity="0.2" d="M1863 49.1415L890.775 -512.173L888.345 -510.77L1860.57 50.5448L1863 49.1415Z" fill="#33CAFF"/>
        <path opacity="0.2" d="M1814.39 77.2089L842.162 -484.105L839.732 -482.702L1811.96 78.6122L1814.39 77.2089Z" fill="#33CAFF"/>
        <path opacity="0.2" d="M1765.77 105.275L793.549 -456.039L791.118 -454.636L1763.34 106.679L1765.77 105.275Z" fill="#33CAFF"/>
        <path opacity="0.5" d="M1717.17 133.34L744.94 -427.975L742.509 -426.571L1714.73 134.744L1717.17 133.34Z" fill="#33CAFF"/>
        <path opacity="0.2" d="M1668.55 161.407L696.327 -399.907L693.897 -398.504L1666.12 162.81L1668.55 161.407Z" fill="#33CAFF"/>
        <path opacity="0.2" d="M1619.94 189.471L647.718 -371.844L645.287 -370.44L1617.51 190.874L1619.94 189.471Z" fill="#33CAFF"/>
        <path opacity="0.2" d="M1571.33 217.538L599.104 -343.776L596.674 -342.373L1568.9 218.941L1571.33 217.538Z" fill="#33CAFF"/>
        <path opacity="0.2" d="M1522.72 245.603L550.496 -315.711L548.066 -314.308L1520.29 247.007L1522.72 245.603Z" fill="#33CAFF"/>
        <path opacity="0.5" d="M1474.11 273.668L501.883 -287.646L499.451 -286.243L1471.68 275.072L1474.11 273.668Z" fill="#33CAFF"/>
        <path opacity="0.2" d="M1425.5 301.727L453.272 -259.587L450.843 -258.184L1423.07 303.13L1425.5 301.727Z" fill="#33CAFF"/>
        <path opacity="0.2" d="M1376.89 329.799L404.661 -231.516L402.229 -230.112L1374.45 331.203L1376.89 329.799Z" fill="#33CAFF"/>
        <path opacity="0.2" d="M1328.28 357.866L356.051 -203.448L353.619 -202.044L1325.84 359.27L1328.28 357.866Z" fill="#33CAFF"/>
        <path opacity="0.2" d="M1279.66 385.933L307.438 -175.382L305.009 -173.979L1277.23 387.335L1279.66 385.933Z" fill="#33CAFF"/>
        <path opacity="0.5" d="M1231.05 413.993L258.825 -147.321L256.396 -145.919L1228.62 415.396L1231.05 413.993Z" fill="#33CAFF"/>
        <path opacity="0.2" d="M1182.44 442.063L210.215 -119.251L207.785 -117.848L1180.01 443.466L1182.44 442.063Z" fill="#33CAFF"/>
        <path opacity="0.2" d="M1133.83 470.131L161.604 -91.1836L159.172 -89.7796L1131.4 471.535L1133.83 470.131Z" fill="#33CAFF"/>
        <path opacity="0.2" d="M1085.22 498.195L112.993 -63.1191L110.561 -61.7152L1082.79 499.599L1085.22 498.195Z" fill="#33CAFF"/>
        <path opacity="0.2" d="M1036.61 526.261L64.3818 -35.0537L61.9525 -33.6511L1034.18 527.663L1036.61 526.261Z" fill="#33CAFF"/>
        <path opacity="0.5" d="M987.992 552.921L18.1914 -6.99316L15.7669 -5.59338L985.567 554.321L987.992 552.921Z" fill="#33CAFF"/>
        <path d="M269.127 129.494L266.702 128.094L249.731 137.892L252.155 139.292L269.127 129.494Z" fill="#33CAFF"/>
        <path d="M269.129 137.892L252.157 128.094L249.733 129.494L266.704 139.292L269.129 137.892Z" fill="#33CAFF"/>
        <path d="M754.028 129.494L751.604 128.094L734.632 137.892L737.057 139.292L754.028 129.494Z" fill="#33CAFF"/>
        <path d="M754.03 137.892L737.059 128.094L734.634 129.494L751.606 139.292L754.03 137.892Z" fill="#33CAFF"/>
        <path d="M511.577 269.471L509.152 268.071L492.181 277.87L494.605 279.27L511.577 269.471Z" fill="#33CAFF"/>
        <path d="M511.579 277.87L494.607 268.071L492.183 269.471L509.154 279.27L511.579 277.87Z" fill="#33CAFF"/>
        <path d="M754.05 409.472L751.625 408.072L734.653 417.871L737.078 419.271L754.05 409.472Z" fill="#33CAFF"/>
        <path d="M754.052 417.871L737.08 408.072L734.656 409.472L751.627 419.271L754.052 417.871Z" fill="#33CAFF"/>
        <path d="M504.304 133.685L501.88 132.285L499.455 133.685L501.88 135.085L504.304 133.685Z" fill="#33CAFF"/>
        <path d="M746.755 273.67L744.33 272.271L741.906 273.67L744.33 275.07L746.755 273.67Z" fill="#33CAFF"/>
    </g>
</svg>
