<svg width="141" height="140" viewBox="0 0 141 140" fill="none" xmlns="http://www.w3.org/2000/svg">
    <g filter="url(#filter0_d_1_67622)">
        <path fill-rule="evenodd" clip-rule="evenodd" d="M56.5662 9C56.5662 6.37665 58.6929 4.25 61.3162 4.25H131.75C134.373 4.25 136.5 6.37665 136.5 9V131C136.5 133.623 134.373 135.75 131.75 135.75H61.3162C58.6929 135.75 56.5662 133.623 56.5662 131V111H58.0662V131C58.0662 132.795 59.5213 134.25 61.3162 134.25H131.75C133.545 134.25 135 132.795 135 131V9C135 7.20507 133.545 5.75 131.75 5.75H61.3162C59.5213 5.75 58.0662 7.20507 58.0662 9V34.4825L68.1648 26.2218C70.0797 24.6554 72.8764 24.8211 74.593 26.6028L76.9443 29.0433C78.8187 30.9889 78.6952 34.1039 76.6727 35.895L58.0662 52.3728V82H56.5662V53.2677L46.9454 58.246C45.8665 58.8043 45.189 59.9177 45.189 61.1325V131C45.189 133.623 43.0624 135.75 40.439 135.75H37.5831C35.2448 135.75 33.2543 134.048 32.8908 131.738L27.8213 99.5228L23.1741 131.679C22.8365 134.016 20.8339 135.75 18.473 135.75H16.5712C13.9478 135.75 11.8212 133.623 11.8212 131V87.9309H9.78527C7.17354 87.9309 5.04934 85.826 5.03796 83.211C4.99991 74.4696 4.96853 60.6479 5.05752 53.8545C5.11281 49.6334 6.96119 46.8907 9.27641 45.215C11.5543 43.5664 14.2491 42.9716 16.0575 42.9238L49.4905 41.4975L56.5662 35.7095V9ZM13.3212 87.8651V131C13.3212 132.795 14.7763 134.25 16.5712 134.25H18.473C20.0883 134.25 21.4585 133.064 21.6896 131.465L27.0474 94.3902L28.5306 94.3809L34.3726 131.505C34.6213 133.086 35.9832 134.25 37.5831 134.25H40.439C42.2339 134.25 43.689 132.795 43.689 131V61.1325C43.689 59.357 44.6792 57.7298 46.2561 56.9138L56.8888 51.4119L75.6783 34.772C77.0621 33.5465 77.1465 31.4152 75.864 30.0841L73.5127 27.6435C72.3383 26.4245 70.4247 26.3111 69.1145 27.3829L50.0535 42.9748L16.1025 44.4232C14.5291 44.4637 12.1417 44.993 10.1559 46.4302C8.2047 47.8423 6.60616 50.1515 6.55739 53.8741C6.46861 60.652 6.49989 74.46 6.53794 83.2044C6.54572 84.9903 7.99609 86.4309 9.78527 86.4309H12.5712C14.0966 86.4309 15.3332 85.1943 15.3332 83.6689V69.5427H16.8332V83.6689C16.8332 85.7668 15.3174 87.5107 13.3212 87.8651ZM27.2694 11.8907C20.503 11.8907 15.0121 17.4013 15.0121 24.206C15.0121 31.0107 20.503 36.5214 27.2694 36.5214C34.0358 36.5214 39.5267 31.0107 39.5267 24.206C39.5267 17.4013 34.0358 11.8907 27.2694 11.8907ZM13.5121 24.206C13.5121 16.5792 19.6683 10.3907 27.2694 10.3907C34.8705 10.3907 41.0267 16.5792 41.0267 24.206C41.0267 31.8329 34.8705 38.0214 27.2694 38.0214C19.6683 38.0214 13.5121 31.8329 13.5121 24.206ZM120.662 54.0163C119.208 54.0163 118.03 55.1947 118.03 56.6482V72.6181C118.03 74.0717 119.208 75.25 120.662 75.25C122.115 75.25 123.293 74.0717 123.293 72.6181V56.6482C123.293 55.1947 122.115 54.0163 120.662 54.0163ZM116.53 56.6482C116.53 54.3662 118.38 52.5163 120.662 52.5163C122.944 52.5163 124.793 54.3662 124.793 56.6482V72.6181C124.793 74.9001 122.944 76.75 120.662 76.75C118.38 76.75 116.53 74.9001 116.53 72.6181V56.6482Z" fill="white" stroke="#0084FF" stroke-width="0.2"/>
        <path fill-rule="evenodd" clip-rule="evenodd" d="M80.4848 100.882L51 84.2882V110.544L80.4848 128.646V100.882ZM112.19 112.533L81.9848 128.734V100.894L112.19 84.8302V112.533ZM111.353 83.5763L81.245 99.5885L51.8089 83.0222L81.2328 67.2838L111.353 83.5763Z" fill="url(#paint0_linear_1_67622)"/>
    </g>
    <defs>
        <filter id="filter0_d_1_67622" x="0.900391" y="0.150024" width="139.699" height="139.7" filterUnits="userSpaceOnUse" color-interpolation-filters="sRGB">
            <feFlood flood-opacity="0" result="BackgroundImageFix"/>
            <feColorMatrix in="SourceAlpha" type="matrix" values="0 0 0 0 0 0 0 0 0 0 0 0 0 0 0 0 0 0 127 0" result="hardAlpha"/>
            <feOffset/>
            <feGaussianBlur stdDeviation="2"/>
            <feComposite in2="hardAlpha" operator="out"/>
            <feColorMatrix type="matrix" values="0 0 0 0 0.164706 0 0 0 0 0.964706 0 0 0 0 1 0 0 0 0.2 0"/>
            <feBlend mode="normal" in2="BackgroundImageFix" result="effect1_dropShadow_1_67622"/>
            <feBlend mode="normal" in="SourceGraphic" in2="effect1_dropShadow_1_67622" result="shape"/>
        </filter>
        <linearGradient id="paint0_linear_1_67622" x1="50.7852" y1="45.7911" x2="97.8219" y2="126.392" gradientUnits="userSpaceOnUse">
            <stop stop-color="white"/>
            <stop offset="1" stop-color="#00FCFF"/>
        </linearGradient>
    </defs>
</svg>
