<svg width="104" height="103" viewBox="0 0 104 103" fill="none" xmlns="http://www.w3.org/2000/svg">
<g filter="url(#filter0_d_609_12132)">
<g filter="url(#filter1_d_609_12132)">
<path fill-rule="evenodd" clip-rule="evenodd" d="M35.4452 25.5103C35.4452 24.8763 35.9591 24.3623 36.5931 24.3623H45.5445C46.1785 24.3623 46.6924 24.8763 46.6924 25.5103V34.7301C46.6924 35.3642 46.1785 35.8781 45.5445 35.8781H36.5931C35.9591 35.8781 35.4452 35.3642 35.4452 34.7301V25.5103ZM37.025 25.9421V34.2983H45.1126V25.9421H37.025ZM14.4111 61.8684L14.4786 27.6963L16.0585 27.6994L15.9909 61.8684H36.1613V49.079C36.1613 46.8977 37.9296 45.1294 40.1109 45.1294H42.3848C44.5661 45.1294 46.3344 46.8977 46.3344 49.079V61.8684H66.4168V27.6978H67.9966V44.6818H86.1542C87.6799 44.6818 89.0692 45.5606 89.7229 46.9392L97.9836 64.3603V81.093C98.7197 81.4019 99.2368 82.1295 99.2368 82.9778V84.5443C99.2368 86.5378 97.6207 88.1539 95.6272 88.1539H89.0034C88.5992 93.6593 84.0045 98.0004 78.3959 98.0004C72.7872 98.0004 68.1925 93.6593 67.7884 88.1539H41.9193C41.5152 93.6593 36.9205 98.0004 31.3118 98.0004C25.7032 98.0004 21.1085 93.6593 20.7044 88.1539H15.6737C13.4924 88.1539 11.7241 86.3856 11.7241 84.2043V82.2477C10.1355 81.8883 8.94922 80.4681 8.94922 78.7707V65.818C8.94922 63.6367 10.7175 61.8684 12.8988 61.8684H14.4111ZM13.304 82.3355V84.2043C13.304 85.5131 14.3649 86.5741 15.6737 86.5741H20.7044C21.1085 81.0686 25.7032 76.7276 31.3118 76.7276C36.9205 76.7276 41.5152 81.0686 41.9193 86.5741H67.7884C68.1925 81.0686 72.7872 76.7276 78.3959 76.7276C84.0045 76.7276 88.5992 81.0686 89.0034 86.5741H95.6272C96.7482 86.5741 97.6569 85.6653 97.6569 84.5443V82.9778C97.6569 82.722 97.4495 82.5146 97.1937 82.5146H94.1502V80.9347H96.4038V65.3163L79.9001 65.0687C79.4389 65.0618 78.9794 65.0128 78.5271 64.9223L78.2011 64.8571C77.5444 64.7258 76.916 64.4799 76.3446 64.1307C75.6807 63.725 75.1069 63.1879 74.6582 62.5523L74.5638 62.4186C74.2652 61.9955 74.0193 61.5376 73.8316 61.055C73.5456 60.3194 73.3988 59.5372 73.3988 58.748V46.2617H67.9966V70.5355H66.4168V63.4482H12.8988C11.59 63.4482 10.5291 64.5092 10.5291 65.818V78.7707C10.5291 79.867 11.4178 80.7557 12.514 80.7557H16.9897V82.3355H13.304ZM74.9787 46.2617V58.748C74.9787 59.3413 75.089 59.9294 75.304 60.4824C75.4451 60.8452 75.63 61.1894 75.8545 61.5075L75.9489 61.6412C76.2733 62.1009 76.6883 62.4893 77.1684 62.7827C77.5816 63.0352 78.0361 63.213 78.5109 63.308L78.837 63.3732C79.195 63.4448 79.5587 63.4836 79.9238 63.489L95.9359 63.7292L88.2954 47.6161C87.9032 46.7889 87.0696 46.2617 86.1542 46.2617H74.9787ZM44.7546 61.8684V49.079C44.7546 47.7702 43.6936 46.7092 42.3848 46.7092H40.1109C38.8021 46.7092 37.7411 47.7702 37.7411 49.079V61.8684H44.7546ZM19.8196 38.6687C19.8196 38.0347 20.3336 37.5208 20.9676 37.5208H29.9189C30.5529 37.5208 31.0669 38.0347 31.0669 38.6687V47.8886C31.0669 48.5226 30.5529 49.0366 29.9189 49.0366H20.9676C20.3336 49.0366 19.8196 48.5226 19.8196 47.8886V38.6687ZM21.3994 39.1006V47.4567H29.487V39.1006H21.3994ZM50.7519 39.0268C50.7519 38.3928 51.2659 37.8788 51.8999 37.8788H60.8512C61.4852 37.8788 61.9992 38.3928 61.9992 39.0268V48.2467C61.9992 48.8807 61.4852 49.3946 60.8512 49.3946H51.8999C51.2659 49.3946 50.7519 48.8807 50.7519 48.2467V39.0268ZM52.3318 39.4587V47.8148H60.4194V39.4587H52.3318ZM31.3118 78.3074C26.3101 78.3074 22.2553 82.3622 22.2553 87.364C22.2553 92.3658 26.3101 96.4205 31.3118 96.4205C36.3136 96.4205 40.3684 92.3658 40.3684 87.364C40.3684 82.3622 36.3136 78.3074 31.3118 78.3074ZM78.3959 78.3074C73.3941 78.3074 69.3393 82.3622 69.3393 87.364C69.3393 92.3658 73.3941 96.4205 78.3959 96.4205C83.3977 96.4205 87.4524 92.3658 87.4524 87.364C87.4524 82.3622 83.3977 78.3074 78.3959 78.3074ZM31.1328 83.8573C29.1961 83.8573 27.6261 85.4273 27.6261 87.364C27.6261 89.3007 29.1961 90.8707 31.1328 90.8707C33.0695 90.8707 34.6395 89.3007 34.6395 87.364C34.6395 85.4273 33.0695 83.8573 31.1328 83.8573ZM26.0463 87.364C26.0463 84.5548 28.3236 82.2774 31.1328 82.2774C33.942 82.2774 36.2194 84.5548 36.2194 87.364C36.2194 90.1732 33.9421 92.4506 31.1328 92.4506C28.3236 92.4506 26.0463 90.1732 26.0463 87.364ZM78.3959 83.8573C76.4592 83.8573 74.8891 85.4273 74.8891 87.364C74.8891 89.3007 76.4592 90.8707 78.3959 90.8707C80.3326 90.8707 81.9026 89.3007 81.9026 87.364C81.9026 85.4273 80.3326 83.8573 78.3959 83.8573ZM73.3093 87.364C73.3093 84.5548 75.5866 82.2774 78.3959 82.2774C81.2051 82.2774 83.4824 84.5548 83.4824 87.364C83.4824 90.1732 81.2051 92.4506 78.3959 92.4506C75.5866 92.4506 73.3093 90.1732 73.3093 87.364Z" fill="white"/>
<path fill-rule="evenodd" clip-rule="evenodd" d="M35.4452 25.5103C35.4452 24.8763 35.9591 24.3623 36.5931 24.3623H45.5445C46.1785 24.3623 46.6924 24.8763 46.6924 25.5103V34.7301C46.6924 35.3642 46.1785 35.8781 45.5445 35.8781H36.5931C35.9591 35.8781 35.4452 35.3642 35.4452 34.7301V25.5103ZM37.025 25.9421V34.2983H45.1126V25.9421H37.025ZM14.4111 61.8684L14.4786 27.6963L16.0585 27.6994L15.9909 61.8684H36.1613V49.079C36.1613 46.8977 37.9296 45.1294 40.1109 45.1294H42.3848C44.5661 45.1294 46.3344 46.8977 46.3344 49.079V61.8684H66.4168V27.6978H67.9966V44.6818H86.1542C87.6799 44.6818 89.0692 45.5606 89.7229 46.9392L97.9836 64.3603V81.093C98.7197 81.4019 99.2368 82.1295 99.2368 82.9778V84.5443C99.2368 86.5378 97.6207 88.1539 95.6272 88.1539H89.0034C88.5992 93.6593 84.0045 98.0004 78.3959 98.0004C72.7872 98.0004 68.1925 93.6593 67.7884 88.1539H41.9193C41.5152 93.6593 36.9205 98.0004 31.3118 98.0004C25.7032 98.0004 21.1085 93.6593 20.7044 88.1539H15.6737C13.4924 88.1539 11.7241 86.3856 11.7241 84.2043V82.2477C10.1355 81.8883 8.94922 80.4681 8.94922 78.7707V65.818C8.94922 63.6367 10.7175 61.8684 12.8988 61.8684H14.4111ZM13.304 82.3355V84.2043C13.304 85.5131 14.3649 86.5741 15.6737 86.5741H20.7044C21.1085 81.0686 25.7032 76.7276 31.3118 76.7276C36.9205 76.7276 41.5152 81.0686 41.9193 86.5741H67.7884C68.1925 81.0686 72.7872 76.7276 78.3959 76.7276C84.0045 76.7276 88.5992 81.0686 89.0034 86.5741H95.6272C96.7482 86.5741 97.6569 85.6653 97.6569 84.5443V82.9778C97.6569 82.722 97.4495 82.5146 97.1937 82.5146H94.1502V80.9347H96.4038V65.3163L79.9001 65.0687C79.4389 65.0618 78.9794 65.0128 78.5271 64.9223L78.2011 64.8571C77.5444 64.7258 76.916 64.4799 76.3446 64.1307C75.6807 63.725 75.1069 63.1879 74.6582 62.5523L74.5638 62.4186C74.2652 61.9955 74.0193 61.5376 73.8316 61.055C73.5456 60.3194 73.3988 59.5372 73.3988 58.748V46.2617H67.9966V70.5355H66.4168V63.4482H12.8988C11.59 63.4482 10.5291 64.5092 10.5291 65.818V78.7707C10.5291 79.867 11.4178 80.7557 12.514 80.7557H16.9897V82.3355H13.304ZM74.9787 46.2617V58.748C74.9787 59.3413 75.089 59.9294 75.304 60.4824C75.4451 60.8452 75.63 61.1894 75.8545 61.5075L75.9489 61.6412C76.2733 62.1009 76.6883 62.4893 77.1684 62.7827C77.5816 63.0352 78.0361 63.213 78.5109 63.308L78.837 63.3732C79.195 63.4448 79.5587 63.4836 79.9238 63.489L95.9359 63.7292L88.2954 47.6161C87.9032 46.7889 87.0696 46.2617 86.1542 46.2617H74.9787ZM44.7546 61.8684V49.079C44.7546 47.7702 43.6936 46.7092 42.3848 46.7092H40.1109C38.8021 46.7092 37.7411 47.7702 37.7411 49.079V61.8684H44.7546ZM19.8196 38.6687C19.8196 38.0347 20.3336 37.5208 20.9676 37.5208H29.9189C30.5529 37.5208 31.0669 38.0347 31.0669 38.6687V47.8886C31.0669 48.5226 30.5529 49.0366 29.9189 49.0366H20.9676C20.3336 49.0366 19.8196 48.5226 19.8196 47.8886V38.6687ZM21.3994 39.1006V47.4567H29.487V39.1006H21.3994ZM50.7519 39.0268C50.7519 38.3928 51.2659 37.8788 51.8999 37.8788H60.8512C61.4852 37.8788 61.9992 38.3928 61.9992 39.0268V48.2467C61.9992 48.8807 61.4852 49.3946 60.8512 49.3946H51.8999C51.2659 49.3946 50.7519 48.8807 50.7519 48.2467V39.0268ZM52.3318 39.4587V47.8148H60.4194V39.4587H52.3318ZM31.3118 78.3074C26.3101 78.3074 22.2553 82.3622 22.2553 87.364C22.2553 92.3658 26.3101 96.4205 31.3118 96.4205C36.3136 96.4205 40.3684 92.3658 40.3684 87.364C40.3684 82.3622 36.3136 78.3074 31.3118 78.3074ZM78.3959 78.3074C73.3941 78.3074 69.3393 82.3622 69.3393 87.364C69.3393 92.3658 73.3941 96.4205 78.3959 96.4205C83.3977 96.4205 87.4524 92.3658 87.4524 87.364C87.4524 82.3622 83.3977 78.3074 78.3959 78.3074ZM31.1328 83.8573C29.1961 83.8573 27.6261 85.4273 27.6261 87.364C27.6261 89.3007 29.1961 90.8707 31.1328 90.8707C33.0695 90.8707 34.6395 89.3007 34.6395 87.364C34.6395 85.4273 33.0695 83.8573 31.1328 83.8573ZM26.0463 87.364C26.0463 84.5548 28.3236 82.2774 31.1328 82.2774C33.942 82.2774 36.2194 84.5548 36.2194 87.364C36.2194 90.1732 33.9421 92.4506 31.1328 92.4506C28.3236 92.4506 26.0463 90.1732 26.0463 87.364ZM78.3959 83.8573C76.4592 83.8573 74.8891 85.4273 74.8891 87.364C74.8891 89.3007 76.4592 90.8707 78.3959 90.8707C80.3326 90.8707 81.9026 89.3007 81.9026 87.364C81.9026 85.4273 80.3326 83.8573 78.3959 83.8573ZM73.3093 87.364C73.3093 84.5548 75.5866 82.2774 78.3959 82.2774C81.2051 82.2774 83.4824 84.5548 83.4824 87.364C83.4824 90.1732 81.2051 92.4506 78.3959 92.4506C75.5866 92.4506 73.3093 90.1732 73.3093 87.364Z" stroke="#0084FF" stroke-width="0.2"/>
</g>
<g filter="url(#filter2_d_609_12132)">
<path d="M41.742 4.79822C41.055 4.3186 40.142 4.31796 39.4544 4.79663L5.85733 28.1849C5.3202 28.5588 5 29.1718 5 29.8263V31.7766C5 33.3905 6.8131 34.3397 8.13945 33.4202L10.1455 32.0296L39.4576 11.7093C40.1438 11.2336 41.0532 11.2342 41.7388 11.7109L71.1569 32.165L72.9507 33.4122C74.2768 34.3343 76.0924 33.3853 76.0924 31.7701V29.8245C76.0924 29.171 75.7732 28.5588 75.2374 28.1847L41.742 4.79822Z" fill="url(#paint0_linear_609_12132)"/>
<path d="M41.742 4.79822C41.055 4.3186 40.142 4.31796 39.4544 4.79663L5.85733 28.1849C5.3202 28.5588 5 29.1718 5 29.8263V31.7766C5 33.3905 6.8131 34.3397 8.13945 33.4202L10.1455 32.0296L39.4576 11.7093C40.1438 11.2336 41.0532 11.2342 41.7388 11.7109L71.1569 32.165L72.9507 33.4122C74.2768 34.3343 76.0924 33.3853 76.0924 31.7701V29.8245C76.0924 29.171 75.7732 28.5588 75.2374 28.1847L41.742 4.79822Z" stroke="#07F6F9" stroke-width="0.2"/>
</g>
</g>
<defs>
<filter id="filter0_d_609_12132" x="0.898438" y="0.337891" width="102.438" height="101.763" filterUnits="userSpaceOnUse" color-interpolation-filters="sRGB">
<feFlood flood-opacity="0" result="BackgroundImageFix"/>
<feColorMatrix in="SourceAlpha" type="matrix" values="0 0 0 0 0 0 0 0 0 0 0 0 0 0 0 0 0 0 127 0" result="hardAlpha"/>
<feOffset/>
<feGaussianBlur stdDeviation="2"/>
<feComposite in2="hardAlpha" operator="out"/>
<feColorMatrix type="matrix" values="0 0 0 0 0.164706 0 0 0 0 0.964706 0 0 0 0 1 0 0 0 0.15 0"/>
<feBlend mode="normal" in2="BackgroundImageFix" result="effect1_dropShadow_609_12132"/>
<feBlend mode="normal" in="SourceGraphic" in2="effect1_dropShadow_609_12132" result="shape"/>
</filter>
<filter id="filter1_d_609_12132" x="4.84766" y="20.2627" width="98.4883" height="81.8379" filterUnits="userSpaceOnUse" color-interpolation-filters="sRGB">
<feFlood flood-opacity="0" result="BackgroundImageFix"/>
<feColorMatrix in="SourceAlpha" type="matrix" values="0 0 0 0 0 0 0 0 0 0 0 0 0 0 0 0 0 0 127 0" result="hardAlpha"/>
<feOffset/>
<feGaussianBlur stdDeviation="2"/>
<feComposite in2="hardAlpha" operator="out"/>
<feColorMatrix type="matrix" values="0 0 0 0 0.164706 0 0 0 0 0.964706 0 0 0 0 1 0 0 0 0.15 0"/>
<feBlend mode="normal" in2="BackgroundImageFix" result="effect1_dropShadow_609_12132"/>
<feBlend mode="normal" in="SourceGraphic" in2="effect1_dropShadow_609_12132" result="shape"/>
</filter>
<filter id="filter2_d_609_12132" x="0.898438" y="0.337891" width="79.293" height="37.542" filterUnits="userSpaceOnUse" color-interpolation-filters="sRGB">
<feFlood flood-opacity="0" result="BackgroundImageFix"/>
<feColorMatrix in="SourceAlpha" type="matrix" values="0 0 0 0 0 0 0 0 0 0 0 0 0 0 0 0 0 0 127 0" result="hardAlpha"/>
<feOffset/>
<feGaussianBlur stdDeviation="2"/>
<feComposite in2="hardAlpha" operator="out"/>
<feColorMatrix type="matrix" values="0 0 0 0 0.164706 0 0 0 0 0.964706 0 0 0 0 1 0 0 0 0.15 0"/>
<feBlend mode="normal" in2="BackgroundImageFix" result="effect1_dropShadow_609_12132"/>
<feBlend mode="normal" in="SourceGraphic" in2="effect1_dropShadow_609_12132" result="shape"/>
</filter>
<linearGradient id="paint0_linear_609_12132" x1="16.7138" y1="-12.4016" x2="81.0053" y2="83.3716" gradientUnits="userSpaceOnUse">
<stop stop-color="#AFFEFF"/>
<stop offset="1" stop-color="#3CFDFF"/>
</linearGradient>
</defs>
</svg>
