<svg width="1779" height="857" viewBox="0 0 1779 857" fill="none" xmlns="http://www.w3.org/2000/svg">
    <g opacity="0.6">
        <path opacity="0.3" d="M613.864 101.91C602.043 108.726 601.909 119.818 613.686 126.633L856.797 267.709C868.529 274.524 887.711 274.524 899.532 267.709L1065.83 171.847C1077.65 165.031 1077.74 153.984 1065.96 147.169L822.851 6.09304C811.119 -0.72242 791.982 -0.72242 780.161 6.09304L613.864 101.955V101.91Z" fill="url(#paint0_linear_75_17919)"/>
        <path d="M681.702 388.733C699.169 398.803 699.366 415.192 681.966 425.263L322.75 633.712C305.415 643.783 277.073 643.783 259.607 633.712L13.8896 492.069C-3.57685 481.999 -3.70866 465.676 13.6919 455.605L372.908 247.155C390.243 237.085 418.519 237.085 435.985 247.155L681.702 388.799V388.733Z" fill="url(#paint1_linear_75_17919)"/>
        <path d="M1180.46 433.568C1165.13 442.405 1164.96 456.786 1180.23 465.623L1495.44 648.537C1510.65 657.373 1535.52 657.373 1550.85 648.537L1766.46 524.245C1781.79 515.409 1781.9 501.085 1766.64 492.248L1451.43 309.335C1436.21 300.498 1411.4 300.498 1396.08 309.335L1180.46 433.626V433.568Z" fill="url(#paint2_linear_75_17919)"/>
        <path opacity="0.3" d="M600.414 656.951C583.899 666.47 583.712 681.962 600.164 691.481L884.441 859.842C900.831 869.361 927.628 869.361 944.143 859.842L1176.47 725.95C1192.98 716.431 1193.11 701.001 1176.66 691.481L892.378 523.121C875.988 513.602 849.253 513.602 832.738 523.121L600.414 657.013V656.951Z" fill="url(#paint3_linear_75_17919)"/>
    </g>
    <defs>
        <linearGradient id="paint0_linear_75_17919" x1="452.511" y1="340.36" x2="1022.67" y2="-8.98628" gradientUnits="userSpaceOnUse">
            <stop stop-color="#0936DE"/>
            <stop offset="1" stop-color="#28B1FE"/>
        </linearGradient>
        <linearGradient id="paint1_linear_75_17919" x1="920.114" y1="741.061" x2="77.6616" y2="224.874" gradientUnits="userSpaceOnUse">
            <stop stop-color="#062150"/>
            <stop offset="1" stop-color="#051C4A"/>
        </linearGradient>
        <linearGradient id="paint2_linear_75_17919" x1="971.255" y1="742.734" x2="1710.5" y2="289.783" gradientUnits="userSpaceOnUse">
            <stop stop-color="#08284F"/>
            <stop offset="1" stop-color="#062C6D"/>
        </linearGradient>
        <linearGradient id="paint3_linear_75_17919" x1="392.955" y1="954.19" x2="1126.01" y2="509.205" gradientUnits="userSpaceOnUse">
            <stop stop-color="#0936DE"/>
            <stop offset="1" stop-color="#28B1FE"/>
        </linearGradient>
    </defs>
</svg>
