<svg width="64" height="68" viewBox="0 0 64 68" fill="none" xmlns="http://www.w3.org/2000/svg">
    <g filter="url(#filter0_d_1_18879)">
        <path fill-rule="evenodd" clip-rule="evenodd" d="M18.6662 52.1422L18.6647 52.14C17.1028 49.8773 15.7516 47.5846 14.616 45.2824C16.8384 45.8413 19.4569 46.2599 22.4837 46.4865C31.0373 47.1269 36.6657 46.9462 38.4383 46.7711C38.6874 46.7485 38.9498 46.7223 39.2239 46.6927C38.2509 48.5207 37.1425 50.3401 35.9015 52.1406L35.9 52.1428C33.4123 55.7734 30.6158 59.0394 27.5637 61.8825C27.4552 61.9757 27.3596 62 27.2915 62C27.2233 62 27.1276 61.9756 27.0189 61.8822C23.961 59.0402 21.159 55.7741 18.6662 52.1422ZM40.4283 46.5486C42.7909 46.24 45.7219 45.7107 48.429 44.9268C50.1973 44.4148 51.888 43.7891 53.2671 43.0354C54.4775 42.3739 55.499 41.5865 56.0973 40.6456L58.0181 41.2287C58.782 41.4606 59.4963 40.748 59.2661 39.9835L58.1281 36.2037C57.9364 35.567 57.1884 35.2913 56.6293 35.6511L53.0926 37.9276C52.3886 38.3808 52.5199 39.4468 53.3128 39.7155L55.1054 40.3232C54.6203 40.9729 53.83 41.5882 52.7876 42.1579C51.4966 42.8634 49.8819 43.465 48.1508 43.9663C45.7513 44.6611 43.1626 45.1533 40.9708 45.4653C43.8471 39.5481 45.3455 33.5449 45.3455 27.7859C45.3401 21.7448 43.4353 15.9531 40.0492 11.6814C36.6631 7.40971 32.072 5.00685 27.2833 5C22.4946 5.00685 17.9035 7.40971 14.5174 11.6814C11.1312 15.9531 9.22652 21.7448 9.22109 27.7859C9.22109 29.7939 9.40274 31.8316 9.76133 33.885C8.96286 34.226 8.14158 34.6373 7.41444 35.1067C6.67396 35.5848 5.999 36.1433 5.55274 36.7765C5.09972 37.4193 4.86261 38.1722 5.08391 38.9837C5.56968 40.7648 7.30278 42.4361 10.152 43.7517C11.0841 44.1821 12.145 44.579 13.3371 44.9327C14.5714 47.5489 16.0761 50.1501 17.8417 52.7081C20.377 56.4019 23.2305 59.7281 26.3494 62.6251C26.6255 62.8691 26.9544 63 27.2915 63C27.6286 63 27.9575 62.8691 28.2336 62.6251C31.3468 59.7269 34.1947 56.4007 36.7249 52.7081C38.1245 50.6775 39.3607 48.6196 40.4283 46.5486ZM14.0512 44.0979C16.3643 44.7457 19.1912 45.2372 22.5583 45.4893C31.0819 46.1274 36.6491 45.9432 38.3419 45.7758L38.3458 45.7754C38.784 45.7356 39.2644 45.6848 39.7776 45.6226C42.7897 39.6289 44.3453 33.5638 44.3455 27.7868C44.3402 21.9451 42.4965 16.3786 39.2655 12.3026C36.0395 8.23288 31.722 6.00683 27.2833 6C22.8446 6.00683 18.5271 8.23288 15.301 12.3026C12.0701 16.3785 10.2264 21.9448 10.2211 27.7864C10.2211 29.6668 10.3855 31.5777 10.7111 33.5067C11.1956 33.3271 11.6516 33.1781 12.049 33.0628L12.3276 34.0232C11.9038 34.1462 11.4124 34.3089 10.8939 34.5062C11.5188 37.6787 12.5758 40.8942 14.0512 44.0979ZM9.95123 34.8926C10.5429 37.818 11.4904 40.7704 12.7803 43.7096C11.9699 43.44 11.234 43.1498 10.5712 42.8438C7.82586 41.5762 6.4192 40.0791 6.04867 38.7205C5.92745 38.276 6.03523 37.8278 6.37013 37.3526C6.71179 36.8678 7.26776 36.3917 7.95682 35.9469C8.57002 35.551 9.26324 35.1959 9.95123 34.8926ZM58.3086 40.2718L56.0125 39.5748L53.6339 38.7685L57.1706 36.492L58.3086 40.2718Z" fill="white"/>
        <path d="M18.6647 52.14L18.747 52.0832L18.747 52.0832L18.6647 52.14ZM18.6662 52.1422L18.7486 52.0856L18.7485 52.0854L18.6662 52.1422ZM14.616 45.2824L14.6404 45.1854L14.4307 45.1327L14.5264 45.3266L14.616 45.2824ZM22.4837 46.4865L22.4911 46.3868L22.4837 46.4865ZM38.4383 46.7711L38.4293 46.6715L38.4285 46.6716L38.4383 46.7711ZM39.2239 46.6927L39.3122 46.7397L39.401 46.5729L39.2132 46.5933L39.2239 46.6927ZM35.9015 52.1406L35.8192 52.0838L35.8191 52.0839L35.9015 52.1406ZM35.9 52.1428L35.8175 52.0862L35.8175 52.0863L35.9 52.1428ZM27.5637 61.8825L27.6289 61.9584L27.6319 61.9557L27.5637 61.8825ZM27.0189 61.8822L26.9508 61.9555L26.9538 61.958L27.0189 61.8822ZM48.429 44.9268L48.4011 44.8308L48.429 44.9268ZM40.4283 46.5486L40.4153 46.4494L40.3634 46.4562L40.3394 46.5027L40.4283 46.5486ZM53.2671 43.0354L53.2192 42.9476L53.2671 43.0354ZM56.0973 40.6456L56.1263 40.5499L56.0536 40.5278L56.0129 40.5919L56.0973 40.6456ZM58.0181 41.2287L57.9891 41.3244L58.0181 41.2287ZM59.2661 39.9835L59.3619 39.9547L59.2661 39.9835ZM58.1281 36.2037L58.2239 36.1748L58.1281 36.2037ZM56.6293 35.6511L56.6834 35.7352V35.7352L56.6293 35.6511ZM53.0926 37.9276L53.1467 38.0117L53.0926 37.9276ZM53.3128 39.7155L53.2807 39.8103L53.3128 39.7155ZM55.1054 40.3232L55.1855 40.383L55.2679 40.2727L55.1375 40.2285L55.1054 40.3232ZM52.7876 42.1579L52.7396 42.0701L52.7876 42.1579ZM48.1508 43.9663L48.123 43.8703L48.1508 43.9663ZM40.9708 45.4653L40.8808 45.4215L40.7986 45.5908L40.9849 45.5643L40.9708 45.4653ZM45.3455 27.7859H45.4455V27.7859L45.3455 27.7859ZM40.0492 11.6814L39.9708 11.7435L40.0492 11.6814ZM27.2833 5L27.2834 4.9L27.2831 4.9L27.2833 5ZM14.5174 11.6814L14.5957 11.7435L14.5174 11.6814ZM9.22109 27.7859L9.12109 27.7859V27.7859H9.22109ZM9.76133 33.885L9.8006 33.977L9.87347 33.9458L9.85984 33.8678L9.76133 33.885ZM7.41444 35.1067L7.46868 35.1907H7.46868L7.41444 35.1067ZM5.55274 36.7765L5.471 36.7189H5.471L5.55274 36.7765ZM5.08391 38.9837L4.98743 39.01H4.98743L5.08391 38.9837ZM10.152 43.7517L10.1939 43.6609L10.152 43.7517ZM13.3371 44.9327L13.4276 44.89L13.4085 44.8496L13.3656 44.8368L13.3371 44.9327ZM17.8417 52.7081L17.9241 52.6515L17.924 52.6513L17.8417 52.7081ZM26.3494 62.6251L26.2813 62.6984L26.2832 62.7001L26.3494 62.6251ZM28.2336 62.6251L28.2999 62.7001L28.3017 62.6983L28.2336 62.6251ZM36.7249 52.7081L36.6426 52.6513L36.6424 52.6515L36.7249 52.7081ZM14.0512 44.0979L13.9603 44.1397L13.9797 44.1817L14.0242 44.1941L14.0512 44.0979ZM22.5583 45.4893L22.5509 45.589L22.5583 45.4893ZM38.3419 45.7758L38.3324 45.6762L38.332 45.6763L38.3419 45.7758ZM38.3458 45.7754L38.3368 45.6758L38.3364 45.6759L38.3458 45.7754ZM39.7776 45.6226L39.7896 45.7219L39.8429 45.7154L39.867 45.6675L39.7776 45.6226ZM44.3455 27.7868L44.4455 27.7868V27.7868L44.3455 27.7868ZM39.2655 12.3026L39.1872 12.3647L39.2655 12.3026ZM27.2833 6L27.2834 5.9L27.2831 5.9L27.2833 6ZM15.301 12.3026L15.2227 12.2405L15.301 12.3026ZM10.2211 27.7864L10.1211 27.7863V27.7864L10.2211 27.7864ZM10.7111 33.5067L10.6125 33.5233L10.6326 33.6424L10.7458 33.6005L10.7111 33.5067ZM12.049 33.0628L12.1451 33.035L12.1172 32.9389L12.0212 32.9668L12.049 33.0628ZM12.3276 34.0232L12.3555 34.1193L12.4515 34.0914L12.4237 33.9954L12.3276 34.0232ZM10.8939 34.5062L10.8583 34.4128L10.7795 34.4428L10.7958 34.5255L10.8939 34.5062ZM9.95123 34.8926L10.0492 34.8728L10.0246 34.751L9.9109 34.8011L9.95123 34.8926ZM12.7803 43.7096L12.7487 43.8045L12.9623 43.8756L12.8718 43.6694L12.7803 43.7096ZM10.5712 42.8438L10.6131 42.753L10.5712 42.8438ZM6.04867 38.7205L6.14515 38.6942L6.04867 38.7205ZM6.37013 37.3526L6.28839 37.295H6.28839L6.37013 37.3526ZM7.95682 35.9469L7.90258 35.8628L7.95682 35.9469ZM56.0125 39.5748L55.9804 39.6696L55.9834 39.6705L56.0125 39.5748ZM58.3086 40.2718L58.2795 40.3675L58.4582 40.4217L58.4043 40.243L58.3086 40.2718ZM53.6339 38.7685L53.5797 38.6844L53.4054 38.7966L53.6017 38.8632L53.6339 38.7685ZM57.1706 36.492L57.2663 36.4631L57.2281 36.336L57.1164 36.4079L57.1706 36.492ZM18.5824 52.1968L18.5838 52.1989L18.7485 52.0854L18.747 52.0832L18.5824 52.1968ZM14.5264 45.3266C15.6642 47.6334 17.0179 49.9303 18.5824 52.1968L18.747 52.0832C17.1877 49.8242 15.839 47.5358 14.7057 45.2382L14.5264 45.3266ZM22.4911 46.3868C19.4691 46.1606 16.8564 45.7427 14.6404 45.1854L14.5916 45.3794C16.8205 45.9399 19.4447 46.3593 22.4762 46.5862L22.4911 46.3868ZM38.4285 46.6716C36.6636 46.8459 31.0414 47.0269 22.4911 46.3868L22.4762 46.5862C31.0331 47.2269 36.6677 47.0464 38.4481 46.8706L38.4285 46.6716ZM39.2132 46.5933C38.9396 46.6229 38.6777 46.6489 38.4293 46.6715L38.4474 46.8707C38.697 46.848 38.96 46.8218 39.2347 46.7921L39.2132 46.5933ZM35.9839 52.1973C37.2269 50.3938 38.3373 48.5712 39.3122 46.7397L39.1357 46.6457C38.1645 48.4702 37.0581 50.2863 35.8192 52.0838L35.9839 52.1973ZM35.9824 52.1994L35.984 52.1972L35.8191 52.0839L35.8175 52.0862L35.9824 52.1994ZM27.6319 61.9557C30.6896 59.1073 33.4909 55.8357 35.9825 52.1993L35.8175 52.0863C33.3337 55.7112 30.542 58.9715 27.4956 61.8093L27.6319 61.9557ZM27.2915 62.1C27.3854 62.1 27.5037 62.0658 27.6289 61.9584L27.4986 61.8066C27.4067 61.8855 27.3339 61.9 27.2915 61.9V62.1ZM26.9538 61.958C27.0791 62.0658 27.1975 62.1 27.2915 62.1V61.9C27.2491 61.9 27.1761 61.8855 27.0841 61.8064L26.9538 61.958ZM18.5837 52.1988C21.0805 55.8364 23.8873 59.1082 26.9509 61.9555L27.087 61.809C24.0348 58.9722 21.2375 55.7117 18.7486 52.0856L18.5837 52.1988ZM48.4011 44.8308C45.7004 45.6128 42.7746 46.1413 40.4153 46.4494L40.4412 46.6477C42.8072 46.3387 45.7435 45.8086 48.4568 45.0229L48.4011 44.8308ZM53.2192 42.9476C51.8488 43.6965 50.1657 44.3198 48.4011 44.8308L48.4568 45.0229C50.2288 44.5098 51.9271 43.8817 53.3151 43.1231L53.2192 42.9476ZM56.0129 40.5919C55.4277 41.5122 54.4232 42.2896 53.2192 42.9476L53.3151 43.1231C54.5318 42.4582 55.5703 41.6608 56.1817 40.6993L56.0129 40.5919ZM58.0472 41.133L56.1263 40.5499L56.0682 40.7413L57.9891 41.3244L58.0472 41.133ZM59.1704 40.0124C59.3775 40.7003 58.7347 41.3417 58.0472 41.133L57.9891 41.3244C58.8293 41.5795 59.6151 40.7956 59.3619 39.9547L59.1704 40.0124ZM58.0324 36.2325L59.1704 40.0124L59.3619 39.9547L58.2239 36.1748L58.0324 36.2325ZM56.6834 35.7352C57.1866 35.4113 57.8598 35.6595 58.0324 36.2325L58.2239 36.1748C58.013 35.4745 57.1902 35.1712 56.5752 35.567L56.6834 35.7352ZM53.1467 38.0117L56.6834 35.7352L56.5752 35.567L53.0385 37.8435L53.1467 38.0117ZM53.3449 39.6208C52.6313 39.3789 52.5131 38.4195 53.1467 38.0117L53.0385 37.8435C52.2641 38.342 52.4085 39.5146 53.2807 39.8103L53.3449 39.6208ZM55.1375 40.2285L53.3449 39.6208L53.2807 39.8103L55.0733 40.4179L55.1375 40.2285ZM52.8355 42.2456C53.8843 41.6725 54.6884 41.0488 55.1855 40.383L55.0253 40.2634C54.5522 40.8969 53.7757 41.5039 52.7396 42.0701L52.8355 42.2456ZM48.1786 44.0624C49.9135 43.56 51.5357 42.956 52.8355 42.2456L52.7396 42.0701C51.4574 42.7708 49.8504 43.3701 48.123 43.8703L48.1786 44.0624ZM40.9849 45.5643C43.1798 45.2518 45.7734 44.7588 48.1786 44.0624L48.123 43.8703C45.7293 44.5634 43.1454 45.0547 40.9567 45.3663L40.9849 45.5643ZM41.0607 45.509C43.9427 39.5804 45.4455 33.5623 45.4455 27.7859H45.2455C45.2455 33.5276 43.7516 39.5159 40.8808 45.4215L41.0607 45.509ZM45.4455 27.7859C45.44 21.7248 43.5292 15.9106 40.1276 11.6193L39.9708 11.7435C43.3415 15.9957 45.2401 21.7649 45.2455 27.786L45.4455 27.7859ZM40.1276 11.6193C36.7254 7.32744 32.1071 4.9069 27.2834 4.9L27.2831 5.1C32.0369 5.1068 36.6007 7.49198 39.9708 11.7435L40.1276 11.6193ZM27.2831 4.9C22.4595 4.9069 17.8411 7.32744 14.439 11.6193L14.5957 11.7435C17.9659 7.49198 22.5297 5.1068 27.2834 5.1L27.2831 4.9ZM14.439 11.6193C11.0374 15.9106 9.12654 21.7248 9.12109 27.7859L9.32109 27.786C9.3265 21.7649 11.2251 15.9957 14.5957 11.7435L14.439 11.6193ZM9.12109 27.7859C9.12109 29.8 9.30329 31.8434 9.66282 33.9022L9.85984 33.8678C9.5022 31.8198 9.32109 29.7879 9.32109 27.7859H9.12109ZM7.46868 35.1907C8.18976 34.7252 9.00569 34.3164 9.8006 33.977L9.72206 33.793C8.92003 34.1355 8.0934 34.5494 7.3602 35.0227L7.46868 35.1907ZM5.63448 36.8341C6.07028 36.2158 6.73334 35.6655 7.46868 35.1907L7.3602 35.0227C6.61457 35.5041 5.92772 36.0709 5.471 36.7189L5.63448 36.8341ZM5.18038 38.9573C4.96912 38.1827 5.1932 37.4603 5.63448 36.8341L5.471 36.7189C5.00625 37.3783 4.7561 38.1618 4.98743 39.01L5.18038 38.9573ZM10.1939 43.6609C7.35504 42.3501 5.65462 40.6962 5.18038 38.9573L4.98743 39.01C5.48473 40.8334 7.25051 42.5221 10.11 43.8424L10.1939 43.6609ZM13.3656 44.8368C12.1775 44.4844 11.1211 44.089 10.1939 43.6609L10.11 43.8424C11.0471 44.2751 12.1126 44.6737 13.3087 45.0286L13.3656 44.8368ZM13.2467 44.9754C14.4834 47.5967 15.9909 50.2027 17.7594 52.7649L17.924 52.6513C16.1613 50.0975 14.6593 47.501 13.4276 44.89L13.2467 44.9754ZM17.7592 52.7647C20.2985 56.4642 23.1568 59.7961 26.2813 62.6984L26.4174 62.5519C23.3042 59.6601 20.4555 56.3395 17.9241 52.6515L17.7592 52.7647ZM26.2832 62.7001C26.5757 62.9586 26.9277 63.1 27.2915 63.1V62.9C26.9811 62.9 26.6753 62.7797 26.4156 62.5502L26.2832 62.7001ZM27.2915 63.1C27.6553 63.1 28.0073 62.9586 28.2998 62.7001L28.1674 62.5502C27.9077 62.7797 27.6019 62.9 27.2915 62.9V63.1ZM28.3017 62.6983C31.4206 59.7948 34.2733 56.463 36.8074 52.7646L36.6424 52.6515C34.1162 56.3384 31.273 59.6589 28.1655 62.5519L28.3017 62.6983ZM36.8072 52.7648C38.2091 50.7309 39.4475 48.6693 40.5172 46.5944L40.3394 46.5027C39.2738 48.5698 38.0398 50.6241 36.6426 52.6513L36.8072 52.7648ZM14.0242 44.1941C16.3449 44.8441 19.1785 45.3366 22.5509 45.589L22.5658 45.3896C19.204 45.1379 16.3838 44.6473 14.0781 44.0016L14.0242 44.1941ZM22.5509 45.589C31.0777 46.2274 36.6511 46.0435 38.3517 45.8753L38.332 45.6763C36.647 45.8429 31.086 46.0275 22.5658 45.3896L22.5509 45.589ZM38.3513 45.8753L38.3553 45.875L38.3364 45.6759L38.3324 45.6762L38.3513 45.8753ZM38.3549 45.875C38.7941 45.8351 39.2755 45.7841 39.7896 45.7219L39.7656 45.5233C39.2533 45.5854 38.7739 45.6361 38.3368 45.6758L38.3549 45.875ZM39.867 45.6675C42.8849 39.6621 44.4453 33.5818 44.4455 27.7868L44.2455 27.7868C44.2453 33.5458 42.6945 39.5956 39.6882 45.5777L39.867 45.6675ZM44.4455 27.7868C44.4402 21.9251 42.5904 16.336 39.3439 12.2405L39.1872 12.3647C42.4026 16.4211 44.2403 21.9651 44.2455 27.7869L44.4455 27.7868ZM39.3439 12.2405C36.1019 8.15059 31.7571 5.90688 27.2834 5.9L27.2831 6.1C31.6869 6.10678 35.9771 8.31517 39.1872 12.3647L39.3439 12.2405ZM27.2831 5.9C22.8095 5.90688 18.4647 8.15059 15.2227 12.2405L15.3794 12.3647C18.5895 8.31517 22.8797 6.10678 27.2834 6.1L27.2831 5.9ZM15.2227 12.2405C11.9763 16.3359 10.1265 21.9248 10.1211 27.7863L10.3211 27.7865C10.3264 21.9649 12.164 16.421 15.3794 12.3647L15.2227 12.2405ZM10.1211 27.7864C10.1211 29.6726 10.286 31.5891 10.6125 33.5233L10.8097 33.4901C10.485 31.5663 10.3211 29.661 10.3211 27.7864L10.1211 27.7864ZM10.7458 33.6005C11.2281 33.4217 11.6819 33.2735 12.0769 33.1589L12.0212 32.9668C11.6213 33.0828 11.163 33.2326 10.6763 33.4129L10.7458 33.6005ZM11.953 33.0907L12.2316 34.0511L12.4237 33.9954L12.1451 33.035L11.953 33.0907ZM12.2998 33.9272C11.8733 34.0509 11.3793 34.2145 10.8583 34.4128L10.9295 34.5997C11.4455 34.4033 11.9343 34.2414 12.3555 34.1193L12.2998 33.9272ZM10.7958 34.5255C11.4224 37.7065 12.4819 40.9294 13.9603 44.1397L14.142 44.056C12.6697 40.8589 11.6153 37.651 10.992 34.4869L10.7958 34.5255ZM9.85322 34.9125C10.4464 37.8453 11.3962 40.8045 12.6887 43.7498L12.8718 43.6694C11.5847 40.7362 10.6394 37.7906 10.0492 34.8728L9.85322 34.9125ZM10.5292 42.9346C11.1958 43.2423 11.9352 43.5338 12.7487 43.8045L12.8118 43.6147C12.0046 43.3462 11.2722 43.0573 10.6131 42.753L10.5292 42.9346ZM5.9522 38.7468C6.33424 40.1477 7.7735 41.6621 10.5292 42.9346L10.6131 42.753C7.87822 41.4902 6.50416 40.0106 6.14515 38.6942L5.9522 38.7468ZM6.28839 37.295C5.94156 37.7871 5.82101 38.2658 5.9522 38.7468L6.14515 38.6942C6.03389 38.2863 6.12891 37.8685 6.45187 37.4102L6.28839 37.295ZM7.90258 35.8628C7.20839 36.311 6.64051 36.7954 6.28839 37.295L6.45187 37.4102C6.78306 36.9403 7.32713 36.4724 8.01106 36.0309L7.90258 35.8628ZM9.9109 34.8011C9.21955 35.1059 8.52139 35.4634 7.90258 35.8628L8.01106 36.0309C8.61866 35.6386 9.30692 35.2859 9.99157 34.9841L9.9109 34.8011ZM55.9834 39.6705L58.2795 40.3675L58.3376 40.1761L56.0415 39.4791L55.9834 39.6705ZM53.6017 38.8632L55.9804 39.6695L56.0446 39.4801L53.666 38.6738L53.6017 38.8632ZM57.1164 36.4079L53.5797 38.6844L53.688 38.8526L57.2247 36.5761L57.1164 36.4079ZM58.4043 40.243L57.2663 36.4631L57.0748 36.5208L58.2128 40.3007L58.4043 40.243Z" fill="#0084FF"/>
        <path d="M31.0183 14.7051C28.8623 14.7051 26.8304 15.2363 25.0463 16.1749C25.5203 17.0437 26.5725 18.7907 26.9896 18.8286C27.511 18.876 29.0751 18.402 29.6912 18.6864C30.4942 19.057 31.7767 22.3833 32.3928 22.4781C33.009 22.5729 33.7673 22.8099 34.9996 21.9568C36.2319 21.1036 39.7867 21.5302 40.4028 21.2932C40.8958 21.1036 41.5263 20.7087 41.78 20.5349C39.4873 17.0247 35.5237 14.7051 31.0183 14.7051Z" fill="url(#paint0_linear_1_18879)"/>
        <path d="M31.0183 40.3941C38.1121 40.3941 43.8628 34.6434 43.8628 27.5496L40.4028 25.6537C39.9921 25.3851 38.9241 25.1039 37.9382 26.1277C36.7059 27.4074 36.4215 28.2131 34.6205 28.1657C32.8194 28.1183 30.6865 26.7438 30.023 27.5496C29.4921 28.1942 29.8018 30.188 30.023 31.1043C30.2758 31.7521 30.7339 33.0802 30.023 33.5689C29.2646 34.0903 27.6532 35.0382 27.8901 36.5549C28.0797 37.7683 28.7591 39.5225 29.0751 40.248C29.7088 40.3442 30.3577 40.3941 31.0183 40.3941Z" fill="url(#paint1_linear_1_18879)"/>
        <path d="M18.1738 27.5496C18.1738 31.7646 20.2041 35.5054 23.3401 37.8474C24.3196 36.4844 26.1649 33.5121 25.7099 32.5262C25.1411 31.2939 22.4999 30.846 22.1551 29.7772C21.6812 28.3079 23.8614 26.412 23.1505 25.4641C22.5817 24.7058 20.0254 23.8526 18.8183 23.5209C18.4001 24.788 18.1738 26.1423 18.1738 27.5496Z" fill="url(#paint2_linear_1_18879)"/>
        <path fill-rule="evenodd" clip-rule="evenodd" d="M31.0183 39.8941C37.836 39.8941 43.3628 34.3672 43.3628 27.5496C43.3628 20.7319 37.836 15.2051 31.0183 15.2051C24.2006 15.2051 18.6738 20.7319 18.6738 27.5496C18.6738 34.3672 24.2006 39.8941 31.0183 39.8941ZM31.0183 40.3941C38.1121 40.3941 43.8628 34.6434 43.8628 27.5496C43.8628 20.4558 38.1121 14.7051 31.0183 14.7051C23.9245 14.7051 18.1738 20.4558 18.1738 27.5496C18.1738 34.6434 23.9245 40.3941 31.0183 40.3941Z" fill="url(#paint3_linear_1_18879)"/>
    </g>
    <defs>
        <filter id="filter0_d_1_18879" x="0.900391" y="0.900024" width="62.5098" height="66.2001" filterUnits="userSpaceOnUse" color-interpolation-filters="sRGB">
            <feFlood flood-opacity="0" result="BackgroundImageFix"/>
            <feColorMatrix in="SourceAlpha" type="matrix" values="0 0 0 0 0 0 0 0 0 0 0 0 0 0 0 0 0 0 127 0" result="hardAlpha"/>
            <feOffset/>
            <feGaussianBlur stdDeviation="2"/>
            <feComposite in2="hardAlpha" operator="out"/>
            <feColorMatrix type="matrix" values="0 0 0 0 0.164706 0 0 0 0 0.964706 0 0 0 0 1 0 0 0 0.15 0"/>
            <feBlend mode="normal" in2="BackgroundImageFix" result="effect1_dropShadow_1_18879"/>
            <feBlend mode="normal" in="SourceGraphic" in2="effect1_dropShadow_1_18879" result="shape"/>
        </filter>
        <linearGradient id="paint0_linear_1_18879" x1="23.5199" y1="8.80558" x2="38.7572" y2="45.8194" gradientUnits="userSpaceOnUse">
            <stop stop-color="white"/>
            <stop offset="1" stop-color="#00FCFF"/>
        </linearGradient>
        <linearGradient id="paint1_linear_1_18879" x1="23.5199" y1="8.80558" x2="38.7572" y2="45.8194" gradientUnits="userSpaceOnUse">
            <stop stop-color="white"/>
            <stop offset="1" stop-color="#00FCFF"/>
        </linearGradient>
        <linearGradient id="paint2_linear_1_18879" x1="23.5199" y1="8.80558" x2="38.7572" y2="45.8194" gradientUnits="userSpaceOnUse">
            <stop stop-color="white"/>
            <stop offset="1" stop-color="#00FCFF"/>
        </linearGradient>
        <linearGradient id="paint3_linear_1_18879" x1="23.5199" y1="8.80558" x2="38.7572" y2="45.8194" gradientUnits="userSpaceOnUse">
            <stop stop-color="white"/>
            <stop offset="1" stop-color="#00FCFF"/>
        </linearGradient>
    </defs>
</svg>
