<svg width="341" height="340" viewBox="0 0 341 340" fill="none" xmlns="http://www.w3.org/2000/svg">
    <g clip-path="url(#clip0_32_108)">
        <path d="M330.5 0H10.5C4.97715 0 0.5 4.47716 0.5 10V330C0.5 335.523 4.97716 340 10.5 340H330.5C336.023 340 340.5 335.523 340.5 330V10C340.5 4.47715 336.023 0 330.5 0Z" fill="#000B33"/>
        <g filter="url(#filter0_d_32_108)">
            <path d="M10.5 10H20.197V19.697H10.5V10ZM20.197 10H29.8939V19.697H20.197V10ZM29.8939 10H39.5909V19.697H29.8939V10ZM39.5909 10H49.2879V19.697H39.5909V10ZM49.2879 10H58.9848V19.697H49.2879V10ZM58.9848 10H68.6818V19.697H58.9848V10ZM68.6818 10H78.3788V19.697H68.6818V10ZM88.0758 10H97.7727V19.697H88.0758V10ZM97.7727 10H107.47V19.697H97.7727V10ZM107.47 10H117.167V19.697H107.47V10ZM117.167 10H126.864V19.697H117.167V10ZM136.561 10H146.258V19.697H136.561V10ZM155.955 10H165.652V19.697H155.955V10ZM165.652 10H175.348V19.697H165.652V10ZM223.833 10H233.53V19.697H223.833V10ZM262.621 10H272.318V19.697H262.621V10ZM272.318 10H282.015V19.697H272.318V10ZM282.015 10H291.712V19.697H282.015V10ZM291.712 10H301.409V19.697H291.712V10ZM301.409 10H311.106V19.697H301.409V10ZM311.106 10H320.803V19.697H311.106V10ZM320.803 10H330.5V19.697H320.803V10ZM10.5 19.697H20.197V29.3939H10.5V19.697ZM68.6818 19.697H78.3788V29.3939H68.6818V19.697ZM88.0758 19.697H97.7727V29.3939H88.0758V19.697ZM97.7727 19.697H107.47V29.3939H97.7727V19.697ZM107.47 19.697H117.167V29.3939H107.47V19.697ZM155.955 19.697H165.652V29.3939H155.955V19.697ZM165.652 19.697H175.348V29.3939H165.652V19.697ZM175.348 19.697H185.045V29.3939H175.348V19.697ZM204.439 19.697H214.136V29.3939H204.439V19.697ZM214.136 19.697H223.833V29.3939H214.136V19.697ZM223.833 19.697H233.53V29.3939H223.833V19.697ZM262.621 19.697H272.318V29.3939H262.621V19.697ZM320.803 19.697H330.5V29.3939H320.803V19.697ZM10.5 29.3939H20.197V39.0909H10.5V29.3939ZM29.8939 29.3939H39.5909V39.0909H29.8939V29.3939ZM39.5909 29.3939H49.2879V39.0909H39.5909V29.3939ZM49.2879 29.3939H58.9848V39.0909H49.2879V29.3939ZM68.6818 29.3939H78.3788V39.0909H68.6818V29.3939ZM97.7727 29.3939H107.47V39.0909H97.7727V29.3939ZM117.167 29.3939H126.864V39.0909H117.167V29.3939ZM126.864 29.3939H136.561V39.0909H126.864V29.3939ZM146.258 29.3939H155.955V39.0909H146.258V29.3939ZM175.348 29.3939H185.045V39.0909H175.348V29.3939ZM185.045 29.3939H194.742V39.0909H185.045V29.3939ZM204.439 29.3939H214.136V39.0909H204.439V29.3939ZM262.621 29.3939H272.318V39.0909H262.621V29.3939ZM282.015 29.3939H291.712V39.0909H282.015V29.3939ZM291.712 29.3939H301.409V39.0909H291.712V29.3939ZM301.409 29.3939H311.106V39.0909H301.409V29.3939ZM320.803 29.3939H330.5V39.0909H320.803V29.3939ZM10.5 39.0909H20.197V48.7879H10.5V39.0909ZM29.8939 39.0909H39.5909V48.7879H29.8939V39.0909ZM39.5909 39.0909H49.2879V48.7879H39.5909V39.0909ZM49.2879 39.0909H58.9848V48.7879H49.2879V39.0909ZM68.6818 39.0909H78.3788V48.7879H68.6818V39.0909ZM107.47 39.0909H117.167V48.7879H107.47V39.0909ZM126.864 39.0909H136.561V48.7879H126.864V39.0909ZM146.258 39.0909H155.955V48.7879H146.258V39.0909ZM155.955 39.0909H165.652V48.7879H155.955V39.0909ZM233.53 39.0909H243.227V48.7879H233.53V39.0909ZM262.621 39.0909H272.318V48.7879H262.621V39.0909ZM282.015 39.0909H291.712V48.7879H282.015V39.0909ZM291.712 39.0909H301.409V48.7879H291.712V39.0909ZM301.409 39.0909H311.106V48.7879H301.409V39.0909ZM320.803 39.0909H330.5V48.7879H320.803V39.0909ZM10.5 48.7879H20.197V58.4848H10.5V48.7879ZM29.8939 48.7879H39.5909V58.4848H29.8939V48.7879ZM39.5909 48.7879H49.2879V58.4848H39.5909V48.7879ZM49.2879 48.7879H58.9848V58.4848H49.2879V48.7879ZM68.6818 48.7879H78.3788V58.4848H68.6818V48.7879ZM107.47 48.7879H117.167V58.4848H107.47V48.7879ZM117.167 48.7879H126.864V58.4848H117.167V48.7879ZM136.561 48.7879H146.258V58.4848H136.561V48.7879ZM146.258 48.7879H155.955V58.4848H146.258V48.7879ZM155.955 48.7879H165.652V58.4848H155.955V48.7879ZM165.652 48.7879H175.348V58.4848H165.652V48.7879ZM185.045 48.7879H194.742V58.4848H185.045V48.7879ZM243.227 48.7879H252.924V58.4848H243.227V48.7879ZM262.621 48.7879H272.318V58.4848H262.621V48.7879ZM282.015 48.7879H291.712V58.4848H282.015V48.7879ZM291.712 48.7879H301.409V58.4848H291.712V48.7879ZM301.409 48.7879H311.106V58.4848H301.409V48.7879ZM320.803 48.7879H330.5V58.4848H320.803V48.7879ZM10.5 58.4848H20.197V68.1818H10.5V58.4848ZM68.6818 58.4848H78.3788V68.1818H68.6818V58.4848ZM107.47 58.4848H117.167V68.1818H107.47V58.4848ZM136.561 58.4848H146.258V68.1818H136.561V58.4848ZM146.258 58.4848H155.955V68.1818H146.258V58.4848ZM165.652 58.4848H175.348V68.1818H165.652V58.4848ZM175.348 58.4848H185.045V68.1818H175.348V58.4848ZM185.045 58.4848H194.742V68.1818H185.045V58.4848ZM204.439 58.4848H214.136V68.1818H204.439V58.4848ZM214.136 58.4848H223.833V68.1818H214.136V58.4848ZM223.833 58.4848H233.53V68.1818H223.833V58.4848ZM262.621 58.4848H272.318V68.1818H262.621V58.4848ZM320.803 58.4848H330.5V68.1818H320.803V58.4848ZM10.5 68.1818H20.197V77.8788H10.5V68.1818ZM20.197 68.1818H29.8939V77.8788H20.197V68.1818ZM29.8939 68.1818H39.5909V77.8788H29.8939V68.1818ZM39.5909 68.1818H49.2879V77.8788H39.5909V68.1818ZM49.2879 68.1818H58.9848V77.8788H49.2879V68.1818ZM58.9848 68.1818H68.6818V77.8788H58.9848V68.1818ZM68.6818 68.1818H78.3788V77.8788H68.6818V68.1818ZM88.0758 68.1818H97.7727V77.8788H88.0758V68.1818ZM107.47 68.1818H117.167V77.8788H107.47V68.1818ZM126.864 68.1818H136.561V77.8788H126.864V68.1818ZM146.258 68.1818H155.955V77.8788H146.258V68.1818ZM165.652 68.1818H175.348V77.8788H165.652V68.1818ZM185.045 68.1818H194.742V77.8788H185.045V68.1818ZM204.439 68.1818H214.136V77.8788H204.439V68.1818ZM223.833 68.1818H233.53V77.8788H223.833V68.1818ZM243.227 68.1818H252.924V77.8788H243.227V68.1818ZM262.621 68.1818H272.318V77.8788H262.621V68.1818ZM272.318 68.1818H282.015V77.8788H272.318V68.1818ZM282.015 68.1818H291.712V77.8788H282.015V68.1818ZM291.712 68.1818H301.409V77.8788H291.712V68.1818ZM301.409 68.1818H311.106V77.8788H301.409V68.1818ZM311.106 68.1818H320.803V77.8788H311.106V68.1818ZM320.803 68.1818H330.5V77.8788H320.803V68.1818ZM107.47 77.8788H117.167V87.5758H107.47V77.8788ZM117.167 77.8788H126.864V87.5758H117.167V77.8788ZM136.561 77.8788H146.258V87.5758H136.561V77.8788ZM146.258 77.8788H155.955V87.5758H146.258V77.8788ZM185.045 77.8788H194.742V87.5758H185.045V77.8788ZM223.833 77.8788H233.53V87.5758H223.833V77.8788ZM243.227 77.8788H252.924V87.5758H243.227V77.8788ZM20.197 87.5758H29.8939V97.2727H20.197V87.5758ZM68.6818 87.5758H78.3788V97.2727H68.6818V87.5758ZM78.3788 87.5758H88.0758V97.2727H78.3788V87.5758ZM88.0758 87.5758H97.7727V97.2727H88.0758V87.5758ZM97.7727 87.5758H107.47V97.2727H97.7727V87.5758ZM136.561 87.5758H146.258V97.2727H136.561V87.5758ZM146.258 87.5758H155.955V97.2727H146.258V87.5758ZM165.652 87.5758H175.348V97.2727H165.652V87.5758ZM175.348 87.5758H185.045V97.2727H175.348V87.5758ZM223.833 87.5758H233.53V97.2727H223.833V87.5758ZM243.227 87.5758H252.924V97.2727H243.227V87.5758ZM252.924 87.5758H262.621V97.2727H252.924V87.5758ZM311.106 87.5758H320.803V97.2727H311.106V87.5758ZM320.803 87.5758H330.5V97.2727H320.803V87.5758ZM20.197 97.2727H29.8939V106.97H20.197V97.2727ZM49.2879 97.2727H58.9848V106.97H49.2879V97.2727ZM58.9848 97.2727H68.6818V106.97H58.9848V97.2727ZM78.3788 97.2727H88.0758V106.97H78.3788V97.2727ZM136.561 97.2727H146.258V106.97H136.561V97.2727ZM146.258 97.2727H155.955V106.97H146.258V97.2727ZM155.955 97.2727H165.652V106.97H155.955V97.2727ZM165.652 97.2727H175.348V106.97H165.652V97.2727ZM194.742 97.2727H204.439V106.97H194.742V97.2727ZM233.53 97.2727H243.227V106.97H233.53V97.2727ZM282.015 97.2727H291.712V106.97H282.015V97.2727ZM291.712 97.2727H301.409V106.97H291.712V97.2727ZM301.409 97.2727H311.106V106.97H301.409V97.2727ZM10.5 106.97H20.197V116.667H10.5V106.97ZM49.2879 106.97H58.9848V116.667H49.2879V106.97ZM68.6818 106.97H78.3788V116.667H68.6818V106.97ZM78.3788 106.97H88.0758V116.667H78.3788V106.97ZM117.167 106.97H126.864V116.667H117.167V106.97ZM126.864 106.97H136.561V116.667H126.864V106.97ZM146.258 106.97H155.955V116.667H146.258V106.97ZM155.955 106.97H165.652V116.667H155.955V106.97ZM165.652 106.97H175.348V116.667H165.652V106.97ZM185.045 106.97H194.742V116.667H185.045V106.97ZM204.439 106.97H214.136V116.667H204.439V106.97ZM214.136 106.97H223.833V116.667H214.136V106.97ZM243.227 106.97H252.924V116.667H243.227V106.97ZM252.924 106.97H262.621V116.667H252.924V106.97ZM282.015 106.97H291.712V116.667H282.015V106.97ZM301.409 106.97H311.106V116.667H301.409V106.97ZM311.106 106.97H320.803V116.667H311.106V106.97ZM20.197 116.667H29.8939V126.364H20.197V116.667ZM39.5909 116.667H49.2879V126.364H39.5909V116.667ZM49.2879 116.667H58.9848V126.364H49.2879V116.667ZM58.9848 116.667H68.6818V126.364H58.9848V116.667ZM78.3788 116.667H88.0758V126.364H78.3788V116.667ZM97.7727 116.667H107.47V126.364H97.7727V116.667ZM107.47 116.667H117.167V126.364H107.47V116.667ZM117.167 116.667H126.864V126.364H117.167V116.667ZM146.258 116.667H155.955V126.364H146.258V116.667ZM194.742 116.667H204.439V126.364H194.742V116.667ZM223.833 116.667H233.53V126.364H223.833V116.667ZM233.53 116.667H243.227V126.364H233.53V116.667ZM262.621 116.667H272.318V126.364H262.621V116.667ZM272.318 116.667H282.015V126.364H272.318V116.667ZM282.015 116.667H291.712V126.364H282.015V116.667ZM291.712 116.667H301.409V126.364H291.712V116.667ZM301.409 116.667H311.106V126.364H301.409V116.667ZM311.106 116.667H320.803V126.364H311.106V116.667ZM320.803 116.667H330.5V126.364H320.803V116.667ZM20.197 126.364H29.8939V136.061H20.197V126.364ZM49.2879 126.364H58.9848V136.061H49.2879V126.364ZM68.6818 126.364H78.3788V136.061H68.6818V126.364ZM78.3788 126.364H88.0758V136.061H78.3788V126.364ZM88.0758 126.364H97.7727V136.061H88.0758V126.364ZM136.561 126.364H146.258V136.061H136.561V126.364ZM146.258 126.364H155.955V136.061H146.258V126.364ZM155.955 126.364H165.652V136.061H155.955V126.364ZM165.652 126.364H175.348V136.061H165.652V126.364ZM175.348 126.364H185.045V136.061H175.348V126.364ZM185.045 126.364H194.742V136.061H185.045V126.364ZM194.742 126.364H204.439V136.061H194.742V126.364ZM204.439 126.364H214.136V136.061H204.439V126.364ZM214.136 126.364H223.833V136.061H214.136V126.364ZM223.833 126.364H233.53V136.061H223.833V126.364ZM243.227 126.364H252.924V136.061H243.227V126.364ZM262.621 126.364H272.318V136.061H262.621V126.364ZM311.106 126.364H320.803V136.061H311.106V126.364ZM320.803 126.364H330.5V136.061H320.803V126.364ZM49.2879 136.061H58.9848V145.758H49.2879V136.061ZM58.9848 136.061H68.6818V145.758H58.9848V136.061ZM78.3788 136.061H88.0758V145.758H78.3788V136.061ZM88.0758 136.061H97.7727V145.758H88.0758V136.061ZM97.7727 136.061H107.47V145.758H97.7727V136.061ZM107.47 136.061H117.167V145.758H107.47V136.061ZM126.864 136.061H136.561V145.758H126.864V136.061ZM136.561 136.061H146.258V145.758H136.561V136.061ZM155.955 136.061H165.652V145.758H155.955V136.061ZM165.652 136.061H175.348V145.758H165.652V136.061ZM204.439 136.061H214.136V145.758H204.439V136.061ZM223.833 136.061H233.53V145.758H223.833V136.061ZM262.621 136.061H272.318V145.758H262.621V136.061ZM272.318 136.061H282.015V145.758H272.318V136.061ZM291.712 136.061H301.409V145.758H291.712V136.061ZM301.409 136.061H311.106V145.758H301.409V136.061ZM311.106 136.061H320.803V145.758H311.106V136.061ZM320.803 136.061H330.5V145.758H320.803V136.061ZM20.197 145.758H29.8939V155.455H20.197V145.758ZM29.8939 145.758H39.5909V155.455H29.8939V145.758ZM39.5909 145.758H49.2879V155.455H39.5909V145.758ZM49.2879 145.758H58.9848V155.455H49.2879V145.758ZM68.6818 145.758H78.3788V155.455H68.6818V145.758ZM97.7727 145.758H107.47V155.455H97.7727V145.758ZM117.167 145.758H126.864V155.455H117.167V145.758ZM155.955 145.758H165.652V155.455H155.955V145.758ZM175.348 145.758H185.045V155.455H175.348V145.758ZM194.742 145.758H204.439V155.455H194.742V145.758ZM233.53 145.758H243.227V155.455H233.53V145.758ZM243.227 145.758H252.924V155.455H243.227V145.758ZM252.924 145.758H262.621V155.455H252.924V145.758ZM262.621 145.758H272.318V155.455H262.621V145.758ZM291.712 145.758H301.409V155.455H291.712V145.758ZM301.409 145.758H311.106V155.455H301.409V145.758ZM311.106 145.758H320.803V155.455H311.106V145.758ZM10.5 155.455H20.197V165.152H10.5V155.455ZM39.5909 155.455H49.2879V165.152H39.5909V155.455ZM58.9848 155.455H68.6818V165.152H58.9848V155.455ZM107.47 155.455H117.167V165.152H107.47V155.455ZM126.864 155.455H136.561V165.152H126.864V155.455ZM136.561 155.455H146.258V165.152H136.561V155.455ZM146.258 155.455H155.955V165.152H146.258V155.455ZM155.955 155.455H165.652V165.152H155.955V155.455ZM165.652 155.455H175.348V165.152H165.652V155.455ZM175.348 155.455H185.045V165.152H175.348V155.455ZM194.742 155.455H204.439V165.152H194.742V155.455ZM233.53 155.455H243.227V165.152H233.53V155.455ZM252.924 155.455H262.621V165.152H252.924V155.455ZM291.712 155.455H301.409V165.152H291.712V155.455ZM301.409 155.455H311.106V165.152H301.409V155.455ZM320.803 155.455H330.5V165.152H320.803V155.455ZM10.5 165.152H20.197V174.848H10.5V165.152ZM20.197 165.152H29.8939V174.848H20.197V165.152ZM58.9848 165.152H68.6818V174.848H58.9848V165.152ZM68.6818 165.152H78.3788V174.848H68.6818V165.152ZM78.3788 165.152H88.0758V174.848H78.3788V165.152ZM88.0758 165.152H97.7727V174.848H88.0758V165.152ZM165.652 165.152H175.348V174.848H165.652V165.152ZM194.742 165.152H204.439V174.848H194.742V165.152ZM204.439 165.152H214.136V174.848H204.439V165.152ZM233.53 165.152H243.227V174.848H233.53V165.152ZM243.227 165.152H252.924V174.848H243.227V165.152ZM252.924 165.152H262.621V174.848H252.924V165.152ZM272.318 165.152H282.015V174.848H272.318V165.152ZM282.015 165.152H291.712V174.848H282.015V165.152ZM291.712 165.152H301.409V174.848H291.712V165.152ZM320.803 165.152H330.5V174.848H320.803V165.152ZM10.5 174.848H20.197V184.545H10.5V174.848ZM20.197 174.848H29.8939V184.545H20.197V174.848ZM29.8939 174.848H39.5909V184.545H29.8939V174.848ZM97.7727 174.848H107.47V184.545H97.7727V174.848ZM126.864 174.848H136.561V184.545H126.864V174.848ZM136.561 174.848H146.258V184.545H136.561V174.848ZM165.652 174.848H175.348V184.545H165.652V174.848ZM194.742 174.848H204.439V184.545H194.742V174.848ZM204.439 174.848H214.136V184.545H204.439V174.848ZM214.136 174.848H223.833V184.545H214.136V174.848ZM233.53 174.848H243.227V184.545H233.53V174.848ZM243.227 174.848H252.924V184.545H243.227V174.848ZM252.924 174.848H262.621V184.545H252.924V174.848ZM262.621 174.848H272.318V184.545H262.621V174.848ZM291.712 174.848H301.409V184.545H291.712V174.848ZM301.409 174.848H311.106V184.545H301.409V174.848ZM320.803 174.848H330.5V184.545H320.803V174.848ZM29.8939 184.545H39.5909V194.242H29.8939V184.545ZM68.6818 184.545H78.3788V194.242H68.6818V184.545ZM78.3788 184.545H88.0758V194.242H78.3788V184.545ZM88.0758 184.545H97.7727V194.242H88.0758V184.545ZM97.7727 184.545H107.47V194.242H97.7727V184.545ZM107.47 184.545H117.167V194.242H107.47V184.545ZM117.167 184.545H126.864V194.242H117.167V184.545ZM126.864 184.545H136.561V194.242H126.864V184.545ZM165.652 184.545H175.348V194.242H165.652V184.545ZM175.348 184.545H185.045V194.242H175.348V184.545ZM185.045 184.545H194.742V194.242H185.045V184.545ZM194.742 184.545H204.439V194.242H194.742V184.545ZM233.53 184.545H243.227V194.242H233.53V184.545ZM272.318 184.545H282.015V194.242H272.318V184.545ZM291.712 184.545H301.409V194.242H291.712V184.545ZM301.409 184.545H311.106V194.242H301.409V184.545ZM320.803 184.545H330.5V194.242H320.803V184.545ZM10.5 194.242H20.197V203.939H10.5V194.242ZM20.197 194.242H29.8939V203.939H20.197V194.242ZM39.5909 194.242H49.2879V203.939H39.5909V194.242ZM58.9848 194.242H68.6818V203.939H58.9848V194.242ZM88.0758 194.242H97.7727V203.939H88.0758V194.242ZM136.561 194.242H146.258V203.939H136.561V194.242ZM146.258 194.242H155.955V203.939H146.258V194.242ZM155.955 194.242H165.652V203.939H155.955V194.242ZM175.348 194.242H185.045V203.939H175.348V194.242ZM194.742 194.242H204.439V203.939H194.742V194.242ZM204.439 194.242H214.136V203.939H204.439V194.242ZM214.136 194.242H223.833V203.939H214.136V194.242ZM233.53 194.242H243.227V203.939H233.53V194.242ZM252.924 194.242H262.621V203.939H252.924V194.242ZM262.621 194.242H272.318V203.939H262.621V194.242ZM282.015 194.242H291.712V203.939H282.015V194.242ZM291.712 194.242H301.409V203.939H291.712V194.242ZM301.409 194.242H311.106V203.939H301.409V194.242ZM311.106 194.242H320.803V203.939H311.106V194.242ZM29.8939 203.939H39.5909V213.636H29.8939V203.939ZM39.5909 203.939H49.2879V213.636H39.5909V203.939ZM49.2879 203.939H58.9848V213.636H49.2879V203.939ZM58.9848 203.939H68.6818V213.636H58.9848V203.939ZM68.6818 203.939H78.3788V213.636H68.6818V203.939ZM88.0758 203.939H97.7727V213.636H88.0758V203.939ZM107.47 203.939H117.167V213.636H107.47V203.939ZM117.167 203.939H126.864V213.636H117.167V203.939ZM126.864 203.939H136.561V213.636H126.864V203.939ZM175.348 203.939H185.045V213.636H175.348V203.939ZM194.742 203.939H204.439V213.636H194.742V203.939ZM204.439 203.939H214.136V213.636H204.439V203.939ZM214.136 203.939H223.833V213.636H214.136V203.939ZM223.833 203.939H233.53V213.636H223.833V203.939ZM243.227 203.939H252.924V213.636H243.227V203.939ZM252.924 203.939H262.621V213.636H252.924V203.939ZM282.015 203.939H291.712V213.636H282.015V203.939ZM291.712 203.939H301.409V213.636H291.712V203.939ZM320.803 203.939H330.5V213.636H320.803V203.939ZM10.5 213.636H20.197V223.333H10.5V213.636ZM20.197 213.636H29.8939V223.333H20.197V213.636ZM29.8939 213.636H39.5909V223.333H29.8939V213.636ZM49.2879 213.636H58.9848V223.333H49.2879V213.636ZM58.9848 213.636H68.6818V223.333H58.9848V213.636ZM88.0758 213.636H97.7727V223.333H88.0758V213.636ZM97.7727 213.636H107.47V223.333H97.7727V213.636ZM107.47 213.636H117.167V223.333H107.47V213.636ZM155.955 213.636H165.652V223.333H155.955V213.636ZM175.348 213.636H185.045V223.333H175.348V213.636ZM204.439 213.636H214.136V223.333H204.439V213.636ZM214.136 213.636H223.833V223.333H214.136V213.636ZM223.833 213.636H233.53V223.333H223.833V213.636ZM243.227 213.636H252.924V223.333H243.227V213.636ZM252.924 213.636H262.621V223.333H252.924V213.636ZM272.318 213.636H282.015V223.333H272.318V213.636ZM282.015 213.636H291.712V223.333H282.015V213.636ZM301.409 213.636H311.106V223.333H301.409V213.636ZM10.5 223.333H20.197V233.03H10.5V223.333ZM29.8939 223.333H39.5909V233.03H29.8939V223.333ZM39.5909 223.333H49.2879V233.03H39.5909V223.333ZM58.9848 223.333H68.6818V233.03H58.9848V223.333ZM68.6818 223.333H78.3788V233.03H68.6818V223.333ZM107.47 223.333H117.167V233.03H107.47V223.333ZM117.167 223.333H126.864V233.03H117.167V223.333ZM146.258 223.333H155.955V233.03H146.258V223.333ZM155.955 223.333H165.652V233.03H155.955V223.333ZM165.652 223.333H175.348V233.03H165.652V223.333ZM185.045 223.333H194.742V233.03H185.045V223.333ZM204.439 223.333H214.136V233.03H204.439V223.333ZM223.833 223.333H233.53V233.03H223.833V223.333ZM252.924 223.333H262.621V233.03H252.924V223.333ZM272.318 223.333H282.015V233.03H272.318V223.333ZM282.015 223.333H291.712V233.03H282.015V223.333ZM291.712 223.333H301.409V233.03H291.712V223.333ZM311.106 223.333H320.803V233.03H311.106V223.333ZM10.5 233.03H20.197V242.727H10.5V233.03ZM29.8939 233.03H39.5909V242.727H29.8939V233.03ZM49.2879 233.03H58.9848V242.727H49.2879V233.03ZM58.9848 233.03H68.6818V242.727H58.9848V233.03ZM78.3788 233.03H88.0758V242.727H78.3788V233.03ZM107.47 233.03H117.167V242.727H107.47V233.03ZM136.561 233.03H146.258V242.727H136.561V233.03ZM165.652 233.03H175.348V242.727H165.652V233.03ZM233.53 233.03H243.227V242.727H233.53V233.03ZM252.924 233.03H262.621V242.727H252.924V233.03ZM262.621 233.03H272.318V242.727H262.621V233.03ZM272.318 233.03H282.015V242.727H272.318V233.03ZM301.409 233.03H311.106V242.727H301.409V233.03ZM320.803 233.03H330.5V242.727H320.803V233.03ZM10.5 242.727H20.197V252.424H10.5V242.727ZM20.197 242.727H29.8939V252.424H20.197V242.727ZM29.8939 242.727H39.5909V252.424H29.8939V242.727ZM49.2879 242.727H58.9848V252.424H49.2879V242.727ZM58.9848 242.727H68.6818V252.424H58.9848V242.727ZM68.6818 242.727H78.3788V252.424H68.6818V242.727ZM78.3788 242.727H88.0758V252.424H78.3788V242.727ZM88.0758 242.727H97.7727V252.424H88.0758V242.727ZM97.7727 242.727H107.47V252.424H97.7727V242.727ZM107.47 242.727H117.167V252.424H107.47V242.727ZM126.864 242.727H136.561V252.424H126.864V242.727ZM136.561 242.727H146.258V252.424H136.561V242.727ZM165.652 242.727H175.348V252.424H165.652V242.727ZM175.348 242.727H185.045V252.424H175.348V242.727ZM185.045 242.727H194.742V252.424H185.045V242.727ZM194.742 242.727H204.439V252.424H194.742V242.727ZM204.439 242.727H214.136V252.424H204.439V242.727ZM243.227 242.727H252.924V252.424H243.227V242.727ZM252.924 242.727H262.621V252.424H252.924V242.727ZM262.621 242.727H272.318V252.424H262.621V242.727ZM272.318 242.727H282.015V252.424H272.318V242.727ZM282.015 242.727H291.712V252.424H282.015V242.727ZM291.712 242.727H301.409V252.424H291.712V242.727ZM311.106 242.727H320.803V252.424H311.106V242.727ZM320.803 242.727H330.5V252.424H320.803V242.727ZM88.0758 252.424H97.7727V262.121H88.0758V252.424ZM107.47 252.424H117.167V262.121H107.47V252.424ZM126.864 252.424H136.561V262.121H126.864V252.424ZM136.561 252.424H146.258V262.121H136.561V252.424ZM185.045 252.424H194.742V262.121H185.045V252.424ZM194.742 252.424H204.439V262.121H194.742V252.424ZM223.833 252.424H233.53V262.121H223.833V252.424ZM233.53 252.424H243.227V262.121H233.53V252.424ZM243.227 252.424H252.924V262.121H243.227V252.424ZM282.015 252.424H291.712V262.121H282.015V252.424ZM301.409 252.424H311.106V262.121H301.409V252.424ZM320.803 252.424H330.5V262.121H320.803V252.424ZM10.5 262.121H20.197V271.818H10.5V262.121ZM20.197 262.121H29.8939V271.818H20.197V262.121ZM29.8939 262.121H39.5909V271.818H29.8939V262.121ZM39.5909 262.121H49.2879V271.818H39.5909V262.121ZM49.2879 262.121H58.9848V271.818H49.2879V262.121ZM58.9848 262.121H68.6818V271.818H58.9848V262.121ZM68.6818 262.121H78.3788V271.818H68.6818V262.121ZM88.0758 262.121H97.7727V271.818H88.0758V262.121ZM97.7727 262.121H107.47V271.818H97.7727V262.121ZM107.47 262.121H117.167V271.818H107.47V262.121ZM117.167 262.121H126.864V271.818H117.167V262.121ZM126.864 262.121H136.561V271.818H126.864V262.121ZM136.561 262.121H146.258V271.818H136.561V262.121ZM175.348 262.121H185.045V271.818H175.348V262.121ZM185.045 262.121H194.742V271.818H185.045V262.121ZM204.439 262.121H214.136V271.818H204.439V262.121ZM214.136 262.121H223.833V271.818H214.136V262.121ZM233.53 262.121H243.227V271.818H233.53V262.121ZM243.227 262.121H252.924V271.818H243.227V262.121ZM262.621 262.121H272.318V271.818H262.621V262.121ZM282.015 262.121H291.712V271.818H282.015V262.121ZM301.409 262.121H311.106V271.818H301.409V262.121ZM311.106 262.121H320.803V271.818H311.106V262.121ZM10.5 271.818H20.197V281.515H10.5V271.818ZM68.6818 271.818H78.3788V281.515H68.6818V271.818ZM97.7727 271.818H107.47V281.515H97.7727V271.818ZM117.167 271.818H126.864V281.515H117.167V271.818ZM155.955 271.818H165.652V281.515H155.955V271.818ZM165.652 271.818H175.348V281.515H165.652V271.818ZM175.348 271.818H185.045V281.515H175.348V271.818ZM233.53 271.818H243.227V281.515H233.53V271.818ZM243.227 271.818H252.924V281.515H243.227V271.818ZM282.015 271.818H291.712V281.515H282.015V271.818ZM291.712 271.818H301.409V281.515H291.712V271.818ZM301.409 271.818H311.106V281.515H301.409V271.818ZM10.5 281.515H20.197V291.212H10.5V281.515ZM29.8939 281.515H39.5909V291.212H29.8939V281.515ZM39.5909 281.515H49.2879V291.212H39.5909V281.515ZM49.2879 281.515H58.9848V291.212H49.2879V281.515ZM68.6818 281.515H78.3788V291.212H68.6818V281.515ZM97.7727 281.515H107.47V291.212H97.7727V281.515ZM107.47 281.515H117.167V291.212H107.47V281.515ZM136.561 281.515H146.258V291.212H136.561V281.515ZM165.652 281.515H175.348V291.212H165.652V281.515ZM185.045 281.515H194.742V291.212H185.045V281.515ZM214.136 281.515H223.833V291.212H214.136V281.515ZM243.227 281.515H252.924V291.212H243.227V281.515ZM252.924 281.515H262.621V291.212H252.924V281.515ZM262.621 281.515H272.318V291.212H262.621V281.515ZM272.318 281.515H282.015V291.212H272.318V281.515ZM282.015 281.515H291.712V291.212H282.015V281.515ZM291.712 281.515H301.409V291.212H291.712V281.515ZM311.106 281.515H320.803V291.212H311.106V281.515ZM10.5 291.212H20.197V300.909H10.5V291.212ZM29.8939 291.212H39.5909V300.909H29.8939V291.212ZM39.5909 291.212H49.2879V300.909H39.5909V291.212ZM49.2879 291.212H58.9848V300.909H49.2879V291.212ZM68.6818 291.212H78.3788V300.909H68.6818V291.212ZM107.47 291.212H117.167V300.909H107.47V291.212ZM117.167 291.212H126.864V300.909H117.167V291.212ZM155.955 291.212H165.652V300.909H155.955V291.212ZM185.045 291.212H194.742V300.909H185.045V291.212ZM204.439 291.212H214.136V300.909H204.439V291.212ZM223.833 291.212H233.53V300.909H223.833V291.212ZM233.53 291.212H243.227V300.909H233.53V291.212ZM252.924 291.212H262.621V300.909H252.924V291.212ZM272.318 291.212H282.015V300.909H272.318V291.212ZM282.015 291.212H291.712V300.909H282.015V291.212ZM291.712 291.212H301.409V300.909H291.712V291.212ZM320.803 291.212H330.5V300.909H320.803V291.212ZM10.5 300.909H20.197V310.606H10.5V300.909ZM29.8939 300.909H39.5909V310.606H29.8939V300.909ZM39.5909 300.909H49.2879V310.606H39.5909V300.909ZM49.2879 300.909H58.9848V310.606H49.2879V300.909ZM68.6818 300.909H78.3788V310.606H68.6818V300.909ZM117.167 300.909H126.864V310.606H117.167V300.909ZM126.864 300.909H136.561V310.606H126.864V300.909ZM175.348 300.909H185.045V310.606H175.348V300.909ZM185.045 300.909H194.742V310.606H185.045V300.909ZM204.439 300.909H214.136V310.606H204.439V300.909ZM223.833 300.909H233.53V310.606H223.833V300.909ZM243.227 300.909H252.924V310.606H243.227V300.909ZM272.318 300.909H282.015V310.606H272.318V300.909ZM282.015 300.909H291.712V310.606H282.015V300.909ZM311.106 300.909H320.803V310.606H311.106V300.909ZM320.803 300.909H330.5V310.606H320.803V300.909ZM10.5 310.606H20.197V320.303H10.5V310.606ZM68.6818 310.606H78.3788V320.303H68.6818V310.606ZM88.0758 310.606H97.7727V320.303H88.0758V310.606ZM107.47 310.606H117.167V320.303H107.47V310.606ZM126.864 310.606H136.561V320.303H126.864V310.606ZM136.561 310.606H146.258V320.303H136.561V310.606ZM146.258 310.606H155.955V320.303H146.258V310.606ZM175.348 310.606H185.045V320.303H175.348V310.606ZM194.742 310.606H204.439V320.303H194.742V310.606ZM204.439 310.606H214.136V320.303H204.439V310.606ZM262.621 310.606H272.318V320.303H262.621V310.606ZM272.318 310.606H282.015V320.303H272.318V310.606ZM282.015 310.606H291.712V320.303H282.015V310.606ZM291.712 310.606H301.409V320.303H291.712V310.606ZM301.409 310.606H311.106V320.303H301.409V310.606ZM10.5 320.303H20.197V330H10.5V320.303ZM20.197 320.303H29.8939V330H20.197V320.303ZM29.8939 320.303H39.5909V330H29.8939V320.303ZM39.5909 320.303H49.2879V330H39.5909V320.303ZM49.2879 320.303H58.9848V330H49.2879V320.303ZM58.9848 320.303H68.6818V330H58.9848V320.303ZM68.6818 320.303H78.3788V330H68.6818V320.303ZM97.7727 320.303H107.47V330H97.7727V320.303ZM117.167 320.303H126.864V330H117.167V320.303ZM146.258 320.303H155.955V330H146.258V320.303ZM165.652 320.303H175.348V330H165.652V320.303ZM194.742 320.303H204.439V330H194.742V320.303ZM204.439 320.303H214.136V330H204.439V320.303ZM223.833 320.303H233.53V330H223.833V320.303ZM243.227 320.303H252.924V330H243.227V320.303ZM262.621 320.303H272.318V330H262.621V320.303ZM272.318 320.303H282.015V330H272.318V320.303ZM291.712 320.303H301.409V330H291.712V320.303ZM311.106 320.303H320.803V330H311.106V320.303Z" fill="white"/>
        </g>
    </g>
    <defs>
        <filter id="filter0_d_32_108" x="0.5" y="0" width="340" height="340" filterUnits="userSpaceOnUse" color-interpolation-filters="sRGB">
            <feFlood flood-opacity="0" result="BackgroundImageFix"/>
            <feColorMatrix in="SourceAlpha" type="matrix" values="0 0 0 0 0 0 0 0 0 0 0 0 0 0 0 0 0 0 127 0" result="hardAlpha"/>
            <feOffset/>
            <feGaussianBlur stdDeviation="5"/>
            <feComposite in2="hardAlpha" operator="out"/>
            <feColorMatrix type="matrix" values="0 0 0 0 0.164706 0 0 0 0 0.964706 0 0 0 0 1 0 0 0 0.15 0"/>
            <feBlend mode="normal" in2="BackgroundImageFix" result="effect1_dropShadow_32_108"/>
            <feBlend mode="normal" in="SourceGraphic" in2="effect1_dropShadow_32_108" result="shape"/>
        </filter>
        <clipPath id="clip0_32_108">
            <rect width="340" height="340" fill="white" transform="translate(0.5)"/>
        </clipPath>
    </defs>
</svg>
