<svg width="68" height="67" viewBox="0 0 68 67" fill="none" xmlns="http://www.w3.org/2000/svg">
<g filter="url(#filter0_d_599_11336)">
<path fill-rule="evenodd" clip-rule="evenodd" d="M26.4856 15.8599C27.989 16.5629 30.6804 17.3792 33.7505 17.4511C36.129 17.5068 38.7094 17.1038 41.1249 15.8458C41.2157 15.7293 41.3572 15.6544 41.5163 15.6544C41.61 15.6544 41.6976 15.6804 41.7723 15.7255H50.0816C50.4011 15.7255 50.6601 15.9845 50.6601 16.304V20.5298C50.6601 20.8036 50.4381 21.0256 50.1642 21.0256C49.8904 21.0256 49.6684 20.8036 49.6684 20.5298V16.7172H41.5987C39.1711 17.9853 36.6051 18.4402 34.2347 18.4477V23.3289C34.2347 23.6028 34.0127 23.8248 33.7388 23.8248C33.465 23.8248 33.243 23.6028 33.243 23.3289V18.4253C30.1743 18.2788 27.5067 17.448 25.9788 16.7172H18.7916V21.7793C18.7916 22.0532 18.5696 22.2752 18.2957 22.2752C18.0218 22.2752 17.7998 22.0532 17.7998 21.7793V16.304C17.7998 15.9845 18.0588 15.7255 18.3783 15.7255H25.8228C25.8983 15.6791 25.9871 15.6523 26.0822 15.6523C26.2485 15.6523 26.3957 15.7342 26.4856 15.8599ZM50.6601 23.1819V28.1265C50.7775 28.2536 50.8977 28.3864 51.0214 28.5232C51.59 29.1516 52.2337 29.8631 53.0251 30.4872C54.0394 31.2873 55.2475 31.8988 56.7322 31.9191C57.0268 31.9231 57.3038 32.1576 57.3048 32.4951C57.3051 32.6067 57.3061 32.7268 57.3071 32.8545C57.3146 33.7951 57.3255 35.1466 57.1086 36.5261C56.8731 38.0247 56.3592 39.6297 55.2179 40.8169V43.5334C55.9055 43.7166 56.6825 44.0146 57.4779 44.443C58.6974 45.1 59.9728 46.071 61.0362 47.4216L60.9909 31.8008L60.9905 31.7918C60.782 27.8939 59.0666 25.4298 56.9567 24.1076C54.9435 22.846 52.5452 22.6056 50.6601 23.1819ZM62.0323 48.9255C63.1776 51.0061 63.8046 53.7254 63.3846 57.1954C63.3503 57.479 63.1096 57.7052 62.8103 57.7052H46.4803C46.6108 58.8548 46.6087 60.1142 46.4422 61.4908C46.4078 61.7744 46.1671 62.0005 45.8679 62.0005H21.0433C20.7976 62.0005 20.5632 61.8428 20.4884 61.5848C20.1919 60.5617 20.005 59.1941 20.1146 57.7029H5.96037C5.71461 57.7029 5.48022 57.5451 5.40547 57.2872C4.4975 54.1542 4.61745 47.7913 11.1319 44.5385C11.8851 44.1624 12.7209 43.8299 13.6468 43.5497V40.4042C12.6926 39.2608 12.1253 37.8134 11.808 36.4085C11.4805 34.9584 11.4109 33.5171 11.4758 32.4232C11.3127 30.7855 11.4641 28.5659 12.4209 26.7278C12.907 25.794 13.6051 24.9515 14.5799 24.3443C15.5558 23.7363 16.7818 23.3812 18.2957 23.3812C21.1976 23.3812 22.992 24.5336 24.0394 26.1188C24.7136 27.1391 25.0612 28.3123 25.2234 29.4139C25.8036 28.6091 26.5607 27.8735 27.5331 27.27C29.056 26.3248 31.0796 25.7204 33.7264 25.6541L33.7326 25.654H33.7388C36.36 25.654 38.3216 26.3821 39.8441 27.5305C40.5536 25.8282 41.7 24.2327 43.2957 23.181C45.0775 22.0066 47.3778 21.539 50.1476 22.3055C52.3499 21.5527 55.1547 21.8079 57.4833 23.2672C59.8848 24.7721 61.752 27.5375 61.98 31.7237C61.9817 31.7414 61.9826 31.7594 61.9826 31.7775M62.0323 48.9255L61.9826 31.779ZM49.6684 23.2043C47.2584 22.592 45.3264 23.0303 43.8415 24.009C42.3574 24.9872 41.2815 26.5316 40.6419 28.2066C42.2124 29.7003 43.1256 31.6582 43.4844 33.5751C43.4738 33.1767 43.48 32.8014 43.4993 32.4594C43.5168 32.1493 43.7668 31.935 44.0378 31.9159C45.8797 31.7866 47.0931 31.1354 47.9451 30.3798C48.7147 29.6972 49.2001 28.924 49.5983 28.2895C49.622 28.2518 49.6453 28.2146 49.6684 28.178V23.2043ZM50.2373 29.1358C49.8579 29.7285 49.3444 30.4644 48.6031 31.1218C47.6548 31.9628 46.3453 32.6697 44.475 32.8725C44.4505 33.8398 44.5357 35.0396 44.8113 36.2383C45.1227 37.5928 45.6689 38.9097 46.5396 39.8943C47.4112 40.88 48.6246 41.5537 50.3314 41.5893C52.261 41.6296 53.5269 41.0724 54.3784 40.2541C55.3998 39.2725 55.8973 37.8453 56.1289 36.3721C56.3303 35.0907 56.3227 33.835 56.3155 32.8927C54.731 32.7723 53.447 32.0831 52.4109 31.2659C51.5467 30.5843 50.8254 29.7863 50.2516 29.1516C50.2468 29.1463 50.2421 29.141 50.2373 29.1358ZM43.6621 35.5143C43.6599 35.9281 43.6311 36.3308 43.577 36.7168C43.5742 36.7367 43.5673 36.7801 43.5482 36.8315C43.4596 37.0706 43.2346 37.2067 43.0069 37.2067H40.3652C40.3747 38.3792 40.3821 40.1609 39.9574 41.8571V46.8339C40.7983 45.9736 41.8519 45.1926 43.1573 44.5407C43.9105 44.1646 44.7463 43.8321 45.6722 43.552V40.4065C44.7291 39.2764 44.1641 37.8495 43.8447 36.4605C43.7719 36.1437 43.7114 35.8271 43.6621 35.5143ZM46.664 41.3628V43.6713L50.3294 46.3337L54.2261 43.6627V41.6283C53.2341 42.2577 51.951 42.6151 50.3107 42.5809C48.8145 42.5496 47.613 42.09 46.664 41.3628ZM54.8229 44.4559L51.1512 46.9727L53.7307 49.0514L56.5093 45.0647C55.9032 44.7789 55.3268 44.5798 54.8229 44.4559ZM57.3914 45.5334L54.291 49.982C54.0993 50.2571 53.7145 50.3121 53.4534 50.1017L52.9971 49.7339L51.9373 51.939L52.9921 56.7134H56.7468V55.0399C56.7468 54.766 56.9688 54.544 57.2427 54.544C57.5166 54.544 57.7386 54.766 57.7386 55.0399V56.7134H62.4403C62.7582 53.5493 62.1387 51.1252 61.1052 49.2994C60.1192 47.5574 58.742 46.3352 57.3914 45.5334ZM51.9765 56.7134L51.0179 52.3745H49.5953L48.7712 56.7134H51.9765ZM47.7617 56.7134L48.6652 51.9564L47.5392 49.8193L47.1879 50.1024C46.929 50.311 46.5482 50.259 46.3546 49.9889L43.2261 45.6227C41.7595 46.4168 40.6807 47.3828 39.898 48.4202C40.1081 48.5169 40.321 48.6229 40.5354 48.7384C42.9316 50.0292 45.5364 52.5309 46.3306 56.7134H47.7617ZM38.9657 48.014C38.9603 48.0215 38.9549 48.029 38.9496 48.0365C38.7177 47.9556 38.4922 47.8865 38.2754 47.8287V45.1123C38.5372 44.8399 38.7659 44.5457 38.9657 44.2361V48.014ZM37.2836 45.9236C36.2916 46.553 35.0086 46.9104 33.3683 46.8762C31.8721 46.8449 30.6705 46.3853 29.7215 45.6581V47.9666L33.3869 50.629L37.2836 47.958V45.9236ZM37.8805 48.7513L34.2088 51.268L36.7883 53.3468L39.5668 49.36C39.3604 49.2627 39.1572 49.1753 38.959 49.0975C38.5754 48.947 38.2119 48.8327 37.8805 48.7513ZM40.449 49.8287L37.3486 54.2773C37.1568 54.5525 36.772 54.6074 36.5109 54.397L36.0546 54.0293L34.9948 56.2343L36.0497 61.0088H39.8044V59.3352C39.8044 59.0613 40.0264 58.8393 40.3002 58.8393C40.5741 58.8393 40.7961 59.0613 40.7961 59.3352V61.0088H45.4978C45.6363 59.6299 45.5967 58.3928 45.4233 57.2861C44.8222 53.4482 42.599 51.1049 40.449 49.8287ZM35.034 61.0088L34.0754 56.6698H32.6528L31.8287 61.0088H35.034ZM30.8193 61.0088L31.7227 56.2518L30.5967 54.1146L30.2454 54.3977C29.9866 54.6063 29.6057 54.5544 29.4121 54.2842L26.2837 49.918C20.9221 52.8229 20.6392 58.1148 21.3602 61.0088H25.9405V59.3352C25.9405 59.0613 26.1625 58.8393 26.4363 58.8393C26.7102 58.8393 26.9322 59.0613 26.9322 59.3352V61.0088H30.8193ZM27.1857 49.4741L29.9636 53.3511L32.563 51.2563L29.1301 48.7628C28.4242 48.9712 27.7776 49.21 27.1857 49.4741ZM28.7298 47.0767V44.7018C27.7755 43.5584 27.2083 42.111 26.8909 40.7061C26.6099 39.4619 26.5188 38.2241 26.5396 37.2067H24.9566C24.6789 38.495 24.1626 39.8056 23.1925 40.8147V43.5311C23.8801 43.7143 24.6571 44.0123 25.4525 44.4408C26.5665 45.0409 27.7268 45.9027 28.7298 47.0767ZM22.2007 43.6604V41.626C21.2087 42.2554 19.9256 42.6128 18.2853 42.5786C16.7891 42.5473 15.5876 42.0877 14.6386 41.3605V43.669L18.304 46.3314L22.2007 43.6604ZM17.4801 46.9587L14.0472 44.4652C13.3413 44.6736 12.6946 44.9124 12.1027 45.1765L14.8807 49.0535L17.4801 46.9587ZM11.2007 45.6204C5.83921 48.5253 5.55627 53.8172 6.27732 56.7112H10.8575V55.0376C10.8575 54.7637 11.0795 54.5417 11.3534 54.5417C11.6273 54.5417 11.8493 54.7637 11.8493 55.0376V56.7112H15.7363L16.6398 51.9542L15.5138 49.817L15.1625 50.1001C14.9037 50.3087 14.5228 50.2568 14.3292 49.9866L11.2007 45.6204ZM16.3007 49.1829L17.4585 51.3805H19.0789L20.1785 49.0925L18.2957 47.5751L16.3007 49.1829ZM19.1259 46.9704L21.7053 49.0492L24.4839 45.0624C23.8778 44.7767 23.3014 44.5775 22.7976 44.4537L19.1259 46.9704ZM25.366 45.5312L22.2656 49.9797C22.0739 50.2549 21.6891 50.3098 21.428 50.0994L20.9717 49.7317L19.9139 51.9327L20.6464 55.0104C21.4142 52.703 23.0689 50.4069 26.2148 48.8361C26.8258 48.531 27.4911 48.2546 28.2148 48.0116C27.3607 46.9328 26.3561 46.119 25.366 45.5312ZM20.0318 56.7112L18.999 52.3723H17.5699L16.7458 56.7112H20.0318ZM23.9585 37.1264C23.819 37.0446 23.7127 36.9044 23.6829 36.7254C23.4786 35.4998 23.4633 33.926 23.8702 32.3477C21.3163 30.5417 18.9049 30.2167 16.915 30.5365C14.9402 30.8538 13.3584 31.8107 12.4578 32.6372C12.413 33.6284 12.4858 34.908 12.7754 36.19C13.0849 37.5603 13.6335 38.8961 14.5142 39.892C15.3859 40.8777 16.5992 41.5514 18.306 41.587C20.2357 41.6274 21.5015 41.0701 22.353 40.2518C23.1974 39.4403 23.6843 38.3238 23.9585 37.1264ZM12.4115 31.3909C13.4622 30.6056 14.9653 29.8453 16.7576 29.5573C18.9307 29.208 21.5079 29.5573 24.1834 31.3589C24.2361 31.2201 24.2925 31.0818 24.3528 30.9441C24.3297 29.5816 24.0624 27.9526 23.2119 26.6655C22.3619 25.379 20.8903 24.3729 18.2957 24.3729C16.9419 24.3729 15.9027 24.6887 15.1043 25.1861C14.3047 25.6842 13.7192 26.3816 13.3006 27.1857C12.6254 28.4828 12.3957 30.0385 12.4115 31.3909ZM27.0516 36.2149C27.0543 36.2149 27.0571 36.2149 27.0598 36.2149H31.0923L33.1503 32.23C33.3695 31.8054 33.9797 31.8146 34.1861 32.2456L36.0869 36.2149H42.6369C42.8599 33.7772 41.9921 30.7083 39.7348 28.7205C38.3313 27.4846 36.4559 26.647 33.745 26.6457C31.2399 26.7094 29.3988 27.2793 28.0561 28.1126C26.7144 28.9453 25.8431 30.0577 25.3016 31.2515C25.1471 31.592 25.0193 31.9397 24.9152 32.29C24.5054 33.669 24.4667 35.0772 24.6104 36.2149H27.0516ZM39.3731 37.2067H35.8266C35.6039 37.2067 35.401 37.0789 35.3048 36.878L33.6503 33.423L31.858 36.8936C31.7587 37.0859 31.5604 37.2067 31.344 37.2067H27.5316C27.5106 38.1543 27.5946 39.32 27.8583 40.4876C28.1678 41.8579 28.7164 43.1937 29.5971 44.1896C30.4688 45.1753 31.6821 45.849 33.389 45.8846C35.3186 45.925 36.5844 45.3677 37.4359 44.5494C38.2201 43.7958 38.697 42.7784 38.9813 41.6718C39.3894 40.0832 39.3818 38.3993 39.3731 37.2067ZM33.3786 51.8727L31.3836 53.4805L32.5415 55.6781H34.1618L35.2615 53.3901L33.3786 51.8727ZM44.1281 45.1788L46.9061 49.0558L49.5055 46.961L46.0726 44.4675C45.3666 44.6758 44.72 44.9147 44.1281 45.1788ZM50.3211 47.5774L48.326 49.1852L49.4839 51.3828H51.1043L52.2039 49.0947L50.3211 47.5774Z" fill="white"/>
<path d="M62.0323 48.9255C63.1776 51.0061 63.8046 53.7254 63.3846 57.1954C63.3503 57.479 63.1096 57.7052 62.8103 57.7052H46.4803C46.6108 58.8548 46.6087 60.1142 46.4422 61.4908C46.4078 61.7744 46.1671 62.0005 45.8679 62.0005H21.0433C20.7976 62.0005 20.5632 61.8428 20.4884 61.5848C20.1919 60.5617 20.005 59.1941 20.1146 57.7029H5.96037C5.71461 57.7029 5.48022 57.5451 5.40547 57.2872C4.4975 54.1542 4.61745 47.7913 11.1319 44.5385C11.8851 44.1624 12.7209 43.8299 13.6468 43.5497V40.4042C12.6926 39.2608 12.1253 37.8134 11.808 36.4085C11.4805 34.9584 11.4109 33.5171 11.4758 32.4232C11.3127 30.7855 11.4641 28.5659 12.4209 26.7278C12.907 25.794 13.6051 24.9515 14.5799 24.3443C15.5558 23.7363 16.7818 23.3812 18.2957 23.3812C21.1976 23.3812 22.992 24.5336 24.0394 26.1188C24.7136 27.1391 25.0612 28.3123 25.2234 29.4139C25.8036 28.6091 26.5607 27.8735 27.5331 27.27C29.056 26.3248 31.0796 25.7204 33.7264 25.6541L33.7326 25.654H33.7388C36.36 25.654 38.3216 26.3821 39.8441 27.5305C40.5536 25.8282 41.7 24.2327 43.2957 23.181C45.0775 22.0066 47.3778 21.539 50.1476 22.3055C52.3499 21.5527 55.1547 21.8079 57.4833 23.2672C59.8848 24.7721 61.752 27.5375 61.98 31.7237C61.9817 31.7414 61.9826 31.7594 61.9826 31.7775L62.0323 48.9255ZM62.0323 48.9255L61.9826 31.779M53.4774 49.4149L53.4782 49.4137M41.4337 16.1504L41.4725 16.2231M33.7505 17.4511C30.6804 17.3792 27.989 16.5629 26.4856 15.8599C26.3957 15.7342 26.2485 15.6523 26.0822 15.6523C25.9871 15.6523 25.8983 15.6791 25.8228 15.7255H18.3783C18.0588 15.7255 17.7998 15.9845 17.7998 16.304V21.7793C17.7998 22.0532 18.0218 22.2752 18.2957 22.2752C18.5696 22.2752 18.7916 22.0532 18.7916 21.7793V16.7172H25.9788C27.5067 17.448 30.1743 18.2788 33.243 18.4253V23.3289C33.243 23.6028 33.465 23.8248 33.7388 23.8248C34.0127 23.8248 34.2347 23.6028 34.2347 23.3289V18.4477C36.6051 18.4402 39.1711 17.9853 41.5987 16.7172H49.6684V20.5298C49.6684 20.8036 49.8904 21.0256 50.1642 21.0256C50.4381 21.0256 50.6601 20.8036 50.6601 20.5298V16.304C50.6601 15.9845 50.4011 15.7255 50.0816 15.7255H41.7723C41.6976 15.6804 41.61 15.6544 41.5163 15.6544C41.3572 15.6544 41.2157 15.7293 41.1249 15.8458C38.7094 17.1038 36.129 17.5068 33.7505 17.4511ZM50.6601 28.1265V23.1819C52.5452 22.6056 54.9435 22.846 56.9567 24.1076C59.0666 25.4298 60.782 27.8939 60.9905 31.7918L60.9909 31.8008L61.0362 47.4216C59.9728 46.071 58.6974 45.1 57.4779 44.443C56.6825 44.0146 55.9055 43.7166 55.2179 43.5334V40.8169C56.3592 39.6297 56.8731 38.0247 57.1086 36.5261C57.3255 35.1466 57.3146 33.7951 57.3071 32.8545C57.3061 32.7268 57.3051 32.6067 57.3048 32.4951C57.3038 32.1576 57.0268 31.9231 56.7322 31.9191C55.2475 31.8988 54.0394 31.2873 53.0251 30.4872C52.2337 29.8631 51.59 29.1516 51.0214 28.5232C50.8977 28.3864 50.7775 28.2536 50.6601 28.1265ZM43.8415 24.009C45.3264 23.0303 47.2584 22.592 49.6684 23.2043V28.178C49.6453 28.2146 49.622 28.2518 49.5983 28.2895C49.2001 28.924 48.7147 29.6972 47.9451 30.3798C47.0931 31.1354 45.8797 31.7866 44.0378 31.9159C43.7668 31.935 43.5168 32.1493 43.4993 32.4594C43.48 32.8014 43.4738 33.1767 43.4844 33.5751C43.1256 31.6582 42.2124 29.7003 40.6419 28.2066C41.2815 26.5316 42.3574 24.9872 43.8415 24.009ZM48.6031 31.1218C49.3444 30.4644 49.8579 29.7285 50.2373 29.1358C50.2421 29.141 50.2468 29.1463 50.2516 29.1516C50.8254 29.7863 51.5467 30.5843 52.4109 31.2659C53.447 32.0831 54.731 32.7723 56.3155 32.8927C56.3227 33.835 56.3303 35.0907 56.1289 36.3721C55.8973 37.8453 55.3998 39.2725 54.3784 40.2541C53.5269 41.0724 52.261 41.6296 50.3314 41.5893C48.6246 41.5537 47.4112 40.88 46.5396 39.8943C45.6689 38.9097 45.1227 37.5928 44.8113 36.2383C44.5357 35.0396 44.4505 33.8398 44.475 32.8725C46.3453 32.6697 47.6548 31.9628 48.6031 31.1218ZM43.577 36.7168C43.6311 36.3308 43.6599 35.9281 43.6621 35.5143C43.7114 35.8271 43.7719 36.1437 43.8447 36.4605C44.1641 37.8495 44.7291 39.2764 45.6722 40.4065V43.552C44.7463 43.8321 43.9105 44.1646 43.1573 44.5407C41.8519 45.1926 40.7983 45.9736 39.9574 46.8339V41.8571C40.3821 40.1609 40.3747 38.3792 40.3652 37.2067H43.0069C43.2346 37.2067 43.4596 37.0706 43.5482 36.8315C43.5673 36.7801 43.5742 36.7367 43.577 36.7168ZM46.664 43.6713V41.3628C47.613 42.09 48.8145 42.5496 50.3107 42.5809C51.951 42.6151 53.2341 42.2577 54.2261 41.6283V43.6627L50.3294 46.3337L46.664 43.6713ZM51.1512 46.9727L54.8229 44.4559C55.3268 44.5798 55.9032 44.7789 56.5093 45.0647L53.7307 49.0514L51.1512 46.9727ZM54.291 49.982L57.3914 45.5334C58.742 46.3352 60.1192 47.5574 61.1052 49.2994C62.1387 51.1252 62.7582 53.5493 62.4403 56.7134H57.7386V55.0399C57.7386 54.766 57.5166 54.544 57.2427 54.544C56.9688 54.544 56.7468 54.766 56.7468 55.0399V56.7134H52.9921L51.9373 51.939L52.9971 49.7339L53.4534 50.1017C53.7145 50.3121 54.0993 50.2571 54.291 49.982ZM51.0179 52.3745L51.9765 56.7134H48.7712L49.5953 52.3745H51.0179ZM48.6652 51.9564L47.7617 56.7134H46.3306C45.5364 52.5309 42.9316 50.0292 40.5354 48.7384C40.321 48.6229 40.1081 48.5169 39.898 48.4202C40.6807 47.3828 41.7595 46.4168 43.2261 45.6227L46.3546 49.9889C46.5482 50.259 46.929 50.311 47.1879 50.1024L47.5392 49.8193L48.6652 51.9564ZM38.9657 48.014C38.9603 48.0215 38.9549 48.029 38.9496 48.0365C38.7177 47.9556 38.4922 47.8865 38.2754 47.8287V45.1123C38.5372 44.8399 38.7659 44.5457 38.9657 44.2361V48.014ZM33.3683 46.8762C35.0086 46.9104 36.2916 46.553 37.2836 45.9236V47.958L33.3869 50.629L29.7215 47.9666V45.6581C30.6705 46.3853 31.8721 46.8449 33.3683 46.8762ZM34.2088 51.268L37.8805 48.7513C38.2119 48.8327 38.5754 48.947 38.959 49.0975C39.1572 49.1753 39.3604 49.2627 39.5668 49.36L36.7883 53.3468L34.2088 51.268ZM40.449 49.8287C42.599 51.1049 44.8222 53.4482 45.4233 57.2861C45.5967 58.3928 45.6363 59.6299 45.4978 61.0088H40.7961V59.3352C40.7961 59.0613 40.5741 58.8393 40.3002 58.8393C40.0264 58.8393 39.8044 59.0613 39.8044 59.3352V61.0088H36.0497L34.9948 56.2343L36.0546 54.0293L36.5109 54.397C36.772 54.6074 37.1568 54.5525 37.3486 54.2773L40.449 49.8287ZM34.0754 56.6698L35.034 61.0088H31.8287L32.6528 56.6698H34.0754ZM31.7227 56.2518L30.8193 61.0088H26.9322V59.3352C26.9322 59.0613 26.7102 58.8393 26.4363 58.8393C26.1625 58.8393 25.9405 59.0613 25.9405 59.3352V61.0088H21.3602C20.6392 58.1148 20.9221 52.8229 26.2837 49.918L29.4121 54.2842C29.6057 54.5544 29.9866 54.6063 30.2454 54.3977L30.5967 54.1146L31.7227 56.2518ZM29.9636 53.3511L27.1857 49.4741C27.7776 49.21 28.4242 48.9712 29.1301 48.7628L32.563 51.2563L29.9636 53.3511ZM28.7298 44.7018V47.0767C27.7268 45.9027 26.5665 45.0409 25.4525 44.4408C24.6571 44.0123 23.8801 43.7143 23.1925 43.5311V40.8147C24.1626 39.8056 24.6789 38.495 24.9566 37.2067H26.5396C26.5188 38.2241 26.6099 39.4619 26.8909 40.7061C27.2083 42.111 27.7755 43.5584 28.7298 44.7018ZM22.2007 41.626V43.6604L18.304 46.3314L14.6386 43.669V41.3605C15.5876 42.0877 16.7891 42.5473 18.2853 42.5786C19.9256 42.6128 21.2087 42.2554 22.2007 41.626ZM14.0472 44.4652L17.4801 46.9587L14.8807 49.0535L12.1027 45.1765C12.6946 44.9124 13.3413 44.6736 14.0472 44.4652ZM6.27732 56.7112C5.55627 53.8172 5.83921 48.5253 11.2007 45.6204L14.3292 49.9866C14.5228 50.2568 14.9037 50.3087 15.1625 50.1001L15.5138 49.817L16.6398 51.9542L15.7363 56.7112H11.8493V55.0376C11.8493 54.7637 11.6273 54.5417 11.3534 54.5417C11.0795 54.5417 10.8575 54.7637 10.8575 55.0376V56.7112H6.27732ZM17.4585 51.3805L16.3007 49.1829L18.2957 47.5751L20.1785 49.0925L19.0789 51.3805H17.4585ZM19.1259 46.9704L22.7976 44.4537C23.3014 44.5775 23.8778 44.7767 24.4839 45.0624L21.7053 49.0492L19.1259 46.9704ZM22.2656 49.9797L25.366 45.5312C26.3561 46.119 27.3607 46.9328 28.2148 48.0116C27.4911 48.2546 26.8258 48.531 26.2148 48.8361C23.0689 50.4069 21.4142 52.703 20.6464 55.0104L19.9139 51.9327L20.9717 49.7317L21.428 50.0994C21.6891 50.3098 22.0739 50.2549 22.2656 49.9797ZM18.999 52.3723L20.0318 56.7112H16.7458L17.5699 52.3723H18.999ZM23.6829 36.7254C23.7127 36.9044 23.819 37.0446 23.9585 37.1264C23.6843 38.3238 23.1974 39.4403 22.353 40.2518C21.5015 41.0701 20.2357 41.6274 18.306 41.587C16.5992 41.5514 15.3859 40.8777 14.5142 39.892C13.6335 38.8961 13.0849 37.5603 12.7754 36.19C12.4858 34.908 12.413 33.6284 12.4578 32.6372C13.3584 31.8107 14.9402 30.8538 16.915 30.5365C18.9049 30.2167 21.3163 30.5417 23.8702 32.3477C23.4633 33.926 23.4786 35.4998 23.6829 36.7254ZM16.7576 29.5573C14.9653 29.8453 13.4622 30.6056 12.4115 31.3909C12.3957 30.0385 12.6254 28.4828 13.3006 27.1857C13.7192 26.3816 14.3047 25.6842 15.1043 25.1861C15.9027 24.6887 16.9419 24.3729 18.2957 24.3729C20.8903 24.3729 22.3619 25.379 23.2119 26.6655C24.0624 27.9526 24.3297 29.5816 24.3528 30.9441C24.2925 31.0818 24.2361 31.2201 24.1834 31.3589C21.5079 29.5573 18.9307 29.208 16.7576 29.5573ZM27.0598 36.2149C27.0571 36.2149 27.0543 36.2149 27.0516 36.2149H24.6104C24.4667 35.0772 24.5054 33.669 24.9152 32.29C25.0193 31.9397 25.1471 31.592 25.3016 31.2515C25.8431 30.0577 26.7144 28.9453 28.0561 28.1126C29.3988 27.2793 31.2399 26.7094 33.745 26.6457C36.4559 26.647 38.3313 27.4846 39.7348 28.7205C41.9921 30.7083 42.8599 33.7772 42.6369 36.2149H36.0869L34.1861 32.2456C33.9797 31.8146 33.3695 31.8054 33.1503 32.23L31.0923 36.2149H27.0598ZM35.8266 37.2067H39.3731C39.3818 38.3993 39.3894 40.0832 38.9813 41.6718C38.697 42.7784 38.2201 43.7958 37.4359 44.5494C36.5844 45.3677 35.3186 45.925 33.389 45.8846C31.6821 45.849 30.4688 45.1753 29.5971 44.1896C28.7164 43.1937 28.1678 41.8579 27.8583 40.4876C27.5946 39.32 27.5106 38.1543 27.5316 37.2067H31.344C31.5604 37.2067 31.7587 37.0859 31.858 36.8936L33.6503 33.423L35.3048 36.878C35.401 37.0789 35.6039 37.2067 35.8266 37.2067ZM31.3836 53.4805L33.3786 51.8727L35.2615 53.3901L34.1618 55.6781H32.5415L31.3836 53.4805ZM46.9061 49.0558L44.1281 45.1788C44.72 44.9147 45.3666 44.6758 46.0726 44.4675L49.5055 46.961L46.9061 49.0558ZM48.326 49.1852L50.3211 47.5774L52.2039 49.0947L51.1043 51.3828H49.4839L48.326 49.1852Z" stroke="#0084FF" stroke-width="0.2"/>
<path fill-rule="evenodd" clip-rule="evenodd" d="M42.009 10.6606C42.009 10.6273 42.029 10.5972 42.0598 10.5844L43.9191 9.80852C43.9735 9.7858 44.0336 9.82581 44.0336 9.88481L44.0326 13.446C44.0325 13.7199 44.2545 13.942 44.5284 13.942C44.8022 13.9421 45.0243 13.7202 45.0244 13.4463L45.0255 9.4019C45.0255 9.36856 45.0455 9.33849 45.0763 9.32565L45.1536 9.2934C45.632 9.09378 45.6266 8.41419 45.1451 8.22214L35.1725 4.2441C34.3621 3.92083 33.459 3.91857 32.6469 4.23779L22.5143 8.22108C22.0293 8.41177 22.0239 9.09632 22.506 9.29454L25.5318 10.5389C25.5628 10.5516 25.5831 10.5818 25.5831 10.6153V16.1445C25.5831 16.3028 25.6497 16.4392 25.7204 16.5275C25.7553 16.5711 25.818 16.6371 25.9148 16.6842C27.5104 17.4599 30.4113 18.3613 33.724 18.4389C36.267 18.4984 39.0695 18.0609 41.7026 16.657C41.7099 16.653 41.7172 16.6489 41.7245 16.6447C41.8991 16.5416 42.009 16.3529 42.009 16.1465V10.6606Z" fill="url(#paint0_linear_599_11336)"/>
</g>
<defs>
<filter id="filter0_d_599_11336" x="0.900391" y="0" width="66.7148" height="66.0996" filterUnits="userSpaceOnUse" color-interpolation-filters="sRGB">
<feFlood flood-opacity="0" result="BackgroundImageFix"/>
<feColorMatrix in="SourceAlpha" type="matrix" values="0 0 0 0 0 0 0 0 0 0 0 0 0 0 0 0 0 0 127 0" result="hardAlpha"/>
<feOffset/>
<feGaussianBlur stdDeviation="2"/>
<feComposite in2="hardAlpha" operator="out"/>
<feColorMatrix type="matrix" values="0 0 0 0 0.164706 0 0 0 0 0.964706 0 0 0 0 1 0 0 0 0.15 0"/>
<feBlend mode="normal" in2="BackgroundImageFix" result="effect1_dropShadow_599_11336"/>
<feBlend mode="normal" in="SourceGraphic" in2="effect1_dropShadow_599_11336" result="shape"/>
</filter>
<linearGradient id="paint0_linear_599_11336" x1="27.0093" y1="0.682893" x2="32.8271" y2="23.5407" gradientUnits="userSpaceOnUse">
<stop stop-color="white"/>
<stop offset="1" stop-color="#00FCFF"/>
</linearGradient>
</defs>
</svg>
