<svg width="93" height="103" viewBox="0 0 93 103" fill="none" xmlns="http://www.w3.org/2000/svg">
<g filter="url(#filter0_d_609_12139)">
<path fill-rule="evenodd" clip-rule="evenodd" d="M45.0781 9.31756C45.0781 6.38075 47.3918 4 50.2458 4H60.3134C63.1674 4 65.4811 6.38075 65.4811 9.31755V14.9298C65.4811 17.8666 63.1674 20.2474 60.3134 20.2474H47.1452V30.6262C47.1452 31.2136 46.6825 31.6897 46.1117 31.6897C45.5409 31.6897 45.0781 31.2136 45.0781 30.6262V9.31756Z" fill="url(#paint0_linear_609_12139)"/>
<path fill-rule="evenodd" clip-rule="evenodd" d="M26.992 32.4456C25.7847 32.4456 24.806 33.4244 24.806 34.6317V49.6705H68.8865V34.6317C68.8865 33.4244 67.9078 32.4456 66.7005 32.4456H26.992ZM70.3439 49.6705V34.6317C70.3439 32.6195 68.7127 30.9883 66.7005 30.9883H26.992C24.9798 30.9883 23.3486 32.6195 23.3486 34.6317V49.6705H12.6467C10.6345 49.6705 9.00333 51.3017 9.00333 53.3139V96.5428H5.72868C5.32624 96.5428 5 96.8691 5 97.2715C5 97.674 5.32624 98.0002 5.72868 98.0002H87.9638C88.3662 98.0002 88.6925 97.674 88.6925 97.2715C88.6925 96.8691 88.3662 96.5428 87.9638 96.5428H84.5223V53.3139C84.5223 51.3017 82.8911 49.6705 80.879 49.6705H70.3439ZM83.065 96.5428V53.3139C83.065 52.1066 82.0863 51.1279 80.879 51.1279H53.9969V65.5785C53.9969 65.9809 53.6707 66.3072 53.2683 66.3072C52.8658 66.3072 52.5396 65.9809 52.5396 65.5785V51.1279H47.4915V68.9146C47.4915 69.317 47.1653 69.6433 46.7628 69.6433C46.3604 69.6433 46.0342 69.317 46.0342 68.9146V51.1279H40.9861V65.5785C40.9861 65.9809 40.6599 66.3072 40.2574 66.3072C39.855 66.3072 39.5287 65.9809 39.5287 65.5785V51.1279H12.6467C11.4394 51.1279 10.4607 52.1066 10.4607 53.3139V96.5428H37.5271V80.0028C37.5271 77.9906 39.1583 76.3594 41.1705 76.3594H52.3552C54.3674 76.3594 55.9986 77.9906 55.9986 80.0028V96.5428H83.065ZM54.5412 96.5428V80.0028C54.5412 78.7955 53.5625 77.8167 52.3552 77.8167H47.4915V96.5428H54.5412ZM46.0342 96.5428V77.8167H41.1705C39.9631 77.8167 38.9844 78.7955 38.9844 80.0028V96.5428H46.0342ZM28.8532 40.1362C28.8532 38.1241 30.4844 36.4929 32.4966 36.4929H34.507C36.5192 36.4929 38.1504 38.1241 38.1504 40.1362V42.1467C38.1504 44.1589 36.5192 45.7901 34.507 45.7901H32.4966C30.4844 45.7901 28.8532 44.1589 28.8532 42.1467V40.1362ZM32.4966 37.9502C31.2893 37.9502 30.3105 38.9289 30.3105 40.1362V42.1467C30.3105 43.354 31.2893 44.3327 32.4966 44.3327H34.507C35.7143 44.3327 36.693 43.354 36.693 42.1467V40.1362C36.693 38.9289 35.7143 37.9502 34.507 37.9502H32.4966ZM42.1976 37.8888C42.1976 37.1178 42.8226 36.4929 43.5935 36.4929H50.0989C50.8699 36.4929 51.4948 37.1178 51.4948 37.8888V44.3942C51.4948 45.1651 50.8699 45.7901 50.0989 45.7901H43.5935C42.8226 45.7901 42.1976 45.1651 42.1976 44.3942V37.8888ZM43.655 37.9502V44.3327H50.0375V37.9502H43.655ZM55.5421 37.8888C55.5421 37.1178 56.167 36.4929 56.938 36.4929H63.4434C64.2143 36.4929 64.8393 37.1178 64.8393 37.8888V44.3942C64.8393 45.1651 64.2143 45.7901 63.4434 45.7901H56.938C56.167 45.7901 55.5421 45.1651 55.5421 44.3942V37.8888ZM56.9994 37.9502V44.3327H63.3819V37.9502H56.9994ZM19.1521 58.6341C17.9448 58.6341 16.9661 59.6128 16.9661 60.8201V65.1417H23.432V58.6341H19.1521ZM24.8894 58.6341V65.1417H31.3553V60.8201C31.3553 59.6128 30.3766 58.6341 29.1692 58.6341H24.8894ZM31.3553 66.5991H24.8894V73.1067H31.3553V66.5991ZM31.3553 74.564H24.8894V81.0716H31.3553V74.564ZM31.3553 82.529H24.8894V89.0366H29.1692C30.3766 89.0366 31.3553 88.0579 31.3553 86.8506V82.529ZM23.432 89.0366V82.529H16.9661V86.8506C16.9661 88.0579 17.9448 89.0366 19.1521 89.0366H23.432ZM16.9661 81.0716H23.432V74.564H16.9661V81.0716ZM16.9661 73.1067H23.432V66.5991H16.9661V73.1067ZM15.5087 60.8201C15.5087 58.8079 17.1399 57.1767 19.1521 57.1767H29.1692C31.1814 57.1767 32.8126 58.8079 32.8126 60.8201V86.8506C32.8126 88.8628 31.1814 90.4939 29.1692 90.4939H19.1521C17.1399 90.4939 15.5087 88.8627 15.5087 86.8506V60.8201ZM61.67 58.6341V65.1417H68.1359V58.6341H61.67ZM69.5932 58.6341V65.1417H76.0592V58.6341H69.5932ZM76.0592 66.5991H69.5932V73.1067H76.0592V66.5991ZM76.0592 74.564H69.5932V81.0716H76.0592V74.564ZM76.0592 82.529H69.5932V89.0366H76.0592V82.529ZM68.1359 89.0366V82.529H61.67V89.0366H68.1359ZM61.67 81.0716H68.1359V74.564H61.67V81.0716ZM61.67 73.1067H68.1359V66.5991H61.67V73.1067ZM60.2126 58.5726C60.2126 57.8017 60.8376 57.1767 61.6085 57.1767H76.1206C76.8915 57.1767 77.5165 57.8017 77.5165 58.5726V89.0981C77.5165 89.869 76.8915 90.4939 76.1206 90.4939H61.6085C60.8376 90.4939 60.2126 89.869 60.2126 89.0981V58.5726Z" fill="white" stroke="#0084FF" stroke-width="0.2" stroke-linecap="round"/>
</g>
<defs>
<filter id="filter0_d_609_12139" x="0.900391" y="0" width="91.8926" height="102.101" filterUnits="userSpaceOnUse" color-interpolation-filters="sRGB">
<feFlood flood-opacity="0" result="BackgroundImageFix"/>
<feColorMatrix in="SourceAlpha" type="matrix" values="0 0 0 0 0 0 0 0 0 0 0 0 0 0 0 0 0 0 127 0" result="hardAlpha"/>
<feOffset/>
<feGaussianBlur stdDeviation="2"/>
<feComposite in2="hardAlpha" operator="out"/>
<feColorMatrix type="matrix" values="0 0 0 0 0.164706 0 0 0 0 0.964706 0 0 0 0 1 0 0 0 0.15 0"/>
<feBlend mode="normal" in2="BackgroundImageFix" result="effect1_dropShadow_609_12139"/>
<feBlend mode="normal" in="SourceGraphic" in2="effect1_dropShadow_609_12139" result="shape"/>
</filter>
<linearGradient id="paint0_linear_609_12139" x1="45.6716" y1="-5.5716" x2="70.0843" y2="31.9549" gradientUnits="userSpaceOnUse">
<stop stop-color="white"/>
<stop offset="1" stop-color="#00FCFF"/>
</linearGradient>
</defs>
</svg>
