<svg width="172" height="139" viewBox="0 0 172 139" fill="none" xmlns="http://www.w3.org/2000/svg">
    <g filter="url(#filter0_d_1_67643)">
        <path fill-rule="evenodd" clip-rule="evenodd" d="M78.4092 9C78.4092 6.79086 80.2 5 82.4092 5H153.649C155.858 5 157.649 6.79085 157.649 8.99999V114.627H163.677C165.886 114.627 167.677 116.417 167.677 118.627V128.481C167.677 130.685 165.904 132.481 163.689 132.481H100.182V130.481H163.689C164.789 130.481 165.677 129.591 165.677 128.481V118.627C165.677 117.522 164.781 116.627 163.677 116.627H100.182V114.627H144.673V19.1632C144.673 18.0586 143.778 17.1632 142.673 17.1632H93.1144C92.0098 17.1632 91.1144 18.0586 91.1144 19.1632V69.8223H89.1144V19.1632C89.1144 16.954 90.9052 15.1632 93.1144 15.1632H142.673C144.882 15.1632 146.673 16.954 146.673 19.1632V114.627H155.649V8.99999C155.649 7.89543 154.754 7 153.649 7H82.4092C81.3046 7 80.4092 7.89543 80.4092 9V69.8223H78.4092V9ZM124.175 65.7309C123.33 66.5999 122.817 67.941 122.817 69.8223C122.817 71.7036 123.33 73.0447 124.175 73.9137C125.017 74.7784 126.321 75.3127 128.188 75.3127C130.056 75.3127 131.433 74.7767 132.338 73.8946C133.24 73.0162 133.797 71.6764 133.797 69.8223C133.797 67.9682 133.24 66.6284 132.338 65.75C131.433 64.8679 130.056 64.3319 128.188 64.3319C126.321 64.3319 125.017 64.8662 124.175 65.7309ZM122.742 64.3361C124.057 62.9847 125.938 62.3319 128.188 62.3319C130.435 62.3319 132.364 62.9831 133.734 64.3171C135.107 65.6549 135.797 67.5602 135.797 69.8223C135.797 72.0844 135.107 73.9897 133.734 75.3275C132.364 76.6615 130.435 77.3127 128.188 77.3127C125.938 77.3127 124.057 76.6599 122.742 75.3085C121.431 73.9613 120.817 72.0572 120.817 69.8223C120.817 67.5874 121.431 65.6833 122.742 64.3361Z" fill="white" stroke="#0084FF" stroke-width="0.2"/>
        <path fill-rule="evenodd" clip-rule="evenodd" d="M104.135 86.4719H104.99H112.003L104.006 68.0796H50.9152L59.604 86.3165C59.6454 86.4035 59.7332 86.459 59.8296 86.459H81.7226H103.923C103.994 86.459 104.065 86.4634 104.135 86.4719ZM48.0096 68.0796H11.6768L4 86.4719H10.5756C10.6495 86.4598 10.7276 86.454 10.8095 86.4556L11.6875 86.4719H12.1775V86.4811L26.5719 86.7495H40.8707C40.975 86.7495 41.0684 86.6847 41.1049 86.5869L48.0096 68.0796ZM12.1775 87.9813V134.465H48.6197V70.7355L42.5103 87.1112C42.2549 87.7957 41.6012 88.2495 40.8707 88.2495H26.5649H26.5509L26.5509 88.2494L12.1775 87.9813ZM50.1197 69.8975L58.2498 86.9617C58.5401 87.5709 59.1548 87.959 59.8296 87.959H81.7226H103.49V87.9719V134.465H50.1197V69.8975ZM64.8018 107.131C67.1647 107.131 69.0803 105.216 69.0803 102.853C69.0803 100.49 67.1647 98.5742 64.8018 98.5742C62.4388 98.5742 60.5233 100.49 60.5233 102.853C60.5233 105.216 62.4388 107.131 64.8018 107.131ZM93.4483 107.131C95.8112 107.131 97.7267 105.216 97.7267 102.853C97.7267 100.49 95.8112 98.5742 93.4483 98.5742C91.0853 98.5742 89.1698 100.49 89.1698 102.853C89.1698 105.216 91.0853 107.131 93.4483 107.131ZM73.0967 104.683C73.3179 104.333 73.7811 104.228 74.1313 104.45C75.2364 105.148 77.1222 105.992 79.1322 106.237C81.1308 106.48 83.1633 106.124 84.7338 104.553C85.0267 104.26 85.5016 104.26 85.7944 104.553C86.0873 104.846 86.0873 105.321 85.7944 105.614C83.7934 107.615 81.2374 108.004 78.9512 107.726C76.6766 107.449 74.5815 106.508 73.3304 105.718C72.9801 105.497 72.8755 105.033 73.0967 104.683Z" fill="url(#paint0_linear_1_67643)"/>
    </g>
    <defs>
        <filter id="filter0_d_1_67643" x="0" y="0.900024" width="171.776" height="137.565" filterUnits="userSpaceOnUse" color-interpolation-filters="sRGB">
            <feFlood flood-opacity="0" result="BackgroundImageFix"/>
            <feColorMatrix in="SourceAlpha" type="matrix" values="0 0 0 0 0 0 0 0 0 0 0 0 0 0 0 0 0 0 127 0" result="hardAlpha"/>
            <feOffset/>
            <feGaussianBlur stdDeviation="2"/>
            <feComposite in2="hardAlpha" operator="out"/>
            <feColorMatrix type="matrix" values="0 0 0 0 0.164706 0 0 0 0 0.964706 0 0 0 0 1 0 0 0 0.2 0"/>
            <feBlend mode="normal" in2="BackgroundImageFix" result="effect1_dropShadow_1_67643"/>
            <feBlend mode="normal" in="SourceGraphic" in2="effect1_dropShadow_1_67643" result="shape"/>
        </filter>
        <linearGradient id="paint0_linear_1_67643" x1="3.32829" y1="44.5711" x2="40.4377" y2="148.573" gradientUnits="userSpaceOnUse">
            <stop stop-color="white"/>
            <stop offset="1" stop-color="#00FCFF"/>
        </linearGradient>
    </defs>
</svg>
