<svg width="32" height="32" viewBox="0 0 32 32" fill="none" xmlns="http://www.w3.org/2000/svg">
    <path d="M6.25017 9.5C6.25017 7.57718 7.01401 5.73311 8.37364 4.37348C9.73328 3.01384 11.5773 2.25 13.5002 2.25C15.423 2.25 17.2671 3.01384 18.6267 4.37348C19.9863 5.73311 20.7502 7.57718 20.7502 9.5C20.7502 9.69891 20.6712 9.88968 20.5305 10.0303C20.3898 10.171 20.1991 10.25 20.0002 10.25C19.8013 10.25 19.6105 10.171 19.4698 10.0303C19.3292 9.88968 19.2502 9.69891 19.2502 9.5C19.2502 7.97501 18.6444 6.51247 17.566 5.43414C16.4877 4.3558 15.0252 3.75 13.5002 3.75C11.9752 3.75 10.5126 4.3558 9.4343 5.43414C8.35597 6.51247 7.75017 7.97501 7.75017 9.5C7.75017 9.69891 7.67115 9.88968 7.5305 10.0303C7.38985 10.171 7.19908 10.25 7.00017 10.25C6.80126 10.25 6.61049 10.171 6.46984 10.0303C6.32919 9.88968 6.25017 9.69891 6.25017 9.5ZM23.5002 15.25C22.8496 15.2494 22.214 15.445 21.6764 15.8112C21.5652 15.2991 21.3318 14.8215 20.9961 14.419C20.6604 14.0166 20.2323 13.7013 19.7484 13.5001C19.2646 13.2989 18.7392 13.2176 18.2171 13.2633C17.695 13.309 17.1917 13.4803 16.7502 13.7625V9.5C16.7502 8.63805 16.4078 7.8114 15.7983 7.2019C15.1888 6.59241 14.3621 6.25 13.5002 6.25C12.6382 6.25 11.8116 6.59241 11.2021 7.2019C10.5926 7.8114 10.2502 8.63805 10.2502 9.5V20.375L9.30892 18.8625C8.87579 18.1166 8.16408 17.5733 7.33036 17.3521C6.49665 17.1309 5.60921 17.25 4.86329 17.6831C4.11737 18.1163 3.57406 18.828 3.35289 19.6617C3.13171 20.4954 3.25079 21.3828 3.68392 22.1287L7.34892 28.3787C7.45163 28.545 7.61521 28.6647 7.8048 28.7121C7.9944 28.7596 8.19504 28.7312 8.36401 28.633C8.53297 28.5347 8.65691 28.3744 8.70942 28.1861C8.76194 27.9979 8.73888 27.7965 8.64517 27.625L4.98392 21.375C4.86901 21.176 4.79443 20.9562 4.76444 20.7284C4.73445 20.5005 4.74963 20.269 4.80912 20.047C4.92926 19.5987 5.22257 19.2164 5.62454 18.9844C6.02651 18.7523 6.5042 18.6894 6.95253 18.8096C7.17452 18.8691 7.38262 18.9717 7.56495 19.1116C7.74728 19.2515 7.90026 19.426 8.01517 19.625C8.01862 19.6325 8.02281 19.6396 8.02767 19.6462L10.3627 23.3962C10.4486 23.535 10.5775 23.6419 10.7297 23.7007C10.8819 23.7596 11.0492 23.7671 11.2061 23.7223C11.363 23.6775 11.5011 23.5827 11.5993 23.4524C11.6974 23.322 11.7504 23.1632 11.7502 23V9.5C11.7502 9.03587 11.9345 8.59075 12.2627 8.26256C12.5909 7.93437 13.036 7.75 13.5002 7.75C13.9643 7.75 14.4094 7.93437 14.7376 8.26256C15.0658 8.59075 15.2502 9.03587 15.2502 9.5V18C15.2502 18.1989 15.3292 18.3897 15.4698 18.5303C15.6105 18.671 15.8013 18.75 16.0002 18.75C16.1991 18.75 16.3898 18.671 16.5305 18.5303C16.6712 18.3897 16.7502 18.1989 16.7502 18V16.5C16.7502 16.0359 16.9345 15.5908 17.2627 15.2626C17.5909 14.9344 18.036 14.75 18.5002 14.75C18.9643 14.75 19.4094 14.9344 19.7376 15.2626C20.0658 15.5908 20.2502 16.0359 20.2502 16.5V19C20.2502 19.1989 20.3292 19.3897 20.4698 19.5303C20.6105 19.671 20.8013 19.75 21.0002 19.75C21.1991 19.75 21.3898 19.671 21.5305 19.5303C21.6712 19.3897 21.7502 19.1989 21.7502 19V18.5C21.7502 18.0359 21.9345 17.5908 22.2627 17.2626C22.5909 16.9344 23.036 16.75 23.5002 16.75C23.9643 16.75 24.4094 16.9344 24.7376 17.2626C25.0658 17.5908 25.2502 18.0359 25.2502 18.5V23C25.2502 25.7663 24.3377 27.6475 24.3289 27.665C24.242 27.8424 24.2285 28.0469 24.2915 28.2341C24.3544 28.4214 24.4887 28.5762 24.6652 28.665C24.7684 28.7198 24.8833 28.7489 25.0002 28.75C25.1398 28.7503 25.2767 28.7116 25.3955 28.6383C25.5143 28.5649 25.6103 28.4599 25.6727 28.335C25.7164 28.2475 26.7514 26.1413 26.7514 23V18.5C26.7514 18.0731 26.6673 17.6504 26.5039 17.256C26.3405 16.8616 26.101 16.5033 25.7991 16.2015C25.4971 15.8997 25.1387 15.6603 24.7443 15.497C24.3498 15.3338 23.9271 15.2498 23.5002 15.25Z" fill="white"/>
</svg>